<svg width="100%" height="100%" viewBox="0 0 100 100" version="1.1" xmlns="http://www.w3.org/2000/svg" id="decent-logo-svg">
       <defs>
         <style type="text/css">
           @import url("https://fonts.googleapis.com/css?family=Dosis:400,700")
         </style>
         <style type="text/css">
           #text text {
             font-family: 'Dosis'
           }
         </style>
       </defs>
       <g id="svg-content"><circle cx="50" cy="50" r="25" id="shape"></circle><g textAlign="center" fill="undefined" style="text-anchor: middle; stroke-width: 0;" stroke="rgba(0,0,0,0)" id="halftones"><polygon points="75,50,75,50,75,50"></polygon><polygon points="74.9229333433282,52.265196010578414,75.18596138158355,51.80961808450498,74.65990530507284,51.80961808450498"></polygon><polygon points="74.69220851487844,54.45814366373339,75.16616866258548,53.637220607141955,74.21824836717141,53.637220607141955"></polygon><polygon points="74.30924800994191,56.518583634924916,74.9002666471075,55.494909327133996,73.71822937277632,55.494909327133996"></polygon><polygon points="73.77641290737884,58.40787439790096,74.36743154454443,57.38420009011004,73.18539427021325,57.38420009011004"></polygon><polygon points="73.09698831278217,60.11436784685486,73.5709484604892,59.29344479026343,72.62302816507514,59.29344479026343"></polygon><polygon points="72.2751631047092,61.653481110870956,72.53819114296455,61.197903184797525,72.01213506645384,61.197903184797525"></polygon><polygon points="71.31600410885231,63.720248952448856,71.88566248579687,62.73357170062365,70.74634573190775,62.73357170062365"></polygon><polygon points="70.22542485937369,65.38399673442036,70.8224328317404,64.34994859375755,69.62841688700698,64.34994859375755"></polygon><polygon points="69.01014914000078,66.93620120825459,69.61636692264989,65.88620120825459,68.40393135735167,65.88620120825459"></polygon><polygon points="67.67766952966369,68.36703495677223,68.2746775020304,67.33298681610941,67.08066155729698,67.33298681610941"></polygon><polygon points="66.23620120825458,69.66793397455092,66.80585958519914,68.6812567227257,65.66654283131003,68.6812567227257"></polygon><polygon points="64.69463130731182,70.8316426420228,65.21963130731183,69.92231596804913,64.16963130731182,69.92231596804913"></polygon><polygon points="63.06246411789872,71.85223521903558,63.52685388161698,71.04788855376066,62.59807435418046,71.04788855376066"></polygon><polygon points="61.34976249348867,72.72511443148977,61.739431772947164,72.05018744131891,60.960093214030174,72.05018744131891"></polygon><polygon points="59.56708580912725,73.44698831278217,59.870194700451805,72.92198831278218,59.263976917802694,72.92198831278218"></polygon><polygon points="57.72542485937369,74.0158270077068,57.932763552281905,73.65670585721486,57.51808616646547,73.65670585721486"></polygon><polygon points="55.836134096397636,74.43080173430876,55.941402709623944,74.24847114775848,55.73086548317133,74.24847114775848"></polygon><polygon points="53.910861626005776,74.74220851487844,53.954162896195,74.66720851487844,53.86756035581655,74.66720851487844"></polygon><polygon points="51.96147739319613,75.04448706769504,52.066746006422434,74.86215648114477,51.85620877996982,74.86215648114477"></polygon><polygon points="50,75.23941410032796,50.207338692908216,74.88029294983602,49.792661307091784,74.88029294983602"></polygon><polygon points="48.03852260680388,75.27293334332819,48.341631498128436,74.7479333433282,47.735413715479325,74.7479333433282"></polygon><polygon points="46.089138373994224,75.14215984165902,46.47880765345272,74.46723285148816,45.69946909453573,74.46723285148816"></polygon><polygon points="44.16386590360237,74.84547912012519,44.62825566732063,74.04113245485027,43.69947613988411,74.04113245485027"></polygon><polygon points="42.27457514062632,74.38263069002795,42.79957514062632,73.47330401605429,41.74957514062632,73.47330401605429"></polygon><polygon points="40.43291419087276,73.39091068387435,40.68745843097915,72.95002712723608,40.17836995076637,72.95002712723608"></polygon><polygon points="38.65023750651133,72.49867417580438,38.84380377210683,72.1634075691616,38.45667124091583,72.1634075691616"></polygon><polygon points="36.93753588210128,71.46648341700003,37.06785478570111,71.24076445477846,36.80721697850145,71.24076445477846"></polygon><polygon points="35.30536869268818,70.30110817227045,35.370912364299336,70.18758320292531,35.23982502107702,70.18758320292531"></polygon><polygon points="33.763798791745415,69.01014914000078,33.763798791745415,69.01014914000078,33.763798791745415,69.01014914000078"></polygon><polygon points="32.32233047033631,67.75335284256045,32.38787414194747,67.63982787321531,32.25678679872515,67.63982787321531"></polygon><polygon points="30.98985085999923,66.38668051640232,31.12016976359906,66.16096155418074,30.8595319563994,66.16096155418074"></polygon><polygon points="29.774575140626318,64.91814237840701,29.968141406221818,64.58287577176424,29.581008875030818,64.58287577176424"></polygon><polygon points="28.683995891147696,63.35638648899091,28.938540131254086,62.91550293235263,28.429451651041305,62.91550293235263"></polygon><polygon points="27.724836895290807,61.710650193512585,28.037374811424854,61.169318643476714,27.41229897915676,61.169318643476714"></polygon><polygon points="26.90301168721783,59.990707759762884,27.26987905806901,59.35527483380943,26.536144316366652,59.35527483380943"></polygon><polygon points="26.223587092621162,58.20681448057108,26.640482733696274,57.48473004877499,25.80669145154605,57.48473004877499"></polygon><polygon points="25.690751990058086,56.36964753498698,26.15278818113685,55.56937737710297,25.228715798979323,55.56937737710296"></polygon><polygon points="25.30779148512156,54.4902439247156,25.80955127430729,53.62117047665087,24.80603169593583,53.62117047665086"></polygon><polygon points="25.0770666566718,52.57993582430834,25.61266736919965,51.65224817764002,24.54146594414395,51.65224817764002"></polygon><polygon points="25,50.65028370387176,25.563162207219975,49.674858148064125,24.436837792780025,49.674858148064125"></polygon><polygon points="25.077066656671796,48.71300760156734,25.661187796608363,47.70128010942216,24.49294551673523,47.70128010942216"></polygon><polygon points="25.307791485121555,46.7799169397733,25.90602327147601,45.743749091104696,24.7095596987671,45.743749091104696"></polygon><polygon points="25.690751990058082,44.86283929329816,26.296080702103954,43.81437920875448,25.08542327801221,43.814379208754474"></polygon><polygon points="26.223587092621162,42.97354853032209,26.828915804667034,41.925088445778414,25.61825838057529,41.925088445778414"></polygon><polygon points="26.90301168721783,41.12369275665183,27.501243473572284,40.08752490798322,26.304779900863377,40.08752490798322"></polygon><polygon points="27.724836895290796,39.3247225012748,28.308958035227363,38.312995009129615,27.14071575535423,38.312995009129615"></polygon><polygon points="28.683995891147692,37.587819585973044,29.247158098367667,36.61239403016541,28.120833683927717,36.61239403016541"></polygon><polygon points="29.774575140626315,35.92382712380039,30.310175853154163,34.99613947713207,29.238974428098466,34.99613947713207"></polygon><polygon points="30.989850859999233,34.343181090455225,31.491610649184963,33.47410764239049,30.488091070813503,33.47410764239049"></polygon><polygon points="32.32233047033631,32.85584390892566,32.78436666141507,32.05557375104164,31.86029427925755,32.055573751041635"></polygon><polygon points="33.7637987917454,31.471240481196634,34.180694432820516,30.74915604940054,33.346903150670286,30.74915604940054"></polygon><polygon points="35.30536869268817,30.198197091261953,35.672236063539344,29.5627641653085,34.938501321836995,29.5627641653085"></polygon><polygon points="36.937535882101265,29.04488359117162,37.25007379823531,28.503552041135745,36.62499796596722,28.503552041135745"></polygon><polygon points="38.65023750651133,27.92204968507981,38.82102879241981,27.626230500396307,38.47944622060285,27.626230500396307"></polygon><polygon points="40.432914190872744,26.95301168721784,40.47621546106197,26.87801168721784,40.38961292068352,26.87801168721784"></polygon><polygon points="42.27457514062631,26.42079988241016,42.44536642653478,26.124980697726663,42.10378385471784,26.124980697726663"></polygon><polygon points="44.16386590360237,26.069200562277,44.4916119811699,25.501527703948625,43.83611982603484,25.50152770394862"></polygon><polygon points="46.089138373994224,25.83681618716954,46.54728720519727,25.043279134097567,45.63098954279118,25.043279134097567"></polygon><polygon points="48.03852260680388,25.71380905341996,48.58995769805438,24.75869545829772,47.487087515553384,24.75869545829772"></polygon><polygon points="49.99999999999999,25.69287500931665,50.600047359715596,24.653562495341674,49.39995264028439,24.653562495341674"></polygon><polygon points="51.961477393196105,25.769941665988448,52.56152475291171,24.73062915201347,51.3614300334805,24.73062915201347"></polygon><polygon points="53.91086162600577,25.944533881869717,54.462296717256265,24.989420286747475,53.35942653475527,24.989420286747475"></polygon><polygon points="55.83613409639762,26.219776692106063,56.29428292760067,25.42623963903409,55.377985265194575,25.42623963903409"></polygon><polygon points="57.72542485937368,26.602035664840077,58.053170936941214,26.0343628065117,57.39767878180615,26.034362806511698"></polygon><polygon points="59.56708580912725,27.039574912629124,59.68535303155617,26.83473007451219,59.44881858669833,26.83473007451219"></polygon><polygon points="61.34976249348867,27.99271529794636,61.58175199531358,27.59089769396302,61.117772991663756,27.59089769396302"></polygon><polygon points="63.06246411789873,29.07289505426142,63.39926067266572,28.48954630959084,62.725667563131736,28.48954630959084"></polygon><polygon points="64.69463130731182,30.269549887456893,65.12329201229888,29.527087767211018,64.26597060232477,29.527087767211018"></polygon><polygon points="66.2362012082546,31.57187958861101,66.74025287296476,30.69883649569334,65.73214954354444,30.69883649569334"></polygon><polygon points="67.67766952966369,32.96904614309421,68.23774173129758,31.99897263395736,67.1175973280298,31.99897263395736"></polygon><polygon points="69.01014914000076,34.450348488027664,69.60471861794169,33.42052394360427,68.41557966205984,33.42052394360427"></polygon><polygon points="70.22542485937367,36.005368692688165,70.83164264202279,34.95536869268816,69.61920707672456,34.95536869268816"></polygon><polygon points="71.3160041088523,37.62408557838353,71.91057358679322,36.59426103396014,70.72143463091138,36.59426103396014"></polygon><polygon points="72.2751631047092,39.296953179269224,72.83523530634308,38.32687967013237,71.7150909030753,38.32687967013237"></polygon><polygon points="73.09698831278216,41.01494291948452,73.60103997749232,40.14189982656685,72.592936648072,40.14189982656684"></polygon><polygon points="73.77641290737884,42.7695498874569,74.2050736123659,42.02708776721102,73.34775220239179,42.02708776721102"></polygon><polygon points="74.30924800994191,44.55276506671609,74.6460445647089,43.96941632204551,73.97245145517492,43.96941632204551"></polygon><polygon points="74.69220851487844,46.357016776649786,74.92419801670336,45.95519917266644,74.46021901305353,45.95519917266644"></polygon><polygon points="74.9229333433282,48.17508583221517,75.04120056575711,47.97024099409823,74.80466612089928,47.97024099409823"></polygon><polygon points="77,49.99999999999999,77,49.99999999999999,77,49.99999999999999"></polygon><polygon points="76.91676801079446,52.42211420203408,77.17979604904981,51.96653627596065,76.6537399725391,51.96653627596065"></polygon><polygon points="76.66758519606873,54.77101259381382,77.14154534377576,53.95008953722239,76.1936250483617,53.95008953722239"></polygon><polygon points="76.25398785073727,56.98547436263673,76.84500648790286,55.96180005484581,75.66296921357169,55.96180005484581"></polygon><polygon points="75.67852593996915,59.025908386650855,76.26954457713474,58.002234078859935,75.08750730280356,58.002234078859935"></polygon><polygon points="74.94474737780475,60.87973471158505,75.41870752551178,60.05881165499362,74.47078723009771,60.05881165499362"></polygon><polygon points="74.05717615308593,62.56146211035004,74.32020419134129,62.10588418427661,73.79414811483058,62.10588418427661"></polygon><polygon points="73.0212844375605,64.76524608188075,73.59094281450506,63.778568830055534,72.45162606061594,63.778568830055534"></polygon><polygon points="71.84345884812357,66.55956723900533,72.44046682049029,65.52551909834251,71.24645087575686,65.52551909834251"></polygon><polygon points="70.53096107120084,68.23509730491496,71.13717885384995,67.18509730491496,69.92474328855172,67.18509730491496"></polygon><polygon points="69.0918830920368,69.78124851914532,69.6888910644035,68.7472003784825,68.49487511967008,68.7472003784825"></polygon><polygon points="67.53509730491497,71.18874590575096,68.10475568185953,70.20206865392575,66.96543892797041,70.20206865392575"></polygon><polygon points="65.8702018118968,72.44967663077267,66.39520181189681,71.540349956799,65.3452018118968,71.540349956799"></polygon><polygon points="64.10746124733062,73.55751554774378,64.57185101104888,72.75316888246886,63.64307148361236,72.75316888246886"></polygon><polygon points="62.25774349296777,74.50712747986651,62.647412772426264,73.83220048969565,61.868074213509274,73.83220048969565"></polygon><polygon points="60.332452673857446,75.29474737780473,60.635561565182,74.76974737780473,60.02934378253289,74.76974737780473"></polygon><polygon points="58.34345884812359,75.91794004029711,58.550797541031805,75.55881888980517,58.13612015521537,75.55881888980517"></polygon><polygon points="56.303024824109464,76.37554157510411,56.40829343733577,76.19321098855383,56.197756210883156,76.19321098855383"></polygon><polygon points="54.22373055608622,76.71758519606873,54.26703182627544,76.64258519606872,54.18042928589699,76.64258519606872"></polygon><polygon points="52.11839558465181,77.0383217351613,52.223664197878115,76.85599114861103,52.0131269714255,76.85599114861103"></polygon><polygon points="50.00000000000001,77.23941410032796,50.20733869290822,76.88029294983602,49.79266130709179,76.88029294983602"></polygon><polygon points="47.88160441534821,77.26676801079445,48.18471330667276,76.74176801079446,47.57849552402365,76.74176801079446"></polygon><polygon points="45.7762694439138,77.1175365228493,46.16593872337229,76.44260953267845,45.3866001644553,76.44260953267845"></polygon><polygon points="43.69697517589053,76.79021896092054,44.16136493960879,75.98587229564562,43.23258541217227,75.98587229564562"></polygon><polygon points="41.656541151876425,76.28474372261826,42.181541151876424,75.3754170486446,41.13154115187643,75.3754170486446"></polygon><polygon points="39.667547326142575,75.23866974889692,39.922091566248966,74.79778619225866,39.413003086036184,74.79778619225866"></polygon><polygon points="37.742256507032266,74.28068722418114,37.935822772627766,73.94542061753836,37.548690241436766,73.94542061753836"></polygon><polygon points="35.892538752669395,73.17176374570822,36.022857656269224,72.94604478348664,35.76221984906957,72.94604478348664"></polygon><polygon points="34.12979818810323,71.91914216102035,34.19534185971439,71.80561719167521,34.06425451649207,71.80561719167521"></polygon><polygon points="32.46490269508504,70.53096107120084,32.46490269508504,70.53096107120084,32.46490269508504,70.53096107120084"></polygon><polygon points="30.90811690796324,69.16756640493357,30.9736605795744,69.05404143558843,30.84257323635208,69.05404143558843"></polygon><polygon points="29.46903892879918,67.6855766130627,29.599357832399008,67.45985765084112,29.33872002519935,67.45985765084112"></polygon><polygon points="28.156541151876425,66.09371288299197,28.350107417471925,65.75844627634919,27.962974886280925,65.75844627634919"></polygon><polygon points="26.978715562439508,64.4013836184228,27.2332598025459,63.96050006178453,26.724171322333117,63.96050006178453"></polygon><polygon points="25.94282384691406,62.618631192991664,26.255361763048107,62.07729964295579,25.630285930780012,62.07729964295579"></polygon><polygon points="25.055252622195265,60.75607462449308,25.422119993046444,60.12064169853963,24.688385251344087,60.12064169853963"></polygon><polygon points="24.32147406003086,58.82484846932098,24.738369701105974,58.10276403752489,23.904578418955747,58.10276403752489"></polygon><polygon points="23.746012149262743,56.83653826269884,24.208048340341506,56.03626810481482,23.28397595818398,56.036268104814816"></polygon><polygon points="23.33241480393128,54.80311285479604,23.83417459311701,53.93403940673131,22.83065501474555,53.9340394067313"></polygon><polygon points="23.083231989205544,52.73685401576405,23.618832701733393,51.80916636909573,22.547631276677695,51.80916636909573"></polygon><polygon points="23,50.650283703871764,23.563162207219975,49.67485814806413,22.436837792780025,49.67485814806413"></polygon><polygon points="23.083231989205544,48.55608941011164,23.66735312914211,47.544361917966455,22.499110849268977,47.544361917966455"></polygon><polygon points="23.33241480393128,46.46704800969287,23.930646590285733,45.43088016102426,22.734183017576825,45.43088016102426"></polygon><polygon points="23.74601214926274,44.395948565586316,24.35134086130861,43.34748848104264,23.140683437216868,43.34748848104263"></polygon><polygon points="24.32147406003085,42.35551454157221,24.926802772076723,41.307054457028535,23.71614534798498,41.30705445702853"></polygon><polygon points="25.05525262219526,40.358325891921645,25.653484408549712,39.32215804325304,24.457020835840805,39.32215804325304"></polygon><polygon points="25.942823846914052,38.41674150179572,26.52694498685062,37.405014009650536,25.358702706977486,37.405014009650536"></polygon><polygon points="26.9787155624395,36.54282245654116,27.541877769659475,35.56739690073353,26.415553355219526,35.56739690073353"></polygon><polygon points="28.156541151876414,34.748256619215454,28.692141864404263,33.82056897254713,27.620940439348566,33.82056897254713"></polygon><polygon points="29.469038928799165,33.04428499379487,29.970798717984895,32.175211545730136,28.967279139613435,32.175211545730136"></polygon><polygon points="30.908116907963226,31.44163034655255,31.37015309904199,30.641360188668532,30.446080716884463,30.641360188668532"></polygon><polygon points="32.46490269508502,29.950428549996577,32.88179833616014,29.228344118200482,32.04800705400991,29.228344118200482"></polygon><polygon points="34.129798188103216,28.58016310251206,34.49666555895439,27.944730176558608,33.76293081725204,27.944730176558608"></polygon><polygon points="35.89253875266938,27.339603262463424,36.20507666880343,26.79827171242755,35.58000083653533,26.79827171242755"></polygon><polygon points="37.74225650703225,26.140036636703062,37.91304779294073,25.84421745201956,37.57146522112377,25.84421745201956"></polygon><polygon points="39.667547326142554,25.105252622195266,39.71084859633178,25.030252622195267,39.62424605595333,25.030252622195267"></polygon><polygon points="41.65654115187641,24.518686849819858,41.82733243778488,24.22286766513636,41.48574986596794,24.22286766513636"></polygon><polygon points="43.69697517589051,24.12446072148166,44.02472125345804,23.556787863153286,43.369229098322975,23.556787863153282"></polygon><polygon points="45.776269443913776,23.86143950597926,46.23441827511682,23.067902452907287,45.31812061271073,23.067902452907287"></polygon><polygon points="47.881604415348164,23.71997438595371,48.43303950659866,22.764860790831467,47.33016932409767,22.764860790831467"></polygon><polygon points="49.999999999999986,23.69287500931665,50.60004735971559,22.653562495341674,49.39995264028438,22.653562495341674"></polygon><polygon points="52.118395584651815,23.776106998522195,52.71844294436742,22.736794484547218,51.51834822493621,22.736794484547218"></polygon><polygon points="54.223730556086196,23.96915720067944,54.77516564733669,23.014043605557198,53.6722954648357,23.014043605557198"></polygon><polygon points="56.30302482410947,24.275036851310716,56.76117365531252,23.481499798238744,55.844875992906424,23.481499798238744"></polygon><polygon points="58.34345884812357,24.699922632249766,58.6712049256911,24.13224977392139,58.015712770556036,24.132249773921387"></polygon><polygon points="60.332452673857425,25.19181584760655,60.450719896286344,24.986971009489615,60.214185451428506,24.986971009489615"></polygon><polygon points="62.257743492967734,26.210702249569614,62.48973299479265,25.80888464558627,62.02575399114282,25.80888464558627"></polygon><polygon points="64.1074612473306,27.367614725553217,64.4442578020976,26.784265980882637,63.770664692563614,26.784265980882637"></polygon><polygon points="65.87020181189676,28.651515898706997,66.29886251688382,27.90905377846112,65.44154110690971,27.90905377846112"></polygon><polygon points="67.53509730491496,30.051067657410947,68.03914896962512,29.178024564493274,67.0310456402048,29.178024564493274"></polygon><polygon points="69.09188309203675,31.55483258072109,69.65195529367064,30.58475907158424,68.53181089040287,30.58475907158424"></polygon><polygon points="70.53096107120082,33.151452391367286,71.12553054914174,32.121627846943895,69.9363915932599,32.121627846943895"></polygon><polygon points="71.84345884812357,34.82979818810322,72.44967663077269,33.779798188103214,71.23724106547446,33.779798188103214"></polygon><polygon points="73.0212844375605,36.579088448951644,73.61585391550142,35.54926390452825,72.42671495961957,35.54926390452825"></polygon><polygon points="74.05717615308593,38.388972179790144,74.61724835471982,37.41889867065329,73.49710395145205,37.41889867065329"></polygon><polygon points="74.94474737780473,40.249576054754336,75.44879904251489,39.376532961836666,74.44069571309457,39.37653296183666"></polygon><polygon points="75.67852593996915,42.151515898707,76.1071866449562,41.40905377846112,75.2498652349821,41.40905377846112"></polygon><polygon points="76.25398785073726,44.08587433900423,76.59078440550425,43.50252559433365,75.91719129597027,43.50252559433365"></polygon><polygon points="76.66758519606873,46.04414784656934,76.89957469789364,45.64233024258599,76.43559569424382,45.64233024258599"></polygon><polygon points="76.91676801079446,48.01816764075945,77.03503523322337,47.81332280264252,76.79850078836554,47.81332280264252"></polygon><polygon points="79,49.999999999999986,79,49.999999999999986,79,49.999999999999986"></polygon><polygon points="78.91060267826072,52.57903239348979,79.17363071651607,52.12345446741636,78.64757464000536,52.12345446741636"></polygon><polygon points="78.642961877259,55.08388152389428,79.11692202496603,54.262958467302845,78.16900172955197,54.262958467302845"></polygon><polygon points="78.19872769153261,57.45236509034856,78.7897463286982,56.42869078255764,77.60770905436702,56.42869078255764"></polygon><polygon points="77.58063897255947,59.64394237540069,78.17165760972506,58.62026806760977,76.98962033539388,58.62026806760977"></polygon><polygon points="76.79250644282732,61.64510157631522,77.26646659053435,60.82417851972379,76.31854629512029,60.82417851972379"></polygon><polygon points="75.83918920146266,63.46944310982916,76.10221723971802,63.013865183755726,75.5761611632073,63.013865183755726"></polygon><polygon points="74.7265647662687,65.81024321131264,75.29622314321325,64.82356595948742,74.15690638932413,64.82356595948742"></polygon><polygon points="73.46149283687349,67.73513774359024,74.0585008092402,66.70108960292742,72.86448486450678,66.70108960292742"></polygon><polygon points="72.05177300240094,69.53399340157529,72.65799078505005,68.48399340157529,71.44555521975182,68.48399340157529"></polygon><polygon points="70.50609665440987,71.19546208151843,71.10310462677658,70.16141394085561,69.90908868204316,70.16141394085561"></polygon><polygon points="68.8339934015753,72.70955783695106,69.40365177851986,71.72288058512585,68.26433502463074,71.72288058512585"></polygon><polygon points="67.04577231648173,74.06771061952259,67.57077231648174,73.15838394554892,66.52077231648173,73.15838394554892"></polygon><polygon points="65.15245837676252,75.26279587645195,65.61684814048078,74.45844921117703,64.68806861304427,74.45844921117703"></polygon><polygon points="63.1657244924469,76.28914052824322,63.55539377190539,75.61421353807236,62.7760552129884,75.61421353807236"></polygon><polygon points="61.09781953858763,77.1425064428273,61.400928429912184,76.6175064428273,60.794710647263074,76.6175064428273"></polygon><polygon points="58.96149283687344,77.82005307288743,59.168831529781656,77.46093192239549,58.75415414396522,77.46093192239549"></polygon><polygon points="56.76991555182131,78.32028141589946,56.87518416504762,78.13795082934918,56.664646938595006,78.13795082934918"></polygon><polygon points="54.536599486166686,78.692961877259,54.57990075635591,78.61796187725899,54.49329821597746,78.61796187725899"></polygon><polygon points="52.27531377610753,79.03215640262756,52.38058238933384,78.84982581607728,52.17004516288122,78.84982581607728"></polygon><polygon points="50.000000000000014,79.23941410032796,50.20733869290823,78.88029294983602,49.7926613070918,78.88029294983602"></polygon><polygon points="47.7246862238925,79.26060267826071,48.02779511521705,78.73560267826072,47.42157733256794,78.73560267826072"></polygon><polygon points="45.46340051383335,79.09291320403958,45.853069793291844,78.41798621386872,45.073731234374854,78.41798621386872"></polygon><polygon points="43.23008444817872,78.73495880171589,43.69447421189698,77.93061213644097,42.76569468446046,77.93061213644097"></polygon><polygon points="41.03850716312659,78.18685675520858,41.56350716312659,77.27753008123491,40.51350716312659,77.27753008123491"></polygon><polygon points="38.9021804614124,77.0864288139195,39.15672470151879,76.64554525728123,38.64763622130601,76.64554525728123"></polygon><polygon points="36.83427550755314,76.06270027255785,37.02784177314864,75.72743366591507,36.64070924195764,75.72743366591507"></polygon><polygon points="34.847541623237504,74.87704407441642,34.97786052683733,74.65132511219484,34.717222719637675,74.65132511219484"></polygon><polygon points="32.95422768351829,73.53717614977025,33.01977135512945,73.42365118042511,32.88868401190713,73.42365118042511"></polygon><polygon points="31.166006598424715,72.05177300240094,31.166006598424715,72.05177300240094,31.166006598424715,72.05177300240094"></polygon><polygon points="29.49390334559015,70.58177996730666,29.55944701720131,70.46825499796152,29.428359673978992,70.46825499796152"></polygon><polygon points="27.94822699759909,68.98447270972304,28.07854590119892,68.75875374750146,27.81790809399926,68.75875374750146"></polygon><polygon points="26.538507163126532,67.26928338757692,26.732073428722032,66.93401678093414,26.344940897531032,66.93401678093414"></polygon><polygon points="25.273435233731327,65.4463807478547,25.527979473837718,65.00549719121643,25.018890993624936,65.00549719121643"></polygon><polygon points="24.16081079853735,63.526612192470814,24.4733487146714,62.985280642434944,23.848272882403304,62.985280642434944"></polygon><polygon points="23.207493557172693,61.521441489223264,23.57436092802387,60.88600856326981,22.840626186321515,60.88600856326981"></polygon><polygon points="22.419361027440534,59.442882458070834,22.836256668515645,58.72079802627474,22.002465386365422,58.72079802627474"></polygon><polygon points="21.801272308467393,57.30342899041066,22.263308499546156,56.503158832526644,21.33923611738863,56.50315883252664"></polygon><polygon points="21.357038122741006,55.11598178487651,21.858797911926736,54.24690833681178,20.855278333555276,54.24690833681177"></polygon><polygon points="21.08939732173929,52.89377220721975,21.62499803426714,51.96608456055142,20.553796609211442,51.96608456055142"></polygon><polygon points="21,50.65028370387177,21.563162207219975,49.67485814806414,20.436837792780025,49.67485814806414"></polygon><polygon points="21.089397321739288,48.39917121865596,21.673518461675854,47.387443726510774,20.50527618180272,47.387443726510774"></polygon><polygon points="21.357038122741,46.15417907961242,21.955269909095453,45.118011230943814,20.758806336386545,45.118011230943814"></polygon><polygon points="21.801272308467382,43.92905783787451,22.406601020513254,42.88059775333083,21.19594359642151,42.880597753330825"></polygon><polygon points="22.419361027440527,41.73748055282238,23.024689739486398,40.689020468278706,21.814032315394655,40.6890204682787"></polygon><polygon points="23.20749355717266,39.59295902719152,23.805725343527115,38.556791178522914,22.609261770818208,38.556791178522914"></polygon><polygon points="24.16081079853736,37.50876050231654,24.744931938473925,36.49703301017136,23.57668965860079,36.49703301017136"></polygon><polygon points="25.27343523373131,35.49782532710927,25.836597440951284,34.522399771301636,24.710273026511334,34.522399771301636"></polygon><polygon points="26.538507163126514,33.572686114630514,27.074107875654363,32.64499846796219,26.002906450598665,32.64499846796219"></polygon><polygon points="27.9482269975991,31.7453888971345,28.44998678678483,30.876315449069764,27.44646720841337,30.876315449069764"></polygon><polygon points="29.493903345590127,30.02741678417946,29.95593953666889,29.227146626295443,29.031867154511364,29.227146626295443"></polygon><polygon points="31.16600659842469,28.429616618796487,31.582902239499802,27.707532187000393,30.74911095734958,27.707532187000393"></polygon><polygon points="32.95422768351822,26.962129113762202,33.321095054369394,26.32669618780875,32.587360312667045,26.32669618780875"></polygon><polygon points="34.84754162323752,25.634322933755218,35.160079539371566,25.092991383719344,34.53500370710347,25.092991383719344"></polygon><polygon points="36.8342755075531,24.358023588326358,37.00506679346158,24.062204403642856,36.66348422164462,24.062204403642856"></polygon><polygon points="38.90218046141237,23.257493557172698,38.945481731601596,23.182493557172698,38.858879191223146,23.182493557172698"></polygon><polygon points="41.03850716312651,22.61657381722955,41.20929844903498,22.320754632546052,40.86771587721804,22.320754632546052"></polygon><polygon points="43.23008444817874,22.179720880686297,43.55783052574627,21.61204802235792,42.902338370611204,21.612048022357918"></polygon><polygon points="45.463400513833314,21.886062824788986,45.92154934503636,21.092525771717014,45.005251682630266,21.092525771717014"></polygon><polygon points="47.72468622389241,21.726139718487456,48.27612131514291,20.771026123365214,47.173251132641916,20.771026123365214"></polygon><polygon points="49.99999999999993,21.69287500931665,50.60004735971553,20.653562495341674,49.399952640284326,20.653562495341674"></polygon><polygon points="52.275313776107545,21.782272331055943,52.87536113582315,20.742959817080965,51.67526641639194,20.742959817080965"></polygon><polygon points="54.53659948616665,21.99378051948916,55.08803457741715,21.038666924366918,53.985164394916154,21.038666924366918"></polygon><polygon points="56.76991555182123,22.330297010515352,57.228064383024275,21.53675995744338,56.31176672061818,21.53675995744338"></polygon><polygon points="58.96149283687346,22.79780959965946,59.28923891444099,22.230136741331084,58.63374675930593,22.23013674133108"></polygon><polygon points="61.0978195385876,23.344056782583973,61.21608676101652,23.13921194446704,60.97955231615868,23.13921194446704"></polygon><polygon points="63.16572449244686,24.428689201192896,63.397713994271776,24.026871597209553,62.93373499062195,24.026871597209553"></polygon><polygon points="65.15245837676244,25.662334396845,65.48925493152943,25.07898565217442,64.81566182199545,25.07898565217442"></polygon><polygon points="67.04577231648175,27.033481909957125,67.4744330214688,26.29101978971125,66.61711161149469,26.29101978971125"></polygon><polygon points="68.83399340157528,28.530255726210846,69.33804506628545,27.657212633293174,68.32994173686512,27.657212633293174"></polygon><polygon points="70.50609665440984,30.140619018347987,71.06616885604373,29.170545509211138,69.94602445277596,29.170545509211138"></polygon><polygon points="72.05177300240088,31.852556294706908,72.6463424803418,30.822731750283516,71.45720352445996,30.822731750283516"></polygon><polygon points="73.46149283687346,33.654227683518265,74.06771061952257,32.60422768351826,72.85527505422435,32.60422768351826"></polygon><polygon points="74.72656476626867,35.53409131951974,75.32113424420959,34.50426677509635,74.13199528832774,34.50426677509635"></polygon><polygon points="75.83918920146263,37.48099118031096,76.39926140309652,36.510917671174106,75.27911699982874,36.510917671174106"></polygon><polygon points="76.79250644282732,39.484209190024195,77.29655810753748,38.611166097106526,76.28845477811716,38.61116609710652"></polygon><polygon points="77.58063897255946,41.53348190995714,78.00929967754651,40.791019789711264,77.1519782675724,40.791019789711264"></polygon><polygon points="78.19872769153261,43.61898361129241,78.5355242462996,43.03563486662183,77.86193113676562,43.03563486662183"></polygon><polygon points="78.64296187725898,45.73127891648882,78.8749513790839,45.32946131250547,78.41097237543407,45.32946131250547"></polygon><polygon points="78.91060267826072,47.86124944930375,79.02886990068963,47.656404611186815,78.7923354558318,47.656404611186815"></polygon><polygon points="81,49.99999999999998,81,49.99999999999998,81,49.99999999999998"></polygon><polygon points="80.90443734572696,52.73595058494547,81.16746538398232,52.28037265887204,80.6414093074716,52.28037265887204"></polygon><polygon points="80.61833855844927,55.39675045397478,81.0922987061563,54.57582739738335,80.14437841074223,54.57582739738335"></polygon><polygon points="80.14346753232797,57.919255818060364,80.73448616949356,56.895581510269444,79.55244889516239,56.895581510269444"></polygon><polygon points="79.48275200514979,60.26197636415058,80.07377064231538,59.23830205635966,78.8917333679842,59.23830205635966"></polygon><polygon points="78.64026550784992,62.410468441045346,79.11422565555695,61.58954538445391,78.16630536014289,61.58954538445391"></polygon><polygon points="77.62120224983937,64.3774241093083,77.88423028809473,63.92184618323486,77.35817421158401,63.92184618323486"></polygon><polygon points="76.43184509497688,66.85524034074453,77.00150347192144,65.86856308891932,75.86218671803232,65.86856308891932"></polygon><polygon points="75.07952682562339,68.91070824817518,75.6765347979901,67.87666010751236,74.48251885325668,67.87666010751236"></polygon><polygon points="73.57258493360096,70.83288949823569,74.17880271625008,69.78288949823569,72.96636715095185,69.78288949823569"></polygon><polygon points="71.92031021678298,72.60967564389152,72.51731818914969,71.5756275032287,71.32330224441627,71.5756275032287"></polygon><polygon points="70.13288949823568,74.2303697681511,70.70254787518024,73.2436925163259,69.56323112129112,73.2436925163259"></polygon><polygon points="68.22134282106673,75.68574460827243,68.74634282106673,74.77641793429876,67.69634282106672,74.77641793429876"></polygon><polygon points="66.19745550619437,76.96807620516016,66.66184526991263,76.16372953988524,65.73306574247611,76.16372953988524"></polygon><polygon points="64.07370549192599,78.07115357661996,64.46337477138448,77.3962265864491,63.6840362124675,77.3962265864491"></polygon><polygon points="61.86318640331782,78.99026550784987,62.166295294642374,78.46526550784988,61.56007751199326,78.46526550784988"></polygon><polygon points="59.57952682562339,79.72216610547771,59.786865518531606,79.36304495498577,59.37218813271517,79.36304495498577"></polygon><polygon points="57.23680627953308,80.26502125669482,57.342074892759385,80.08269067014454,57.13153766630677,80.08269067014454"></polygon><polygon points="54.849468416247156,80.66833855844926,54.89276968643638,80.59333855844926,54.80616714605793,80.59333855844926"></polygon><polygon points="52.43223196756329,81.02599107009381,52.5375005807896,80.84366048354353,52.32696335433698,80.84366048354353"></polygon><polygon points="49.99999999999997,81.23941410032796,50.20733869290819,80.88029294983602,49.792661307091755,80.88029294983602"></polygon><polygon points="47.56776803243676,81.25443734572696,47.870876923761315,80.72943734572696,47.264659141112205,80.72943734572696"></polygon><polygon points="45.150531583752894,81.06828988522986,45.54020086321139,80.393362895059,44.7608623042944,80.393362895059"></polygon><polygon points="42.76319372046697,80.67969864251126,43.22758348418523,79.87535197723633,42.29880395674871,79.87535197723633"></polygon><polygon points="40.42047317437665,80.08896978779887,40.94547317437665,79.17964311382521,39.895473174376654,79.17964311382521"></polygon><polygon points="38.13681359668223,78.93418787894208,38.39135783678862,78.49330432230381,37.88226935657584,78.49330432230381"></polygon><polygon points="35.92629450807405,77.84471332093459,36.11986077366955,77.50944671429181,35.73272824247855,77.50944671429181"></polygon><polygon points="33.80254449380567,76.58232440312463,33.9328633974055,76.35660544090305,33.67222559020584,76.35660544090305"></polygon><polygon points="31.778657178933308,75.15521013852012,31.844200850544468,75.04168516917498,31.71311350732215,75.04168516917498"></polygon><polygon points="29.86711050176436,73.57258493360101,29.86711050176436,73.57258493360101,29.86711050176436,73.57258493360101"></polygon><polygon points="28.079689783217063,71.99599352967977,28.145233454828222,71.88246856033463,28.014146111605903,71.88246856033463"></polygon><polygon points="26.427415066399064,70.28336880638345,26.557733969998893,70.05764984416187,26.297096162799235,70.05764984416187"></polygon><polygon points="24.920473174376646,68.44485389216187,25.114039439972146,68.1095872855191,24.726906908781146,68.1095872855191"></polygon><polygon points="23.568154905023146,66.49137787728661,23.822699145129537,66.05049432064834,23.313610664916755,66.05049432064834"></polygon><polygon points="22.378797750160647,64.43459319194996,22.691335666294695,63.893261641914094,22.0662598340266,63.893261641914094"></polygon><polygon points="21.359734492150103,62.286808353953404,21.72660186300128,61.65137542799995,20.992867121298925,61.65137542799995"></polygon><polygon points="20.51724799485023,60.06091644682074,20.934143635925345,59.33883201502465,20.10035235377512,59.33883201502465"></polygon><polygon points="19.85653246767204,57.77031971812248,20.318568658750802,56.970049560238465,19.394496276593276,56.97004956023846"></polygon><polygon points="19.38166144155074,55.428850714957036,19.88342123073647,54.559777266892304,18.87990165236501,54.5597772668923"></polygon><polygon points="19.095562654273035,53.05069039867545,19.631163366800884,52.123002752007125,18.559961941745186,52.123002752007125"></polygon><polygon points="19,50.650283703871786,19.563162207219975,49.67485814806415,18.436837792780025,49.67485814806415"></polygon><polygon points="19.09556265427303,48.24225302720027,19.6796837942096,47.23052553505509,18.511441514336465,47.23052553505509"></polygon><polygon points="19.38166144155073,45.841310149531914,19.979893227905183,44.80514230086331,18.783429655196276,44.80514230086331"></polygon><polygon points="19.85653246767203,43.4621671101627,20.4618611797179,42.413707025619026,19.251203755626157,42.41370702561902"></polygon><polygon points="20.517247994850212,41.1194465640725,21.122576706896083,40.07098647952882,19.91191928280434,40.07098647952881"></polygon><polygon points="21.359734492150082,38.82759216246135,21.957966278504536,37.791424313792746,20.76150270579563,37.791424313792746"></polygon><polygon points="22.378797750160622,36.600779502837455,22.96291889009719,35.58905201069227,21.794676610224055,35.58905201069227"></polygon><polygon points="23.568154905023118,34.452828197677384,24.131317112243092,33.47740264186975,23.004992697803143,33.47740264186975"></polygon><polygon points="24.920473174376614,32.39711561004557,25.456073886904463,31.469427963377246,24.384872461848765,31.469427963377246"></polygon><polygon points="26.427415066399032,30.44649280047414,26.929174855584762,29.577419352409404,25.925655277213302,29.577419352409404"></polygon><polygon points="28.079689783217024,28.61320322180637,28.541725974295787,27.81293306392235,27.61765359213826,27.81293306392235"></polygon><polygon points="29.867110501764316,26.90880468759643,30.284006142839427,26.186720255800335,29.450214860689204,26.186720255800335"></polygon><polygon points="31.77865717893327,25.344095125012313,32.14552454978445,24.70866219905886,31.41178980808209,24.70866219905886"></polygon><polygon points="33.80254449380563,23.929042605047034,34.115082409939674,23.38771105501116,33.49000657767158,23.38771105501116"></polygon><polygon points="35.926294508074,22.576010539949625,36.09708579398248,22.280191355266123,35.75550322216552,22.280191355266123"></polygon><polygon points="38.13681359668218,21.409734492150125,38.180114866871406,21.334734492150126,38.093512326492956,21.334734492150126"></polygon><polygon points="40.4204731743766,20.714460784639247,40.591264460285075,20.41864159995575,40.24968188846813,20.41864159995575"></polygon><polygon points="42.763193720466916,20.234981039890947,43.09093979803445,19.66730818156257,42.43544764289938,19.667308181562568"></polygon><polygon points="45.150531583752844,19.91068614359871,45.60868041495589,19.117149090526738,44.6923827525498,19.117149090526738"></polygon><polygon points="47.56776803243671,19.7323050510212,48.11920312368721,18.777191455898958,47.016332941186214,18.777191455898958"></polygon><polygon points="49.999999999999915,19.69287500931665,50.60004735971552,18.653562495341674,49.39995264028431,18.653562495341674"></polygon><polygon points="52.43223196756323,19.788437663589686,53.032279327278836,18.74912514961471,51.83218460784763,18.74912514961471"></polygon><polygon points="54.8494684162471,20.018403838298884,55.400903507497596,19.063290243176642,54.2980333249966,19.063290243176642"></polygon><polygon points="57.23680627953303,20.38555716972,57.694955110736075,19.592020116648026,56.77865744832998,19.592020116648026"></polygon><polygon points="59.57952682562335,20.895696567069148,59.90727290319088,20.328023708740773,59.251780748055815,20.32802370874077"></polygon><polygon points="61.86318640331777,21.496297717561394,61.98145362574669,21.29145287944446,61.74491918088885,21.29145287944446"></polygon><polygon points="64.07370549192595,22.646676152816156,64.30569499375086,22.244858548832813,63.84171599010104,22.244858548832813"></polygon><polygon points="66.19745550619433,23.95705406813681,66.53425206096132,23.37370532346623,65.86065895142734,23.37370532346623"></polygon><polygon points="68.22134282106668,25.415447921207228,68.65000352605374,24.672985800961353,67.79268211607963,24.672985800961353"></polygon><polygon points="70.13288949823564,27.009443795010778,70.6369411629458,26.136400702093106,69.62883783352548,26.136400702093106"></polygon><polygon points="71.92031021678294,28.726405455974888,72.48038241841682,27.75633194683804,71.36023801514905,27.75633194683804"></polygon><polygon points="73.57258493360094,30.553660198046533,74.16715441154186,29.52383565362314,72.97801545566001,29.52383565362314"></polygon><polygon points="75.07952682562336,32.47865717893331,75.68574460827247,31.428657178933307,74.47330904297425,31.428657178933307"></polygon><polygon points="76.43184509497685,34.48909419008783,77.02641457291777,33.45926964566444,75.83727561703593,33.45926964566444"></polygon><polygon points="77.62120224983936,36.57301018083185,78.18127445147324,35.602936671695,77.06113004820547,35.602936671695"></polygon><polygon points="78.6402655078499,38.71884232529401,79.14431717256006,37.84579923237634,78.13621384313974,37.845799232376336"></polygon><polygon points="79.48275200514976,40.91544792120724,79.91141271013682,40.172985800961364,79.05409130016271,40.172985800961364"></polygon><polygon points="80.14346753232796,43.152092883580586,80.48026408709495,42.568744138910006,79.80667097756097,42.568744138910006"></polygon><polygon points="80.61833855844927,45.41840998640835,80.85032806027418,45.016592382425,80.38634905662435,45.016592382425"></polygon><polygon points="80.90443734572696,47.70433125784805,81.02270456815587,47.49948641973111,80.78617012329805,47.49948641973111"></polygon><polygon points="83,49.999999999999964,83,49.999999999999964,83,49.999999999999964"></polygon><polygon points="82.89827201319322,52.89286877640115,83.16130005144858,52.43729085032772,82.63524397493786,52.43729085032772"></polygon><polygon points="82.59371523963955,55.70961938405524,83.06767538734658,54.888696327463805,82.11975509193252,54.888696327463805"></polygon><polygon points="82.08820737312335,58.38614654577206,82.67922601028894,57.36247223798114,81.49718873595776,57.36247223798114"></polygon><polygon points="81.3848650377401,60.880010352900456,81.97588367490569,59.856336045109536,80.79384640057451,59.856336045109536"></polygon><polygon points="80.48802457287249,63.175835305775514,80.96198472057952,62.35491224918408,80.01406442516546,62.35491224918408"></polygon><polygon points="79.40321529821611,65.28540510878739,79.66624333647147,64.82982718271396,79.14018725996075,64.82982718271396"></polygon><polygon points="78.137125423685,67.9002374701765,78.70678380062957,66.9135602183513,77.56746704674045,66.9135602183513"></polygon><polygon points="76.69756081437336,70.08627875276004,77.29456878674007,69.05223061209722,76.10055284200665,69.05223061209722"></polygon><polygon points="75.09339686480104,72.13178559489604,75.69961464745015,71.08178559489605,74.48717908215193,71.08178559489605"></polygon><polygon points="73.33452377915607,74.0238892062646,73.93153175152278,72.98984106560178,72.73751580678936,72.98984106560178"></polygon><polygon points="71.43178559489606,75.75118169935118,72.00144397184062,74.76450444752597,70.8621272179515,74.76450444752597"></polygon><polygon points="69.3969133256516,77.30377859702239,69.9219133256516,76.39445192304872,68.87191332565159,76.39445192304872"></polygon><polygon points="67.24245263562638,78.67335653386829,67.70684239934464,77.86900986859337,66.77806287190812,77.86900986859337"></polygon><polygon points="64.9816864914051,79.85316662499669,65.37135577086359,79.17823963482583,64.59201721194661,79.17823963482583"></polygon><polygon points="62.62855326804801,80.83802457287244,62.931662159372564,80.31302457287245,62.32544437672345,80.31302457287245"></polygon><polygon points="60.1975608143733,81.62427913806802,60.40489950728151,81.26515798757607,59.99022212146508,81.26515798757607"></polygon><polygon points="57.703697007244784,82.2097610974902,57.80896562047109,82.02743051093992,57.59842839401848,82.02743051093992"></polygon><polygon points="55.16233734632774,82.64371523963952,55.205638616516964,82.56871523963952,55.119036076138514,82.56871523963952"></polygon><polygon points="52.58915015901899,83.01982573756005,52.6944187722453,82.83749515100978,52.483881545792684,82.83749515100978"></polygon><polygon points="49.99999999999998,83.23941410032796,50.207338692908195,82.88029294983602,49.79266130709176,82.88029294983602"></polygon><polygon points="47.41084984098108,83.24827201319322,47.713958732305635,82.72327201319322,47.107740949656524,82.72327201319322"></polygon><polygon points="44.837662653672325,83.04366656642011,45.22733193313082,82.36873957624925,44.44799337421383,82.36873957624925"></polygon><polygon points="42.29630299275529,82.62443848330665,42.760692756473546,81.82009181803173,41.83191322903703,81.82009181803173"></polygon><polygon points="39.80243918562677,81.99108282038918,40.327439185626766,81.08175614641551,39.27743918562677,81.08175614641551"></polygon><polygon points="37.371446731952055,80.78194694396464,37.625990972058446,80.34106338732637,37.116902491845664,80.34106338732637"></polygon><polygon points="35.01831350859496,79.62672636931133,35.21187977419046,79.29145976266855,34.82474724299946,79.29145976266855"></polygon><polygon points="32.75754736437368,78.28760473183276,32.88786626797351,78.06188576961118,32.62722846077385,78.06188576961118"></polygon><polygon points="30.603086674348464,76.77324412727008,30.668630345959624,76.65971915792494,30.537543002737305,76.65971915792494"></polygon><polygon points="28.568214405103998,75.09339686480106,28.568214405103998,75.09339686480106,28.568214405103998,75.09339686480106"></polygon><polygon points="26.665476220843978,73.41020709205287,26.731019892455137,73.29668212270774,26.59993254923282,73.29668212270774"></polygon><polygon points="24.906603135199013,71.58226490304382,25.036922038798842,71.35654594082224,24.776284231599185,71.35654594082224"></polygon><polygon points="23.302439185626685,69.62042439674674,23.496005451222185,69.28515779010397,23.108872920031185,69.28515779010397"></polygon><polygon points="21.86287457631503,67.53637500671861,22.11741881642142,67.09549145008035,21.60833033620864,67.09549145008035"></polygon><polygon points="20.596784701783918,65.34257419142907,20.909322617917965,64.8012426413932,20.28424678564987,64.8012426413932"></polygon><polygon points="19.511975427127535,63.05217521868359,19.878842797978713,62.416742292730135,19.145108056276356,62.416742292730135"></polygon><polygon points="18.615134962259926,60.67895043557064,19.032030603335038,59.95686600377455,18.198239321184815,59.95686600377455"></polygon><polygon points="17.91179262687666,58.23721044583419,18.373828817955424,57.43694028795017,17.449756435797898,57.436940287950165"></polygon><polygon points="17.406284760360464,55.741719645037506,17.908044549546194,54.872646196972774,16.904524971174734,54.87264619697277"></polygon><polygon points="17.10172798680678,53.20760859013115,17.637328699334628,52.27992094346283,16.56612727427893,52.27992094346283"></polygon><polygon points="17,50.65028370387179,17.563162207219975,49.67485814806416,16.436837792780025,49.67485814806416"></polygon><polygon points="17.10172798680677,48.08533483574459,17.68584912674334,47.073607343599406,16.517606846870205,47.073607343599406"></polygon><polygon points="17.406284760360457,45.52844121945146,18.00451654671491,44.492273370782854,16.808052974006003,44.492273370782854"></polygon><polygon points="17.911792626876647,42.99527638245102,18.517121338922518,41.94681629790734,17.306463914830776,41.94681629790733"></polygon><polygon points="18.615134962259905,40.50141257532261,19.220463674305776,39.452952490778934,18.009806250214034,39.45295249077893"></polygon><polygon points="19.511975427127506,38.06222529773118,20.11020721348196,37.02605744906258,18.913743640773053,37.02605744906258"></polygon><polygon points="20.596784701783886,35.69279850335836,21.180905841720453,34.68107101121318,20.01266356184732,34.68107101121318"></polygon><polygon points="21.86287457631499,33.40783106824539,22.426036783534965,32.43240551243776,21.299712369095015,32.43240551243776"></polygon><polygon points="23.302439185626646,31.221545105460727,23.838039898154495,30.293857458792402,22.766838473098797,30.293857458792402"></polygon><polygon points="24.906603135198964,29.147596703813782,25.408362924384694,28.278523255749047,24.404843346013234,28.278523255749047"></polygon><polygon points="26.665476220843928,27.198989659433284,27.12751241192269,26.398719501549266,26.203440029765165,26.398719501549266"></polygon><polygon points="28.568214405103944,25.387992756396372,28.985110046179056,24.665908324600277,28.151318764028833,24.665908324600277"></polygon><polygon points="30.603086674348404,23.72606113626236,30.969954045199582,23.090628210308907,30.236219303497226,23.090628210308907"></polygon><polygon points="32.757547364373615,22.223762276338913,33.07008528050766,21.68243072630304,32.44500944823957,21.68243072630304"></polygon><polygon points="35.0183135085949,20.793997491572895,35.18910479450338,20.498178306889393,34.84752222268642,20.498178306889393"></polygon><polygon points="37.37144673195199,19.561975427127557,37.414748002141216,19.486975427127557,37.328145461762766,19.486975427127557"></polygon><polygon points="39.802439185626696,18.812347752048943,39.97323047153517,18.516528567365445,39.631647899718224,18.516528567365445"></polygon><polygon points="42.296302992755216,18.290241199095572,42.62404907032275,17.722568340767197,41.96855691518768,17.722568340767193"></polygon><polygon points="44.837662653672254,17.93530946240846,45.2958114848753,17.141772409336486,44.37951382246921,17.141772409336486"></polygon><polygon points="47.41084984098101,17.738470383554947,47.962284932231505,16.783356788432705,46.85941474973051,16.783356788432705"></polygon><polygon points="49.9999999999999,17.69287500931665,50.600047359715504,16.653562495341674,49.3999526402843,16.653562495341674"></polygon><polygon points="52.58915015901892,17.79460299612343,53.189197518734524,16.755290482148453,51.98910279930332,16.755290482148453"></polygon><polygon points="55.16233734632767,18.043027157108625,55.713772437578164,17.087913561986383,54.61090225507717,17.087913561986383"></polygon><polygon points="57.70369700724471,18.440817328924613,58.16184583844776,17.64728027585264,57.245548176041666,17.64728027585264"></polygon><polygon points="60.197560814373226,18.993583534478837,60.52530689194076,18.425910676150462,59.869814736805694,18.42591067615046"></polygon><polygon points="62.62855326804794,19.648538652538818,62.74682049047686,19.443693814421884,62.51028604561902,19.443693814421884"></polygon><polygon points="64.98168649140504,20.86466310443942,65.21367599322996,20.462845500456076,64.74969698958013,20.462845500456076"></polygon><polygon points="67.24245263562632,22.25177373942868,67.57924919039331,21.668424994758098,66.90565608085933,21.668424994758098"></polygon><polygon points="69.39691332565152,23.79741393245726,69.82557403063858,23.054951812211385,68.96825262066447,23.054951812211385"></polygon><polygon points="71.431785594896,25.488631863810706,71.93583725960616,24.615588770893034,70.92773393018584,24.615588770893034"></polygon><polygon points="73.33452377915602,27.31219189360178,73.8945959807899,26.342118384464932,72.77445157752213,26.342118384464932"></polygon><polygon points="75.09339686480098,29.254764101386158,75.6879663427419,28.224939556962767,74.49882738686006,28.224939556962767"></polygon><polygon points="76.6975608143733,31.30308667434845,77.30377859702241,30.25308667434845,76.0913430317242,30.25308667434845"></polygon><polygon points="78.13712542368496,33.44409706065583,78.73169490162589,32.41427251623244,77.54255594574404,32.41427251623244"></polygon><polygon points="79.40321529821608,35.66502918135274,79.96328749984997,34.69495567221589,78.8431430965822,34.69495567221589"></polygon><polygon points="80.48802457287246,37.95347546056382,80.99207623758262,37.080432367646154,79.9839729081623,37.08043236764615"></polygon><polygon points="81.38486503774007,40.29741393245734,81.81352574272712,39.55495181221146,80.95620433275302,39.55495181221146"></polygon><polygon points="82.08820737312334,42.68520215586887,82.42500392789033,42.10185341119829,81.75141081835635,42.10185341119829"></polygon><polygon points="82.59371523963954,45.10554105632787,82.82570474146445,44.703723452344526,82.36172573781462,44.703723452344526"></polygon><polygon points="82.89827201319322,47.54741306639235,83.01653923562213,47.34256822827542,82.78000479076431,47.34256822827542"></polygon><polygon points="85,49.99999999999996,85,49.99999999999996,85,49.99999999999996"></polygon><polygon points="84.89210668065948,53.04978696785683,85.15513471891484,52.5942090417834,84.62907864240412,52.5942090417834"></polygon><polygon points="84.56909192082982,56.022488314135686,85.04305206853685,55.20156525754425,84.09513177312279,55.20156525754425"></polygon><polygon points="84.0329472139187,58.85303727348385,84.6239658510843,57.82936296569293,83.44192857675311,57.82936296569293"></polygon><polygon points="83.2869780703304,61.49804434165034,83.877996707496,60.47437003385942,82.69595943316482,60.47437003385942"></polygon><polygon points="82.33578363789508,63.941202170505676,82.80974378560211,63.12027911391424,81.86182349018804,63.12027911391424"></polygon><polygon points="81.18522834659285,66.19338610826647,81.44825638484821,65.73780818219304,80.9222003083375,65.73780818219304"></polygon><polygon points="79.84240575239319,68.94523459960841,80.41206412933775,67.9585573477832,79.27274737544863,67.9585573477832"></polygon><polygon points="78.31559480312326,71.26184925734496,78.91260277548997,70.22780111668214,77.71858683075655,70.22780111668214"></polygon><polygon points="76.6142087960011,73.43068169155642,77.2204265786502,72.38068169155642,76.00799101335198,72.38068169155642"></polygon><polygon points="74.74873734152926,75.4381027686376,75.34574531389597,74.40405462797479,74.15172936916255,74.40405462797479"></polygon><polygon points="72.73068169155643,77.27199363055124,73.30034006850099,76.28531637872602,72.16102331461187,76.28531637872602"></polygon><polygon points="70.57248383023645,78.92181258577236,71.09748383023646,78.01248591179869,70.04748383023644,78.01248591179869"></polygon><polygon points="68.2874497650584,80.3786368625764,68.75183952877666,79.57429019730148,67.82306000134014,79.57429019730148"></polygon><polygon points="65.88966749088421,81.63517967337341,66.2793367703427,80.96025268320255,65.49999821142572,80.96025268320255"></polygon><polygon points="63.39392013277808,82.68578363789506,63.69702902410263,82.16078363789507,63.09081124145352,82.16078363789507"></polygon><polygon points="60.815594803123204,83.52639217065833,61.02293349603142,83.16727102016638,60.60825611021499,83.16727102016638"></polygon><polygon points="58.1705877349566,84.15450093828555,58.275856348182906,83.97217035173527,58.06531912173029,83.97217035173527"></polygon><polygon points="55.475206276408095,84.61909192082982,55.51850754659732,84.54409192082981,55.43190500621887,84.54409192082981"></polygon><polygon points="52.746068350474694,85.01366040502633,52.851336963701,84.83132981847605,52.640799737248386,84.83132981847605"></polygon><polygon points="49.999999999999986,85.23941410032796,50.2073386929082,84.88029294983602,49.79266130709177,84.88029294983602"></polygon><polygon points="47.25393164952552,85.24210668065948,47.557040540850075,84.71710668065948,46.950822758200964,84.71710668065948"></polygon><polygon points="44.52479372359187,85.01904324761038,44.914463003050365,84.34411625743952,44.135124444133375,84.34411625743952"></polygon><polygon points="41.82941226504337,84.56917832410198,42.29380202876163,83.76483165882706,41.365022501325114,83.76483165882706"></polygon><polygon points="39.184405196877,83.89319585297955,39.709405196877,82.98386917900588,38.659405196877,82.98386917900588"></polygon><polygon points="36.60607986722189,82.62970600898723,36.86062410732828,82.18882245234896,36.351535627115496,82.18882245234896"></polygon><polygon points="34.110332509115764,81.40873941768801,34.303898774711264,81.07347281104524,33.916766243520264,81.07347281104524"></polygon><polygon points="31.712550234941787,79.99288506054096,31.842869138541616,79.76716609831938,31.58223133134196,79.76716609831938"></polygon><polygon points="29.42751616976353,78.39127811601998,29.493059841374688,78.27775314667484,29.36197249815237,78.27775314667484"></polygon><polygon points="27.269318308443548,76.61420879600107,27.269318308443548,76.61420879600107,27.269318308443548,76.61420879600107"></polygon><polygon points="25.25126265847089,74.82442065442598,25.31680633008205,74.71089568508084,25.18571898685973,74.71089568508084"></polygon></g></g>
  <desc>Created with Snap</desc></svg>
