<svg width="100%" height="100%" viewBox="0 0 100 100" version="1.1" xmlns="http://www.w3.org/2000/svg" id="decent-logo-svg">
       <defs>
         <style type="text/css">
           @import url("https://fonts.googleapis.com/css?family=Dosis:400,700")
         </style>
         <style type="text/css">
           #text text {
             font-family: 'Dosis'
           }
         </style>
       </defs>
       <g id="svg-content"><circle cx="50" cy="50" r="25" id="shape"></circle><g textAlign="center" fill="undefined" style="text-anchor: middle; stroke-width: 0;" stroke="rgba(0,0,0,0)" id="halftones"><circle cx="75" cy="50" r="8.572527594031472e-17"></circle><circle cx="74.9229333433282" cy="51.96147739319613" r="0.3037186173822907"></circle><circle cx="74.69220851487844" cy="53.91086162600577" r="0.5472820377276209"></circle><circle cx="74.30924800994191" cy="55.836134096397636" r="0.6824495385272765"></circle><circle cx="73.77641290737884" cy="57.72542485937368" r="0.6824495385272765"></circle><circle cx="73.09698831278217" cy="59.56708580912724" r="0.5472820377276209"></circle><circle cx="72.2751631047092" cy="61.34976249348867" r="0.3037186173822907"></circle><circle cx="71.31600410885231" cy="63.06246411789872" r="0.6577848345501358"></circle><circle cx="70.22542485937369" cy="64.69463130731182" r="0.6893654271085455"></circle><circle cx="69.01014914000078" cy="66.23620120825458" r="0.7"></circle><circle cx="67.67766952966369" cy="67.67766952966369" r="0.6893654271085455"></circle><circle cx="66.23620120825458" cy="69.01014914000078" r="0.6577848345501358"></circle><circle cx="64.69463130731182" cy="70.22542485937369" r="0.6062177826491071"></circle><circle cx="63.06246411789872" cy="71.3160041088523" r="0.5362311101832846"></circle><circle cx="61.34976249348867" cy="72.2751631047092" r="0.4499513267805776"></circle><circle cx="59.56708580912725" cy="73.09698831278217" r="0.3499999999999999"></circle><circle cx="57.72542485937369" cy="73.77641290737884" r="0.2394141003279682"></circle><circle cx="55.836134096397636" cy="74.30924800994191" r="0.1215537243668515"></circle><circle cx="53.910861626005776" cy="74.69220851487844" r="0.05"></circle><circle cx="51.96147739319613" cy="74.9229333433282" r="0.12155372436685122"></circle><circle cx="50" cy="75" r="0.2394141003279681"></circle><circle cx="48.03852260680388" cy="74.9229333433282" r="0.3499999999999999"></circle><circle cx="46.089138373994224" cy="74.69220851487844" r="0.4499513267805774"></circle><circle cx="44.16386590360237" cy="74.30924800994191" r="0.5362311101832846"></circle><circle cx="42.27457514062632" cy="73.77641290737884" r="0.606217782649107"></circle><circle cx="40.43291419087276" cy="73.09698831278217" r="0.2939223710921853"></circle><circle cx="38.65023750651133" cy="72.2751631047092" r="0.22351107109518595"></circle><circle cx="36.93753588210128" cy="71.31600410885231" r="0.1504793081477169"></circle><circle cx="35.30536869268818" cy="70.22542485937369" r="0.07568331289675914"></circle><circle cx="33.763798791745415" cy="69.01014914000078" r="8.572527594031472e-17"></circle><circle cx="32.32233047033631" cy="67.67766952966369" r="0.07568331289675934"></circle><circle cx="30.98985085999923" cy="66.2362012082546" r="0.15047930814771698"></circle><circle cx="29.774575140626318" cy="64.69463130731182" r="0.22351107109518614"></circle><circle cx="28.683995891147696" cy="63.06246411789872" r="0.29392237109218533"></circle><circle cx="27.724836895290807" cy="61.34976249348867" r="0.3608877000239154"></circle><circle cx="26.90301168721783" cy="59.56708580912725" r="0.42362195063563557"></circle><circle cx="26.223587092621162" cy="57.72542485937369" r="0.4813896211973964"></circle><circle cx="25.690751990058086" cy="55.836134096397636" r="0.5335134385893455"></circle><circle cx="25.30779148512156" cy="53.910861626005776" r="0.5793822987098234"></circle><circle cx="25.0770666566718" cy="51.96147739319613" r="0.618458431112216"></circle><circle cx="25" cy="50" r="0.6502837038717539"></circle><circle cx="25.077066656671796" cy="48.03852260680389" r="0.674484994763456"></circle><circle cx="25.307791485121555" cy="46.08913837399423" r="0.6907785657790683"></circle><circle cx="25.690751990058082" cy="44.16386590360237" r="0.6989733896957867"></circle><circle cx="26.223587092621162" cy="42.274575140626304" r="0.6989733896957866"></circle><circle cx="26.90301168721783" cy="40.43291419087276" r="0.6907785657790683"></circle><circle cx="27.724836895290796" cy="38.650237506511345" r="0.674484994763456"></circle><circle cx="28.683995891147692" cy="36.93753588210129" r="0.6502837038717538"></circle><circle cx="29.774575140626315" cy="35.30536869268818" r="0.618458431112216"></circle><circle cx="30.989850859999233" cy="33.7637987917454" r="0.5793822987098233"></circle><circle cx="32.32233047033631" cy="32.32233047033631" r="0.5335134385893455"></circle><circle cx="33.7637987917454" cy="30.989850859999237" r="0.4813896211973963"></circle><circle cx="35.30536869268817" cy="29.774575140626318" r="0.42362195063563557"></circle><circle cx="36.937535882101265" cy="28.683995891147703" r="0.3608877000239152"></circle><circle cx="38.65023750651133" cy="27.724836895290807" r="0.19721278978900103"></circle><circle cx="40.432914190872744" cy="26.903011687217838" r="0.05"></circle><circle cx="42.27457514062631" cy="26.223587092621162" r="0.19721278978900075"></circle><circle cx="44.16386590360237" cy="25.690751990058082" r="0.37844857221891826"></circle><circle cx="46.089138373994224" cy="25.30779148512156" r="0.5290247020479808"></circle><circle cx="48.03852260680388" cy="25.0770666566718" r="0.6367423967481628"></circle><circle cx="49.99999999999999" cy="25" r="0.6928750093166528"></circle><circle cx="51.961477393196105" cy="25.077066656671796" r="0.6928750093166529"></circle><circle cx="53.91086162600577" cy="25.307791485121555" r="0.6367423967481629"></circle><circle cx="55.83613409639762" cy="25.690751990058082" r="0.5290247020479808"></circle><circle cx="57.72542485937368" cy="26.22358709262116" r="0.3784485722189182"></circle><circle cx="59.56708580912725" cy="26.903011687217834" r="0.13656322541129"></circle><circle cx="61.34976249348867" cy="27.7248368952908" r="0.2678784026555629"></circle><circle cx="63.06246411789873" cy="28.6839958911477" r="0.3888991631137215"></circle><circle cx="64.69463130731182" cy="29.77457514062631" r="0.4949747468305833"></circle><circle cx="66.2362012082546" cy="30.98985085999923" r="0.5820287286117817"></circle><circle cx="67.67766952966369" cy="32.32233047033631" r="0.6467156727579007"></circle><circle cx="69.01014914000076" cy="33.7637987917454" r="0.6865496962822613"></circle><circle cx="70.22542485937367" cy="35.30536869268816" r="0.7"></circle><circle cx="71.3160041088523" cy="36.937535882101265" r="0.6865496962822613"></circle><circle cx="72.2751631047092" cy="38.650237506511324" r="0.6467156727579007"></circle><circle cx="73.09698831278216" cy="40.43291419087274" r="0.5820287286117817"></circle><circle cx="73.77641290737884" cy="42.27457514062631" r="0.4949747468305832"></circle><circle cx="74.30924800994191" cy="44.16386590360237" r="0.3888991631137215"></circle><circle cx="74.69220851487844" cy="46.089138373994224" r="0.26787840265556284"></circle><circle cx="74.9229333433282" cy="48.03852260680388" r="0.13656322541128976"></circle><circle cx="77" cy="49.99999999999999" r="8.572527594031472e-17"></circle><circle cx="76.91676801079446" cy="52.11839558465179" r="0.3037186173822907"></circle><circle cx="76.66758519606873" cy="54.2237305560862" r="0.5472820377276209"></circle><circle cx="76.25398785073727" cy="56.30302482410945" r="0.6824495385272765"></circle><circle cx="75.67852593996915" cy="58.343458848123575" r="0.6824495385272765"></circle><circle cx="74.94474737780475" cy="60.33245267385743" r="0.5472820377276209"></circle><circle cx="74.05717615308593" cy="62.257743492967755" r="0.3037186173822907"></circle><circle cx="73.0212844375605" cy="64.1074612473306" r="0.6577848345501358"></circle><circle cx="71.84345884812357" cy="65.87020181189679" r="0.6893654271085455"></circle><circle cx="70.53096107120084" cy="67.53509730491496" r="0.7"></circle><circle cx="69.0918830920368" cy="69.09188309203678" r="0.6893654271085455"></circle><circle cx="67.53509730491497" cy="70.53096107120082" r="0.6577848345501358"></circle><circle cx="65.8702018118968" cy="71.84345884812356" r="0.6062177826491071"></circle><circle cx="64.10746124733062" cy="73.0212844375605" r="0.5362311101832846"></circle><circle cx="62.25774349296777" cy="74.05717615308593" r="0.4499513267805776"></circle><circle cx="60.332452673857446" cy="74.94474737780473" r="0.3499999999999999"></circle><circle cx="58.34345884812359" cy="75.67852593996915" r="0.2394141003279682"></circle><circle cx="56.303024824109464" cy="76.25398785073726" r="0.1215537243668515"></circle><circle cx="54.22373055608622" cy="76.66758519606873" r="0.05"></circle><circle cx="52.11839558465181" cy="76.91676801079446" r="0.12155372436685122"></circle><circle cx="50.00000000000001" cy="77" r="0.2394141003279681"></circle><circle cx="47.88160441534821" cy="76.91676801079446" r="0.3499999999999999"></circle><circle cx="45.7762694439138" cy="76.66758519606873" r="0.4499513267805774"></circle><circle cx="43.69697517589053" cy="76.25398785073726" r="0.5362311101832846"></circle><circle cx="41.656541151876425" cy="75.67852593996915" r="0.606217782649107"></circle><circle cx="39.667547326142575" cy="74.94474737780475" r="0.2939223710921853"></circle><circle cx="37.742256507032266" cy="74.05717615308595" r="0.22351107109518595"></circle><circle cx="35.892538752669395" cy="73.0212844375605" r="0.1504793081477169"></circle><circle cx="34.12979818810323" cy="71.84345884812359" r="0.07568331289675914"></circle><circle cx="32.46490269508504" cy="70.53096107120084" r="8.572527594031472e-17"></circle><circle cx="30.90811690796324" cy="69.09188309203681" r="0.07568331289675934"></circle><circle cx="29.46903892879918" cy="67.53509730491497" r="0.15047930814771698"></circle><circle cx="28.156541151876425" cy="65.87020181189678" r="0.22351107109518614"></circle><circle cx="26.978715562439508" cy="64.10746124733062" r="0.29392237109218533"></circle><circle cx="25.94282384691406" cy="62.25774349296775" r="0.3608877000239154"></circle><circle cx="25.055252622195265" cy="60.332452673857446" r="0.42362195063563557"></circle><circle cx="24.32147406003086" cy="58.34345884812359" r="0.4813896211973964"></circle><circle cx="23.746012149262743" cy="56.30302482410949" r="0.5335134385893455"></circle><circle cx="23.33241480393128" cy="54.22373055608622" r="0.5793822987098234"></circle><circle cx="23.083231989205544" cy="52.118395584651836" r="0.618458431112216"></circle><circle cx="23" cy="50.00000000000001" r="0.6502837038717539"></circle><circle cx="23.083231989205544" cy="47.881604415348185" r="0.674484994763456"></circle><circle cx="23.33241480393128" cy="45.7762694439138" r="0.6907785657790683"></circle><circle cx="23.74601214926274" cy="43.69697517589053" r="0.6989733896957867"></circle><circle cx="24.32147406003085" cy="41.656541151876425" r="0.6989733896957866"></circle><circle cx="25.05525262219526" cy="39.667547326142575" r="0.6907785657790683"></circle><circle cx="25.942823846914052" cy="37.742256507032266" r="0.674484994763456"></circle><circle cx="26.9787155624395" cy="35.8925387526694" r="0.6502837038717538"></circle><circle cx="28.156541151876414" cy="34.12979818810324" r="0.618458431112216"></circle><circle cx="29.469038928799165" cy="32.464902695085044" r="0.5793822987098233"></circle><circle cx="30.908116907963226" cy="30.908116907963205" r="0.5335134385893455"></circle><circle cx="32.46490269508502" cy="29.46903892879918" r="0.4813896211973963"></circle><circle cx="34.129798188103216" cy="28.156541151876425" r="0.42362195063563557"></circle><circle cx="35.89253875266938" cy="26.978715562439508" r="0.3608877000239152"></circle><circle cx="37.74225650703225" cy="25.94282384691406" r="0.19721278978900103"></circle><circle cx="39.667547326142554" cy="25.055252622195265" r="0.05"></circle><circle cx="41.65654115187641" cy="24.32147406003086" r="0.19721278978900075"></circle><circle cx="43.69697517589051" cy="23.746012149262743" r="0.37844857221891826"></circle><circle cx="45.776269443913776" cy="23.33241480393128" r="0.5290247020479808"></circle><circle cx="47.881604415348164" cy="23.083231989205547" r="0.6367423967481628"></circle><circle cx="49.999999999999986" cy="23" r="0.6928750093166528"></circle><circle cx="52.118395584651815" cy="23.083231989205544" r="0.6928750093166529"></circle><circle cx="54.223730556086196" cy="23.33241480393128" r="0.6367423967481629"></circle><circle cx="56.30302482410947" cy="23.746012149262736" r="0.5290247020479808"></circle><circle cx="58.34345884812357" cy="24.321474060030848" r="0.3784485722189182"></circle><circle cx="60.332452673857425" cy="25.05525262219526" r="0.13656322541129"></circle><circle cx="62.257743492967734" cy="25.942823846914052" r="0.2678784026555629"></circle><circle cx="64.1074612473306" cy="26.978715562439497" r="0.3888991631137215"></circle><circle cx="65.87020181189676" cy="28.156541151876414" r="0.4949747468305833"></circle><circle cx="67.53509730491496" cy="29.469038928799165" r="0.5820287286117817"></circle><circle cx="69.09188309203675" cy="30.90811690796319" r="0.6467156727579007"></circle><circle cx="70.53096107120082" cy="32.46490269508502" r="0.6865496962822613"></circle><circle cx="71.84345884812357" cy="34.129798188103216" r="0.7"></circle><circle cx="73.0212844375605" cy="35.89253875266938" r="0.6865496962822613"></circle><circle cx="74.05717615308593" cy="37.742256507032245" r="0.6467156727579007"></circle><circle cx="74.94474737780473" cy="39.667547326142554" r="0.5820287286117817"></circle><circle cx="75.67852593996915" cy="41.65654115187641" r="0.4949747468305832"></circle><circle cx="76.25398785073726" cy="43.69697517589051" r="0.3888991631137215"></circle><circle cx="76.66758519606873" cy="45.776269443913776" r="0.26787840265556284"></circle><circle cx="76.91676801079446" cy="47.881604415348164" r="0.13656322541128976"></circle><circle cx="79" cy="49.999999999999986" r="8.572527594031472e-17"></circle><circle cx="78.91060267826072" cy="52.2753137761075" r="0.3037186173822907"></circle><circle cx="78.642961877259" cy="54.53659948616666" r="0.5472820377276209"></circle><circle cx="78.19872769153261" cy="56.76991555182128" r="0.6824495385272765"></circle><circle cx="77.58063897255947" cy="58.96149283687341" r="0.6824495385272765"></circle><circle cx="76.79250644282732" cy="61.0978195385876" r="0.5472820377276209"></circle><circle cx="75.83918920146266" cy="63.16572449244687" r="0.3037186173822907"></circle><circle cx="74.7265647662687" cy="65.1524583767625" r="0.6577848345501358"></circle><circle cx="73.46149283687349" cy="67.0457723164817" r="0.6893654271085455"></circle><circle cx="72.05177300240094" cy="68.83399340157528" r="0.7"></circle><circle cx="70.50609665440987" cy="70.50609665440989" r="0.6893654271085455"></circle><circle cx="68.8339934015753" cy="72.05177300240092" r="0.6577848345501358"></circle><circle cx="67.04577231648173" cy="73.46149283687348" r="0.6062177826491071"></circle><circle cx="65.15245837676252" cy="74.72656476626867" r="0.5362311101832846"></circle><circle cx="63.1657244924469" cy="75.83918920146264" r="0.4499513267805776"></circle><circle cx="61.09781953858763" cy="76.7925064428273" r="0.3499999999999999"></circle><circle cx="58.96149283687344" cy="77.58063897255947" r="0.2394141003279682"></circle><circle cx="56.76991555182131" cy="78.19872769153261" r="0.1215537243668515"></circle><circle cx="54.536599486166686" cy="78.642961877259" r="0.05"></circle><circle cx="52.27531377610753" cy="78.91060267826072" r="0.12155372436685122"></circle><circle cx="50.000000000000014" cy="79" r="0.2394141003279681"></circle><circle cx="47.7246862238925" cy="78.91060267826072" r="0.3499999999999999"></circle><circle cx="45.46340051383335" cy="78.642961877259" r="0.4499513267805774"></circle><circle cx="43.23008444817872" cy="78.19872769153261" r="0.5362311101832846"></circle><circle cx="41.03850716312659" cy="77.58063897255947" r="0.606217782649107"></circle><circle cx="38.9021804614124" cy="76.79250644282732" r="0.2939223710921853"></circle><circle cx="36.83427550755314" cy="75.83918920146266" r="0.22351107109518595"></circle><circle cx="34.847541623237504" cy="74.7265647662687" r="0.1504793081477169"></circle><circle cx="32.95422768351829" cy="73.46149283687349" r="0.07568331289675914"></circle><circle cx="31.166006598424715" cy="72.05177300240094" r="8.572527594031472e-17"></circle><circle cx="29.49390334559015" cy="70.5060966544099" r="0.07568331289675934"></circle><circle cx="27.94822699759909" cy="68.83399340157531" r="0.15047930814771698"></circle><circle cx="26.538507163126532" cy="67.04577231648173" r="0.22351107109518614"></circle><circle cx="25.273435233731327" cy="65.15245837676252" r="0.29392237109218533"></circle><circle cx="24.16081079853735" cy="63.1657244924469" r="0.3608877000239154"></circle><circle cx="23.207493557172693" cy="61.09781953858763" r="0.42362195063563557"></circle><circle cx="22.419361027440534" cy="58.96149283687344" r="0.4813896211973964"></circle><circle cx="21.801272308467393" cy="56.76991555182131" r="0.5335134385893455"></circle><circle cx="21.357038122741006" cy="54.536599486166686" r="0.5793822987098234"></circle><circle cx="21.08939732173929" cy="52.27531377610753" r="0.618458431112216"></circle><circle cx="21" cy="50.000000000000014" r="0.6502837038717539"></circle><circle cx="21.089397321739288" cy="47.724686223892505" r="0.674484994763456"></circle><circle cx="21.357038122741" cy="45.46340051383335" r="0.6907785657790683"></circle><circle cx="21.801272308467382" cy="43.23008444817872" r="0.6989733896957867"></circle><circle cx="22.419361027440527" cy="41.038507163126596" r="0.6989733896957866"></circle><circle cx="23.20749355717266" cy="38.90218046141245" r="0.6907785657790683"></circle><circle cx="24.16081079853736" cy="36.83427550755309" r="0.674484994763456"></circle><circle cx="25.27343523373131" cy="34.84754162323751" r="0.6502837038717538"></circle><circle cx="26.538507163126514" cy="32.9542276835183" r="0.618458431112216"></circle><circle cx="27.9482269975991" cy="31.166006598424676" r="0.5793822987098233"></circle><circle cx="29.493903345590127" cy="29.493903345590116" r="0.5335134385893455"></circle><circle cx="31.16600659842469" cy="27.94822699759909" r="0.4813896211973963"></circle><circle cx="32.95422768351822" cy="26.538507163126567" r="0.42362195063563557"></circle><circle cx="34.84754162323752" cy="25.273435233731302" r="0.3608877000239152"></circle><circle cx="36.8342755075531" cy="24.160810798537355" r="0.19721278978900103"></circle><circle cx="38.90218046141237" cy="23.207493557172697" r="0.05"></circle><circle cx="41.03850716312651" cy="22.41936102744055" r="0.19721278978900075"></circle><circle cx="43.23008444817874" cy="21.80127230846738" r="0.37844857221891826"></circle><circle cx="45.463400513833314" cy="21.357038122741006" r="0.5290247020479808"></circle><circle cx="47.72468622389241" cy="21.089397321739295" r="0.6367423967481628"></circle><circle cx="49.99999999999993" cy="21" r="0.6928750093166528"></circle><circle cx="52.275313776107545" cy="21.08939732173929" r="0.6928750093166529"></circle><circle cx="54.53659948616665" cy="21.357038122741" r="0.6367423967481629"></circle><circle cx="56.76991555182123" cy="21.80127230846737" r="0.5290247020479808"></circle><circle cx="58.96149283687346" cy="22.41936102744054" r="0.3784485722189182"></circle><circle cx="61.0978195385876" cy="23.207493557172683" r="0.13656322541129"></circle><circle cx="63.16572449244686" cy="24.160810798537334" r="0.2678784026555629"></circle><circle cx="65.15245837676244" cy="25.27343523373128" r="0.3888991631137215"></circle><circle cx="67.04577231648175" cy="26.538507163126543" r="0.4949747468305833"></circle><circle cx="68.83399340157528" cy="27.948226997599065" r="0.5820287286117817"></circle><circle cx="70.50609665440984" cy="29.493903345590088" r="0.6467156727579007"></circle><circle cx="72.05177300240088" cy="31.166006598424648" r="0.6865496962822613"></circle><circle cx="73.46149283687346" cy="32.95422768351826" r="0.7"></circle><circle cx="74.72656476626867" cy="34.847541623237476" r="0.6865496962822613"></circle><circle cx="75.83918920146263" cy="36.83427550755306" r="0.6467156727579007"></circle><circle cx="76.79250644282732" cy="38.902180461412414" r="0.5820287286117817"></circle><circle cx="77.58063897255946" cy="41.03850716312655" r="0.4949747468305832"></circle><circle cx="78.19872769153261" cy="43.23008444817869" r="0.3888991631137215"></circle><circle cx="78.64296187725898" cy="45.46340051383326" r="0.26787840265556284"></circle><circle cx="78.91060267826072" cy="47.72468622389246" r="0.13656322541128976"></circle><circle cx="81" cy="49.99999999999998" r="8.572527594031472e-17"></circle><circle cx="80.90443734572696" cy="52.43223196756318" r="0.3037186173822907"></circle><circle cx="80.61833855844927" cy="54.84946841624716" r="0.5472820377276209"></circle><circle cx="80.14346753232797" cy="57.236806279533084" r="0.6824495385272765"></circle><circle cx="79.48275200514979" cy="59.5795268256233" r="0.6824495385272765"></circle><circle cx="78.64026550784992" cy="61.86318640331773" r="0.5472820377276209"></circle><circle cx="77.62120224983937" cy="64.073705491926" r="0.3037186173822907"></circle><circle cx="76.43184509497688" cy="66.19745550619439" r="0.6577848345501358"></circle><circle cx="75.07952682562339" cy="68.22134282106664" r="0.6893654271085455"></circle><circle cx="73.57258493360096" cy="70.13288949823568" r="0.7"></circle><circle cx="71.92031021678298" cy="71.92031021678298" r="0.6893654271085455"></circle><circle cx="70.13288949823568" cy="73.57258493360096" r="0.6577848345501358"></circle><circle cx="68.22134282106673" cy="75.07952682562332" r="0.6062177826491071"></circle><circle cx="66.19745550619437" cy="76.43184509497688" r="0.5362311101832846"></circle><circle cx="64.07370549192599" cy="77.62120224983938" r="0.4499513267805776"></circle><circle cx="61.86318640331782" cy="78.64026550784988" r="0.3499999999999999"></circle><circle cx="59.57952682562339" cy="79.48275200514975" r="0.2394141003279682"></circle><circle cx="57.23680627953308" cy="80.14346753232797" r="0.1215537243668515"></circle><circle cx="54.849468416247156" cy="80.61833855844927" r="0.05"></circle><circle cx="52.43223196756329" cy="80.90443734572696" r="0.12155372436685122"></circle><circle cx="49.99999999999997" cy="81" r="0.2394141003279681"></circle><circle cx="47.56776803243676" cy="80.90443734572696" r="0.3499999999999999"></circle><circle cx="45.150531583752894" cy="80.61833855844928" r="0.4499513267805774"></circle><circle cx="42.76319372046697" cy="80.14346753232797" r="0.5362311101832846"></circle><circle cx="40.42047317437665" cy="79.48275200514976" r="0.606217782649107"></circle><circle cx="38.13681359668223" cy="78.6402655078499" r="0.2939223710921853"></circle><circle cx="35.92629450807405" cy="77.6212022498394" r="0.22351107109518595"></circle><circle cx="33.80254449380567" cy="76.43184509497691" r="0.1504793081477169"></circle><circle cx="31.778657178933308" cy="75.07952682562336" r="0.07568331289675914"></circle><circle cx="29.86711050176436" cy="73.57258493360101" r="8.572527594031472e-17"></circle><circle cx="28.079689783217063" cy="71.92031021678301" r="0.07568331289675934"></circle><circle cx="26.427415066399064" cy="70.13288949823573" r="0.15047930814771698"></circle><circle cx="24.920473174376646" cy="68.22134282106668" r="0.22351107109518614"></circle><circle cx="23.568154905023146" cy="66.19745550619443" r="0.29392237109218533"></circle><circle cx="22.378797750160647" cy="64.07370549192605" r="0.3608877000239154"></circle><circle cx="21.359734492150103" cy="61.86318640331777" r="0.42362195063563557"></circle><circle cx="20.51724799485023" cy="59.57952682562335" r="0.4813896211973964"></circle><circle cx="19.85653246767204" cy="57.236806279533134" r="0.5335134385893455"></circle><circle cx="19.38166144155074" cy="54.84946841624721" r="0.5793822987098234"></circle><circle cx="19.095562654273035" cy="52.43223196756323" r="0.618458431112216"></circle><circle cx="19" cy="50.00000000000003" r="0.6502837038717539"></circle><circle cx="19.09556265427303" cy="47.56776803243682" r="0.674484994763456"></circle><circle cx="19.38166144155073" cy="45.150531583752844" r="0.6907785657790683"></circle><circle cx="19.85653246767203" cy="42.763193720466916" r="0.6989733896957867"></circle><circle cx="20.517247994850212" cy="40.42047317437671" r="0.6989733896957866"></circle><circle cx="21.359734492150082" cy="38.13681359668228" r="0.6907785657790683"></circle><circle cx="22.378797750160622" cy="35.926294508074" r="0.674484994763456"></circle><circle cx="23.568154905023118" cy="33.80254449380563" r="0.6502837038717538"></circle><circle cx="24.920473174376614" cy="31.778657178933354" r="0.618458431112216"></circle><circle cx="26.427415066399032" cy="29.867110501764316" r="0.5793822987098233"></circle><circle cx="28.079689783217024" cy="28.079689783217024" r="0.5335134385893455"></circle><circle cx="29.867110501764316" cy="26.427415066399032" r="0.4813896211973963"></circle><circle cx="31.77865717893327" cy="24.920473174376678" r="0.42362195063563557"></circle><circle cx="33.80254449380563" cy="23.568154905023118" r="0.3608877000239152"></circle><circle cx="35.926294508074" cy="22.378797750160622" r="0.19721278978900103"></circle><circle cx="38.13681359668218" cy="21.359734492150125" r="0.05"></circle><circle cx="40.4204731743766" cy="20.517247994850248" r="0.19721278978900075"></circle><circle cx="42.763193720466916" cy="19.85653246767203" r="0.37844857221891826"></circle><circle cx="45.150531583752844" cy="19.38166144155073" r="0.5290247020479808"></circle><circle cx="47.56776803243671" cy="19.09556265427304" r="0.6367423967481628"></circle><circle cx="49.999999999999915" cy="19" r="0.6928750093166528"></circle><circle cx="52.43223196756323" cy="19.095562654273035" r="0.6928750093166529"></circle><circle cx="54.8494684162471" cy="19.381661441550722" r="0.6367423967481629"></circle><circle cx="57.23680627953303" cy="19.856532467672018" r="0.5290247020479808"></circle><circle cx="59.57952682562335" cy="20.51724799485023" r="0.3784485722189182"></circle><circle cx="61.86318640331777" cy="21.359734492150103" r="0.13656322541129"></circle><circle cx="64.07370549192595" cy="22.378797750160594" r="0.2678784026555629"></circle><circle cx="66.19745550619433" cy="23.56815490502309" r="0.3888991631137215"></circle><circle cx="68.22134282106668" cy="24.920473174376646" r="0.4949747468305833"></circle><circle cx="70.13288949823564" cy="26.427415066398996" r="0.5820287286117817"></circle><circle cx="71.92031021678294" cy="28.07968978321699" r="0.6467156727579007"></circle><circle cx="73.57258493360094" cy="29.867110501764273" r="0.6865496962822613"></circle><circle cx="75.07952682562336" cy="31.778657178933308" r="0.7"></circle><circle cx="76.43184509497685" cy="33.80254449380557" r="0.6865496962822613"></circle><circle cx="77.62120224983936" cy="35.92629450807395" r="0.6467156727579007"></circle><circle cx="78.6402655078499" cy="38.13681359668223" r="0.5820287286117817"></circle><circle cx="79.48275200514976" cy="40.42047317437665" r="0.4949747468305832"></circle><circle cx="80.14346753232796" cy="42.763193720466866" r="0.3888991631137215"></circle><circle cx="80.61833855844927" cy="45.15053158375279" r="0.26787840265556284"></circle><circle cx="80.90443734572696" cy="47.56776803243676" r="0.13656322541128976"></circle><circle cx="83" cy="49.999999999999964" r="8.572527594031472e-17"></circle><circle cx="82.89827201319322" cy="52.589150159018864" r="0.3037186173822907"></circle><circle cx="82.59371523963955" cy="55.16233734632762" r="0.5472820377276209"></circle><circle cx="82.08820737312335" cy="57.70369700724478" r="0.6824495385272765"></circle><circle cx="81.3848650377401" cy="60.197560814373176" r="0.6824495385272765"></circle><circle cx="80.48802457287249" cy="62.628553268047895" r="0.5472820377276209"></circle><circle cx="79.40321529821611" cy="64.9816864914051" r="0.3037186173822907"></circle><circle cx="78.137125423685" cy="67.24245263562636" r="0.6577848345501358"></circle><circle cx="76.69756081437336" cy="69.3969133256515" r="0.6893654271085455"></circle><circle cx="75.09339686480104" cy="71.43178559489604" r="0.7"></circle><circle cx="73.33452377915607" cy="73.33452377915606" r="0.6893654271085455"></circle><circle cx="71.43178559489606" cy="75.09339686480104" r="0.6577848345501358"></circle><circle cx="69.3969133256516" cy="76.69756081437328" r="0.6062177826491071"></circle><circle cx="67.24245263562638" cy="78.137125423685" r="0.5362311101832846"></circle><circle cx="64.9816864914051" cy="79.40321529821611" r="0.4499513267805776"></circle><circle cx="62.62855326804801" cy="80.48802457287245" r="0.3499999999999999"></circle><circle cx="60.1975608143733" cy="81.38486503774006" r="0.2394141003279682"></circle><circle cx="57.703697007244784" cy="82.08820737312335" r="0.1215537243668515"></circle><circle cx="55.16233734632774" cy="82.59371523963952" r="0.05"></circle><circle cx="52.58915015901899" cy="82.8982720131932" r="0.12155372436685122"></circle><circle cx="49.99999999999998" cy="83" r="0.2394141003279681"></circle><circle cx="47.41084984098108" cy="82.89827201319322" r="0.3499999999999999"></circle><circle cx="44.837662653672325" cy="82.59371523963954" r="0.4499513267805774"></circle><circle cx="42.29630299275529" cy="82.08820737312337" r="0.5362311101832846"></circle><circle cx="39.80243918562677" cy="81.38486503774007" r="0.606217782649107"></circle><circle cx="37.371446731952055" cy="80.48802457287246" r="0.2939223710921853"></circle><circle cx="35.01831350859496" cy="79.40321529821614" r="0.22351107109518595"></circle><circle cx="32.75754736437368" cy="78.13712542368503" r="0.1504793081477169"></circle><circle cx="30.603086674348464" cy="76.69756081437332" r="0.07568331289675914"></circle><circle cx="28.568214405103998" cy="75.09339686480106" r="8.572527594031472e-17"></circle><circle cx="26.665476220843978" cy="73.33452377915611" r="0.07568331289675934"></circle><circle cx="24.906603135199013" cy="71.4317855948961" r="0.15047930814771698"></circle><circle cx="23.302439185626685" cy="69.39691332565155" r="0.22351107109518614"></circle><circle cx="21.86287457631503" cy="67.24245263562644" r="0.29392237109218533"></circle><circle cx="20.596784701783918" cy="64.98168649140516" r="0.3608877000239154"></circle><circle cx="19.511975427127535" cy="62.62855326804795" r="0.42362195063563557"></circle><circle cx="18.615134962259926" cy="60.19756081437325" r="0.4813896211973964"></circle><circle cx="17.91179262687666" cy="57.70369700724484" r="0.5335134385893455"></circle><circle cx="17.406284760360464" cy="55.16233734632768" r="0.5793822987098234"></circle><circle cx="17.10172798680678" cy="52.589150159018935" r="0.618458431112216"></circle><circle cx="17" cy="50.000000000000036" r="0.6502837038717539"></circle><circle cx="17.10172798680677" cy="47.410849840981136" r="0.674484994763456"></circle><circle cx="17.406284760360457" cy="44.83766265367239" r="0.6907785657790683"></circle><circle cx="17.911792626876647" cy="42.29630299275523" r="0.6989733896957867"></circle><circle cx="18.615134962259905" cy="39.802439185626824" r="0.6989733896957866"></circle><circle cx="19.511975427127506" cy="37.37144673195211" r="0.6907785657790683"></circle><circle cx="20.596784701783886" cy="35.01831350859491" r="0.674484994763456"></circle><circle cx="21.86287457631499" cy="32.757547364373636" r="0.6502837038717538"></circle><circle cx="23.302439185626646" cy="30.60308667434851" r="0.618458431112216"></circle><circle cx="24.906603135198964" cy="28.56821440510396" r="0.5793822987098233"></circle><circle cx="26.665476220843928" cy="26.66547622084394" r="0.5335134385893455"></circle><circle cx="28.568214405103944" cy="24.906603135198974" r="0.4813896211973963"></circle><circle cx="30.603086674348404" cy="23.302439185626724" r="0.42362195063563557"></circle><circle cx="32.757547364373615" cy="21.862874576314997" r="0.3608877000239152"></circle><circle cx="35.0183135085949" cy="20.596784701783893" r="0.19721278978900103"></circle><circle cx="37.37144673195199" cy="19.511975427127556" r="0.05"></circle><circle cx="39.802439185626696" cy="18.615134962259944" r="0.19721278978900075"></circle><circle cx="42.296302992755216" cy="17.911792626876654" r="0.37844857221891826"></circle><circle cx="44.837662653672254" cy="17.406284760360478" r="0.5290247020479808"></circle><circle cx="47.41084984098101" cy="17.101727986806786" r="0.6367423967481628"></circle><circle cx="49.9999999999999" cy="17" r="0.6928750093166528"></circle><circle cx="52.58915015901892" cy="17.10172798680678" r="0.6928750093166529"></circle><circle cx="55.16233734632767" cy="17.406284760360464" r="0.6367423967481629"></circle><circle cx="57.70369700724471" cy="17.911792626876633" r="0.5290247020479808"></circle><circle cx="60.197560814373226" cy="18.61513496225992" r="0.3784485722189182"></circle><circle cx="62.62855326804794" cy="19.511975427127528" r="0.13656322541129"></circle><circle cx="64.98168649140504" cy="20.596784701783857" r="0.2678784026555629"></circle><circle cx="67.24245263562632" cy="21.862874576314958" r="0.3888991631137215"></circle><circle cx="69.39691332565152" cy="23.302439185626678" r="0.4949747468305833"></circle><circle cx="71.431785594896" cy="24.906603135198925" r="0.5820287286117817"></circle><circle cx="73.33452377915602" cy="26.665476220843882" r="0.6467156727579007"></circle><circle cx="75.09339686480098" cy="28.568214405103898" r="0.6865496962822613"></circle></g></g>
  <desc>Created with Snap</desc></svg>
