<svg width="100%" height="100%" viewBox="0 0 100 100" version="1.1" xmlns="http://www.w3.org/2000/svg" id="decent-logo-svg">
       <defs>
         <style type="text/css">
           @import url("https://fonts.googleapis.com/css?family=Dosis:400,700")
         </style>
         <style type="text/css">
           #text text {
             font-family: 'Dosis'
           }
         </style>
       </defs>
       <g id="svg-content"><circle cx="50" cy="50" r="25" id="shape"></circle><g textAlign="center" fill="undefined" style="text-anchor: middle; stroke-width: 0;" stroke="rgba(0,0,0,0)" id="halftones"><rect x="75" y="50" width="1.2246467991473532e-16" height="1.2246467991473532e-16"></rect><rect x="74.70599147376942" y="51.744535523637346" width="0.43388373911755823" height="0.43388373911755823"></rect><rect x="74.30129277364443" y="53.51994588477175" width="0.7818314824680299" height="0.7818314824680299"></rect><rect x="73.821784053851" y="55.34867014030672" width="0.9749279121818236" height="0.9749279121818236"></rect><rect x="73.28894895128794" y="57.23796090328277" width="0.9749279121818236" height="0.9749279121818236"></rect><rect x="72.70607257154816" y="59.176170067893224" width="0.7818314824680298" height="0.7818314824680298"></rect><rect x="72.05822123515041" y="61.13282062392989" width="0.43388373911755823" height="0.43388373911755823"></rect><rect x="70.84615779845936" y="62.59261780750577" width="0.9396926207859083" height="0.9396926207859083"></rect><rect x="69.73302098286759" y="64.20222743080572" width="0.984807753012208" height="0.984807753012208"></rect><rect x="68.51014914000078" y="65.73620120825458" width="1" height="1"></rect><rect x="67.18526565315759" y="67.18526565315759" width="0.984807753012208" height="0.984807753012208"></rect><rect x="65.76635489786163" y="68.54030282960782" width="0.9396926207859084" height="0.9396926207859084"></rect><rect x="64.2616186054196" y="69.79241215748146" width="0.8660254037844387" height="0.8660254037844387"></rect><rect x="62.679441896339235" y="70.93298188729281" width="0.766044443118978" height="0.766044443118978"></rect><rect x="61.0283686886454" y="71.95376929986593" width="0.6427876096865395" height="0.6427876096865395"></rect><rect x="59.31708580912725" y="72.84698831278217" width="0.49999999999999994" height="0.49999999999999994"></rect><rect x="57.554414787710854" y="73.605402835716" width="0.3420201433256689" height="0.3420201433256689"></rect><rect x="55.74931000756417" y="74.22242392110844" width="0.17364817766693072" height="0.17364817766693072"></rect><rect x="53.86086162600578" y="74.64220851487845" width="0.1" height="0.1"></rect><rect x="51.87465330436266" y="74.83610925449473" width="0.17364817766693033" height="0.17364817766693033"></rect><rect x="49.828989928337165" y="74.82898992833717" width="0.3420201433256687" height="0.3420201433256687"></rect><rect x="47.78852260680388" y="74.6729333433282" width="0.49999999999999994" height="0.49999999999999994"></rect><rect x="45.767744569150956" y="74.37081471003518" width="0.6427876096865393" height="0.6427876096865393"></rect><rect x="43.780843682042885" y="73.92622578838242" width="0.766044443118978" height="0.766044443118978"></rect><rect x="41.8415624387341" y="73.34340020548662" width="0.8660254037844386" height="0.8660254037844386"></rect><rect x="40.22296964009263" y="72.88704376200204" width="0.4198891015602647" height="0.4198891015602647"></rect><rect x="38.490586741443344" y="72.1155123396412" width="0.31930153013597995" height="0.31930153013597995"></rect><rect x="36.83005066199577" y="71.2085188887468" width="0.21497044021102416" height="0.21497044021102416"></rect><rect x="35.25130918347621" y="70.17136535016172" width="0.10811901842394163" height="0.10811901842394163"></rect><rect x="33.763798791745415" y="69.01014914000078" width="1.2246467991473532e-16" height="1.2246467991473532e-16"></rect><rect x="32.26827096112434" y="67.62361002045172" width="0.10811901842394192" height="0.10811901842394192"></rect><rect x="30.882365639893717" y="66.12871598814908" width="0.21497044021102427" height="0.21497044021102427"></rect><rect x="29.614924375558328" y="64.53498054224383" width="0.3193015301359802" height="0.3193015301359802"></rect><rect x="28.474051340367563" y="62.85251956711859" width="0.4198891015602648" height="0.4198891015602648"></rect><rect x="27.467059966702294" y="61.091985564900156" width="0.5155538571770221" height="0.5155538571770221"></rect><rect x="26.60042457962095" y="59.264498701530364" width="0.6051742151937651" height="0.6051742151937651"></rect><rect x="25.87973736319445" y="57.381575129946974" width="0.6876994588534235" height="0.6876994588534235"></rect><rect x="25.309670962494266" y="55.45505306883382" width="0.7621620551276365" height="0.7621620551276365"></rect><rect x="24.893946986043115" y="53.49701712692733" width="0.8276889981568906" height="0.8276889981568906"></rect><rect x="24.63531063444879" y="51.519721370973116" width="0.8835120444460229" height="0.8835120444460229"></rect><rect x="24.535511640091606" y="49.535511640091606" width="0.9289767198167914" height="0.9289767198167914"></rect><rect x="24.595291660412183" y="47.55674761054428" width="0.9635499925192229" height="0.9635499925192229"></rect><rect x="24.81437822385079" y="45.59572511272347" width="0.9868265225415261" height="0.9868265225415261"></rect><rect x="25.191485283132522" y="43.66459919667681" width="0.9985334138511239" height="0.9985334138511239"></rect><rect x="25.724320385695602" y="41.775308433700744" width="0.9985334138511238" height="0.9985334138511238"></rect><rect x="26.409598425947067" y="39.939500929602" width="0.9868265225415261" height="0.9868265225415261"></rect><rect x="27.243061899031183" y="38.168462510251736" width="0.963549992519223" height="0.963549992519223"></rect><rect x="28.219507531239298" y="36.47304752219289" width="0.9289767198167913" height="0.9289767198167913"></rect><rect x="29.332819118403304" y="34.863612670465166" width="0.8835120444460229" height="0.8835120444460229"></rect><rect x="30.57600636092079" y="33.34995429266696" width="0.8276889981568905" height="0.8276889981568905"></rect><rect x="31.94124944277249" y="31.94124944277249" width="0.7621620551276365" height="0.7621620551276365"></rect><rect x="33.419949062318686" y="30.646001130572525" width="0.6876994588534233" height="0.6876994588534233"></rect><rect x="35.002781585091284" y="29.471988033029437" width="0.6051742151937651" height="0.6051742151937651"></rect><rect x="36.67975895351275" y="28.42621896255919" width="0.5155538571770217" height="0.5155538571770217"></rect><rect x="38.509371228090615" y="27.58397061687009" width="0.28173255684143006" height="0.28173255684143006"></rect><rect x="40.38291419087275" y="26.853011687217837" width="0.1" height="0.1"></rect><rect x="42.133708862205594" y="26.08272081420045" width="0.28173255684142967" height="0.28173255684142967"></rect><rect x="43.89354549487457" y="25.420431581330284" width="0.5406408174555976" height="0.5406408174555976"></rect><rect x="45.7112635868171" y="24.929916697944428" width="0.7557495743542583" height="0.7557495743542583"></rect><rect x="47.58370660912662" y="24.622250658994542" width="0.9096319953545183" height="0.9096319953545183"></rect><rect x="49.505089279059526" y="24.505089279059533" width="0.9898214418809327" height="0.9898214418809327"></rect><rect x="51.46656667225564" y="24.58215593573133" width="0.9898214418809328" height="0.9898214418809328"></rect><rect x="53.45604562832851" y="24.852975487444297" width="0.9096319953545184" height="0.9096319953545184"></rect><rect x="55.458259309220495" y="25.31287720288095" width="0.7557495743542584" height="0.7557495743542584"></rect><rect x="57.455104450645884" y="25.95326668389336" width="0.5406408174555974" height="0.5406408174555974"></rect><rect x="59.469540648119185" y="26.80546652620977" width="0.1950903220161286" height="0.1950903220161286"></rect><rect x="61.15842077730613" y="27.533495179108254" width="0.3826834323650899" height="0.3826834323650899"></rect><rect x="62.78467900138892" y="28.4062107746379" width="0.5555702330196022" height="0.5555702330196022"></rect><rect x="64.34107791671855" y="29.421021750033038" width="0.7071067811865476" height="0.7071067811865476"></rect><rect x="65.82046640210332" y="30.574116053847955" width="0.8314696123025453" height="0.8314696123025453"></rect><rect x="67.21572976340805" y="31.860390704080668" width="0.9238795325112867" height="0.9238795325112867"></rect><rect x="68.51975649979914" y="33.27340615154379" width="0.9807852804032304" height="0.9807852804032304"></rect><rect x="69.72542485937367" y="34.80536869268816" width="1" height="1"></rect><rect x="70.82561146865068" y="36.44714324189965" width="0.9807852804032304" height="0.9807852804032304"></rect><rect x="71.81322333845355" y="38.18829774025568" width="0.9238795325112867" height="0.9238795325112867"></rect><rect x="72.68125350663088" y="40.017179384721466" width="0.8314696123025452" height="0.8314696123025452"></rect><rect x="73.42285951678556" y="41.921021750033034" width="0.7071067811865475" height="0.7071067811865475"></rect><rect x="74.0314628934321" y="43.88608078709257" width="0.5555702330196022" height="0.5555702330196022"></rect><rect x="74.5008667986959" y="45.89779665781168" width="0.3826834323650898" height="0.3826834323650898"></rect><rect x="74.82538818232013" y="47.940977445795816" width="0.19509032201612825" height="0.19509032201612825"></rect><rect x="77" y="49.99999999999999" width="1.2246467991473532e-16" height="1.2246467991473532e-16"></rect><rect x="76.69982614123568" y="51.90145371509301" width="0.43388373911755823" height="0.43388373911755823"></rect><rect x="76.27666945483472" y="53.832814814852185" width="0.7818314824680299" height="0.7818314824680299"></rect><rect x="75.76652389464637" y="55.81556086801854" width="0.9749279121818236" height="0.9749279121818236"></rect><rect x="75.19106198387824" y="57.85599489203266" width="0.9749279121818236" height="0.9749279121818236"></rect><rect x="74.55383163657073" y="59.941536932623414" width="0.7818314824680298" height="0.7818314824680298"></rect><rect x="73.84023428352715" y="62.040801623408974" width="0.43388373911755823" height="0.43388373911755823"></rect><rect x="72.55143812716754" y="63.63761493693765" width="0.9396926207859083" height="0.9396926207859083"></rect><rect x="71.35105497161747" y="65.37779793539069" width="0.984807753012208" height="0.984807753012208"></rect><rect x="70.03096107120084" y="67.03509730491496" width="1" height="1"></rect><rect x="68.59947921553069" y="68.59947921553068" width="0.984807753012208" height="0.984807753012208"></rect><rect x="67.06525099452202" y="70.06111476080787" width="0.9396926207859084" height="0.9396926207859084"></rect><rect x="65.43718911000458" y="71.41044614623134" width="0.8660254037844387" height="0.8660254037844387"></rect><rect x="63.72443902577113" y="72.63826221600101" width="0.766044443118978" height="0.766044443118978"></rect><rect x="61.9363496881245" y="73.73578234824267" width="0.6427876096865395" height="0.6427876096865395"></rect><rect x="60.082452673857446" y="74.69474737780473" width="0.49999999999999994" height="0.49999999999999994"></rect><rect x="58.172448776460755" y="75.50751586830631" width="0.3420201433256689" height="0.3420201433256689"></rect><rect x="56.216200735276" y="76.1671637619038" width="0.17364817766693072" height="0.17364817766693072"></rect><rect x="54.17373055608622" y="76.61758519606873" width="0.1" height="0.1"></rect><rect x="52.03157149581834" y="76.82994392196099" width="0.17364817766693033" height="0.17364817766693033"></rect><rect x="49.82898992833717" y="76.82898992833717" width="0.3420201433256687" height="0.3420201433256687"></rect><rect x="47.63160441534821" y="76.66676801079446" width="0.49999999999999994" height="0.49999999999999994"></rect><rect x="45.45487563907053" y="76.34619139122546" width="0.6427876096865393" height="0.6427876096865393"></rect><rect x="43.31395295433104" y="75.87096562917777" width="0.766044443118978" height="0.766044443118978"></rect><rect x="41.22352844998421" y="75.24551323807692" width="0.8660254037844386" height="0.8660254037844386"></rect><rect x="39.457602775362446" y="74.73480282702461" width="0.4198891015602647" height="0.4198891015602647"></rect><rect x="37.58260574196428" y="73.89752538801795" width="0.31930153013597995" height="0.31930153013597995"></rect><rect x="35.785053532563886" y="72.91379921745498" width="0.21497044021102416" height="0.21497044021102416"></rect><rect x="34.07573867889126" y="71.78939933891162" width="0.10811901842394163" height="0.10811901842394163"></rect><rect x="32.46490269508504" y="70.53096107120084" width="1.2246467991473532e-16" height="1.2246467991473532e-16"></rect><rect x="30.85405739875127" y="69.03782358282484" width="0.10811901842394192" height="0.10811901842394192"></rect><rect x="29.361553708693666" y="67.42761208480945" width="0.21497044021102427" height="0.21497044021102427"></rect><rect x="27.996890386808435" y="65.71055104682878" width="0.3193015301359802" height="0.3193015301359802"></rect><rect x="26.768771011659375" y="63.89751669655049" width="0.4198891015602648" height="0.4198891015602648"></rect><rect x="25.685046918325547" y="61.999966564379235" width="0.5155538571770221" height="0.5155538571770221"></rect><rect x="24.752665514598384" y="60.02986556626056" width="0.6051742151937651" height="0.6051742151937651"></rect><rect x="23.977624330604147" y="57.999609118696874" width="0.6876994588534235" height="0.6876994588534235"></rect><rect x="23.364931121698923" y="55.921943796545676" width="0.7621620551276365" height="0.7621620551276365"></rect><rect x="22.918570304852835" y="53.80988605700777" width="0.8276889981568906" height="0.8276889981568906"></rect><rect x="22.641475966982533" y="51.676639562428825" width="0.8835120444460229" height="0.8835120444460229"></rect><rect x="22.535511640091606" y="49.53551164009161" width="0.9289767198167914" height="0.9289767198167914"></rect><rect x="22.60145699294593" y="47.399829419088576" width="0.9635499925192229" height="0.9635499925192229"></rect><rect x="22.839001542660515" y="45.28285618264304" width="0.9868265225415261" height="0.9868265225415261"></rect><rect x="23.24674544233718" y="43.19770846896497" width="0.9985334138511239" height="0.9985334138511239"></rect><rect x="23.82220735310529" y="41.157274444950865" width="0.9985334138511238" height="0.9985334138511238"></rect><rect x="24.561839360924495" y="39.174134064871815" width="0.9868265225415261" height="0.9868265225415261"></rect><rect x="25.46104885065444" y="37.26048151077266" width="0.963549992519223" height="0.963549992519223"></rect><rect x="26.514227202531107" y="35.42805039276101" width="0.9289767198167913" height="0.9289767198167913"></rect><rect x="27.714785129653404" y="33.688042165880226" width="0.8835120444460229" height="0.8835120444460229"></rect><rect x="29.05519442972072" y="32.0510581960066" width="0.8276889981568905" height="0.8276889981568905"></rect><rect x="30.527035880399406" y="30.527035880399385" width="0.7621620551276365" height="0.7621620551276365"></rect><rect x="32.12105296565831" y="29.125189199372468" width="0.6876994588534233" height="0.6876994588534233"></rect><rect x="33.82721108050633" y="27.853954044279543" width="0.6051742151937651" height="0.6051742151937651"></rect><rect x="35.63476182408087" y="26.720938633850995" width="0.5155538571770217" height="0.5155538571770217"></rect><rect x="37.601390228611535" y="25.801957568493343" width="0.28173255684143006" height="0.28173255684143006"></rect><rect x="39.61754732614256" y="25.005252622195265" width="0.1" height="0.1"></rect><rect x="41.515674873455694" y="24.180607781610146" width="0.28173255684142967" height="0.28173255684142967"></rect><rect x="43.42665476716271" y="23.475691740534945" width="0.5406408174555976" height="0.5406408174555976"></rect><rect x="45.39839465673665" y="22.954540016754148" width="0.7557495743542583" height="0.7557495743542583"></rect><rect x="47.426788417670906" y="22.62841599152829" width="0.9096319953545183" height="0.9096319953545183"></rect><rect x="49.50508927905952" y="22.505089279059533" width="0.9898214418809327" height="0.9898214418809327"></rect><rect x="51.62348486371135" y="22.588321268265076" width="0.9898214418809328" height="0.9898214418809328"></rect><rect x="53.76891455840894" y="22.87759880625402" width="0.9096319953545184" height="0.9096319953545184"></rect><rect x="55.925150036932344" y="23.368137362085605" width="0.7557495743542584" height="0.7557495743542584"></rect><rect x="58.07313843939577" y="24.05115365130305" width="0.5406408174555974" height="0.5406408174555974"></rect><rect x="60.23490751284936" y="24.957707461187194" width="0.1950903220161286" height="0.1950903220161286"></rect><rect x="62.06640177678519" y="25.751482130731507" width="0.3826834323650899" height="0.3826834323650899"></rect><rect x="63.8296761308208" y="26.700930445929696" width="0.5555702330196022" height="0.5555702330196022"></rect><rect x="65.51664842130349" y="27.80298776128314" width="0.7071067811865476" height="0.7071067811865476"></rect><rect x="67.11936249876368" y="29.05330412264789" width="0.8314696123025453" height="0.8314696123025453"></rect><rect x="68.62994332578111" y="30.446177141707548" width="0.9238795325112867" height="0.9238795325112867"></rect><rect x="70.0405684309992" y="31.974510054883407" width="0.9807852804032304" height="0.9807852804032304"></rect><rect x="71.34345884812357" y="33.629798188103216" width="1" height="1"></rect><rect x="72.53089179735888" y="35.40214611246777" width="0.9807852804032304" height="0.9807852804032304"></rect><rect x="73.5952363868303" y="37.2803167407766" width="0.9238795325112867" height="0.9238795325112867"></rect><rect x="74.52901257165345" y="39.25181251999128" width="0.8314696123025452" height="0.8314696123025452"></rect><rect x="75.32497254937587" y="41.302987761283134" width="0.7071067811865475" height="0.7071067811865475"></rect><rect x="75.97620273422746" y="43.4191900593807" width="0.5555702330196022" height="0.5555702330196022"></rect><rect x="76.47624347988618" y="45.584927727731234" width="0.3826834323650898" height="0.3826834323650898"></rect><rect x="76.81922284978639" y="47.7840592543401" width="0.19509032201612825" height="0.19509032201612825"></rect><rect x="79" y="49.999999999999986" width="1.2246467991473532e-16" height="1.2246467991473532e-16"></rect><rect x="78.69366080870194" y="52.05837190654872" width="0.43388373911755823" height="0.43388373911755823"></rect><rect x="78.25204613602499" y="54.14568374493264" width="0.7818314824680299" height="0.7818314824680299"></rect><rect x="77.7112637354417" y="56.282451595730365" width="0.9749279121818236" height="0.9749279121818236"></rect><rect x="77.09317501646856" y="58.4740288807825" width="0.9749279121818236" height="0.9749279121818236"></rect><rect x="76.4015907015933" y="60.70690379735358" width="0.7818314824680298" height="0.7818314824680298"></rect><rect x="75.62224733190388" y="62.94878262288809" width="0.43388373911755823" height="0.43388373911755823"></rect><rect x="74.25671845587574" y="64.68261206636954" width="0.9396926207859083" height="0.9396926207859083"></rect><rect x="72.96908896036739" y="66.5533684399756" width="0.984807753012208" height="0.984807753012208"></rect><rect x="71.55177300240094" y="68.33399340157528" width="1" height="1"></rect><rect x="70.01369277790377" y="70.01369277790378" width="0.984807753012208" height="0.984807753012208"></rect><rect x="68.36414709118235" y="71.58192669200797" width="0.9396926207859084" height="0.9396926207859084"></rect><rect x="66.6127596145895" y="73.02848013498125" width="0.8660254037844387" height="0.8660254037844387"></rect><rect x="64.76943615520304" y="74.34354254470918" width="0.766044443118978" height="0.766044443118978"></rect><rect x="62.84433068760363" y="75.51779539661938" width="0.6427876096865395" height="0.6427876096865395"></rect><rect x="60.84781953858763" y="76.5425064428273" width="0.49999999999999994" height="0.49999999999999994"></rect><rect x="58.790482765210605" y="77.40962890089664" width="0.3420201433256689" height="0.3420201433256689"></rect><rect x="56.683091462987846" y="78.11190360269914" width="0.17364817766693072" height="0.17364817766693072"></rect><rect x="54.48659948616669" y="78.592961877259" width="0.1" height="0.1"></rect><rect x="52.188489687274064" y="78.82377858942725" width="0.17364817766693033" height="0.17364817766693033"></rect><rect x="49.82898992833718" y="78.82898992833717" width="0.3420201433256687" height="0.3420201433256687"></rect><rect x="47.4746862238925" y="78.66060267826072" width="0.49999999999999994" height="0.49999999999999994"></rect><rect x="45.14200670899008" y="78.32156807241573" width="0.6427876096865393" height="0.6427876096865393"></rect><rect x="42.84706222661924" y="77.81570546997312" width="0.766044443118978" height="0.766044443118978"></rect><rect x="40.60549446123437" y="77.14762627066725" width="0.8660254037844386" height="0.8660254037844386"></rect><rect x="38.69223591063227" y="76.58256189204718" width="0.4198891015602647" height="0.4198891015602647"></rect><rect x="36.67462474248515" y="75.67953843639467" width="0.31930153013597995" height="0.31930153013597995"></rect><rect x="34.740056403131995" y="74.61907954616318" width="0.21497044021102416" height="0.21497044021102416"></rect><rect x="32.90016817430632" y="73.40743332766152" width="0.10811901842394163" height="0.10811901842394163"></rect><rect x="31.166006598424715" y="72.05177300240094" width="1.2246467991473532e-16" height="1.2246467991473532e-16"></rect><rect x="29.43984383637818" y="70.45203714519793" width="0.10811901842394192" height="0.10811901842394192"></rect><rect x="27.840741777493577" y="68.7265081814698" width="0.21497044021102427" height="0.21497044021102427"></rect><rect x="26.37885639805854" y="66.88612155141374" width="0.3193015301359802" height="0.3193015301359802"></rect><rect x="25.063490682951194" y="64.94251382598239" width="0.4198891015602648" height="0.4198891015602648"></rect><rect x="23.90303386994884" y="62.907947563858386" width="0.5155538571770221" height="0.5155538571770221"></rect><rect x="22.90490644957581" y="60.795232430990744" width="0.6051742151937651" height="0.6051742151937651"></rect><rect x="22.075511298013822" y="58.617643107446725" width="0.6876994588534235" height="0.6876994588534235"></rect><rect x="21.420191280903573" y="56.3888345242575" width="0.7621620551276365" height="0.7621620551276365"></rect><rect x="20.943193623662562" y="54.12275498708824" width="0.8276889981568906" height="0.8276889981568906"></rect><rect x="20.64764129951628" y="51.83355775388452" width="0.8835120444460229" height="0.8835120444460229"></rect><rect x="20.535511640091606" y="49.53551164009162" width="0.9289767198167914" height="0.9289767198167914"></rect><rect x="20.607622325479674" y="47.242911227632895" width="0.9635499925192229" height="0.9635499925192229"></rect><rect x="20.863624861470235" y="44.96998725256259" width="0.9868265225415261" height="0.9868265225415261"></rect><rect x="21.302005601541822" y="42.73081774125316" width="0.9985334138511239" height="0.9985334138511239"></rect><rect x="21.920094320514966" y="40.539240456201036" width="0.9985334138511238" height="0.9985334138511238"></rect><rect x="22.714080295901898" y="38.40876720014169" width="0.9868265225415261" height="0.9868265225415261"></rect><rect x="23.679035802277745" y="36.35250051129348" width="0.963549992519223" height="0.963549992519223"></rect><rect x="24.808946873822915" y="34.38305326332912" width="0.9289767198167913" height="0.9289767198167913"></rect><rect x="26.096751140903503" y="32.51247166129529" width="0.8835120444460229" height="0.8835120444460229"></rect><rect x="27.534382498520657" y="30.752162099346233" width="0.8276889981568905" height="0.8276889981568905"></rect><rect x="29.112822318026307" y="29.112822318026296" width="0.7621620551276365" height="0.7621620551276365"></rect><rect x="30.82215686899798" y="27.604377268172378" width="0.6876994588534233" height="0.6876994588534233"></rect><rect x="32.651640575921334" y="26.235920055529686" width="0.6051742151937651" height="0.6051742151937651"></rect><rect x="34.589764694649006" y="25.01565830514279" width="0.5155538571770217" height="0.5155538571770217"></rect><rect x="36.693409229132385" y="24.01994452011664" width="0.28173255684143006" height="0.28173255684143006"></rect><rect x="38.852180461412374" y="23.157493557172696" width="0.1" height="0.1"></rect><rect x="40.897640884705794" y="22.27849474901984" width="0.28173255684142967" height="0.28173255684142967"></rect><rect x="42.95976403945094" y="21.53095189973958" width="0.5406408174555976" height="0.5406408174555976"></rect><rect x="45.085525726656186" y="20.979163335563875" width="0.7557495743542583" height="0.7557495743542583"></rect><rect x="47.269870226215154" y="20.634581324062037" width="0.9096319953545183" height="0.9096319953545183"></rect><rect x="49.50508927905946" y="20.505089279059533" width="0.9898214418809327" height="0.9898214418809327"></rect><rect x="51.78040305516708" y="20.594486600798824" width="0.9898214418809328" height="0.9898214418809328"></rect><rect x="54.08178348848939" y="20.90222212506374" width="0.9096319953545184" height="0.9096319953545184"></rect><rect x="56.3920407646441" y="21.42339752129024" width="0.7557495743542584" height="0.7557495743542584"></rect><rect x="58.69117242814566" y="22.149040618712743" width="0.5406408174555974" height="0.5406408174555974"></rect><rect x="61.00027437757954" y="23.10994839616462" width="0.1950903220161286" height="0.1950903220161286"></rect><rect x="62.97438277626432" y="23.969469082354788" width="0.3826834323650899" height="0.3826834323650899"></rect><rect x="64.87467326025264" y="24.99565011722148" width="0.5555702330196022" height="0.5555702330196022"></rect><rect x="66.69221892588847" y="26.18495377253327" width="0.7071067811865476" height="0.7071067811865476"></rect><rect x="68.418258595424" y="27.53249219144779" width="0.8314696123025453" height="0.8314696123025453"></rect><rect x="70.0441568881542" y="29.031963579334445" width="0.9238795325112867" height="0.9238795325112867"></rect><rect x="71.56138036219926" y="30.675613958223032" width="0.9807852804032304" height="0.9807852804032304"></rect><rect x="72.96149283687346" y="32.45422768351826" width="1" height="1"></rect><rect x="74.23617212606705" y="34.35714898303586" width="0.9807852804032304" height="0.9807852804032304"></rect><rect x="75.37724943520699" y="36.37233574129741" width="0.9238795325112867" height="0.9238795325112867"></rect><rect x="76.37677163667604" y="38.48644565526114" width="0.8314696123025452" height="0.8314696123025452"></rect><rect x="77.22708558196618" y="40.68495377253328" width="0.7071067811865475" height="0.7071067811865475"></rect><rect x="77.9209425750228" y="42.95229933166888" width="0.5555702330196022" height="0.5555702330196022"></rect><rect x="78.45162016107643" y="45.272058797650715" width="0.3826834323650898" height="0.3826834323650898"></rect><rect x="78.81305751725264" y="47.6271410628844" width="0.19509032201612825" height="0.19509032201612825"></rect><rect x="81" y="49.99999999999998" width="1.2246467991473532e-16" height="1.2246467991473532e-16"></rect><rect x="80.68749547616818" y="52.2152900980044" width="0.43388373911755823" height="0.43388373911755823"></rect><rect x="80.22742281721526" y="54.458552675013145" width="0.7818314824680299" height="0.7818314824680299"></rect><rect x="79.65600357623707" y="56.74934232344217" width="0.9749279121818236" height="0.9749279121818236"></rect><rect x="78.99528804905889" y="59.092062869532384" width="0.9749279121818236" height="0.9749279121818236"></rect><rect x="78.24934976661591" y="61.47227066208371" width="0.7818314824680298" height="0.7818314824680298"></rect><rect x="77.40426038028059" y="63.856763622367225" width="0.43388373911755823" height="0.43388373911755823"></rect><rect x="75.96199878458393" y="65.72760919580143" width="0.9396926207859083" height="0.9396926207859083"></rect><rect x="74.58712294911729" y="67.72893894456054" width="0.984807753012208" height="0.984807753012208"></rect><rect x="73.07258493360096" y="69.63288949823568" width="1" height="1"></rect><rect x="71.42790634027688" y="71.42790634027688" width="0.984807753012208" height="0.984807753012208"></rect><rect x="69.66304318784273" y="73.10273862320801" width="0.9396926207859084" height="0.9396926207859084"></rect><rect x="67.7883301191745" y="74.6465141237311" width="0.8660254037844387" height="0.8660254037844387"></rect><rect x="65.81443328463489" y="76.0488228734174" width="0.766044443118978" height="0.766044443118978"></rect><rect x="63.752311687082724" y="77.29980844499612" width="0.6427876096865395" height="0.6427876096865395"></rect><rect x="61.61318640331782" y="78.39026550784988" width="0.49999999999999994" height="0.49999999999999994"></rect><rect x="59.408516753960555" y="79.31174193348691" width="0.3420201433256689" height="0.3420201433256689"></rect><rect x="57.14998219069961" y="80.05664344349451" width="0.17364817766693072" height="0.17364817766693072"></rect><rect x="54.79946841624716" y="80.56833855844927" width="0.1" height="0.1"></rect><rect x="52.34540787872982" y="80.8176132568935" width="0.17364817766693033" height="0.17364817766693033"></rect><rect x="49.82898992833714" y="80.82898992833717" width="0.3420201433256687" height="0.3420201433256687"></rect><rect x="47.31776803243676" y="80.65443734572696" width="0.49999999999999994" height="0.49999999999999994"></rect><rect x="44.829137778909626" y="80.29694475360601" width="0.6427876096865393" height="0.6427876096865393"></rect><rect x="42.38017149890749" y="79.76044531076849" width="0.766044443118978" height="0.766044443118978"></rect><rect x="39.987460472484436" y="79.04973930325754" width="0.8660254037844386" height="0.8660254037844386"></rect><rect x="37.9268690459021" y="78.43032095706977" width="0.4198891015602647" height="0.4198891015602647"></rect><rect x="35.766643743006064" y="77.4615514847714" width="0.31930153013597995" height="0.31930153013597995"></rect><rect x="33.69505927370016" y="76.32435987487139" width="0.21497044021102416" height="0.21497044021102416"></rect><rect x="31.724597669721337" y="75.0254673164114" width="0.10811901842394163" height="0.10811901842394163"></rect><rect x="29.86711050176436" y="73.57258493360101" width="1.2246467991473532e-16" height="1.2246467991473532e-16"></rect><rect x="28.025630274005092" y="71.86625070757104" width="0.10811901842394192" height="0.10811901842394192"></rect><rect x="26.31992984629355" y="70.02540427813021" width="0.21497044021102427" height="0.21497044021102427"></rect><rect x="24.760822409308656" y="68.06169205599869" width="0.3193015301359802" height="0.3193015301359802"></rect><rect x="23.358210354243013" y="65.9875109554143" width="0.4198891015602648" height="0.4198891015602648"></rect><rect x="22.121020821572134" y="63.815928563337536" width="0.5155538571770221" height="0.5155538571770221"></rect><rect x="21.05714738455322" y="61.560599295720884" width="0.6051742151937651" height="0.6051742151937651"></rect><rect x="20.17339826542352" y="59.23567709619663" width="0.6876994588534235" height="0.6876994588534235"></rect><rect x="19.47545144010822" y="56.85572525196932" width="0.7621620551276365" height="0.7621620551276365"></rect><rect x="18.967816942472297" y="54.43562391716877" width="0.8276889981568906" height="0.8276889981568906"></rect><rect x="18.653806632050024" y="51.99047594534022" width="0.8835120444460229" height="0.8835120444460229"></rect><rect x="18.535511640091606" y="49.535511640091634" width="0.9289767198167914" height="0.9289767198167914"></rect><rect x="18.61378765801342" y="47.08599303617721" width="0.9635499925192229" height="0.9635499925192229"></rect><rect x="18.888248180279966" y="44.657118322482084" width="0.9868265225415261" height="0.9868265225415261"></rect><rect x="19.35726576074647" y="42.263927013541355" width="0.9985334138511239" height="0.9985334138511239"></rect><rect x="20.017981287924652" y="39.92120646745115" width="0.9985334138511238" height="0.9985334138511238"></rect><rect x="20.86632123087932" y="37.64340033541152" width="0.9868265225415261" height="0.9868265225415261"></rect><rect x="21.89702275390101" y="35.44451951181439" width="0.963549992519223" height="0.963549992519223"></rect><rect x="23.103666545114724" y="33.33805613389723" width="0.9289767198167913" height="0.9289767198167913"></rect><rect x="24.478717152153603" y="31.336901156710343" width="0.8835120444460229" height="0.8835120444460229"></rect><rect x="26.01357056732059" y="29.453266002685872" width="0.8276889981568905" height="0.8276889981568905"></rect><rect x="27.698608755653204" y="27.698608755653204" width="0.7621620551276365" height="0.7621620551276365"></rect><rect x="29.523260772337604" y="26.08356533697232" width="0.6876994588534233" height="0.6876994588534233"></rect><rect x="31.476070071336387" y="24.617886066779796" width="0.6051742151937651" height="0.6051742151937651"></rect><rect x="33.544767565217114" y="23.310377976434605" width="0.5155538571770217" height="0.5155538571770217"></rect><rect x="35.785428229653284" y="22.237931471739905" width="0.28173255684143006" height="0.28173255684143006"></rect><rect x="38.086813596682184" y="21.309734492150124" width="0.1" height="0.1"></rect><rect x="40.27960689595589" y="20.376381716429535" width="0.28173255684142967" height="0.28173255684142967"></rect><rect x="42.49287331173912" y="19.58621205894423" width="0.5406408174555976" height="0.5406408174555976"></rect><rect x="44.77265679657572" y="19.0037866543736" width="0.7557495743542583" height="0.7557495743542583"></rect><rect x="47.11295203475945" y="18.64074665659578" width="0.9096319953545183" height="0.9096319953545183"></rect><rect x="49.50508927905945" y="18.505089279059533" width="0.9898214418809327" height="0.9898214418809327"></rect><rect x="51.937321246622766" y="18.600651933332568" width="0.9898214418809328" height="0.9898214418809328"></rect><rect x="54.39465241856984" y="18.926845443873464" width="0.9096319953545184" height="0.9096319953545184"></rect><rect x="56.8589314923559" y="19.478657680494887" width="0.7557495743542584" height="0.7557495743542584"></rect><rect x="59.30920641689555" y="20.246927586122432" width="0.5406408174555974" height="0.5406408174555974"></rect><rect x="61.765641242309705" y="21.26218933114204" width="0.1950903220161286" height="0.1950903220161286"></rect><rect x="63.88236377574341" y="22.187456033978048" width="0.3826834323650899" height="0.3826834323650899"></rect><rect x="65.91967038968453" y="23.29036978851329" width="0.5555702330196022" height="0.5555702330196022"></rect><rect x="67.86778943047341" y="24.566919783783373" width="0.7071067811865476" height="0.7071067811865476"></rect><rect x="69.71715469208436" y="26.011680260247722" width="0.8314696123025453" height="0.8314696123025453"></rect><rect x="71.4583704505273" y="27.617750016961345" width="0.9238795325112867" height="0.9238795325112867"></rect><rect x="73.08219229339932" y="29.376717861562657" width="0.9807852804032304" height="0.9807852804032304"></rect><rect x="74.57952682562336" y="31.278657178933308" width="1" height="1"></rect><rect x="75.94145245477523" y="33.31215185360396" width="0.9807852804032304" height="0.9807852804032304"></rect><rect x="77.15926248358372" y="35.464354741818305" width="0.9238795325112867" height="0.9238795325112867"></rect><rect x="78.22453070169863" y="37.72107879053096" width="0.8314696123025452" height="0.8314696123025452"></rect><rect x="79.12919861455649" y="40.066919783783376" width="0.7071067811865475" height="0.7071067811865475"></rect><rect x="79.86568241581816" y="42.48540860395706" width="0.5555702330196022" height="0.5555702330196022"></rect><rect x="80.42699684226672" y="44.959189867570245" width="0.3826834323650898" height="0.3826834323650898"></rect><rect x="80.80689218471889" y="47.470222871428696" width="0.19509032201612825" height="0.19509032201612825"></rect><rect x="83" y="49.999999999999964" width="1.2246467991473532e-16" height="1.2246467991473532e-16"></rect><rect x="82.68133014363444" y="52.37220828946008" width="0.43388373911755823" height="0.43388373911755823"></rect><rect x="82.20279949840554" y="54.7714216050936" width="0.7818314824680299" height="0.7818314824680299"></rect><rect x="81.60074341703245" y="57.216233051153864" width="0.9749279121818236" height="0.9749279121818236"></rect><rect x="80.89740108164919" y="59.71009685828226" width="0.9749279121818236" height="0.9749279121818236"></rect><rect x="80.09710883163848" y="62.23763752681388" width="0.7818314824680298" height="0.7818314824680298"></rect><rect x="79.18627342865733" y="64.76474462184632" width="0.43388373911755823" height="0.43388373911755823"></rect><rect x="77.66727911329205" y="66.77260632523341" width="0.9396926207859083" height="0.9396926207859083"></rect><rect x="76.20515693786726" y="68.9045094491454" width="0.984807753012208" height="0.984807753012208"></rect><rect x="74.59339686480104" y="70.93178559489604" width="1" height="1"></rect><rect x="72.84211990264997" y="72.84211990264996" width="0.984807753012208" height="0.984807753012208"></rect><rect x="70.9619392845031" y="74.62355055440808" width="0.9396926207859084" height="0.9396926207859084"></rect><rect x="68.96390062375937" y="76.26454811248105" width="0.8660254037844387" height="0.8660254037844387"></rect><rect x="66.85943041406689" y="77.75410320212552" width="0.766044443118978" height="0.766044443118978"></rect><rect x="64.66029268656183" y="79.08182149337284" width="0.6427876096865395" height="0.6427876096865395"></rect><rect x="62.37855326804801" y="80.23802457287245" width="0.49999999999999994" height="0.49999999999999994"></rect><rect x="60.02655074271046" y="81.21385496607722" width="0.3420201433256689" height="0.3420201433256689"></rect><rect x="57.61687291841132" y="82.00138328428989" width="0.17364817766693072" height="0.17364817766693072"></rect><rect x="55.11233734632774" y="82.54371523963952" width="0.1" height="0.1"></rect><rect x="52.502326070185525" y="82.81144792435974" width="0.17364817766693033" height="0.17364817766693033"></rect><rect x="49.828989928337144" y="82.82898992833717" width="0.3420201433256687" height="0.3420201433256687"></rect><rect x="47.16084984098108" y="82.64827201319322" width="0.49999999999999994" height="0.49999999999999994"></rect><rect x="44.51626884882906" y="82.27232143479627" width="0.6427876096865393" height="0.6427876096865393"></rect><rect x="41.9132807711958" y="81.70518515156388" width="0.766044443118978" height="0.766044443118978"></rect><rect x="39.36942648373455" y="80.95185233584785" width="0.8660254037844386" height="0.8660254037844386"></rect><rect x="37.161502181171926" y="80.27808002209233" width="0.4198891015602647" height="0.4198891015602647"></rect><rect x="34.85866274352697" y="79.24356453314815" width="0.31930153013597995" height="0.31930153013597995"></rect><rect x="32.65006214426817" y="78.02964020357952" width="0.21497044021102416" height="0.21497044021102416"></rect><rect x="30.549027165136494" y="76.64350130516135" width="0.10811901842394163" height="0.10811901842394163"></rect><rect x="28.568214405103998" y="75.09339686480106" width="1.2246467991473532e-16" height="1.2246467991473532e-16"></rect><rect x="26.611416711632007" y="73.28046426994415" width="0.10811901842394192" height="0.10811901842394192"></rect><rect x="24.7991179150935" y="71.32430037479058" width="0.21497044021102427" height="0.21497044021102427"></rect><rect x="23.142788420558695" y="69.23726256058356" width="0.3193015301359802" height="0.3193015301359802"></rect><rect x="21.652930025534896" y="67.0325080848463" width="0.4198891015602648" height="0.4198891015602648"></rect><rect x="20.339007773195405" y="64.72390956281664" width="0.5155538571770221" height="0.5155538571770221"></rect><rect x="19.209388319530653" y="62.32596616045107" width="0.6051742151937651" height="0.6051742151937651"></rect><rect x="18.271285232833215" y="59.85371108494653" width="0.6876994588534235" height="0.6876994588534235"></rect><rect x="17.53071159931284" y="57.322615979681025" width="0.7621620551276365" height="0.7621620551276365"></rect><rect x="16.99244026128202" y="54.74849284724924" width="0.8276889981568906" height="0.8276889981568906"></rect><rect x="16.659971964583768" y="52.147394136795924" width="0.8835120444460229" height="0.8835120444460229"></rect><rect x="16.535511640091606" y="49.53551164009164" width="0.9289767198167914" height="0.9289767198167914"></rect><rect x="16.61995299054716" y="46.92907484472153" width="0.9635499925192229" height="0.9635499925192229"></rect><rect x="16.912871499089693" y="44.34424939240163" width="0.9868265225415261" height="0.9868265225415261"></rect><rect x="17.412525919951086" y="41.79703628582967" width="0.9985334138511239" height="0.9985334138511239"></rect><rect x="18.115868255334345" y="39.30317247870126" width="0.9985334138511238" height="0.9985334138511238"></rect><rect x="19.018562165856743" y="36.87803347068135" width="0.9868265225415261" height="0.9868265225415261"></rect><rect x="20.115009705524272" y="34.5365385123353" width="0.963549992519223" height="0.963549992519223"></rect><rect x="21.398386216406596" y="32.29305900446524" width="0.9289767198167913" height="0.9289767198167913"></rect><rect x="22.860683163403635" y="30.1613306521255" width="0.8835120444460229" height="0.8835120444460229"></rect><rect x="24.49275863612052" y="28.154369906025515" width="0.8276889981568905" height="0.8276889981568905"></rect><rect x="26.28439519328011" y="26.28439519328012" width="0.7621620551276365" height="0.7621620551276365"></rect><rect x="28.224364675677233" y="24.562753405772263" width="0.6876994588534233" height="0.6876994588534233"></rect><rect x="30.300499566751522" y="22.999852078029843" width="0.6051742151937651" height="0.6051742151937651"></rect><rect x="32.4997704357851" y="21.605097647726485" width="0.5155538571770217" height="0.5155538571770217"></rect><rect x="34.877447230174184" y="20.455918423363176" width="0.28173255684143006" height="0.28173255684143006"></rect><rect x="37.321446731951994" y="19.461975427127555" width="0.1" height="0.1"></rect><rect x="39.66157290720598" y="18.47426868383923" width="0.28173255684142967" height="0.28173255684142967"></rect><rect x="42.02598258402742" y="17.641472218148856" width="0.5406408174555976" height="0.5406408174555976"></rect><rect x="44.45978786649513" y="17.028409973183347" width="0.7557495743542583" height="0.7557495743542583"></rect><rect x="46.95603384330375" y="16.646911989129528" width="0.9096319953545183" height="0.9096319953545183"></rect><rect x="49.50508927905943" y="16.505089279059533" width="0.9898214418809327" height="0.9898214418809327"></rect><rect x="52.09423943807845" y="16.60681726586631" width="0.9898214418809328" height="0.9898214418809328"></rect><rect x="54.70752134865041" y="16.951468762683206" width="0.9096319953545184" height="0.9096319953545184"></rect><rect x="57.325822220067586" y="17.5339178396995" width="0.7557495743542584" height="0.7557495743542584"></rect><rect x="59.92724040564543" y="18.34481455353212" width="0.5406408174555974" height="0.5406408174555974"></rect><rect x="62.531008107039874" y="19.414430266119464" width="0.1950903220161286" height="0.1950903220161286"></rect><rect x="64.7903447752225" y="20.40544298560131" width="0.3826834323650899" height="0.3826834323650899"></rect><rect x="66.96466751911652" y="21.585089459805157" width="0.5555702330196022" height="0.5555702330196022"></rect><rect x="69.04335993505825" y="22.948885795033405" width="0.7071067811865476" height="0.7071067811865476"></rect><rect x="71.01605078874472" y="24.49086832904765" width="0.8314696123025453" height="0.8314696123025453"></rect><rect x="72.87258401290038" y="26.20353645458824" width="0.9238795325112867" height="0.9238795325112867"></rect><rect x="74.60300422459936" y="28.077821764902282" width="0.9807852804032304" height="0.9807852804032304"></rect><rect x="76.1975608143733" y="30.10308667434845" width="1" height="1"></rect><rect x="77.64673278348334" y="32.26715472417195" width="0.9807852804032304" height="0.9807852804032304"></rect><rect x="78.94127553196044" y="34.5563737423392" width="0.9238795325112867" height="0.9238795325112867"></rect><rect x="80.07228976672118" y="36.95571192580077" width="0.8314696123025452" height="0.8314696123025452"></rect><rect x="81.0313116471468" y="39.448885795033476" width="0.7071067811865475" height="0.7071067811865475"></rect><rect x="81.81042225661353" y="42.01851787624535" width="0.5555702330196022" height="0.5555702330196022"></rect><rect x="82.40237352345699" y="44.64632093748977" width="0.3826834323650898" height="0.3826834323650898"></rect><rect x="82.80072685218515" y="47.313304679973" width="0.19509032201612825" height="0.19509032201612825"></rect><rect x="85" y="49.99999999999996" width="1.2246467991473532e-16" height="1.2246467991473532e-16"></rect><rect x="84.6751648111007" y="52.529126480915764" width="0.43388373911755823" height="0.43388373911755823"></rect><rect x="84.17817617959581" y="55.08429053517405" width="0.7818314824680299" height="0.7818314824680299"></rect><rect x="83.5454832578278" y="57.68312377886566" width="0.9749279121818236" height="0.9749279121818236"></rect><rect x="82.7995141142395" y="60.32813084703215" width="0.9749279121818236" height="0.9749279121818236"></rect><rect x="81.94486789666107" y="63.00300439154404" width="0.7818314824680298" height="0.7818314824680298"></rect><rect x="80.96828647703407" y="65.6727256213254" width="0.43388373911755823" height="0.43388373911755823"></rect><rect x="79.37255944200024" y="67.81760345466532" width="0.9396926207859083" height="0.9396926207859083"></rect><rect x="77.82319092661716" y="70.08007995373032" width="0.984807753012208" height="0.984807753012208"></rect><rect x="76.1142087960011" y="72.23068169155641" width="1" height="1"></rect><rect x="74.25633346502316" y="74.25633346502296" width="0.984807753012208" height="0.984807753012208"></rect><rect x="72.26083538116347" y="76.14436248560814" width="0.9396926207859084" height="0.9396926207859084"></rect><rect x="70.13947112834423" y="77.88258210123102" width="0.8660254037844387" height="0.8660254037844387"></rect><rect x="67.90442754349891" y="79.45938353083363" width="0.766044443118978" height="0.766044443118978"></rect><rect x="65.56827368604094" y="80.86383454174957" width="0.6427876096865395" height="0.6427876096865395"></rect><rect x="63.14392013277808" y="82.08578363789506" width="0.49999999999999994" height="0.49999999999999994"></rect><rect x="60.64458473146037" y="83.11596799866753" width="0.3420201433256689" height="0.3420201433256689"></rect><rect x="58.08376364612313" y="83.94612312508524" width="0.17364817766693072" height="0.17364817766693072"></rect><rect x="55.4252062764081" y="84.51909192082982" width="0.1" height="0.1"></rect><rect x="52.65924426164123" y="84.80528259182601" width="0.17364817766693033" height="0.17364817766693033"></rect><rect x="49.82898992833715" y="84.82898992833717" width="0.3420201433256687" height="0.3420201433256687"></rect><rect x="47.00393164952552" y="84.64210668065948" width="0.49999999999999994" height="0.49999999999999994"></rect><rect x="44.2033999187486" y="84.24769811598654" width="0.6427876096865393" height="0.6427876096865393"></rect><rect x="41.44639004348389" y="83.64992499235922" width="0.766044443118978" height="0.766044443118978"></rect><rect x="38.751392494984785" y="82.85396536843821" width="0.8660254037844386" height="0.8660254037844386"></rect><rect x="36.39613531644176" y="82.12583908711491" width="0.4198891015602647" height="0.4198891015602647"></rect><rect x="33.95068174404778" y="81.02557758152483" width="0.31930153013597995" height="0.31930153013597995"></rect><rect x="31.605065014836274" y="79.73492053228772" width="0.21497044021102416" height="0.21497044021102416"></rect><rect x="29.373456660551557" y="78.26153529391125" width="0.10811901842394163" height="0.10811901842394163"></rect><rect x="27.269318308443548" y="76.61420879600107" width="1.2246467991473532e-16" height="1.2246467991473532e-16"></rect><rect x="25.197203149258918" y="74.69467783231725" width="0.10811901842394192" height="0.10811901842394192"></rect><rect x="23.27830598389336" y="72.62319647145087" width="0.21497044021102427" height="0.21497044021102427"></rect><rect x="21.524754431808876" y="70.4128330651686" width="0.3193015301359802" height="0.3193015301359802"></rect><rect x="19.94764969682672" y="68.0775052142782" width="0.4198891015602648" height="0.4198891015602648"></rect><rect x="18.55699472481862" y="65.63189056229564" width="0.5155538571770221" height="0.5155538571770221"></rect><rect x="17.361629254508127" y="63.09133302518137" width="0.6051742151937651" height="0.6051742151937651"></rect><rect x="16.369172200242904" y="60.47174507369643" width="0.6876994588534235" height="0.6876994588534235"></rect><rect x="15.585971758517465" y="57.789506707392725" width="0.7621620551276365" height="0.7621620551276365"></rect><rect x="15.01706358009177" y="55.061361777329836" width="0.8276889981568906" height="0.8276889981568906"></rect><rect x="14.666137297117515" y="52.304312328251626" width="0.8835120444460229" height="0.8835120444460229"></rect><rect x="14.535511640091604" y="49.53551164009178" width="0.9289767198167914" height="0.9289767198167914"></rect><rect x="14.626118323080908" y="46.772156653265846" width="0.9635499925192229" height="0.9635499925192229"></rect><rect x="14.937494817899431" y="44.03138046232105" width="0.9868265225415261" height="0.9868265225415261"></rect><rect x="15.4677860791557" y="41.33014555811799" width="0.9985334138511239" height="0.9985334138511239"></rect><rect x="16.213755222744034" y="38.685138489951385" width="0.9985334138511238" height="0.9985334138511238"></rect><rect x="17.17080310083421" y="36.11266660595107" width="0.9868265225415261" height="0.9868265225415261"></rect><rect x="18.332996657147476" y="33.628557512856325" width="0.963549992519223" height="0.963549992519223"></rect><rect x="19.69310588769841" y="31.248061875033343" width="0.9289767198167913" height="0.9289767198167913"></rect><rect x="21.242649174653803" y="28.985760147540468" width="0.8835120444460229" height="0.8835120444460229"></rect><rect x="22.971946704920374" y="26.85547380936525" width="0.8276889981568905" height="0.8276889981568905"></rect><rect x="24.870181630907002" y="24.87018163090703" width="0.7621620551276365" height="0.7621620551276365"></rect><rect x="26.925468579016762" y="23.041941474572287" width="0.6876994588534233" height="0.6876994588534233"></rect><rect x="29.12492906216657" y="21.38181808927995" width="0.6051742151937651" height="0.6051742151937651"></rect><rect x="31.454773306353193" y="19.899817319018307" width="0.5155538571770217" height="0.5155538571770217"></rect><rect x="33.96946623069496" y="18.6739053749865" width="0.28173255684143006" height="0.28173255684143006"></rect><rect x="36.556079867221804" y="17.614216362104987" width="0.1" height="0.1"></rect><rect x="39.04353891845619" y="16.572155651248888" width="0.28173255684142967" height="0.28173255684142967"></rect><rect x="41.559091856315476" y="15.696732377353527" width="0.5406408174555976" height="0.5406408174555976"></rect><rect x="44.14691893641465" y="15.053033291993072" width="0.7557495743542583" height="0.7557495743542583"></rect><rect x="46.79911565184817" y="14.65307732166326" width="0.9096319953545183" height="0.9096319953545183"></rect><rect x="49.50508927905942" y="14.505089279059534" width="0.9898214418809327" height="0.9898214418809327"></rect><rect x="52.251157629534134" y="14.612982598400052" width="0.9898214418809328" height="0.9898214418809328"></rect><rect x="55.020390278730744" y="14.976092081492906" width="0.9096319953545184" height="0.9096319953545184"></rect><rect x="57.79271294777938" y="15.589177998904146" width="0.7557495743542584" height="0.7557495743542584"></rect><rect x="60.545274394395314" y="16.44270152094181" width="0.5406408174555974" height="0.5406408174555974"></rect><rect x="63.29637497176993" y="17.566671201096838" width="0.1950903220161286" height="0.1950903220161286"></rect><rect x="65.69832577470157" y="18.62342993722457" width="0.3826834323650899" height="0.3826834323650899"></rect><rect x="68.00966464854851" y="19.879809131097037" width="0.5555702330196022" height="0.5555702330196022"></rect><rect x="70.21893043964309" y="21.330851806283427" width="0.7071067811865476" height="0.7071067811865476"></rect><rect x="72.31494688540508" y="22.970056397847582" width="0.8314696123025453" height="0.8314696123025453"></rect><rect x="74.28679757527355" y="24.789322892215225" width="0.9238795325112867" height="0.9238795325112867"></rect><rect x="76.12381615579942" y="26.778925668241904" width="0.9807852804032304" height="0.9807852804032304"></rect><rect x="77.8155948031232" y="28.927516169763503" width="1" height="1"></rect><rect x="79.35201311219159" y="31.222157594740146" width="0.9807852804032304" height="0.9807852804032304"></rect><rect x="80.72328858033717" y="33.64839274286009" width="0.9238795325112867" height="0.9238795325112867"></rect><rect x="81.92004883174376" y="36.19034506107058" width="0.8314696123025452" height="0.8314696123025452"></rect><rect x="82.93342467973707" y="38.830851806283455" width="0.7071067811865475" height="0.7071067811865475"></rect><rect x="83.75516209740888" y="41.551627148533534" width="0.5555702330196022" height="0.5555702330196022"></rect><rect x="84.37775020464726" y="44.3334520074093" width="0.3826834323650898" height="0.3826834323650898"></rect><rect x="84.7945615196514" y="47.15638648851717" width="0.19509032201612825" height="0.19509032201612825"></rect><rect x="87" y="49.99999999999994" width="1.2246467991473532e-16" height="1.2246467991473532e-16"></rect><rect x="86.66899947856695" y="52.68604467237157" width="0.43388373911755823" height="0.43388373911755823"></rect><rect x="86.15355286078608" y="55.397159465254504" width="0.7818314824680299" height="0.7818314824680299"></rect><rect x="85.49022309862316" y="58.150014506577456" width="0.9749279121818236" height="0.9749279121818236"></rect><rect x="84.70162714682978" y="60.94616483578215" width="0.9749279121818236" height="0.9749279121818236"></rect><rect x="83.79262696168364" y="63.7683712562742" width="0.7818314824680298" height="0.7818314824680298"></rect><rect x="82.75029952541081" y="66.58070662080449" width="0.43388373911755823" height="0.43388373911755823"></rect><rect x="81.0778397707085" y="68.8626005840971" width="0.9396926207859083" height="0.9396926207859083"></rect><rect x="79.44122491536706" y="71.25565045831524" width="0.984807753012208" height="0.984807753012208"></rect><rect x="77.63502072720117" y="73.52957778821677" width="1" height="1"></rect><rect x="75.67054702739627" y="75.67054702739605" width="0.984807753012208" height="0.984807753012208"></rect><rect x="73.55973147782385" y="77.66517441680818" width="0.9396926207859084" height="0.9396926207859084"></rect><rect x="71.31504163292917" y="79.50061608998091" width="0.8660254037844387" height="0.8660254037844387"></rect><rect x="68.94942467293083" y="81.1646638595418" width="0.766044443118978" height="0.766044443118978"></rect><rect x="66.47625468552005" y="82.6458475901263" width="0.6427876096865395" height="0.6427876096865395"></rect><rect x="63.90928699750826" y="83.93354270291763" width="0.49999999999999994" height="0.49999999999999994"></rect><rect x="61.26261872021028" y="85.01808103125782" width="0.3420201433256689" height="0.3420201433256689"></rect><rect x="58.550654373834945" y="85.8908629658806" width="0.17364817766693072" height="0.17364817766693072"></rect><rect x="55.73807520648857" y="86.49446860202009" width="0.1" height="0.1"></rect><rect x="52.816162453096936" y="86.79911725929226" width="0.17364817766693033" height="0.17364817766693033"></rect><rect x="49.82898992833716" y="86.82898992833717" width="0.3420201433256687" height="0.3420201433256687"></rect><rect x="46.847013458069846" y="86.63594134812574" width="0.49999999999999994" height="0.49999999999999994"></rect><rect x="43.89053098866815" y="86.22307479717682" width="0.6427876096865393" height="0.6427876096865393"></rect><rect x="40.97949931577209" y="85.59466483315457" width="0.766044443118978" height="0.766044443118978"></rect><rect x="38.133358506234906" y="84.75607840102852" width="0.8660254037844386" height="0.8660254037844386"></rect><rect x="35.63076845171159" y="83.9735981521375" width="0.4198891015602647" height="0.4198891015602647"></rect><rect x="33.042700744568684" y="82.80759062990157" width="0.31930153013597995" height="0.31930153013597995"></rect><rect x="30.560067885404386" y="81.4402008609959" width="0.21497044021102416" height="0.21497044021102416"></rect><rect x="28.19788615596662" y="79.87956928266117" width="0.10811901842394163" height="0.10811901842394163"></rect><rect x="25.970422211783188" y="78.13502072720112" width="1.2246467991473532e-16" height="1.2246467991473532e-16"></rect><rect x="23.782989586885833" y="76.10889139469036" width="0.10811901842394192" height="0.10811901842394192"></rect><rect x="21.757494052693307" y="73.92209256811124" width="0.21497044021102427" height="0.21497044021102427"></rect><rect x="19.906720443058987" y="71.58840356975355" width="0.3193015301359802" height="0.3193015301359802"></rect><rect x="18.242369368118545" y="69.12250234371012" width="0.4198891015602648" height="0.4198891015602648"></rect><rect x="16.77498167644189" y="66.53987156177475" width="0.5155538571770221" height="0.5155538571770221"></rect><rect x="15.51387018948556" y="63.85669988991156" width="0.6051742151937651" height="0.6051742151937651"></rect><rect x="14.467059167652604" y="61.08977906244633" width="0.6876994588534235" height="0.6876994588534235"></rect><rect x="13.641231917722115" y="58.25639743510453" width="0.7621620551276365" height="0.7621620551276365"></rect><rect x="13.041686898901494" y="55.37423070741032" width="0.8276889981568906" height="0.8276889981568906"></rect><rect x="12.672302629651256" y="52.46123051970733" width="0.8835120444460229" height="0.8835120444460229"></rect><rect x="12.535511640091604" y="49.535511640091535" width="0.9289767198167914" height="0.9289767198167914"></rect><rect x="12.632283655614648" y="46.61523846181017" width="0.9635499925192229" height="0.9635499925192229"></rect><rect x="12.962118136709154" y="43.7185115322406" width="0.9868265225415261" height="0.9868265225415261"></rect><rect x="13.523046238360342" y="40.863254830406206" width="0.9985334138511239" height="0.9985334138511239"></rect><rect x="14.311642190153718" y="38.067104501201506" width="0.9985334138511238" height="0.9985334138511238"></rect><rect x="15.323044035811638" y="35.347299741220894" width="0.9868265225415261" height="0.9868265225415261"></rect><rect x="16.550983608770732" y="32.720576513377246" width="0.963549992519223" height="0.963549992519223"></rect><rect x="17.987825558990224" y="30.203064745601452" width="0.9289767198167913" height="0.9289767198167913"></rect><rect x="19.6246151859039" y="27.81018964295553" width="0.8835120444460229" height="0.8835120444460229"></rect><rect x="21.451134773720298" y="25.556577712704893" width="0.8276889981568905" height="0.8276889981568905"></rect><rect x="23.455968068533902" y="23.45596806853394" width="0.7621620551276365" height="0.7621620551276365"></rect><rect x="25.626572482356387" y="21.521129543372233" width="0.6876994588534233" height="0.6876994588534233"></rect><rect x="27.949358557581615" y="19.763784100530064" width="0.6051742151937651" height="0.6051742151937651"></rect><rect x="30.409776176921287" y="18.194536990310134" width="0.5155538571770217" height="0.5155538571770217"></rect><rect x="33.061485231215855" y="16.89189232660977" width="0.28173255684143006" height="0.28173255684143006"></rect><rect x="35.790713002491614" y="15.766457297082422" width="0.1" height="0.1"></rect><rect x="38.42550492970629" y="14.670042618658579" width="0.28173255684142967" height="0.28173255684142967"></rect><rect x="41.09220112860366" y="13.751992536558177" width="0.5406408174555976" height="0.5406408174555976"></rect><rect x="43.834050006334174" y="13.077656610802796" width="0.7557495743542583" height="0.7557495743542583"></rect><rect x="46.64219746039247" y="12.659242654197007" width="0.9096319953545183" height="0.9096319953545183"></rect><rect x="49.505089279059405" y="12.505089279059534" width="0.9898214418809327" height="0.9898214418809327"></rect><rect x="52.408075820989815" y="12.6191479309338" width="0.9898214418809328" height="0.9898214418809328"></rect><rect x="55.33325920881119" y="13.00071540030263" width="0.9096319953545184" height="0.9096319953545184"></rect><rect x="58.25960367549117" y="13.64443815810879" width="0.7557495743542584" height="0.7557495743542584"></rect><rect x="61.1633083831452" y="14.540588488351503" width="0.5406408174555974" height="0.5406408174555974"></rect><rect x="64.06174183650009" y="15.718912136074259" width="0.1950903220161286" height="0.1950903220161286"></rect><rect x="66.60630677418065" y="16.841416888847828" width="0.3826834323650899" height="0.3826834323650899"></rect><rect x="69.0546617779804" y="18.17452880238885" width="0.5555702330196022" height="0.5555702330196022"></rect><rect x="71.39450094422801" y="19.71281781753352" width="0.7071067811865476" height="0.7071067811865476"></rect><rect x="73.61384298206544" y="21.449244466647507" width="0.8314696123025453" height="0.8314696123025453"></rect><rect x="75.70101113764665" y="23.375109329842125" width="0.9238795325112867" height="0.9238795325112867"></rect><rect x="77.64462808699948" y="25.480029571581525" width="0.9807852804032304" height="0.9807852804032304"></rect><rect x="79.4336287918731" y="27.751945665178553" width="1" height="1"></rect><rect x="81.05729344089977" y="30.177160465308237" width="0.9807852804032304" height="0.9807852804032304"></rect><rect x="82.5053016287139" y="32.74041174338098" width="0.9238795325112867" height="0.9238795325112867"></rect><rect x="83.76780789676633" y="35.4249781963404" width="0.8314696123025452" height="0.8314696123025452"></rect><rect x="84.83553771232737" y="38.21281781753355" width="0.7071067811865475" height="0.7071067811865475"></rect><rect x="85.69990193820423" y="41.08473642082171" width="0.5555702330196022" height="0.5555702330196022"></rect><rect x="86.35312688583754" y="44.02058307732882" width="0.3826834323650898" height="0.3826834323650898"></rect><rect x="86.78839618711766" y="46.99946829706146" width="0.19509032201612825" height="0.19509032201612825"></rect><rect x="89" y="49.999999999999936" width="1.2246467991473532e-16" height="1.2246467991473532e-16"></rect><rect x="88.6628341460332" y="52.84296286382726" width="0.43388373911755823" height="0.43388373911755823"></rect><rect x="88.12892954197636" y="55.71002839533495" width="0.7818314824680299" height="0.7818314824680299"></rect><rect x="87.43496293941853" y="58.61690523428925" width="0.9749279121818236" height="0.9749279121818236"></rect><rect x="86.60374017942009" y="61.564198824532035" width="0.9749279121818236" height="0.9749279121818236"></rect><rect x="85.64038602670621" y="64.53373812100438" width="0.7818314824680298" height="0.7818314824680298"></rect><rect x="84.53231257378755" y="67.48868762028357" width="0.43388373911755823" height="0.43388373911755823"></rect><rect x="82.78312009941669" y="69.90759771352899" width="0.9396926207859083" height="0.9396926207859083"></rect><rect x="81.05925890411697" y="72.43122096290018" width="0.984807753012208" height="0.984807753012208"></rect><rect x="79.15583265840124" y="74.82847388487713" width="1" height="1"></rect><rect x="77.08476058976937" y="77.08476058976913" width="0.984807753012208" height="0.984807753012208"></rect><rect x="74.85862757448423" y="79.18598634800824" width="0.9396926207859084" height="0.9396926207859084"></rect><rect x="72.49061213751412" y="81.11865007873081" width="0.8660254037844387" height="0.8660254037844387"></rect><rect x="69.99442180236275" y="82.86994418824997" width="0.766044443118978" height="0.766044443118978"></rect><rect x="67.38423568499914" y="84.42786063850303" width="0.6427876096865395" height="0.6427876096865395"></rect><rect x="64.67465386223846" y="85.7813017679402" width="0.49999999999999994" height="0.49999999999999994"></rect><rect x="61.880652708960184" y="86.92019406384813" width="0.3420201433256689" height="0.3420201433256689"></rect><rect x="59.01754510154676" y="87.83560280667594" width="0.17364817766693072" height="0.17364817766693072"></rect><rect x="56.05094413656904" y="88.46984528321038" width="0.1" height="0.1"></rect><rect x="52.97308064455264" y="88.7929519267585" width="0.17364817766693033" height="0.17364817766693033"></rect><rect x="49.828989928337165" y="88.82898992833717" width="0.3420201433256687" height="0.3420201433256687"></rect><rect x="46.690095266614165" y="88.629776015592" width="0.49999999999999994" height="0.49999999999999994"></rect><rect x="43.57766205858769" y="88.1984514783671" width="0.6427876096865393" height="0.6427876096865393"></rect><rect x="40.51260858806029" y="87.53940467394992" width="0.766044443118978" height="0.766044443118978"></rect><rect x="37.515324517485034" y="86.65819143361882" width="0.8660254037844386" height="0.8660254037844386"></rect><rect x="34.86540158698142" y="85.82135721716007" width="0.4198891015602647" height="0.4198891015602647"></rect><rect x="32.1347197450896" y="84.58960367827831" width="0.31930153013597995" height="0.31930153013597995"></rect><rect x="29.5150707559725" y="83.14548118970409" width="0.21497044021102416" height="0.21497044021102416"></rect><rect x="27.02231565138169" y="81.49760327141107" width="0.10811901842394163" height="0.10811901842394163"></rect><rect x="24.671526115122823" y="79.6558326584012" width="1.2246467991473532e-16" height="1.2246467991473532e-16"></rect><rect x="22.368776024512748" y="77.52310495706347" width="0.10811901842394192" height="0.10811901842394192"></rect><rect x="20.236682121493246" y="75.22098866477161" width="0.21497044021102427" height="0.21497044021102427"></rect><rect x="18.2886864543091" y="72.7639740743385" width="0.3193015301359802" height="0.3193015301359802"></rect><rect x="16.537089039410372" y="70.16749947314203" width="0.4198891015602648" height="0.4198891015602648"></rect><rect x="14.992968628065158" y="67.44785256125384" width="0.5155538571770221" height="0.5155538571770221"></rect><rect x="13.666111124462995" y="64.62206675464176" width="0.6051742151937651" height="0.6051742151937651"></rect><rect x="12.564946135062304" y="61.70781305119623" width="0.6876994588534235" height="0.6876994588534235"></rect><rect x="11.696492076926758" y="58.723288162816345" width="0.7621620551276365" height="0.7621620551276365"></rect><rect x="11.066310217711218" y="55.6870996374908" width="0.8276889981568906" height="0.8276889981568906"></rect><rect x="10.678467962185003" y="52.61814871116303" width="0.8835120444460229" height="0.8835120444460229"></rect><rect x="10.535511640091604" y="49.53551164009182" width="0.9289767198167914" height="0.9289767198167914"></rect><rect x="10.638448988148395" y="46.45832027035449" width="0.9635499925192229" height="0.9635499925192229"></rect><rect x="10.986741455518878" y="43.405642602160135" width="0.9868265225415261" height="0.9868265225415261"></rect><rect x="11.578306397564985" y="40.39636410269441" width="0.9985334138511239" height="0.9985334138511239"></rect><rect x="12.40952915756341" y="37.44907051245163" width="0.9985334138511238" height="0.9985334138511238"></rect><rect x="13.475284970789058" y="34.581932876490725" width="0.9868265225415261" height="0.9868265225415261"></rect><rect x="14.768970560393994" y="31.812595513898156" width="0.963549992519223" height="0.963549992519223"></rect><rect x="16.28254523028204" y="29.15806761616956" width="0.9289767198167913" height="0.9289767198167913"></rect><rect x="18.006581197153995" y="26.634619138370596" width="0.8835120444460229" height="0.8835120444460229"></rect><rect x="19.930322842520226" y="24.25768161604454" width="0.8276889981568905" height="0.8276889981568905"></rect><rect x="22.0417545061608" y="22.041754506160856" width="0.7621620551276365" height="0.7621620551276365"></rect><rect x="24.327676385696005" y="20.000317612172186" width="0.6876994588534233" height="0.6876994588534233"></rect><rect x="26.77378805299666" y="18.14575011178017" width="0.6051742151937651" height="0.6051742151937651"></rect><rect x="29.364779047489375" y="16.489256661601956" width="0.5155538571770217" height="0.5155538571770217"></rect><rect x="32.15350423173674" y="15.109879278233047" width="0.28173255684143006" height="0.28173255684143006"></rect><rect x="35.02534613776142" y="13.91869823205985" width="0.1" height="0.1"></rect><rect x="37.80747094095639" y="12.767929586068279" width="0.28173255684142967" height="0.28173255684142967"></rect><rect x="40.625310400891834" y="11.807252695762827" width="0.5406408174555976" height="0.5406408174555976"></rect><rect x="43.52118107625369" y="11.102279929612527" width="0.7557495743542583" height="0.7557495743542583"></rect><rect x="46.485279268936765" y="10.665407986730747" width="0.9096319953545183" height="0.9096319953545183"></rect><rect x="49.50508927905939" y="10.505089279059534" width="0.9898214418809327" height="0.9898214418809327"></rect><rect x="52.564994012445496" y="10.62531326346754" width="0.9898214418809328" height="0.9898214418809328"></rect><rect x="55.64612813889164" y="11.025338719112353" width="0.9096319953545184" height="0.9096319953545184"></rect><rect x="58.726494403202956" y="11.699698317313432" width="0.7557495743542584" height="0.7557495743542584"></rect><rect x="61.78134237189508" y="12.638475455761188" width="0.5406408174555974" height="0.5406408174555974"></rect><rect x="64.82710870123024" y="13.87115307105168" width="0.1950903220161286" height="0.1950903220161286"></rect><rect x="67.51428777365975" y="15.059403840471088" width="0.3826834323650899" height="0.3826834323650899"></rect><rect x="70.09965890741229" y="16.46924847368067" width="0.5555702330196022" height="0.5555702330196022"></rect><rect x="72.57007144881294" y="18.094783828783612" width="0.7071067811865476" height="0.7071067811865476"></rect><rect x="74.91273907872579" y="19.92843253544744" width="0.8314696123025453" height="0.8314696123025453"></rect><rect x="77.11522470001974" y="21.960895767469022" width="0.9238795325112867" height="0.9238795325112867"></rect><rect x="79.16544001819953" y="24.18113347492115" width="0.9807852804032304" height="0.9807852804032304"></rect><rect x="81.05166278062299" y="26.5763751605936" width="1" height="1"></rect><rect x="82.76257376960795" y="29.132163335876328" width="0.9807852804032304" height="0.9807852804032304"></rect><rect x="84.28731467709063" y="31.83243074390187" width="0.9238795325112867" height="0.9238795325112867"></rect><rect x="85.61556696178889" y="34.65961133161021" width="0.8314696123025452" height="0.8314696123025452"></rect><rect x="86.73765074491766" y="37.59478382878363" width="0.7071067811865475" height="0.7071067811865475"></rect><rect x="87.64464177899958" y="40.6178456931099" width="0.5555702330196022" height="0.5555702330196022"></rect><rect x="88.32850356702781" y="43.707714147248346" width="0.3826834323650898" height="0.3826834323650898"></rect><rect x="88.7822308545839" y="46.84255010560575" width="0.19509032201612825" height="0.19509032201612825"></rect><rect x="91" y="49.99999999999992" width="1.2246467991473532e-16" height="1.2246467991473532e-16"></rect><rect x="90.6566688134995" y="52.99988105528266" width="0.43388373911755823" height="0.43388373911755823"></rect><rect x="90.10430622316665" y="56.02289732541541" width="0.7818314824680299" height="0.7818314824680299"></rect><rect x="89.37970278021388" y="59.08379596200104" width="0.9749279121818236" height="0.9749279121818236"></rect><rect x="88.5058532120104" y="62.18223281328192" width="0.9749279121818236" height="0.9749279121818236"></rect><rect x="87.4881450917288" y="65.29910498573454" width="0.7818314824680298" height="0.7818314824680298"></rect><rect x="86.31432562216442" y="68.39666861976241" width="0.43388373911755823" height="0.43388373911755823"></rect><rect x="84.48840042812488" y="70.95259484296086" width="0.9396926207859083" height="0.9396926207859083"></rect><rect x="82.67729289286687" y="73.60679146748511" width="0.984807753012208" height="0.984807753012208"></rect><rect x="80.67664458960112" y="76.1273699815377" width="1" height="1"></rect><rect x="78.49897415214248" y="78.49897415214221" width="0.984807753012208" height="0.984807753012208"></rect><rect x="76.15752367114482" y="80.70679827920812" width="0.9396926207859084" height="0.9396926207859084"></rect><rect x="73.66618264209906" y="82.73668406748071" width="0.8660254037844387" height="0.8660254037844387"></rect><rect x="71.03941893179466" y="84.57522451695814" width="0.766044443118978" height="0.766044443118978"></rect><rect x="68.29221668447799" y="86.20987368687989" width="0.6427876096865395" height="0.6427876096865395"></rect><rect x="65.44002072696864" y="87.62906083296278" width="0.49999999999999994" height="0.49999999999999994"></rect><rect x="62.49868669771037" y="88.82230709643835" width="0.3420201433256689" height="0.3420201433256689"></rect><rect x="59.48443582925857" y="89.7803426474713" width="0.17364817766693072" height="0.17364817766693072"></rect><rect x="56.36381306664951" y="90.44522196440064" width="0.1" height="0.1"></rect><rect x="53.129998836008056" y="90.78678659422478" width="0.17364817766693033" height="0.17364817766693033"></rect><rect x="49.82898992833717" y="90.82898992833717" width="0.3420201433256687" height="0.3420201433256687"></rect><rect x="46.53317707515849" y="90.62361068305825" width="0.49999999999999994" height="0.49999999999999994"></rect><rect x="43.26479312850724" y="90.17382815955737" width="0.6427876096865393" height="0.6427876096865393"></rect><rect x="40.04571786034849" y="89.48414451474528" width="0.766044443118978" height="0.766044443118978"></rect><rect x="36.89729052873488" y="88.56030446620905" width="0.8660254037844386" height="0.8660254037844386"></rect><rect x="34.10003472225125" y="87.66911628218264" width="0.4198891015602647" height="0.4198891015602647"></rect><rect x="31.226738745610763" y="86.37161672665518" width="0.31930153013597995" height="0.31930153013597995"></rect><rect x="28.47007362654061" y="84.85076151841228" width="0.21497044021102416" height="0.21497044021102416"></rect><rect x="25.846745146796756" y="83.11563726016097" width="0.10811901842394163" height="0.10811901842394163"></rect><rect x="23.372630018462466" y="81.17664458960127" width="1.2246467991473532e-16" height="1.2246467991473532e-16"></rect><rect x="20.954562462139666" y="78.93731851943657" width="0.10811901842394192" height="0.10811901842394192"></rect><rect x="18.715870190293376" y="76.5198847614322" width="0.21497044021102427" height="0.21497044021102427"></rect><rect x="16.67065246555921" y="73.93954457892347" width="0.3193015301359802" height="0.3193015301359802"></rect><rect x="14.831808710702195" y="71.21249660257395" width="0.4198891015602648" height="0.4198891015602648"></rect><rect x="13.210955579688298" y="68.35583356073269" width="0.5155538571770221" height="0.5155538571770221"></rect><rect x="11.81835205944043" y="65.38743361937196" width="0.6051742151937651" height="0.6051742151937651"></rect><rect x="10.662833102472081" y="62.32584703994642" width="0.6876994588534235" height="0.6876994588534235"></rect><rect x="9.751752236131408" y="59.19017889052816" width="0.7621620551276365" height="0.7621620551276365"></rect></g></g>
  <desc>Created with Snap</desc></svg>
