<svg width="100%" height="100%" viewBox="0 0 100 100" version="1.1" xmlns="http://www.w3.org/2000/svg" id="decent-logo-svg">
       <defs>
         <style type="text/css">
           @import url("https://fonts.googleapis.com/css?family=Dosis:400,700")
         </style>
         <style type="text/css">
           #text text {
             font-family: 'Dosis'
           }
         </style>
       </defs>
       <g id="svg-content"><circle cx="50" cy="50" r="25" id="shape"></circle><g textAlign="center" fill="undefined" stroke="rgba(0,0,0,0)" id="halftones" style="text-anchor: middle; stroke-width: 0;"><circle cx="75" cy="50" r="0.05"></circle><circle cx="74.98000266652446" cy="50.99973335466586" r="0.013999066685333156"></circle><circle cx="74.92004265756549" cy="51.99786734922932" r="0.02799253393064391"></circle><circle cx="74.82021589634665" cy="52.99280518222298" r="0.04197480453561121"></circle><circle cx="74.68068208439067" cy="53.98295516535615" r="0.05594028577842088"></circle><circle cx="74.50166444603104" cy="54.96673326987653" r="0.0698833916527797"></circle><circle cx="74.28344937130075" cy="55.94256566067836" r="0.08379854510224355"></circle><circle cx="74.02638595776926" cy="56.908891214102844" r="0.09768018025096555"></circle><circle cx="73.73088545206102" cy="57.86416401540294" r="0.11152274462997218"></circle><circle cx="73.39742059194838" cy="58.80685583187725" r="0.1253207013980769"></circle><circle cx="73.02652485007212" cy="59.735458557716264" r="0.13906853155654283"></circle><circle cx="72.61879158049908" cy="60.64848662664999" r="0.1527607361566085"></circle><circle cx="72.1748730694821" cy="61.54447938853707" r="0.1663918384989942"></circle><circle cx="71.69547949194124" cy="62.42200344609342" r="0.17995638632450858"></circle><circle cx="71.1813777753354" cy="63.279654948022085" r="0.19344895399487963"></circle><circle cx="70.63339037274196" cy="64.11606183487588" r="0.20686414466293768"></circle><circle cx="70.05239394710732" cy="64.9298860340598" r="0.22019659243128242"></circle><circle cx="69.4393179687732" cy="65.71982560046172" r="0.23344096449857007"></circle><circle cx="68.79514322852238" cy="66.48461679928683" r="0.24659196329256294"></circle><circle cx="68.12090026852263" cy="67.22303612776378" r="0.25964432858908787"></circle><circle cx="67.41766773367914" cy="67.93390227248807" r="0.2725928396160553"></circle><circle cx="66.6865706460327" cy="68.61607799927148" r="0.2854323171416991"></circle><circle cx="65.9287786049645" cy="69.26847197247423" r="0.29815762554619973"></circle><circle cx="65.14550391608657" cy="69.89004050090915" r="0.3107636748758638"></circle><circle cx="64.33799965181142" cy="70.47978920752496" r="0.32324542287903796"></circle><circle cx="63.507557646703496" cy="71.0367746201974" r="0.3355978770229421"></circle><circle cx="62.65550643081946" cy="71.56010568108346" r="0.3478160964906157"></circle><circle cx="61.783209104343506" cy="72.04894517212368" r="0.35989519415717913"></circle><circle cx="60.892061156917805" cy="72.50251105441262" r="0.37183033854461833"></circle><circle cx="59.98348823515683" cy="72.92007771929417" r="0.3836167557543115"></circle><circle cx="59.058943861916845" cy="73.30097714918065" r="0.39524973137652475"></circle><circle cx="58.11990711096941" cy="73.64459998623848" r="0.4067246123761135"></circle><circle cx="57.16788024079889" cy="73.95039650723062" r="0.41803680895367445"></circle><circle cx="56.204386291309326" cy="74.21787750295664" r="0.4291817963814036"></circle><circle cx="55.230966647285484" cy="74.4466150608829" r="0.44015511681292796"></circle><circle cx="54.249178572506025" cy="74.6362432497115" r="0.4509523810663837"></circle><circle cx="53.26059271845364" cy="74.78645870479215" r="0.46156927038003115"></circle><circle cx="52.26679061160774" cy="74.897021113441" r="0.4720015381397015"></circle><circle cx="51.26936212333948" cy="74.96775359938957" r="0.48224501157738586"></circle><circle cx="50.26990292645669" cy="74.99854300574916" r="0.49229559344028706"></circle><circle cx="49.27001194246778" cy="74.98934007603764" r="0.5021492636296658"></circle><circle cx="48.27128878364845" cy="74.94015953297934" r="0.511802080808827"></circle><circle cx="47.27533119400322" cy="74.8510800549519" r="0.5212501839796014"></circle><circle cx="46.283732493215915" cy="74.72224415011753" r="0.5304897940266937"></circle><circle cx="45.298079027678" cy="74.55385792844046" r="0.5395172152292784"></circle><circle cx="44.31994763267282" cy="74.34619077195488" r="0.5483288367392384"></circle><circle cx="43.350903109775494" cy="74.0995749038112" r="0.5569211340254562"></circle><circle cx="42.39249572350417" cy="73.81440485678988" r="0.5652906702835799"></circle><circle cx="41.446258721227544" cy="73.49113684213313" r="0.5734340978106988"></circle><circle cx="40.51370588029614" cy="73.13028801970421" r="0.5813481593443792"></circle><circle cx="39.59632908632144" cy="72.73243567064205" r="0.5890296893655275"></circle><circle cx="38.6955959464772" cy="72.2982162738345" r="0.5964756153645541"></circle><circle cx="37.812947441641015" cy="71.82832448768791" r="0.6036829590703369"></circle><circle cx="36.949795621132324" cy="71.32351203882192" r="0.6106488376414902"></circle><circle cx="36.10752134373469" cy="70.78458651946708" r="0.6173704648194631"></circle><circle cx="35.28747206861637" cy="70.21241009548976" r="0.6238451520430047"></circle><circle cx="34.490959699683" cy="69.6078981271105" r="0.6300703095235535"></circle><circle cx="33.719258486811356" cy="68.97201770452305" r="0.6360434472811182"></circle><circle cx="32.973602987321186" cy="68.30578610075628" r="0.6417621761402368"></circle><circle cx="32.25518609094699" cy="67.6102691442544" r="0.6472242086856141"></circle><circle cx="31.565157111468864" cy="66.88657951377877" r="0.6524273601770584"></circle><circle cx="30.904619948055647" cy="66.13587495835927" r="0.6573695494233472"></circle><circle cx="30.274631319261722" cy="65.3593564451428" r="0.6620487996146772"></circle><circle cx="29.67619907250275" cy="64.55826623810205" r="0.666463239113361"></circle><circle cx="29.11028057171481" cy="63.73388591067817" r="0.6706111022024575"></circle><circle cx="28.577781165776322" cy="62.88753429553661" r="0.6744907297920351"></circle><circle cx="28.07955274014297" cy="62.02056537471621" r="0.6781005700827856"></circle><circle cx="27.616392354012696" cy="61.134366113546776" r="0.6814391791867236"></circle><circle cx="27.189040965201052" cy="60.230354241800434" r="0.6845052217047214"></circle><circle cx="26.798182244766686" cy="59.309975985626394" r="0.6872974712606518"></circle><circle cx="26.444441483283548" cy="58.37470375389763" r="0.6898148109919221"></circle><circle cx="26.12838459050934" cy="57.426033782670814" r="0.6920562339962038"></circle><circle cx="25.85051719005063" cy="56.46548374152777" r="0.6940208437341805"></circle><circle cx="25.611283810472933" cy="55.49459030562792" r="0.6957078543881514"></circle><circle cx="25.41106717414984" cy="54.514906697355826" r="0.6971165911763479"></circle><circle cx="25.250187584988865" cy="53.52800020149668" r="0.6982464906228381"></circle><circle cx="25.128902416013513" cy="52.535449657915045" r="0.6990971007829081"></circle><circle cx="25.04740569762136" cy="51.53884293574784" r="0.6996680814238353"></circle><circle cx="25.005827807176793" cy="50.53977439315241" r="0.6999592041609763"></circle><circle cx="25.00423526043504" cy="49.539842326673664" r="0.699970352549118"></circle><circle cx="25.042630605131173" cy="48.54064641431051" r="0.6997015221290536"></circle><circle cx="25.12095241690424" cy="47.54378515637231" r="0.6991528204293668"></circle><circle cx="25.23907539756317" cy="46.55085331821933" r="0.6983244669234215"></circle><circle cx="25.39681057553714" cy="45.56343937897849" r="0.6972167929415757"></circle><circle cx="25.59390560818975" cy="44.58312299031551" r="0.6958302415386531"></circle><circle cx="25.830045185513473" cy="43.61147244932922" r="0.694165367316728"></circle><circle cx="26.10485153455834" cy="42.65004218961082" r="0.692222836203291"></circle><circle cx="26.417885023788106" cy="41.700370294481644" r="0.6900034251848874"></circle><circle cx="26.76864486639692" cy="40.76397603638807" r="0.6875080219963329"></circle><circle cx="27.15656992146138" cy="39.84235744638959" r="0.6847376247656313"></circle><circle cx="27.581039591646324" cy="38.93698891762869" r="0.6816933416147366"></circle><circle cx="28.041374816028146" cy="38.04931884661644" r="0.6783763902163195"></circle><circle cx="28.536839156447456" cy="37.180767316106916" r="0.6747880973067137"></circle><circle cx="29.066639975653" cy="36.33272382326782" r="0.6709298981552398"></circle><circle cx="29.629929705352186" cy="35.506545056781434" r="0.6668033359901167"></circle><circle cx="30.22580720213959" cy="34.70355272643202" r="0.6624100613811901"></circle><circle cx="30.853319189134066" cy="33.92503144865228" r="0.6577518315797274"></circle><circle cx="31.51146178101854" cy="33.172226691410955" r="0.6528305098155402"></circle><circle cx="32.19918209004224" cy="32.44634278172987" r="0.6476480645517179"></circle><circle cx="32.91537991041659" cy="31.748540979017513" r="0.6422065686972669"></circle><circle cx="33.6589094784097" cy="31.079937617301795" r="0.6365081987779772"></circle><circle cx="34.42858130532396" cy="30.44160231933368" r="0.630555234065839"></circle><circle cx="35.22316408042421" cy="29.834556285418987" r="0.6243500556673657"></circle><circle cx="36.04138664077223" cy="29.25977065971574" r="0.617895145571182"></circle><circle cx="36.88194000481634" cy="28.718164976610637" r="0.6111930856552614"></circle><circle cx="37.74347946648251" cy="28.210605689660294" r="0.6042465566542116"></circle><circle cx="38.62462674641736" cy="27.737904785450297" r="0.5970583370870134"></circle><circle cx="39.52397219694111" cy="27.300818484589865" r="0.589631302145652"></circle><circle cx="40.440077057182975" cy="26.90004603192031" r="0.5819684225450783"></circle><circle cx="41.37147575479192" cy="26.536228577872304" r="0.5740727633349618"></circle><circle cx="42.316678250539496" cy="26.209948152762106" r="0.5659474826737132"></circle><circle cx="43.274172422065" cy="25.92172673566709" r="0.5575958305652607"></circle><circle cx="44.24242648294853" cy="25.67202541937065" r="0.5490211475590938"></circle><circle cx="45.21989143324246" cy="25.461243672712115" r="0.5402268634140881"></circle><circle cx="46.20500353754111" cy="25.28971870152174" r="0.5312164957266454"></circle><circle cx="47.19618682662363" cy="25.157724909163388" r="0.5219936485237041"></circle><circle cx="48.19185561866864" cy="25.065473457547668" r="0.5125620108211759"></circle><circle cx="49.19041705600688" cy="25.0131119293179" r="0.5029253551483883"></circle><circle cx="50.1902736533537" cy="25.000724091749387" r="0.49308753603912336"></circle><circle cx="51.189825853444695" cy="25.028329762739645" r="0.48305248848985544"></circle><circle cx="52.18747458598616" cy="25.095884779103983" r="0.4728242263858056"></circle><circle cx="53.18162382582641" cy="25.203281067227184" r="0.4624068408954405"></circle><circle cx="54.17068314625554" cy="25.35034681595824" r="0.45180449883405954"></circle><circle cx="55.15307026334896" cy="25.536846751471536" r="0.44102144099712454"></circle><circle cx="56.127213567284045" cy="25.76248251365478" r="0.4300619804639982"></circle><circle cx="57.09155463658065" cy="26.026893133421538" r="0.4189305008727695"></circle><circle cx="58.04455073124305" cy="26.329655610184776" r="0.4076314546668573"></circle><circle cx="58.98467726081472" cy="26.670285588567552" r="0.3961693613140922"></circle><circle cx="59.910430223398066" cy="27.048238133268327" r="0.38454880549898857"></circle><circle cx="60.8203286117363" cy="27.46290860084113" r="0.3727744352889348"></circle><circle cx="61.71291678250941" cy="27.91363360699616" r="0.3608509602750251"></circle><circle cx="62.58676678505286" cy="28.39969208787314" r="0.348783149688287"></circle><circle cx="63.44048064577389" cy="28.92030645358957" r="0.33657583049205403"></circle><circle cx="64.27269260461132" cy="29.47464383221881" r="0.3242338854512419"></circle><circle cx="65.08207129996009" cy="30.061817402207392" r="0.3117622511793098"></circle><circle cx="65.86732189856585" cy="30.68088781110031" r="0.2991659161636811"></circle><circle cx="66.62718816698207" cy="31.330864678304692" r="0.2864499187704121"></circle><circle cx="67.36045448127538" cy="32.010708179487295" r="0.27361934522891684"></circle><circle cx="68.0659477717648" cy="32.71933071007182" r="0.260679327597539"></circle><circle cx="68.74253939968267" cy="33.45559862517406" r="0.24763504171080014"></circle><circle cx="69.38914696275624" cy="34.21833405319196" r="0.23449170510913356"></circle><circle cx="70.00473602682014" cy="35.00631678014891" r="0.22125457495193765"></circle><circle cx="70.58832178069055" cy="35.818286201775784" r="0.20792894591478267"></circle><circle cx="71.13897061165292" cy="36.65294334020889" r="0.19452014807161072"></circle><circle cx="71.6558015990432" cy="37.50895292207744" r="0.18103354476277758"></circle><circle cx="72.13798792353298" cy="38.38494551465607" r="0.1674745304497877"></circle><circle cx="72.58475818986398" cy="39.279519716665106" r="0.15384852855758185"></circle><circle cx="72.99539766091598" cy="40.191244400213655" r="0.14016098930523938"></circle><circle cx="73.36924940113373" cy="41.118661000298935" r="0.12641738752596304"></circle><circle cx="73.70571532748363" cy="42.06028584819911" r="0.11262322047721933"></circle><circle cx="74.00425716625915" cy="43.01461254502685" r="0.09878400564190705"></circle><circle cx="74.26439731420373" cy="43.98011437164602" r="0.08490527852144082"></circle><circle cx="74.48571960257428" cy="44.95524673109678" r="0.0709925904216213"></circle><circle cx="74.66786996292231" cy="45.938449619621146" r="0.05705150623218838"></circle><circle cx="74.81055699352791" cy="46.92815012233623" r="0.04308760220093951"></circle><circle cx="74.91355242558043" cy="47.92276492956259" r="0.02910646370330334"></circle><circle cx="74.97669148835976" cy="48.92070286978176" r="0.015113683008267481"></circle><circle cx="74.99987317283438" cy="49.92036745517153" r="0.0011148570415410906"></circle><circle cx="76.98170522471466" cy="50.9937721904973" r="0.15167255627116577"></circle><circle cx="76.92038245019877" cy="52.07195770589801" r="0.16530872448782793"></circle><circle cx="76.8159928064712" cy="53.146828530963305" r="0.1788787714187819"></circle><circle cx="76.66870329469332" cy="54.2166651016667" r="0.19237726922618684"></circle><circle cx="76.47874954666388" cy="55.279755907714645" r="0.20579881869089733"></circle><circle cx="76.2464354478584" cy="56.33440023059818" r="0.21913805137207915"></circle><circle cx="75.9721326512773" cy="57.378910864379336" r="0.23238963175451385"></circle><circle cx="75.6562799828803" cy="58.411616814861205" r="0.24554825938273386"></circle><circle cx="75.2993827395585" cy="59.43086597282186" r="0.25860867098113394"></circle><circle cx="74.90201188076725" cy="60.43502775703674" r="0.2715656425592112"></circle><circle cx="74.46480311511262" cy="61.422495722860916" r="0.28441399150109165"></circle><circle cx="73.98845588335345" cy="62.39169013219766" r="0.29714857863850774"></circle><circle cx="73.47373223944528" cy="63.34106048074242" r="0.3097643103063966"></circle><circle cx="72.92145563141645" cy="64.26908797845913" r="0.32225614038029865"></circle><circle cx="72.33250958402712" cy="65.17428797932004" r="0.3346190722947399"></circle><circle cx="71.70783628531794" cy="66.05521235642287" r="0.34684816104179134"></circle><circle cx="71.04843507931037" cy="66.9104518186847" r="0.35893851514900654"></circle><circle cx="70.35536086726924" cy="67.73863816540728" r="0.3708852986359452"></circle><circle cx="69.62972242008584" cy="68.53844647510624" r="0.38268373294850094"></circle><circle cx="68.87268060448112" cy="69.30859722510266" r="0.39432909887025885"></circle><circle cx="68.08544652586637" cy="70.04785833848663" r="0.40581673841012"></circle><circle cx="67.26927959083305" cy="70.7550471551774" r="0.4171420566654347"></circle><circle cx="66.42548549237087" cy="71.42903232392715" r="0.4283005236599033"></circle><circle cx="65.55541412103763" cy="72.06873561224165" r="0.43928767615550535"></circle><circle cx="64.66045740542208" cy="72.67313363132244" r="0.4500991194377362"></circle><circle cx="63.742047085355274" cy="73.24125947327035" r="0.4607305290734334"></circle><circle cx="62.80165242143231" cy="73.77220425793192" r="0.4711776526404932"></circle><circle cx="61.84077784450856" cy="74.26511858691391" r="0.4814363114287816"></circle><circle cx="60.860960548931466" cy="74.71921390243942" r="0.49150240211156376"></circle><circle cx="59.86376803335747" cy="75.13376374887206" r="0.5013718983867793"></circle><circle cx="58.85079559308838" cy="75.50810493489016" r="0.5110408525875096"></circle><circle cx="57.82366376793939" cy="75.84163859445125" r="0.5205053972609921"></circle><circle cx="56.78401574972088" cy="76.13383114485013" r="0.5297617467155497"></circle><circle cx="55.7335147534824" cy="76.38421514033722" r="0.5388061985348168"></circle><circle cx="54.6738413567229" cy="76.59239001993214" r="0.5476351350586568"></circle><circle cx="53.60669081082561" cy="76.75802274823583" r="0.5562450248301779"></circle><circle cx="52.533770329017386" cy="76.88084834821608" r="0.5646324240082683"></circle><circle cx="51.45679635519154" cy="76.96067032511434" r="0.5727939777450873"></circle><circle cx="50.37749181796407" cy="76.99736098079534" r="0.5807264215279595"></circle><circle cx="49.2975833743551" cy="76.9908616180369" r="0.5884265824851362"></circle><circle cx="48.21879864750629" cy="76.941182634433" r="0.5958913806549021"></circle><circle cx="47.14286346285215" cy="76.84840350575979" r="0.6031178302175183"></circle><circle cx="46.07149908716743" cy="76.71267265883131" r="0.6101030406895115"></circle><circle cx="45.0064194749078" cy="76.53420723404828" r="0.6168442180798277"></circle><circle cx="43.94932852624791" cy="76.31329273801974" r="0.623338666007392"></circle><circle cx="42.901917361204994" cy="76.05028258681347" r="0.6295837867796243"></circle><circle cx="41.865861614207226" cy="75.74559754056551" r="0.6355770824314837"></circle><circle cx="40.84281875343647" cy="75.39972503035388" r="0.6413161557246184"></circle><circle cx="39.8344254292324" cy="75.0132183784127" r="0.6467987111062314"></circle><circle cx="38.842294855801256" cy="74.58669591293472" r="0.6520225556272697"></circle><circle cx="37.86801423041735" cy="74.12083997887811" r="0.6569855998195754"></circle><circle cx="36.91314219424589" cy="73.61639584636006" r="0.6616858585316444"></circle><circle cx="35.979206338849494" cy="73.07417051838357" r="0.6661214517226611"></circle><circle cx="35.06770076236784" cy="72.49503143980488" r="0.6702906052144897"></circle><circle cx="34.18008367927913" cy="71.87990510960661" r="0.6741916514013215"></circle><circle cx="33.31777508756804" cy="71.22977559869709" r="0.6778230299166949"></circle><circle cx="32.48215449703199" cy="70.54568297560691" r="0.6811832882576216"></circle><circle cx="31.674558722359663" cy="69.82872164260107" r="0.6842710823655679"></circle><circle cx="30.896279744512583" cy="69.08003858486873" r="0.6870851771640608"></circle><circle cx="30.148562643831283" cy="68.30083153559174" r="0.6896244470527017"></circle><circle cx="29.43260360817241" cy="67.49234705982698" r="0.6918878763573914"></circle><circle cx="28.749548019263266" cy="66.6558785602682" r="0.6938745597365867"></circle><circle cx="28.100488620335316" cy="65.7927642080776" r="0.695583702543425"></circle><circle cx="27.486463767968203" cy="64.90438480209738" r="0.6970146211435717"></circle><circle cx="26.908455770940787" cy="63.992161559866375" r="0.6981667431886652"></circle><circle cx="26.36738931874646" cy="63.0575538439748" r="0.6990396078452491"></circle><circle cx="25.864130002287407" cy="62.10205682739579" r="0.6996328659790988"></circle><circle cx="25.399482929113724" cy="61.127199101527424" r="0.6999462802948705"></circle><circle cx="24.974191435423034" cy="60.134540230772494" r="0.699979725431017"></circle><circle cx="24.588935896881225" cy="59.12566825756822" r="0.6997331880099298"></circle><circle cx="24.244332640166522" cy="58.10219716185729" r="0.6992067666432898"></circle><circle cx="23.940932956978205" cy="57.06576427906389" r="0.6984006718926252"></circle><circle cx="23.67922222208758" cy="56.01802768070669" r="0.6973152261850885"></circle><circle cx="23.459619116841818" cy="54.960663521837745" r="0.69595086368449"></circle><circle cx="23.28247495936315" cy="53.89536335955235" r="0.6943081301176388"></circle><circle cx="23.148073142514807" cy="52.8238314468582" r="0.6923876825560589"></circle><circle cx="23.056628680532874" cy="51.74778200623428" r="0.6901902891531692"></circle><circle cx="23.008287865049425" cy="50.66893648724066" r="0.6877168288370327"></circle><circle cx="23.003128031057074" cy="49.589020812566346" r="0.684968290958797"></circle><circle cx="23.041157433189497" cy="48.50976261692104" r="0.6819457748969664"></circle><circle cx="23.122315232515792" cy="47.43288848318826" r="0.6786504896176662"></circle><circle cx="23.24647159386978" cy="46.36012118026117" r="0.6750837531910714"></circle><circle cx="23.41342789355857" cy="45.29317690697955" r="0.6712469922641969"></circle><circle cx="23.62291703711811" cy="44.233762546578056" r="0.6671417414902573"></circle><circle cx="23.87460388660732" cy="43.18357293603703" r="0.6627696429148262"></circle><circle cx="24.168085796757364" cy="42.144288154704796" r="0.65813244531904"></circle><circle cx="24.502893259118146" cy="41.11757083652917" r="0.6532320035201084"></circle><circle cx="24.878490653171664" cy="40.10506351019794" r="0.6480702776294126"></circle><circle cx="25.294277103210575" cy="39.10838597144322" r="0.642649332268487"></circle><circle cx="25.749587439611226" cy="38.12913269171379" r="0.6369713357431973"></circle><circle cx="26.243693262963074" cy="37.168870267360944" r="0.6310385591764485"></circle><circle cx="26.775804109352347" cy="36.229134913418676" r="0.6248533755997642"></circle><circle cx="27.345068714935785" cy="35.31143000598702" r="0.6184182590041073"></circle><circle cx="27.950576377781076" cy="34.4172236771513" r="0.6117357833503156"></circle><circle cx="28.591358414795717" cy="33.54794646628386" r="0.6048086215395522"></circle><circle cx="29.26638971141339" cy="32.70498903148612" r="0.5976395443441803"></circle><circle cx="29.974590361558498" cy="31.88969992483244" r="0.5902314192994917"></circle><circle cx="30.714827395265594" cy="31.103383434974358" r="0.5825872095567307"></circle><circle cx="31.485916591189525" cy="30.34729750055711" r="0.574709972697873"></circle><circle cx="32.28662437110704" cy="29.622651697786072" r="0.5666028595126337"></circle><circle cx="33.11566977337888" cy="28.930605305362747" r="0.5582691127381931"></circle><circle cx="33.971726502214935" cy="28.272265449886387" r="0.5497120657621463"></circle><circle cx="34.85342504946478" cy="27.648685334687375" r="0.5409351412891913"></circle><circle cx="35.75935488553854" cy="27.06086255492668" r="0.5319418499720926"></circle><circle cx="36.68806671595317" cy="26.509737501656435" r="0.522735789007469"></circle><circle cx="37.63807479989458" cy="25.99619185739482" r="0.5133206406969595"></circle><circle cx="38.6078593270861" cy="25.521047185622074" r="0.5037001709743554"></circle><circle cx="39.5958688491606" cy="25.08506361645422" r="0.4938782278992745"></circle><circle cx="40.600522761646786" cy="24.6889386305971" r="0.48385874011798863"></circle><circle cx="41.62021383259952" cy="24.333305943525886" r="0.47364571529202"></circle><circle cx="42.65331077382772" cy="24.01873449167566" r="0.4632432384951262"></circle><circle cx="43.69816085060763" cy="23.745727522264385" r="0.4526554705793283"></circle><circle cx="44.75309252570591" cy="23.51472178820474" r="0.44188664651062504"></circle><circle cx="45.81641813348251" cy="23.326086849392606" r="0.4309410736750606"></circle><circle cx="46.886436579795756" cy="23.18012448149011" r="0.41982313015583056"></circle><circle cx="47.9614360633898" cy="23.077068193148943" r="0.40853726298210524"></circle><circle cx="49.03969681441197" cy="23.01708285244626" r="0.3970879863502779"></circle><circle cx="50.11949384567737" cy="23.000264423131007" r="0.3854798798183465"></circle><circle cx="51.19909971228031" cy="23.02663981110234" r="0.3737175864741509"></circle><circle cx="52.276787275137934" cy="23.09616682136596" r="0.36180581107820037"></circle><circle cx="53.35083246404401" cy="23.20873422553707" r="0.34974931818183164"></circle><circle cx="54.419517035813804" cy="23.364161939782118" r="0.3375529302214523"></circle><circle cx="55.48113132310626" cy="23.56220131291443" r="0.3252215255896301"></circle><circle cx="56.5339769695274" cy="23.802535524183156" r="0.3127600366838012"></circle><circle cx="57.5763696466381" cy="24.084780090118837" r="0.300173447933377"></circle><circle cx="58.60664174852016" cy="24.408483479624934" r="0.2874667938060388"></circle><circle cx="59.62314505959019" cy="24.773127836331255" r="0.27464515679401785"></circle><circle cx="60.624253391393054" cy="25.178129807053757" r="0.2617136653811654"></circle><circle cx="61.608365184156156" cy="25.622841475035052" r="0.24867749199163006"></circle><circle cx="62.57390606894378" cy="26.106551396473154" r="0.23554185092095345"></circle><circle cx="63.519331386311364" cy="26.628485738679736" r="0.2223119962504243"></circle><circle cx="64.44312865743106" cy="27.187809518047292" r="0.208993219745516"></circle><circle cx="65.34382000373529" cy="27.783627935844862" r="0.195590848739248"></circle><circle cx="66.21996451120722" cy="28.414987809705135" r="0.18211024400132814"></circle><circle cx="67.07016053553583" cy="29.080879098512888" r="0.16855679759391165"></circle><circle cx="67.89304794444757" cy="29.780236518255208" r="0.1549359307148513"></circle><circle cx="68.68731029362823" cy="30.511941246248853" r="0.14125309152929044"></circle><circle cx="69.4516769327526" cy="31.274822711017663" r="0.12751375299046702"></circle><circle cx="70.18492503825439" cy="32.06766046495743" r="0.11372341065060813"></circle><circle cx="70.88588156958264" cy="32.889186136791494" r="0.09988758046278093"></circle><circle cx="71.55342514581665" cy="33.73808546069441" r="0.08601179657458526"></circle><circle cx="72.18648783963621" cy="34.613000378836865" r="0.07210160911456841"></circle><circle cx="72.78405688577729" cy="35.512531213988254" r="0.0581625819722477"></circle><circle cx="73.3451763012407" cy="36.43523890870209" r="0.04420029057262885"></circle><circle cx="73.86894841466082" cy="37.37964732750067" r="0.030220319646110303"></circle><circle cx="74.35453530238821" cy="38.344245618376895" r="0.01622826099466584"></circle><circle cx="74.80116012898893" cy="39.32749062983544" r="0.002229711255196818"></circle><circle cx="75.20810839001521" cy="40.327809379605625" r="0.011769730339044895"></circle><circle cx="75.57472905506047" cy="41.34360157107787" r="0.025764464198078613"></circle><circle cx="75.90043560926885" cy="42.37324215343649" r="0.039748892614954706"></circle><circle cx="76.18470699163399" cy="43.415083921394725" r="0.05371742200476299"></circle><circle cx="76.42708842858542" cy="44.46746015037159" r="0.0676644651419921"></circle><circle cx="76.62719216152932" cy="45.528687262895644" r="0.08158444339534526"></circle><circle cx="76.78469806717946" cy="46.59706752196984" r="0.09547178895911836"></circle><circle cx="76.89935416968632" cy="47.67089174708867" r="0.10932094708024803"></circle><circle cx="76.9709770437445" cy="48.748442048562275" r="0.1231263782801388"></circle><circle cx="76.99945210803428" cy="49.827994575773346" r="0.13688256057038065"></circle><circle cx="78.98360297952914" cy="50.975068369412966" r="0.2833949444316186"></circle><circle cx="78.92142685368569" cy="52.13332340420027" r="0.29613877800009786"></circle><circle cx="78.81298261445167" cy="53.28816557662563" r="0.30876416000584145"></circle><circle cx="78.65844374947633" cy="54.4377473855663" r="0.3212660404643833"></circle><circle cx="78.45805748797713" cy="55.58022974535891" r="0.33363941879022946"></circle><circle cx="78.21214440522564" cy="56.71378492794458" r="0.3458793457970258"></circle><circle cx="77.92109790969559" cy="57.83659948684326" r="0.3579809256771664"></circle><circle cx="77.58538361369327" cy="58.94687715828168" r="0.3699393179600516"></circle><circle cx="77.20553858847701" cy="60.04284173483223" r="0.3817497394482111"></circle><circle cx="76.78217050505793" cy="61.12273990696559" r="0.39340746613052013"></circle><circle cx="76.31595666205571" cy="62.18484406797254" r="0.40490783507173983"></circle><circle cx="75.80764290216553" cy="63.22745507776554" r="0.41624624627763"></circle><circle cx="75.2580424189688" cy="64.24890498114057" r="0.4274181645348851"></circle><circle cx="74.66803445599669" cy="65.24755967615015" r="0.4384191212251591"></circle><circle cx="74.03856290012834" cy="66.22182152831714" r="0.44924471611245326"></circle><circle cx="73.37063477157307" cy="67.17013192650947" r="0.4598906191031523"></circle><circle cx="72.66531861285277" cy="68.09097377638555" r="0.4703525719780032"></circle><circle cx="71.923742779362" cy="68.98287392742132" r="0.4806263900953469"></circle><circle cx="71.14709363424001" cy="69.84440552963694" r="0.49070796406491884"></circle><circle cx="70.33661365044254" cy="70.67419031625262" r="0.5005932613915505"></circle><circle cx="69.49359942305057" cy="71.47090080862101" r="0.5102783280881132"></circle><circle cx="68.61939959499452" cy="72.23326243991012" r="0.5197592902570611"></circle><circle cx="67.71541269951317" cy="72.96005559413844" r="0.5290323556399376"></circle><circle cx="66.78308492279906" cy="73.6501175573001" r="0.5380938151342289"></circle><circle cx="65.82390779040908" cy="74.30234437745936" r="0.5469400442769551"></circle><circle cx="64.83941578114133" cy="74.91569263083838" r="0.5555675046944071"></circle><circle cx="63.83118387219697" cy="75.48918109107231" r="0.5639727455174492"></circle><circle cx="62.80082501955226" cy="76.02189229896251" r="0.5721524047618208"></circle><circle cx="61.7499875775733" cy="76.51297403021535" r="0.5801032106728847"></circle><circle cx="60.680352662000644" cy="76.96164065881925" r="0.5878219830342858"></circle><circle cx="59.59363146052241" cy="77.36717441387903" r="0.5953056344399951"></circle><circle cx="58.49156249523957" cy="77.72892652789575" r="0.602551171529231"></circle><circle cx="57.37590884140111" cy="78.04631827465667" r="0.6095556961837637"></circle><circle cx="56.24845530685967" cy="78.31884189507363" r="0.6163164066871238"></circle><circle cx="55.11100557675995" cy="78.5460614094892" r="0.6228305988452517"></circle><circle cx="53.965379328027225" cy="78.72761331515123" r="0.6290956670681387"></circle><circle cx="52.81340931827203" cy="78.86320716773969" r="0.6351091054120287"></circle><circle cx="51.65693845376958" cy="78.95262604601558" r="0.6408685085817626"></circle><circle cx="50.4978168412025" cy="78.99572689884866" r="0.6463715728928632"></circle><circle cx="49.3378988278847" cy="78.99244077406874" r="0.6516160971929793"></circle><circle cx="48.17904003520158" cy="78.94277292877449" r="0.6565999837423172"></circle><circle cx="47.023094390011494" cy="78.84680282092313" r="0.6613212390527078"></circle><circle cx="45.87191115875795" cy="78.7046839822147" r="0.6657779746849761"></circle><circle cx="44.727331989038476" cy="78.51664377247405" r="0.6699684080042919"></circle><circle cx="43.591187963360625" cy="78.28298301592366" r="0.673890862893199"></circle><circle cx="42.46529666980108" cy="78.00407551992905" r="0.6775437704220405"></circle><circle cx="41.35145929425231" cy="77.68036747698673" r="0.6809256694765096"></circle><circle cx="40.251457738909004" cy="77.31237675091135" r="0.684035207342076"></circle><circle cx="39.16705177160535" cy="76.90069204836414" r="0.6868711402450535"></circle><circle cx="38.09997621056147" cy="76.44597197704779" r="0.6894323338500925"></circle><circle cx="37.0519381490443" cy="75.94894399207462" r="0.6917177637139003"></circle><circle cx="36.02461422438277" cy="75.41040323219362" r="0.6937265156950028"></circle><circle cx="35.0196479357057" cy="74.83121124773807" r="0.695457786319391"></circle><circle cx="34.0386470146934" cy="74.21229462232864" r="0.6969108831018983"></circle><circle cx="33.083180853550566" cy="73.55464349053753" r="0.698085224823186"></circle><circle cx="32.154777994313136" cy="72.8593099538842" r="0.6989803417622235"></circle><circle cx="31.25492368350711" cy="72.12740639769734" r="0.6995958758841695"></circle><circle cx="30.385057496071123" cy="71.36010371153577" r="0.6999315809835827"></circle><circle cx="29.546571032343603" cy="70.55862941601492" r="0.6999873227828989"></circle><circle cx="28.740805691798787" cy="69.72426569903541" r="0.6997630789861419"></circle><circle cx="27.96905052709422" cy="68.85834736455642" r="0.6992589392878403"></circle><circle cx="27.23254018186103" cy="67.96225969719364" r="0.698475105337152"></circle><circle cx="26.532452915537807" cy="67.03743624605974" r="0.6974118906572059"></circle><circle cx="25.869908718406744" cy="66.08535653139144" r="0.6960697205196983"></circle><circle cx="25.2459675198479" cy="65.10754367763253" r="0.6944491317747885"></circle><circle cx="24.66162749267865" cy="64.10556197676014" r="0.6925507726363672"></circle><circle cx="24.117823456290008" cy="63.081014385751146" r="0.6903754024227785"></circle><circle cx="23.61542538113473" cy="62.03553996219242" r="0.6879238912531033"></circle><circle cx="23.155236996960582" cy="60.97081124213912" r="0.6851972196991232"></circle><circle cx="22.737994507013962" cy="59.88853156441335" r="0.6821964783931045"></circle><circle cx="22.36436541027177" cy="58.79043234562536" r="0.6789228675915604"></circle><circle cx="22.034947433585522" cy="57.6782703102766" r="0.6753776966951638"></circle><circle cx="21.750267575445857" cy="56.553824680375136" r="0.671562383725005"></circle><circle cx="21.510781262897275" cy="55.41889432905967" r="0.667478454755402"></circle><circle cx="21.316871622952206" cy="54.2752949027869" r="0.6631275433034909"></circle><circle cx="21.16884886966936" cy="53.12485591668388" r="0.6585113896758411"></circle><circle cx="21.066949807877496" cy="51.969417827714544" r="0.6536318402723555"></circle><circle cx="21.011337454338175" cy="50.81082909034104" r="0.6484908468477364"></circle><circle cx="21.002100776953714" cy="49.650943199390525" r="0.6430904657308073"></circle><circle cx="21.039254552437555" cy="48.49161572485951" r="0.637432857002011"></circle><circle cx="21.12273934267463" cy="47.334701343397285" r="0.6315202836294056"></circle><circle cx="21.252421589809703" cy="46.18205087121885" r="0.6253551105635063"></circle><circle cx="21.428093829911433" cy="45.03550830319409" r="0.618939803791339"></circle><circle cx="21.649475024870377" cy="43.89690786284925" r="0.6122769293500756"></circle><circle cx="21.916211012000108" cy="42.76807106800019" r="0.6053691523006555"></circle><circle cx="22.227875070621845" cy="41.65080381671311" r="0.5982192356617965"></circle><circle cx="22.583968604726564" cy="40.54689349825247" r="0.5908300393048227"></circle><circle cx="22.98392194062228" cy="39.45810613363947" r="0.5832045188097561"></circle><circle cx="23.427095238290427" cy="38.386183550395124" r="0.5753457242831219"></circle><circle cx="23.912779514993257" cy="37.3328405959882" r="0.5672567991379485"></circle><circle cx="24.440197779495197" cy="36.299762394444485" r="0.5589409788364432"></circle><circle cx="25.008506275082937" cy="35.28860165050817" r="0.5504015895958503"></circle><circle cx="25.616795829396224" cy="34.30097600566677" r="0.5416420470580091"></circle><circle cx="26.26409330890973" cy="33.33846545026971" r="0.5326658549231423"></circle><circle cx="26.949363175738885" cy="32.40260979588117" r="0.523476603548423"></circle><circle cx="27.67150914427992" cy="31.494906211909523" r="0.5140779685118793"></circle><circle cx="28.429375935032834" cy="30.616806830455943" r="0.5044737091422122"></circle><circle cx="29.221751122801845" cy="29.769716423213104" r="0.49466766701511483"></circle><circle cx="30.047367076317823" cy="28.954990154129316" r="0.48466376441669234"></circle><circle cx="30.904902986176936" cy="28.173931411436335" r="0.47446600277460077"></circle><circle cx="31.792986977854728" cy="27.42778972250541" r="0.4640784610575279"></circle><circle cx="32.7101983064124" cy="26.717758754870367" r="0.4535052941436626"></circle><circle cx="33.65506962938542" cy="26.044974406614358" r="0.44275073115879643"></circle><circle cx="34.626089354218905" cy="25.41051298917485" r="0.43181907378473117"></circle><circle cx="35.62170405649295" cy="24.8153895054752" r="0.42071469453866306"></circle><circle cx="36.64032096507049" cy="24.260556026136367" r="0.40944203502423354"></circle><circle cx="37.68031051019096" cy="23.746900166367237" r="0.39800560415494907"></circle><circle cx="38.74000893043486" cy="23.275243665969313" r="0.3864099763506731"></circle><circle cx="39.817720934386756" cy="22.846341074728546" r="0.37465978970792085"></circle><circle cx="40.91172241273994" cy="22.460878545296573" r="0.3627597441446833"></circle><circle cx="42.02026319650369" cy="22.119472735492852" r="0.3507145995205196"></circle><circle cx="43.14156985689987" cy="21.822669821783762" r="0.3385291737326801"></circle><circle cx="44.273848542471285" cy="21.57094462551663" r="0.3262083407890096"></circle><circle cx="45.41528784886101" cy="21.364699853306956" r="0.31375702885840984"></circle><circle cx="46.5640617166726" cy="21.20426545279379" r="0.3011802182996385"></circle><circle cx="47.718332352776635" cy="21.089898084793713" r="0.2884829396692297"></circle><circle cx="48.87625317038632" cy="21.02178071269849" r="0.27567027170934116"></circle><circle cx="50.03597174320352" cy="21.00002230977253" r="0.2627473393163235"></circle><circle cx="51.19563276890526" cy="21.024657684818976" r="0.24971931149083043"></circle><circle cx="52.353381037231365" cy="21.095647426493016" r="0.23659139927028747"></circle><circle cx="53.50736439792575" cy="21.212877966351638" r="0.22336885364454628"></circle><circle cx="54.65573672378139" cy="21.37616176053894" r="0.210056963455559"></circle><circle cx="55.796660864049734" cy="21.585237589816202" r="0.19666105328191166"></circle><circle cx="56.92831158349064" cy="21.839770977457064" r="0.18318648130906423"></circle><circle cx="58.04887848235894" cy="22.13935472433886" r="0.16963863718614647"></circle><circle cx="59.15656889265796" cy="22.483509560374372" r="0.15602293987017288"></circle><circle cx="60.24961074602601" cy="22.871684911241758" r="0.14234483545852966"></circle><circle cx="61.326255408667336" cy="23.30325977918589" r="0.12860979501060824"></circle><circle cx="62.38478047879375" cy="23.77754373648248" r="0.11482331235945757"></circle><circle cx="63.423492542099694" cy="24.293778029975037" r="0.10099090191431961"></circle><circle cx="64.44072988086404" cy="24.85113679491814" r="0.08711809645494363"></circle><circle cx="65.43486513234367" cy="25.448728376184636" r="0.07321044491854513"></circle><circle cx="66.40430789220717" cy="26.08559675472395" r="0.05927351018030482"></circle><circle cx="67.34750725884226" cy="26.760723076988494" r="0.045312866828295946"></circle><circle cx="68.26295431446722" cy="27.473027284881724" r="0.031334098933718954"></circle><circle cx="69.14918453907833" cy="28.221369843621392" r="0.017342797817350885"></circle><circle cx="70.00478015336833" cy="29.00455356475122" r="0.0033445598130900974"></circle><circle cx="70.82837238687176" cy="29.821325521387745" r="0.010655015970502526"></circle><circle cx="71.61864366770541" cy="30.670379052635816" r="0.024650329889771783"></circle><circle cx="72.37432973040202" cy="31.550355853967048" r="0.03863578400575182"></circle><circle cx="73.09422163846577" cy="32.45984815021776" r="0.05260578432326647"></circle><circle cx="73.7771677184125" cy="33.39740094772863" r="0.06655474302845292"></circle><circle cx="74.4220754022017" cy="34.36151436202422" r="0.08047708072381272"></circle><circle cx="75.02791297511232" cy="35.350646017308314" r="0.09436722865989643"></circle><circle cx="75.59371122626604" cy="36.36321351393579" r="0.10821963096272916"></circle><circle cx="76.11856499915828" cy="37.39759695991499" r="0.12202874685608595"></circle><circle cx="76.60163463971524" cy="38.45214156238907" r="0.13578905287772855"></circle><circle cx="77.04214733956144" cy="39.52516027495168" r="0.14949504508871664"></circle><circle cx="77.43939837234805" cy="40.614936496560965" r="0.16314124127490995"></circle><circle cx="77.79275222116503" cy="41.719726817735655" r="0.1767221831397808"></circle><circle cx="78.10164359523245" cy="42.83776380963799" r="0.19023243848766014"></circle><circle cx="78.36557833424501" cy="43.96725885158248" r="0.20366660339654308"></circle><circle cx="78.58413419892348" cy="45.106404992448496" r="0.21701930437958591"></circle><circle cx="78.75696154650707" cy="46.25337984141523" r="0.23028520053442905"></circle><circle cx="78.88378389010752" cy="47.40634848339936" r="0.24345898567948687"></circle><circle cx="78.9643983410291" cy="48.56346641452735" r="0.2565353904763493"></circle><circle cx="78.99867593334712" cy="49.722882492947825" r="0.2695091845374476"></circle><circle cx="80.98563505989681" cy="50.94362065200671" r="0.4039979046664472"></circle><circle cx="80.92311509520853" cy="52.18196077152788" r="0.4153493800625234"></circle><circle cx="80.8111247429473" cy="53.41681021927475" r="0.42653472124449254"></circle><circle cx="80.64984316378674" cy="54.64619349955152" r="0.4375494542250176"></circle><circle cx="80.43952837384863" cy="55.86814386136399" r="0.44838917325776756"></circle><circle cx="80.1805168319321" cy="57.0807064448022" r="0.4590495425996571"></circle><circle cx="79.87322290125135" cy="58.28194140839888" r="0.4695262982450857"></circle><circle cx="79.5181381865429" cy="59.46992703246216" r="0.47981524963148336"></circle><circle cx="79.115830747603" cy="60.64276279341676" r="0.48991228131548"></circle><circle cx="78.66694419051288" cy="61.798572404236864" r="0.49981335461902693"></circle><circle cx="78.17219663800651" cy="62.93550681610483" r="0.5095145092448155"></circle><circle cx="77.63237958062751" cy="64.05174717649444" r="0.5190118648603423"></circle><circle cx="77.04835661051267" cy="65.14550773894806" r="0.528301622649991"></circle><circle cx="76.4210620398294" cy="66.21503871988858" r="0.5373800668345073"></circle><circle cx="75.75149940607503" cy="67.25862909790108" r="0.5462435661572619"></circle><circle cx="75.04073986663109" cy="68.27460935100153" r="0.554888575336704"></circle><circle cx="74.28992048514021" cy="69.26135412751569" r="0.5633116364844271"></circle><circle cx="73.50024241244647" cy="70.21728484629557" r="0.5715093804882782"></circle><circle cx="72.6729689650104" cy="71.14087222211221" r="0.5794785283599574"></circle><circle cx="71.80942360387255" cy="72.0306387121855" r="0.5872158925465699"></circle><circle cx="70.91098781739726" cy="72.88516087993841" r="0.5947183782056047"></circle><circle cx="69.97909891118702" cy="73.70307167219062" r="0.6019829844428299"></circle><circle cx="69.01524770869935" cy="74.48306260615293" r="0.6090068055126108"></circle><circle cx="68.02097616624751" cy="75.22388586272027" r="0.615787031980169"></circle><circle cx="66.99787490619963" cy="75.92435628271585" r="0.6223209518453194"></circle><circle cx="65.94758067232176" cy="76.58335326289348" r="0.6286059516272339"></circle><circle cx="64.87177371133728" cy="77.19982254866339" r="0.6346395174097983"></circle><circle cx="63.77217508489042" cy="77.77277792067484" r="0.6404192358471463"></circle><circle cx="62.65054391621515" cy="78.30130277255645" r="0.6459427951289647"></circle><circle cx="61.508674575912714" cy="78.78455157729125" r="0.6512079859051872"></circle><circle cx="60.34839381134168" cy="79.22175123987927" r="0.6562127021697051"></circle><circle cx="59.17155782421232" cy="79.61220233412452" r="0.6609549421027411"></circle><circle cx="57.98004930105866" cy="79.95528022156817" r="0.665432808871551"></circle><circle cx="56.77577440134314" cy="80.25043605077624" r="0.6696445113891315"></circle><circle cx="55.56065970800692" cy="80.49719763538526" r="0.6735883650306309"></circle><circle cx="54.33664914534859" cy="80.69517020949954" r="0.6772627923071763"></circle><circle cx="53.10570086916039" cy="80.8440370592323" r="0.6806663234968492"></circle><circle cx="51.8697841340955" cy="80.94356002938066" r="0.6837975972325532"></circle><circle cx="50.63087614328217" cy="80.99357990442275" r="0.686655361046544"></circle><circle cx="49.39095888521933" cy="80.99401666322883" r="0.6892384718713988"></circle><circle cx="48.15201596301819" cy="80.944869607078" r="0.6915458964972289"></circle><circle cx="46.91602942106075" cy="80.84621736077597" r="0.6935767119849491"></circle><circle cx="45.68497657415098" cy="80.69821774687212" r="0.6953301060354414"></circle><circle cx="44.46082684423334" cy="80.50110753317712" r="0.6968053773144641"></circle><circle cx="43.24553860973756" cy="80.25520205398493" r="0.6980019357331755"></circle><circle cx="42.041056072591395" cy="79.96089470560527" r="0.698919302684162"></circle><circle cx="40.8493061479116" cy="79.61865631701329" r="0.6995571112328747"></circle><circle cx="39.67219538135112" cy="79.22903439662376" r="0.6999151062643979"></circle><circle cx="38.51160689903322" cy="78.79265225639449" r="0.6999931445854924"></circle><circle cx="37.36939739495017" cy="78.3102080146598" r="0.6997911949818701"></circle><circle cx="36.247394160650444" cy="77.78247347929066" r="0.6993093382306801"></circle><circle cx="35.14739216196091" cy="77.21029291296622" r="0.6985477670681979"></circle><circle cx="34.07115116742478" cy="76.59458168253389" r="0.6975067861127344"></circle><circle cx="33.02039293304777" cy="75.9363247946178" r="0.6961868117427924"></circle><circle cx="31.99679844785471" cy="75.23657531981773" r="0.6945883719305203"></circle><circle cx="31.00200524466701" cy="74.49645270802162" r="0.6927121060305308"></circle><circle cx="30.037604780398443" cy="73.7171409975239" r="0.6905587645241673"></circle><circle cx="29.10513989006396" cy="72.89988692081695" r="0.6881292087193216"></circle><circle cx="28.20610231857303" cy="72.04599791008546" r="0.6854244104059221"></circle><circle cx="27.34193033425551" cy="71.15684000559321" r="0.6824454514672303"></circle><circle cx="26.514006427939435" cy="70.2338356703105" r="0.6791935234471032"></circle><circle cx="25.723655101260505" cy="69.27846151427661" r="0.6756699270733899"></circle><circle cx="24.972140747742248" cy="68.29224593233909" r="0.6718760717376596"></circle><circle cx="24.260665630035717" cy="67.2767666590475" r="0.6678134749314625"></circle><circle cx="23.590367956555923" cy="66.233648244615" r="0.6634837616393536"></circle><circle cx="22.962320060591388" cy="65.1645594559849" r="0.6588886636889213"></circle><circle cx="22.37752668479903" cy="64.07121060715852" r="0.6540300190580784"></circle><circle cx="21.836923373831013" cy="62.955350823058936" r="0.6489097711398962"></circle><circle cx="21.341374977662273" cy="61.81876524130325" r="0.6435299679652731"></circle><circle cx="20.89167426801529" cy="60.66327215636348" r="0.637892761383749"></circle><circle cx="20.48854067009458" cy="59.490720110683824" r="0.6320004062027947"></circle><circle cx="20.132619111659423" cy="58.30298493740583" r="0.6258552592859192"></circle><circle cx="19.82447899127751" cy="57.101966759436976" r="0.6194597786099548"></circle><circle cx="19.564613267408443" cy="55.88958694965868" r="0.6128165222819"></circle><circle cx="19.35343766977525" cy="54.667785057138914" r="0.6059281475157104"></circle><circle cx="19.191290034285817" cy="53.43851570426888" r="0.5987974095694488"></circle><circle cx="19.07842976256726" cy="52.20374545978291" r="0.5914271606432184"></circle><circle cx="19.015037406978745" cy="50.965449692668464" r="0.5838203487383212"></circle><circle cx="19.00121438176625" cy="49.72560941199748" r="0.575980016478096"></circle><circle cx="19.036982800821345" cy="48.48620809773376" r="0.5679092998909108"></circle><circle cx="19.12228544230374" cy="47.24922852758862" r="0.5596114271557925"></circle><circle cx="19.256985840183994" cy="46.01664960499927" r="0.5510897173111976"></circle><circle cx="19.44086850256003" cy="44.79044319330595" r="0.5423475789274436"></circle><circle cx="19.673639256398268" cy="43.57257096119048" r="0.5333885087433229"></circle><circle cx="19.954925718147678" cy="42.36498124442537" r="0.5242160902674572"></circle><circle cx="20.284277889474044" cy="41.16960592895205" r="0.514833992344939"></circle><circle cx="20.66116887716132" cy="39.988357360275366" r="0.5052459676898443"></circle><circle cx="21.084995736028265" cy="38.82312528411916" r="0.4954558513841972"></circle><circle cx="21.555080433512302" cy="37.67577382323558" r="0.4854675593439861"></circle><circle cx="22.07067093437689" cy="36.54813849520669" r="0.47528508675285197"></circle><circle cx="22.63094240380727" cy="35.44202327600827" r="0.4649125064640666"></circle><circle cx="23.234998526970767" cy="34.359197714031964" r="0.4543539673714464"></circle><circle cx="23.88187294292859" cy="33.30139409918677" r="0.44361369274984974"></circle><circle cx="24.57053079060778" cy="32.27030469160361" r="0.43269597856592357"></circle><circle cx="25.29987036435795" cy="31.267579014380512" r="0.4216051917597738"></circle><circle cx="26.068724876445124" cy="30.294821214697812" r="0.4103457684982477"></circle><circle cx="26.875864323663563" cy="29.353587497524313" r="0.39892221240052655"></circle><circle cx="27.719997455078293" cy="28.445383636021674" r="0.3873390927367365"></circle><circle cx="28.599773837751254" cy="27.571662562628408" r="0.3756010426003045"></circle><circle cx="29.51378601714563" cy="26.7338220446782" r="0.36371275705477946"></circle><circle cx="30.46057176875334" cy="25.93320244826992" r="0.3516789912558713"></circle><circle cx="31.438616437341995" cy="25.17108459396808" r="0.3395045585494517"></circle><circle cx="32.44635536008026" cy="24.448687707763092" r="0.32719432854627895"></circle><circle cx="33.48217636966468" cy="23.76716747056971" r="0.3147532251742208"></circle><circle cx="34.5444223734431" cy="23.127614169384334" r="0.3021862247087469"></circle><circle cx="35.631394004409955" cy="22.531050953058035" r="0.28949835378248495"></circle><circle cx="36.741352339830726" cy="21.97843219547686" r="0.27669468737463715"></circle><circle cx="37.872521683146914" cy="21.470641968767364" r="0.2637803467810525"></circle><circle cx="39.02309240471287" cy="21.008492628969293" r="0.25076049756577956"></circle><circle cx="40.191223836815794" cy="20.59272351643986" r="0.2376403474949096"></circle><circle cx="41.37504721835249" cy="20.22399977306638" r="0.2244251444535368"></circle><circle cx="42.57266868444813" cy="19.902911278181364" r="0.21112017434667854"></circle><circle cx="43.782172296235714" cy="19.62997170488145" r="0.19773075898497944"></circle><circle cx="45.001623105950145" cy="19.40561769825989" r="0.1842622539560613"></circle><circle cx="46.22907025243152" cy="19.230208176867638" r="0.17072004648235806"></circle><circle cx="47.462550082087006" cy="19.104023758520217" r="0.1571095532662988"></circle><circle cx="48.700089290317266" cy="19.02726631136909" r="0.14343621832369916"></circle><circle cx="49.939708078383525" cy="19.00005863095564" r="0.12970551080622741"></circle><circle cx="51.17942332066278" cy="19.02244424376454" r="0.11592292281381693"></circle><circle cx="52.417251737225854" cy="19.09438733759063" r="0.10209396719789929"></circle><circle cx="53.65121306666235" cy="19.21577281883084" r="0.08822417535633725"></circle><circle cx="54.87933323407599" cy="19.38640649660936" r="0.07431909502093931"></circle><circle cx="56.099647509184024" cy="19.606015393441663" r="0.06038428803844106"></circle><circle cx="57.3102036494662" cy="19.87424818194024" r="0.04642532814584085"></circle><circle cx="58.50906502333596" cy="20.190675746863356" r="0.03244779874097779"></circle><circle cx="59.69431370833899" cy="20.554791871608195" r="0.018457290649250523"></circle><circle cx="60.864053559418636" cy="20.96601404804908" r="0.004459399887356859"></circle><circle cx="62.01641324234416" cy="21.423684408426336" r="0.009540274575033515"></circle><circle cx="63.149549227446904" cy="21.92707077779466" r="0.023536133054795873"></circle><circle cx="64.2616487388732" cy="22.475367845346298" r="0.03752257739514724"></circle><circle cx="65.3509326546401" cy="23.067698452737016" r="0.05149401320483492"></circle><circle cx="66.41565835285066" cy="23.70311499735217" r="0.06544485209581834"></circle><circle cx="67.4541224995169" cy="24.380600948268558" r="0.07936951391854984"></circle><circle cx="68.46466377353147" cy="25.099072472487403" r="0.09326242899395998"></circle><circle cx="69.44566552442657" cy="25.857380168835704" r="0.10711804034125502"></circle><circle cx="70.39555835867" cy="26.654310906762976" r="0.12093080590063503"></circle><circle cx="71.31282265036005" cy="27.48858976709145" r="0.13469520075004407"></circle><circle cx="72.19599097230244" cy="28.358882081614443" r="0.14840571931506513"></circle><circle cx="73.04365044358136" cy="29.263795568281246" r="0.16205687757107673"></circle><circle cx="73.85444498986715" cy="30.201882558551112" r="0.17564321523678944"></circle><circle cx="74.62707751284606" cy="31.17164231335425" r="0.18915929795828573"></circle><circle cx="75.3603119653007" cy="32.17152342395384" r="0.20259971948268907"></circle><circle cx="76.05297532852221" cy="33.19992629386962" r="0.21595910382059294"></circle><circle cx="76.70395948888978" cy="34.255205697890716" r="0.22923210739638483"></circle><circle cx="77.31222301061591" cy="35.33567341408468" r="0.24241342118560555"></circle><circle cx="77.87679280182198" cy="36.43960092459347" r="0.2554977728384879"></circle><circle cx="78.39676567127705" cy="37.565222180891965" r="0.2684799287888263"></circle><circle cx="78.87130977331168" cy="38.7107364290899" r="0.281354696347334"></circle><circle cx="79.29966593859331" cy="39.87431109075361" r="0.29411692577864856"></circle><circle cx="79.68114888863516" cy="41.054084694640146" r="0.30676151236115845"></circle><circle cx="80.015148332096" cy="42.248169854655316" r="0.3192833984288228"></circle><circle cx="80.3011299411156" cy="43.45465628926736" r="0.33167757539417086"></circle><circle cx="80.53863620612573" cy="44.67161387755106" r="0.34393908575167"></circle><circle cx="80.72728716776768" cy="45.897095746969036" r="0.35606302506066173"></circle><circle cx="80.86678102474619" cy="47.12914138795219" r="0.3680445439070729"></circle><circle cx="80.95689461664719" cy="48.36577979029745" r="0.37987884984311643"></circle><circle cx="80.99748378094688" cy="49.60503259636318" r="0.3915612093042065"></circle><circle cx="82.98774058903709" cy="50.89942805737561" r="0.5087493979950771"></circle><circle cx="82.9253863859073" cy="52.21786639334067" r="0.5182631229667137"></circle><circle cx="82.81035858826789" cy="53.532756616195876" r="0.5275695495992466"></circle><circle cx="82.64284121605712" cy="54.841995182079714" r="0.5366649554461066"></circle><circle cx="82.42310226133536" cy="56.14348758857622" r="0.5455457024662254"></circle><circle cx="82.15149325955508" cy="57.43515172547168" r="0.5542082384792035"></circle><circle cx="81.82844872717894" cy="58.71492120568749" r="0.5626490985861345"></circle><circle cx="81.45448546654622" cy="59.98074867105835" r="0.5708649065555191"></circle><circle cx="81.03020173909941" cy="61.23060906766824" r="0.5788523761737121"></circle><circle cx="80.55627630829342" cy="62.46250288550524" r="0.5866083125593643"></circle><circle cx="80.03346735371865" cy="63.674459357251244" r="0.5941296134413327"></circle><circle cx="79.46261125817607" cy="64.86453961108774" r="0.6014132703995472"></circle><circle cx="78.84462126964223" cy="66.03083977247927" r="0.6084563700683384"></circle><circle cx="78.18048604026792" cy="67.17149400996503" r="0.6152560953017457"></circle><circle cx="77.47126804474564" cy="68.28467752009144" r="0.6218097263003377"></circle><circle cx="76.7181018805764" cy="69.36860944670886" r="0.6281146416990954"></circle><circle cx="75.92219245295593" cy="70.4215557299613" r="0.6341683196159235"></circle><circle cx="75.08481304718357" cy="71.44183188041191" r="0.6399683386603701"></circle><circle cx="74.20730329167712" cy="72.42780567386738" r="0.64551237890215"></circle><circle cx="73.29106701485335" cy="73.37789976258796" r="0.650798222799086"></circle><circle cx="72.33756999930154" cy="74.29059419870794" r="0.6558237560840964"></circle><circle cx="71.34833763684522" cy="75.1644288658268" r="0.6605869686108732"></circle><circle cx="70.324952488239" cy="75.99800581488563" r="0.6650859551579145"></circle><circle cx="69.26905175141003" cy="76.78999150058621" r="0.6693189161905871"></circle><circle cx="68.1823246422909" cy="77.53911891477904" r="0.6732841585809166"></circle><circle cx="67.06650969243306" cy="78.244189613407" r="0.6769800962848164"></circle><circle cx="65.92339196772846" cy="78.90407563375935" r="0.6804052509764831"></circle><circle cx="64.75480021268471" cy="79.51772129897157" r="0.6835582526397082"></circle><circle cx="63.562603924823506" cy="80.08414490688347" r="0.686437840115866"></circle><circle cx="62.34871036388367" cy="80.60244030055303" r="0.6890428616083599"></circle><circle cx="61.115061500612775" cy="81.07177831791408" r="0.6913722751433262"></circle><circle cx="59.86363091002757" cy="81.491408118259" r="0.6934251489864092"></circle><circle cx="58.59642061411523" cy="81.86065838342351" r="0.695200662015443"></circle><circle cx="57.315457879025686" cy="82.17893839175247" r="0.6966981040488892"></circle><circle cx="56.022791971877595" cy="82.44573896312869" r="0.6979168761299"></circle><circle cx="54.720490882367926" cy="82.66063327355245" r="0.6988564907658932"></circle><circle cx="53.41063801443116" cy="82.82327753796865" r="0.6995165721235423"></circle><circle cx="52.09532885323515" cy="82.93341156024988" r="0.6998968561791054"></circle><circle cx="50.77666761285351" cy="82.99085914945448" r="0.6999971908240303"></circle><circle cx="49.45676386997167" cy="82.99552840169456" r="0.6998175359257971"></circle><circle cx="48.13772918901368" cy="82.94741184716256" r="0.6993579633439696"></circle><circle cx="46.8216737440899" cy="82.84658646208145" r="0.6986186569014532"></circle><circle cx="45.51070294316892" cy="82.69321354555908" r="0.6975999123109673"></circle><circle cx="44.20691405987324" cy="82.48753846154408" r="0.6963021370567652"></circle><circle cx="42.91239287828923" cy="82.22989024629582" r="0.6947258502316451"></circle><circle cx="41.629210356157856" cy="81.92068108199675" r="0.6928716823293202"></circle><circle cx="40.35941931178352" cy="81.56040563734864" r="0.6907403749922294"></circle><circle cx="39.10505113996247" cy="81.14964027620812" r="0.6883327807148907"></circle><circle cx="37.868112562186006" cy="80.68904213552797" r="0.685649862502914"></circle></g></g>
  <desc>Created with Snap</desc></svg>
