<svg width="100%" height="100%" viewBox="0 0 100 100" version="1.1" xmlns="http://www.w3.org/2000/svg" id="decent-logo-svg">
       <defs>
         <style type="text/css">
           @import url("https://fonts.googleapis.com/css?family=Dosis:400,700")
         </style>
         <style type="text/css">
           #text text {
             font-family: 'Dosis'
           }
         </style>
       </defs>
       <g id="svg-content"><circle cx="50" cy="50" r="25" id="shape"></circle><g textAlign="center" fill="undefined" stroke="rgba(0,0,0,0)" id="halftones" style="text-anchor: middle; stroke-width: 0;"><circle cx="28.700507662690313" cy="13.289229394515154" r="0.6398451986085947"></circle><circle cx="67.55081741861271" cy="18.66333613065328" r="0.5096157984490021"></circle><circle cx="32.810498473174334" cy="81.07253109838213" r="0.8178847805975199"></circle><circle cx="40.681744908575176" cy="10.35881364835521" r="0.6706294057466533"></circle><circle cx="53.97257020547717" cy="10.501725656856593" r="0.586567499689544"></circle><circle cx="41.31988839172686" cy="16.164818602862624" r="0.6592990781822068"></circle><circle cx="87.26294066104165" cy="49.17134350005786" r="0.7943765300252597"></circle><circle cx="24.002232105896436" cy="18.34601391747767" r="0.3883448924954627"></circle><circle cx="72.51676466806612" cy="77.35043321283449" r="0.546646700188686"></circle><circle cx="70.77647430451078" cy="77.95401820003681" r="0.571092253138707"></circle><circle cx="14.011983194092572" cy="51.59586898880615" r="0.5014147751638522"></circle><circle cx="13.326221894055593" cy="45.9907033090643" r="0.5112027265310524"></circle><circle cx="89.61238880165533" cy="52.97052071611733" r="0.5067725783515432"></circle><circle cx="82.7171969729099" cy="36.29999138807075" r="0.6432045824389431"></circle><circle cx="15.83635192309088" cy="55.54654220116639" r="0.6062204412915234"></circle><circle cx="83.60575652068502" cy="39.39197452050485" r="0.7502949169296085"></circle><circle cx="83.25216037069444" cy="62.263554030271536" r="0.7083967609482004"></circle><circle cx="20.259192358911296" cy="73.05189765762644" r="0.7906938749858684"></circle><circle cx="84.21911294319182" cy="64.77807560500814" r="0.7015418166659105"></circle><circle cx="82.49368977001754" cy="33.283561534679166" r="0.5363107002296952"></circle><circle cx="12.452223468986013" cy="81.57558532654932" r="0.367896079382392"></circle><circle cx="36.696508345360186" cy="93.05391350446789" r="0.5848028608641929"></circle><circle cx="33.87540129078128" cy="16.231951457189034" r="0.5607706710597855"></circle><circle cx="17.872455557115295" cy="23.374860337955194" r="0.4451642637697241"></circle><circle cx="82.12811294074373" cy="66.80444357819579" r="0.5966456768336936"></circle><circle cx="20.891205057424862" cy="78.46598951437049" r="0.6323654197691029"></circle><circle cx="68.2682634630049" cy="80.73972823057389" r="0.6421355232767513"></circle><circle cx="26.482870619319165" cy="78.92579142367265" r="0.5081450854024318"></circle><circle cx="25.614063565481914" cy="74.78231231589047" r="0.5898776002790348"></circle><circle cx="79.41218413367844" cy="73.68184305660914" r="0.6104228139988794"></circle><circle cx="21.28759681019002" cy="30.22593779358452" r="0.6337868871759672"></circle><circle cx="86.29128358394006" cy="64.1426169766079" r="0.8193520403819106"></circle><circle cx="59.5868474713202" cy="10.92997812956294" r="0.600783094579619"></circle><circle cx="56.999716300932086" cy="85.0473997785602" r="0.6341709525967005"></circle><circle cx="84.64650125168845" cy="47.62137720064717" r="0.8251327596481709"></circle><circle cx="44.37541895104885" cy="85.09807816414552" r="0.6662668686332448"></circle><circle cx="27.285546843198862" cy="17.68269795317957" r="0.4935685727774784"></circle><circle cx="13.927800833422424" cy="62.72676918651691" r="0.45859679648744406"></circle><circle cx="25.137412991905983" cy="24.806190700605555" r="0.544483109785723"></circle><circle cx="62.34158583480577" cy="14.185871724917838" r="0.44631996421688935"></circle><circle cx="14.483789754904272" cy="79.20564153794625" r="0.35868070070983565"></circle><circle cx="87.48678216434416" cy="32.03104617286523" r="0.6958924392717896"></circle><circle cx="85.34353453623115" cy="44.58623820063447" r="0.7307105133508464"></circle><circle cx="85.81475978597217" cy="62.34212485397054" r="0.47406657131545904"></circle><circle cx="89.7212466943705" cy="44.38659271807105" r="0.4255266834097042"></circle><circle cx="71.53512523860456" cy="79.98790391541763" r="0.8455401476807356"></circle><circle cx="37.33077904388771" cy="16.039474082768727" r="0.5528461109743278"></circle><circle cx="43.6064695890176" cy="14.816331121490457" r="0.5192285902185272"></circle><circle cx="15.971624559270602" cy="75.88269222202675" r="0.5005107538624863"></circle><circle cx="14.461195962201622" cy="29.41811311662653" r="0.4789137413101512"></circle><circle cx="17.232195518579765" cy="61.58991376908833" r="0.633509458407647"></circle><circle cx="28.038982277739912" cy="77.59311791207146" r="0.7148479576802783"></circle><circle cx="33.691273696928974" cy="88.06351441021395" r="0.428786355641684"></circle><circle cx="47.04640829170053" cy="88.98179885651072" r="0.4646482651506627"></circle><circle cx="21.53100752320877" cy="25.51367675210451" r="0.502808636685998"></circle><circle cx="91.01254569658985" cy="27.84638319603185" r="0.5671439950081225"></circle><circle cx="13.349881034919541" cy="32.37782758307698" r="0.6742687720848173"></circle><circle cx="84.86725585829083" cy="36.5263380482196" r="0.643426103051665"></circle><circle cx="43.95256987853908" cy="89.97925103062335" r="0.4000279801588774"></circle><circle cx="13.264056670257972" cy="47.18327822034421" r="0.5139688758054778"></circle><circle cx="14.609804402986441" cy="54.85410307215324" r="0.5892562017582618"></circle><circle cx="62.52854047464487" cy="10.191434371005975" r="0.49548000044648116"></circle><circle cx="58.338876833971696" cy="6.8380951895321616" r="0.5896338951421343"></circle><circle cx="81.31533522829314" cy="25.4234275463491" r="0.39956425374679755"></circle><circle cx="58.61151600869282" cy="93.26109127251172" r="0.37821673662177435"></circle><circle cx="12.260772018736283" cy="38.55875062770884" r="0.4358851827349842"></circle><circle cx="76.2390436300862" cy="25.700469081267297" r="0.9320813282807026"></circle><circle cx="16.129026499410493" cy="39.462560720330046" r="0.8745741326117795"></circle><circle cx="89.17100475951335" cy="76.02979309885342" r="0.33506011619097165"></circle><circle cx="82.56190158555793" cy="27.150279341229716" r="0.41066099562031594"></circle><circle cx="36.17116990045467" cy="18.156989264651823" r="0.7466643895194957"></circle><circle cx="62.83427636469604" cy="82.35440931071017" r="0.9526308270633386"></circle><circle cx="28.654068721057634" cy="17.479603214226174" r="0.4924077961576641"></circle><circle cx="61.365620349035524" cy="88.72270905316623" r="0.4684783032910176"></circle><circle cx="85.54712460088217" cy="23.589420396893043" r="0.4751760095823396"></circle><circle cx="22.54069412727824" cy="21.850805088373956" r="0.7663717936582932"></circle><circle cx="39.82017098145804" cy="12.034267127374484" r="0.7574412608116735"></circle><circle cx="46.84758137256104" cy="14.826022070640533" r="0.6883584780310762"></circle><circle cx="11.606523961773412" cy="60.76074104353773" r="0.40781071060606655"></circle><circle cx="54.91110802987241" cy="86.80283357179178" r="0.8267579544283836"></circle><circle cx="91.80226089179666" cy="41.9223261705514" r="0.6774678455924584"></circle><circle cx="57.969301433634" cy="14.85498638636821" r="0.9140522668100645"></circle><circle cx="15.895912475967243" cy="58.61075247275758" r="0.5536389487014951"></circle><circle cx="68.56346013177433" cy="20.638876661723618" r="0.6746321401825939"></circle><circle cx="45.89546473556996" cy="87.85436095383699" r="0.8211409905578633"></circle><circle cx="41.023796768661555" cy="83.67967708615603" r="0.9963270611964848"></circle><circle cx="49.3115871930923" cy="8.67608011384192" r="0.5531311815009051"></circle><circle cx="53.92848898776683" cy="12.051400669011286" r="0.4298508290422869"></circle><circle cx="10.921473031936571" cy="56.1370234363693" r="0.548848830659536"></circle><circle cx="33.493482299719574" cy="10.323119252418174" r="0.3586462271245053"></circle><circle cx="69.93739230616227" cy="20.15867992811423" r="0.5223977873029707"></circle><circle cx="15.51500387958692" cy="62.22006561065601" r="0.7997216287671214"></circle><circle cx="75.19158298349782" cy="18.059802943400072" r="0.45635910621386533"></circle><circle cx="91.8004564066724" cy="68.80537520389062" r="0.4131851599424217"></circle><circle cx="91.12500200647789" cy="32.95763844420091" r="0.5430965912088668"></circle><circle cx="62.03657538645356" cy="15.215979988093281" r="0.795801891141637"></circle><circle cx="56.053536648852315" cy="13.908029660961986" r="0.7880988438421014"></circle><circle cx="72.07062381867311" cy="22.86463025833195" r="0.8149495019678088"></circle><circle cx="12.521906854113439" cy="43.33433297086799" r="0.5148683637324246"></circle><circle cx="82.10510877375236" cy="24.574638928781248" r="0.6671691371516177"></circle><circle cx="78.5330196418785" cy="75.17167044813854" r="0.8525577649865748"></circle><circle cx="40.48144964371726" cy="86.33281076872356" r="0.5694062302152263"></circle><circle cx="6.866948174827513" cy="57.167831910625516" r="0.3836472332209624"></circle><circle cx="49.681682762545144" cy="86.6153530581557" r="0.7884768334210623"></circle><circle cx="82.21499949265001" cy="31.714378871404215" r="0.571806788269396"></circle><circle cx="14.870476046541768" cy="44.58121204210153" r="0.5435966644619084"></circle><circle cx="24.058960222328853" cy="27.020144675916633" r="0.6018104113998853"></circle><circle cx="23.025256149199805" cy="72.67810356093486" r="0.5754831765821601"></circle><circle cx="11.605290944540158" cy="39.95539043222417" r="0.4060601739318967"></circle><circle cx="14.873978841138253" cy="35.343667397632196" r="0.6670469460782258"></circle><circle cx="39.2386135564809" cy="14.417381268075758" r="0.6369225675641226"></circle><circle cx="84.65779455119068" cy="50.55321528079129" r="0.533404513689082"></circle><circle cx="79.16477424983444" cy="25.963516280380404" r="0.5608210402679179"></circle><circle cx="31.51109092769221" cy="19.84960318090134" r="0.6144245273975887"></circle><circle cx="54.774436225963946" cy="8.276749032617808" r="0.5095593531365592"></circle><circle cx="49.35527102004217" cy="14.84154694387989" r="0.7693609083620668"></circle><circle cx="60.15204413146145" cy="87.88260774983462" r="0.4268696424428806"></circle><circle cx="41.547508813116345" cy="14.826157514578071" r="0.5591392495393481"></circle><circle cx="3.920457270760693" cy="55.35457909399759" r="0.4547335829488433"></circle><circle cx="81.46896250567518" cy="70.05331597659509" r="0.7444635868842929"></circle><circle cx="73.7202559490764" cy="15.054592262790806" r="0.5476083234601872"></circle><circle cx="46.55006633209383" cy="7.454379459978178" r="0.46160142213615046"></circle><circle cx="20.54255314799287" cy="17.007345480081938" r="0.5994999579710315"></circle><circle cx="31.824657805599355" cy="93.92202016698222" r="0.4888222116107892"></circle><circle cx="75.49103250914946" cy="23.333815965346613" r="0.48052963693018524"></circle><circle cx="17.64685137496597" cy="68.90477855472206" r="0.4529581461235637"></circle><circle cx="10.173146765406152" cy="57.5743608736051" r="0.6713525515277896"></circle><circle cx="59.46255651719222" cy="85.68222545855812" r="0.791810747579022"></circle><circle cx="43.851355683145286" cy="6.156683240680856" r="0.6299756723832963"></circle><circle cx="98.05967534640703" cy="54.291473600126714" r="0.39793486670978145"></circle><circle cx="37.143979844883916" cy="82.11907686886804" r="0.5553699427057616"></circle><circle cx="33.07736606250238" cy="17.449452960935517" r="0.5012035366785367"></circle><circle cx="10.825010538894858" cy="45.93608114400233" r="0.45862582086078735"></circle><circle cx="80.05209865708355" cy="30.95887190038355" r="0.49781316406708054"></circle><circle cx="14.124812053548851" cy="52.78379424018409" r="0.6343486588273886"></circle><circle cx="27.34654779115201" cy="20.491589238634717" r="0.7213837658689172"></circle><circle cx="88.67184243465908" cy="41.621668991339135" r="0.48942170001312785"></circle><circle cx="88.80676233901352" cy="51.215005285172694" r="0.4612016029004576"></circle><circle cx="16.315942121741152" cy="31.822287705355354" r="0.43222589305186204"></circle><circle cx="90.92965050857312" cy="37.49949456191756" r="0.3580154225360675"></circle><circle cx="10.443405373088652" cy="42.56267213007529" r="0.3938068608855579"></circle><circle cx="14.735761039831623" cy="24.487807253191647" r="0.35783039391697014"></circle><circle cx="46.341263551816304" cy="84.59638951373665" r="0.5211571949390916"></circle><circle cx="45.64796753136892" cy="11.516687262023453" r="0.5601698041553923"></circle><circle cx="16.95256184867798" cy="73.21774690500041" r="0.5709901588075177"></circle><circle cx="34.99487524205246" cy="86.88591419065563" r="0.5508105326962777"></circle><circle cx="85.98557155267977" cy="56.84772233531656" r="0.7245508489842372"></circle><circle cx="73.28975858964183" cy="80.10954550580543" r="0.742977408111425"></circle><circle cx="7.177023732133016" cy="62.582022658798735" r="0.33978378285248445"></circle><circle cx="64.68636208284784" cy="17.611212405730072" r="0.515047595528119"></circle><circle cx="60.10496700269491" cy="15.86063771942785" r="0.548279641715586"></circle><circle cx="81.28039056887638" cy="71.93553418047458" r="0.6402594214478651"></circle><circle cx="80.85235092443362" cy="33.80193964002976" r="0.6322784286296291"></circle><circle cx="56.98386120842326" cy="91.0875311720597" r="0.4497659021290794"></circle><circle cx="43.89092561619646" cy="1.7546476801189854" r="0.44845390131061774"></circle><circle cx="63.97076658836451" cy="7.168675019981876" r="0.4819274893654527"></circle><circle cx="90.70614361902469" cy="63.83522976849959" r="0.3682882974148053"></circle><circle cx="12.606932139231482" cy="37.44021623272614" r="0.41463569694616537"></circle><circle cx="27.149407730463704" cy="23.67395257817566" r="0.5528262681687723"></circle><circle cx="30.439549177890513" cy="86.15704315060512" r="0.4045830764035641"></circle><circle cx="49.34781903237959" cy="5.957352293868105" r="0.3570601153232464"></circle><circle cx="75.0275162754331" cy="75.92935043785037" r="0.850902936140149"></circle><circle cx="13.100125589148142" cy="69.60758878330657" r="0.6375787256787611"></circle><circle cx="30.290841776964225" cy="78.64766368882421" r="0.9809185290475818"></circle><circle cx="8.071480192439324" cy="45.24787301692551" r="0.42074229293193327"></circle><circle cx="90.25147760717587" cy="49.852198528132256" r="0.4626838394204048"></circle><circle cx="19.99776839959039" cy="30.62042219551345" r="0.7366503659397279"></circle><circle cx="82.26507286402739" cy="64.31827605795928" r="0.7442820962908993"></circle><circle cx="23.90451365474233" cy="24.49354684405384" r="0.5935170631791848"></circle><circle cx="55.49729219550335" cy="1.5917433556767264" r="0.33443009218031716"></circle><circle cx="77.27394201019706" cy="71.37368408746616" r="0.5610397453220057"></circle><circle cx="83.88486459272642" cy="72.18783383807191" r="0.5075548141498855"></circle><circle cx="11.78060050215177" cy="51.56820122223818" r="0.7047178168198522"></circle><circle cx="19.741901242839866" cy="32.33914262884098" r="0.8823493176207985"></circle><circle cx="76.03904157588396" cy="73.37757319908982" r="0.5174013523063524"></circle><circle cx="80.6574500096523" cy="27.201615613622767" r="0.494935873589674"></circle><circle cx="94.57759350892911" cy="33.98031852876889" r="0.38135759723213913"></circle><circle cx="87.76525520021934" cy="75.84328288375846" r="0.3340748584129561"></circle><circle cx="16.04473952558022" cy="80.1893169572443" r="0.34980335747510966"></circle><circle cx="51.92567230540139" cy="11.703140661109359" r="0.5558318869595721"></circle><circle cx="82.21968612360564" cy="68.39664813940959" r="0.7320300343601541"></circle><circle cx="71.23396697182588" cy="19.547980571668422" r="0.6429545533470835"></circle><circle cx="14.552376686758272" cy="57.06661964462249" r="0.8546752442340722"></circle><circle cx="89.46868260883434" cy="40.25139889185965" r="0.4924664804329057"></circle><circle cx="61.38694237365523" cy="17.06149665608288" r="0.785379143623724"></circle><circle cx="14.320789930921627" cy="75.16839316643433" r="0.5382598301267749"></circle><circle cx="86.06929007944464" cy="42.887378376165564" r="0.48770884691940786"></circle><circle cx="71.09358866849081" cy="84.7728957116237" r="0.4846412622414239"></circle><circle cx="24.289075972803698" cy="74.03479937393737" r="0.6554100043304275"></circle><circle cx="84.54895991941999" cy="26.336824491806592" r="0.6166660181845728"></circle><circle cx="53.659833120750314" cy="13.347774620170043" r="0.4857732783456273"></circle><circle cx="85.01863504813437" cy="67.79630875902082" r="0.6759732747593451"></circle><circle cx="62.72867150017174" cy="11.620939715146946" r="0.6387875659006367"></circle><circle cx="19.277793407785982" cy="23.960369178043596" r="0.45939533031986507"></circle><circle cx="25.88059066536602" cy="21.11063303014674" r="0.6100367431530982"></circle><circle cx="18.32172797797209" cy="28.39833334278331" r="0.6843931564474146"></circle><circle cx="84.13279703904287" cy="59.230974261567304" r="0.5199905643546361"></circle><circle cx="83.7301367259696" cy="22.063953004870818" r="0.5031445698553472"></circle><circle cx="6.869740313037944" cy="58.464014204044304" r="0.5624084486583094"></circle><circle cx="91.90275149819684" cy="64.91920923289217" r="0.3600044625133005"></circle><circle cx="34.8187106157339" cy="85.67184306778947" r="0.7244823442595387"></circle><circle cx="20.19748501034953" cy="24.977437305799135" r="0.752029315923694"></circle><circle cx="84.85730394723961" cy="84.02377637562925" r="0.4673462834898067"></circle><circle cx="4.313887554098102" cy="34.98631500320412" r="0.43723142289521255"></circle><circle cx="54.77935147834931" cy="84.24003055303028" r="0.8706673668398583"></circle><circle cx="17.86573179151535" cy="24.555323740819187" r="0.37963119095492626"></circle><circle cx="42.520887583533444" cy="13.15724087991979" r="0.6226503193112238"></circle><circle cx="12.675842022449217" cy="63.97488905003475" r="0.45435655170949313"></circle><circle cx="70.19210898691622" cy="86.36136701456408" r="0.4103706300334591"></circle><circle cx="68.13265070221206" cy="15.457460516377274" r="0.6479793506802439"></circle><circle cx="12.66108037206704" cy="78.33841577130237" r="0.3729705728566213"></circle><circle cx="50.99076892563767" cy="15.094975149992031" r="0.783227275879616"></circle><circle cx="57.42715213108317" cy="86.44094459073403" r="0.4669124703496789"></circle><circle cx="68.85557526897747" cy="10.468473400829978" r="0.3969922466452622"></circle><circle cx="84.96350071842437" cy="41.69928396714259" r="0.5303688335089995"></circle><circle cx="15.315124210738347" cy="31.848126434321046" r="0.80125568507242"></circle><circle cx="80.70440116863449" cy="74.71843006131789" r="0.45547575792744055"></circle><circle cx="8.647696964729548" cy="65.83462028412136" r="0.4533580904051021"></circle><circle cx="88.63390553390137" cy="29.36950194049333" r="0.3412319003991111"></circle><circle cx="67.75526593848923" cy="88.57576631226479" r="0.5270001630182441"></circle><circle cx="76.98435378471045" cy="81.84087941400466" r="0.6361836495254815"></circle><circle cx="16.240787884043797" cy="66.35192156730953" r="0.6076228688511444"></circle><circle cx="67.91806632677005" cy="5.823571733928311" r="0.3714312434245559"></circle><circle cx="84.53783550857335" cy="51.985867016907804" r="0.6253348839462187"></circle><circle cx="76.91639694326823" cy="17.34827778427438" r="0.6517446812711001"></circle><circle cx="23.095787766336564" cy="77.79054544901223" r="0.5191302017408035"></circle><circle cx="38.155817132427075" cy="83.68341589109076" r="0.8049040858362876"></circle><circle cx="40.55091279391892" cy="8.466784894089159" r="0.6556975659611104"></circle><circle cx="27.039611836106804" cy="87.74124345249946" r="0.36289845437208124"></circle><circle cx="14.116152005274103" cy="42.07861555287282" r="0.6000922803124459"></circle><circle cx="28.794010824791055" cy="22.294705246640508" r="0.5219118430345565"></circle><circle cx="56.06437325384256" cy="11.126686294403079" r="0.6556142738235395"></circle><circle cx="82.80746507504034" cy="30.096139157020456" r="0.49986176730050497"></circle><circle cx="84.08533883373914" cy="81.76645310808648" r="0.3834685203681652"></circle><circle cx="25.16599274423301" cy="18.295454963507705" r="0.7016660469954324"></circle><circle cx="88.5795339938806" cy="59.67001928645303" r="0.43308211018074594"></circle><circle cx="92.50910102540132" cy="59.440535653039596" r="0.5649228569279104"></circle><circle cx="12.167636251927227" cy="48.16458342968945" r="0.45143444052247655"></circle><circle cx="79.86245380053549" cy="70.18686291265223" r="0.6324224621521574"></circle><circle cx="90.23796662827013" cy="62.73664480757231" r="0.36426705515198565"></circle><circle cx="78.64463992160118" cy="23.692708575004353" r="0.5095791458013165"></circle><circle cx="50.26678480772811" cy="84.71818140339317" r="0.6086093027428435"></circle><circle cx="84.48897710396993" cy="53.72796740696942" r="0.5370454892245106"></circle><circle cx="60.47696949182234" cy="7.84147611880536" r="0.5566466222698102"></circle><circle cx="25.766264405680683" cy="77.86660794597418" r="0.49775950877373465"></circle><circle cx="62.20544108111602" cy="84.46190439256829" r="0.5656377330801349"></circle><circle cx="73.09691580206872" cy="17.800552746868924" r="0.4308462439232798"></circle><circle cx="74.64538301156216" cy="20.629933449498758" r="0.4418240907239785"></circle><circle cx="7.00623853585796" cy="66.73906661698524" r="0.3645154385187301"></circle><circle cx="57.83720655999188" cy="9.986348879649853" r="0.5555304274910032"></circle><circle cx="93.12984710561379" cy="45.45203117141348" r="0.5571713164005527"></circle><circle cx="42.39782805432699" cy="92.80799420743905" r="0.5069869144737836"></circle><circle cx="21.62503234125115" cy="26.56705027382993" r="0.7738248224156213"></circle><circle cx="87.87997025069393" cy="46.67719845167085" r="0.7484951661811604"></circle><circle cx="47.177415148755315" cy="9.67265656705574" r="0.6502251740390705"></circle><circle cx="48.639182256971395" cy="96.4550335534036" r="0.3897497558877522"></circle><circle cx="82.98236193621855" cy="70.07903015813751" r="0.7899672896075363"></circle><circle cx="87.67696781458318" cy="67.07248144178018" r="0.502793855672497"></circle><circle cx="71.0961940077648" cy="12.20653069905211" r="0.34349973631871716"></circle><circle cx="86.01240862364023" cy="52.54389229090849" r="0.6346119308143051"></circle><circle cx="91.40402733148666" cy="34.446697253261846" r="0.3682417349940513"></circle><circle cx="9.510184772054174" cy="40.739600733008025" r="0.5726345571798246"></circle><circle cx="52.17152387078508" cy="94.0842409842569" r="0.34405924243554764"></circle><circle cx="68.8529060826324" cy="82.84213704890061" r="0.6123211870338346"></circle><circle cx="35.450062019978375" cy="82.10825800137647" r="0.8464963735083337"></circle><circle cx="92.0116601773436" cy="50.015497496019485" r="0.4860620514874413"></circle><circle cx="11.13330032509721" cy="41.200895555632535" r="0.7401314881843177"></circle><circle cx="12.967050700478588" cy="30.07446642753473" r="0.37211677681100996"></circle><circle cx="6.1168461072416065" cy="48.86337170545921" r="0.43111069831030246"></circle><circle cx="77.15481389494138" cy="84.89300163670663" r="0.33615495427102154"></circle><circle cx="47.388795415493895" cy="85.50738594448075" r="0.5366166111923073"></circle><circle cx="35.97037539933616" cy="88.28456840913199" r="0.49313107598477973"></circle><circle cx="20.31205470523734" cy="68.95652544774049" r="0.5784651728368385"></circle><circle cx="51.18210890552229" cy="10.422537584900255" r="0.6278326109013858"></circle><circle cx="86.60554410504028" cy="66.25284291806412" r="0.7466090991444749"></circle><circle cx="16.876850894544475" cy="34.29963047285395" r="0.4738116692352016"></circle><circle cx="63.42362465357617" cy="84.54433152750933" r="0.500394347671633"></circle><circle cx="69.91411675803818" cy="10.383196796657678" r="0.3621696171164106"></circle><circle cx="87.53422711081521" cy="57.17794347799776" r="0.43320320457627537"></circle><circle cx="15.338328783101197" cy="51.17411123995959" r="0.7537747023977942"></circle><circle cx="8.065147576348764" cy="33.5394840604161" r="0.5670891565675183"></circle><circle cx="21.74856924502218" cy="17.580196619542924" r="0.3993154098798126"></circle><circle cx="83.83663623337299" cy="60.272045972197546" r="0.5943239706527911"></circle><circle cx="9.795657975145602" cy="47.762741829832905" r="0.3864417971058625"></circle><circle cx="85.43774409873163" cy="61.33969982868362" r="0.46606262635443285"></circle><circle cx="33.4590705600869" cy="18.548216338800977" r="0.6440349725570325"></circle><circle cx="82.77409177332092" cy="79.64979685632855" r="0.48454587631032936"></circle><circle cx="30.57593318253843" cy="83.84112831256877" r="0.4533704587590278"></circle><circle cx="11.47922863947828" cy="36.145667213011706" r="0.4539616207217399"></circle><circle cx="50.080078599607525" cy="11.834955057699446" r="0.6408466845894917"></circle><circle cx="65.16974397046651" cy="84.84345126614323" r="0.7358451512641279"></circle><circle cx="63.97304206988367" cy="14.700387533689977" r="0.5458328081383821"></circle><circle cx="52.996519562342584" cy="14.412553298676862" r="0.5820598327853179"></circle><circle cx="81.84753731918774" cy="28.793025304376865" r="0.6145320936710081"></circle><circle cx="11.865680510890144" cy="49.70576194265523" r="0.6481298110019416"></circle><circle cx="85.1449682540776" cy="69.33354727969966" r="0.5266866689704702"></circle><circle cx="79.80642860658304" cy="28.923278824398178" r="0.9158331381907698"></circle><circle cx="93.38610258746198" cy="57.18240592812312" r="0.32353876500305434"></circle><circle cx="59.58569571979854" cy="83.75734920953093" r="0.5295897854302277"></circle><circle cx="64.61672071443155" cy="87.70734343123188" r="0.47292206144184384"></circle><circle cx="79.3947005346072" cy="68.88887811139574" r="0.5216821734984386"></circle><circle cx="45.69699119939182" cy="92.08618227790046" r="0.41049401776070116"></circle><circle cx="18.45010352064694" cy="71.9880314769944" r="0.6267021027705071"></circle><circle cx="24.855645309474827" cy="82.88346390760941" r="0.4097336739200274"></circle><circle cx="9.695164954380942" cy="48.70302401682764" r="0.46828222244787515"></circle><circle cx="8.603435450133276" cy="58.000780239037184" r="0.4773323413223733"></circle><circle cx="44.26924320958265" cy="13.492967103132003" r="0.8522574002511074"></circle><circle cx="10.501097853739864" cy="43.72457998417002" r="0.7296494908638341"></circle><circle cx="12.038714780297227" cy="66.1538211511183" r="0.4013314589646218"></circle><circle cx="47.48162456047197" cy="13.416497474782112" r="0.5737262861374195"></circle><circle cx="13.837866043330642" cy="49.658902150412004" r="0.9523278722476172"></circle><circle cx="89.26574536914919" cy="36.989011482339194" r="0.6386137236837984"></circle><circle cx="85.61859867508454" cy="31.18546528497756" r="0.5142926638423716"></circle><circle cx="61.545464083743575" cy="95.48847688366538" r="0.5084222602669012"></circle><circle cx="85.248072695916" cy="72.08585724472465" r="0.4830670016397699"></circle><circle cx="82.74935259684268" cy="71.97901854984006" r="0.4122623374052056"></circle><circle cx="67.85909696170727" cy="85.49612542017752" r="0.6535107604513479"></circle><circle cx="95.44131119904034" cy="48.80274372785856" r="0.337450867613809"></circle><circle cx="96.94678991389102" cy="44.795869865520764" r="0.44208650285724876"></circle><circle cx="79.29537344235645" cy="79.80221400085911" r="0.36256065072996646"></circle><circle cx="79.5001991761616" cy="16.93081983204555" r="0.33910360818373914"></circle><circle cx="89.30118214330585" cy="68.56584905844643" r="0.3737088835141661"></circle><circle cx="90.4062798811045" cy="34.935553336007274" r="0.5133105214378849"></circle><circle cx="77.19495834494117" cy="28.063145300444933" r="0.8906645673381072"></circle><circle cx="26.625833329608774" cy="13.592639986749411" r="0.5088403200001759"></circle><circle cx="70.68690148119583" cy="89.91635256186264" r="0.5842132589253486"></circle><circle cx="53.859172998323096" cy="4.750244190230873" r="0.31352389072329695"></circle><circle cx="31.37764759114259" cy="85.2693650048302" r="0.5606031511873919"></circle><circle cx="85.83844449309817" cy="33.27200535054847" r="0.4466764164949757"></circle><circle cx="14.272988778043263" cy="76.70928900058681" r="0.5130376359537656"></circle><circle cx="34.66734269473955" cy="93.94493754386193" r="0.40938060138864574"></circle><circle cx="15.009824518472364" cy="23.254523359479876" r="0.46589631570486933"></circle><circle cx="6.960119507259712" cy="51.802938946202445" r="0.4195301316752888"></circle><circle cx="42.69339241362226" cy="15.989314699350174" r="0.7300637833858608"></circle><circle cx="22.332509162316317" cy="19.153645653199646" r="0.6134082306574569"></circle><circle cx="93.93065985853524" cy="36.22084633903689" r="0.3702508683751952"></circle><circle cx="64.20924403758394" cy="13.570957621667056" r="0.4343683019971911"></circle><circle cx="14.059596248026345" cy="38.56084251054506" r="0.6947931153603376"></circle><circle cx="90.69550088604393" cy="54.31812054214699" r="0.40290684318365433"></circle><circle cx="14.807046430858946" cy="70.95042713097583" r="0.4280444364412133"></circle><circle cx="10.787938013085103" cy="38.10187786164999" r="0.5923212300255727"></circle><circle cx="69.10417431204502" cy="17.45709092977242" r="0.8172676878884275"></circle><circle cx="9.680530040940617" cy="63.12274176344067" r="0.4701834838886382"></circle><circle cx="14.488894650366426" cy="28.46010742362265" r="0.3637059636480547"></circle><circle cx="15.464793683059149" cy="21.796817790534277" r="0.4249666634768829"></circle><circle cx="82.81946059978767" cy="73.29544474329684" r="0.46038119378166464"></circle><circle cx="12.457201975896083" cy="59.050663775084786" r="0.5067856317291874"></circle><circle cx="13.802782911267109" cy="71.88565250220516" r="0.6697434078208524"></circle><circle cx="16.33986647199837" cy="18.897731567638743" r="0.304279869105302"></circle><circle cx="24.417035610088266" cy="78.3349441404664" r="0.8218580597324864"></circle><circle cx="73.60194921517811" cy="87.7317783810864" r="0.37268672198809744"></circle><circle cx="61.28319826333402" cy="86.54625971642298" r="0.6279904467580134"></circle><circle cx="12.464918543520518" cy="44.41321852107346" r="0.688733301182797"></circle><circle cx="30.178302630651338" cy="15.466770341298393" r="0.39478007649575503"></circle><circle cx="18.287081598453888" cy="64.66600399527267" r="0.7088879101272886"></circle><circle cx="68.96196056926975" cy="89.27099642510652" r="0.5540292140678406"></circle><circle cx="43.81673866316024" cy="92.1181078343972" r="0.37233289151704213"></circle><circle cx="81.39477257353344" cy="73.68477960314526" r="0.6485437507101737"></circle><circle cx="37.3215391577424" cy="85.67661844505689" r="0.4907334089350507"></circle><circle cx="18.356318577616086" cy="35.95623470256685" r="0.9999296835920968"></circle><circle cx="75.44804768284858" cy="10.677796702035778" r="0.3221332972648563"></circle><circle cx="25.373412869798557" cy="81.12017059104377" r="0.5132205366978174"></circle><circle cx="38.54085833050975" cy="16.832629623016082" r="0.7130302523150364"></circle><circle cx="7.367719989398488" cy="60.137578888276515" r="0.4294156945835335"></circle><circle cx="75.9567368355374" cy="84.88134552924306" r="0.3791884996703869"></circle><circle cx="20.490472059756193" cy="18.59238031891206" r="0.5443974832925523"></circle><circle cx="81.32129806073507" cy="14.100520016838644" r="0.5454418773459976"></circle><circle cx="11.845702473986272" cy="73.00409702363513" r="0.3429442271904928"></circle><circle cx="80.65287361019189" cy="24.429701028881887" r="0.41842790812933806"></circle><circle cx="84.28874186391721" cy="20.03915962157603" r="0.5309299085274564"></circle><circle cx="2.9920834801554577" cy="46.73974793408566" r="0.45918187210380706"></circle><circle cx="81.94064550477212" cy="19.378964012911908" r="0.387899538456476"></circle><circle cx="63.0917015291985" cy="5.2713936335635125" r="0.37313648938541427"></circle><circle cx="69.19889359896538" cy="91.07732587232456" r="0.3337119185025684"></circle><circle cx="93.02214261623267" cy="55.84748685476148" r="0.5556723951191394"></circle><circle cx="75.45811418723818" cy="80.11588972466085" r="0.7416370125339194"></circle><circle cx="7.410600442501405" cy="53.40021024630067" r="0.3926013007330448"></circle><circle cx="15.176130377036621" cy="47.500868001678725" r="0.7472948020050822"></circle><circle cx="43.790228794840395" cy="87.28069007659143" r="0.5680657299970449"></circle><circle cx="62.99084786501807" cy="86.0423560061125" r="0.7562814635749374"></circle><circle cx="37.19087541108051" cy="11.208412234527131" r="0.5480823275891291"></circle><circle cx="17.28111397466263" cy="80.12759361059915" r="0.3219513493835365"></circle><circle cx="24.43319509472154" cy="16.79860815532917" r="0.41344951751342224"></circle><circle cx="91.48575247031309" cy="48.51665684762255" r="0.40321893243701473"></circle><circle cx="8.20259000649257" cy="56.22666345547153" r="0.39688438639614515"></circle><circle cx="62.975304145575876" cy="6.784440577465141" r="0.5179700930642654"></circle><circle cx="22.31659132740315" cy="81.8161343119696" r="0.4060542841239285"></circle><circle cx="42.01384450350954" cy="7.878200777837016" r="0.5650018168199573"></circle><circle cx="44.843613678349016" cy="9.280381066294915" r="0.47684110254070633"></circle><circle cx="65.7558108988753" cy="17.596153349758858" r="0.5048012751947845"></circle><circle cx="86.52476685788187" cy="69.0162592934802" r="0.4750799131934657"></circle><circle cx="56.51172056388762" cy="88.78560328371717" r="0.44981357220224744"></circle><circle cx="23.381599096958507" cy="90.2471324905654" r="0.38724894804867127"></circle><circle cx="69.84127672384804" cy="80.25715054723227" r="0.9039956220086584"></circle><circle cx="82.17377929387166" cy="17.335900572284856" r="0.47260406983654923"></circle><circle cx="72.58025006347341" cy="19.948805247239733" r="0.8367579645001039"></circle><circle cx="65.99335259767523" cy="11.65775740221521" r="0.4721019305445602"></circle><circle cx="29.099186870911975" cy="82.7744459902934" r="0.4592717001709925"></circle><circle cx="86.16447911458484" cy="60.22616766491139" r="0.5902584263144521"></circle><circle cx="39.223106868678215" cy="87.9591243386946" r="0.7209280850394703"></circle><circle cx="94.29116347508344" cy="48.54263776347673" r="0.35248873264813724"></circle><circle cx="44.054269278375244" cy="89.13771861711152" r="0.4070224579362839"></circle><circle cx="37.380051889448666" cy="88.6271875955458" r="0.4056159191321148"></circle><circle cx="89.61525272750643" cy="70.48126652468589" r="0.6113669480664679"></circle><circle cx="37.98265589948656" cy="95.41275345298506" r="0.35716906144065247"></circle><circle cx="22.641315282123607" cy="87.91930224956442" r="0.2989651890870251"></circle><circle cx="13.90035833002662" cy="17.242012265557953" r="0.29351109077842436"></circle><circle cx="7.295833297805331" cy="48.29457294717342" r="0.3948843675771916"></circle><circle cx="14.068530129466936" cy="64.841343191063" r="0.4863238568207106"></circle><circle cx="3.4789535564469247" cy="51.524256676711275" r="0.29446139584935976"></circle><circle cx="94.517301238024" cy="35.40441831768147" r="0.346829706555038"></circle><circle cx="23.352882513456034" cy="88.3078787868711" r="0.30499008741903566"></circle><circle cx="32.33990545291142" cy="9.157619395916306" r="0.47514218033023314"></circle><circle cx="62.97251332729216" cy="17.233979456244818" r="0.6442799870700993"></circle><circle cx="64.08619045384854" cy="93.71030840744902" r="0.31827549441394437"></circle><circle cx="9.536074618768737" cy="60.08852815385284" r="0.533686145024964"></circle><circle cx="84.08410884401786" cy="24.598178185719686" r="0.37291219886510024"></circle><circle cx="66.63400433849398" cy="15.998775690414" r="0.6336443784880292"></circle><circle cx="36.347278729055" cy="94.82889779114389" r="0.43940332670571525"></circle></g></g>
  <desc>Created with Snap</desc></svg>
