<svg width="100%" height="100%" viewBox="0 0 100 100" version="1.1" xmlns="http://www.w3.org/2000/svg" id="decent-logo-svg">
       <defs>
         <style type="text/css">
           @import url("https://fonts.googleapis.com/css?family=Dosis:400,700")
         </style>
         <style type="text/css">
           #text text {
             font-family: 'Dosis'
           }
         </style>
       </defs>
       <g id="svg-content"><circle cx="50" cy="50" r="25" id="shape"></circle><g textAlign="center" fill="undefined" style="text-anchor: middle; stroke-width: 0;" stroke="rgba(0,0,0,0)" id="halftones"><circle cx="69.62736329196818" cy="77.80485351229223" r="0.7504712860235491"></circle><circle cx="16.712066983067317" cy="69.96801512957717" r="0.7196123832895057"></circle><circle cx="42.1633855163971" cy="88.73338240545735" r="0.7152835641180255"></circle><circle cx="25.260045724586142" cy="30.97010730312344" r="0.6776071709133781"></circle><circle cx="56.91036487294274" cy="11.55163583845907" r="0.6339589779248171"></circle><circle cx="82.16465598117608" cy="41.30466450141106" r="0.7649150263939031"></circle><circle cx="89.68351333329596" cy="42.77135485970968" r="0.7653780802934067"></circle><circle cx="67.90596998752983" cy="74.62355323684831" r="1.2825688826747967"></circle><circle cx="37.326317438989776" cy="88.21233390210132" r="0.444882445115234"></circle><circle cx="46.660182910752006" cy="18.180927797727485" r="0.8896353475478599"></circle><circle cx="16.063321717892634" cy="25.7613388261511" r="0.5769429412790267"></circle><circle cx="40.011561678093756" cy="17.515510249958517" r="0.6561156454221421"></circle><circle cx="37.727724196620514" cy="17.230938077336738" r="0.6825078642767892"></circle><circle cx="89.24194619597614" cy="61.17630309289926" r="0.7015594985434653"></circle><circle cx="9.906847152195262" cy="72.18775423452297" r="0.43472870182189693"></circle><circle cx="37.44271469110738" cy="77.67960656343148" r="0.955311071038549"></circle><circle cx="63.19474353758394" cy="22.935697509310103" r="0.836494162305388"></circle><circle cx="15.50291932308572" cy="46.00372950995537" r="1.0256991738513574"></circle><circle cx="55.28185489459104" cy="17.645488550443915" r="0.7927362553388081"></circle><circle cx="54.293298420041005" cy="82.0121268769268" r="0.7212553942325721"></circle><circle cx="43.78680793013888" cy="19.439370454068808" r="0.688591998671045"></circle><circle cx="14.80585814868887" cy="35.81793331618852" r="0.4628406455809999"></circle><circle cx="81.41621499853751" cy="53.724593113840115" r="0.7941060934407391"></circle><circle cx="81.93836545235278" cy="34.03711894490165" r="0.5362037377525255"></circle><circle cx="20.58092533700059" cy="33.00360780538355" r="1.0342563073522386"></circle><circle cx="81.82214750189398" cy="47.479574332103745" r="1.0895254776988945"></circle><circle cx="63.97221154576006" cy="76.95759119805682" r="0.7504004619120425"></circle><circle cx="39.02880239831615" cy="15.79542416900697" r="0.7386272906067837"></circle><circle cx="32.81546612377515" cy="78.16330155678945" r="0.8495574142688261"></circle><circle cx="78.21867579065074" cy="33.39476391371781" r="0.6499546606355072"></circle><circle cx="80.45623637126458" cy="31.65076550832726" r="0.7746403504731791"></circle><circle cx="47.59036701289432" cy="85.97270213807676" r="0.48862022384279363"></circle><circle cx="62.06312723658822" cy="77.77669421830342" r="0.7329158801252412"></circle><circle cx="40.64135449801483" cy="87.97658261350992" r="0.6247419861225963"></circle><circle cx="20.06076215684305" cy="46.09220854703403" r="0.7307946141794619"></circle><circle cx="65.36142793460674" cy="19.100509649937038" r="0.871176794274907"></circle><circle cx="73.00915296610293" cy="74.04938548311635" r="0.8817432762717036"></circle><circle cx="68.83473200599374" cy="23.162713277547343" r="0.8803731622255299"></circle><circle cx="78.26332739188719" cy="71.3690653032122" r="0.629344501237239"></circle><circle cx="86.63304915257814" cy="37.415309387216865" r="0.4565509753427567"></circle><circle cx="18.255863812672487" cy="61.5485504923122" r="0.6811159983746913"></circle><circle cx="37.97514312451525" cy="79.88398268214905" r="0.683612154106482"></circle><circle cx="21.35262300599762" cy="71.88777380619482" r="0.5178543317709493"></circle><circle cx="75.26414788631782" cy="69.34096514617542" r="0.9845571165001596"></circle><circle cx="78.89477403575063" cy="35.183817636956704" r="0.7499471601978801"></circle><circle cx="84.62357571173456" cy="39.36169428721082" r="0.5060893938166953"></circle><circle cx="30.639666366679123" cy="26.78562509667243" r="0.8176529429265227"></circle><circle cx="81.5072232080093" cy="62.40220774991779" r="0.6533880569995171"></circle><circle cx="73.67495572001394" cy="27.4425550652048" r="0.6235628951174531"></circle><circle cx="48.928488733631696" cy="88.68599034709084" r="0.44978291289976546"></circle><circle cx="70.39742672908021" cy="26.417472703738508" r="1.056975310390773"></circle><circle cx="72.40975737701365" cy="79.0187390609441" r="0.46757368461752985"></circle><circle cx="44.91615934976468" cy="91.59028823371779" r="0.4748991225311613"></circle><circle cx="8.084566066720335" cy="52.625132011921636" r="0.5337748778801139"></circle><circle cx="40.59439759695014" cy="16.10488328216445" r="0.6671140029016549"></circle><circle cx="18.591429953742473" cy="64.50025663692396" r="0.9375571157094247"></circle><circle cx="58.94636796270688" cy="85.1700428880934" r="0.5014194160527665"></circle><circle cx="75.46488365843013" cy="72.42219396123863" r="0.7153565467684567"></circle><circle cx="22.45479658765622" cy="67.45950949480488" r="0.6163002034977761"></circle><circle cx="50.85610778664017" cy="83.30096771378666" r="1.035717218147354"></circle><circle cx="85.5445583586539" cy="32.8719946908233" r="0.5064406872093717"></circle><circle cx="78.79825837222077" cy="60.00195338964052" r="1.0305544386727605"></circle><circle cx="35.37686836071477" cy="77.64891422367978" r="1.1942246550472444"></circle><circle cx="83.1328805424202" cy="55.17721124953364" r="0.644553311512061"></circle><circle cx="10.900868455690997" cy="44.27964650313246" r="0.48701840849412553"></circle><circle cx="84.82785085034396" cy="22.256995388528285" r="0.3761875199407184"></circle><circle cx="77.53304585412828" cy="69.65828525617898" r="1.035513496879042"></circle><circle cx="25.47528668132906" cy="68.51463838364948" r="0.770996019277595"></circle><circle cx="66.6198478324699" cy="22.40399353329291" r="0.6317150855466841"></circle><circle cx="67.01990847014832" cy="89.76264372147284" r="0.4379902555648662"></circle><circle cx="52.78700359547323" cy="13.477551049065212" r="0.5765658253331069"></circle><circle cx="23.766885564562312" cy="66.43237942461695" r="0.7821255816770415"></circle><circle cx="40.72756044066195" cy="81.67528230494317" r="0.7185871651637418"></circle><circle cx="66.32951943997266" cy="24.687320132788557" r="1.0794538421978042"></circle><circle cx="28.58071282644473" cy="22.716687762693038" r="0.7072659554082003"></circle><circle cx="84.21118990922145" cy="42.7033673861913" r="0.6861231917214561"></circle><circle cx="52.01336233940757" cy="81.06256689828747" r="0.7007328311504541"></circle><circle cx="81.49687706850821" cy="44.087414064763735" r="1.0979924597918367"></circle><circle cx="17.689837191939127" cy="58.56101035806277" r="0.7062800197406295"></circle><circle cx="9.798583028719563" cy="66.0559981210254" r="0.4159617611110366"></circle><circle cx="37.14223166294775" cy="15.265002144492712" r="0.7921962402683106"></circle><circle cx="18.65984887730013" cy="35.142174277727975" r="0.5498405108403941"></circle><circle cx="33.26938243274519" cy="22.343926795993067" r="0.9999053851499062"></circle><circle cx="75.38312832461773" cy="33.8186554383133" r="0.6979583733530503"></circle><circle cx="11.508818927656819" cy="62.62484218442159" r="0.4596197045353819"></circle><circle cx="82.50021493589936" cy="28.013634472238596" r="0.4374235330291908"></circle><circle cx="8.853041197852363" cy="40.387931706697955" r="0.5171523887668174"></circle><circle cx="76.16689011920133" cy="24.91672389712897" r="0.67462501200063"></circle><circle cx="53.855988795921824" cy="19.94742098055623" r="0.9243693345738674"></circle><circle cx="74.21179328182771" cy="79.31557067824383" r="0.8083607743006317"></circle><circle cx="72.08119916539947" cy="82.87217792701992" r="0.7906195717222605"></circle><circle cx="20.14628509184894" cy="58.383179546345986" r="1.073680733760557"></circle><circle cx="79.67505216436936" cy="57.58473276445573" r="0.970912775653201"></circle><circle cx="47.015571359550684" cy="13.018987558661664" r="0.5228651636857309"></circle><circle cx="63.79232018313718" cy="80.65324471616287" r="0.7143348283654669"></circle><circle cx="46.01464376534563" cy="16.183904406127347" r="0.6036556437510402"></circle><circle cx="86.79954717081557" cy="71.88925174389009" r="0.37815829338556817"></circle><circle cx="18.180410923931905" cy="54.67257300997025" r="0.7513249428517468"></circle><circle cx="83.74098306287716" cy="60.05616633870322" r="0.5807025173772881"></circle><circle cx="30.019018226413937" cy="76.45862204328482" r="0.963799505536909"></circle><circle cx="87.36793767896809" cy="45.80372121457516" r="0.4537456704207306"></circle><circle cx="32.79371457028155" cy="16.88460080248268" r="0.8075880389476838"></circle><circle cx="20.434312571581422" cy="37.912158701249524" r="0.614045696491563"></circle><circle cx="23.113161158128328" cy="29.905458572789957" r="0.5774726915126654"></circle><circle cx="79.78001456803467" cy="29.157333628169074" r="0.608718957191808"></circle><circle cx="85.1471772099896" cy="58.07830099492666" r="0.8942480898324385"></circle><circle cx="86.75578895152785" cy="26.788134166188943" r="0.4680066572044493"></circle><circle cx="48.983963812413094" cy="93.82820992273292" r="0.4330356054675471"></circle><circle cx="80.27206426314854" cy="37.67922955184201" r="1.0365568282740882"></circle><circle cx="92.84833586387866" cy="52.06060689288586" r="0.3840925838007031"></circle><circle cx="61.23817593042608" cy="21.626701696553315" r="1.2210199699974267"></circle><circle cx="70.73628518355036" cy="71.89928775714374" r="0.7774744800335738"></circle><circle cx="61.18734962950764" cy="86.0840019403023" r="0.6538893602243737"></circle><circle cx="19.877971669954704" cy="55.25722375562678" r="0.6963560590172647"></circle><circle cx="36.49412238320472" cy="21.372939784662897" r="0.8043687473470925"></circle><circle cx="33.457963490817995" cy="84.69259961635967" r="0.6408702528917466"></circle><circle cx="27.507823969515066" cy="24.560845413148115" r="0.6685353841815355"></circle><circle cx="29.610054524366813" cy="73.81597103623793" r="1.0076801367849255"></circle><circle cx="69.92119132841432" cy="14.12177584429839" r="0.47222080656212245"></circle><circle cx="71.62331298411146" cy="16.4208522756918" r="0.5274969150892339"></circle><circle cx="40.75511349873737" cy="91.38685830151114" r="0.6924973391105921"></circle><circle cx="18.360088453295944" cy="19.644647785844597" r="0.37202510323863247"></circle><circle cx="51.8723509480668" cy="18.098925935391012" r="0.6967072488969739"></circle><circle cx="33.70057552154197" cy="86.5166393385629" r="0.4071047215868679"></circle><circle cx="84.81955060250762" cy="69.7952026943077" r="0.6572863973714661"></circle><circle cx="42.6858710284071" cy="80.53898872516166" r="0.9734371820480758"></circle><circle cx="93.25462725225141" cy="43.16420293906255" r="0.3608088800592762"></circle><circle cx="65.81650531318058" cy="13.353678447251788" r="0.6059326968941308"></circle><circle cx="30.01856927326245" cy="14.185167527851526" r="0.4333217054526334"></circle><circle cx="92.1308490713306" cy="59.6278183360286" r="0.33731125785872995"></circle><circle cx="27.384697941393068" cy="75.69202886357868" r="0.5713760251858783"></circle><circle cx="55.32810523204229" cy="85.01966408285723" r="0.7424541720456508"></circle><circle cx="74.9129918034599" cy="29.58226012141706" r="0.9910217717009838"></circle><circle cx="24.723914594033904" cy="33.632690190169356" r="1.1477699902541232"></circle><circle cx="16.843760586074453" cy="29.232558992076633" r="0.5086625519231732"></circle><circle cx="53.046505376156674" cy="5.865140132064269" r="0.321535469276683"></circle><circle cx="23.497259269018322" cy="25.50727723035035" r="0.48130610573686194"></circle><circle cx="80.19791351806374" cy="40.5677759607901" r="0.7540741798961742"></circle><circle cx="89.2859863418522" cy="38.88909799300074" r="0.7452188328063103"></circle><circle cx="17.43538512667081" cy="50.96107877815663" r="0.9982996821918847"></circle><circle cx="77.58726380845641" cy="31.258909098129333" r="0.621739180113012"></circle><circle cx="46.226203618570054" cy="81.25401684960967" r="0.8090942196042527"></circle><circle cx="19.233571353182054" cy="48.0518915524932" r="1.2786102764207108"></circle><circle cx="20.243209423706734" cy="70.82500328807673" r="0.49859108202483315"></circle><circle cx="32.483276891454736" cy="74.59792990504647" r="1.2575781384230944"></circle><circle cx="12.701101793993551" cy="46.13911699673974" r="0.5457878897864127"></circle><circle cx="58.21771012049611" cy="10.286187019874234" r="0.5156875683666041"></circle><circle cx="73.88433673587669" cy="24.217106303164663" r="0.808101258581954"></circle><circle cx="12.075375029640696" cy="67.88506014996167" r="0.3716950478034402"></circle><circle cx="16.12440203681826" cy="56.508127070081684" r="0.7130132350619133"></circle><circle cx="77.72516665536408" cy="37.263113267966176" r="0.8176287623531173"></circle><circle cx="70.7183358365372" cy="23.564197334411148" r="0.8299516169347664"></circle><circle cx="49.71765764158919" cy="80.93987103104678" r="0.7796920979594608"></circle><circle cx="86.13465404980911" cy="60.53071087128765" r="0.6715673736691722"></circle><circle cx="26.48083853158729" cy="82.74274788088093" r="0.531551359431092"></circle><circle cx="82.46153332940258" cy="20.784678287977936" r="0.541965224309842"></circle><circle cx="24.45449336568586" cy="72.0301145457012" r="0.8183364145932543"></circle><circle cx="50.513431334928434" cy="12.01720395684378" r="0.707581761396626"></circle><circle cx="28.2607582154954" cy="80.3741801846978" r="0.4522243835164487"></circle><circle cx="19.957358588108423" cy="60.57297061983146" r="1.0702525435352173"></circle><circle cx="18.1836083867549" cy="38.356600954753475" r="0.8025196196232411"></circle><circle cx="32.977863750977136" cy="12.06327834052442" r="0.4940129244073908"></circle><circle cx="72.47252521007482" cy="80.74655609602978" r="0.6878404246013953"></circle><circle cx="79.79296504321626" cy="24.16422450199718" r="0.4907764551068623"></circle><circle cx="72.67392702289857" cy="29.174320156707992" r="1.134218188001875"></circle><circle cx="27.46671431772496" cy="71.74709116915285" r="0.9062011191806814"></circle><circle cx="51.719918156988676" cy="16.51282711939146" r="0.6987957342423226"></circle><circle cx="20.73089855949256" cy="27.260710604365112" r="0.8752688883292373"></circle><circle cx="32.96768174404276" cy="82.68589380471985" r="0.7467479051122833"></circle><circle cx="31.410768057357327" cy="81.82396461519318" r="0.907556634538026"></circle><circle cx="30.82587404716649" cy="23.089668252226915" r="0.8027405855733799"></circle><circle cx="21.307357935229646" cy="30.573599933425534" r="0.5282236099430675"></circle><circle cx="11.330585913339569" cy="39.78699044757391" r="0.4459032835369047"></circle><circle cx="46.47292430789692" cy="11.881603489079872" r="0.7662093240261466"></circle><circle cx="20.57460446303441" cy="29.238519898276945" r="0.5391858082779101"></circle><circle cx="22.98376747558003" cy="69.59335791611909" r="0.8080323152325468"></circle><circle cx="38.64125572976351" cy="21.919592056400244" r="0.812394571376814"></circle><circle cx="77.87500494463723" cy="63.72951964844765" r="0.8700359074856527"></circle><circle cx="8.921378053353848" cy="58.03075592119288" r="0.6992497102824659"></circle><circle cx="67.60774951849558" cy="79.44132679752741" r="0.8829460609472524"></circle><circle cx="57.76143928014411" cy="15.936831116885998" r="0.7515217247123587"></circle><circle cx="62.94636537265765" cy="86.62189769117228" r="0.5615384901769903"></circle><circle cx="90.20502788383553" cy="35.29952237013033" r="0.39671635626702684"></circle><circle cx="43.934513529927386" cy="11.317896017282692" r="0.43600979458364864"></circle><circle cx="37.773580956761116" cy="84.38289060216306" r="0.7874532071699376"></circle><circle cx="87.5326184113546" cy="61.89340069009503" r="0.6810874371793528"></circle><circle cx="86.777400498991" cy="49.94885761480798" r="0.9131211471530954"></circle><circle cx="56.944158629492634" cy="91.84042356520868" r="0.37310330725878454"></circle><circle cx="53.38588650042697" cy="84.75530053440852" r="0.6261926652442151"></circle><circle cx="83.13906011682761" cy="71.55496671270998" r="0.7036328547121993"></circle><circle cx="31.479533497401647" cy="19.805285454892616" r="0.5789496930127053"></circle><circle cx="18.845055273293553" cy="30.723558891187714" r="0.5996434057222141"></circle><circle cx="77.8409015526164" cy="66.40890178153376" r="0.6424092658215225"></circle><circle cx="57.06257009005963" cy="20.73425136930654" r="1.052339046675938"></circle><circle cx="28.905055706561022" cy="21.155910152093004" r="0.6465387652205916"></circle><circle cx="58.97378235264375" cy="92.66061543359959" r="0.44853934420685304"></circle><circle cx="82.25797920269898" cy="76.72473935847077" r="0.6081332489348708"></circle><circle cx="8.48111045286435" cy="44.96176873607346" r="0.45164632149735817"></circle><circle cx="20.62832905262025" cy="39.154778327001665" r="0.8572932393712872"></circle><circle cx="40.45855230516284" cy="21.134914783893645" r="1.0314548492011604"></circle><circle cx="88.85678874313528" cy="71.9814655534625" r="0.5391768476766724"></circle><circle cx="57.71412164780955" cy="80.74852790064227" r="0.7372166488949035"></circle><circle cx="85.56863984095091" cy="51.83823475802903" r="0.7087427788989826"></circle><circle cx="83.82838020303561" cy="52.47178291940062" r="0.6383603781170115"></circle><circle cx="72.42019381869676" cy="76.47206976551969" r="0.9475950545268347"></circle><circle cx="89.60362183265448" cy="58.1386891291109" r="0.4578382505086918"></circle><circle cx="27.118667692371513" cy="77.66019017065065" r="0.5563174267647036"></circle><circle cx="83.31885155910314" cy="37.700010781379945" r="0.6281471458826314"></circle><circle cx="20.053741416170165" cy="42.86539995792617" r="1.2704789314642826"></circle><circle cx="64.52741151744651" cy="85.13028083641757" r="0.5479077404220964"></circle><circle cx="16.997892956037973" cy="33.27202173684046" r="0.4879721547458024"></circle><circle cx="13.221085054098019" cy="67.6115418715527" r="0.47126337208990404"></circle><circle cx="23.59543563833569" cy="74.5604781489324" r="0.4916595918981088"></circle><circle cx="42.04267008898645" cy="85.18698964412783" r="0.553658709915722"></circle><circle cx="21.41756991508348" cy="78.17371477886893" r="0.6364644193213093"></circle><circle cx="19.117713792316323" cy="36.487188718558286" r="0.7176447475467713"></circle><circle cx="10.08818510949547" cy="33.37279955117602" r="0.37149371201606"></circle><circle cx="89.42558115812261" cy="49.74195454508068" r="0.5631314296648421"></circle><circle cx="60.05286390250627" cy="82.17855674924932" r="0.6447613349427314"></circle><circle cx="62.835605757499195" cy="84.91135709748441" r="0.62352178865571"></circle><circle cx="38.433307562866574" cy="10.229672329647563" r="0.6574811100368352"></circle><circle cx="39.702158297578826" cy="78.76191247346348" r="0.6908287507439532"></circle><circle cx="24.075460476953555" cy="13.39894945778704" r="0.3736146693581314"></circle><circle cx="68.76483145676801" cy="17.097017870528447" r="0.44007473088850846"></circle><circle cx="87.76194436614945" cy="55.040359158511386" r="0.4435731706491319"></circle><circle cx="20.50949306267684" cy="63.396384203448946" r="0.9492150007939185"></circle><circle cx="17.452754902052703" cy="66.99539727723152" r="0.6053531656236564"></circle><circle cx="84.90129672363922" cy="46.08740913998834" r="0.5447893144789567"></circle><circle cx="79.78036637424842" cy="54.67306176724626" r="0.713221438221705"></circle><circle cx="93.23338831739946" cy="53.3671827703829" r="0.58256978307158"></circle><circle cx="10.445949924863484" cy="42.91707726315567" r="0.38730515637208346"></circle><circle cx="26.878275316174843" cy="73.75253821035045" r="0.7692262913887733"></circle><circle cx="72.9952844691818" cy="26.14801931354043" r="0.5793511758124661"></circle><circle cx="30.425259879513458" cy="78.69352501803911" r="0.9071314983923883"></circle><circle cx="24.73038518033044" cy="74.6497993655103" r="0.5367532772092275"></circle><circle cx="26.79223663783131" cy="23.1676086608243" r="0.641711437290866"></circle><circle cx="50.71544539133156" cy="85.90118355369067" r="0.5543936645744286"></circle><circle cx="19.245111267100352" cy="68.69467290541046" r="0.7800077984154911"></circle><circle cx="48.9116393073223" cy="86.31423684865771" r="0.47996936271532364"></circle><circle cx="79.20995786820345" cy="78.2952837357794" r="0.6428228383047289"></circle><circle cx="6.325163233165107" cy="40.82624507611143" r="0.42401047161288263"></circle><circle cx="35.940487862576646" cy="12.604663116223314" r="0.4173816541798605"></circle><circle cx="40.76074189644753" cy="85.85644245878028" r="0.5356487053076008"></circle><circle cx="39.289229030353106" cy="86.81842724717839" r="0.5169706248193242"></circle><circle cx="75.38981012463594" cy="27.380394339431806" r="0.5667751207865741"></circle><circle cx="46.21298772960493" cy="85.52267563116004" r="0.7282070110863935"></circle><circle cx="35.09457084437679" cy="85.98593095313754" r="0.5355822989749256"></circle><circle cx="37.75934776466413" cy="18.833512239494187" r="0.6004442269103732"></circle><circle cx="93.40628289680348" cy="41.28829328014583" r="0.40090691750225094"></circle><circle cx="27.710883253068005" cy="29.633979075300168" r="0.9977395315333023"></circle><circle cx="72.13147908373611" cy="19.853378051165862" r="0.4484004455255498"></circle><circle cx="72.99171405510671" cy="11.149138116589548" r="0.40845106635528694"></circle><circle cx="29.72981388441622" cy="84.36924802507427" r="0.7773934743501514"></circle><circle cx="82.10566142462838" cy="78.49376700326063" r="0.45671868872869575"></circle><circle cx="49.76782167112469" cy="16.239301032714245" r="0.785471660936042"></circle><circle cx="22.48779018748606" cy="22.47936411593275" r="0.5638699459580228"></circle><circle cx="75.84848967915735" cy="14.193863726498492" r="0.36900414855034097"></circle><circle cx="73.6714824035507" cy="82.20018497269626" r="0.4509548698068625"></circle><circle cx="23.08919905339913" cy="31.112376372063636" r="0.8018753247397337"></circle><circle cx="79.81432164512236" cy="25.3787137473762" r="0.7714175783449743"></circle><circle cx="40.61032629442888" cy="19.037192304551358" r="0.9801634467990604"></circle><circle cx="24.567393359813746" cy="78.913000437816" r="0.6753627753918505"></circle><circle cx="86.45752104996137" cy="42.02431414914061" r="0.5874388331272953"></circle><circle cx="28.938949483201817" cy="26.933861707554843" r="0.7085248643914385"></circle><circle cx="86.20840448438697" cy="68.86715535977727" r="0.38698389752329065"></circle><circle cx="87.61451935826506" cy="34.77163294164184" r="0.3805058800698525"></circle><circle cx="31.017298789949496" cy="24.973770188592432" r="0.7871262238484381"></circle><circle cx="83.70316737727191" cy="45.07762557050551" r="0.6336632274917705"></circle><circle cx="21.33042746412654" cy="36.59243378522656" r="0.6619687136516688"></circle><circle cx="29.424445530047187" cy="80.69674518592221" r="0.6480865295755822"></circle><circle cx="33.06904724321317" cy="8.466812149244255" r="0.4224816274051299"></circle><circle cx="60.79983041429045" cy="79.43893085362313" r="1.0578511749627537"></circle><circle cx="14.959082281639759" cy="42.16410144302106" r="0.5765906362044476"></circle><circle cx="73.34516844648395" cy="71.77815007353831" r="0.9173761717259102"></circle><circle cx="84.42576649854382" cy="32.18310618574117" r="0.7881695377032979"></circle><circle cx="53.170845025660114" cy="89.29642869486707" r="0.4300425663438647"></circle><circle cx="25.447375366669835" cy="25.941530207850896" r="0.5302059274237635"></circle><circle cx="13.22904070109034" cy="69.442162790321" r="0.42149992633449646"></circle><circle cx="61.588195406871" cy="18.073393040180726" r="0.6592195350701554"></circle><circle cx="13.187619830347984" cy="47.8049656840976" r="0.6220021787158689"></circle><circle cx="48.88641849362611" cy="18.23983859447954" r="1.0174060738441688"></circle><circle cx="86.7999583012882" cy="47.33565640371143" r="0.6429747722000252"></circle><circle cx="52.888357712358804" cy="91.20423228274441" r="0.4389152931172181"></circle><circle cx="55.58047128140158" cy="87.99183795554707" r="0.6539250078647106"></circle><circle cx="92.83493471901463" cy="43.98968138242797" r="0.3363334434000599"></circle><circle cx="12.948039244085713" cy="32.119995718210916" r="0.6544642079889225"></circle><circle cx="47.089363427507166" cy="83.79253890003918" r="0.5765097353806168"></circle><circle cx="80.07243719688994" cy="70.55620259032371" r="0.6385758612497107"></circle><circle cx="28.204313410146266" cy="19.23104636932587" r="0.7686482456140907"></circle><circle cx="60.637126015836614" cy="90.48237451102753" r="0.4164327548800906"></circle><circle cx="19.536445583858317" cy="52.799953896914154" r="1.2575142327324071"></circle><circle cx="78.94366311673093" cy="21.854138063378038" r="0.6482988471493161"></circle><circle cx="50.635328651910136" cy="10.449628017473586" r="0.6270368338518831"></circle><circle cx="56.11043922426349" cy="79.62196556755552" r="0.9294610414813912"></circle><circle cx="80.52237302253371" cy="74.11349896243696" r="0.4669754624458258"></circle><circle cx="11.054423059056575" cy="48.7265257495193" r="0.5548561394260384"></circle><circle cx="22.654083601569372" cy="23.698008218884613" r="0.7518710346950196"></circle><circle cx="78.65587022297026" cy="40.5325315184073" r="0.9930538519920632"></circle><circle cx="42.71736574719759" cy="17.93780800550016" r="0.7352652973112029"></circle><circle cx="34.95943734951503" cy="16.49932468389025" r="0.6448038185592538"></circle><circle cx="16.398166260532705" cy="53.10107024915061" r="0.5742051153679577"></circle><circle cx="16.187692847573963" cy="32.28288482772494" r="0.5784534848047828"></circle><circle cx="59.33103509542467" cy="18.912407480535563" r="0.8153809184509957"></circle><circle cx="67.02051787039906" cy="83.20963866696238" r="0.46225130741750825"></circle><circle cx="72.87287144926565" cy="21.73929569860622" r="0.685041457128332"></circle><circle cx="75.65408862427583" cy="23.166843088016083" r="0.6118167967734497"></circle><circle cx="65.4414507413563" cy="82.95977050334534" r="0.5435031212282874"></circle><circle cx="24.998693891795856" cy="29.37876908714709" r="0.8026573225410147"></circle><circle cx="88.7907283868095" cy="63.96621877115103" r="0.7317698818969863"></circle><circle cx="44.76058308467503" cy="16.645523876868886" r="0.8281945276975029"></circle><circle cx="34.913171196646516" cy="81.82466704135095" r="0.7039384341902467"></circle><circle cx="81.03618817333056" cy="19.117317179124328" r="0.3725247793895286"></circle><circle cx="13.792673725251099" cy="61.24203958156974" r="0.5368583924893313"></circle><circle cx="84.59478243447052" cy="49.99304945862615" r="0.8898010202152353"></circle><circle cx="82.91541088765246" cy="64.59664546677354" r="0.7158096103509495"></circle><circle cx="76.86436097496905" cy="34.064211070741315" r="1.0821729280250452"></circle><circle cx="75.76783515357411" cy="20.608923499601026" r="0.5469408437257223"></circle><circle cx="51.00549086410542" cy="14.398029568047" r="0.7857393805887386"></circle><circle cx="85.24140996308043" cy="35.69615659945163" r="0.8520062881261429"></circle><circle cx="36.58057981362856" cy="82.3824789259216" r="0.6415000910928683"></circle><circle cx="13.821099244933421" cy="26.60796110991777" r="0.41406011938495857"></circle><circle cx="79.41006032459447" cy="15.690055317468683" r="0.39355246675962946"></circle><circle cx="82.68624887156132" cy="67.93649709804613" r="0.4587961030651485"></circle><circle cx="75.94514047436776" cy="16.783712162572215" r="0.36559550173243"></circle><circle cx="45.169239909635266" cy="20.28524654144835" r="0.7544063892288364"></circle><circle cx="17.35365429093872" cy="27.76689688390412" r="0.4600546492813168"></circle><circle cx="65.01496111943047" cy="15.027797346071132" r="0.5918089710572912"></circle><circle cx="45.015617107160956" cy="8.324410934924643" r="0.5179095405543709"></circle><circle cx="63.86825038246619" cy="78.4799474347199" r="1.0690324054137363"></circle><circle cx="48.52003305217244" cy="90.13623258844535" r="0.4099315812780053"></circle><circle cx="90.6443545823272" cy="50.77985105352388" r="0.4469512779361853"></circle><circle cx="87.81187385834616" cy="40.44644750710809" r="0.4547517428398499"></circle><circle cx="82.97501331631128" cy="66.43169541955407" r="0.46618802771218376"></circle><circle cx="80.95603459541218" cy="51.88202650620311" r="0.7725559864335825"></circle><circle cx="69.64759505182153" cy="16.02439555829811" r="0.5490267150665868"></circle><circle cx="94.19064695029229" cy="48.56175813919113" r="0.42105338543166504"></circle><circle cx="60.23412753583621" cy="83.72481873211758" r="0.7482930227228953"></circle><circle cx="12.850212648320912" cy="37.48390876410652" r="0.42567380963655105"></circle><circle cx="39.86701451633037" cy="83.57419757394693" r="0.9121431178982958"></circle><circle cx="43.673407485476055" cy="90.47892176467121" r="0.6283829083122213"></circle><circle cx="18.345837269512014" cy="28.307991186994858" r="0.46422504639017614"></circle><circle cx="54.0906309433334" cy="88.67110111085954" r="0.5371393436932933"></circle><circle cx="14.611046209277767" cy="52.74981277714133" r="0.6461181329342666"></circle><circle cx="22.247614984394385" cy="76.79459180836002" r="0.5235777751773114"></circle><circle cx="92.13371496428019" cy="49.2497744595249" r="0.3539320468802393"></circle><circle cx="23.753065888716254" cy="21.56300558936032" r="0.5016594864104593"></circle><circle cx="45.753502285984794" cy="13.73151990175895" r="0.5865811757615303"></circle><circle cx="73.5728620555305" cy="17.799537146059002" r="0.6081344762378431"></circle><circle cx="13.401619062102398" cy="63.405516817920955" r="0.5770803958866876"></circle><circle cx="36.39864305171166" cy="92.43687814922939" r="0.35556857510484946"></circle><circle cx="88.24851790899166" cy="46.71634546996343" r="0.5876092518478008"></circle><circle cx="71.16513150827264" cy="84.7104723577409" r="0.4575303458613726"></circle><circle cx="12.396760826770318" cy="44.975953865950615" r="0.49209990190742925"></circle><circle cx="91.73440897130065" cy="58.779273897249745" r="0.4656977803730365"></circle><circle cx="13.13032972327077" cy="51.912920150919746" r="0.7244832455312882"></circle><circle cx="71.71503678366555" cy="13.563175458646377" r="0.6452016129303756"></circle><circle cx="83.97623496021339" cy="40.710901956074736" r="0.7597550592608187"></circle><circle cx="89.8371357463333" cy="41.21824459513441" r="0.7329230021832371"></circle><circle cx="54.12516865219062" cy="13.843677039878287" r="0.8174474276420519"></circle><circle cx="46.78208519385408" cy="10.246844662232178" r="0.6898829792624545"></circle><circle cx="57.20758225978755" cy="86.1966921225411" r="0.7929068900902704"></circle><circle cx="82.5231184192858" cy="32.633779484251136" r="0.515772360691542"></circle><circle cx="81.65939822463274" cy="56.92792420324728" r="0.595902202087925"></circle><circle cx="53.60462242828876" cy="86.73806189852242" r="0.5752125420905929"></circle><circle cx="17.47602002737323" cy="23.917316444606953" r="0.3719881074452009"></circle><circle cx="17.37016568816668" cy="34.54614692115455" r="0.5342765781036493"></circle><circle cx="24.600792083472268" cy="76.83630786781038" r="0.8229140467709999"></circle><circle cx="43.51500766187823" cy="85.31070386113092" r="0.7502648510304356"></circle><circle cx="48.86970555230646" cy="7.3784739141851645" r="0.48641042136917223"></circle><circle cx="48.26233483751677" cy="11.967294473218708" r="0.45990677467766966"></circle><circle cx="92.08439041023246" cy="35.02707616517214" r="0.6101934401070677"></circle><circle cx="27.505010666900034" cy="26.413479226864432" r="0.692764026907044"></circle><circle cx="28.909358432339623" cy="12.935594629613895" r="0.5881811405816595"></circle><circle cx="59.360444042726485" cy="90.7079823435412" r="0.3873036078123988"></circle><circle cx="8.053273694084211" cy="46.24700489180675" r="0.377625624156186"></circle><circle cx="64.30229789114989" cy="12.752984595801742" r="0.5050851775089356"></circle><circle cx="91.12644874645157" cy="32.46613669068067" r="0.5755649327726633"></circle><circle cx="14.693296720072844" cy="54.89909483588888" r="0.7470358189287335"></circle><circle cx="57.64342245090668" cy="13.393459082701796" r="0.448181688549052"></circle><circle cx="72.68051409768375" cy="84.81962515853273" r="0.444923274327657"></circle><circle cx="19.416163884179564" cy="23.648171408096395" r="0.383850442097624"></circle><circle cx="54.91630973307351" cy="6.882768041352513" r="0.48324018785501843"></circle><circle cx="57.437598120795855" cy="82.5591075046338" r="0.8876229064861535"></circle><circle cx="80.29017352301973" cy="64.71483608199961" r="0.9225266594380248"></circle><circle cx="15.267672465371831" cy="36.87692997706264" r="0.8106500936212798"></circle><circle cx="89.9124709785967" cy="68.66245950596611" r="0.345720075797351"></circle></g></g>
  <desc>Created with Snap</desc></svg>
