<svg width="100%" height="100%" viewBox="0 0 100 100" version="1.1" xmlns="http://www.w3.org/2000/svg" id="decent-logo-svg">
       <defs>
         <style type="text/css">
           @import url("https://fonts.googleapis.com/css?family=Dosis:400,700")
         </style>
         <style type="text/css">
           #text text {
             font-family: 'Dosis'
           }
         </style>
       </defs>
       <g id="svg-content"><circle cx="50" cy="50" r="25" id="shape"></circle><g textAlign="center" fill="undefined" style="text-anchor: middle; stroke-width: 0;" stroke="rgba(0,0,0,0)" id="halftones"><circle cx="27.346343847767606" cy="26.514479576384716" r="0.7716070863997132"></circle><circle cx="68.57676454913184" cy="29.481535851405095" r="0.9039836004367127"></circle><circle cx="29.952816846856678" cy="30.964990461932633" r="1.1521279061142844"></circle><circle cx="75.36238604339567" cy="38.86937286784756" r="1.2527911012405668"></circle><circle cx="73.03252372674623" cy="33.65262375275897" r="0.9057535125769626"></circle><circle cx="22.62803441976629" cy="31.348523731133106" r="0.7657775841593162"></circle><circle cx="37.67367081133708" cy="22.146323272687148" r="0.9266080704090334"></circle><circle cx="72.8466733896619" cy="28.286600292357925" r="0.7439970538487003"></circle><circle cx="14.851644605455142" cy="46.09809272951044" r="0.7805952580215483"></circle><circle cx="14.610164342079557" cy="36.85177254917291" r="0.5359295671902508"></circle><circle cx="79.20764368766083" cy="27.024463177877163" r="0.6866944018169603"></circle><circle cx="20.172822354502575" cy="43.22537759792204" r="1.0308842467080503"></circle><circle cx="81.33291595838115" cy="36.14849764269511" r="0.7801791281371371"></circle><circle cx="49.790719376785866" cy="21.429053104224803" r="1.0073005863163746"></circle><circle cx="84.28783902638071" cy="64.26160108848039" r="0.7816601316286624"></circle><circle cx="64.9545148801014" cy="73.2473279099381" r="1.2338845197306934"></circle><circle cx="79.1374262700436" cy="32.69979998321902" r="0.689193375159183"></circle><circle cx="42.40971435041537" cy="80.05928641739195" r="0.7968343460628925"></circle><circle cx="68.78232865726125" cy="72.2366551991089" r="0.877574660940412"></circle><circle cx="20.668990979995527" cy="53.85475701630245" r="0.7732632734894963"></circle><circle cx="50.95189481879669" cy="78.31675151698096" r="0.9763030864278066"></circle><circle cx="36.26501453330983" cy="74.00406427467058" r="1.4047315932698923"></circle><circle cx="63.06521717330778" cy="22.373455115451403" r="0.8127750900877606"></circle><circle cx="27.66495685317705" cy="74.90530227879675" r="0.5601642488709293"></circle><circle cx="73.37388948114327" cy="29.873408117469513" r="0.8542177473919466"></circle><circle cx="32.89653313829601" cy="28.042979091223277" r="1.091685524487285"></circle><circle cx="72.83997173193943" cy="25.62859212357493" r="0.866393119099005"></circle><circle cx="37.077679850420736" cy="87.15700449360105" r="0.6513721183860562"></circle><circle cx="58.86280492802751" cy="85.5647000084264" r="0.5333534327696932"></circle><circle cx="48.39236562757866" cy="9.68690118570192" r="0.4645671048403513"></circle><circle cx="69.14144826663323" cy="76.17471730261212" r="0.6505180859235876"></circle><circle cx="83.47393251164208" cy="68.10359344267692" r="0.6731070372010218"></circle><circle cx="90.03416684208858" cy="51.32204129323147" r="0.5143491467032064"></circle><circle cx="35.00401878914431" cy="78.88875893826969" r="0.7520707115568461"></circle><circle cx="81.07957148918948" cy="56.037479235584605" r="0.7280859879124988"></circle><circle cx="58.014481115865195" cy="77.49061083068702" r="0.936806365524174"></circle><circle cx="77.3486056032338" cy="34.08513122317434" r="1.2231006327570424"></circle><circle cx="65.03745403529057" cy="80.47999453073" r="0.9680696216023584"></circle><circle cx="50.2340380197281" cy="87.92161524257426" r="0.7291033581575986"></circle><circle cx="19.260007909076318" cy="32.372695000336606" r="0.9783100182259148"></circle><circle cx="55.6658669178914" cy="77.8256516492379" r="0.9197576949746389"></circle><circle cx="24.116598842876144" cy="65.0242343671339" r="1.0671503123923973"></circle><circle cx="22.269376972574403" cy="39.463214375535095" r="1.1010753703313498"></circle><circle cx="13.513496923004482" cy="67.4103294792527" r="0.4758742432529249"></circle><circle cx="27.440179936949804" cy="22.144492012807262" r="0.8985329773386831"></circle><circle cx="86.3276108275828" cy="74.51530497657382" r="0.37753080451665744"></circle><circle cx="77.61397039907747" cy="41.667878048547784" r="1.4794233613009653"></circle><circle cx="21.263394665902222" cy="36.48198665768744" r="1.173383092306495"></circle><circle cx="20.155973765281587" cy="49.59781643913456" r="1.3641268884591538"></circle><circle cx="25.64849976740963" cy="74.1854598673782" r="0.7733185502867213"></circle><circle cx="46.13058583055792" cy="20.981240666693136" r="0.9209410600174329"></circle><circle cx="44.207187319500235" cy="77.1933480356611" r="1.0210215614450366"></circle><circle cx="75.08569524252276" cy="74.69974189091235" r="0.5536936474705744"></circle><circle cx="81.89782236860925" cy="47.572276827957765" r="0.7493183680575498"></circle><circle cx="21.88713344967521" cy="65.38349451922888" r="1.0920737322374712"></circle><circle cx="88.36095989537144" cy="60.98606320921948" r="0.6052581055838958"></circle><circle cx="33.06254428662116" cy="80.14638757747542" r="0.9392855728775981"></circle><circle cx="77.3942261252084" cy="73.17213845137266" r="0.8317187120354486"></circle><circle cx="91.25776262554399" cy="51.67953534287588" r="0.6503653766733913"></circle><circle cx="91.45271551214005" cy="36.05716752353895" r="0.6385040533007741"></circle><circle cx="85.18945286042327" cy="54.75003621601626" r="0.8661941451078023"></circle><circle cx="74.67466040532526" cy="70.27739408742225" r="0.7456753168353131"></circle><circle cx="65.35722749337124" cy="82.80935502582014" r="0.573911466847583"></circle><circle cx="36.444102690025744" cy="76.85391665594524" r="0.8531264870770205"></circle><circle cx="46.21071878295108" cy="6.556521395422735" r="0.47017369779336227"></circle><circle cx="82.72628770439952" cy="59.54296723581637" r="0.578182392205119"></circle><circle cx="27.631917129820497" cy="78.14422434136453" r="0.6272557098223932"></circle><circle cx="80.871940397358" cy="44.108965524091595" r="0.699466165101694"></circle><circle cx="74.70352233043047" cy="76.41436313498457" r="0.5257564261867967"></circle><circle cx="39.5352482803581" cy="85.86205272169886" r="0.6115001033775791"></circle><circle cx="62.33655470329073" cy="76.7582263431589" r="0.8310694020760512"></circle><circle cx="62.60263187266978" cy="17.894954229386315" r="0.5358291650309635"></circle><circle cx="65.18621263760222" cy="75.83601484218946" r="0.8935151863504905"></circle><circle cx="51.71345866333658" cy="82.43616438603826" r="0.770745458663972"></circle><circle cx="84.97945741054761" cy="41.98779054713994" r="0.5032549688133465"></circle><circle cx="16.962945127835688" cy="29.155870827338877" r="0.7789477608313516"></circle><circle cx="47.0353710396271" cy="78.4635692244046" r="0.7651819589129254"></circle><circle cx="82.25406377214614" cy="41.96763893547812" r="0.9850303049260953"></circle><circle cx="26.98475515194617" cy="80.30252401568623" r="0.6853133362334101"></circle><circle cx="24.506408476328268" cy="29.17499229255609" r="0.7914933027841683"></circle><circle cx="76.7776791473467" cy="24.907053876292505" r="0.5456490042256514"></circle><circle cx="66.3633823206623" cy="15.028958021267819" r="0.5580842321217513"></circle><circle cx="82.10697668953162" cy="50.435499781128065" r="0.8249414744815463"></circle><circle cx="78.31294687941616" cy="67.86159679983146" r="1.0698628866369795"></circle><circle cx="24.754267550308874" cy="17.903548893422688" r="0.46140966766149094"></circle><circle cx="15.434947329157445" cy="35.67893252582639" r="0.760234774851802"></circle><circle cx="72.76153776354926" cy="71.52993110005912" r="1.120864903397512"></circle><circle cx="80.09110303967047" cy="30.19586801294512" r="0.679402042176028"></circle><circle cx="25.157257484694824" cy="62.606391994802124" r="1.1370245028653008"></circle><circle cx="71.34878780590847" cy="85.6467280080774" r="0.44747128767231337"></circle><circle cx="81.71245249289653" cy="53.65732453166801" r="0.9295108555388255"></circle><circle cx="21.40729941907237" cy="46.34706611451343" r="1.0144364191582234"></circle><circle cx="47.10461612439583" cy="86.10481219199626" r="0.5394241200828996"></circle><circle cx="70.96443476689029" cy="80.83058935445555" r="0.7115626272102678"></circle><circle cx="61.340227920213955" cy="15.207557272765882" r="0.6043991855542596"></circle><circle cx="11.220343881022266" cy="46.50247711062646" r="0.43487622793809344"></circle><circle cx="70.7667852923643" cy="84.21434324425219" r="0.5488406371671684"></circle><circle cx="42.420794764407724" cy="23.167202865264347" r="1.3147553754000754"></circle><circle cx="62.77274777955081" cy="9.966644007664833" r="0.44663770889294613"></circle><circle cx="75.73722615488023" cy="78.5376868875119" r="0.6060544195821158"></circle><circle cx="5.867170534824453" cy="52.23164852484658" r="0.42054327005144243"></circle><circle cx="72.31124896059248" cy="67.91480290583866" r="0.9538928812682658"></circle><circle cx="52.479274567173164" cy="21.536636218480577" r="1.0373971712248775"></circle><circle cx="78.54050661055665" cy="50.76580051735493" r="0.8512025485161855"></circle><circle cx="21.720832362063756" cy="61.75457885322065" r="0.7782313389554679"></circle><circle cx="60.395060114705686" cy="9.8159214585517" r="0.3853131959140523"></circle><circle cx="39.69132046661973" cy="24.064138970307013" r="1.1304207036540774"></circle><circle cx="31.795483326233384" cy="25.795890260395655" r="0.7185437544730602"></circle><circle cx="19.810003344169147" cy="62.01133176407167" r="0.9797285423499825"></circle><circle cx="60.09196902311951" cy="84.24327081150057" r="0.6694837103649773"></circle><circle cx="73.63187869050745" cy="35.498340710542585" r="1.1882320628005567"></circle><circle cx="35.7125206103591" cy="83.48161722333053" r="0.5477167415767566"></circle><circle cx="75.83305070315382" cy="26.862584760474107" r="0.7080237665714648"></circle><circle cx="84.37338998733509" cy="31.828508133092363" r="0.6848627700063517"></circle><circle cx="76.85155498120128" cy="60.963615052988224" r="1.4016832403329584"></circle><circle cx="12.752090926489231" cy="54.80788774405031" r="0.5313468897777092"></circle><circle cx="36.980794192020824" cy="80.7999691509184" r="0.6395042556318884"></circle><circle cx="33.324485275960114" cy="78.22023955983141" r="0.6093237913563305"></circle><circle cx="73.65421813616227" cy="64.99176899608946" r="1.0603057051711486"></circle><circle cx="48.30868814598614" cy="82.21949307206486" r="0.7001013281269096"></circle><circle cx="27.983717303085623" cy="15.000684516911612" r="0.47551297731140313"></circle><circle cx="17.418171158919804" cy="63.222706322906554" r="0.5895120101561536"></circle><circle cx="59.72952086182502" cy="79.47915262882215" r="0.8867997664991298"></circle><circle cx="30.789669654961237" cy="84.53218876870443" r="0.6006932896271909"></circle><circle cx="61.98572470674465" cy="78.75404253033037" r="0.6532767474127436"></circle><circle cx="62.657071902752406" cy="25.357675909764534" r="1.5914499725134015"></circle><circle cx="68.20939094921805" cy="20.68210199480606" r="0.5806257142776124"></circle><circle cx="89.23021092458498" cy="49.471024683515736" r="0.7132991500752857"></circle><circle cx="25.71459976149552" cy="35.02345775514521" r="1.1798734633971522"></circle><circle cx="78.79338337510869" cy="55.63090558174106" r="1.2760471713012922"></circle><circle cx="78.63838093447232" cy="75.80322505305381" r="0.4520814745690643"></circle><circle cx="66.5919429088009" cy="25.698206269324654" r="0.9139625779718883"></circle><circle cx="33.54431442436058" cy="87.74870053012" r="0.40251255106877315"></circle><circle cx="80.52263558660914" cy="34.574279790201196" r="0.7315292202168265"></circle><circle cx="66.73013952690646" cy="83.15813508246967" r="0.8900766649390448"></circle><circle cx="77.91199882669" cy="47.62668747732805" r="1.1146838070739327"></circle><circle cx="37.159093833975376" cy="24.974111311507865" r="1.4393832085522076"></circle><circle cx="10.740962219582364" cy="54.41686992924231" r="0.441101968888699"></circle><circle cx="16.929943075537082" cy="44.0851087757934" r="0.973641344045625"></circle><circle cx="67.541133740333" cy="18.443612893840086" r="0.5136060052041393"></circle><circle cx="86.11519896922562" cy="43.658785949136785" r="0.920777418603661"></circle><circle cx="79.54605408239337" cy="65.5733106150105" r="0.8375326461417878"></circle><circle cx="28.022318979380866" cy="67.00212004592042" r="1.202262120790465"></circle><circle cx="42.44313523881297" cy="17.954704128550127" r="0.6434373074858001"></circle><circle cx="30.401966208884286" cy="16.97050087937464" r="0.8370404628282845"></circle><circle cx="86.18922137043909" cy="61.761626178011184" r="0.5361640623564333"></circle><circle cx="35.869204479809405" cy="15.038123854770795" r="0.6129009173816672"></circle><circle cx="18.40501153204449" cy="76.68846428262617" r="0.47447116811315265"></circle><circle cx="64.6477015610685" cy="85.500534905764" r="0.493846442765145"></circle><circle cx="25.53317821097675" cy="30.947592622217975" r="0.9929691777195622"></circle><circle cx="81.18488188303235" cy="70.43804667098382" r="0.6252538858411353"></circle><circle cx="79.91874171744493" cy="24.826774811798085" r="0.6992878635641147"></circle><circle cx="20.207974917192132" cy="58.20105796075711" r="0.8011297679694023"></circle><circle cx="59.32642642112477" cy="20.975470107986585" r="0.9268576540648257"></circle><circle cx="58.958984379488676" cy="88.29389333590908" r="0.662454097866735"></circle><circle cx="41.56836736326716" cy="19.887479060840334" r="0.7960326404253889"></circle><circle cx="87.1385357784044" cy="27.907044780021273" r="0.6289488327557713"></circle><circle cx="23.820762626545232" cy="21.119585438055186" r="0.44439283674130414"></circle><circle cx="53.36904495933078" cy="15.006376733537635" r="0.5230062836473393"></circle><circle cx="87.50322645052995" cy="48.04212124496314" r="0.8546244047040393"></circle><circle cx="86.94008850138243" cy="54.75989353349101" r="0.8421528155562288"></circle><circle cx="77.60065941476263" cy="44.62845272457237" r="0.8071247486453087"></circle><circle cx="31.186299526486287" cy="74.33857871785185" r="1.2902872828999374"></circle><circle cx="48.965240883418964" cy="91.97651052542463" r="0.3678410800745213"></circle><circle cx="43.1435526121158" cy="84.86307600395853" r="0.781605746899902"></circle><circle cx="25.372732456555564" cy="67.51947072871513" r="0.7180182325415899"></circle><circle cx="42.695805309514476" cy="82.00349867290022" r="0.5881746437743347"></circle><circle cx="13.697540594702872" cy="52.53129572225994" r="0.5396131943330164"></circle><circle cx="40.903977534160354" cy="82.544483955916" r="0.5509857080244907"></circle><circle cx="73.91773277291716" cy="23.49668435252476" r="0.7727990210286058"></circle><circle cx="68.19202992041275" cy="27.572993531237728" r="1.1607677811632866"></circle><circle cx="32.7272551914464" cy="17.119739088637736" r="0.7520623674411877"></circle><circle cx="41.39814420266111" cy="90.61529468282909" r="0.3700857289938383"></circle><circle cx="23.67579198091455" cy="59.67551190722338" r="0.8613057490960726"></circle><circle cx="91.83489931504154" cy="60.673223703959096" r="0.4037994583364534"></circle><circle cx="60.341961102768046" cy="75.64976962287561" r="0.8788945325913113"></circle><circle cx="65.9120762930175" cy="86.03855278542113" r="0.5278981713849146"></circle><circle cx="40.71253850731213" cy="80.44231851141669" r="0.725266270755718"></circle><circle cx="87.92484324130506" cy="59.539638949659256" r="0.44644229109432676"></circle><circle cx="56.882484023714404" cy="21.34091452672796" r="0.7282677425190837"></circle><circle cx="38.26856916529926" cy="19.675566433178798" r="1.0999881264447116"></circle><circle cx="57.15553728579312" cy="80.24144192433053" r="1.2271636196639264"></circle><circle cx="77.19357208183108" cy="64.93096366004517" r="0.6549794458473834"></circle><circle cx="25.427643514898055" cy="78.71061369199325" r="0.43909877203629943"></circle><circle cx="40.09162626897172" cy="77.99473971209754" r="1.080965131768"></circle><circle cx="38.693902629784745" cy="82.45520392281789" r="0.531142661072645"></circle><circle cx="85.9608264742035" cy="51.29100907106426" r="0.5019178406467619"></circle><circle cx="70.35316134721103" cy="23.40480131794467" r="0.9530585025383079"></circle><circle cx="53.060202108963146" cy="19.36666841109469" r="0.8490192074755426"></circle><circle cx="52.80160616312442" cy="16.79684324044191" r="0.8679050962138343"></circle><circle cx="28.559541187878473" cy="28.43208529368608" r="0.7844391764556387"></circle><circle cx="21.386177247848966" cy="55.92638506163492" r="0.8370167198236201"></circle><circle cx="47.7715626406462" cy="18.09570762053304" r="0.9658948561793019"></circle><circle cx="80.9148269805961" cy="58.394122237915504" r="1.084835784606008"></circle><circle cx="33.509899849416385" cy="24.514397760768706" r="1.2878224747500073"></circle><circle cx="30.598378360192942" cy="21.26646634696823" r="0.5265714284706629"></circle><circle cx="76.02398479787223" cy="30.313504091440464" r="1.089185289180564"></circle><circle cx="71.12926262062939" cy="30.610838748719264" r="1.2378011382253886"></circle><circle cx="18.544697316546948" cy="71.8461516758521" r="0.4737944273655071"></circle><circle cx="53.69354735718601" cy="82.65560061098414" r="0.6161521152055691"></circle><circle cx="14.128508628833394" cy="68.81464881368359" r="0.4883244934432527"></circle><circle cx="64.0780068141371" cy="86.91173548660353" r="0.7706495434350953"></circle><circle cx="25.40449247737913" cy="22.609654988564206" r="0.8806508925182162"></circle><circle cx="78.21375405562986" cy="31.03372108314074" r="0.638039593207207"></circle><circle cx="86.37808855713219" cy="63.35988586083311" r="0.6295018150931838"></circle><circle cx="58.95818996077507" cy="16.900458705133737" r="1.0616816598082663"></circle><circle cx="40.91129946777019" cy="84.84275877044098" r="0.5221209178468286"></circle><circle cx="24.823253827228754" cy="19.052548373803557" r="0.582200654728808"></circle><circle cx="74.58949720529584" cy="68.64429590789449" r="0.9575184991404548"></circle><circle cx="67.42859167699768" cy="74.70907350072399" r="0.942348901749666"></circle><circle cx="64.10022117062792" cy="17.520224284964712" r="0.5456006532793435"></circle><circle cx="50.038142241789025" cy="17.423291032718346" r="1.0017621746160121"></circle><circle cx="44.07609479603415" cy="81.56051844108013" r="0.6339120374349668"></circle><circle cx="84.56989812669309" cy="40.39671461712676" r="0.6779585026415047"></circle><circle cx="70.21515396044445" cy="19.73413962769015" r="0.5174611914164767"></circle><circle cx="51.14231310615008" cy="10.696411913160212" r="0.48026021739015207"></circle><circle cx="30.147748499019905" cy="82.37690502645967" r="0.7657865225109148"></circle><circle cx="27.943618405982484" cy="17.859229398961205" r="0.581476862281296"></circle><circle cx="18.19118751692447" cy="53.52961511596225" r="0.7702495449555293"></circle><circle cx="69.02103100493967" cy="83.08472506305384" r="0.7065487828147791"></circle><circle cx="42.535491081882626" cy="14.794081384002233" r="0.5597204211376934"></circle><circle cx="69.17127328514641" cy="78.00175178927506" r="0.7447305916684509"></circle><circle cx="77.3612629937611" cy="70.91847004342702" r="0.7944338521965975"></circle><circle cx="29.550088806852596" cy="78.68834443972963" r="0.5268111342664527"></circle><circle cx="34.34008661992243" cy="17.036566999250525" r="0.6578656083824382"></circle><circle cx="20.508895299426133" cy="28.549717018107568" r="0.5853102082855409"></circle><circle cx="85.56250258862683" cy="34.55024420058438" r="0.4826101495057454"></circle><circle cx="41.35052521409166" cy="13.013026827940017" r="0.7023453736072425"></circle><circle cx="44.35586698733812" cy="15.260855543787535" r="0.627359301679953"></circle><circle cx="43.6488900722547" cy="87.7076897949437" r="0.5103528654950259"></circle><circle cx="39.45601613277693" cy="87.8600880524137" r="0.7982196360415073"></circle><circle cx="82.36648714400587" cy="26.877309587945607" r="0.6523217660794934"></circle><circle cx="14.725354992710997" cy="58.88162091251464" r="0.7297199997382559"></circle><circle cx="10.95599180490887" cy="55.57388164928399" r="0.45273134560049594"></circle><circle cx="75.41375742126974" cy="72.28170577177943" r="0.9907818028265618"></circle><circle cx="42.49139720688984" cy="87.4416685754735" r="0.46105249405436877"></circle><circle cx="20.51689897801429" cy="72.97916435142427" r="0.522328481428689"></circle><circle cx="29.043466484825718" cy="70.85337306323919" r="0.9646384084990534"></circle><circle cx="56.22033362129262" cy="12.907274971752095" r="0.4954114901987573"></circle><circle cx="18.039676195536963" cy="37.477518099207664" r="0.8980956981515608"></circle><circle cx="75.01568823320217" cy="17.597308483764657" r="0.5066300292334399"></circle><circle cx="24.031897747348335" cy="73.82894543520942" r="0.9570923831058475"></circle><circle cx="13.642565329706258" cy="34.65873012256185" r="0.5899395987629924"></circle><circle cx="37.65666166232955" cy="84.09778720805008" r="0.5372056804557468"></circle><circle cx="14.109345074990692" cy="32.989255323869756" r="0.6618068626053071"></circle><circle cx="15.403701872260463" cy="28.259307245873735" r="0.4419910554108819"></circle><circle cx="79.5993743344115" cy="71.05167769396185" r="0.5302080038659143"></circle><circle cx="56.74315520441715" cy="86.70394976541675" r="0.4547853462276058"></circle><circle cx="26.184829888382062" cy="70.76241280404471" r="1.0323359241381613"></circle><circle cx="19.690347756079277" cy="74.32966193822935" r="0.43623006885855625"></circle><circle cx="31.480480416592698" cy="71.09151730390386" r="1.0339137212828302"></circle><circle cx="12.71296737050534" cy="57.63236881509858" r="0.5170299312656589"></circle><circle cx="48.824389405306164" cy="79.67646170051518" r="0.9850640699608486"></circle><circle cx="75.57965335223828" cy="24.570319977954593" r="0.6271668115904923"></circle><circle cx="18.78679536929321" cy="34.52734966395066" r="0.7580645939635452"></circle><circle cx="25.75484873460843" cy="76.57067055329009" r="0.8765382884243894"></circle><circle cx="67.09666876213569" cy="79.34057038812517" r="1.047151142272652"></circle><circle cx="17.01934062955157" cy="55.696571288128844" r="1.0195328744119476"></circle><circle cx="28.11159325264883" cy="73.69033088317799" r="0.6181196449284827"></circle><circle cx="84.80625728587184" cy="26.560994680782738" r="0.3616703163533925"></circle><circle cx="14.923090024248836" cy="38.42130369121635" r="0.532352901379008"></circle><circle cx="45.00758978765513" cy="83.14743206745626" r="0.6963742171577461"></circle><circle cx="52.343743159491105" cy="11.148545106170722" r="0.510775143213118"></circle><circle cx="68.3599339221989" cy="12.8161481791429" r="0.5865130606478703"></circle><circle cx="18.28454564101627" cy="57.91401156199799" r="0.9802044208791263"></circle><circle cx="56.497883835583615" cy="90.57365020744935" r="0.4082104331149516"></circle><circle cx="19.929584195926893" cy="24.592294093641524" r="0.47533742806458057"></circle><circle cx="18.968660082818303" cy="23.801550431091208" r="0.576704366436373"></circle><circle cx="78.17149594853939" cy="52.91298095245079" r="1.4521682752796918"></circle><circle cx="14.160906189590094" cy="75.50369890976026" r="0.5448929810625773"></circle><circle cx="15.541020931447996" cy="53.010067551128316" r="0.5716542945778159"></circle><circle cx="81.61816598818393" cy="65.27610066466431" r="0.5580551849020047"></circle><circle cx="33.92088571396355" cy="21.811698848349714" r="0.7252824225525518"></circle><circle cx="54.703842541284416" cy="93.85457635265215" r="0.604092853742157"></circle><circle cx="63.33487236425623" cy="84.62264597918815" r="0.4694527495953522"></circle><circle cx="14.49668703032011" cy="63.5960526882419" r="0.4624969935262425"></circle><circle cx="17.28578083816066" cy="41.92217678158774" r="0.5907215068926656"></circle><circle cx="71.36916504297781" cy="76.90838432410206" r="0.5944327878166599"></circle><circle cx="29.533639959572888" cy="80.09823588149159" r="0.47892329568943887"></circle><circle cx="30.111701753924383" cy="15.122541307731694" r="0.6401335719672149"></circle><circle cx="91.01236273705233" cy="54.56302580643241" r="0.6437366566299924"></circle><circle cx="21.28400997462933" cy="19.331971241244986" r="0.5553127128668179"></circle><circle cx="32.230862039929136" cy="82.69098785669169" r="0.46300055690047986"></circle><circle cx="24.580169450987526" cy="37.852070954096845" r="1.0291073007564753"></circle><circle cx="17.764998370558224" cy="69.97423932865372" r="0.8604792802292265"></circle><circle cx="82.59015385100055" cy="44.11874499316442" r="0.998919868531689"></circle><circle cx="17.235213519865205" cy="64.85418283548385" r="0.7829126056460947"></circle><circle cx="80.27391278305234" cy="38.25529000707261" r="0.6120740021548932"></circle><circle cx="31.11840917112129" cy="19.738059914201948" r="0.8557792025843666"></circle><circle cx="87.63535189210272" cy="38.05090517037253" r="0.6046779752931077"></circle><circle cx="61.23861230338065" cy="81.57402042770192" r="0.6361758517044851"></circle><circle cx="37.41661817555921" cy="16.993820307396675" r="0.6694923958691498"></circle><circle cx="39.31954387392758" cy="15.196777038498986" r="0.7800300172974981"></circle><circle cx="84.86182427119039" cy="59.13837273357126" r="0.9590438843911034"></circle></g></g>
  <desc>Created with Snap</desc></svg>
