<svg width="642" height="655" viewBox="0 0 642 655" fill="none" xmlns="http://www.w3.org/2000/svg">
    <path d="M329.5 510.25C431.535 510.25 514.25 427.535 514.25 325.5C514.25 223.465 431.535 140.75 329.5 140.75C227.466 140.75 144.75 223.465 144.75 325.5C144.75 427.535 227.466 510.25 329.5 510.25Z M162.36 157.646C165.509 157.646 168.062 155.093 168.062 151.944C168.062 148.794 165.509 146.242 162.36 146.242C159.211 146.242 156.658 148.794 156.658 151.944C156.658 155.093 159.211 157.646 162.36 157.646Z M466.805 180.554C470.494 180.554 473.485 177.563 473.485 173.873C473.485 170.184 470.494 167.193 466.805 167.193C463.115 167.193 460.124 170.184 460.124 173.873C460.124 177.563 463.115 180.554 466.805 180.554Z M181.41 193.344C186.112 193.344 189.924 189.532 189.924 184.829C189.924 180.127 186.112 176.315 181.41 176.315C176.708 176.315 172.896 180.127 172.896 184.829C172.896 189.532 176.708 193.344 181.41 193.344Z M517.013 252.51C522.126 252.51 526.271 248.365 526.271 243.251C526.271 238.138 522.126 233.993 517.013 233.993C511.9 233.993 507.755 238.138 507.755 243.251C507.755 248.365 511.9 252.51 517.013 252.51Z M500.015 211.387C503.711 211.387 506.708 208.39 506.708 204.693C506.708 200.996 503.711 197.999 500.015 197.999C496.318 197.999 493.321 200.996 493.321 204.693C493.321 208.39 496.318 211.387 500.015 211.387Z M127.315 193.328C130.441 193.328 132.975 190.794 132.975 187.669C132.975 184.543 130.441 182.01 127.315 182.01C124.19 182.01 121.656 184.543 121.656 187.669C121.656 190.794 124.19 193.328 127.315 193.328Z M238.56 126.514C242.342 126.514 245.408 123.448 245.408 119.666C245.408 115.885 242.342 112.819 238.56 112.819C234.778 112.819 231.712 115.885 231.712 119.666C231.712 123.448 234.778 126.514 238.56 126.514Z M498.459 170.544C501.495 170.544 503.957 168.082 503.957 165.046C503.957 162.009 501.495 159.547 498.459 159.547C495.422 159.547 492.96 162.009 492.96 165.046C492.96 168.082 495.422 170.544 498.459 170.544Z M70.0511 302.442C73.237 302.442 75.8197 299.859 75.8197 296.673C75.8197 293.487 73.237 290.904 70.0511 290.904C66.8652 290.904 64.2825 293.487 64.2825 296.673C64.2825 299.859 66.8652 302.442 70.0511 302.442Z M68.2431 232.296C70.4304 232.296 72.2036 230.522 72.2036 228.335C72.2036 226.148 70.4304 224.375 68.2431 224.375C66.0557 224.375 64.2826 226.148 64.2826 228.335C64.2826 230.522 66.0557 232.296 68.2431 232.296Z M545.666 160.789C548.468 160.789 550.74 158.517 550.74 155.714C550.74 152.911 548.468 150.639 545.666 150.639C542.863 150.639 540.591 152.911 540.591 155.714C540.591 158.517 542.863 160.789 545.666 160.789Z M109.068 283.059C113.275 283.059 116.686 279.648 116.686 275.44C116.686 271.233 113.275 267.822 109.068 267.822C104.86 267.822 101.449 271.233 101.449 275.44C101.449 279.648 104.86 283.059 109.068 283.059Z M561.151 228.903C564.336 228.903 566.917 226.322 566.917 223.138C566.917 219.953 564.336 217.372 561.151 217.372C557.967 217.372 555.386 219.953 555.386 223.138C555.386 226.322 557.967 228.903 561.151 228.903Z M328.284 121.809C332.395 121.809 335.728 118.476 335.728 114.365C335.728 110.254 332.395 106.921 328.284 106.921C324.172 106.921 320.84 110.254 320.84 114.365C320.84 118.476 324.172 121.809 328.284 121.809Z M583.173 436.667C586.364 436.667 588.95 434.081 588.95 430.891C588.95 427.701 586.364 425.114 583.173 425.114C579.983 425.114 577.397 427.701 577.397 430.891C577.397 434.081 579.983 436.667 583.173 436.667Z M440.015 506.419C445.051 506.419 449.133 502.337 449.133 497.301C449.133 492.265 445.051 488.182 440.015 488.182C434.979 488.182 430.896 492.265 430.896 497.301C430.896 502.337 434.979 506.419 440.015 506.419Z M544.963 202.751C547.776 202.751 550.056 200.47 550.056 197.657C550.056 194.845 547.776 192.564 544.963 192.564C542.15 192.564 539.87 194.845 539.87 197.657C539.87 200.47 542.15 202.751 544.963 202.751Z M273.685 553.533C276.937 553.533 279.573 550.897 279.573 547.644C279.573 544.392 276.937 541.756 273.685 541.756C270.433 541.756 267.796 544.392 267.796 547.644C267.796 550.897 270.433 553.533 273.685 553.533Z M468.414 496.315C471.995 496.315 474.899 493.412 474.899 489.83C474.899 486.248 471.995 483.345 468.414 483.345C464.832 483.345 461.928 486.248 461.928 489.83C461.928 493.412 464.832 496.315 468.414 496.315Z M112.937 359.707C116.093 359.707 118.651 357.148 118.651 353.992C118.651 350.836 116.093 348.278 112.937 348.278C109.781 348.278 107.223 350.836 107.223 353.992C107.223 357.148 109.781 359.707 112.937 359.707Z M336.715 541.978C340.7 541.978 343.93 538.747 343.93 534.763C343.93 530.778 340.7 527.548 336.715 527.548C332.73 527.548 329.5 530.778 329.5 534.763C329.5 538.747 332.73 541.978 336.715 541.978Z M228.021 513.274C233.754 513.274 238.402 508.627 238.402 502.893C238.402 497.16 233.754 492.512 228.021 492.512C222.288 492.512 217.64 497.16 217.64 502.893C217.64 508.627 222.288 513.274 228.021 513.274Z M426.077 127.346C429.395 127.346 432.084 124.657 432.084 121.34C432.084 118.022 429.395 115.333 426.077 115.333C422.76 115.333 420.071 118.022 420.071 121.34C420.071 124.657 422.76 127.346 426.077 127.346Z M164.766 513.692C167.053 513.692 168.906 511.838 168.906 509.552C168.906 507.266 167.053 505.412 164.766 505.412C162.48 505.412 160.627 507.266 160.627 509.552C160.627 511.838 162.48 513.692 164.766 513.692Z M502.521 183.077C506.007 183.077 508.833 180.251 508.833 176.764C508.833 173.278 506.007 170.452 502.521 170.452C499.034 170.452 496.208 173.278 496.208 176.764C496.208 180.251 499.034 183.077 502.521 183.077Z M203.335 171.307C207.791 171.307 211.403 167.695 211.403 163.24C211.403 158.784 207.791 155.172 203.335 155.172C198.879 155.172 195.267 158.784 195.267 163.24C195.267 167.695 198.879 171.307 203.335 171.307Z M498.281 151.796C501.817 151.796 504.683 148.93 504.683 145.394C504.683 141.857 501.817 138.991 498.281 138.991C494.745 138.991 491.878 141.857 491.878 145.394C491.878 148.93 494.745 151.796 498.281 151.796Z M234 604.911C236.659 604.911 238.814 602.756 238.814 600.098C238.814 597.439 236.659 595.284 234 595.284C231.342 595.284 229.187 597.439 229.187 600.098C229.187 602.756 231.342 604.911 234 604.911Z M395.145 592.263C397.322 592.263 399.087 590.498 399.087 588.321C399.087 586.145 397.322 584.38 395.145 584.38C392.968 584.38 391.204 586.145 391.204 588.321C391.204 590.498 392.968 592.263 395.145 592.263Z M317.778 31.0199C319.674 31.0199 321.211 29.4828 321.211 27.5868C321.211 25.6907 319.674 24.1536 317.778 24.1536C315.882 24.1536 314.345 25.6907 314.345 27.5868C314.345 29.4828 315.882 31.0199 317.778 31.0199Z M471.066 523.744C473.721 523.744 475.873 521.591 475.873 518.936C475.873 516.281 473.721 514.129 471.066 514.129C468.411 514.129 466.258 516.281 466.258 518.936C466.258 521.591 468.411 523.744 471.066 523.744Z M576.959 464.257C579.706 464.257 581.933 462.03 581.933 459.283C581.933 456.536 579.706 454.309 576.959 454.309C574.212 454.309 571.984 456.536 571.984 459.283C571.984 462.03 574.212 464.257 576.959 464.257Z M625.581 339.078C627.68 339.078 629.382 337.377 629.382 335.277C629.382 333.178 627.68 331.476 625.581 331.476C623.482 331.476 621.78 333.178 621.78 335.277C621.78 337.377 623.482 339.078 625.581 339.078Z M218.867 544.55C221.937 544.55 224.425 542.061 224.425 538.992C224.425 535.922 221.937 533.434 218.867 533.434C215.798 533.434 213.31 535.922 213.31 538.992C213.31 542.061 215.798 544.55 218.867 544.55Z M559.323 375.502C562.295 375.502 564.704 373.093 564.704 370.122C564.704 367.15 562.295 364.741 559.323 364.741C556.351 364.741 553.942 367.15 553.942 370.122C553.942 373.093 556.351 375.502 559.323 375.502Z M388.745 535.586C392.568 535.586 395.668 532.487 395.668 528.663C395.668 524.84 392.568 521.74 388.745 521.74C384.921 521.74 381.822 524.84 381.822 528.663C381.822 532.487 384.921 535.586 388.745 535.586Z M531.949 216.934C536.941 216.934 540.987 212.887 540.987 207.895C540.987 202.903 536.941 198.856 531.949 198.856C526.957 198.856 522.91 202.903 522.91 207.895C522.91 212.887 526.957 216.934 531.949 216.934Z M440.937 557.902C444.888 557.902 448.091 554.699 448.091 550.748C448.091 546.797 444.888 543.594 440.937 543.594C436.985 543.594 433.783 546.797 433.783 550.748C433.783 554.699 436.985 557.902 440.937 557.902Z M331.28 611.135C334.256 611.135 336.668 608.722 336.668 605.746C336.668 602.771 334.256 600.358 331.28 600.358C328.304 600.358 325.892 602.771 325.892 605.746C325.892 608.722 328.304 611.135 331.28 611.135Z M102.545 202.468C106.537 202.468 109.774 199.231 109.774 195.238C109.774 191.246 106.537 188.009 102.545 188.009C98.5517 188.009 95.3149 191.246 95.3149 195.238C95.3149 199.231 98.5517 202.468 102.545 202.468Z M371.659 537.928C375.413 537.928 378.456 534.885 378.456 531.131C378.456 527.377 375.413 524.334 371.659 524.334C367.905 524.334 364.862 527.377 364.862 531.131C364.862 534.885 367.905 537.928 371.659 537.928Z M138.563 444.416C142.919 444.416 146.449 440.885 146.449 436.53C146.449 432.175 142.919 428.644 138.563 428.644C134.208 428.644 130.677 432.175 130.677 436.53C130.677 440.885 134.208 444.416 138.563 444.416Z M124.741 255.77C129.235 255.77 132.878 252.127 132.878 247.633C132.878 243.139 129.235 239.496 124.741 239.496C120.248 239.496 116.604 243.139 116.604 247.633C116.604 252.127 120.248 255.77 124.741 255.77Z M59.8612 457.677C61.8034 457.677 63.3779 456.103 63.3779 454.16C63.3779 452.218 61.8034 450.644 59.8612 450.644C57.919 450.644 56.3445 452.218 56.3445 454.16C56.3445 456.103 57.919 457.677 59.8612 457.677Z M162.937 126.291C166.604 126.291 169.577 123.318 169.577 119.651C169.577 115.983 166.604 113.01 162.937 113.01C159.27 113.01 156.297 115.983 156.297 119.651C156.297 123.318 159.27 126.291 162.937 126.291Z M598.229 509.459C599.77 509.459 601.019 508.21 601.019 506.669C601.019 505.128 599.77 503.879 598.229 503.879C596.688 503.879 595.439 505.128 595.439 506.669C595.439 508.21 596.688 509.459 598.229 509.459Z M533.843 274.86C539.881 274.86 544.776 269.965 544.776 263.927C544.776 257.889 539.881 252.994 533.843 252.994C527.805 252.994 522.91 257.889 522.91 263.927C522.91 269.965 527.805 274.86 533.843 274.86Z M117.337 234.275C122.126 234.275 126.009 230.393 126.009 225.604C126.009 220.815 122.126 216.932 117.337 216.932C112.548 216.932 108.666 220.815 108.666 225.604C108.666 230.393 112.548 234.275 117.337 234.275Z M109.004 332.615C114.572 332.615 119.085 328.102 119.085 322.534C119.085 316.967 114.572 312.453 109.004 312.453C103.437 312.453 98.9235 316.967 98.9235 322.534C98.9235 328.102 103.437 332.615 109.004 332.615Z M149.743 509.952C152.899 509.952 155.458 507.394 155.458 504.238C155.458 501.081 152.899 498.523 149.743 498.523C146.587 498.523 144.028 501.081 144.028 504.238C144.028 507.394 146.587 509.952 149.743 509.952Z M300.944 117.86C304.702 117.86 307.749 114.813 307.749 111.055C307.749 107.296 304.702 104.249 300.944 104.249C297.185 104.249 294.138 107.296 294.138 111.055C294.138 114.813 297.185 117.86 300.944 117.86Z M286.889 534.012C291.056 534.012 294.434 530.634 294.434 526.467C294.434 522.3 291.056 518.921 286.889 518.921C282.721 518.921 279.343 522.3 279.343 526.467C279.343 530.634 282.721 534.012 286.889 534.012Z M515.094 512.13C517.354 512.13 519.186 510.298 519.186 508.038C519.186 505.779 517.354 503.947 515.094 503.947C512.834 503.947 511.002 505.779 511.002 508.038C511.002 510.298 512.834 512.13 515.094 512.13Z M565.253 313.098C568.312 313.098 570.791 310.619 570.791 307.56C570.791 304.502 568.312 302.023 565.253 302.023C562.195 302.023 559.716 304.502 559.716 307.56C559.716 310.619 562.195 313.098 565.253 313.098Z M121.788 447.254C126.246 447.254 129.859 443.641 129.859 439.184C129.859 434.727 126.246 431.113 121.788 431.113C117.331 431.113 113.718 434.727 113.718 439.184C113.718 443.641 117.331 447.254 121.788 447.254Z M613.263 411.158C615.733 411.158 617.736 409.155 617.736 406.685C617.736 404.215 615.733 402.212 613.263 402.212C610.793 402.212 608.79 404.215 608.79 406.685C608.79 409.155 610.793 411.158 613.263 411.158Z M204.374 555.221C208.208 555.221 211.315 552.113 211.315 548.28C211.315 544.446 208.208 541.339 204.374 541.339C200.54 541.339 197.433 544.446 197.433 548.28C197.433 552.113 200.54 555.221 204.374 555.221Z M531.943 502.888C535.338 502.888 538.09 500.137 538.09 496.742C538.09 493.347 535.338 490.596 531.943 490.596C528.549 490.596 525.797 493.347 525.797 496.742C525.797 500.137 528.549 502.888 531.943 502.888Z M634.525 342.724C637.179 342.724 639.331 340.572 639.331 337.918C639.331 335.263 637.179 333.111 634.525 333.111C631.871 333.111 629.719 335.263 629.719 337.918C629.719 340.572 631.871 342.724 634.525 342.724Z M635.881 227.181C638.487 227.181 640.599 225.069 640.599 222.463C640.599 219.857 638.487 217.744 635.881 217.744C633.275 217.744 631.162 219.857 631.162 222.463C631.162 225.069 633.275 227.181 635.881 227.181Z M589.572 367.012C593.107 367.012 595.973 364.146 595.973 360.61C595.973 357.075 593.107 354.209 589.572 354.209C586.037 354.209 583.171 357.075 583.171 360.61C583.171 364.146 586.037 367.012 589.572 367.012Z M512.183 480.868C515.226 480.868 517.693 478.401 517.693 475.358C517.693 472.314 515.226 469.847 512.183 469.847C509.139 469.847 506.672 472.314 506.672 475.358C506.672 478.401 509.139 480.868 512.183 480.868Z M443.076 572.204C445.418 572.204 447.317 570.305 447.317 567.963C447.317 565.621 445.418 563.722 443.076 563.722C440.733 563.722 438.835 565.621 438.835 567.963C438.835 570.305 440.733 572.204 443.076 572.204Z M229.357 530.256C232.839 530.256 235.662 527.434 235.662 523.952C235.662 520.47 232.839 517.647 229.357 517.647C225.875 517.647 223.052 520.47 223.052 523.952C223.052 527.434 225.875 530.256 229.357 530.256Z M301.582 7.9301C303.501 7.9301 305.056 6.37447 305.056 4.45551C305.056 2.53655 303.501 0.980927 301.582 0.980927C299.663 0.980927 298.107 2.53655 298.107 4.45551C298.107 6.37447 299.663 7.9301 301.582 7.9301Z M571.566 400.293C573.926 400.293 575.839 398.381 575.839 396.021C575.839 393.661 573.926 391.748 571.566 391.748C569.206 391.748 567.293 393.661 567.293 396.021C567.293 398.381 569.206 400.293 571.566 400.293Z M164.54 538.127C167.101 538.127 169.176 536.051 169.176 533.491C169.176 530.931 167.101 528.856 164.54 528.856C161.98 528.856 159.905 530.931 159.905 533.491C159.905 536.051 161.98 538.127 164.54 538.127Z M557.668 287.136C560.523 287.136 562.837 284.822 562.837 281.967C562.837 279.112 560.523 276.798 557.668 276.798C554.813 276.798 552.499 279.112 552.499 281.967C552.499 284.822 554.813 287.136 557.668 287.136Z M512.362 524.595C514.508 524.595 516.247 522.855 516.247 520.709C516.247 518.564 514.508 516.824 512.362 516.824C510.216 516.824 508.476 518.564 508.476 520.709C508.476 522.855 510.216 524.595 512.362 524.595Z M252.469 595.042C254.965 595.042 256.988 593.019 256.988 590.523C256.988 588.027 254.965 586.004 252.469 586.004C249.973 586.004 247.95 588.027 247.95 590.523C247.95 593.019 249.973 595.042 252.469 595.042Z M420.8 529.389C424.192 529.389 426.941 526.639 426.941 523.248C426.941 519.856 424.192 517.106 420.8 517.106C417.408 517.106 414.658 519.856 414.658 523.248C414.658 526.639 417.408 529.389 420.8 529.389Z M422.948 92.2094C425.135 92.2094 426.908 90.4365 426.908 88.2496C426.908 86.0627 425.135 84.2898 422.948 84.2898C420.761 84.2898 418.988 86.0627 418.988 88.2496C418.988 90.4365 420.761 92.2094 422.948 92.2094Z M441.829 523.039C445.476 523.039 448.432 520.083 448.432 516.436C448.432 512.789 445.476 509.833 441.829 509.833C438.182 509.833 435.226 512.789 435.226 516.436C435.226 520.083 438.182 523.039 441.829 523.039Z M342.412 570.896C345.558 570.896 348.108 568.346 348.108 565.2C348.108 562.055 345.558 559.505 342.412 559.505C339.267 559.505 336.717 562.055 336.717 565.2C336.717 568.346 339.267 570.896 342.412 570.896Z M588.333 270.017C590.387 270.017 592.052 268.352 592.052 266.298C592.052 264.244 590.387 262.579 588.333 262.579C586.279 262.579 584.614 264.244 584.614 266.298C584.614 268.352 586.279 270.017 588.333 270.017Z M85.5552 177.217C88.7344 177.217 91.3116 174.64 91.3116 171.461C91.3116 168.282 88.7344 165.704 85.5552 165.704C82.376 165.704 79.7988 168.282 79.7988 171.461C79.7988 174.64 82.376 177.217 85.5552 177.217Z M307.731 541.507C310.854 541.507 313.386 538.975 313.386 535.852C313.386 532.729 310.854 530.198 307.731 530.198C304.608 530.198 302.076 532.729 302.076 535.852C302.076 538.975 304.608 541.507 307.731 541.507Z M568.078 273.427C572.098 273.427 575.357 270.168 575.357 266.148C575.357 262.128 572.098 258.869 568.078 258.869C564.057 258.869 560.798 262.128 560.798 266.148C560.798 270.168 564.057 273.427 568.078 273.427Z M159.557 554.501C162.354 554.501 164.622 552.233 164.622 549.436C164.622 546.639 162.354 544.372 159.557 544.372C156.76 544.372 154.493 546.639 154.493 549.436C154.493 552.233 156.76 554.501 159.557 554.501Z M141.217 177.459C144.448 177.459 147.066 174.84 147.066 171.61C147.066 168.379 144.448 165.761 141.217 165.761C137.987 165.761 135.368 168.379 135.368 171.61C135.368 174.84 137.987 177.459 141.217 177.459Z M527.664 144.101C529.891 144.101 531.696 142.296 531.696 140.069C531.696 137.842 529.891 136.036 527.664 136.036C525.437 136.036 523.632 137.842 523.632 140.069C523.632 142.296 525.437 144.101 527.664 144.101Z M450.536 71.1924C452.814 71.1924 454.661 69.3459 454.661 67.0681C454.661 64.7904 452.814 62.9439 450.536 62.9439C448.259 62.9439 446.412 64.7904 446.412 67.0681C446.412 69.3459 448.259 71.1924 450.536 71.1924Z M566.895 334.817C570.262 334.817 572.991 332.088 572.991 328.721C572.991 325.354 570.262 322.625 566.895 322.625C563.528 322.625 560.798 325.354 560.798 328.721C560.798 332.088 563.528 334.817 566.895 334.817Z M538.755 465.408C543.122 465.408 546.661 461.868 546.661 457.501C546.661 453.135 543.122 449.595 538.755 449.595C534.389 449.595 530.849 453.135 530.849 457.501C530.849 461.868 534.389 465.408 538.755 465.408Z M143.108 91.7184C144.991 91.7184 146.518 90.1918 146.518 88.3086C146.518 86.4254 144.991 84.8987 143.108 84.8987C141.225 84.8987 139.698 86.4254 139.698 88.3086C139.698 90.1918 141.225 91.7184 143.108 91.7184Z M74.2309 225.293C77.3337 225.293 79.8491 222.778 79.8491 219.675C79.8491 216.572 77.3337 214.057 74.2309 214.057C71.1281 214.057 68.6128 216.572 68.6128 219.675C68.6128 222.778 71.1281 225.293 74.2309 225.293Z M497.996 492.897C502.571 492.897 506.279 489.189 506.279 484.614C506.279 480.04 502.571 476.331 497.996 476.331C493.421 476.331 489.713 480.04 489.713 484.614C489.713 489.189 493.421 492.897 497.996 492.897Z M552.107 184.169C554.88 184.169 557.128 181.921 557.128 179.148C557.128 176.376 554.88 174.128 552.107 174.128C549.334 174.128 547.086 176.376 547.086 179.148C547.086 181.921 549.334 184.169 552.107 184.169Z M145.936 427.069C150.577 427.069 154.339 423.307 154.339 418.666C154.339 414.026 150.577 410.264 145.936 410.264C141.295 410.264 137.533 414.026 137.533 418.666C137.533 423.307 141.295 427.069 145.936 427.069Z M487.607 592.234C489.433 592.234 490.914 590.754 490.914 588.927C490.914 587.101 489.433 585.62 487.607 585.62C485.781 585.62 484.3 587.101 484.3 588.927C484.3 590.754 485.781 592.234 487.607 592.234Z M564.059 359.4C567.853 359.4 570.928 356.325 570.928 352.531C570.928 348.737 567.853 345.662 564.059 345.662C560.265 345.662 557.19 348.737 557.19 352.531C557.19 356.325 560.265 359.4 564.059 359.4Z M118.328 305.999C122.468 305.999 125.824 302.643 125.824 298.503C125.824 294.362 122.468 291.006 118.328 291.006C114.187 291.006 110.831 294.362 110.831 298.503C110.831 302.643 114.187 305.999 118.328 305.999Z M308.228 596.299C310.429 596.299 312.214 594.515 312.214 592.313C312.214 590.111 310.429 588.327 308.228 588.327C306.026 588.327 304.241 590.111 304.241 592.313C304.241 594.515 306.026 596.299 308.228 596.299Z M484.507 558.599C487.411 558.599 489.766 556.244 489.766 553.34C489.766 550.436 487.411 548.082 484.507 548.082C481.603 548.082 479.249 550.436 479.249 553.34C479.249 556.244 481.603 558.599 484.507 558.599Z M413.351 72.8579C415.818 72.8579 417.818 70.8582 417.818 68.3914C417.818 65.9246 415.818 63.9249 413.351 63.9249C410.885 63.9249 408.885 65.9246 408.885 68.3914C408.885 70.8582 410.885 72.8579 413.351 72.8579Z M42.9595 302.869C44.7344 302.869 46.1732 301.43 46.1732 299.655C46.1732 297.88 44.7344 296.441 42.9595 296.441C41.1846 296.441 39.7458 297.88 39.7458 299.655C39.7458 301.43 41.1846 302.869 42.9595 302.869Z M483.304 582.4C485.544 582.4 487.36 580.584 487.36 578.344C487.36 576.104 485.544 574.288 483.304 574.288C481.064 574.288 479.248 576.104 479.248 578.344C479.248 580.584 481.064 582.4 483.304 582.4Z M273.543 136.919C278.909 136.919 283.259 132.569 283.259 127.203C283.259 121.837 278.909 117.487 273.543 117.487C268.177 117.487 263.827 121.837 263.827 127.203C263.827 132.569 268.177 136.919 273.543 136.919Z M424.093 32.9538C425.916 32.9538 427.394 31.476 427.394 29.6531C427.394 27.8302 425.916 26.3525 424.093 26.3525C422.27 26.3525 420.792 27.8302 420.792 29.6531C420.792 31.476 422.27 32.9538 424.093 32.9538Z M519.811 540.88C522.285 540.88 524.29 538.875 524.29 536.402C524.29 533.928 522.285 531.923 519.811 531.923C517.338 531.923 515.333 533.928 515.333 536.402C515.333 538.875 517.338 540.88 519.811 540.88Z M3.52188 345.101C5.23828 345.101 6.6297 343.709 6.6297 341.993C6.6297 340.276 5.23828 338.885 3.52188 338.885C1.80548 338.885 0.414062 340.276 0.414062 341.993C0.414062 343.709 1.80548 345.101 3.52188 345.101Z M494.597 464.945C498.49 464.945 501.646 461.789 501.646 457.896C501.646 454.003 498.49 450.847 494.597 450.847C490.704 450.847 487.548 454.003 487.548 457.896C487.548 461.789 490.704 464.945 494.597 464.945Z M347.992 122.829C352.226 122.829 355.658 119.397 355.658 115.163C355.658 110.929 352.226 107.496 347.992 107.496C343.758 107.496 340.325 110.929 340.325 115.163C340.325 119.397 343.758 122.829 347.992 122.829Z M540.747 337.449C544.221 337.449 547.038 334.633 547.038 331.159C547.038 327.685 544.221 324.869 540.747 324.869C537.273 324.869 534.457 327.685 534.457 331.159C534.457 334.633 537.273 337.449 540.747 337.449Z M120.552 418.124C123.728 418.124 126.303 415.549 126.303 412.372C126.303 409.196 123.728 406.621 120.552 406.621C117.375 406.621 114.8 409.196 114.8 412.372C114.8 415.549 117.375 418.124 120.552 418.124Z M406.32 31.3934C407.892 31.3934 409.167 30.1185 409.167 28.5459C409.167 26.9733 407.892 25.6985 406.32 25.6985C404.747 25.6985 403.472 26.9733 403.472 28.5459C403.472 30.1185 404.747 31.3934 406.32 31.3934Z M253.417 142.19C258.031 142.19 261.771 138.449 261.771 133.836C261.771 129.222 258.031 125.482 253.417 125.482C248.804 125.482 245.064 129.222 245.064 133.836C245.064 138.449 248.804 142.19 253.417 142.19Z M195.165 151.945C198.098 151.945 200.475 149.568 200.475 146.635C200.475 143.702 198.098 141.325 195.165 141.325C192.232 141.325 189.855 143.702 189.855 146.635C189.855 149.568 192.232 151.945 195.165 151.945Z M106.524 421.508C110.523 421.508 113.765 418.266 113.765 414.267C113.765 410.269 110.523 407.027 106.524 407.027C102.526 407.027 99.2842 410.269 99.2842 414.267C99.2842 418.266 102.526 421.508 106.524 421.508Z M404.09 583.506C406.822 583.506 409.037 581.291 409.037 578.559C409.037 575.826 406.822 573.611 404.09 573.611C401.357 573.611 399.142 575.826 399.142 578.559C399.142 581.291 401.357 583.506 404.09 583.506Z M504.267 227.12C509.117 227.12 513.048 223.188 513.048 218.339C513.048 213.489 509.117 209.558 504.267 209.558C499.418 209.558 495.486 213.489 495.486 218.339C495.486 223.188 499.418 227.12 504.267 227.12Z M224.213 576.982C226.448 576.982 228.261 575.17 228.261 572.934C228.261 570.699 226.448 568.886 224.213 568.886C221.978 568.886 220.165 570.699 220.165 572.934C220.165 575.17 221.978 576.982 224.213 576.982Z M520.565 159.751C523.455 159.751 525.797 157.408 525.797 154.518C525.797 151.629 523.455 149.286 520.565 149.286C517.675 149.286 515.333 151.629 515.333 154.518C515.333 157.408 517.675 159.751 520.565 159.751Z M583.541 196.282C586.336 196.282 588.602 194.016 588.602 191.221C588.602 188.425 586.336 186.159 583.541 186.159C580.746 186.159 578.48 188.425 578.48 191.221C578.48 194.016 580.746 196.282 583.541 196.282Z M528.217 416.885C533.937 416.885 538.575 412.247 538.575 406.527C538.575 400.806 533.937 396.168 528.217 396.168C522.496 396.168 517.858 400.806 517.858 406.527C517.858 412.247 522.496 416.885 528.217 416.885Z M54.4973 364.961C56.666 364.961 58.424 363.203 58.424 361.034C58.424 358.865 56.666 357.107 54.4973 357.107C52.3287 357.107 50.5707 358.865 50.5707 361.034C50.5707 363.203 52.3287 364.961 54.4973 364.961Z M233.551 557.838C236.162 557.838 238.277 555.722 238.277 553.112C238.277 550.502 236.162 548.386 233.551 548.386C230.941 548.386 228.826 550.502 228.826 553.112C228.826 555.722 230.941 557.838 233.551 557.838Z M206.266 538.549C208.753 538.549 210.769 536.533 210.769 534.047C210.769 531.56 208.753 529.544 206.266 529.544C203.779 529.544 201.763 531.56 201.763 534.047C201.763 536.533 203.779 538.549 206.266 538.549Z M504.405 444.123C508.732 444.123 512.24 440.615 512.24 436.288C512.24 431.96 508.732 428.452 504.405 428.452C500.077 428.452 496.569 431.96 496.569 436.288C496.569 440.615 500.077 444.123 504.405 444.123Z M316.993 568.781C319.85 568.781 322.167 566.464 322.167 563.607C322.167 560.75 319.85 558.433 316.993 558.433C314.135 558.433 311.819 560.75 311.819 563.607C311.819 566.464 314.135 568.781 316.993 568.781Z M167.028 70.3667C168.968 70.3667 170.542 68.7934 170.542 66.8526C170.542 64.9119 168.968 63.3386 167.028 63.3386C165.087 63.3386 163.514 64.9119 163.514 66.8526C163.514 68.7934 165.087 70.3667 167.028 70.3667Z M88.8463 427.58C91.2523 427.58 93.2028 425.63 93.2028 423.224C93.2028 420.818 91.2523 418.867 88.8463 418.867C86.4403 418.867 84.4898 420.818 84.4898 423.224C84.4898 425.63 86.4403 427.58 88.8463 427.58Z M401.726 549.912C405.345 549.912 408.28 546.978 408.28 543.359C408.28 539.74 405.345 536.806 401.726 536.806C398.107 536.806 395.173 539.74 395.173 543.359C395.173 546.978 398.107 549.912 401.726 549.912Z M187.799 585.139C190.251 585.139 192.238 583.152 192.238 580.7C192.238 578.249 190.251 576.261 187.799 576.261C185.347 576.261 183.36 578.249 183.36 580.7C183.36 583.152 185.347 585.139 187.799 585.139Z M418.403 542.819C421.069 542.819 423.231 540.657 423.231 537.991C423.231 535.325 421.069 533.163 418.403 533.163C415.737 533.163 413.575 535.325 413.575 537.991C413.575 540.657 415.737 542.819 418.403 542.819Z M423.171 155.16C429.667 155.16 434.932 149.895 434.932 143.4C434.932 136.904 429.667 131.639 423.171 131.639C416.676 131.639 411.411 136.904 411.411 143.4C411.411 149.895 416.676 155.16 423.171 155.16Z M464.054 113.135C466.424 113.135 468.345 111.214 468.345 108.844C468.345 106.474 466.424 104.553 464.054 104.553C461.684 104.553 459.763 106.474 459.763 108.844C459.763 111.214 461.684 113.135 464.054 113.135Z M619.474 326.864C622.385 326.864 624.745 324.504 624.745 321.592C624.745 318.681 622.385 316.321 619.474 316.321C616.563 316.321 614.203 318.681 614.203 321.592C614.203 324.504 616.563 326.864 619.474 326.864Z M150.222 223.546C155.037 223.546 158.941 219.642 158.941 214.826C158.941 210.011 155.037 206.107 150.222 206.107C145.406 206.107 141.502 210.011 141.502 214.826C141.502 219.642 145.406 223.546 150.222 223.546Z M542.444 376.542C547.652 376.542 551.874 372.32 551.874 367.112C551.874 361.904 547.652 357.682 542.444 357.682C537.236 357.682 533.014 361.904 533.014 367.112C533.014 372.32 537.236 376.542 542.444 376.542Z M541.406 519.525C543.251 519.525 544.747 518.03 544.747 516.184C544.747 514.339 543.251 512.844 541.406 512.844C539.561 512.844 538.065 514.339 538.065 516.184C538.065 518.03 539.561 519.525 541.406 519.525Z M452.444 152.668C456.175 152.668 459.199 149.644 459.199 145.914C459.199 142.184 456.175 139.16 452.444 139.16C448.714 139.16 445.69 142.184 445.69 145.914C445.69 149.644 448.714 152.668 452.444 152.668Z M207.985 607.435C209.628 607.435 210.959 606.103 210.959 604.461C210.959 602.818 209.628 601.486 207.985 601.486C206.342 601.486 205.01 602.818 205.01 604.461C205.01 606.103 206.342 607.435 207.985 607.435Z M555.379 216.908C558.365 216.908 560.785 214.487 560.785 211.502C560.785 208.516 558.365 206.096 555.379 206.096C552.393 206.096 549.973 208.516 549.973 211.502C549.973 214.487 552.393 216.908 555.379 216.908Z M453.351 577.114C456.983 577.114 459.928 574.169 459.928 570.536C459.928 566.904 456.983 563.959 453.351 563.959C449.718 563.959 446.773 566.904 446.773 570.536C446.773 574.169 449.718 577.114 453.351 577.114Z M535.839 316.198C540.388 316.198 544.076 312.509 544.076 307.96C544.076 303.411 540.388 299.723 535.839 299.723C531.289 299.723 527.601 303.411 527.601 307.96C527.601 312.509 531.289 316.198 535.839 316.198Z M234.772 151.199C240.646 151.199 245.409 146.437 245.409 140.562C245.409 134.687 240.646 129.925 234.772 129.925C228.897 129.925 224.135 134.687 224.135 140.562C224.135 146.437 228.897 151.199 234.772 151.199Z M39.3971 361.405C41.1974 361.405 42.6569 359.946 42.6569 358.146C42.6569 356.345 41.1974 354.886 39.3971 354.886C37.5968 354.886 36.1374 356.345 36.1374 358.146C36.1374 359.946 37.5968 361.405 39.3971 361.405Z M85.1899 288.989C89.1638 288.989 92.3852 285.768 92.3852 281.794C92.3852 277.82 89.1638 274.599 85.1899 274.599C81.2161 274.599 77.9947 277.82 77.9947 281.794C77.9947 285.768 81.2161 288.989 85.1899 288.989Z M459.229 96.0982C461.325 96.0982 463.024 94.3989 463.024 92.3027C463.024 90.2065 461.325 88.5071 459.229 88.5071C457.133 88.5071 455.433 90.2065 455.433 92.3027C455.433 94.3989 457.133 96.0982 459.229 96.0982Z M596.47 285.445C600.228 285.445 603.275 282.399 603.275 278.641C603.275 274.883 600.228 271.836 596.47 271.836C592.712 271.836 589.666 274.883 589.666 278.641C589.666 282.399 592.712 285.445 596.47 285.445Z M547.863 446.773C551.282 446.773 554.053 444.002 554.053 440.584C554.053 437.166 551.282 434.395 547.863 434.395C544.445 434.395 541.674 437.166 541.674 440.584C541.674 444.002 544.445 446.773 547.863 446.773Z M167.347 460.035C172.253 460.035 176.231 456.057 176.231 451.15C176.231 446.243 172.253 442.266 167.347 442.266C162.44 442.266 158.462 446.243 158.462 451.15C158.462 456.057 162.44 460.035 167.347 460.035Z M273.994 93.439C276.621 93.439 278.749 91.3101 278.749 88.684C278.749 86.0579 276.621 83.929 273.994 83.929C271.368 83.929 269.24 86.0579 269.24 88.684C269.24 91.3101 271.368 93.439 273.994 93.439Z M184.855 87.5952C188.271 87.5952 191.04 84.8257 191.04 81.4094C191.04 77.9932 188.271 75.2237 184.855 75.2237C181.438 75.2237 178.669 77.9932 178.669 81.4094C178.669 84.8257 181.438 87.5952 184.855 87.5952Z M597.236 416.384C599.424 416.384 601.198 414.61 601.198 412.422C601.198 410.233 599.424 408.459 597.236 408.459C595.048 408.459 593.274 410.233 593.274 412.422C593.274 414.61 595.048 416.384 597.236 416.384Z M225.416 71.6643C227.918 71.6643 229.946 69.6364 229.946 67.1349C229.946 64.6335 227.918 62.6056 225.416 62.6056C222.915 62.6056 220.887 64.6335 220.887 67.1349C220.887 69.6364 222.915 71.6643 225.416 71.6643Z M96.2952 526.238C98.2317 526.238 99.8016 524.669 99.8016 522.732C99.8016 520.796 98.2317 519.226 96.2952 519.226C94.3588 519.226 92.7889 520.796 92.7889 522.732C92.7889 524.669 94.3588 526.238 96.2952 526.238Z M437.793 591.499C439.809 591.499 441.443 589.865 441.443 587.849C441.443 585.833 439.809 584.2 437.793 584.2C435.778 584.2 434.144 585.833 434.144 587.849C434.144 589.865 435.778 591.499 437.793 591.499Z M148.841 192.04C152.893 192.04 156.179 188.755 156.179 184.702C156.179 180.649 152.893 177.364 148.841 177.364C144.788 177.364 141.502 180.649 141.502 184.702C141.502 188.755 144.788 192.04 148.841 192.04Z M560.007 481.163C562.558 481.163 564.627 479.095 564.627 476.543C564.627 473.991 562.558 471.922 560.007 471.922C557.455 471.922 555.386 473.991 555.386 476.543C555.386 479.095 557.455 481.163 560.007 481.163Z M550.811 144.635C553.665 144.635 555.978 142.322 555.978 139.468C555.978 136.614 553.665 134.3 550.811 134.3C547.957 134.3 545.643 136.614 545.643 139.468C545.643 142.322 547.957 144.635 550.811 144.635Z M109.535 392.03C112.804 392.03 115.455 389.38 115.455 386.11C115.455 382.84 112.804 380.19 109.535 380.19C106.265 380.19 103.614 382.84 103.614 386.11C103.614 389.38 106.265 392.03 109.535 392.03Z M398.414 117.858C402.197 117.858 405.264 114.791 405.264 111.008C405.264 107.225 402.197 104.159 398.414 104.159C394.631 104.159 391.565 107.225 391.565 111.008C391.565 114.791 394.631 117.858 398.414 117.858Z M395.738 613.386C398.442 613.386 400.634 611.194 400.634 608.49C400.634 605.786 398.442 603.595 395.738 603.595C393.035 603.595 390.843 605.786 390.843 608.49C390.843 611.194 393.035 613.386 395.738 613.386Z M267.184 108.854C270.433 108.854 273.067 106.22 273.067 102.971C273.067 99.7221 270.433 97.0884 267.184 97.0884C263.935 97.0884 261.301 99.7221 261.301 102.971C261.301 106.22 263.935 108.854 267.184 108.854Z M604.056 166.881C606.623 166.881 608.704 164.8 608.704 162.233C608.704 159.666 606.623 157.585 604.056 157.585C601.489 157.585 599.408 159.666 599.408 162.233C599.408 164.8 601.489 166.881 604.056 166.881Z M136.126 115.361C137.94 115.361 139.411 113.891 139.411 112.077C139.411 110.263 137.94 108.793 136.126 108.793C134.313 108.793 132.842 110.263 132.842 112.077C132.842 113.891 134.313 115.361 136.126 115.361Z M354.654 70.7641C356.789 70.7641 358.519 69.0337 358.519 66.8991C358.519 64.7645 356.789 63.0341 354.654 63.0341C352.52 63.0341 350.789 64.7645 350.789 66.8991C350.789 69.0337 352.52 70.7641 354.654 70.7641Z M606.806 317.349C610.295 317.349 613.122 314.522 613.122 311.034C613.122 307.546 610.295 304.718 606.806 304.718C603.318 304.718 600.491 307.546 600.491 311.034C600.491 314.522 603.318 317.349 606.806 317.349Z M602.745 366.904C606.182 366.904 608.968 364.118 608.968 360.681C608.968 357.244 606.182 354.457 602.745 354.457C599.308 354.457 596.521 357.244 596.521 360.681C596.521 364.118 599.308 366.904 602.745 366.904Z M533.566 291.772C536.86 291.772 539.531 289.101 539.531 285.807C539.531 282.513 536.86 279.842 533.566 279.842C530.272 279.842 527.601 282.513 527.601 285.807C527.601 289.101 530.272 291.772 533.566 291.772Z M190.73 514.898C195.996 514.898 200.265 510.629 200.265 505.363C200.265 500.097 195.996 495.828 190.73 495.828C185.464 495.828 181.195 500.097 181.195 505.363C181.195 510.629 185.464 514.898 190.73 514.898Z M322.115 638.429C323.616 638.429 324.833 637.212 324.833 635.71C324.833 634.209 323.616 632.992 322.115 632.992C320.613 632.992 319.396 634.209 319.396 635.71C319.396 637.212 320.613 638.429 322.115 638.429Z M278.985 588.918C282.175 588.918 284.761 586.332 284.761 583.142C284.761 579.952 282.175 577.366 278.985 577.366C275.795 577.366 273.209 579.952 273.209 583.142C273.209 586.332 275.795 588.918 278.985 588.918Z M147.53 460.275C150.461 460.275 152.837 457.899 152.837 454.969C152.837 452.038 150.461 449.663 147.53 449.663C144.6 449.663 142.224 452.038 142.224 454.969C142.224 457.899 144.6 460.275 147.53 460.275Z M275.751 566.36C278.152 566.36 280.098 564.414 280.098 562.013C280.098 559.613 278.152 557.667 275.751 557.667C273.351 557.667 271.405 559.613 271.405 562.013C271.405 564.414 273.351 566.36 275.751 566.36Z M61.4145 348.202C63.6168 348.202 65.4022 346.417 65.4022 344.215C65.4022 342.012 63.6168 340.227 61.4145 340.227C59.2121 340.227 57.4267 342.012 57.4267 344.215C57.4267 346.417 59.2121 348.202 61.4145 348.202Z M262.486 570.084C264.735 570.084 266.558 568.261 266.558 566.012C266.558 563.763 264.735 561.94 262.486 561.94C260.237 561.94 258.414 563.763 258.414 566.012C258.414 568.261 260.237 570.084 262.486 570.084Z M506.249 135.359C509.403 135.359 511.96 132.802 511.96 129.648C511.96 126.494 509.403 123.937 506.249 123.937C503.095 123.937 500.538 126.494 500.538 129.648C500.538 132.802 503.095 135.359 506.249 135.359Z M464.011 168.348C468.749 168.348 472.589 164.507 472.589 159.77C472.589 155.032 468.749 151.192 464.011 151.192C459.274 151.192 455.433 155.032 455.433 159.77C455.433 164.507 459.274 168.348 464.011 168.348Z M201.908 88.0758C204.977 88.0758 207.466 85.5875 207.466 82.518C207.466 79.4486 204.977 76.9603 201.908 76.9603C198.839 76.9603 196.35 79.4486 196.35 82.518C196.35 85.5875 198.839 88.0758 201.908 88.0758Z M266.201 628.381C267.712 628.381 268.936 627.156 268.936 625.646C268.936 624.135 267.712 622.911 266.201 622.911C264.691 622.911 263.466 624.135 263.466 625.646C263.466 627.156 264.691 628.381 266.201 628.381Z M135.238 403.373C138.753 403.373 141.603 400.523 141.603 397.008C141.603 393.493 138.753 390.643 135.238 390.643C131.723 390.643 128.873 393.493 128.873 397.008C128.873 400.523 131.723 403.373 135.238 403.373Z M638.837 407.357C640.485 407.357 641.821 406.021 641.821 404.373C641.821 402.725 640.485 401.389 638.837 401.389C637.189 401.389 635.853 402.725 635.853 404.373C635.853 406.021 637.189 407.357 638.837 407.357Z M405.998 521.549C409.585 521.549 412.493 518.641 412.493 515.054C412.493 511.467 409.585 508.559 405.998 508.559C402.411 508.559 399.503 511.467 399.503 515.054C399.503 518.641 402.411 521.549 405.998 521.549Z M447.426 595.734C449.581 595.734 451.327 593.988 451.327 591.833C451.327 589.679 449.581 587.932 447.426 587.932C445.272 587.932 443.525 589.679 443.525 591.833C443.525 593.988 445.272 595.734 447.426 595.734Z M260.888 555.836C263.848 555.836 266.247 553.436 266.247 550.476C266.247 547.516 263.848 545.116 260.888 545.116C257.928 545.116 255.528 547.516 255.528 550.476C255.528 553.436 257.928 555.836 260.888 555.836Z M609.924 399.305C611.746 399.305 613.223 397.828 613.223 396.006C613.223 394.184 611.746 392.706 609.924 392.706C608.102 392.706 606.625 394.184 606.625 396.006C606.625 397.828 608.102 399.305 609.924 399.305Z M380.348 119.095C383.32 119.095 385.73 116.685 385.73 113.713C385.73 110.74 383.32 108.331 380.348 108.331C377.376 108.331 374.966 110.74 374.966 113.713C374.966 116.685 377.376 119.095 380.348 119.095Z M243.089 109.535C247.578 109.535 251.218 105.895 251.218 101.406C251.218 96.9164 247.578 93.277 243.089 93.277C238.599 93.277 234.96 96.9164 234.96 101.406C234.96 105.895 238.599 109.535 243.089 109.535Z M382.591 558.055C387.6 558.055 391.66 553.995 391.66 548.987C391.66 543.978 387.6 539.918 382.591 539.918C377.583 539.918 373.522 543.978 373.522 548.987C373.522 553.995 377.583 558.055 382.591 558.055Z M530.637 440.681C533.31 440.681 535.477 438.514 535.477 435.841C535.477 433.168 533.31 431.001 530.637 431.001C527.964 431.001 525.797 433.168 525.797 435.841C525.797 438.514 527.964 440.681 530.637 440.681Z M147.995 540.916C149.787 540.916 151.24 539.463 151.24 537.671C151.24 535.879 149.787 534.426 147.995 534.426C146.203 534.426 144.75 535.879 144.75 537.671C144.75 539.463 146.203 540.916 147.995 540.916Z M256.3 540.367C260.711 540.367 264.288 536.791 264.288 532.379C264.288 527.967 260.711 524.39 256.3 524.39C251.888 524.39 248.311 527.967 248.311 532.379C248.311 536.791 251.888 540.367 256.3 540.367Z M246.102 569.272C248.27 569.272 250.027 567.515 250.027 565.347C250.027 563.179 248.27 561.422 246.102 561.422C243.934 561.422 242.177 563.179 242.177 565.347C242.177 567.515 243.934 569.272 246.102 569.272Z M595.54 338.748C597.588 338.748 599.249 337.087 599.249 335.039C599.249 332.99 597.588 331.33 595.54 331.33C593.491 331.33 591.83 332.99 591.83 335.039C591.83 337.087 593.491 338.748 595.54 338.748Z M480.157 136.005C484.047 136.005 487.2 132.852 487.2 128.962C487.2 125.072 484.047 121.919 480.157 121.919C476.268 121.919 473.114 125.072 473.114 128.962C473.114 132.852 476.268 136.005 480.157 136.005Z M352.373 105.397C355.838 105.397 358.647 102.588 358.647 99.1228C358.647 95.6576 355.838 92.8485 352.373 92.8485C348.908 92.8485 346.099 95.6576 346.099 99.1228C346.099 102.588 348.908 105.397 352.373 105.397Z M350.347 86.5403C353.89 86.5403 356.761 83.6688 356.761 80.1265C356.761 76.5843 353.89 73.7127 350.347 73.7127C346.805 73.7127 343.934 76.5843 343.934 80.1265C343.934 83.6688 346.805 86.5403 350.347 86.5403Z M171.115 171.908C174.317 171.908 176.912 169.313 176.912 166.111C176.912 162.91 174.317 160.314 171.115 160.314C167.913 160.314 165.318 162.91 165.318 166.111C165.318 169.313 167.913 171.908 171.115 171.908Z M118.099 375.489C121.515 375.489 124.285 372.719 124.285 369.303C124.285 365.887 121.515 363.118 118.099 363.118C114.683 363.118 111.914 365.887 111.914 369.303C111.914 372.719 114.683 375.489 118.099 375.489Z M313.183 96.863C317.126 96.863 320.321 93.6673 320.321 89.7251C320.321 85.7829 317.126 82.5871 313.183 82.5871C309.241 82.5871 306.045 85.7829 306.045 89.7251C306.045 93.6673 309.241 96.863 313.183 96.863Z M557.99 395.547C562.418 395.547 566.007 391.958 566.007 387.53C566.007 383.102 562.418 379.513 557.99 379.513C553.563 379.513 549.973 383.102 549.973 387.53C549.973 391.958 553.563 395.547 557.99 395.547Z M207.671 146.681C212.928 146.681 217.189 142.42 217.189 137.164C217.189 131.908 212.928 127.647 207.671 127.647C202.415 127.647 198.154 131.908 198.154 137.164C198.154 142.42 202.415 146.681 207.671 146.681Z M186.169 117.049C188.318 117.049 190.06 115.307 190.06 113.158C190.06 111.009 188.318 109.267 186.169 109.267C184.02 109.267 182.277 111.009 182.277 113.158C182.277 115.307 184.02 117.049 186.169 117.049Z M521.938 188.072C526.384 188.072 529.987 184.468 529.987 180.023C529.987 175.578 526.384 171.974 521.938 171.974C517.493 171.974 513.889 175.578 513.889 180.023C513.889 184.468 517.493 188.072 521.938 188.072Z M485.87 191.362C490.922 191.362 495.017 187.267 495.017 182.215C495.017 177.163 490.922 173.068 485.87 173.068C480.818 173.068 476.723 177.163 476.723 182.215C476.723 187.267 480.818 191.362 485.87 191.362Z M97.3727 490.449C99.3064 490.449 100.874 488.881 100.874 486.948C100.874 485.014 99.3064 483.446 97.3727 483.446C95.439 483.446 93.8714 485.014 93.8714 486.948C93.8714 488.881 95.439 490.449 97.3727 490.449Z M356.786 571.385C359.301 571.385 361.34 569.347 361.34 566.832C361.34 564.317 359.301 562.279 356.786 562.279C354.272 562.279 352.233 564.317 352.233 566.832C352.233 569.347 354.272 571.385 356.786 571.385Z M64.6438 468.156C66.6368 468.156 68.2525 466.541 68.2525 464.548C68.2525 462.555 66.6368 460.939 64.6438 460.939C62.6507 460.939 61.0351 462.555 61.0351 464.548C61.0351 466.541 62.6507 468.156 64.6438 468.156Z M433.704 603.979C436.85 603.979 439.399 601.43 439.399 598.284C439.399 595.139 436.85 592.589 433.704 592.589C430.559 592.589 428.009 595.139 428.009 598.284C428.009 601.43 430.559 603.979 433.704 603.979Z M148.01 129.601C151.605 129.601 154.518 126.687 154.518 123.093C154.518 119.499 151.605 116.585 148.01 116.585C144.416 116.585 141.502 119.499 141.502 123.093C141.502 126.687 144.416 129.601 148.01 129.601Z M538.09 190.053C540.694 190.053 542.805 187.942 542.805 185.338C542.805 182.734 540.694 180.623 538.09 180.623C535.486 180.623 533.375 182.734 533.375 185.338C533.375 187.942 535.486 190.053 538.09 190.053Z M598.647 428.882C601.217 428.882 603.299 426.799 603.299 424.23C603.299 421.66 601.217 419.578 598.647 419.578C596.078 419.578 593.995 421.66 593.995 424.23C593.995 426.799 596.078 428.882 598.647 428.882Z M395.802 88.7391C400.135 88.7391 403.648 85.2264 403.648 80.8932C403.648 76.5601 400.135 73.0474 395.802 73.0474C391.469 73.0474 387.956 76.5601 387.956 80.8932C387.956 85.2264 391.469 88.7391 395.802 88.7391Z M262.634 586.853C264.765 586.853 266.492 585.126 266.492 582.995C266.492 580.864 264.765 579.137 262.634 579.137C260.503 579.137 258.775 580.864 258.775 582.995C258.775 585.126 260.503 586.853 262.634 586.853Z M143.64 101.104C146.016 101.104 147.942 99.1776 147.942 96.8014C147.942 94.4252 146.016 92.4989 143.64 92.4989C141.264 92.4989 139.337 94.4252 139.337 96.8014C139.337 99.1776 141.264 101.104 143.64 101.104Z M511.223 470.355C515.131 470.355 518.299 467.187 518.299 463.279C518.299 459.371 515.131 456.203 511.223 456.203C507.315 456.203 504.147 459.371 504.147 463.279C504.147 467.187 507.315 470.355 511.223 470.355Z M458.428 515.067C462.274 515.067 465.392 511.949 465.392 508.103C465.392 504.257 462.274 501.139 458.428 501.139C454.582 501.139 451.464 504.257 451.464 508.103C451.464 511.949 454.582 515.067 458.428 515.067Z M433.845 89.5122C436.072 89.5122 437.877 87.707 437.877 85.4802C437.877 83.2534 436.072 81.4482 433.845 81.4482C431.619 81.4482 429.814 83.2534 429.814 85.4802C429.814 87.707 431.619 89.5122 433.845 89.5122Z M330.047 92.161C334.135 92.161 337.45 88.8465 337.45 84.7579C337.45 80.6694 334.135 77.3549 330.047 77.3549C325.958 77.3549 322.644 80.6694 322.644 84.7579C322.644 88.8465 325.958 92.161 330.047 92.161Z M285.832 563.416C288.419 563.416 290.517 561.319 290.517 558.732C290.517 556.144 288.419 554.047 285.832 554.047C283.245 554.047 281.148 556.144 281.148 558.732C281.148 561.319 283.245 563.416 285.832 563.416Z M585.294 259.541C588.061 259.541 590.304 257.298 590.304 254.531C590.304 251.764 588.061 249.521 585.294 249.521C582.527 249.521 580.284 251.764 580.284 254.531C580.284 257.298 582.527 259.541 585.294 259.541Z M479.103 105.661C481.215 105.661 482.927 103.949 482.927 101.837C482.927 99.7251 481.215 98.013 479.103 98.013C476.991 98.013 475.279 99.7251 475.279 101.837C475.279 103.949 476.991 105.661 479.103 105.661Z M338.101 38.604C340.061 38.604 341.65 37.015 341.65 35.0548C341.65 33.0947 340.061 31.5057 338.101 31.5057C336.141 31.5057 334.552 33.0947 334.552 35.0548C334.552 37.015 336.141 38.604 338.101 38.604Z M182.885 570.428C186.01 570.428 188.544 567.895 188.544 564.769C188.544 561.644 186.01 559.11 182.885 559.11C179.759 559.11 177.226 561.644 177.226 564.769C177.226 567.895 179.759 570.428 182.885 570.428Z M166.728 92.2751C169.101 92.2751 171.025 90.3513 171.025 87.978C171.025 85.6048 169.101 83.6809 166.728 83.6809C164.355 83.6809 162.431 85.6048 162.431 87.978C162.431 90.3513 164.355 92.2751 166.728 92.2751Z M94.5121 357.283C97.6558 357.283 100.204 354.735 100.204 351.591C100.204 348.447 97.6558 345.899 94.5121 345.899C91.3684 345.899 88.8199 348.447 88.8199 351.591C88.8199 354.735 91.3684 357.283 94.5121 357.283Z M470.397 575.225C473.281 575.225 475.618 572.887 475.618 570.003C475.618 567.12 473.281 564.782 470.397 564.782C467.513 564.782 465.176 567.12 465.176 570.003C465.176 572.887 467.513 575.225 470.397 575.225Z M274.459 69.4687C276.743 69.4687 278.595 67.6168 278.595 65.3324C278.595 63.048 276.743 61.1961 274.459 61.1961C272.174 61.1961 270.322 63.048 270.322 65.3324C270.322 67.6168 272.174 69.4687 274.459 69.4687Z M471.401 537.935C474.44 537.935 476.904 535.471 476.904 532.431C476.904 529.392 474.44 526.928 471.401 526.928C468.361 526.928 465.897 529.392 465.897 532.431C465.897 535.471 468.361 537.935 471.401 537.935Z M532.028 485.964C535.271 485.964 537.899 483.336 537.899 480.093C537.899 476.851 535.271 474.222 532.028 474.222C528.786 474.222 526.158 476.851 526.158 480.093C526.158 483.336 528.786 485.964 532.028 485.964Z M178.593 541.401C180.743 541.401 182.486 539.658 182.486 537.508C182.486 535.357 180.743 533.614 178.593 533.614C176.443 533.614 174.7 535.357 174.7 537.508C174.7 539.658 176.443 541.401 178.593 541.401Z M213.841 86.7625C216.526 86.7625 218.703 84.5858 218.703 81.9008C218.703 79.2158 216.526 77.0392 213.841 77.0392C211.156 77.0392 208.98 79.2158 208.98 81.9008C208.98 84.5858 211.156 86.7625 213.841 86.7625Z M111.548 171.311C113.937 171.311 115.874 169.374 115.874 166.985C115.874 164.596 113.937 162.66 111.548 162.66C109.159 162.66 107.223 164.596 107.223 166.985C107.223 169.374 109.159 171.311 111.548 171.311Z M592.51 214.898C594.48 214.898 596.077 213.301 596.077 211.331C596.077 209.361 594.48 207.765 592.51 207.765C590.541 207.765 588.944 209.361 588.944 211.331C588.944 213.301 590.541 214.898 592.51 214.898Z M265.77 57.3574C268.636 57.3574 270.96 55.0336 270.96 52.1671C270.96 49.3005 268.636 46.9767 265.77 46.9767C262.903 46.9767 260.58 49.3005 260.58 52.1671C260.58 55.0336 262.903 57.3574 265.77 57.3574Z M287.949 73.4116C290.509 73.4116 292.585 71.3359 292.585 68.7754C292.585 66.2149 290.509 64.1392 287.949 64.1392C285.388 64.1392 283.312 66.2149 283.312 68.7754C283.312 71.3359 285.388 73.4116 287.949 73.4116Z M282.754 607.935C284.837 607.935 286.525 606.247 286.525 604.164C286.525 602.081 284.837 600.392 282.754 600.392C280.671 600.392 278.982 602.081 278.982 604.164C278.982 606.247 280.671 607.935 282.754 607.935Z M251.684 611.186C254.942 611.186 257.583 608.545 257.583 605.288C257.583 602.03 254.942 599.389 251.684 599.389C248.426 599.389 245.785 602.03 245.785 605.288C245.785 608.545 248.426 611.186 251.684 611.186Z M568.867 159.446C571.529 159.446 573.687 157.288 573.687 154.625C573.687 151.963 571.529 149.805 568.867 149.805C566.204 149.805 564.046 151.963 564.046 154.625C564.046 157.288 566.204 159.446 568.867 159.446Z M68.9537 396.534C71.932 396.534 74.3463 394.12 74.3463 391.142C74.3463 388.163 71.932 385.749 68.9537 385.749C65.9754 385.749 63.5611 388.163 63.5611 391.142C63.5611 394.12 65.9754 396.534 68.9537 396.534Z M41.2869 370.034C43.1346 370.034 44.6326 368.537 44.6326 366.689C44.6326 364.841 43.1346 363.343 41.2869 363.343C39.4391 363.343 37.9412 364.841 37.9412 366.689C37.9412 368.537 39.4391 370.034 41.2869 370.034Z M517.602 497.481C521.646 497.481 524.924 494.203 524.924 490.159C524.924 486.116 521.646 482.837 517.602 482.837C513.559 482.837 510.281 486.116 510.281 490.159C510.281 494.203 513.559 497.481 517.602 497.481Z M274.09 605.605C275.972 605.605 277.498 604.08 277.498 602.198C277.498 600.316 275.972 598.791 274.09 598.791C272.209 598.791 270.683 600.316 270.683 602.198C270.683 604.08 272.209 605.605 274.09 605.605Z M111.804 499.184C113.936 499.184 115.664 497.456 115.664 495.324C115.664 493.192 113.936 491.464 111.804 491.464C109.673 491.464 107.944 493.192 107.944 495.324C107.944 497.456 109.673 499.184 111.804 499.184Z M174.972 486.743C178.909 486.743 182.101 483.552 182.101 479.615C182.101 475.677 178.909 472.486 174.972 472.486C171.035 472.486 167.844 475.677 167.844 479.615C167.844 483.552 171.035 486.743 174.972 486.743Z M375.74 55.0431C377.762 55.0431 379.401 53.404 379.401 51.3821C379.401 49.3601 377.762 47.721 375.74 47.721C373.718 47.721 372.079 49.3601 372.079 51.3821C372.079 53.404 373.718 55.0431 375.74 55.0431Z M93.6523 239.599C97.3178 239.599 100.289 236.628 100.289 232.962C100.289 229.297 97.3178 226.325 93.6523 226.325C89.9868 226.325 87.0154 229.297 87.0154 232.962C87.0154 236.628 89.9868 239.599 93.6523 239.599Z M514.386 89.7932C516.454 89.7932 518.13 88.117 518.13 86.0492C518.13 83.9815 516.454 82.3052 514.386 82.3052C512.318 82.3052 510.642 83.9815 510.642 86.0492C510.642 88.117 512.318 89.7932 514.386 89.7932Z M137.75 508.677C141.656 508.677 144.823 505.51 144.823 501.604C144.823 497.698 141.656 494.531 137.75 494.531C133.844 494.531 130.677 497.698 130.677 501.604C130.677 505.51 133.844 508.677 137.75 508.677Z M61.0646 216.495C63.4724 216.495 65.4243 214.543 65.4243 212.136C65.4243 209.728 63.4724 207.776 61.0646 207.776C58.6569 207.776 56.705 209.728 56.705 212.136C56.705 214.543 58.6569 216.495 61.0646 216.495Z M238.569 581.461C240.761 581.461 242.539 579.683 242.539 577.491C242.539 575.298 240.761 573.521 238.569 573.521C236.376 573.521 234.599 575.298 234.599 577.491C234.599 579.683 236.376 581.461 238.569 581.461Z M64.4825 204.68C67.1836 204.68 69.3732 202.49 69.3732 199.789C69.3732 197.088 67.1836 194.899 64.4825 194.899C61.7814 194.899 59.5917 197.088 59.5917 199.789C59.5917 202.49 61.7814 204.68 64.4825 204.68Z M74.0441 168.11C75.848 168.11 77.3104 166.647 77.3104 164.844C77.3104 163.04 75.848 161.577 74.0441 161.577C72.2401 161.577 70.7778 163.04 70.7778 164.844C70.7778 166.647 72.2401 168.11 74.0441 168.11Z M548.479 484.991C550.643 484.991 552.397 483.236 552.397 481.072C552.397 478.908 550.643 477.154 548.479 477.154C546.315 477.154 544.56 478.908 544.56 481.072C544.56 483.236 546.315 484.991 548.479 484.991Z M379.409 600.1C381.265 600.1 382.77 598.596 382.77 596.739C382.77 594.883 381.265 593.378 379.409 593.378C377.553 593.378 376.048 594.883 376.048 596.739C376.048 598.596 377.553 600.1 379.409 600.1Z M153.822 486.571C158.035 486.571 161.451 483.155 161.451 478.942C161.451 474.729 158.035 471.313 153.822 471.313C149.609 471.313 146.193 474.729 146.193 478.942C146.193 483.155 149.609 486.571 153.822 486.571Z M105.755 508.522C107.536 508.522 108.979 507.079 108.979 505.298C108.979 503.518 107.536 502.075 105.755 502.075C103.975 502.075 102.532 503.518 102.532 505.298C102.532 507.079 103.975 508.522 105.755 508.522Z M192.805 489.008C197.024 489.008 200.445 485.587 200.445 481.367C200.445 477.147 197.024 473.726 192.805 473.726C188.585 473.726 185.164 477.147 185.164 481.367C185.164 485.587 188.585 489.008 192.805 489.008Z M54.0309 385.723C56.1411 385.723 57.8518 384.012 57.8518 381.902C57.8518 379.792 56.1411 378.081 54.0309 378.081C51.9207 378.081 50.2101 379.792 50.2101 381.902C50.2101 384.012 51.9207 385.723 54.0309 385.723Z M320.903 552.086C324.923 552.086 328.182 548.827 328.182 544.807C328.182 540.786 324.923 537.527 320.903 537.527C316.882 537.527 313.623 540.786 313.623 544.807C313.623 548.827 316.882 552.086 320.903 552.086Z M518.524 142.216C521.084 142.216 523.159 140.141 523.159 137.582C523.159 135.022 521.084 132.947 518.524 132.947C515.964 132.947 513.889 135.022 513.889 137.582C513.889 140.141 515.964 142.216 518.524 142.216Z M99.1127 216.759C102.207 216.759 104.715 214.251 104.715 211.157C104.715 208.063 102.207 205.555 99.1127 205.555C96.0187 205.555 93.5106 208.063 93.5106 211.157C93.5106 214.251 96.0187 216.759 99.1127 216.759Z M150.506 528.336C154.083 528.336 156.984 525.436 156.984 521.858C156.984 518.281 154.083 515.381 150.506 515.381C146.928 515.381 144.028 518.281 144.028 521.858C144.028 525.436 146.928 528.336 150.506 528.336Z M455.955 550.072C460.229 550.072 463.693 546.608 463.693 542.334C463.693 538.06 460.229 534.595 455.955 534.595C451.681 534.595 448.216 538.06 448.216 542.334C448.216 546.608 451.681 550.072 455.955 550.072Z M85.8899 375.13C90.051 375.13 93.4242 371.757 93.4242 367.596C93.4242 363.435 90.051 360.062 85.8899 360.062C81.7288 360.062 78.3555 363.435 78.3555 367.596C78.3555 371.757 81.7288 375.13 85.8899 375.13Z M168.081 505.144C170.604 505.144 172.649 503.099 172.649 500.576C172.649 498.053 170.604 496.008 168.081 496.008C165.559 496.008 163.513 498.053 163.513 500.576C163.513 503.099 165.559 505.144 168.081 505.144Z M586.926 154.959C588.402 154.959 589.598 153.762 589.598 152.286C589.598 150.81 588.402 149.613 586.926 149.613C585.449 149.613 584.253 150.81 584.253 152.286C584.253 153.762 585.449 154.959 586.926 154.959Z M70.3819 243.869C72.5547 243.869 74.316 242.107 74.316 239.935C74.316 237.762 72.5547 236 70.3819 236C68.2092 236 66.4478 237.762 66.4478 239.935C66.4478 242.107 68.2092 243.869 70.3819 243.869Z M292.789 575.604C295.631 575.604 297.935 573.3 297.935 570.458C297.935 567.616 295.631 565.312 292.789 565.312C289.947 565.312 287.643 567.616 287.643 570.458C287.643 573.3 289.947 575.604 292.789 575.604Z M346.987 42.1672C349.071 42.1672 350.761 40.4773 350.761 38.3926C350.761 36.3079 349.071 34.618 346.987 34.618C344.902 34.618 343.212 36.3079 343.212 38.3926C343.212 40.4773 344.902 42.1672 346.987 42.1672Z M465.18 55.0477C467.574 55.0477 469.515 53.1072 469.515 50.7134C469.515 48.3196 467.574 46.3791 465.18 46.3791C462.786 46.3791 460.846 48.3196 460.846 50.7134C460.846 53.1072 462.786 55.0477 465.18 55.0477Z M95.3418 391.227C99.3424 391.227 102.586 387.984 102.586 383.983C102.586 379.982 99.3424 376.739 95.3418 376.739C91.3412 376.739 88.0981 379.982 88.0981 383.983C88.0981 387.984 91.3412 391.227 95.3418 391.227Z M377.622 628.358C379.288 628.358 380.638 627.007 380.638 625.341C380.638 623.675 379.288 622.325 377.622 622.325C375.956 622.325 374.605 623.675 374.605 625.341C374.605 627.007 375.956 628.358 377.622 628.358Z M107.488 141.258C109.428 141.258 111.001 139.685 111.001 137.745C111.001 135.805 109.428 134.232 107.488 134.232C105.548 134.232 103.975 135.805 103.975 137.745C103.975 139.685 105.548 141.258 107.488 141.258Z M100.299 136.159C102.652 136.159 104.56 134.251 104.56 131.898C104.56 129.544 102.652 127.636 100.299 127.636C97.9448 127.636 96.0367 129.544 96.0367 131.898C96.0367 134.251 97.9448 136.159 100.299 136.159Z M537.972 357.766C543.898 357.766 548.703 352.961 548.703 347.034C548.703 341.107 543.898 336.303 537.972 336.303C532.045 336.303 527.24 341.107 527.24 347.034C527.24 352.961 532.045 357.766 537.972 357.766Z M64.7012 517.999C66.9251 517.999 68.728 516.196 68.728 513.972C68.728 511.748 66.9251 509.946 64.7012 509.946C62.4773 509.946 60.6745 511.748 60.6745 513.972C60.6745 516.196 62.4773 517.999 64.7012 517.999Z M75.0024 351.969C77.3355 351.969 79.2269 350.077 79.2269 347.744C79.2269 345.411 77.3355 343.519 75.0024 343.519C72.6692 343.519 70.7778 345.411 70.7778 347.744C70.7778 350.077 72.6692 351.969 75.0024 351.969Z M563.479 442.519C565.756 442.519 567.603 440.672 567.603 438.395C567.603 436.117 565.756 434.271 563.479 434.271C561.201 434.271 559.355 436.117 559.355 438.395C559.355 440.672 561.201 442.519 563.479 442.519Z M210.731 122.546C213.691 122.546 216.091 120.146 216.091 117.186C216.091 114.226 213.691 111.826 210.731 111.826C207.771 111.826 205.371 114.226 205.371 117.186C205.371 120.146 207.771 122.546 210.731 122.546Z M364.275 654.054C366.741 654.054 368.739 652.055 368.739 649.589C368.739 647.124 366.741 645.125 364.275 645.125C361.809 645.125 359.811 647.124 359.811 649.589C359.811 652.055 361.809 654.054 364.275 654.054Z M428.231 584.835C430.147 584.835 431.7 583.281 431.7 581.365C431.7 579.449 430.147 577.896 428.231 577.896C426.315 577.896 424.762 579.449 424.762 581.365C424.762 583.281 426.315 584.835 428.231 584.835Z M67.3397 429.39C69.2273 429.39 70.7575 427.86 70.7575 425.973C70.7575 424.085 69.2273 422.555 67.3397 422.555C65.452 422.555 63.9218 424.085 63.9218 425.973C63.9218 427.86 65.452 429.39 67.3397 429.39Z M87.7728 270.171C90.1838 270.171 92.1383 268.216 92.1383 265.805C92.1383 263.394 90.1838 261.44 87.7728 261.44C85.3619 261.44 83.4074 263.394 83.4074 265.805C83.4074 268.216 85.3619 270.171 87.7728 270.171Z M487.611 528.745C490.037 528.745 492.004 526.778 492.004 524.352C492.004 521.926 490.037 519.959 487.611 519.959C485.184 519.959 483.218 521.926 483.218 524.352C483.218 526.778 485.184 528.745 487.611 528.745Z M178.239 551.473C180.194 551.473 181.778 549.888 181.778 547.934C181.778 545.979 180.194 544.394 178.239 544.394C176.285 544.394 174.7 545.979 174.7 547.934C174.7 549.888 176.285 551.473 178.239 551.473Z M182.678 72.484C185.29 72.484 187.408 70.366 187.408 67.7534C187.408 65.1408 185.29 63.0228 182.678 63.0228C180.065 63.0228 177.947 65.1408 177.947 67.7534C177.947 70.366 180.065 72.484 182.678 72.484Z M632.672 363.983C635.299 363.983 637.429 361.853 637.429 359.226C637.429 356.599 635.299 354.469 632.672 354.469C630.045 354.469 627.915 356.599 627.915 359.226C627.915 361.853 630.045 363.983 632.672 363.983Z M117.461 102.973C119.727 102.973 121.564 101.136 121.564 98.8692C121.564 96.6028 119.727 94.7654 117.461 94.7654C115.194 94.7654 113.357 96.6028 113.357 98.8692C113.357 101.136 115.194 102.973 117.461 102.973Z M198.328 570.509C200.218 570.509 201.75 568.977 201.75 567.087C201.75 565.197 200.218 563.666 198.328 563.666C196.439 563.666 194.907 565.197 194.907 567.087C194.907 568.977 196.439 570.509 198.328 570.509Z M141.891 243.34C146.091 243.34 149.496 239.935 149.496 235.735C149.496 231.535 146.091 228.13 141.891 228.13C137.69 228.13 134.286 231.535 134.286 235.735C134.286 239.935 137.69 243.34 141.891 243.34Z M91.5702 479.475C95.0821 479.475 97.9291 476.628 97.9291 473.116C97.9291 469.604 95.0821 466.758 91.5702 466.758C88.0582 466.758 85.2113 469.604 85.2113 473.116C85.2113 476.628 88.0582 479.475 91.5702 479.475Z M570.346 289.419C574.423 289.419 577.728 286.114 577.728 282.037C577.728 277.96 574.423 274.655 570.346 274.655C566.269 274.655 562.964 277.96 562.964 282.037C562.964 286.114 566.269 289.419 570.346 289.419Z M87.3889 441.061C90.5843 441.061 93.1747 438.471 93.1747 435.275C93.1747 432.08 90.5843 429.49 87.3889 429.49C84.1936 429.49 81.6032 432.08 81.6032 435.275C81.6032 438.471 84.1936 441.061 87.3889 441.061Z M553.414 243.231C555.912 243.231 557.937 241.206 557.937 238.708C557.937 236.21 555.912 234.185 553.414 234.185C550.916 234.185 548.891 236.21 548.891 238.708C548.891 241.206 550.916 243.231 553.414 243.231Z M190.045 108.192C193.538 108.192 196.369 105.36 196.369 101.868C196.369 98.375 193.538 95.5435 190.045 95.5435C186.552 95.5435 183.721 98.375 183.721 101.868C183.721 105.36 186.552 108.192 190.045 108.192Z M607.846 241.667C610.314 241.667 612.315 239.667 612.315 237.199C612.315 234.731 610.314 232.73 607.846 232.73C605.378 232.73 603.377 234.731 603.377 237.199C603.377 239.667 605.378 241.667 607.846 241.667Z M412.864 563.54C415.461 563.54 417.566 561.435 417.566 558.838C417.566 556.242 415.461 554.137 412.864 554.137C410.268 554.137 408.163 556.242 408.163 558.838C408.163 561.435 410.268 563.54 412.864 563.54Z M236.66 86.5396C239.392 86.5396 241.607 84.3245 241.607 81.5921C241.607 78.8596 239.392 76.6445 236.66 76.6445C233.928 76.6445 231.712 78.8596 231.712 81.5921C231.712 84.3245 233.928 86.5396 236.66 86.5396Z M250.828 74.0668C254.011 74.0668 256.592 71.486 256.592 68.3024C256.592 65.1188 254.011 62.538 250.828 62.538C247.644 62.538 245.063 65.1188 245.063 68.3024C245.063 71.486 247.644 74.0668 250.828 74.0668Z M587.371 400.127C591.285 400.127 594.458 396.954 594.458 393.039C594.458 389.125 591.285 385.952 587.371 385.952C583.457 385.952 580.284 389.125 580.284 393.039C580.284 396.954 583.457 400.127 587.371 400.127Z" fill="black"/>
</svg>
