<svg width="100%" height="100%" viewBox="0 0 100 100" version="1.1" xmlns="http://www.w3.org/2000/svg" id="decent-logo-svg">
       <defs>
         <style type="text/css">
           @import url("https://fonts.googleapis.com/css?family=Dosis:400,700")
         </style>
         <style type="text/css">
           #text text {
             font-family: 'Dosis'
           }
         </style>
       </defs>
       <g id="svg-content"><circle cx="50" cy="50" r="25" id="shape"></circle><g textAlign="center" fill="undefined" stroke="rgba(0,0,0,0)" id="halftones" style="text-anchor: middle; stroke-width: 0;"><circle cx="24.86482469538781" cy="68.35676016918788" r="1.1758540217440183"></circle><circle cx="44.9574231251267" cy="19.243786407131815" r="0.6838748518284947"></circle><circle cx="23.784163047721083" cy="76.51787116655572" r="0.5094908243758145"></circle><circle cx="20.120652124282373" cy="62.17032526819288" r="0.8097119675147368"></circle><circle cx="83.53545858034241" cy="58.51100813489521" r="0.9063722430613949"></circle><circle cx="61.83289665282777" cy="77.10500499019703" r="1.0871243664915688"></circle><circle cx="79.06031695247493" cy="59.6137186871128" r="1.0393101889755494"></circle><circle cx="28.348231497537597" cy="79.24271302812195" r="0.7190942144205469"></circle><circle cx="20.992155361370774" cy="37.18619510925403" r="0.6465845978174355"></circle><circle cx="55.41479400254973" cy="80.48100053857047" r="0.7091096234439803"></circle><circle cx="85.77381976496795" cy="54.470575817299576" r="0.5102014708515114"></circle><circle cx="27.902640279118167" cy="28.173359618634866" r="0.6507427817716469"></circle><circle cx="78.05902619831737" cy="41.46525323606231" r="1.1052300134963875"></circle><circle cx="72.67652047527785" cy="27.12787569154996" r="1.1264734251420039"></circle><circle cx="74.71195009776088" cy="77.47101755673823" r="0.5529098352882043"></circle><circle cx="77.85282222713596" cy="39.14250012230531" r="1.0853355626418755"></circle><circle cx="51.92290309763489" cy="18.198570999101165" r="0.7974942823507777"></circle><circle cx="36.40914519966002" cy="81.51994969280055" r="0.8029417982157417"></circle><circle cx="20.371055169768656" cy="43.95054645136792" r="1.2178814402638913"></circle><circle cx="61.971898335692465" cy="17.68082129024519" r="0.9618886569893379"></circle><circle cx="75.89923183980943" cy="31.122010309766242" r="1.1018378563234081"></circle><circle cx="28.650224505343733" cy="77.3107136857938" r="0.8416510430187822"></circle><circle cx="80.41028011358162" cy="55.02726666871112" r="0.9270606802669371"></circle><circle cx="69.54153072205891" cy="75.09964609147899" r="0.7758720245920889"></circle><circle cx="32.38692599013787" cy="88.65854985195287" r="0.37894036120780294"></circle><circle cx="38.72783756129698" cy="17.364133270459476" r="0.5990281725716948"></circle><circle cx="33.1742329230773" cy="87.46375098905966" r="0.4002063380484087"></circle><circle cx="65.93830439643565" cy="79.98792430055784" r="0.5915011088049342"></circle><circle cx="41.71704647550662" cy="12.661871639137253" r="0.7267288271562008"></circle><circle cx="78.58478936431392" cy="68.27338559140343" r="0.5737390628999222"></circle><circle cx="50.62276413997336" cy="82.65169475708987" r="0.6722908944276081"></circle><circle cx="17.180293455727387" cy="60.47990086745304" r="0.5800319782929108"></circle><circle cx="46.63404643953094" cy="17.283526629687387" r="0.7803887899171337"></circle><circle cx="16.85136101414873" cy="43.62786574193828" r="0.6154282682041456"></circle><circle cx="83.45211840885625" cy="35.14140198291261" r="0.4967314294171015"></circle><circle cx="30.32178355335145" cy="23.471044022674235" r="0.7804577915823196"></circle><circle cx="24.682780318961196" cy="32.36541696501161" r="0.732611573670642"></circle><circle cx="81.0039673188314" cy="50.70583535960577" r="1.0544205338584212"></circle><circle cx="46.96991988185885" cy="19.277753975785426" r="0.7180384743720589"></circle><circle cx="54.93402043832677" cy="17.243122592584363" r="1.1263015830049112"></circle><circle cx="67.10293606029833" cy="76.46291589800464" r="0.8793980512010494"></circle><circle cx="18.29491908098279" cy="38.62685376106031" r="0.5967716943861119"></circle><circle cx="12.278293146198038" cy="43.78453810933628" r="0.7954465258509915"></circle><circle cx="41.6339305099291" cy="80.30686037467291" r="0.6742677444419267"></circle><circle cx="24.653100137081974" cy="71.93852587533033" r="0.8057681818426792"></circle><circle cx="79.35624071130309" cy="47.22426795410511" r="0.9783099758680667"></circle><circle cx="73.39884275425973" cy="68.39717319092449" r="1.1983259546457485"></circle><circle cx="48.29205679304918" cy="80.05283442889832" r="1.026453328123226"></circle><circle cx="90.53211640157954" cy="37.792977066888206" r="0.3558654054094078"></circle><circle cx="24.15778312421574" cy="64.16265302662032" r="1.0392298201599361"></circle><circle cx="32.09079541410621" cy="73.54922894234883" r="0.9335947726498262"></circle><circle cx="87.2278969113004" cy="49.17512744596762" r="0.6298269068624753"></circle><circle cx="83.57971177728368" cy="60.85261076648104" r="0.8382429190732837"></circle><circle cx="35.62782941366683" cy="85.65185344353694" r="0.502944559876681"></circle><circle cx="81.95702471392643" cy="21.8311873474128" r="0.5092681768830383"></circle><circle cx="72.64541579881775" cy="29.6540944744064" r="0.795059751201902"></circle><circle cx="7.548444322850756" cy="43.80273834475596" r="0.41595753346426934"></circle><circle cx="80.79959837921133" cy="38.16621973981524" r="0.8554800359121034"></circle><circle cx="68.2401827507797" cy="88.20784642423193" r="0.3958027146583454"></circle><circle cx="73.3754070273918" cy="81.7471462604077" r="0.4025342084551342"></circle><circle cx="26.283029391095656" cy="21.60678596880428" r="0.6464300839543121"></circle><circle cx="57.008982308252776" cy="81.14177536012252" r="0.6437607458487503"></circle><circle cx="15.494734097171829" cy="52.10751671125779" r="1.0421718494479435"></circle><circle cx="44.85211059033196" cy="85.77008055013842" r="0.8968026536775918"></circle><circle cx="34.52859576662623" cy="23.388401844288037" r="0.7483183967353133"></circle><circle cx="25.223968523990177" cy="73.65277052698353" r="0.6376013847205326"></circle><circle cx="83.79996704960209" cy="41.35203117179012" r="0.9739455559367429"></circle><circle cx="11.361890391428275" cy="51.3922953687159" r="0.5241554042632587"></circle><circle cx="29.08394812114481" cy="25.366539592814185" r="0.9344300799801413"></circle><circle cx="87.97883508573636" cy="43.416119289290215" r="0.5560542023331371"></circle><circle cx="69.18172042671502" cy="16.53866855844661" r="0.5748921157665485"></circle><circle cx="39.324184012587814" cy="77.35689746552754" r="0.7933636455547719"></circle><circle cx="80.21531216804543" cy="31.90772722746525" r="0.5429716278615603"></circle><circle cx="77.18952386119787" cy="75.80231536581421" r="0.5466710630223984"></circle><circle cx="53.833049230380624" cy="80.3800665301105" r="0.9252655685491824"></circle><circle cx="28.0101441081284" cy="22.090101038472227" r="0.5190185540320268"></circle><circle cx="25.654072885369462" cy="24.059266398736018" r="0.7000808299253681"></circle><circle cx="49.21335688342176" cy="18.857369970468586" r="0.7558779061681757"></circle><circle cx="35.42069776740291" cy="21.13227783030451" r="0.8211253848633168"></circle><circle cx="83.92451071163472" cy="24.244577760340484" r="0.4363187994065064"></circle><circle cx="35.53328290990788" cy="78.19767427475631" r="0.8640050878378258"></circle><circle cx="16.904232427712742" cy="49.07050384922825" r="0.7276645026159176"></circle><circle cx="41.65412441329208" cy="78.09007490207271" r="0.8305941087528778"></circle><circle cx="92.74968101550746" cy="45.540824897812776" r="0.3450628421725841"></circle><circle cx="7.900941646230422" cy="47.626488689938675" r="0.37801177453456614"></circle><circle cx="23.373237919070018" cy="30.84333108928145" r="0.6848814783352407"></circle><circle cx="24.14470836930173" cy="25.924981208937" r="0.7002576362404698"></circle><circle cx="88.23944296972681" cy="27.40859403789219" r="0.4672359164706275"></circle><circle cx="62.939428698545356" cy="23.479573826843637" r="0.8717926602418183"></circle><circle cx="17.27385988518912" cy="58.853136040958944" r="0.844946996923373"></circle><circle cx="69.71412032147347" cy="72.01922866548554" r="1.1847390513486982"></circle><circle cx="17.34135426821171" cy="35.34442760250653" r="0.5630457753040211"></circle><circle cx="27.126999118542" cy="81.44987903368333" r="0.48999082882243566"></circle><circle cx="79.10851663497637" cy="65.81478101543867" r="0.8884861497140156"></circle><circle cx="17.233411820169863" cy="24.586474332792665" r="0.40901267852678697"></circle><circle cx="66.80560692081805" cy="13.969367139115285" r="0.4060202860538064"></circle><circle cx="43.15630119155958" cy="89.94860073474865" r="0.4714418473241405"></circle><circle cx="90.3991940592993" cy="56.94015435060816" r="0.5779211124832629"></circle><circle cx="66.71429707356089" cy="25.889984861419183" r="1.070058091088764"></circle><circle cx="21.294477974612043" cy="55.81128635035862" r="1.1981055996480243"></circle><circle cx="91.30387327324988" cy="49.603073754189474" r="0.4072901488483786"></circle><circle cx="76.14656335823781" cy="73.5673285984589" r="0.753214786783591"></circle><circle cx="79.15405571578609" cy="61.95710558453017" r="1.0131975045019228"></circle><circle cx="39.66303662393417" cy="84.21957299179218" r="0.7592272936868016"></circle><circle cx="32.75630968087496" cy="76.31295524741003" r="0.6847434460887032"></circle><circle cx="69.03593932388301" cy="80.9321418083618" r="0.5742572266585021"></circle><circle cx="72.2955713735369" cy="21.37202394347291" r="0.4884534628284845"></circle><circle cx="23.225124939904152" cy="78.2893668178555" r="0.4661581851485912"></circle><circle cx="28.787992156234544" cy="29.53662506960989" r="0.8151240150473577"></circle><circle cx="47.12698657169457" cy="20.864752776085282" r="0.883636129069623"></circle><circle cx="35.09768793523528" cy="89.56155595097707" r="0.627503502428045"></circle><circle cx="13.833712136176018" cy="69.18855392313091" r="0.6099643753520557"></circle><circle cx="21.89296433331806" cy="59.58019247227135" r="0.7279598593322284"></circle><circle cx="87.41565279799732" cy="41.168930684489425" r="0.6023390773471755"></circle><circle cx="22.05588667867328" cy="40.25978223632541" r="1.344026569998284"></circle><circle cx="11.247407573602956" cy="55.113858521452414" r="0.5159390935949286"></circle><circle cx="77.31041396380269" cy="65.6510196591738" r="1.221748810841433"></circle><circle cx="43.75509674932946" cy="83.67079057337827" r="1.0020358538827139"></circle><circle cx="80.08738288612118" cy="34.02646340089546" r="0.6270717787964838"></circle><circle cx="79.33093676384654" cy="44.8578378255088" r="0.71609433563368"></circle><circle cx="76.22739102287568" cy="62.99257000171413" r="1.2942551640280984"></circle><circle cx="61.92703177936817" cy="79.56156511275988" r="0.6930677517383601"></circle><circle cx="65.68494501645671" cy="22.21237961471495" r="0.9765181979929232"></circle><circle cx="77.83293895392264" cy="36.36538802076228" r="0.6545885043361083"></circle><circle cx="71.15108797108907" cy="24.702150557057237" r="0.9245193948288902"></circle><circle cx="20.662770085618707" cy="53.332604727741696" r="1.1263072568988914"></circle><circle cx="36.8654697575956" cy="23.438726662887483" r="0.7403631165416888"></circle><circle cx="51.9204111692302" cy="79.74026689036538" r="0.7490014658213107"></circle><circle cx="87.01061657432106" cy="46.71265525886647" r="0.47372685987423885"></circle><circle cx="81.56154869601718" cy="39.914844331345975" r="0.7629054328395579"></circle><circle cx="19.37869618457711" cy="72.01889304699331" r="0.7545763138610783"></circle><circle cx="82.28169812780817" cy="70.3009404996541" r="0.432364071167021"></circle><circle cx="57.02995967230151" cy="20.786914130345163" r="0.9963444164492073"></circle><circle cx="50.21959718226022" cy="12.611889063400369" r="0.6529841836175051"></circle><circle cx="57.755287339958606" cy="85.26372858689516" r="0.6348482491909863"></circle><circle cx="24.17500552490067" cy="33.99194643896486" r="0.7247285612510838"></circle><circle cx="80.86214504640844" cy="71.50037831497183" r="0.6499598804120043"></circle><circle cx="18.5803697199305" cy="34.65063578066399" r="0.5162493477766538"></circle><circle cx="22.688084665341158" cy="37.350082401882275" r="1.0903733264561946"></circle><circle cx="83.98595082679964" cy="38.17969890989913" r="0.6003975518664321"></circle><circle cx="20.246506119995672" cy="48.85467535397979" r="0.8803570985131908"></circle><circle cx="84.35769239489301" cy="66.74933236945341" r="0.432814662880971"></circle><circle cx="86.68631370757981" cy="38.56483855383157" r="0.6264392335739174"></circle><circle cx="38.31020237623389" cy="79.90823809671161" r="0.7471837034624691"></circle><circle cx="81.39364926764011" cy="47.32165473958285" r="0.7913482799902927"></circle><circle cx="16.864214070996283" cy="55.532519889544616" r="0.6673254316514032"></circle><circle cx="61.72459239736803" cy="83.85382281900343" r="0.8106196766738281"></circle><circle cx="15.540495072133346" cy="43.30533147301883" r="0.9670873282717944"></circle><circle cx="84.10392357704896" cy="53.979977017271594" r="0.646359146015509"></circle><circle cx="12.07533221920476" cy="64.5552568966749" r="0.6721530206770371"></circle><circle cx="16.696021389746406" cy="38.69463218809638" r="0.5675619892224154"></circle><circle cx="18.323981920257136" cy="46.87537470055989" r="0.8011272110955937"></circle><circle cx="17.022150410063524" cy="32.892464037544116" r="0.8810498643419334"></circle><circle cx="50.656267806001054" cy="14.275393696814653" r="0.5837603879747111"></circle><circle cx="23.437118285230124" cy="17.24951674907205" r="0.39673621618179755"></circle><circle cx="73.05882336132188" cy="74.03591620284571" r="0.7737985767205016"></circle><circle cx="59.36766879264011" cy="18.117597127203695" r="0.6359883218056673"></circle><circle cx="46.029393098258495" cy="15.400891742559985" r="0.5158548292319887"></circle><circle cx="32.184932368124606" cy="79.7714768955594" r="0.8735355288065854"></circle><circle cx="46.711795994741635" cy="14.315126288255222" r="0.6611961523323124"></circle><circle cx="51.465091411342726" cy="20.60415649521984" r="0.8135975506965177"></circle><circle cx="26.870215434315586" cy="71.99280612583331" r="0.8082380106039696"></circle><circle cx="58.03071647997534" cy="78.21824353453862" r="0.7557785232137361"></circle><circle cx="88.44747779810007" cy="47.65111107126058" r="0.4277247846462876"></circle><circle cx="23.33675526639057" cy="84.13403025576274" r="0.4658319174554201"></circle><circle cx="14.5579047337404" cy="33.25565905042831" r="0.5505360811399808"></circle><circle cx="56.667378438216204" cy="8.763540088524167" r="0.5500717693283808"></circle><circle cx="76.01233044303873" cy="20.715917520100025" r="0.5151064935176034"></circle><circle cx="79.60821021946306" cy="16.98197844851257" r="0.42248280178713393"></circle><circle cx="44.000172177854424" cy="17.07941314337544" r="0.8419246549268548"></circle><circle cx="84.24434189852283" cy="55.636388325032925" r="0.561871006250899"></circle><circle cx="20.651514032261957" cy="63.79237657572393" r="0.7523469218763046"></circle><circle cx="51.34160133125572" cy="15.52025692337262" r="0.5569382216801343"></circle><circle cx="66.93753103222173" cy="81.82250303796197" r="0.4942337229780383"></circle><circle cx="36.836514114914635" cy="88.234187033239" r="0.6071185303892715"></circle><circle cx="74.74714212367205" cy="33.96433935221842" r="0.9399801217940028"></circle><circle cx="50.39400662506972" cy="80.43223687421593" r="1.099877074040454"></circle><circle cx="80.63526273366472" cy="23.136414598977847" r="0.4489268753691148"></circle><circle cx="29.675638388428872" cy="71.49255432619553" r="1.2064178919299176"></circle><circle cx="19.31222937851853" cy="20.23303118003921" r="0.3832393909864238"></circle><circle cx="75.92519544500342" cy="71.17934949614218" r="0.8313988630349789"></circle><circle cx="20.163928124067816" cy="58.32207165990994" r="1.2300279607612181"></circle><circle cx="14.803267379055619" cy="24.48000903483973" r="0.36379952739904087"></circle><circle cx="65.43059011908159" cy="11.425833511773035" r="0.4846160450453111"></circle><circle cx="16.808702241784836" cy="78.37489898657655" r="0.3811327759432729"></circle><circle cx="68.12114773385244" cy="18.440409887519024" r="0.5784638459794844"></circle></g></g>
  <desc>Created with Snap</desc></svg>
