<svg width="100%" height="100%" viewBox="0 0 100 100" version="1.1" xmlns="http://www.w3.org/2000/svg" id="decent-logo-svg">
       <defs>
         <style type="text/css">
           @import url("https://fonts.googleapis.com/css?family=Dosis:400,700")
         </style>
         <style type="text/css">
           #text text {
             font-family: 'Dosis'
           }
         </style>
       </defs>
       <g id="svg-content"><circle cx="50" cy="50" r="25" id="shape"></circle><g textAlign="center" fill="undefined" style="text-anchor: middle; stroke-width: 0;" stroke="rgba(0,0,0,0)" id="halftones"><polygon points="84.64793120540142,55.49403261062279,85.2910208429299,54.38016868460243,84.00484156787294,54.380168684602424"></polygon><polygon points="45.05188235957984,85.12826349177672,45.554538061505134,84.25763827732791,44.54922665765455,84.25763827732791"></polygon><polygon points="13.461522829375006,68.40851104389174,13.823941042103364,67.78078428585792,13.099104616646649,67.78078428585792"></polygon><polygon points="39.800229166796036,17.621242149670053,40.46136176908433,16.47612689196651,39.139096564507746,16.47612689196651"></polygon><polygon points="86.54693776978749,75.29497889486714,86.95322391014444,74.59127065735782,86.14065162943054,74.59127065735782"></polygon><polygon points="79.18477928666152,23.280496685720966,79.77586882635055,22.256699571157068,78.5936897469725,22.256699571157064"></polygon><polygon points="8.21770370976158,54.223138881875684,8.794133620971937,53.22473298865693,7.6412737985512225,53.22473298865693"></polygon><polygon points="56.36085826517254,85.98639557887537,57.128562433785355,84.65669295365555,55.59315409655972,84.65669295365555"></polygon><polygon points="32.502080975889754,18.522433923038953,33.066775118209954,17.544354977803835,31.937386833569555,17.544354977803835"></polygon><polygon points="91.00519732210591,43.034153224304674,91.45650612779225,42.252463442952696,90.55388851641958,42.252463442952696"></polygon><polygon points="50.778214405269054,12.363325468386028,51.35528372328649,11.363812090090706,50.20114508725162,11.363812090090704"></polygon><polygon points="84.67144090398529,49.703059273072945,85.29036265279592,48.63105535822355,84.05251915517465,48.63105535822355"></polygon><polygon points="74.7758097245782,22.1099582850567,75.17234734253208,21.42313498364824,74.37927210662431,21.42313498364824"></polygon><polygon points="22.629179240728302,82.9701464838982,23.12118745283123,82.11796326279482,22.137171028625374,82.11796326279482"></polygon><polygon points="40.84721045157131,88.20491380049206,41.22132176149327,87.55693400402107,40.47309914164934,87.55693400402107"></polygon><polygon points="13.796601085473668,39.33878155904365,14.342896767940951,38.39256968105481,13.250305403006386,38.39256968105481"></polygon><polygon points="15.620027851522082,39.19675986585585,16.10594954941269,38.35511879660919,15.134106153631475,38.35511879660919"></polygon><polygon points="85.84905100515519,33.74160002623156,86.29031967690636,32.97730026697008,85.40778233340401,32.97730026697008"></polygon><polygon points="90.50519803311113,55.903963638096315,90.92456418213835,55.177600161006644,90.0858318840839,55.177600161006644"></polygon><polygon points="54.34154243748422,92.36508017395984,54.895321097891646,91.40590739798674,53.7877637770768,91.40590739798674"></polygon><polygon points="28.35495725479488,23.363131798811306,28.899029931647235,22.420770279493023,27.810884577942524,22.42077027949302"></polygon><polygon points="84.01982995835768,35.564126642285075,84.74262323768612,34.31221195911889,83.29703667902923,34.31221195911889"></polygon><polygon points="67.74477480214271,20.97395751264189,68.49258094364596,19.678719281346222,66.99696866063947,19.678719281346222"></polygon><polygon points="14.424444904191482,50.70381828049094,14.908706151162127,49.865053196601124,13.940183657220837,49.865053196601124"></polygon><polygon points="34.52164523124318,16.762455920709442,35.22230981713962,15.548869258872593,33.82098064534674,15.548869258872593"></polygon><polygon points="80.09310613681428,26.53392617318612,80.77769915841702,25.348176277263075,79.40851311521155,25.348176277263075"></polygon><polygon points="73.25562188340864,77.45876935774614,74.08156039088651,76.02820189886685,72.42968337593076,76.02820189886685"></polygon><polygon points="52.83194190187918,7.483395072120452,53.216262506146236,6.817732259134342,52.44762129761213,6.817732259134342"></polygon><polygon points="23.647111801807977,27.233645335517128,24.23482302249748,26.215699641104585,23.059400581118474,26.215699641104585"></polygon><polygon points="86.54959840668326,58.69204560588741,87.05588994620055,57.815122936001195,86.04330686716597,57.815122936001195"></polygon><polygon points="20.164294016459255,29.680092173314076,20.732304942786204,28.69626838966154,19.596283090132307,28.696268389661537"></polygon><polygon points="21.230800239580184,70.8207105345737,21.69101386723714,70.02359714913628,20.77058661192323,70.02359714913628"></polygon><polygon points="30.38068602739541,82.98499427091981,30.804413651268955,82.2510764978004,29.956958403521863,82.2510764978004"></polygon><polygon points="64.63153363373576,88.42873727762965,65.05883011492202,87.68863806231965,64.2042371525495,87.68863806231965"></polygon><polygon points="22.349032087065908,75.4571918159813,22.75659381056429,74.75127420366177,21.941470363567525,74.75127420366177"></polygon><polygon points="86.19276128417206,37.29703749810406,86.57240400982721,36.63947700854542,85.81311855851692,36.63947700854542"></polygon><polygon points="82.3908438290583,63.264397644068964,82.9399674582266,62.31328761871284,81.84172019988999,62.31328761871284"></polygon><polygon points="34.349729141910686,86.48759158220746,34.903083398880874,85.52915389455056,33.7963748849405,85.52915389455056"></polygon><polygon points="37.61717643197864,17.911065478261047,38.18933082262787,16.92006500388297,37.04502204132941,16.92006500388297"></polygon><polygon points="89.66521331969028,66.32505397952026,90.14777045228558,65.48924050831044,89.18265618709498,65.48924050831044"></polygon><polygon points="58.66204447264878,93.43519064909665,59.092037222805054,92.69042135893973,58.23205172249251,92.69042135893973"></polygon><polygon points="61.814267158937156,85.47651544662598,62.248302716338785,84.72474380891488,61.38023160153553,84.72474380891488"></polygon><polygon points="15.484951898282425,42.240051254147886,16.06383681600564,41.23739316491595,14.90606698055921,41.23739316491595"></polygon><polygon points="31.18518282543322,90.59905171752474,31.614708531891036,89.85509137078289,30.755657118975403,89.85509137078289"></polygon><polygon points="52.44918450270553,89.9871965716131,52.8613637436183,89.27328118452701,52.03700526179276,89.27328118452701"></polygon><polygon points="79.85447118419461,73.93207769318154,80.5888314599071,72.66012838458722,79.12011090848212,72.66012838458722"></polygon><polygon points="6.996064639570591,58.55256212087711,7.303773539592542,58.019594672097966,6.68835573954864,58.019594672097966"></polygon><polygon points="40.181513196775626,87.53784883671068,40.9253731958306,86.24944552462931,39.43765319772065,86.24944552462931"></polygon><polygon points="17.067320361036536,79.9552575668548,17.34850502945324,79.46823143484767,16.786135692619833,79.46823143484767"></polygon><polygon points="34.86351838111136,19.716684159156408,35.645210962211515,18.362752892791292,34.08182580001121,18.36275289279129"></polygon><polygon points="20.041376468455017,16.718265948997974,20.34174446886135,16.19801331132633,19.741008468048683,16.19801331132633"></polygon><polygon points="27.226767689877875,77.25069049675027,27.884519470886886,76.11143099327374,26.569015908868863,76.11143099327374"></polygon><polygon points="92.83277740821498,64.31709822732371,93.10964406647814,63.83755110829012,92.55591074995182,63.83755110829012"></polygon><polygon points="38.28789737035907,7.523586418879395,38.59328226724492,6.994644261608909,37.982512473473214,6.994644261608909"></polygon><polygon points="66.7267246641226,87.57830027974929,67.06242403274054,86.99685191723422,66.39102529550466,86.99685191723422"></polygon><polygon points="65.63901834147896,83.7334986778902,66.07781919936261,82.9734732976309,65.20021748359531,82.9734732976309"></polygon><polygon points="94.7762351007716,45.59063434024181,95.11891509611863,44.99709517756329,94.43355510542457,44.99709517756329"></polygon><polygon points="77.11849868466118,76.7565646797941,77.6351361082917,75.86172241297454,76.60186126103065,75.86172241297454"></polygon><polygon points="20.216931047882706,74.61700725788181,20.725028686501098,73.73695633258899,19.708833409264315,73.73695633258899"></polygon><polygon points="64.31136915525364,95.17911699680245,64.66648832440629,94.56403255308841,63.95624998610099,94.56403255308841"></polygon><polygon points="74.00030160104733,25.182032674380498,74.76524837607155,23.857105994952573,73.2353548260231,23.857105994952573"></polygon><polygon points="27.001261361608673,17.79459646020505,27.45588297357001,17.00716873006915,26.546639749647337,17.00716873006915"></polygon><polygon points="89.41813269326096,44.552157551893636,89.77249310693541,43.93838731121835,89.0637722795865,43.93838731121835"></polygon><polygon points="37.467688005495425,10.421112876284377,37.93859479286372,9.605478394933467,36.99678121812713,9.605478394933465"></polygon><polygon points="11.32152075829378,54.24644241190518,11.873545108516756,53.29030819030378,10.769496408070802,53.29030819030378"></polygon><polygon points="5.18951964767782,36.74208878473673,5.465224181170775,36.264554524849856,4.913815114184864,36.264554524849856"></polygon><polygon points="24.827413715833565,25.600231571817105,25.605346706084124,24.252812107819153,24.049480725583006,24.252812107819153"></polygon><polygon points="61.344393673224275,18.078517656097173,61.93980698176307,17.047231554205293,60.74898036468548,17.04723155420529"></polygon><polygon points="53.12692474463305,11.010021455016387,53.54462807329682,10.286538067280103,52.70922141596929,10.286538067280103"></polygon><polygon points="48.31910427180268,93.46568802858937,48.863727089173764,92.52237363794136,47.774481454431594,92.52237363794136"></polygon><polygon points="29.1580345069402,79.29063425316642,29.623209658031854,78.48492725705715,28.692859355848547,78.48492725705715"></polygon><polygon points="13.526860674286354,58.70813629365238,14.031896037319635,57.83338938525975,13.021825311253073,57.83338938525975"></polygon><polygon points="86.79363225002558,50.24519576310582,87.22953692580208,49.49018671740408,86.35772757424908,49.49018671740408"></polygon><polygon points="28.077356862735478,82.26468813396006,28.629844104979988,81.30775215985896,27.524869620490968,81.30775215985896"></polygon><polygon points="38.73551910182065,84.54505959785234,39.58912332238341,83.06657371828243,37.8819148812579,83.06657371828243"></polygon><polygon points="67.90463122449876,84.19327288623938,68.34689957297425,83.42724163610025,67.46236287602326,83.42724163610025"></polygon><polygon points="61.956440758049794,13.813797481417932,62.5402180524881,12.802665547145695,61.37266346361149,12.802665547145695"></polygon><polygon points="56.78926006575654,94.48955779844263,57.08952273602735,93.96948759791728,56.488997395485725,93.96948759791728"></polygon><polygon points="52.52739076696596,9.480538658843814,52.93879254073964,8.767969884343838,52.115988993192275,8.767969884343838"></polygon><polygon points="93.58836278961506,49.61827792431312,94.00327893302428,48.89962208304782,93.17344664620585,48.89962208304782"></polygon><polygon points="23.626098806162723,10.908513740129447,23.92457528894678,10.391537307083,23.327622323378666,10.391537307083"></polygon><polygon points="15.622036003587183,36.398325237950104,16.349282803695537,35.138696830520544,14.894789203478828,35.138696830520544"></polygon><polygon points="81.86374556961911,34.320891084299575,82.38298402129838,33.42154370474768,81.34450711793984,33.42154370474768"></polygon><polygon points="79.54975760709124,68.79874398495225,80.24324269995071,67.59759256982801,78.85627251423176,67.59759256982801"></polygon><polygon points="53.01150886126866,14.850234169286969,53.449132368716555,14.092248019800723,52.573885353820764,14.092248019800723"></polygon><polygon points="25.822271334933426,85.36930102469938,26.171750565180922,84.76398524172066,25.47279210468593,84.76398524172066"></polygon><polygon points="12.641329798084826,37.604464044125585,13.007603109897,36.970060058610386,12.275056486272652,36.970060058610386"></polygon><polygon points="50.49324710940468,13.785187570546233,51.09491323686909,12.743071268584664,49.891580981940265,12.743071268584664"></polygon><polygon points="42.65869565053421,84.37446245677758,43.1675559020703,83.4930906471648,42.149835398998135,83.4930906471648"></polygon><polygon points="77.92168827062766,71.95189980573178,78.49077781688509,70.9662077975576,77.35259872437022,70.9662077975576"></polygon><polygon points="31.780262199402642,20.90960489323887,32.38652175304163,19.859532543762125,31.17400264576366,19.859532543762125"></polygon><polygon points="88.36218904638426,31.804305495512182,88.77603651615435,31.08750065128656,87.94834157661417,31.08750065128656"></polygon><polygon points="78.85414601732968,28.972687824487977,79.55762384193036,27.754228490281555,78.150668192729,27.754228490281555"></polygon><polygon points="46.4639798249788,86.2218383187247,47.053310407490166,85.20108780736086,45.874649242467434,85.20108780736086"></polygon><polygon points="49.41820291513806,88.84376056347953,49.82968647506015,88.13105013121516,49.00671935521597,88.13105013121516"></polygon><polygon points="63.1377064771091,96.34859154296196,63.57149709959773,95.59724414496472,62.70391585462047,95.59724414496472"></polygon><polygon points="75.98840350412391,74.48628840230975,76.4916105731055,73.61470819210581,75.48519643514231,73.61470819210581"></polygon><polygon points="83.5019900649576,73.98685865918031,84.04670529822972,73.04338419949626,82.95727483168547,73.04338419949626"></polygon><polygon points="15.847909453357701,58.887243051709376,16.552535006497436,57.66679579336003,15.143283900217966,57.66679579336003"></polygon><polygon points="37.015245247116525,88.93202723793678,37.34741947717139,88.35668459451668,36.68307101706166,88.35668459451668"></polygon><polygon points="65.80464872976687,85.300405044924,66.53395756966934,84.0372050798038,65.0753398898644,84.0372050798038"></polygon><polygon points="43.6252227885144,9.300191217358961,44.14532103628251,8.399354627297045,43.10512454074629,8.399354627297045"></polygon><polygon points="8.596197090860343,59.62754804264701,9.008888552431717,58.912745463355535,8.18350562928897,58.912745463355535"></polygon><polygon points="78.08212400802776,26.305010882985442,78.49553486259684,25.588962278471335,77.66871315345868,25.588962278471335"></polygon><polygon points="83.95977907610352,60.02790627006469,84.57269489107031,58.966304937779704,83.34686326113672,58.966304937779704"></polygon><polygon points="93.07300003744055,44.29658042288476,93.45557834157034,43.63393536225843,92.69042173331076,43.63393536225843"></polygon><polygon points="7.326079127472092,37.56166299899056,7.649173747856998,37.00204670083173,7.002984507087186,37.00204670083173"></polygon><polygon points="71.63502972196386,16.32259075482817,71.97371601296453,15.735968890987948,71.29634343096319,15.735968890987948"></polygon><polygon points="73.08068866890981,80.6508928975782,73.49775478182691,79.92851319989053,72.66362255599272,79.92851319989052"></polygon><polygon points="63.94959731833774,16.20865660207578,64.63044892954,15.029387019058328,63.26874570713547,15.029387019058328"></polygon><polygon points="24.105700671472203,76.4682561994282,24.8561222624524,75.16848787675383,23.355279080492007,75.16848787675383"></polygon><polygon points="30.35704447481814,16.705988087023805,31.045712481261305,15.513180110317073,29.668376468374973,15.513180110317073"></polygon><polygon points="81.76568037726187,75.74259616034178,82.2104739074838,74.97219116711948,81.32088684703994,74.97219116711948"></polygon><polygon points="34.38555907957196,90.41606876138454,34.885708638678025,89.54978431362966,33.8854095204659,89.54978431362966"></polygon><polygon points="69.70396005130969,18.130955113835785,70.35288973414406,17.0069759326271,69.05503036847533,17.0069759326271"></polygon><polygon points="26.227062767205894,20.782258345076166,26.617620645099183,20.105792257268707,25.836504889312604,20.105792257268707"></polygon><polygon points="58.2823681258491,11.771537978539996,58.884068461083366,10.72936242698303,57.68066779061484,10.72936242698303"></polygon><polygon points="40.64171773425193,12.475121817840453,41.194863259810305,11.51704566359395,40.08857220869355,11.51704566359395"></polygon><polygon points="59.66931673805841,84.50288122327399,60.1822427595217,83.6144672935754,59.156390716595126,83.6144672935754"></polygon><polygon points="12.926898203486907,52.37276459473495,13.364490681168412,51.61483219038063,12.489305725805401,51.61483219038063"></polygon><polygon points="12.00613949438086,39.68183883936521,12.376211219661487,39.0408558087345,11.636067769100235,39.0408558087345"></polygon><polygon points="76.49210937938896,22.074137981399645,76.88953052884995,21.385784358530792,76.09468822992798,21.385784358530792"></polygon><polygon points="15.136696950230856,48.949325361359406,15.7158851632857,47.946141949203394,14.557508737176013,47.946141949203394"></polygon><polygon points="80.53593108629683,19.786559562734567,80.87854575317135,19.19313355228961,80.1933164194223,19.19313355228961"></polygon><polygon points="29.659114510003555,20.128139977377113,30.279636785886183,19.05336386832013,29.038592234120927,19.053363868320126"></polygon><polygon points="15.428653307434963,47.668401637250874,16.19559704180702,46.340016122771864,14.661709573062907,46.340016122771864"></polygon><polygon points="11.54252263137144,51.456248407523034,12.122151244664087,50.452302199779474,10.962894018078794,50.452302199779474"></polygon><polygon points="89.28200708507086,37.90337465911783,89.60118501143944,37.350542273992964,88.96282915870228,37.350542273992964"></polygon><polygon points="14.227802183752935,43.91226025169157,14.751787001496309,43.00469192496533,13.703817366009561,43.00469192496533"></polygon><polygon points="27.970156009309427,80.40429994161674,28.700926292554854,79.13856868237417,27.239385726064,79.13856868237416"></polygon><polygon points="17.55680092540834,32.25417778360568,17.951505782021886,31.570528917956825,17.162096068794792,31.570528917956825"></polygon><polygon points="48.453210321583086,85.81020686134289,49.21470772861009,84.49125466254017,47.691712914556085,84.49125466254017"></polygon><polygon points="18.782389493745395,30.694612347469707,19.497358580143892,29.456249563986407,18.067420407346898,29.456249563986407"></polygon><polygon points="84.60871598326764,38.47895884557237,85.13421379143485,37.568769942560685,84.08321817510044,37.568769942560685"></polygon><polygon points="19.459942533141742,17.826849909243844,19.84259566597336,17.164075241504083,19.077289400310125,17.164075241504083"></polygon><polygon points="15.961830570361862,65.00837449140306,16.581371924443918,63.93529738874291,15.342289216279806,63.93529738874291"></polygon><polygon points="89.24920838527302,56.00770028036596,89.9169236076541,54.851183590214774,88.58149316289195,54.851183590214774"></polygon><polygon points="65.71194191570228,82.5109357463279,66.28016832117758,81.52673874184244,65.14371551022698,81.52673874184244"></polygon><polygon points="83.48684343199162,65.95653565602794,84.04538131649282,64.9891196621198,82.92830554749041,64.9891196621198"></polygon><polygon points="62.974567216498016,10.48497441744889,63.57030228148568,9.453131017039908,62.37883215151035,9.453131017039908"></polygon><polygon points="23.013101833840786,74.38764991272066,23.755050769222283,73.10255666001827,22.27115289845929,73.10255666001827"></polygon><polygon points="17.682520834726738,27.208574412858212,18.27650911506614,26.179756532209904,17.088532554387335,26.1797565322099"></polygon><polygon points="36.05266527888619,85.2609263524871,36.60930540006894,84.2967973810673,35.496025157703436,84.2967973810673"></polygon><polygon points="85.70898543517683,41.50751008114543,86.36005394138573,40.37982634918365,85.05791692896793,40.37982634918365"></polygon><polygon points="89.74078830173951,43.29189073485377,90.1756577304318,42.53867478970029,89.30591887304723,42.53867478970029"></polygon><polygon points="89.61210257116954,74.84062884831494,89.93563831326472,74.28024850494158,89.28856682907437,74.28024850494158"></polygon><polygon points="49.33527597698068,90.58763899187196,49.78886007133365,89.8020082949475,48.88169188262771,89.8020082949475"></polygon><polygon points="69.69122187309304,19.90920203535026,70.24229778537502,18.9547105564505,69.14014596081107,18.9547105564505"></polygon><polygon points="86.86585814880566,65.60851873996198,87.46508188074434,64.57063279114314,86.26663441686698,64.57063279114314"></polygon><polygon points="70.87539538966416,22.442123563314805,71.37334281999999,21.5796533144748,70.37744795932834,21.5796533144748"></polygon><polygon points="83.39951202860831,30.207934030501757,83.88679025208958,29.363943390010288,82.91223380512704,29.363943390010288"></polygon><polygon points="15.45152765531217,55.99049046597778,15.956501392607635,55.115850296494095,14.946553918016704,55.115850296494095"></polygon><polygon points="22.395788094710603,20.194110330275265,22.912789404241444,19.29863779458821,21.878786785179763,19.29863779458821"></polygon><polygon points="35.908581458348806,89.2303018184779,36.40796074847238,88.3653515157362,35.409202168225235,88.3653515157362"></polygon><polygon points="87.1085481519475,61.89779689666545,87.49802676555032,61.223200149443876,86.71906953834468,61.223200149443876"></polygon><polygon points="10.72425106209829,30.336419773462108,11.078316567311179,29.72316032922584,10.370185556885401,29.72316032922584"></polygon><polygon points="49.90066168172801,15.607944499619702,50.525160512991015,14.526280794604792,49.276162850465006,14.526280794604792"></polygon><polygon points="72.89897043661192,17.320131079199466,73.27801304721245,16.66361001940579,72.51992782601138,16.66361001940579"></polygon><polygon points="23.009152519770904,84.72089252955108,23.40834613875953,84.02946889940549,22.609958900782278,84.02946889940549"></polygon><polygon points="13.037145280656361,41.76474379512235,13.425078168560951,41.09282432334468,12.649212392751773,41.09282432334468"></polygon><polygon points="18.47610983513561,67.91237967455011,18.948991050297558,67.0933253839447,18.00322861997366,67.0933253839447"></polygon><polygon points="20.751370235394926,73.22824336630981,21.343477419995494,72.20268363905505,20.159263050794358,72.20268363905505"></polygon><polygon points="33.41139472163337,81.47997022722753,33.88033556354437,80.66774086329355,32.94245387972237,80.66774086329355"></polygon><polygon points="37.11143075619957,14.897120191553572,37.6792971778354,13.913546697367979,36.54356433456373,13.913546697367979"></polygon><polygon points="40.1565503127931,8.025972125404415,40.59838307524602,7.260695332387453,39.71471755034018,7.260695332387453"></polygon><polygon points="16.006712998539136,67.07960978860905,16.440302909639282,66.32861003293432,15.57312308743899,66.32861003293432"></polygon><polygon points="21.00384257277742,69.81403841374579,21.68349065149609,68.63685341013849,20.324194494058748,68.63685341013849"></polygon><polygon points="54.15876637463555,90.87629392022446,54.73679475058849,89.87511940485744,53.58073799868261,89.87511940485744"></polygon><polygon points="60.76089285474525,6.035623839830153,61.05579619988731,5.524836262722082,60.46598950960319,5.524836262722082"></polygon><polygon points="87.21200328291204,30.30712632773527,87.66829185144718,29.516811344119528,86.7557147143769,29.516811344119528"></polygon><polygon points="10.700627264666522,62.98390110313118,11.060094593304846,62.361285426268545,10.341159936028198,62.361285426268545"></polygon><polygon points="25.48379016322035,18.482038656827484,26.04213266115502,17.514961082379713,24.925447665285677,17.514961082379713"></polygon><polygon points="32.17466882943617,15.302792597697614,32.533166787782015,14.681855919432897,31.816170871090325,14.681855919432897"></polygon><polygon points="85.19896068659891,42.94416472891858,85.7653433986792,41.96316109506686,84.63257797451861,41.96316109506686"></polygon><polygon points="16.340766700789523,61.928013062410116,16.79542393749387,61.14052362840932,15.886109464085179,61.14052362840932"></polygon><polygon points="36.172875527162944,11.991399617376562,36.58325969783744,11.280593383146316,35.76249135648845,11.280593383146316"></polygon><polygon points="16.834651734859996,33.80312855236522,17.559883676142967,32.54698998279131,16.109419793577025,32.54698998279131"></polygon><polygon points="57.03627924866278,91.11645182858246,57.43708108336467,90.42224268711196,56.63547741396089,90.42224268711196"></polygon><polygon points="76.78795001099935,25.321028736035434,77.44487875926522,24.18319476708631,76.13102126273348,24.18319476708631"></polygon><polygon points="84.79086167944331,62.77859264538664,85.25673189485954,61.97168176255268,84.32499146402708,61.97168176255268"></polygon><polygon points="72.43486622566002,89.37795098351067,72.7631583029714,88.80933242588502,72.10657414834863,88.80933242588502"></polygon><polygon points="87.56910148868863,41.51398668525379,87.97856132983382,40.804781436731226,87.15964164754344,40.804781436731226"></polygon><polygon points="72.587526618923,83.04750485917113,72.9929768349543,82.34524448506512,72.18207640289168,82.34524448506512"></polygon><polygon points="14.061182454751552,63.90393379457448,14.450999190774832,63.22875140214149,13.671365718728273,63.22875140214149"></polygon><polygon points="30.816042832241475,80.9107424524449,31.452961620839794,79.80756675029738,30.179124043643156,79.80756675029738"></polygon><polygon points="58.38582514109001,84.2436231782007,58.86735125539556,83.40959548305227,57.90429902678446,83.40959548305227"></polygon><polygon points="86.90438329679395,48.19457742620946,87.38695135100647,47.35874503820372,86.42181524258143,47.35874503820372"></polygon><polygon points="19.9245736237007,32.78816994038658,20.41382913776322,31.94075453214706,19.435318109638178,31.94075453214706"></polygon><polygon points="67.80283067954537,88.08391762070599,68.26585122536375,87.28194251040028,67.33981013372698,87.28194251040028"></polygon><polygon points="8.423926633927785,58.22059572561133,8.812223322995088,57.548046131735994,8.035629944860482,57.548046131735994"></polygon><polygon points="67.52657993967257,15.728355860704704,67.8917760245225,15.095817687019402,67.16138385482265,15.0958176870194"></polygon><polygon points="13.440745821412655,56.6754910947386,14.040628361019238,55.63646405756654,12.840863281806072,55.63646405756654"></polygon><polygon points="12.068113657679255,77.81954820098304,12.411244733159347,77.22522774459577,11.724982582199164,77.22522774459577"></polygon><polygon points="14.734621925691528,61.73326131402473,15.338353239076485,60.6875680051217,14.13089061230657,60.6875680051217"></polygon><polygon points="63.08562151726647,18.249469878420783,63.581871416615755,17.38993983949688,62.58937161791718,17.38993983949688"></polygon><polygon points="43.70713189064936,16.716981920748648,44.280919203802675,15.723153141628666,43.13334457749604,15.723153141628664"></polygon><polygon points="68.42154505345277,90.82212453445156,68.96850961783994,89.87475411899322,67.87458048906561,89.87475411899322"></polygon><polygon points="84.7665427393884,73.95502320474317,85.30724528156027,73.01849892991983,84.22584019721653,73.01849892991983"></polygon><polygon points="71.58241535847203,79.48034317671043,72.02019230543027,78.72209126219637,71.1446384115138,78.72209126219637"></polygon><polygon points="68.22088175579471,81.34898036666507,68.66852869392109,80.57363312597754,67.77323481766832,80.57363312597754"></polygon><polygon points="12.957410315138858,31.494276496500646,13.36999704240943,30.77965532233945,12.544823587868287,30.77965532233945"></polygon><polygon points="12.679660942514175,48.514329125807016,13.075524624063222,47.8286731164928,12.283797260965128,47.8286731164928"></polygon><polygon points="81.54924468247185,32.54932164963597,82.16367434572912,31.485098255196952,80.93481501921458,31.485098255196952"></polygon><polygon points="73.19033709149338,19.112529505440754,73.71611141588365,18.201861662281615,72.6645627671031,18.201861662281615"></polygon><polygon points="4.455219832369117,45.318418744355526,4.719770959483234,44.86020275099426,4.190668705255001,44.86020275099426"></polygon><polygon points="18.63689538825524,65.39455740882903,19.275556263966074,64.28836432329143,17.998234512544407,64.28836432329143"></polygon><polygon points="83.4960421735655,37.4120946353308,84.3059864222304,36.00923004534498,82.6860979249006,36.00923004534498"></polygon><polygon points="15.921710633477836,77.89131568331818,16.27050769538127,77.2871814505707,15.572913571574405,77.2871814505707"></polygon><polygon points="6.491950323160964,60.49011357771317,6.942560802867784,59.70963333243797,6.041339843454144,59.70963333243797"></polygon><polygon points="73.36587345653003,13.70500190714652,73.65716853856553,13.200464025066085,73.07457837449452,13.200464025066085"></polygon><polygon points="74.34647057406792,84.31478025940356,74.8055917537529,83.51955904935821,73.88734939438294,83.51955904935821"></polygon><polygon points="42.00314616082442,89.72396873151321,42.33946236638441,89.14145197607453,41.66682995526443,89.14145197607453"></polygon><polygon points="20.20264450884347,22.48774542006483,20.594981751207193,21.808197382589398,19.81030726647975,21.808197382589398"></polygon><polygon points="11.575113662463764,64.02377205882145,12.089770924719367,63.13235953211045,11.06045640020816,63.13235953211045"></polygon><polygon points="57.77206688082616,87.43875345680031,58.15609109394929,86.77360400833439,57.388042667703026,86.77360400833439"></polygon><polygon points="44.89915222718426,10.73606572322804,45.462335960326584,9.76060288342922,44.335968494041936,9.76060288342922"></polygon><polygon points="28.360076505589177,21.74717767033584,28.98677285185806,20.661707757680357,27.733380159320294,20.661707757680357"></polygon><polygon points="86.73473230728945,39.29056872978973,87.16973965715975,38.537113898148476,86.29972495741914,38.537113898148476"></polygon><polygon points="72.98713694968797,79.59869811468049,73.52958621552135,78.65914842572865,72.44468768385458,78.65914842572865"></polygon><polygon points="77.31950926044428,82.28533934746369,77.67643599688522,81.66712410536823,76.96258252400334,81.66712410536823"></polygon><polygon points="84.65996971611965,68.82810669212887,85.05251794327604,68.1481932182729,84.26742148896325,68.1481932182729"></polygon><polygon points="79.30693356009883,32.006799525316595,79.83339230882127,31.094946224440186,78.78047481137638,31.094946224440186"></polygon><polygon points="52.93716127005046,86.85720251931076,53.42306442983223,86.01559355901048,52.45125811026869,86.01559355901048"></polygon><polygon points="14.905332818495431,19.533463725371455,15.246662852769067,18.942262763860292,14.564002784221795,18.942262763860292"></polygon><polygon points="92.10777866926455,62.98003208969758,92.47406348940139,62.345608171179336,91.7414938491277,62.345608171179336"></polygon><polygon points="64.0969122980488,82.99753693021303,64.95817879407666,81.50577960023597,63.235645802020954,81.50577960023597"></polygon><polygon points="17.087263943653262,19.307204041104598,17.472515308914897,18.639929102786166,16.702012578391628,18.639929102786166"></polygon><polygon points="6.808551483981013,69.5707550008234,7.161573528372824,68.95930288374495,6.455529439589203,68.95930288374495"></polygon></g></g>
  <desc>Created with Snap</desc></svg>
