<svg width="100%" height="100%" viewBox="0 0 100 100" version="1.1" xmlns="http://www.w3.org/2000/svg" id="decent-logo-svg">
       <defs>
         <style type="text/css">
           @import url("https://fonts.googleapis.com/css?family=Dosis:400,700")
         </style>
         <style type="text/css">
           #text text {
             font-family: 'Dosis'
           }
         </style>
       </defs>
       <g id="svg-content"><circle cx="50" cy="50" r="25" id="shape"></circle><g textAlign="center" fill="undefined" style="text-anchor: middle; stroke-width: 0;" stroke="rgba(0,0,0,0)" id="halftones"><polygon points="71.26075533708183,17.25960174599821,71.64939365454427,16.586460434385184,70.8721170196194,16.586460434385184"></polygon><polygon points="30.389017006495152,16.830519782051518,30.796265104119637,16.125145385680142,29.981768908870666,16.125145385680142"></polygon><polygon points="67.90881679965996,78.98818442472628,68.44245097404334,78.0639029220392,67.37518262527658,78.0639029220392"></polygon><polygon points="22.917379474121308,76.78566867837871,23.456878661800772,75.85122867467575,22.377880286441844,75.85122867467574"></polygon><polygon points="64.67370655860064,7.9443816796674644,64.94795864456148,7.469363132701535,64.3994544726398,7.469363132701535"></polygon><polygon points="45.993931784162825,18.18125091993642,46.87749181620001,16.650880052910832,45.11037175212564,16.65088005291083"></polygon><polygon points="55.03456187679883,95.38958516022697,55.412505392659156,94.73496778836568,54.65661836093851,94.73496778836568"></polygon><polygon points="90.21269688963537,39.13831075314978,90.54466124223978,38.56333162813723,89.88073253703095,38.56333162813723"></polygon><polygon points="17.497004160066062,68.48391590939968,18.190462348743214,67.28281109368618,16.80354597138891,67.28281109368618"></polygon><polygon points="31.779367223605835,79.42857233788823,32.519381753777495,78.1468295732917,31.039352693434175,78.1468295732917"></polygon><polygon points="18.408590031438457,36.98379839342257,18.880999094135344,36.165561894875566,17.93618096874157,36.165561894875566"></polygon><polygon points="84.88174371365437,46.32125699846191,85.32221631877702,45.558336067047264,84.44127110853172,45.558336067047264"></polygon><polygon points="18.41994951830352,59.72055386261582,19.15937102596672,58.43983824313398,17.680528010640316,58.43983824313398"></polygon><polygon points="17.87217602067504,51.12976472614658,18.399591128722896,50.21625496232827,17.344760912627187,50.21625496232827"></polygon><polygon points="81.31855186844713,46.525957109304585,82.0459243881187,45.26611094920401,80.59117934877555,45.26611094920401"></polygon><polygon points="33.79588346624894,78.84043784441648,34.742423946004955,77.20098164205844,32.84934298649292,77.20098164205844"></polygon><polygon points="82.62487866320109,50.309688443554364,83.17656168462253,49.354145420779325,82.07319564177965,49.354145420779325"></polygon><polygon points="43.25817267078814,81.46862691164665,44.16131272676109,79.9043424483509,42.355032614815194,79.9043424483509"></polygon><polygon points="69.87728262082523,75.53367314185637,70.70564962080326,74.09889941058101,69.0489156208472,74.09889941058101"></polygon><polygon points="67.9797305584199,80.61380304106794,68.44121206184337,79.81449363038521,67.51824905499643,79.81449363038521"></polygon><polygon points="56.272120069159996,82.93499506825827,56.79389501349828,82.03125435454795,55.75034512482171,82.03125435454795"></polygon><polygon points="64.27340366946166,19.70557708779807,65.16179729724199,18.166834187362102,63.385010041681326,18.166834187362102"></polygon><polygon points="81.32063980306609,62.23114175923378,81.91681595487415,61.19853437404131,80.72446365125802,61.19853437404131"></polygon><polygon points="77.47441108180873,83.3819772594241,77.87858536461789,82.68192686648591,77.07023679899956,82.68192686648591"></polygon><polygon points="48.22807716044194,11.563371921367548,48.80769380754516,10.559446439672055,47.648460513338726,10.559446439672055"></polygon><polygon points="81.76037174289458,36.83829244690488,82.60623472031088,35.37321479377836,80.91450876547827,35.37321479377836"></polygon><polygon points="47.056073501781235,84.17856156186036,47.60485709326101,83.22804049905727,46.50728991030146,83.22804049905727"></polygon><polygon points="85.12889541990486,49.66092094448768,85.79022609832371,48.515462608862244,84.46756474148602,48.515462608862244"></polygon><polygon points="38.53130855101722,83.66973985365338,38.989334311754625,82.8764159648808,38.07328279027981,82.8764159648808"></polygon><polygon points="18.628170755155242,62.4646186570276,19.146385928107236,61.567043648221656,18.10995558220325,61.567043648221656"></polygon><polygon points="22.84433599594423,73.64983831758158,23.47462110945639,72.5581524777242,22.214050882432073,72.5581524777242"></polygon><polygon points="55.8313252111891,13.98696965188763,56.37946289924161,13.03756732663735,55.2831875231366,13.03756732663735"></polygon><polygon points="63.83252903057619,22.592903547240144,64.41726680281127,21.58010801662435,63.24779125834111,21.58010801662435"></polygon><polygon points="17.5479423625333,52.99815227118675,18.118416583767324,52.01006193560113,16.977468141299273,52.01006193560113"></polygon><polygon points="20.46188677398999,39.29832938071996,21.33930680347632,37.77859331007106,19.584466744503658,37.77859331007106"></polygon><polygon points="69.3487362273506,25.507524726240025,69.98659762749017,24.40271637301127,68.71087482721103,24.40271637301127"></polygon><polygon points="41.58539635070569,17.480189473278415,42.35036758223047,16.155220433948976,40.82042511918092,16.155220433948976"></polygon><polygon points="50.04944253014429,13.67152903842749,50.52557274684702,12.846847312079584,49.57331231344156,12.846847312079584"></polygon><polygon points="15.243588913863434,60.584749560137645,15.931368064370556,59.39348112707275,14.555809763356311,59.39348112707275"></polygon><polygon points="66.43588654445819,81.42623252709546,67.09254801257669,80.28886150094147,65.77922507633969,80.28886150094147"></polygon><polygon points="24.793469678940284,32.076258894404404,25.58515237144527,30.70502424751283,24.001786986435295,30.70502424751283"></polygon><polygon points="35.001649180885785,16.379603037297947,35.441393272736725,15.617943927883879,34.561905089034845,15.617943927883879"></polygon><polygon points="49.97470569160278,90.08464493242698,50.55573344873474,89.07827533646665,49.393677934470816,89.07827533646665"></polygon><polygon points="50.94492031094338,19.179417272764457,51.54019769751698,18.14836659462217,50.34964292436978,18.148366594622168"></polygon><polygon points="11.6820931097607,46.77255825058779,12.0773109465148,46.08802087727223,11.2868752730066,46.08802087727223"></polygon><polygon points="61.12609765906411,18.115993869582702,61.684954546281794,17.14802534676188,60.56724077184642,17.14802534676188"></polygon><polygon points="66.90045871931423,77.21054164954501,67.83978369260456,75.58358307098788,65.9611337460239,75.58358307098788"></polygon><polygon points="12.694501555315306,52.396433632702355,13.256496704725219,51.423029480317126,12.132506405905392,51.423029480317126"></polygon><polygon points="22.560421065075072,25.87942401926826,23.145837755859393,24.86545256723098,21.97500437429075,24.86545256723098"></polygon><polygon points="12.915222760063926,46.823137590648656,13.449115242548535,45.89840868520624,12.381330277579318,45.89840868520624"></polygon><polygon points="12.86744784960105,43.64262739648622,13.286804699000587,42.91628002682421,12.448091000201511,42.91628002682421"></polygon><polygon points="51.798449768602175,83.6905516705422,52.64474356324551,82.22472782008968,50.95215597395884,82.22472782008968"></polygon><polygon points="54.00829734569552,90.85627242863302,54.35605621544332,90.25393639744709,53.66053847594772,90.25393639744709"></polygon><polygon points="68.8755992485323,23.9543968611989,69.58848377875255,22.719644634927562,68.16271471831205,22.719644634927562"></polygon><polygon points="73.70875489404949,72.04593151208994,74.30267353615821,71.01723424839533,73.11483625194077,71.01723424839533"></polygon><polygon points="62.53619556961479,85.14932323145031,63.06513613511813,84.23317129781431,62.00725500411145,84.23317129781431"></polygon><polygon points="65.60546689944913,13.78291849125299,66.12733576026339,12.87901510943459,65.08359803863486,12.87901510943459"></polygon><polygon points="23.27202816991262,75.56388324416544,24.081231519296395,74.16230192937783,22.462824820528844,74.16230192937783"></polygon><polygon points="79.92439089894705,63.50281930975726,80.67319921326148,62.205845264234654,79.17558258463262,62.205845264234654"></polygon><polygon points="22.174161217324112,18.268372064942724,22.511893628661337,17.6834023691439,21.836428805986888,17.6834023691439"></polygon><polygon points="21.527874313627738,37.293181356029024,22.428199110474193,35.73377306457684,20.627549516781283,35.73377306457684"></polygon><polygon points="40.35638064667711,20.119004681890516,41.070320937365686,18.882423824847404,39.64244035598853,18.882423824847404"></polygon><polygon points="20.27447804692713,64.1144580117235,21.15177214649776,62.59494005808678,19.3971839473565,62.59494005808678"></polygon><polygon points="23.063890487384523,66.34281014156801,23.68194313801637,65.27231154892104,22.445837836752677,65.27231154892104"></polygon><polygon points="80.30632463545979,30.003741075426856,80.7816475615741,29.180457617394563,79.83100170934547,29.180457617394563"></polygon><polygon points="69.9175827686353,79.74545117171948,70.43927430748917,78.84185492054577,69.39589122978143,78.84185492054577"></polygon><polygon points="43.90505111475472,20.016129601438987,44.952949450178515,18.201116443318117,42.857152779330924,18.201116443318114"></polygon><polygon points="77.30737215755933,69.14789502717557,77.95986077499643,68.01775159041414,76.65488354012223,68.01775159041414"></polygon><polygon points="7.3726872558263,34.402615520456834,7.67686410775161,33.87576575843584,7.068510403900989,33.87576575843584"></polygon><polygon points="56.59051520944791,92.47200675696857,56.916526845013756,91.9073380403099,56.26450357388206,91.9073380403099"></polygon><polygon points="63.91058919511057,82.56772413541135,64.62180867109666,81.33585586767094,63.19936971912448,81.33585586767094"></polygon><polygon points="82.01335008823605,66.19106735954519,82.59896366423114,65.17675489231961,81.42773651224097,65.17675489231961"></polygon><polygon points="54.14811662856749,8.84085979823095,54.646830957839015,7.977061241470033,53.64940229929597,7.977061241470033"></polygon><polygon points="63.787096616652875,15.476284779973684,64.2971161507803,14.592905034012377,63.27707708252545,14.592905034012377"></polygon><polygon points="23.800489941588687,33.90375091845389,24.539118060655756,32.62440948833069,23.061861822521617,32.62440948833069"></polygon><polygon points="75.88660967677286,33.37393698281114,76.58802654836073,32.15904732393493,75.185192805185,32.15904732393493"></polygon><polygon points="53.22719329090606,14.06421745450073,53.66736149599436,13.301823759411382,52.78702508581775,13.301823759411382"></polygon><polygon points="57.51928454066556,95.83390448976671,58.019820916995705,94.96695005492649,57.01874816433541,94.96695005492649"></polygon><polygon points="65.21938377195694,21.589562810302585,65.74843059384558,20.67322683520862,64.6903369500683,20.67322683520862"></polygon><polygon points="33.43593130811834,24.179441560218212,34.406596727830184,22.49819973612713,32.4652658884065,22.49819973612713"></polygon><polygon points="85.75233241732218,54.66094135254651,86.31795822418371,53.6812487169902,85.18670661046065,53.6812487169902"></polygon><polygon points="64.6557284854662,83.9714092160396,65.06954608057534,83.25465611624462,64.24191089035706,83.25465611624462"></polygon><polygon points="62.36909696151163,80.52713307924857,63.10393567952664,79.25435508427779,61.63425824349662,79.25435508427779"></polygon><polygon points="49.57294602036703,83.82669917552555,50.46114175541064,82.28829903536403,48.68475028532342,82.28829903536403"></polygon><polygon points="74.93913730532422,75.18232520554645,75.40650435039414,74.37282173770201,74.4717702602543,74.37282173770201"></polygon><polygon points="30.02912293782337,74.94363924329409,30.80353852670451,73.60231209717858,29.25470734894223,73.60231209717858"></polygon><polygon points="34.01037337643608,83.5302747028144,34.573814078934504,82.55436677903482,33.44693267393765,82.55436677903482"></polygon><polygon points="80.46966954460264,26.068410792645658,81.1133526736979,24.95351890907775,79.82598641550737,24.95351890907775"></polygon><polygon points="18.396262036806082,43.84300193707354,18.96719304783971,42.854120418346625,17.825331025772453,42.854120418346625"></polygon><polygon points="77.63075402791029,66.96054257094927,78.34608345695534,65.72155565569399,76.91542459886523,65.72155565569399"></polygon><polygon points="19.505216761326285,31.795295896813144,20.100378575852,30.764445395329716,18.910054946800567,30.764445395329716"></polygon><polygon points="64.64706737496059,78.30521800753692,65.34593002315256,77.09475239335629,63.94820472676861,77.09475239335629"></polygon><polygon points="30.5381508001602,84.97747573926908,30.97729949140876,84.2168478939492,30.099002108911638,84.2168478939492"></polygon><polygon points="83.16238240908854,71.76552014726015,83.53989399545681,71.11165089922437,82.78487082272026,71.11165089922437"></polygon><polygon points="81.2217670907224,44.714196243280654,82.14473354287715,43.11557145446702,80.29880063856764,43.11557145446702"></polygon><polygon points="40.33365155282002,6.5643965570769405,40.659113510905044,6.0006799097428285,40.008189594735,6.000679909742828"></polygon><polygon points="61.59784585522454,20.158865359961013,62.332702003753745,18.886057174454052,60.86298970669534,18.886057174454052"></polygon><polygon points="16.13469955336747,57.66342997510033,16.61077008865432,56.838851619996994,15.65862901808062,56.838851619996994"></polygon><polygon points="37.45831473248055,79.6416441370383,38.153396912098316,78.43772648650462,36.76323255286279,78.43772648650462"></polygon><polygon points="33.521887550199146,9.734625089158067,33.856192225055075,9.155592407099805,33.18758287534322,9.155592407099805"></polygon><polygon points="52.61007969063192,89.0000207682019,53.15338733093048,88.05898433106445,52.06677205033336,88.05898433106445"></polygon><polygon points="56.501820947143635,16.816100400425356,57.34510823280717,15.355483976279267,55.6585336614801,15.355483976279267"></polygon><polygon points="19.359968654102026,56.776874324691995,20.241259297329865,55.25043415438632,18.478678010874187,55.25043415438632"></polygon><polygon points="26.093583194465076,24.657015011290042,26.89485410840255,23.269173077723185,25.2923122805276,23.26917307772318"></polygon><polygon points="30.143117809195896,22.955979251522074,30.865050713716645,21.705554781236362,29.421184904675147,21.705554781236362"></polygon><polygon points="85.0331198313811,27.753616037904067,85.6065389429676,26.760425002605242,84.4597007197946,26.76042500260524"></polygon><polygon points="31.893064486767425,17.90954934274785,32.32182888526788,17.166907620068354,31.46430008826697,17.166907620068354"></polygon><polygon points="11.50786799723938,43.539271004145135,11.875593278130063,42.90235213441493,11.140142716348697,42.90235213441493"></polygon><polygon points="83.79351842082792,45.41409842202173,84.33604543491234,44.4744140691489,83.25099140674351,44.4744140691489"></polygon><polygon points="13.50117660788252,50.79124587558769,13.970144506120638,49.97896964872048,13.032208709644403,49.97896964872048"></polygon><polygon points="43.51915451526227,14.089560293973165,43.947654004211216,13.3473774080963,43.09065502631333,13.3473774080963"></polygon><polygon points="19.989378506316662,69.26279681881785,20.69851669194939,68.03453345171475,19.280240320683934,68.03453345171475"></polygon><polygon points="14.711764572056936,63.380906680950446,15.168046791763194,62.5906026938289,14.255482352350677,62.5906026938289"></polygon><polygon points="81.28486671744376,57.11528483991483,81.95678111319924,55.95149496812939,80.61295232168828,55.95149496812939"></polygon><polygon points="77.59934328574823,29.74265064164477,78.35505650383287,28.43371695197079,76.8436300676636,28.43371695197079"></polygon><polygon points="21.700214474345948,20.0778532480925,22.116544415490278,19.35674863731836,21.28388453320162,19.35674863731836"></polygon><polygon points="86.0342723095466,51.63616789967147,86.55593780423746,50.73261675831133,85.51260681485573,50.73261675831133"></polygon><polygon points="13.499874512509386,58.4093431639327,13.892560305053422,57.72919141983598,13.10718871996535,57.72919141983597"></polygon><polygon points="90.57045323155559,37.52556922807473,90.9836599258953,36.80987423945078,90.15724653721588,36.80987423945078"></polygon><polygon points="16.131992821413334,46.397975397409105,16.968394396039074,44.94928537462671,15.295591246787595,44.94928537462671"></polygon><polygon points="37.46982736510577,81.96605189051469,38.224052368943546,80.65969586352884,36.715602361268,80.65969586352884"></polygon><polygon points="18.44854021739963,76.17729810070969,18.805199024100638,75.55954692653665,18.09188141069862,75.55954692653665"></polygon><polygon points="35.628791096080064,14.809074787049768,36.044110535058685,14.0897204173678,35.213471657101444,14.089720417367799"></polygon><polygon points="8.720564762566518,65.20130778379236,9.025395561319304,64.67332535264073,8.415733963813732,64.67332535264073"></polygon><polygon points="80.68990023905971,40.08665435795077,81.26926275816608,39.083169038857434,80.11053771995334,39.083169038857434"></polygon><polygon points="88.00321510558368,41.24472302632526,88.46579148543964,40.44351723403346,87.54063872572772,40.44351723403346"></polygon><polygon points="50.63398166188719,10.364311422130777,51.165113342130745,9.444364366439514,50.10284998164364,9.444364366439514"></polygon><polygon points="55.49134803020408,91.58052705989562,55.8118436097757,91.02541243247633,55.17085245063246,91.02541243247633"></polygon><polygon points="90.95246931232089,48.00426690882846,91.38432594560825,47.25626927838911,90.52061267903352,47.25626927838911"></polygon><polygon points="59.86855919721987,82.17012931096822,60.586477347091446,80.9266585997148,59.15064104734829,80.9266585997148"></polygon><polygon points="13.9377818205054,24.570838877480487,14.270518276456011,23.994522430243624,13.605045364554789,23.994522430243624"></polygon><polygon points="70.34036855257243,82.95951086848274,70.76826916866474,82.21836526082083,69.91246793648011,82.21836526082083"></polygon><polygon points="65.28437568432378,85.96433012790493,65.7859756583892,85.09553348774838,64.78277571025835,85.09553348774838"></polygon><polygon points="29.351023613048714,78.56079330568629,30.012451564719072,77.41516648784702,28.689595661378355,77.41516648784702"></polygon><polygon points="18.662567333582643,49.93512273334757,19.509777044925908,48.46771246863527,17.81535762223938,48.46771246863527"></polygon><polygon points="14.390922271129739,38.83532654969127,14.92443755212227,37.91125097639782,13.857406990137207,37.91125097639782"></polygon><polygon points="56.0310750582444,89.76206784573493,56.64860903830595,88.6924676168681,55.413541078182845,88.6924676168681"></polygon><polygon points="40.58690947485999,80.92512210715279,41.18282937042211,79.89295857079806,39.990989579297874,79.89295857079806"></polygon><polygon points="78.6886512606471,35.265213524921386,79.48276419974245,33.8897695674604,77.89453832155176,33.8897695674604"></polygon><polygon points="8.11411936453107,46.051256408535345,8.480630307700613,45.41644083343571,7.747608421361528,45.41644083343571"></polygon><polygon points="28.913672100282664,77.04699118594066,29.625123989149138,75.81472036728307,28.20222021141619,75.81472036728307"></polygon><polygon points="83.76401055739981,70.30487499295653,84.22989576823484,69.49793813729531,83.29812534656479,69.49793813729531"></polygon><polygon points="19.093749558129566,34.539996914773354,19.711607202228567,33.46983608334907,18.475891914030566,33.46983608334907"></polygon><polygon points="41.67639265768109,85.1647341183936,42.11961815866047,84.39704503148714,41.23316715670171,84.39704503148714"></polygon><polygon points="52.40483792587776,11.431211963339985,52.78778286860871,10.76793186602843,52.021892983146806,10.767931866028428"></polygon><polygon points="47.6663404169786,14.558371467338103,48.1791734241166,13.670118643176759,47.1535074098406,13.670118643176757"></polygon><polygon points="86.9255933039841,47.898445815242184,87.51040298112763,46.88552574167166,86.34078362684058,46.88552574167166"></polygon><polygon points="36.905029367280534,84.31220089567813,37.58190370332164,83.13982015531548,36.228155031239424,83.13982015531548"></polygon><polygon points="9.299745100115594,55.18481908311954,9.648788902046057,54.58025748410897,8.95070129818513,54.58025748410897"></polygon><polygon points="54.3267450730462,14.53948717682351,54.82248230560843,13.680845102822131,53.83100784048396,13.680845102822131"></polygon><polygon points="18.654346368900566,28.05066345996261,19.05761648671757,27.352179126729272,18.25107625108356,27.352179126729272"></polygon><polygon points="84.94685569459494,41.55447176769881,85.55659078820959,40.49837960640047,84.3371206009803,40.49837960640047"></polygon><polygon points="73.6222220372347,74.41805666310375,74.27090692565413,73.29450147825916,72.97353714881528,73.29450147825916"></polygon><polygon points="18.607245622296908,66.42001731814722,19.148115958816085,65.48320241498912,18.06637528577773,65.48320241498912"></polygon><polygon points="22.117995477357493,79.6667623374687,22.501813014280952,79.00197086268132,21.734177940434034,79.00197086268132"></polygon><polygon points="24.708708977522708,21.10306002554192,25.14948178970081,20.339619120254433,24.267936165344604,20.339619120254433"></polygon><polygon points="14.322523532526603,78.775941156984,14.63748949116171,78.23040411397335,14.007557573891495,78.23040411397335"></polygon><polygon points="67.61981613768494,13.107071380100903,68.03324369179148,12.390993851139426,67.20638858357839,12.390993851139426"></polygon><polygon points="32.66681525168816,14.096037374369322,33.100310298804295,13.34520192793472,32.23332020457203,13.34520192793472"></polygon><polygon points="88.1003157649774,74.32739729679739,88.42059449750758,73.77265825947136,87.78003703244721,73.77265825947136"></polygon><polygon points="29.377636453197074,26.213169878031998,29.957544681962737,25.20873936208259,28.79772822443141,25.20873936208259"></polygon><polygon points="35.55426278783258,20.31667314981923,36.33925526875488,18.957026289302263,34.76927030691027,18.957026289302263"></polygon><polygon points="68.39168154720286,20.505327393918012,68.90550708019758,19.615355464545015,67.87785601420815,19.615355464545015"></polygon><polygon points="82.28111262059514,64.86095523233759,83.12930905787887,63.39183590816326,81.4329161833114,63.39183590816326"></polygon><polygon points="27.45028070544883,22.168598339988563,27.897613975920482,21.393794387615706,27.002947434977177,21.393794387615706"></polygon><polygon points="38.321621077201115,89.52554606756695,38.78595003137531,88.72130472751194,37.85729212302692,88.72130472751194"></polygon><polygon points="33.110346392969305,21.320870904327695,33.64281228292233,20.39861292963168,32.57788050301628,20.398612929631675"></polygon><polygon points="19.18308629048856,45.976394199001156,20.08111846319284,44.42095684904587,18.285054117784284,44.42095684904587"></polygon><polygon points="54.214768771748055,20.032629236879366,55.22303870500099,18.2862544847412,53.20649883849512,18.2862544847412"></polygon><polygon points="69.74653536792422,18.39739903972888,70.26370996059543,17.501626368838608,69.22936077525301,17.501626368838608"></polygon><polygon points="75.88280923783051,23.596949262372682,76.39922220353851,22.702495768079114,75.36639627212251,22.702495768079114"></polygon><polygon points="12.245822090404602,55.6608609058811,12.678804723154215,54.91091298716383,11.812839457654988,54.91091298716383"></polygon><polygon points="20.166836403382685,23.130555863603725,20.503008998853076,22.548287848136706,19.830663807912295,22.548287848136706"></polygon><polygon points="35.489422597287266,11.925383911045243,35.99134967233788,11.056020715363143,34.98749552223665,11.056020715363143"></polygon><polygon points="37.406362011028804,21.03401633532815,38.00806430964283,19.99183738309767,36.804659712414775,19.99183738309767"></polygon><polygon points="52.29782779052294,85.56728239882011,52.81107396510305,84.67831394765699,51.78458161594283,84.67831394765699"></polygon><polygon points="27.336534813500208,27.923177145138283,28.009778364174455,26.757085109502416,26.66329126282596,26.757085109502416"></polygon><polygon points="32.50819816117891,85.86284921289493,32.86179484831213,85.25040178539216,32.15460147404569,85.25040178539216"></polygon><polygon points="38.03550760497277,16.08465095070388,38.63052092339893,15.054057652009611,37.44049428654661,15.05405765200961"></polygon><polygon points="88.80177688565162,47.90704077060393,89.3484485836134,46.960177614674166,88.25510518768984,46.960177614674166"></polygon><polygon points="64.43209448445216,16.62594610354039,64.89003946745356,15.8327621259107,63.97414950145077,15.8327621259107"></polygon><polygon points="76.05925918674156,26.742047645142172,76.6391487249438,25.737649502198245,75.47936964853932,25.737649502198245"></polygon><polygon points="70.29344568241133,81.3813510540539,70.99519519447753,80.16588524496856,69.59169617034513,80.16588524496856"></polygon><polygon points="29.113201173280505,80.88264904090707,29.618089716712408,80.00815643152357,28.6083126298486,80.00815643152357"></polygon><polygon points="92.99404736667103,36.88555044624539,93.4313927034261,36.128046102532274,92.55670202991595,36.128046102532274"></polygon><polygon points="25.971158688818857,81.72569603600716,26.319166188292613,81.12292936550362,25.6231511893451,81.12292936550362"></polygon><polygon points="74.94891408813851,29.37721407851672,75.78223759128979,27.933855431917433,74.11559058498723,27.93385543191743"></polygon><polygon points="15.875980061443911,43.7573101214987,16.371492870882868,42.89905675974923,15.380467252004955,42.89905675974923"></polygon><polygon points="41.87776277855842,8.266807659537395,42.21541944139181,7.681969163995815,41.54010611572503,7.681969163995814"></polygon><polygon points="89.36562426704717,51.5260892820789,89.79203097439022,50.78753120027259,88.93921755970412,50.78753120027259"></polygon><polygon points="84.18616301714707,67.16247313748795,84.65975818298215,66.34218224804258,83.71256785131199,66.34218224804258"></polygon><polygon points="26.02941722385414,22.172172256033175,26.47269336859397,21.404395451560536,25.58614107911431,21.404395451560536"></polygon><polygon points="19.516758026096976,19.91452496430334,20.012649350858446,19.055615994783835,19.020866701335507,19.055615994783835"></polygon><polygon points="10.594087309634354,49.44127919621418,11.133669033397545,48.50669623582074,10.054505585871162,48.50669623582074"></polygon><polygon points="84.50184893039015,51.18275638080723,85.12748593415488,50.09912130319157,83.87621192662543,50.09912130319157"></polygon><polygon points="59.17824416250894,17.24662158852378,59.743131996029696,16.268207160288316,58.61335632898818,16.268207160288316"></polygon><polygon points="27.598310731513603,16.726990904773942,28.03845957087707,15.964630752103947,27.158161892150137,15.964630752103947"></polygon><polygon points="41.86934127815223,83.82614528378225,42.71116998654725,82.36805518957199,41.02751256975721,82.36805518957199"></polygon><polygon points="14.875647921692938,36.03606584061576,15.301595154976939,35.29830359122448,14.449700688408937,35.29830359122448"></polygon><polygon points="19.037263795383215,53.87599907088616,19.693349345030366,52.73962556478554,18.381178245736063,52.739625564785534"></polygon><polygon points="30.842953553520804,87.62634454701076,31.37552027526535,86.7039119265288,30.310386831776256,86.7039119265288"></polygon><polygon points="83.8300296431704,60.1356433707866,84.35246964472891,59.230750744180895,83.3075896416119,59.230750744180895"></polygon><polygon points="22.98865801021699,71.15772614378491,23.516090567080962,70.24418615773055,22.46122545335302,70.24418615773055"></polygon><polygon points="21.456971003156777,32.121473661889475,22.030313080374874,31.128416054030655,20.88362892593868,31.128416054030655"></polygon><polygon points="57.635863121272415,87.56811342750595,58.08226083772003,86.79492990223596,57.1894654048248,86.79492990223596"></polygon><polygon points="23.420708326678866,28.657356914873354,23.901503280707843,27.824595626472423,22.93991337264989,27.824595626472423"></polygon><polygon points="18.730767983681094,24.64419644172254,19.198798495529342,23.833543815708904,18.262737471832846,23.833543815708904"></polygon><polygon points="76.48556244345234,78.49491311749412,77.04167809313131,77.53169255736597,75.92944679377337,77.53169255736597"></polygon><polygon points="44.937213714729914,9.476190720315765,45.29653470200346,8.853828514132173,44.577892727456366,8.853828514132173"></polygon><polygon points="15.881143255684542,79.07189346374332,16.17346185006247,78.56558280628363,15.588824661306615,78.56558280628363"></polygon><polygon points="72.12213885993808,28.007188192983463,73.04019442096535,26.417069317113086,71.2040832989108,26.417069317113086"></polygon><polygon points="12.272783573484382,59.00935573347882,12.687773857741169,58.29057147649861,11.857793289227596,58.29057147649861"></polygon><polygon points="14.510527241796453,58.700799370463784,14.985259735090482,57.878538572074675,14.035794748502424,57.878538572074675"></polygon><polygon points="62.633187225646395,90.37550460862839,63.07708070852598,89.60665854313224,62.18929374276681,89.60665854313224"></polygon><polygon points="16.314131033959328,77.46299030770814,16.706411447000736,76.78354070150633,15.92185062091792,76.78354070150633"></polygon><polygon points="25.47840367979785,29.84256859402313,26.138414576027543,28.699396188204233,24.818392783568157,28.699396188204233"></polygon><polygon points="16.22336614637893,73.20499483915118,16.808249793293374,72.19194664617919,15.638482499464486,72.19194664617919"></polygon><polygon points="51.73036780969345,87.22256605274745,52.15687439170015,86.4838349829493,51.303861227686745,86.4838349829493"></polygon><polygon points="92.63612338094472,43.028490540934975,93.10164629663912,42.222181198864675,92.17060046525033,42.222181198864675"></polygon><polygon points="34.1391349443588,11.041825073848129,34.44719075109467,10.508256765014984,33.83107913762293,10.508256765014984"></polygon><polygon points="41.10441833212202,92.83473817398587,41.40153165770101,92.32012279847731,40.80730500654304,92.32012279847731"></polygon><polygon points="69.95824881452668,78.26968471629064,70.83005299472237,76.75967558194078,69.086444634331,76.75967558194078"></polygon><polygon points="72.36353465777796,25.300898873455825,73.21870348483262,23.819703015948075,71.5083658307233,23.819703015948075"></polygon><polygon points="25.856003380758466,71.01574276936205,26.833745263353336,69.32224415201969,24.878261498163596,69.32224415201969"></polygon><polygon points="71.27440249426124,14.40838481430098,71.87355571821247,13.370620988898757,70.67524927031,13.370620988898757"></polygon><polygon points="86.42296817492044,43.974520780704374,86.96074221288399,43.043068823960034,85.8851941369569,43.043068823960034"></polygon><polygon points="60.778806977662754,85.61767554827601,61.242511532057776,84.81451570036275,60.31510242326773,84.81451570036275"></polygon><polygon points="52.38775869544334,12.792695375931235,52.81939392568816,12.045081226810511,51.956123465198516,12.045081226810511"></polygon><polygon points="80.26648996074886,28.675804333308268,80.70535763762972,27.915663219150893,79.827622283868,27.915663219150893"></polygon><polygon points="54.68989890179298,84.5446424080033,55.483409442829945,83.17024183458581,53.89638836075601,83.17024183458581"></polygon><polygon points="83.78022228558514,68.75856488046327,84.17515017205073,68.07452971577906,83.38529439911954,68.07452971577906"></polygon><polygon points="93.80697872314825,47.95035898567236,94.15104452196232,47.35441954097962,93.46291292433418,47.35441954097962"></polygon><polygon points="22.06533222067075,81.99719888898211,22.460857794287367,81.3121284997853,21.669806647054134,81.3121284997853"></polygon><polygon points="57.48613114401031,81.0269924292578,58.13418947273511,79.90452247763827,56.83807281528551,79.90452247763827"></polygon><polygon points="37.01225063377512,88.5312043166937,37.438579346169774,87.79278132610072,36.58592192138046,87.79278132610072"></polygon><polygon points="8.354885102427232,59.168256693414115,8.772291674524908,58.44528730312778,7.937478530329557,58.44528730312778"></polygon><polygon points="83.47231858989164,56.009700933272384,84.35559333286797,54.47982420139505,82.58904384691532,54.47982420139505"></polygon><polygon points="20.040374209781916,61.60543098612096,20.694384248041537,60.47265237119523,19.386364171522295,60.47265237119523"></polygon><polygon points="66.85947495030096,18.73864062317454,67.31925987748808,17.9422697687321,66.39969002311385,17.9422697687321"></polygon><polygon points="26.854471430372232,78.21774687718298,27.390303960359216,77.28965771089734,26.31863890038525,77.28965771089734"></polygon><polygon points="93.27079236509957,49.83358887354547,93.7891317782525,48.93579867439916,92.75245295194664,48.93579867439916"></polygon><polygon points="54.85695670891529,87.07307045107154,55.53162083456849,85.90451790739615,54.18229258326209,85.90451790739615"></polygon><polygon points="78.73784016881692,26.216727580372318,79.38291187442314,25.099430611737215,78.09276846321069,25.099430611737215"></polygon><polygon points="48.334278264722656,87.73233502613473,48.82618682742363,86.88032440285846,47.84236970202168,86.88032440285846"></polygon><polygon points="47.07031398044549,89.59405535474166,47.72557582159176,88.4591085536152,46.41505213929922,88.4591085536152"></polygon><polygon points="46.683430438245004,82.05172386027623,47.44287273116566,80.73633122352105,45.92398814532435,80.73633122352105"></polygon><polygon points="15.696466893943352,65.6466093081851,16.38582139213413,64.45261229289254,15.007112395752577,64.45261229289254"></polygon><polygon points="46.612002442430594,85.82284070162673,47.0886457703826,84.99727024052514,46.13535911447859,84.99727024052514"></polygon><polygon points="80.14164944098378,68.04428617561761,80.97340306818629,66.60364663392319,79.30989581378128,66.60364663392318"></polygon><polygon points="13.998566283156912,56.153096472818994,14.702681361942417,54.93353338198713,13.294451204371406,54.93353338198713"></polygon><polygon points="33.55591109498474,19.951509374045422,34.14345250218215,18.933857805228985,32.96836968778732,18.933857805228985"></polygon><polygon points="42.38937624743537,10.394718133628668,42.79956561525964,9.684249307832479,41.979186879611106,9.684249307832479"></polygon><polygon points="15.422536479614031,27.663284179066043,15.740590157523064,27.112399049393453,15.104482801704998,27.112399049393453"></polygon><polygon points="72.44713692435369,84.52464734915705,72.84589216921053,83.83398300528043,72.04838167949684,83.83398300528043"></polygon></g></g>
  <desc>Created with Snap</desc></svg>
