<svg width="100%" height="100%" viewBox="0 0 100 100" version="1.1" xmlns="http://www.w3.org/2000/svg" id="decent-logo-svg">
       <defs>
         <style type="text/css">
           @import url("https://fonts.googleapis.com/css?family=Dosis:400,700")
         </style>
         <style type="text/css">
           #text text {
             font-family: 'Dosis'
           }
         </style>
       </defs>
       <g id="svg-content"><circle cx="50" cy="50" r="25" id="shape"></circle><g textAlign="center" fill="undefined" style="text-anchor: middle; stroke-width: 0;" stroke="rgba(0,0,0,0)" id="halftones"><rect x="63.61361797121801" y="20.262354701909846" width="2.3255073102494532" height="2.3255073102494532"></rect><rect x="21.663612376105437" y="55.7768098873955" width="2.2675776245350527" height="2.2675776245350527"></rect><rect x="17.74162136560064" y="55.87259416012776" width="1.5609871827595088" height="1.5609871827595088"></rect><rect x="55.426287844787275" y="91.5634501851656" width="0.9675908872270133" height="0.9675908872270133"></rect><rect x="81.49068239896502" y="46.24750695898106" width="2.0577682815943517" height="2.0577682815943517"></rect><rect x="66.68403427767319" y="84.541825339109" width="0.8983546123949888" height="0.8983546123949888"></rect><rect x="70.54874218372603" y="66.6513917422808" width="1.721073144606157" height="1.721073144606157"></rect><rect x="20.122901265454864" y="65.20043824534194" width="2.079570152864043" height="2.079570152864043"></rect><rect x="39.016588626225506" y="21.283173716100727" width="1.4774728671441824" height="1.4774728671441824"></rect><rect x="76.57091043913327" y="49.41572892168945" width="2.9715762057510378" height="2.9715762057510378"></rect><rect x="44.67379643793203" y="20.221546484873574" width="1.6689098383646221" height="1.6689098383646221"></rect><rect x="17.767472809768975" y="57.21521712435023" width="2.1818097424730247" height="2.1818097424730247"></rect><rect x="78.78381530005974" y="61.85956579006822" width="1.6829166726135196" height="1.6829166726135196"></rect><rect x="61.41890226952994" y="79.14987515244188" width="1.3930877384001181" height="1.3930877384001181"></rect><rect x="67.58890586748282" y="75.15888321623758" width="1.6895898724103267" height="1.6895898724103267"></rect><rect x="65.1316925000563" y="71.64572964686137" width="2.023458152895288" height="2.023458152895288"></rect><rect x="27.031886496463823" y="80.19356909199796" width="0.9789873584043487" height="0.9789873584043487"></rect><rect x="71.19007652831043" y="73.31140136879328" width="1.465615087001123" height="1.465615087001123"></rect><rect x="72.94261389870637" y="71.2143129758161" width="1.4776913369924407" height="1.4776913369924407"></rect><rect x="70.50558154918143" y="70.49122209858062" width="2.171650797305138" height="2.171650797305138"></rect><rect x="54.06222506559309" y="77.92137458652462" width="1.6196073928187606" height="1.6196073928187606"></rect><rect x="59.615276909571335" y="75.08038314361181" width="2.2804802797364236" height="2.2804802797364236"></rect><rect x="57.76906245248036" y="84.24099356643288" width="1.627279220498192" height="1.627279220498192"></rect><rect x="34.038824701116646" y="22.166134396538588" width="1.3720243629796056" height="1.3720243629796056"></rect><rect x="27.08134416297829" y="23.490871994163108" width="1.065031020879129" height="1.065031020879129"></rect><rect x="76.3899364234917" y="41.00102687659" width="1.822380538369814" height="1.822380538369814"></rect><rect x="58.73121628494539" y="21.46538993852739" width="1.7707729054898262" height="1.7707729054898262"></rect><rect x="23.06029264537421" y="32.780659347649774" width="2.117878178833338" height="2.117878178833338"></rect><rect x="32.529071852864405" y="26.397500108341536" width="1.716790335561052" height="1.716790335561052"></rect><rect x="9.693325311875144" y="57.1040040337332" width="1.5270209514259512" height="1.5270209514259512"></rect><rect x="80.6578230082745" y="57.68586815156819" width="1.7432030462932153" height="1.7432030462932153"></rect><rect x="24.981069074664827" y="65.44876524131034" width="1.764609930576363" height="1.764609930576363"></rect><rect x="76.28687967911286" y="59.94609910180327" width="1.6928073875987681" height="1.6928073875987681"></rect><rect x="44.063350081517854" y="77.23322253704386" width="1.7951078479995073" height="1.7951078479995073"></rect><rect x="77.46005504464186" y="22.439848390333257" width="0.9524936762902861" height="0.9524936762902861"></rect><rect x="20.6565622656713" y="42.10242777267338" width="1.756807953452277" height="1.756807953452277"></rect><rect x="72.01095164579945" y="24.382894925312335" width="1.2026816536795222" height="1.2026816536795222"></rect><rect x="9.420562621989356" y="50.55417210184617" width="1.3759380641734211" height="1.3759380641734211"></rect><rect x="73.01971822231128" y="78.29297163864099" width="1.3977393296493472" height="1.3977393296493472"></rect><rect x="56.00150685790141" y="88.76991013303474" width="0.9725828645526634" height="0.9725828645526634"></rect><rect x="22.88934921220769" y="27.06146571910955" width="1.7197952737453512" height="1.7197952737453512"></rect><rect x="80.92922341000273" y="59.979959215518214" width="1.5050061724953947" height="1.5050061724953947"></rect><rect x="83.28889771275487" y="49.170364459395195" width="1.4358595638595735" height="1.4358595638595735"></rect><rect x="85.37611242110948" y="73.03460467505633" width="1.0595570359825535" height="1.0595570359825535"></rect><rect x="59.93260814355833" y="89.70068933934559" width="0.8316010531699605" height="0.8316010531699605"></rect><rect x="56.90439354888099" y="20.76643757853997" width="1.68149377142966" height="1.68149377142966"></rect><rect x="71.92020191361122" y="33.29811880860954" width="2.634261600806691" height="2.634261600806691"></rect><rect x="49.875557187113216" y="84.13242224262909" width="1.3769632791655122" height="1.3769632791655122"></rect><rect x="51.75342313522671" y="21.060506977113633" width="2.0026201202142957" height="2.0026201202142957"></rect><rect x="19.949588659892" y="52.77764453136656" width="2.8401591388826866" height="2.8401591388826866"></rect><rect x="74.80071360155306" y="74.52310572677933" width="1.2051085632878065" height="1.2051085632878065"></rect><rect x="70.1851846676572" y="17.545114365992323" width="0.9540481492950363" height="0.9540481492950363"></rect><rect x="47.8179904721921" y="82.66436657215354" width="1.529880982186031" height="1.529880982186031"></rect><rect x="86.95080230455245" y="49.79389041202466" width="1.4104819674239895" height="1.4104819674239895"></rect><rect x="57.59630381870057" y="14.958150341288059" width="1.4371026914737866" height="1.4371026914737866"></rect><rect x="29.56243793315714" y="77.1312959199" width="1.533427340155117" height="1.533427340155117"></rect><rect x="74.74655591845035" y="61.86890693282415" width="2.6935802997064435" height="2.6935802997064435"></rect><rect x="59.91163935208822" y="11.508071561569903" width="0.9529264233904576" height="0.9529264233904576"></rect><rect x="83.31259428612522" y="54.791631224462975" width="1.2888143664312506" height="1.2888143664312506"></rect><rect x="69.02905652818392" y="19.72060536768109" width="1.0372047546343337" height="1.0372047546343337"></rect><rect x="19.107931437751137" y="25.143649190284552" width="0.9963113895870085" height="0.9963113895870085"></rect><rect x="43.72772175401704" y="85.12470880825418" width="1.2268444252764568" height="1.2268444252764568"></rect><rect x="17.127191379525694" y="43.58619598666652" width="1.3650945292398877" height="1.3650945292398877"></rect><rect x="14.505220672993481" y="44.80172978995205" width="1.2217064886323632" height="1.2217064886323632"></rect><rect x="78.8154371312369" y="28.88879050338968" width="1.3528721941921762" height="1.3528721941921762"></rect><rect x="79.93699069056152" y="76.07950679994401" width="0.9232485824428716" height="0.9232485824428716"></rect><rect x="21.042283546532268" y="28.472468322554707" width="1.6703586878650596" height="1.6703586878650596"></rect><rect x="22.821664823691385" y="59.8775498002411" width="2.1663908024810072" height="2.1663908024810072"></rect><rect x="76.51442802759871" y="45.04261234099409" width="2.294835346403684" height="2.294835346403684"></rect><rect x="44.061663183728314" y="17.464284119029397" width="1.9508593296013643" height="1.9508593296013643"></rect><rect x="31.138035472151998" y="81.25479939639608" width="1.7828400471321388" height="1.7828400471321388"></rect><rect x="67.44058790275953" y="19.302605641356756" width="1.1742463411856885" height="1.1742463411856885"></rect><rect x="37.305163460187536" y="23.629454921250694" width="1.7521502888527547" height="1.7521502888527547"></rect><rect x="29.9336360885226" y="29.146027362071496" width="1.7691066122370955" height="1.7691066122370955"></rect><rect x="15.660038224671261" y="36.685426787393205" width="0.9867409538561975" height="0.9867409538561975"></rect><rect x="50.946814762116375" y="18.916162127827658" width="1.9706672141837052" height="1.9706672141837052"></rect><rect x="35.10066462044992" y="22.947769844832433" width="2.3086458645037187" height="2.3086458645037187"></rect><rect x="38.079487718509704" y="83.89818299744087" width="1.0997469031313114" height="1.0997469031313114"></rect><rect x="16.763879867148958" y="53.39011568879599" width="1.2101139117935853" height="1.2101139117935853"></rect><rect x="52.39346176885413" y="8.761198329047792" width="1.2286659249142429" height="1.2286659249142429"></rect><rect x="27.25674363228984" y="85.5963244806704" width="1.040060849102184" height="1.040060849102184"></rect><rect x="81.26688320920766" y="54.239919547741884" width="1.961500487461257" height="1.961500487461257"></rect><rect x="72.03246478755695" y="68.46223885135754" width="1.581788149439142" height="1.581788149439142"></rect><rect x="75.06215197174114" y="27.60174919205353" width="1.9505350585323116" height="1.9505350585323116"></rect><rect x="49.32385752898206" y="10.996411455894275" width="1.2492335991691734" height="1.2492335991691734"></rect><rect x="36.15405899521699" y="74.91621854562194" width="1.5371029871312805" height="1.5371029871312805"></rect><rect x="31.73968020270139" y="75.19849260566832" width="1.9415154552845102" height="1.9415154552845102"></rect><rect x="17.660377413835814" y="47.58125930414898" width="1.4314210442221136" height="1.4314210442221136"></rect><rect x="54.015210938112716" y="84.23124560764619" width="1.1823390181811888" height="1.1823390181811888"></rect><rect x="26.731942332319083" y="15.297477832826868" width="0.9387043886607757" height="0.9387043886607757"></rect><rect x="41.865300375477915" y="20.686984723111888" width="2.3362441212267058" height="2.3362441212267058"></rect><rect x="63.2137633007518" y="73.52714571799231" width="1.7320019878008377" height="1.7320019878008377"></rect><rect x="12.85991695673598" y="49.026306459908774" width="1.3193123160823872" height="1.3193123160823872"></rect><rect x="23.216977250866808" y="35.02649701641206" width="2.0849948457841623" height="2.0849948457841623"></rect><rect x="48.4839088260786" y="18.649935585323107" width="2.42885892187318" height="2.42885892187318"></rect><rect x="47.62616116049928" y="77.57874226159427" width="2.2254964684649345" height="2.2254964684649345"></rect><rect x="75.85888056008284" y="25.653606228252194" width="1.0710250949112143" height="1.0710250949112143"></rect><rect x="34.70363770447154" y="17.48750456586763" width="1.881700721354711" height="1.881700721354711"></rect><rect x="56.577411528885335" y="17.905748961016112" width="2.048653963086566" height="2.048653963086566"></rect><rect x="21.94474186707941" y="22.620572940187408" width="1.5952237182694327" height="1.5952237182694327"></rect><rect x="65.18863715172992" y="23.478395205788313" width="2.3813518233441315" height="2.3813518233441315"></rect><rect x="68.05776516429212" y="72.8887062199205" width="2.215074044191561" height="2.215074044191561"></rect><rect x="61.22101360044263" y="21.1624661363846" width="1.5803929896307656" height="1.5803929896307656"></rect><rect x="65.97769466292218" y="9.330508297509693" width="0.8348271870075514" height="0.8348271870075514"></rect><rect x="70.91419016702241" y="76.9871651617771" width="1.0675234790236474" height="1.0675234790236474"></rect><rect x="16.90444819545961" y="74.5278059775291" width="0.9655382871448733" height="0.9655382871448733"></rect><rect x="42.39803485766914" y="17.222282872290002" width="1.1705835001717617" height="1.1705835001717617"></rect><rect x="86.38044520155516" y="41.063414461648826" width="1.1911053729907766" height="1.1911053729907766"></rect><rect x="58.00902299891266" y="81.81548900284591" width="1.2241517109030602" height="1.2241517109030602"></rect><rect x="50.34965631696238" y="76.57071152157114" width="2.4424285039360303" height="2.4424285039360303"></rect><rect x="80.04645425789423" y="38.70430526012294" width="1.5158151111654818" height="1.5158151111654818"></rect><rect x="78.33257332687309" y="42.1561836254998" width="2.5422585461913227" height="2.5422585461913227"></rect><rect x="52.74213185239957" y="88.2847398517861" width="0.8423349396338276" height="0.8423349396338276"></rect><rect x="54.5930466470298" y="21.3997282456467" width="1.9776841772614004" height="1.9776841772614004"></rect><rect x="78.69924838461692" y="55.0861555516521" width="2.530674235924984" height="2.530674235924984"></rect><rect x="77.25108289416296" y="34.546087803244795" width="1.2758224861519154" height="1.2758224861519154"></rect><rect x="25.133510960638088" y="23.51012485637966" width="1.1231317969932337" height="1.1231317969932337"></rect><rect x="83.91804341113597" y="66.95944428222731" width="0.9925473608392597" height="0.9925473608392597"></rect><rect x="15.690022147001454" y="30.589376105827313" width="1.5083052932203682" height="1.5083052932203682"></rect><rect x="64.14690189533583" y="84.07593221316914" width="1.6539242210989402" height="1.6539242210989402"></rect><rect x="30.120907732596145" y="70.63177811226568" width="1.766733338463454" height="1.766733338463454"></rect><rect x="75.57077392444747" y="38.389871264305185" width="2.5276225211227112" height="2.5276225211227112"></rect><rect x="10.864918288497014" y="48.19935045137665" width="0.8791561056527285" height="0.8791561056527285"></rect><rect x="77.05723367710857" y="17.426362307921732" width="1.1135580930382456" height="1.1135580930382456"></rect><rect x="71.21716960446498" y="22.976214144253728" width="1.3327410346353237" height="1.3327410346353237"></rect><rect x="63.942587403426934" y="82.48634400567494" width="1.012014903084414" height="1.012014903084414"></rect><rect x="54.371517148772845" y="18.504734087507195" width="1.5653775392248035" height="1.5653775392248035"></rect><rect x="62.08774296151062" y="84.20816210464778" width="1.4621433811921514" height="1.4621433811921514"></rect><rect x="10.911250125042617" y="42.38005116991711" width="0.983479397192858" height="0.983479397192858"></rect><rect x="82.1764359776932" y="41.24990911185623" width="1.1071023387755559" height="1.1071023387755559"></rect><rect x="36.76413316636322" y="13.1635831006197" width="1.2773360393181923" height="1.2773360393181923"></rect><rect x="26.786932487339865" y="67.20966645125299" width="2.562907300571681" height="2.562907300571681"></rect><rect x="68.10201778089767" y="26.861799386239944" width="1.7948608387008875" height="1.7948608387008875"></rect><rect x="14.19776100565004" y="56.38590449383563" width="1.4537873791183737" height="1.4537873791183737"></rect><rect x="66.1959434633667" y="77.5962837445162" width="1.433975422908573" height="1.433975422908573"></rect><rect x="35.71699669505701" y="79.04352940162956" width="1.21472703658138" height="1.21472703658138"></rect><rect x="80.03464605575755" y="73.28899114611357" width="1.2274399135667986" height="1.2274399135667986"></rect><rect x="40.80132302574928" y="80.74630385498136" width="1.2823234854930985" height="1.2823234854930985"></rect><rect x="20.432597076116103" y="44.843330533149135" width="2.863044738648962" height="2.863044738648962"></rect><rect x="38.43416190742084" y="13.257926939320422" width="1.628916851651889" height="1.628916851651889"></rect><rect x="53.647273536000924" y="14.567484447552625" width="1.8734061329755578" height="1.8734061329755578"></rect><rect x="83.24526130573113" y="35.422149564289306" width="1.169086545153394" height="1.169086545153394"></rect><rect x="82.31070976503284" y="71.54394409041193" width="1.4613573002820086" height="1.4613573002820086"></rect><rect x="29.47971151154361" y="24.69362592408455" width="2.3029050264326876" height="2.3029050264326876"></rect><rect x="57.315466059334845" y="91.70816525532676" width="1.30748489352309" height="1.30748489352309"></rect><rect x="43.27018663160115" y="79.34875649370467" width="1.774859306862489" height="1.774859306862489"></rect><rect x="70.80208691716258" y="26.855911711836537" width="1.4925348823342077" height="1.4925348823342077"></rect><rect x="7.085409308647236" y="43.68309025851898" width="0.6949281339746285" height="0.6949281339746285"></rect><rect x="28.876946460959388" y="18.050143482614146" width="0.9528369572000114" height="0.9528369572000114"></rect><rect x="55.713028301595266" y="75.9812349079922" width="3.0469950055178274" height="3.0469950055178274"></rect><rect x="84.98855819052208" y="56.78950004514722" width="1.4193085325413524" height="1.4193085325413524"></rect><rect x="57.71042160152727" y="10.313813331813003" width="0.8197631523212833" height="0.8197631523212833"></rect><rect x="51.926305423008586" y="16.757416964100706" width="1.8767540100901405" height="1.8767540100901405"></rect><rect x="66.23145012819158" y="12.49077920763073" width="1.4170585570058032" height="1.4170585570058032"></rect><rect x="74.28426055750815" y="70.24166432098143" width="2.2579043635431244" height="2.2579043635431244"></rect><rect x="40.38157713436907" y="17.575074858607792" width="1.3250389088771046" height="1.3250389088771046"></rect><rect x="20.019157089671083" y="32.43309279636795" width="1.9583876054613696" height="1.9583876054613696"></rect><rect x="45.29881381376592" y="14.832608542798893" width="1.1031539535513593" height="1.1031539535513593"></rect><rect x="69.3218142873018" y="29.521549031482675" width="3.1270887562983587" height="3.1270887562983587"></rect><rect x="38.746210547000985" y="18.787800905938614" width="1.9201354666855692" height="1.9201354666855692"></rect><rect x="84.78134858368362" y="64.9898003114227" width="1.127727377787785" height="1.127727377787785"></rect><rect x="72.5240780949863" y="64.99402650855683" width="2.4476080345329954" height="2.4476080345329954"></rect><rect x="24.343292532581398" y="71.6803342449355" width="1.3151622748284522" height="1.3151622748284522"></rect><rect x="17.667174107056063" y="60.98601773227666" width="1.8227042034940555" height="1.8227042034940555"></rect><rect x="19.713558081444422" y="75.55413269691604" width="1.2905690706523838" height="1.2905690706523838"></rect><rect x="20.344696799915184" y="48.67877194539964" width="1.8529935195478824" height="1.8529935195478824"></rect><rect x="25.313201946262765" y="32.474823350962815" width="1.932208413260282" height="1.932208413260282"></rect><rect x="15.472023948539718" y="49.114824576022514" width="1.4164519060301128" height="1.4164519060301128"></rect><rect x="21.04400408379432" y="70.82752116128928" width="1.3066703272113673" height="1.3066703272113673"></rect><rect x="28.4717074343443" y="27.48941962364176" width="1.4553022473951926" height="1.4553022473951926"></rect><rect x="65.16120898385773" y="73.94110669092473" width="2.1870439770636856" height="2.1870439770636856"></rect><rect x="38.727273492889616" y="75.5153832506925" width="1.9079124080021366" height="1.9079124080021366"></rect><rect x="83.13848388411344" y="59.01861937381489" width="1.7426024833552467" height="1.7426024833552467"></rect><rect x="85.19008686646127" y="43.08765288998835" width="1.4444731336958683" height="1.4444731336958683"></rect><rect x="30.439612654963987" y="22.34737843630064" width="1.5129876447340245" height="1.5129876447340245"></rect><rect x="82.31649843977371" y="64.89088505786299" width="1.7832604267751178" height="1.7832604267751178"></rect><rect x="24.018202624787964" y="75.87585641717381" width="1.2315597639155431" height="1.2315597639155431"></rect><rect x="11.647341488640551" y="41.52037635019393" width="1.4882126074758568" height="1.4882126074758568"></rect><rect x="63.53806889331638" y="14.157538465866253" width="1.0332154400115032" height="1.0332154400115032"></rect><rect x="34.70157364921479" y="84.99791513341711" width="0.8579056104979804" height="0.8579056104979804"></rect><rect x="72.61595549502843" y="20.77329722283791" width="1.442932637637827" height="1.442932637637827"></rect><rect x="87.51805070254781" y="63.370711725011034" width="1.0689650935547657" height="1.0689650935547657"></rect><rect x="79.5408942246422" y="35.468654771291035" width="2.011693471263681" height="2.011693471263681"></rect><rect x="32.432790689831975" y="71.66639553589815" width="1.878491794158206" height="1.878491794158206"></rect><rect x="15.41778507577161" y="72.30434261454901" width="1.3482361749254637" height="1.3482361749254637"></rect><rect x="19.4728105626895" y="37.89514238334644" width="1.7311493207976962" height="1.7311493207976962"></rect><rect x="43.907684569183495" y="10.409252040046226" width="0.831185052099983" height="0.831185052099983"></rect><rect x="22.070068615251852" y="38.95126306937033" width="1.600383834437225" height="1.600383834437225"></rect><rect x="58.853541845361285" y="80.28289439611073" width="1.6124475428913467" height="1.6124475428913467"></rect><rect x="17.482893923845012" y="35.41256843414097" width="1.9103082910037117" height="1.9103082910037117"></rect><rect x="69.87221362209718" y="24.54344870680745" width="1.766525564144319" height="1.766525564144319"></rect><rect x="16.05930284677887" y="28.12282972180281" width="0.9243417035708869" height="0.9243417035708869"></rect><rect x="13.013890250211515" y="32.56864333282783" width="1.0407381274924639" height="1.0407381274924639"></rect><rect x="65.16057380331411" y="14.70571439661772" width="1.5249061502265728" height="1.5249061502265728"></rect><rect x="13.738827227610619" y="61.66911647267179" width="1.4164679285128339" height="1.4164679285128339"></rect><rect x="27.99470620498203" y="72.68852121204146" width="1.3135545994862028" height="1.3135545994862028"></rect><rect x="10.051612445302595" y="61.43122012790636" width="1.3082169877431087" height="1.3082169877431087"></rect><rect x="45.99330200346548" y="81.65225978374532" width="1.9733034301799655" height="1.9733034301799655"></rect><rect x="73.81153704255408" y="68.3166065570941" width="1.337219621763122" height="1.337219621763122"></rect><rect x="62.26786885064433" y="81.2623833527608" width="1.1515032624407615" height="1.1515032624407615"></rect><rect x="81.37800818125974" y="28.577806469649502" width="1.143043841559645" height="1.143043841559645"></rect><rect x="59.27556151731619" y="16.618295325512623" width="1.6111812747610126" height="1.6111812747610126"></rect><rect x="69.39276820503511" y="22.063256770843623" width="1.4149908840608885" height="1.4149908840608885"></rect><rect x="87.67555525036246" y="31.316464105547226" width="1.2074859565763536" height="1.2074859565763536"></rect><rect x="60.13208228074124" y="19.109140591581607" width="1.34873938712915" height="1.34873938712915"></rect><rect x="61.70335287567137" y="24.213345876995188" width="2.454386131305458" height="2.454386131305458"></rect><rect x="84.6048847560569" y="47.72013823108198" width="1.6899354501064487" height="1.6899354501064487"></rect><rect x="49.808934323801125" y="82.13594433647276" width="1.7930432814858994" height="1.7930432814858994"></rect><rect x="92.32059244998513" y="44.42747782541235" width="1.1039728796678667" height="1.1039728796678667"></rect><rect x="36.81673651977279" y="78.80051551878623" width="1.4747838312142565" height="1.4747838312142565"></rect><rect x="85.27977187300662" y="44.61336614741944" width="1.384404580300637" height="1.384404580300637"></rect><rect x="22.44493926872915" y="20.153040071814793" width="1.0230424094119683" height="1.0230424094119683"></rect><rect x="78.49715708810172" y="31.027672740522515" width="1.0941998476359156" height="1.0941998476359156"></rect><rect x="66.3908531690901" y="83.19588381652365" width="1.686388023280364" height="1.686388023280364"></rect><rect x="33.69345352947032" y="11.913794057751742" width="0.833515996713675" height="0.833515996713675"></rect><rect x="46.15328615036738" y="12.329413527569308" width="1.2091051811224813" height="1.2091051811224813"></rect><rect x="33.49290192209699" y="15.444657334577126" width="1.024716839978033" height="1.024716839978033"></rect><rect x="41.60223362699789" y="78.97696069473592" width="1.5010938882562765" height="1.5010938882562765"></rect><rect x="28.021652244932458" y="19.898703811436164" width="1.0967632918060388" height="1.0967632918060388"></rect><rect x="77.9784896057027" y="58.69627465310346" width="2.2602228451365294" height="2.2602228451365294"></rect><rect x="7.96056237234458" y="33.99391411524724" width="0.8572382020088214" height="0.8572382020088214"></rect><rect x="18.107154895140095" y="69.06571844054695" width="1.3225445305798096" height="1.3225445305798096"></rect><rect x="23.846542386317005" y="30.38243454578381" width="1.9119110658933056" height="1.9119110658933056"></rect><rect x="13.94905739068268" y="50.97619913868991" width="1.1505472833080312" height="1.1505472833080312"></rect><rect x="33.74563793707695" y="14.469515011546022" width="0.8879373226057072" height="0.8879373226057072"></rect><rect x="26.06160775754054" y="73.18968562434021" width="1.6440190400038903" height="1.6440190400038903"></rect><rect x="55.206959685302245" y="89.89210979158416" width="0.8833910905166162" height="0.8833910905166162"></rect><rect x="11.796962997027405" y="51.920950577682824" width="1.494600534790823" height="1.494600534790823"></rect><rect x="63.278519525705384" y="77.35679381343874" width="2.216620553264241" height="2.216620553264241"></rect><rect x="19.76847228743049" y="39.61475507772991" width="1.9637125623986555" height="1.9637125623986555"></rect><rect x="79.11803882561792" y="33.09251733802487" width="1.1135241224986288" height="1.1135241224986288"></rect><rect x="70.34376190817716" y="18.913979536187746" width="1.6621996051056738" height="1.6621996051056738"></rect><rect x="26.41192515612123" y="75.67532610980486" width="1.2590326923242128" height="1.2590326923242128"></rect><rect x="38.34812146943781" y="88.75189418847211" width="1.165040507515465" height="1.165040507515465"></rect><rect x="42.90551508997594" y="6.4602630399522" width="0.7835190081124114" height="0.7835190081124114"></rect><rect x="18.165401015073865" y="31.369247653871557" width="1.2970761893699372" height="1.2970761893699372"></rect><rect x="28.08360094698984" y="77.40906689758886" width="1.2637960291062382" height="1.2637960291062382"></rect><rect x="26.828619125837424" y="25.081315688575653" width="1.179026364930112" height="1.179026364930112"></rect><rect x="66.71289353079534" y="79.2877990754179" width="1.921412975471591" height="1.921412975471591"></rect><rect x="15.0403277274765" y="38.78752921499364" width="1.7037346985536221" height="1.7037346985536221"></rect><rect x="43.023610504917265" y="11.404380200666706" width="1.4578781303479253" height="1.4578781303479253"></rect><rect x="79.98943480600578" y="67.2821735095557" width="1.6747839861084262" height="1.6747839861084262"></rect><rect x="10.38777245020616" y="44.83429361851419" width="1.5955649692112024" height="1.5955649692112024"></rect><rect x="63.3066317987162" y="18.374994896625335" width="1.4289119465259705" height="1.4289119465259705"></rect><rect x="54.80829163877639" y="82.0739595058504" width="1.4827839537349194" height="1.4827839537349194"></rect><rect x="22.157336558551386" y="73.21052824930231" width="1.1518814081920692" height="1.1518814081920692"></rect><rect x="69.78811114213141" y="84.12800983440823" width="1.266964205375232" height="1.266964205375232"></rect><rect x="34.154610449382105" y="81.10216923581308" width="1.0776329839987386" height="1.0776329839987386"></rect><rect x="76.37731017986273" y="31.300991121066613" width="1.2963869312667173" height="1.2963869312667173"></rect><rect x="67.20355749771441" y="17.556222385654518" width="1.206642573795326" height="1.206642573795326"></rect><rect x="73.64132986917517" y="75.80826581318523" width="1.3510841454097977" height="1.3510841454097977"></rect><rect x="75.65558328776748" y="20.326128111064982" width="0.8374216934229293" height="0.8374216934229293"></rect><rect x="87.96440333119294" y="60.5408937643065" width="1.3848586587461316" height="1.3848586587461316"></rect><rect x="17.91227743633098" y="32.832338616601454" width="0.9824119742493299" height="0.9824119742493299"></rect><rect x="41.20241768322865" y="82.75806100591599" width="1.3038956377841597" height="1.3038956377841597"></rect><rect x="28.52542791446355" y="85.98912000963874" width="1.0128948763330965" height="1.0128948763330965"></rect><rect x="43.536921378878134" y="81.81103956589108" width="1.3371198465367349" height="1.3371198465367349"></rect><rect x="30.35921129861344" y="17.510544508086966" width="1.496221849922483" height="1.496221849922483"></rect><rect x="93.07608672500548" y="49.02797357423605" width="0.9518692335209753" height="0.9518692335209753"></rect><rect x="48.01769424698884" y="88.3153062587392" width="1.0390018166211128" height="1.0390018166211128"></rect><rect x="36.0489879522451" y="80.52394275457628" width="1.448374405979405" height="1.448374405979405"></rect><rect x="79.1468634455695" y="64.65921974486575" width="1.4030603631567056" height="1.4030603631567056"></rect><rect x="35.52954207091725" y="13.238812574069332" width="0.8847803600935521" height="0.8847803600935521"></rect><rect x="20.374035413821424" y="63.05188975767836" width="1.2548197561952525" height="1.2548197561952525"></rect><rect x="15.876346964332523" y="20.295306130891042" width="0.7794052267473212" height="0.7794052267473212"></rect><rect x="89.92569315086605" y="63.779371361076265" width="1.2120671780446826" height="1.2120671780446826"></rect><rect x="75.39459905743306" y="32.76664001206739" width="1.583218646023609" height="1.583218646023609"></rect><rect x="8.759645733064243" y="59.75381162115404" width="0.7095767749858108" height="0.7095767749858108"></rect><rect x="89.96694899227128" y="38.41285801185287" width="0.8354721268709573" height="0.8354721268709573"></rect><rect x="83.35755623331917" y="32.86522748069269" width="1.428045497531073" height="1.428045497531073"></rect><rect x="33.357355159586355" y="78.33296060227605" width="1.8108749990653263" height="1.8108749990653263"></rect><rect x="14.092305450748738" y="54.097593740328385" width="1.185702589269685" height="1.185702589269685"></rect><rect x="88.31078867992683" y="37.273226110795584" width="0.9313023583853529" height="0.9313023583853529"></rect><rect x="80.29288450904508" y="48.57659858327907" width="2.4978611922919955" height="2.4978611922919955"></rect><rect x="37.15206637175994" y="19.279901685827646" width="1.2146535608360725" height="1.2146535608360725"></rect><rect x="75.46296397181825" y="80.6247534167872" width="1.4906382676140932" height="1.4906382676140932"></rect><rect x="21.202648363154886" y="26.651378964864826" width="1.5700523100135404" height="1.5700523100135404"></rect><rect x="64.18663217118619" y="11.27623703330977" width="1.1163613368609488" height="1.1163613368609488"></rect><rect x="77.17612529837767" y="27.36642835442648" width="1.8015946484609526" height="1.8015946484609526"></rect><rect x="24.373845291087036" y="62.882668359845276" width="2.424873856559933" height="2.424873856559933"></rect><rect x="90.18028531331382" y="37.275192106524045" width="0.7720504884033554" height="0.7720504884033554"></rect><rect x="28.471071751677055" y="16.614602689875753" width="0.9885584842982955" height="0.9885584842982955"></rect><rect x="16.068721684648835" y="60.038269896451766" width="1.2744745098371368" height="1.2744745098371368"></rect><rect x="26.318199952635005" y="26.863009534484263" width="1.7203576094653568" height="1.7203576094653568"></rect><rect x="25.962154376963223" y="18.435699259469608" width="0.9485288810971273" height="0.9485288810971273"></rect><rect x="23.05379881699532" y="68.12764572529026" width="1.2377036227343234" height="1.2377036227343234"></rect><rect x="72.56978392924584" y="18.954611618319124" width="0.8685625139749391" height="0.8685625139749391"></rect><rect x="67.17667321811496" y="10.92756729073391" width="0.784788547387652" height="0.784788547387652"></rect><rect x="83.54987449041653" y="68.79442152839921" width="1.1940540192417677" height="1.1940540192417677"></rect><rect x="16.590899069245737" y="26.500796128559166" width="1.379899631267154" height="1.379899631267154"></rect><rect x="50.21307142041311" y="86.59427131779753" width="1.3904893868163573" height="1.3904893868163573"></rect><rect x="88.45864692474909" y="34.252221542924374" width="1.0348092801715774" height="1.0348092801715774"></rect><rect x="39.27729604084094" y="15.255448471055548" width="1.3717928030376143" height="1.3717928030376143"></rect><rect x="59.13144930190157" y="87.06839814351378" width="1.5623973101220427" height="1.5623973101220427"></rect><rect x="17.95738106383408" y="49.86542711557226" width="1.644594549853025" height="1.644594549853025"></rect><rect x="77.00686914489826" y="67.23172480912918" width="2.097338411668147" height="2.097338411668147"></rect><rect x="51.64865762382523" y="90.28867898625764" width="0.8971599236731466" height="0.8971599236731466"></rect><rect x="16.4123054374032" y="62.966549326814" width="1.677990240863817" height="1.677990240863817"></rect><rect x="15.349381297455908" y="41.062475066335" width="1.0420070736732998" height="1.0420070736732998"></rect><rect x="61.786076139543724" y="86.27159895341556" width="1.004506225041976" height="1.004506225041976"></rect><rect x="28.52251814580269" y="74.60737112491333" width="2.3208869536457044" height="2.3208869536457044"></rect><rect x="89.68506075974553" y="53.39963400540714" width="0.9157439714511346" height="0.9157439714511346"></rect><rect x="59.35643132699662" y="6.203378880408184" width="0.7247065577924524" height="0.7247065577924524"></rect><rect x="48.69891353280112" y="14.919721108004165" width="2.0277464166800114" height="2.0277464166800114"></rect><rect x="83.60133597063589" y="42.888226499277174" width="1.3413774857405025" height="1.3413774857405025"></rect><rect x="75.28045036496849" y="34.82807480329143" width="1.9358260901849134" height="1.9358260901849134"></rect><rect x="16.042241808589946" y="68.93020310820745" width="1.3251749435992723" height="1.3251749435992723"></rect><rect x="21.59031751690784" y="18.25289544547867" width="1.278028668734754" height="1.278028668734754"></rect><rect x="38.160577529215715" y="85.77411761308804" width="1.413189206743752" height="1.413189206743752"></rect><rect x="31.492989852073062" y="85.42201946349388" width="1.030449181841883" height="1.030449181841883"></rect><rect x="16.78586133854335" y="40.75258520341069" width="1.8934759844797178" height="1.8934759844797178"></rect><rect x="34.92294600427206" y="72.91359705516227" width="1.9586118450068624" height="1.9586118450068624"></rect><rect x="75.04235345662961" y="64.73856142619215" width="2.3422757504412735" height="2.3422757504412735"></rect><rect x="83.7197050718871" y="45.77149525703367" width="1.9968170485647214" height="1.9968170485647214"></rect><rect x="27.91182096020349" y="30.832520341530742" width="2.236000955954385" height="2.236000955954385"></rect><rect x="71.19526480450477" y="13.47495425870741" width="0.8519831084739673" height="0.8519831084739673"></rect><rect x="69.35513408539343" y="75.14144129887521" width="2.21212754501498" height="2.21212754501498"></rect><rect x="58.5848205537119" y="12.154801707791014" width="0.9866173292623347" height="0.9866173292623347"></rect><rect x="81.27669909003384" y="30.959158030241138" width="1.0776718705805053" height="1.0776718705805053"></rect><rect x="87.58234043359435" y="39.60883730728317" width="0.8297882734543258" height="0.8297882734543258"></rect><rect x="29.007247936788275" y="22.170656585868635" width="1.1990983279254148" height="1.1990983279254148"></rect><rect x="24.52065481620421" y="69.25748459346752" width="1.4338641087309516" height="1.4338641087309516"></rect><rect x="50.68067920743175" y="12.59842142798532" width="1.137815171124148" height="1.137815171124148"></rect><rect x="29.491638515726557" y="81.22369488265636" width="1.2776212184387346" height="1.2776212184387346"></rect><rect x="29.7570545054199" y="79.65271520193733" width="1.3914962390520742" height="1.3914962390520742"></rect><rect x="23.59741351486374" y="74.28080176074388" width="1.2172177393514354" height="1.2172177393514354"></rect><rect x="20.81831638167363" y="36.207173715849386" width="1.6309674895238684" height="1.6309674895238684"></rect><rect x="15.473834324558776" y="52.73174882223618" width="1.2042646531241354" height="1.2042646531241354"></rect><rect x="75.83967866502243" y="53.28975659165174" width="2.834805179651842" height="2.834805179651842"></rect><rect x="18.000036969011283" y="24.883883440894575" width="0.8274244509219214" height="0.8274244509219214"></rect><rect x="39.401556322615946" y="79.55790632848203" width="1.260222984310414" height="1.260222984310414"></rect><rect x="69.88584681478851" y="16.49630572577753" width="1.0555636140719802" height="1.0555636140719802"></rect><rect x="46.33581752173747" y="86.97949109815967" width="1.1639524669521337" height="1.1639524669521337"></rect><rect x="53.88504781746143" y="11.331383837071055" width="1.4268019581705926" height="1.4268019581705926"></rect><rect x="15.520798780965203" y="58.1030700757965" width="1.6315395093903462" height="1.6315395093903462"></rect><rect x="53.221683231356124" y="87.14516089853404" width="1.4222185091919257" height="1.4222185091919257"></rect><rect x="36.88023601711661" y="77.20862620193648" width="1.5506669631441357" height="1.5506669631441357"></rect><rect x="32.82929741446443" y="84.5879210225845" width="1.30288555400365" height="1.30288555400365"></rect><rect x="35.134105214126585" y="8.95102893317193" width="1.0748454564463321" height="1.0748454564463321"></rect><rect x="85.85867685562526" y="39.642328295384466" width="0.9945353036687871" height="0.9945353036687871"></rect><rect x="65.36176899311346" y="26.653252543473887" width="1.6508703934460847" height="1.6508703934460847"></rect><rect x="36.69110443881542" y="85.28901905159778" width="1.0576784388690852" height="1.0576784388690852"></rect><rect x="86.98437983823672" y="54.71897723098619" width="1.1720504430180654" height="1.1720504430180654"></rect><rect x="70.45439241165457" y="82.33272851691582" width="1.2168819604896468" height="1.2168819604896468"></rect><rect x="52.935248430457676" y="81.79974039385917" width="1.431001591552223" height="1.431001591552223"></rect><rect x="53.764711826199594" y="79.89334321014513" width="1.5110045497485622" height="1.5110045497485622"></rect><rect x="17.31333880618675" y="28.80476377020745" width="1.1863338389929647" height="1.1863338389929647"></rect><rect x="82.12599365949058" y="26.693528314654102" width="0.8930620011103655" height="0.8930620011103655"></rect><rect x="21.46368910331797" y="67.94481277239424" width="1.3743624064706075" height="1.3743624064706075"></rect><rect x="73.327072916521" y="24.060124180324568" width="1.043858979642154" height="1.043858979642154"></rect><rect x="10.372073491302505" y="33.91248566535007" width="0.8255822519209267" height="0.8255822519209267"></rect><rect x="22.71875052307513" y="65.83439098603854" width="1.5049662617226227" height="1.5049662617226227"></rect><rect x="72.60900827139251" y="26.31403329545259" width="1.1889529395384444" height="1.1889529395384444"></rect><rect x="26.709990230938928" y="71.02072016328732" width="1.7981142713036309" height="1.7981142713036309"></rect><rect x="67.62816043098744" y="13.937542441142675" width="1.5464957786465177" height="1.5464957786465177"></rect><rect x="13.486064926915535" y="67.34961459368063" width="1.0487998022879526" height="1.0487998022879526"></rect><rect x="41.54588684592032" y="85.02061144305864" width="1.1007136927625596" height="1.1007136927625596"></rect><rect x="32.86142673737502" y="17.038454144368153" width="1.259272994180304" height="1.259272994180304"></rect><rect x="14.560392795830762" y="28.27560728162631" width="0.9584054448299141" height="0.9584054448299141"></rect><rect x="84.20949223521572" y="52.81198732838996" width="1.3329066213939318" height="1.3329066213939318"></rect><rect x="21.940847779987156" y="63.09957917668816" width="1.8893584844172324" height="1.8893584844172324"></rect><rect x="40.9742204866433" y="75.86976328984352" width="1.669473532628397" height="1.669473532628397"></rect><rect x="34.75793207817876" y="82.88107751872897" width="1.1661539169723274" height="1.1661539169723274"></rect><rect x="12.159400336490359" y="27.78895727746956" width="0.7554519269582116" height="0.7554519269582116"></rect><rect x="67.86018134611311" y="69.51164946139876" width="2.382098051744944" height="2.382098051744944"></rect><rect x="73.68553554746936" y="25.06131496661861" width="1.8669639384685728" height="1.8669639384685728"></rect><rect x="41.80835747757551" y="14.823405377254415" width="1.0830388089294058" height="1.0830388089294058"></rect><rect x="52.068375428852974" y="14.24725376236225" width="1.0130330140238164" height="1.0130330140238164"></rect><rect x="72.93532182577854" y="73.65518427142578" width="1.6294665097302594" height="1.6294665097302594"></rect><rect x="84.39542762414246" y="38.684800290846184" width="1.7072749189904397" height="1.7072749189904397"></rect><rect x="85.89850079158533" y="35.82120139345755" width="1.3844537934239949" height="1.3844537934239949"></rect><rect x="40.02086030432119" y="87.16837886615313" width="1.1624063819022927" height="1.1624063819022927"></rect><rect x="15.748621098007133" y="47.02385198298227" width="1.717030916550234" height="1.717030916550234"></rect><rect x="75.11927346782645" y="75.60959655734874" width="1.5028710026102698" height="1.5028710026102698"></rect><rect x="36.8658344393548" y="84.20528904390142" width="1.0420733932403512" height="1.0420733932403512"></rect><rect x="75.52715817433007" y="78.55968504301696" width="1.5623403439391679" height="1.5623403439391679"></rect><rect x="60.8053070535805" y="80.65094677974386" width="1.6979208247997708" height="1.6979208247997708"></rect><rect x="28.01323635079244" y="80.49337213770957" width="1.5949987260998888" height="1.5949987260998888"></rect><rect x="12.142609611674965" y="47.74755325348577" width="1.1164127206088899" height="1.1164127206088899"></rect><rect x="87.6845363695692" y="46.62398898000821" width="0.952635697313439" height="0.952635697313439"></rect><rect x="24.269297410818794" y="17.46175745349081" width="1.1043031403270367" height="1.1043031403270367"></rect><rect x="89.74721625868126" y="45.544452903211486" width="0.8504969468870899" height="0.8504969468870899"></rect><rect x="30.628990094660406" y="15.796574738159388" width="0.9708919407196085" height="0.9708919407196085"></rect><rect x="13.321967952384203" y="47.07350330495373" width="1.2273771028011768" height="1.2273771028011768"></rect><rect x="19.595991989226743" y="19.96147571807039" width="1.0265405691905083" height="1.0265405691905083"></rect><rect x="87.51158018908845" y="52.58927328676172" width="0.9157738994636974" height="0.9157738994636974"></rect><rect x="70.90256821012927" y="78.33114121617696" width="1.1874546679018854" height="1.1874546679018854"></rect><rect x="32.72515857372451" y="23.82571007891058" width="1.5112948937886965" height="1.5112948937886965"></rect><rect x="56.717719431158905" y="12.553166147485978" width="0.923981785199808" height="0.923981785199808"></rect><rect x="34.81909576303449" y="10.292707079516362" width="1.0852366524830488" height="1.0852366524830488"></rect><rect x="25.608518179127806" y="77.34708295691108" width="1.4405553880008861" height="1.4405553880008861"></rect><rect x="78.48425973937118" y="71.65043715878433" width="1.0521456275559777" height="1.0521456275559777"></rect><rect x="34.685751191709784" y="20.293007917668763" width="1.425190116708872" height="1.425190116708872"></rect><rect x="40.07677947899068" y="85.15725562302562" width="0.9316319582651195" height="0.9316319582651195"></rect><rect x="81.12253204406096" y="27.192279416108356" width="0.8430565534910084" height="0.8430565534910084"></rect><rect x="30.380856860445476" y="14.231502156348618" width="0.8504180545942874" height="0.8504180545942874"></rect><rect x="15.000949426980572" y="54.16436706210499" width="1.9837857311171885" height="1.9837857311171885"></rect><rect x="79.49526144595399" y="27.127823126926888" width="1.2142733175745086" height="1.2142733175745086"></rect><rect x="10.40679851440235" y="36.43327684995342" width="0.9449298363230635" height="0.9449298363230635"></rect><rect x="89.26942519317053" y="54.813994233664324" width="0.7839503318298462" height="0.7839503318298462"></rect><rect x="13.31101206059853" y="73.73099912614532" width="0.6818503258772334" height="0.6818503258772334"></rect><rect x="11.72435237369407" y="32.567657565418735" width="0.7597663597048229" height="0.7597663597048229"></rect><rect x="38.417654982893595" y="77.82504188398754" width="2.0964370579243847" height="2.0964370579243847"></rect><rect x="18.420978069723144" y="27.015610338566614" width="1.7441610896581043" height="1.7441610896581043"></rect><rect x="15.841566460049613" y="74.34386255927396" width="1.0401652240510093" height="1.0401652240510093"></rect><rect x="81.95583062908332" y="42.90409074380781" width="1.3796508186376413" height="1.3796508186376413"></rect><rect x="81.5452700626261" y="73.43159340462094" width="1.085717305604301" height="1.085717305604301"></rect><rect x="12.766182235025422" y="55.622877307963044" width="1.153739256883276" height="1.153739256883276"></rect><rect x="38.29324905433933" y="10.659613450314986" width="0.8844014643407959" height="0.8844014643407959"></rect><rect x="18.279967294633003" y="76.66616414372254" width="1.0390069470486736" height="1.0390069470486736"></rect><rect x="29.396440071128254" y="20.2925154720301" width="1.5889232883240842" height="1.5889232883240842"></rect><rect x="71.2678686708568" y="86.41880290349224" width="0.755513110731792" height="0.755513110731792"></rect><rect x="55.97531757459664" y="8.673580735960073" width="1.1469332295591113" height="1.1469332295591113"></rect><rect x="61.609063506489264" y="17.924420584384777" width="1.4216847003680275" height="1.4216847003680275"></rect><rect x="80.26826094157306" y="25.068063601825127" width="1.2912594996902422" height="1.2912594996902422"></rect><rect x="82.82395277357054" y="62.35645911332456" width="1.8529706498983376" height="1.8529706498983376"></rect><rect x="25.83717079649986" y="17.338673359231308" width="0.7945822284740405" height="0.7945822284740405"></rect><rect x="14.712168405981027" y="32.71445730759469" width="1.272444569041494" height="1.272444569041494"></rect><rect x="57.467052535845994" y="86.39243380895529" width="1.4465913036867495" height="1.4465913036867495"></rect><rect x="74.85771243477105" y="23.389009199119815" width="1.1060554095883768" height="1.1060554095883768"></rect></g></g>
  <desc>Created with Snap</desc></svg>
