<svg width="100%" height="100%" viewBox="0 0 100 100" version="1.1" xmlns="http://www.w3.org/2000/svg" id="decent-logo-svg">
       <defs>
         <style type="text/css">
           @import url("https://fonts.googleapis.com/css?family=Dosis:400,700")
         </style>
         <style type="text/css">
           #text text {
             font-family: 'Dosis'
           }
         </style>
       </defs>
       <g id="svg-content"><circle cx="50" cy="50" r="25" id="shape"></circle><g textAlign="center" fill="undefined" style="text-anchor: middle; stroke-width: 0;" stroke="rgba(0,0,0,0)" id="halftones"><circle cx="79.83719257720772" cy="68.80521637265024" r="0.8575396193037232"></circle><circle cx="84.38494335202617" cy="45.48556462589028" r="0.9500347340546162"></circle><circle cx="68.33898515315389" cy="81.24502553190825" r="0.5117596069421335"></circle><circle cx="16.057881468791564" cy="70.93131506408017" r="0.4667348318392863"></circle><circle cx="77.3477149538472" cy="75.26508939227719" r="0.8322334444081705"></circle><circle cx="16.392165326781836" cy="64.87372003144903" r="0.46911888739011587"></circle><circle cx="89.63605036915192" cy="58.98383209306836" r="0.7034016909392162"></circle><circle cx="15.972861688232832" cy="61.51697373042675" r="0.5965922631705466"></circle><circle cx="34.077371889971566" cy="85.6089292769328" r="0.5704447453660185"></circle><circle cx="23.663122169390146" cy="19.273367106088592" r="0.5488973541796921"></circle><circle cx="41.097739681537355" cy="14.046377828382951" r="0.6224271365350348"></circle><circle cx="21.207074996812864" cy="26.660586866807257" r="0.4592114965638856"></circle><circle cx="15.155693022525007" cy="39.942851492095954" r="0.5590332355886544"></circle><circle cx="28.688878959861647" cy="21.45048158770879" r="0.6664764587737997"></circle><circle cx="19.45429430892041" cy="74.08412628689801" r="0.41755656218649995"></circle><circle cx="42.39006816565633" cy="7.910408979122991" r="0.42634962608247134"></circle><circle cx="7.4491548054733485" cy="39.27543579443659" r="0.32485685933565994"></circle><circle cx="20.46203318414941" cy="79.44028805747166" r="0.6955049833790723"></circle><circle cx="68.38882965450325" cy="87.23019132292805" r="0.4116853038033536"></circle><circle cx="84.98504225383394" cy="43.499272850689714" r="0.5802487888846023"></circle><circle cx="83.67463474627044" cy="36.73674142181343" r="0.4825105070502126"></circle><circle cx="13.568713536611583" cy="49.89295471174016" r="0.8073479552974472"></circle><circle cx="15.77963457703116" cy="31.684627084047317" r="0.4200429112542571"></circle><circle cx="68.81021065398136" cy="85.93581887927223" r="0.5625142676797198"></circle><circle cx="76.79514463891061" cy="23.6705077163605" r="0.5194212446134113"></circle><circle cx="93.15975464211598" cy="54.52476633897631" r="0.46210706094489873"></circle><circle cx="87.7772235432515" cy="48.55927263541206" r="0.48086954922984054"></circle><circle cx="43.897289933603105" cy="7.8300913932858975" r="0.4519023098479858"></circle><circle cx="35.289801377331855" cy="89.84799932803821" r="0.6891080418284617"></circle><circle cx="40.4624890011864" cy="87.61754750889835" r="0.642373563590651"></circle><circle cx="32.85477736701593" cy="8.972070389275508" r="0.6023672727547542"></circle><circle cx="52.015025945089086" cy="16.034187913743374" r="0.7640289700792328"></circle><circle cx="22.68398665735488" cy="78.67993862726428" r="0.5808240766770716"></circle><circle cx="14.143027840605122" cy="62.93123187310862" r="0.7227902983613538"></circle><circle cx="16.180007123161566" cy="43.712814620214935" r="0.9146511627580421"></circle><circle cx="25.030675912317427" cy="19.695786083501986" r="0.735505941992577"></circle><circle cx="27.82182405757075" cy="76.08343437701237" r="0.8500725023687488"></circle><circle cx="87.49640615482338" cy="59.590521190457345" r="0.41958312222021604"></circle><circle cx="15.83317219410393" cy="56.56490608434136" r="0.5284058886363661"></circle><circle cx="80.5791869859014" cy="66.00387512158233" r="1.0176695249502299"></circle><circle cx="85.55205532808317" cy="28.31155344088323" r="0.3979459855914429"></circle><circle cx="13.331172554979183" cy="37.1058304214265" r="0.576825069471748"></circle><circle cx="18.33124806159239" cy="25.187357390467003" r="0.41968215969021844"></circle><circle cx="81.95665799259814" cy="23.543492323665777" r="0.5564109110157679"></circle><circle cx="93.37574254729843" cy="67.5654645808867" r="0.2894230976964767"></circle><circle cx="32.07465403196538" cy="80.72818142904767" r="0.6799835228138336"></circle><circle cx="16.66226325147003" cy="32.9797507298845" r="0.7175837651017657"></circle><circle cx="88.08224432467364" cy="63.80655124560621" r="0.58709153946668"></circle><circle cx="28.2061328180035" cy="19.14169149635943" r="0.6787277781016308"></circle><circle cx="62.3950675319383" cy="82.79854380282757" r="0.8156449711164525"></circle><circle cx="66.1470736380715" cy="90.89368408121415" r="0.517176814934174"></circle><circle cx="80.71230282576914" cy="74.74640843215786" r="0.48270523757307837"></circle><circle cx="55.12733059406809" cy="5.8998811129684725" r="0.436931786567811"></circle><circle cx="56.333409728290015" cy="14.732239220329937" r="0.6751512088687357"></circle><circle cx="30.612242553296372" cy="82.23675884142114" r="0.6951511992706166"></circle><circle cx="83.28939953525264" cy="71.78018411272474" r="0.48597153812318605"></circle><circle cx="24.672681028496736" cy="74.98952215591757" r="0.6344200523921224"></circle><circle cx="16.389099886430138" cy="57.67266590583223" r="0.6449994302963279"></circle><circle cx="86.96729313555085" cy="54.69747603145925" r="0.5262953201959892"></circle><circle cx="67.11587880166032" cy="12.81580851627755" r="0.57869288622884"></circle><circle cx="82.92982359227355" cy="25.043386043966038" r="0.5885829993179528"></circle><circle cx="70.01592709146684" cy="16.934203433234586" r="0.4744828992397011"></circle><circle cx="82.24937252476566" cy="18.534813859724935" r="0.38471199143019696"></circle><circle cx="85.44895269009274" cy="75.82249518303674" r="0.44961583374136305"></circle><circle cx="91.95974108746877" cy="55.74667779834887" r="0.5340335489325904"></circle><circle cx="19.67885480319304" cy="66.70382078418581" r="0.7012435686559244"></circle><circle cx="28.55361481553343" cy="87.8471163099051" r="0.5494447577585788"></circle><circle cx="77.7076688780708" cy="73.33275166609761" r="0.6441171194195654"></circle><circle cx="56.94215526832415" cy="10.666964660410606" r="0.39243552846983215"></circle><circle cx="29.103973369151202" cy="79.9415453727271" r="0.9096135809981177"></circle><circle cx="24.822150207604697" cy="79.35278948391053" r="0.5517235066109214"></circle><circle cx="22.89002152796496" cy="77.18389990666053" r="0.4541132143517192"></circle><circle cx="18.882673507338648" cy="34.87293982745766" r="0.9657744097300262"></circle><circle cx="27.07977979716392" cy="22.860389587319215" r="0.5759773882380902"></circle><circle cx="65.43818728105401" cy="13.098018373313053" r="0.5727741476313901"></circle><circle cx="46.40849828693779" cy="15.103129729421212" r="0.6348707421810227"></circle><circle cx="7.716810278549033" cy="32.19051265801091" r="0.31247679055513766"></circle><circle cx="63.86229831384924" cy="89.78931541407553" r="0.3794743737929572"></circle><circle cx="53.78238723688109" cy="88.5855119978986" r="0.523393959942641"></circle><circle cx="9.86312549782258" cy="28.034150757731663" r="0.5052363441552056"></circle><circle cx="61.16424296780649" cy="87.74195882205609" r="0.45831281958586856"></circle><circle cx="13.747779411850729" cy="58.6667143173442" r="0.850629153156993"></circle><circle cx="36.95234439635677" cy="18.185248709015838" r="0.7261911297428784"></circle><circle cx="59.9070595076228" cy="9.369001877157132" r="0.4178628733156818"></circle><circle cx="58.162327627086896" cy="86.73375993266399" r="0.5119613306587822"></circle><circle cx="21.68964029336599" cy="70.62972647311256" r="0.8967877282148456"></circle><circle cx="81.39005224847843" cy="34.33512453636051" r="0.7514538932589655"></circle><circle cx="59.51103278278046" cy="11.443588761109929" r="0.5406128791771512"></circle><circle cx="55.79791341192401" cy="13.381901655475836" r="0.7138641885835614"></circle><circle cx="91.85393783412624" cy="33.638153448916796" r="0.5919539693202722"></circle><circle cx="13.395806475805713" cy="34.11824618173861" r="0.46159837333379583"></circle><circle cx="70.40400262441693" cy="77.65237301755803" r="0.8086726149715158"></circle><circle cx="11.373883342238031" cy="56.721489770454006" r="0.4727897204121629"></circle><circle cx="62.50829850736733" cy="91.54377907734076" r="0.3773199850441946"></circle><circle cx="68.58393897488799" cy="12.871726672356324" r="0.46634390311869023"></circle><circle cx="79.01405174578417" cy="77.27972929666039" r="0.5169691376715863"></circle><circle cx="26.644211765390736" cy="25.038522292027643" r="0.9602639592815534"></circle><circle cx="83.70820435270335" cy="65.18410542551939" r="0.8018719921477311"></circle><circle cx="94.32962160336616" cy="57.31977070824125" r="0.5779354928479815"></circle><circle cx="19.473609158337613" cy="70.63170091306152" r="0.6464653489420062"></circle><circle cx="15.781372497093983" cy="51.00363619786543" r="0.6519410797396404"></circle><circle cx="62.9199302156865" cy="10.28607472077654" r="0.5210957922272502"></circle><circle cx="62.50109698403111" cy="88.42647049490697" r="0.4020933965937269"></circle><circle cx="14.02152184419785" cy="73.71727989370216" r="0.5806814076299054"></circle><circle cx="55.53409105280416" cy="7.773040997618729" r="0.5418551725073542"></circle><circle cx="14.488511450215483" cy="56.57690666364181" r="0.595145748107175"></circle><circle cx="30.977517063327575" cy="20.674708959002118" r="0.8367801129608585"></circle><circle cx="22.30617614775362" cy="75.35603287937629" r="0.4866969627660294"></circle><circle cx="93.80034425861983" cy="42.528149603269405" r="0.4761641830783337"></circle><circle cx="93.80757167207722" cy="51.31555576377399" r="0.4748685989269961"></circle><circle cx="39.53367261940244" cy="17.347200142725534" r="1.0402967655042985"></circle><circle cx="83.3377555934345" cy="60.644016706337254" r="0.6794506924896244"></circle><circle cx="17.061259426931144" cy="41.11467425399144" r="0.7762472948046103"></circle><circle cx="80.00285557864281" cy="32.214077006303114" r="0.6633937936275377"></circle><circle cx="83.1568919693553" cy="79.52547227285683" r="0.39154750125753246"></circle><circle cx="26.06141892342793" cy="77.83677731121905" r="0.5333630589609478"></circle><circle cx="77.02734716843104" cy="26.21337141936019" r="0.5204810821216332"></circle><circle cx="87.49471045472882" cy="45.7999407263969" r="0.8442647962113065"></circle><circle cx="46.086921915261385" cy="91.83880236215029" r="0.6114111141210823"></circle><circle cx="40.68397045224394" cy="11.634456101497761" r="0.4361336895336068"></circle><circle cx="84.031498045077" cy="30.8306224488417" r="0.6195917889327236"></circle><circle cx="10.23179089347716" cy="49.908763195724184" r="0.41730798136428543"></circle><circle cx="71.58474073040716" cy="18.38439864279439" r="0.47214309689291956"></circle><circle cx="70.01760886192679" cy="20.936824664816303" r="0.7537949154410116"></circle><circle cx="89.30815771469615" cy="69.28221382095707" r="0.44289943858389785"></circle><circle cx="8.411699050712592" cy="42.646025113408456" r="0.5217714417663156"></circle><circle cx="15.887607047742307" cy="52.89681556468071" r="0.5628398354138314"></circle><circle cx="50.33541330934891" cy="86.33520047965449" r="0.8239898691029188"></circle><circle cx="88.80244750474112" cy="41.37919294278366" r="0.5026764643998137"></circle><circle cx="36.53587858461946" cy="83.75833582127281" r="0.5590132870721626"></circle><circle cx="87.1768529143337" cy="43.75436515336968" r="0.5284904775194893"></circle><circle cx="58.241391878839735" cy="13.208323055080307" r="0.4554573449574983"></circle><circle cx="15.299382158790088" cy="34.867580499881385" r="0.7345451251961088"></circle><circle cx="71.69263859953448" cy="21.569855916452777" r="0.5312924003451536"></circle><circle cx="35.08258823335031" cy="18.987952808612103" r="0.777210804958911"></circle><circle cx="79.2978027366193" cy="30.675997881209486" r="0.5352387810940985"></circle><circle cx="45.80066578951841" cy="8.884936632711614" r="0.555316253375994"></circle><circle cx="54.81037923621815" cy="16.221986117010488" r="0.5709741935671626"></circle><circle cx="18.50505497190225" cy="63.81331265952406" r="0.6530509594110417"></circle><circle cx="69.91259425806427" cy="82.83809302273346" r="0.5826133148997992"></circle><circle cx="3.3874753737122845" cy="51.711189114177465" r="0.34732325162013394"></circle><circle cx="56.49201863281035" cy="92.35674545437908" r="0.35803594619987833"></circle><circle cx="14.304352016504389" cy="47.35018862381132" r="0.4950581622551674"></circle><circle cx="52.377672244066844" cy="85.89622668174692" r="0.5112178468642032"></circle><circle cx="90.75804906789148" cy="49.54247486551154" r="0.5313598941775841"></circle><circle cx="52.995868356101475" cy="14.275778785451514" r="0.5420610346589074"></circle><circle cx="58.51216467278649" cy="3.502939715211852" r="0.28709330628771795"></circle><circle cx="32.458781983871745" cy="13.215707052712006" r="0.6696652279944566"></circle><circle cx="26.62379256797636" cy="18.884141233206332" r="0.43316358883560524"></circle><circle cx="21.425906007332568" cy="25.027638207411858" r="0.529711577460766"></circle><circle cx="20.870052202734122" cy="74.07687733980364" r="0.508288609636962"></circle><circle cx="79.85959373186178" cy="15.576022701535045" r="0.39164285554011335"></circle><circle cx="22.652631482734986" cy="25.99943402595699" r="0.6027328210769244"></circle><circle cx="10.021427871629214" cy="55.106352048335395" r="0.6731612875381401"></circle><circle cx="43.71713581041943" cy="84.69847952212409" r="0.7829114123025052"></circle><circle cx="61.330777323055216" cy="84.56213019423535" r="0.6324312061874008"></circle><circle cx="17.08860237824652" cy="59.049974520830716" r="0.5504936183530184"></circle><circle cx="19.172004610778917" cy="32.51765098449944" r="0.8354860640832814"></circle><circle cx="51.077068889826286" cy="7.49881294834033" r="0.39779332110682897"></circle><circle cx="84.71579009823222" cy="33.687207346963476" r="0.6439458351532943"></circle><circle cx="48.820792575102494" cy="84.60451211642112" r="0.9243907393791299"></circle><circle cx="10.385738433328378" cy="42.892074960446635" r="0.44697322225850583"></circle><circle cx="80.23658700389643" cy="20.483044166371627" r="0.5358317263113976"></circle><circle cx="16.707341295224865" cy="25.483616050904132" r="0.4932168414997574"></circle><circle cx="59.534915169468405" cy="17.0825327722578" r="0.562286076462178"></circle><circle cx="67.98707302048385" cy="14.202050062429471" r="0.49783983526058395"></circle><circle cx="63.695316508873276" cy="18.427015941325482" r="0.9814393621103278"></circle><circle cx="74.61549517855089" cy="23.346380991129998" r="0.7042166957387678"></circle><circle cx="68.31012808991233" cy="20.16819270028644" r="1.0174161858123503"></circle><circle cx="8.384617639695932" cy="37.39063166803185" r="0.4019659410725916"></circle><circle cx="77.67653442322487" cy="28.89832182588758" r="0.6188244670926918"></circle><circle cx="61.588729395858365" cy="17.298621300731313" r="0.7328743784336434"></circle><circle cx="20.52092261168282" cy="76.03981318362077" r="0.5216450485272002"></circle><circle cx="57.68768826223874" cy="85.4640170901566" r="0.4975420670630365"></circle><circle cx="44.68370237854126" cy="9.476960102770775" r="0.4556837103936955"></circle><circle cx="83.13437736773687" cy="62.656232520031125" r="0.9679055248158612"></circle><circle cx="19.06944960431141" cy="81.76022429862097" r="0.37372280959317183"></circle><circle cx="42.63712088615347" cy="14.0022002985339" r="0.5116154877652744"></circle><circle cx="61.25111258353759" cy="12.252817217646246" r="0.4803584598705577"></circle><circle cx="84.94395605840202" cy="22.804919559747436" r="0.49744060464489565"></circle><circle cx="24.29400700139989" cy="25.55754655934883" r="0.5842759737981285"></circle><circle cx="48.58518314762533" cy="3.1984487252677667" r="0.3367834220261468"></circle><circle cx="86.06567440582296" cy="58.087628291195266" r="0.5203995676132319"></circle><circle cx="72.5571043111215" cy="80.92857838250401" r="0.4816911625869771"></circle><circle cx="88.48508485002009" cy="52.01051825232843" r="0.4346353928901142"></circle><circle cx="12.85558919562203" cy="53.357515849578675" r="0.45204168082479174"></circle><circle cx="65.7851825544032" cy="86.96650272305425" r="0.4546934615888358"></circle><circle cx="49.03528201563299" cy="91.03789873307858" r="0.39248036238996653"></circle><circle cx="23.745119267091205" cy="83.90813375453632" r="0.3695572202462531"></circle><circle cx="65.06333180448976" cy="10.81874051314243" r="0.5238021520927468"></circle><circle cx="35.333907773928544" cy="16.627066619049906" r="0.8305677122383611"></circle><circle cx="14.95646888211919" cy="80.63592941770847" r="0.5730200408469859"></circle><circle cx="72.6338335641741" cy="75.54961382815881" r="0.7479930692778421"></circle><circle cx="89.57697853736455" cy="34.44177017521829" r="0.5283800541217131"></circle><circle cx="42.621589354558985" cy="10.819423809776843" r="0.7513604574556737"></circle><circle cx="72.88709367967917" cy="18.510057486924502" r="0.5315874359416256"></circle><circle cx="20.03098942974181" cy="30.478502995312795" r="0.9035327370311205"></circle><circle cx="43.47158722924389" cy="16.407446523347375" r="0.6497212997585652"></circle><circle cx="88.43005107398228" cy="38.406383252813164" r="0.6536927113995791"></circle><circle cx="32.920833523433046" cy="85.64427604754944" r="0.5445711813398619"></circle><circle cx="16.04235634268594" cy="76.05494191571563" r="0.6297522587195887"></circle><circle cx="13.487916557702583" cy="66.83849896618537" r="0.47990907943138156"></circle><circle cx="59.08687959963196" cy="96.04062694008815" r="0.4085685462885228"></circle><circle cx="48.473219304962136" cy="88.04455067186072" r="0.4480721755107608"></circle><circle cx="11.537242768282645" cy="42.722443057522234" r="0.4130604859667323"></circle><circle cx="47.95163594705938" cy="9.043595770738754" r="0.6407240002776871"></circle><circle cx="91.1068450325989" cy="46.2789779303191" r="0.49883248533312424"></circle><circle cx="87.82403592506661" cy="70.99847356466678" r="0.48494019914782055"></circle><circle cx="50.869009374194455" cy="88.23661520471737" r="0.7122520445462056"></circle><circle cx="78.01906557592133" cy="69.3343929871657" r="0.7138759470061928"></circle><circle cx="86.88193287528867" cy="38.391835550577454" r="0.49847374978367215"></circle><circle cx="14.369496314553047" cy="71.54196711104343" r="0.5391670603710288"></circle><circle cx="72.52257277344697" cy="23.049802136845788" r="0.7065065375045092"></circle><circle cx="15.855299860009602" cy="54.87473996873176" r="0.6696245423430033"></circle><circle cx="29.998874675288572" cy="17.97142970784018" r="0.5509553780764033"></circle><circle cx="12.47947416959132" cy="72.63284442729403" r="0.4818630599871734"></circle><circle cx="57.50816234744873" cy="88.16446978911927" r="0.6555168546510463"></circle><circle cx="87.25316416604984" cy="52.096848118045635" r="0.7256980334032607"></circle><circle cx="58.16908973156768" cy="14.514997706197661" r="0.5211059674753746"></circle><circle cx="81.52397905475533" cy="16.293632454350856" r="0.5232614004072796"></circle><circle cx="63.13048410301291" cy="86.2473201655967" r="0.43421104177925623"></circle><circle cx="84.27902786788624" cy="19.142101552473" r="0.4232239187229502"></circle><circle cx="23.045945095763045" cy="24.113327998058015" r="0.5045756617129384"></circle><circle cx="65.92543185018745" cy="17.17532858387763" r="0.7221678841051216"></circle><circle cx="83.6319687986963" cy="29.553491629917602" r="0.6916987948239232"></circle><circle cx="12.100907330348882" cy="47.91393790130864" r="0.4493952524874528"></circle><circle cx="75.63530373021854" cy="20.284983299053433" r="0.44273937519708134"></circle><circle cx="19.253866306610384" cy="65.1272454347458" r="0.8374870522598232"></circle><circle cx="77.10692541010593" cy="78.53801339450871" r="0.46311173121651067"></circle><circle cx="80.34821783214568" cy="25.310314098600834" r="0.7655588162639275"></circle><circle cx="67.44941952201802" cy="86.46410421373548" r="0.5627171396645307"></circle><circle cx="89.35889988522078" cy="47.963682495943836" r="0.7444544897573245"></circle><circle cx="55.63346320881269" cy="86.36252331582835" r="0.8603808337588612"></circle><circle cx="46.94522149613751" cy="84.95522387675058" r="0.8028187453103189"></circle><circle cx="78.68756167294885" cy="22.03443216965485" r="0.588306104586795"></circle><circle cx="39.13087094457045" cy="83.92660203385537" r="0.7815594030647709"></circle><circle cx="89.94715226029714" cy="22.067131711209452" r="0.4673373976462094"></circle><circle cx="38.3852508899779" cy="11.9407976713441" r="0.4018633282645999"></circle><circle cx="79.67158738543924" cy="72.4744857356988" r="0.4568682912027326"></circle><circle cx="87.94030557665309" cy="73.9314749015334" r="0.4627721014242367"></circle><circle cx="11.82678778118985" cy="30.34808430475711" r="0.34628268633316056"></circle><circle cx="66.38447517807808" cy="81.66590543945642" r="0.7404475189395082"></circle><circle cx="74.56839941447981" cy="10.030996135323235" r="0.31263523454456077"></circle><circle cx="18.929217540556696" cy="27.765088551477586" r="0.44808582398138413"></circle><circle cx="21.49761894198269" cy="28.564341933545727" r="0.5798039093648703"></circle><circle cx="49.82804575645929" cy="15.773302322696537" r="0.730476719162423"></circle><circle cx="90.33987311043998" cy="62.2081324573072" r="0.6642982561576658"></circle><circle cx="10.970624851031609" cy="40.323688184270715" r="0.4417448448803919"></circle><circle cx="54.221017679482344" cy="12.740534618074363" r="0.7950681516409758"></circle><circle cx="72.3887107194862" cy="87.01370104174643" r="0.3815818670611409"></circle><circle cx="84.0749020257264" cy="27.805416012332042" r="0.43119907097296095"></circle><circle cx="82.56897188949688" cy="37.45013848074579" r="0.7064554482139527"></circle><circle cx="59.4647475004749" cy="87.13829479131108" r="0.5936816518253692"></circle><circle cx="56.083839225247324" cy="9.150006236167968" r="0.4300189449775066"></circle><circle cx="94.82126370027433" cy="48.05044541449871" r="0.33414457520410346"></circle><circle cx="92.05239189897785" cy="48.31780395436797" r="0.5145633530522278"></circle><circle cx="10.385169005967427" cy="59.48646502097167" r="0.5168157873119298"></circle><circle cx="11.173195765338825" cy="50.96535407199279" r="0.8174335137547886"></circle><circle cx="64.0732145452071" cy="9.00512590245949" r="0.40410673711888945"></circle><circle cx="83.84136862286991" cy="41.25237379888175" r="0.847500742514941"></circle><circle cx="41.872873267666435" cy="4.095909986990897" r="0.32231379235040103"></circle><circle cx="95.16996534523577" cy="55.95343159700851" r="0.5059679792489635"></circle><circle cx="8.99360476041025" cy="39.77354441458505" r="0.5380717656176474"></circle><circle cx="17.595035610209685" cy="38.81235222611707" r="0.8367917557583172"></circle><circle cx="64.2443470002987" cy="82.19441595964159" r="0.6584657361415794"></circle><circle cx="83.99093097269873" cy="47.69477660279375" r="0.5607903963384675"></circle><circle cx="89.60436525562002" cy="57.39650742964037" r="0.4992514853364824"></circle><circle cx="52.12582842910007" cy="97.90151531221923" r="0.4766085693403367"></circle><circle cx="71.36355131024447" cy="80.28186799086355" r="0.8765405967670836"></circle><circle cx="46.05464974791766" cy="87.01302079209151" r="0.5507090033538962"></circle><circle cx="64.69526646472153" cy="83.61566857074124" r="0.7750577197400945"></circle><circle cx="52.07670191201883" cy="7.589906520420179" r="0.6740514608803687"></circle><circle cx="84.01618395611368" cy="35.345622047752" r="0.5742166928953495"></circle><circle cx="75.07991927025681" cy="26.771018347071074" r="0.5618213549432814"></circle><circle cx="39.369734399752204" cy="82.30949715687473" r="0.6348431667141771"></circle><circle cx="75.49578941360558" cy="21.67630564005377" r="0.7296981417729375"></circle><circle cx="13.643509290072934" cy="64.66495736318825" r="0.5006669716584843"></circle><circle cx="40.048106876190715" cy="93.95138022299744" r="0.6078097862333078"></circle><circle cx="50.12666542598964" cy="13.099653818333202" r="0.7454337479697916"></circle><circle cx="19.476379359434016" cy="68.13102918579756" r="0.6738483723251679"></circle><circle cx="57.793628100263575" cy="83.7225880264933" r="0.7239530183558722"></circle><circle cx="87.8607872009861" cy="66.88055038413694" r="0.5960060935668703"></circle><circle cx="10.901263512241826" cy="37.1791146292016" r="0.3910727333458292"></circle><circle cx="85.95077991932081" cy="22.919436755406394" r="0.5821419346381544"></circle><circle cx="17.692605096423556" cy="14.639634398145006" r="0.3012602443988007"></circle><circle cx="27.48711305386787" cy="84.18514346154448" r="0.4783202434570921"></circle><circle cx="67.61286188388937" cy="11.33733528330876" r="0.3832217551928664"></circle><circle cx="86.29342008481046" cy="48.885267718197134" r="0.7224832670752127"></circle><circle cx="49.49254859049965" cy="10.559393501375624" r="0.5531272255359694"></circle><circle cx="87.2561351606171" cy="62.14023260094903" r="0.5038775939815308"></circle><circle cx="86.03034587472763" cy="61.39733668673729" r="0.6757186459556279"></circle><circle cx="86.10274401916908" cy="64.26875994673742" r="0.42322485626204737"></circle><circle cx="42.04036175456545" cy="83.07190464440424" r="0.7060026451085847"></circle><circle cx="88.12743613740506" cy="40.04843159000739" r="0.4032338914411117"></circle><circle cx="80.82120198444407" cy="83.09656839191481" r="0.32956408869041237"></circle><circle cx="63.79551225304446" cy="14.677349465887396" r="0.7496643426906863"></circle><circle cx="72.10099962113122" cy="19.631382268073384" r="0.5729494144249316"></circle><circle cx="32.81393958957927" cy="82.79937075122902" r="0.627664993381978"></circle><circle cx="53.52774945396581" cy="6.4928641252131385" r="0.571829388660482"></circle><circle cx="7.848302152857009" cy="33.10123671169053" r="0.46172492399481635"></circle><circle cx="14.110647735896833" cy="27.784127710496307" r="0.6627770978578323"></circle><circle cx="22.782111486074207" cy="29.573909429576236" r="0.8585344700656085"></circle><circle cx="37.37676372212577" cy="89.2028269411439" r="0.5967054440299479"></circle><circle cx="51.71877790596204" cy="12.84957082359351" r="0.8113561210313511"></circle><circle cx="27.852938491540055" cy="7.755931539020324" r="0.41874977943978503"></circle><circle cx="35.433016058544666" cy="14.963118446696193" r="0.684709140124685"></circle><circle cx="67.42598373181993" cy="17.447393661004185" r="0.7007313420589333"></circle><circle cx="80.49969977286952" cy="22.365670383845753" r="0.40981477880840605"></circle><circle cx="10.439299263131531" cy="62.071135017127425" r="0.6636098862763917"></circle><circle cx="88.0009652277331" cy="36.48382257066752" r="0.589629431223899"></circle><circle cx="87.22660566143043" cy="41.32515306723669" r="0.8332521719651353"></circle><circle cx="63.241816729111605" cy="7.718598244804973" r="0.4062419838613421"></circle><circle cx="36.618481884597244" cy="85.48459096889252" r="0.6828950587839008"></circle><circle cx="37.510770052666956" cy="82.48629972539922" r="0.5549476629344159"></circle><circle cx="70.04285421923967" cy="7.998779278538258" r="0.3294572631995319"></circle><circle cx="9.307709913626397" cy="51.00807716047644" r="0.3780453193913974"></circle><circle cx="17.241807718296535" cy="28.68114971488043" r="0.5762924648299192"></circle><circle cx="70.14630065953158" cy="87.31125483028018" r="0.6828554791584815"></circle><circle cx="76.10204435883466" cy="17.096058799332233" r="0.5593327423714626"></circle><circle cx="49.66198330368616" cy="94.51260500197955" r="0.5199079114896598"></circle><circle cx="72.01286254119474" cy="16.147912119601116" r="0.7253752971657765"></circle><circle cx="17.484666383560544" cy="66.40726335013659" r="0.5609688106471424"></circle><circle cx="32.420893085098896" cy="14.9938795733244" r="0.41430498082470935"></circle><circle cx="12.773043222524173" cy="38.99229674669293" r="0.6769511777863452"></circle><circle cx="84.09802066367496" cy="52.40571630157741" r="0.7941189696630302"></circle><circle cx="77.37180990764358" cy="70.78921372902452" r="0.7711754482137826"></circle><circle cx="78.68814359784605" cy="24.267376152694215" r="0.7003789438920512"></circle><circle cx="4.796430253843859" cy="47.75547814198064" r="0.3494976737938632"></circle><circle cx="14.606526461066714" cy="38.283157292003345" r="0.7979934515650798"></circle><circle cx="39.230656332381535" cy="8.729448536100811" r="0.6676867450629959"></circle><circle cx="33.55349865793211" cy="11.779107382517978" r="0.6230258749366935"></circle><circle cx="84.99397624715579" cy="59.768200021028505" r="0.5013573763237894"></circle><circle cx="67.02699654989193" cy="85.02301466285176" r="0.6383845003504811"></circle><circle cx="90.98037582528976" cy="53.00195371031081" r="0.5091904206838224"></circle><circle cx="25.43848682226818" cy="73.66005399175225" r="0.6561275900031545"></circle><circle cx="11.943334960113496" cy="58.37005468493773" r="0.7071841613841481"></circle><circle cx="39.08627195914035" cy="85.7921669268406" r="0.6111994918315246"></circle><circle cx="15.74553827661363" cy="63.702376723103896" r="0.563929321765418"></circle><circle cx="24.639364204141284" cy="24.221966986382057" r="0.628645275570364"></circle><circle cx="15.952472219766278" cy="67.32579702914413" r="0.841710223630527"></circle><circle cx="43.6936089506081" cy="88.04218945024016" r="0.7554700324265533"></circle><circle cx="49.77449953472502" cy="6.013027402228133" r="0.5652147028048956"></circle><circle cx="6.475462277352783" cy="41.57367309285287" r="0.5252799204684436"></circle><circle cx="51.485328547289534" cy="92.01292202441695" r="0.37568602628683434"></circle><circle cx="73.98959703449529" cy="12.660180849108798" r="0.3247268875251141"></circle><circle cx="25.776329133065747" cy="82.7877706746741" r="0.4759766274188513"></circle><circle cx="90.0085834591354" cy="54.73326111137074" r="0.7208862664861158"></circle><circle cx="15.542272510511182" cy="47.12361965469739" r="0.8746785109690862"></circle><circle cx="24.140123656019146" cy="22.794847085255117" r="0.45428277993849503"></circle><circle cx="44.35303854230476" cy="11.230417469280354" r="0.6067513952190936"></circle><circle cx="75.06280724644154" cy="82.12293571439209" r="0.5069347915962408"></circle><circle cx="58.57763474849698" cy="15.646180978242832" r="0.7199055541067125"></circle><circle cx="91.91181583844048" cy="57.74720445861884" r="0.34410734917213487"></circle><circle cx="29.141078484159777" cy="15.362953646165117" r="0.5448474310346706"></circle><circle cx="13.692233193514276" cy="44.239509488159875" r="0.8110888020188588"></circle><circle cx="83.00202174622314" cy="33.756672412806836" r="0.6572874987917233"></circle><circle cx="86.24104325379194" cy="31.13310468906478" r="0.6765210067557722"></circle><circle cx="92.02463062402695" cy="37.94675058371039" r="0.5935367612482452"></circle><circle cx="69.5137996240476" cy="90.6773901337832" r="0.6102321903432778"></circle><circle cx="28.75683102462502" cy="89.51501597662887" r="0.49628160383150155"></circle><circle cx="27.95542573286645" cy="12.586165951884382" r="0.5243963516705612"></circle><circle cx="84.32041725548481" cy="49.05043176755126" r="0.8375809724944997"></circle><circle cx="48.04394984396048" cy="11.583382468641183" r="0.5317341849133574"></circle><circle cx="83.7792714045157" cy="55.836466305093154" r="0.5814890688746389"></circle><circle cx="68.02987215724667" cy="91.91632980708627" r="0.4742143069566881"></circle><circle cx="21.172353156918152" cy="21.641741646165286" r="0.7387897114277638"></circle><circle cx="60.06443289527783" cy="88.75335255508442" r="0.5150396671205926"></circle><circle cx="46.283518356014895" cy="88.27452582309226" r="0.6047929896020505"></circle><circle cx="94.27046896103789" cy="41.12094861157585" r="0.6077663047011944"></circle><circle cx="82.15718103363278" cy="69.48514698861621" r="0.6062566895855547"></circle><circle cx="31.52344043894298" cy="18.494187511613717" r="0.7435200130326847"></circle><circle cx="15.7833809404502" cy="49.53524233529952" r="0.5636710769640367"></circle><circle cx="81.67480534115154" cy="70.93843099616274" r="0.5173584870874861"></circle><circle cx="51.461804513851774" cy="9.387147883235755" r="0.4159026320619323"></circle><circle cx="17.63905818828927" cy="24.112607548380147" r="0.585322974381423"></circle><circle cx="35.243873075247194" cy="9.330075246640078" r="0.3809983750746204"></circle><circle cx="86.42801925529949" cy="70.24175084126784" r="0.4806944072279945"></circle><circle cx="12.635543103130175" cy="41.12432640182322" r="0.47617877488166876"></circle><circle cx="13.844762004712464" cy="53.67336874430365" r="0.5096034756663637"></circle><circle cx="68.43636178474546" cy="79.88373442748475" r="0.7852853423633405"></circle><circle cx="72.29759782017884" cy="85.37829079169279" r="0.5684980712012352"></circle><circle cx="73.6288581768358" cy="24.99204130063697" r="1.0474509739401952"></circle><circle cx="7.51739814876305" cy="63.781488308237996" r="0.5825334380899391"></circle><circle cx="90.50888531629542" cy="36.495945054976524" r="0.47359725371217637"></circle><circle cx="88.16990503927366" cy="54.11295103443694" r="0.548533147311256"></circle><circle cx="60.54335227160561" cy="83.26549539112743" r="0.6382575714484596"></circle><circle cx="85.15871562394793" cy="55.718396481677544" r="0.9577495663959367"></circle><circle cx="79.99304952017367" cy="84.06745309054159" r="0.5802362234336772"></circle><circle cx="76.30438265547522" cy="79.6255061164866" r="0.6901928807064877"></circle><circle cx="79.23033972990096" cy="28.343782867322034" r="0.5440287421980227"></circle><circle cx="74.72272607560257" cy="75.07814378936175" r="0.5838841276297347"></circle><circle cx="75.2777857031534" cy="13.40508904783389" r="0.32698636903721146"></circle><circle cx="73.81363747858886" cy="79.38926873024818" r="0.4930999283387609"></circle><circle cx="41.82793841757403" cy="88.32390311422877" r="0.4414692472184291"></circle><circle cx="13.094519852746096" cy="42.07786184654353" r="0.6457867962412056"></circle><circle cx="29.90873891649019" cy="13.095628867303788" r="0.48687427257357674"></circle><circle cx="25.638573372202345" cy="84.35650400402275" r="0.4127051832436877"></circle><circle cx="83.60612439664578" cy="81.2279343720322" r="0.3104148642667738"></circle><circle cx="47.141274640051584" cy="6.948155611414215" r="0.34088016206684135"></circle><circle cx="34.92008611911551" cy="6.707016890381269" r="0.5433344787487495"></circle><circle cx="54.40383122951753" cy="83.88182948383145" r="0.6461655495726693"></circle><circle cx="12.780252895123212" cy="28.552191108170216" r="0.4115149402191352"></circle><circle cx="81.7237416123454" cy="31.70774442277686" r="0.6011683822201496"></circle><circle cx="79.1006560447252" cy="74.20127422674558" r="0.5576219475837526"></circle><circle cx="53.55187646169995" cy="4.354594337793131" r="0.4859508058859268"></circle><circle cx="83.63217171166139" cy="18.092758626476517" r="0.3455360445954326"></circle><circle cx="82.04209564037046" cy="75.48417027435374" r="0.5130131218605046"></circle><circle cx="74.258490931858" cy="78.27130369178462" r="0.5426029130554292"></circle><circle cx="27.613620961529595" cy="15.636862661008642" r="0.5246129319913904"></circle><circle cx="85.28074037378506" cy="67.17642170268792" r="0.5484364835465597"></circle><circle cx="19.50312782929911" cy="26.030809932464994" r="0.4411327696193487"></circle><circle cx="52.66186373777598" cy="84.75637655607437" r="0.6023712073636202"></circle><circle cx="29.734625307866825" cy="86.68577438533194" r="0.38324287337114504"></circle><circle cx="14.510025642644862" cy="54.7009947056951" r="0.5505272032082498"></circle><circle cx="65.44638767080706" cy="14.788280381434951" r="0.7236887310085037"></circle><circle cx="91.91992396213138" cy="59.47692319168259" r="0.5625529149683816"></circle><circle cx="10.135658480626475" cy="65.38591753520016" r="0.6381215914222014"></circle><circle cx="13.227762892670604" cy="70.63411045857453" r="0.5073835335749867"></circle><circle cx="59.226665852100666" cy="3.3509305710197665" r="0.5069075689767177"></circle><circle cx="26.930159319412187" cy="79.23892991635688" r="0.4798793656449311"></circle><circle cx="80.02611532911945" cy="27.09685262394629" r="0.7545636561966658"></circle><circle cx="50.991068898874055" cy="84.01334185953476" r="0.9186124803662724"></circle><circle cx="61.88366862025392" cy="90.60417242483771" r="0.40970790572840254"></circle><circle cx="60.43784160623214" cy="7.575421672340369" r="0.38864214167673955"></circle><circle cx="49.40618382637208" cy="88.32765657485875" r="0.7007922548297244"></circle><circle cx="12.250311995564346" cy="62.956265735204255" r="0.6298687467818649"></circle><circle cx="7.273735146867892" cy="48.034134210279774" r="0.3839708332426947"></circle><circle cx="14.64037090404419" cy="31.8511042413264" r="0.40617578295829815"></circle><circle cx="91.44578627382919" cy="63.880219978842234" r="0.6107229529734453"></circle><circle cx="8.68795456258438" cy="52.846023532838885" r="0.3681495806677159"></circle><circle cx="77.31283130639203" cy="81.21900729468356" r="0.4107098567103673"></circle><circle cx="87.84327809581166" cy="31.369741969663636" r="0.40300980887279136"></circle><circle cx="55.427019882879335" cy="10.562317100396662" r="0.4930150050246073"></circle><circle cx="89.99098791007378" cy="44.338546600433155" r="0.3966039571640049"></circle><circle cx="9.34779783634535" cy="71.79354983927976" r="0.3389234095431271"></circle><circle cx="65.71026120593892" cy="19.23547312973909" r="0.6528118394914619"></circle><circle cx="5.909215265056687" cy="38.35508960834632" r="0.3251962043453626"></circle><circle cx="83.00763267535967" cy="80.37823268490644" r="0.5302386239890202"></circle><circle cx="70.54422377546749" cy="18.574946032111214" r="0.46261979871753367"></circle><circle cx="9.171873117427516" cy="47.63709311358344" r="0.6454457009313781"></circle><circle cx="77.47878856215233" cy="21.834754137270316" r="0.5184973912223617"></circle><circle cx="15.955011808233692" cy="27.99861947340959" r="0.6124664911571507"></circle><circle cx="32.99397953486226" cy="16.052007416426925" r="0.5809743129632038"></circle><circle cx="87.11666405992091" cy="26.87620083997945" r="0.36379542476670024"></circle><circle cx="86.80220679735683" cy="78.5972465037184" r="0.4453538062947966"></circle><circle cx="94.91172489660636" cy="67.78490203443188" r="0.2809239271918732"></circle><circle cx="9.266605195847191" cy="57.84030700932121" r="0.4167499514902735"></circle><circle cx="79.91239945571945" cy="76.03924678293754" r="0.4722858719353682"></circle><circle cx="21.000499138823916" cy="84.7015998147076" r="0.3599179017906658"></circle><circle cx="74.00643505736811" cy="21.875444401988563" r="0.5553676554600829"></circle><circle cx="42.03842344299902" cy="89.20842630700656" r="0.6470063359767598"></circle><circle cx="91.06885920763112" cy="40.41130144336579" r="0.5580448679208166"></circle><circle cx="16.774481956753732" cy="31.179355354591433" r="0.4367659900242449"></circle><circle cx="4.921750198837593" cy="65.06203263255729" r="0.4295713737263913"></circle><circle cx="83.37691557304063" cy="59.10092663326925" r="0.578138463887889"></circle><circle cx="8.681941782268595" cy="27.967510365587472" r="0.475281155530046"></circle><circle cx="91.87898849679159" cy="32.3722271945491" r="0.3448537272142542"></circle><circle cx="9.15599664686546" cy="33.94876502638283" r="0.4058445053415591"></circle><circle cx="6.050578275883012" cy="51.08213247757842" r="0.4776528365376312"></circle><circle cx="11.841821104636459" cy="36.98691316388551" r="0.7345362864842668"></circle><circle cx="23.486149802526846" cy="82.07671637672709" r="0.6241791688420105"></circle><circle cx="24.620087325316344" cy="27.346955377367678" r="0.9797572243375092"></circle><circle cx="62.84566187209856" cy="84.63695676306074" r="0.6159604104846517"></circle><circle cx="74.20355853911602" cy="14.733504280407047" r="0.3824987725838928"></circle><circle cx="17.71725782393885" cy="61.76626106496522" r="0.6016956051981422"></circle><circle cx="85.58469759716444" cy="63.2210706566163" r="0.5812435608758779"></circle><circle cx="8.380687324791168" cy="52.00288788010286" r="0.5732685815855173"></circle><circle cx="31.728371769871142" cy="16.103787349546764" r="0.8307048171081358"></circle><circle cx="18.774045789292472" cy="21.967617017651467" r="0.45148108141822674"></circle><circle cx="68.14789573520224" cy="88.33245599848341" r="0.4965543076657388"></circle><circle cx="38.72171173625683" cy="15.066448066034468" r="0.7280465153687525"></circle><circle cx="50.909736471468264" cy="94.75109093973356" r="0.3149282658828937"></circle><circle cx="89.9127637412146" cy="38.007582444850556" r="0.5736854293589895"></circle><circle cx="8.916949316437133" cy="32.237154424034365" r="0.4620338363143518"></circle><circle cx="77.64733704091655" cy="17.597753258103495" r="0.49543347116396036"></circle><circle cx="64.81945290955039" cy="87.26067968149309" r="0.4345509899104547"></circle><circle cx="29.92407958070299" cy="77.59905175538347" r="0.5986845810438252"></circle><circle cx="20.114262378466545" cy="18.325145088597047" r="0.5913627982717862"></circle><circle cx="56.2891992790734" cy="93.40309990604108" r="0.590190010010765"></circle><circle cx="80.34315513968858" cy="80.46799714196436" r="0.3910532352808975"></circle><circle cx="23.078559835616673" cy="22.193939196605083" r="0.5048382752439082"></circle><circle cx="30.757551043944733" cy="87.5509305871827" r="0.36917672839808663"></circle><circle cx="72.05110152500737" cy="88.96369119710866" r="0.4746165863638393"></circle><circle cx="17.37900643582148" cy="20.930873104661938" r="0.4758960777727324"></circle><circle cx="75.08803398203689" cy="88.81965902014267" r="0.4427572147165439"></circle><circle cx="35.8033819484784" cy="8.359118393697848" r="0.34945521181995853"></circle><circle cx="94.73575704003763" cy="54.571858457066014" r="0.38328319831461205"></circle><circle cx="19.174379461082864" cy="72.1405061335968" r="0.541267078557798"></circle><circle cx="84.90580819273688" cy="38.870879902185536" r="0.8425811387343995"></circle><circle cx="42.28227541190951" cy="93.1435405314724" r="0.4928670276578052"></circle><circle cx="74.09654074629422" cy="19.19522122142567" r="0.4812432863470738"></circle><circle cx="84.1378214839889" cy="67.50332117707606" r="0.5737124752593263"></circle><circle cx="5.018779381803107" cy="50.9428503111743" r="0.4020146850142815"></circle><circle cx="10.786811944156419" cy="68.12389283910272" r="0.3467827789322788"></circle><circle cx="5.250781798745074" cy="49.23988170334868" r="0.4162711450710044"></circle><circle cx="75.77895500744407" cy="72.5182167999925" r="0.8360834042329901"></circle><circle cx="26.717544002633062" cy="17.792153518012256" r="0.6366345026536423"></circle><circle cx="88.33395757505244" cy="57.29348426488644" r="0.4239061560571153"></circle><circle cx="23.786570802367518" cy="85.34449206158354" r="0.36090333778658845"></circle><circle cx="84.10810835419183" cy="73.83087249472028" r="0.5031609791133772"></circle><circle cx="41.96367633918487" cy="15.625823418967961" r="0.6163935589420413"></circle><circle cx="11.21252475582785" cy="26.98255458498223" r="0.4244615955796481"></circle><circle cx="19.225537324405778" cy="77.95045245844838" r="0.47254953577593994"></circle><circle cx="51.25900242262126" cy="96.00785891824333" r="0.3150353989671523"></circle><circle cx="10.451437764587851" cy="31.87154131692474" r="0.6446354868154058"></circle><circle cx="27.184995103470268" cy="20.573242958416646" r="0.5724097618196666"></circle><circle cx="74.22496458533317" cy="86.09363479117044" r="0.5885247059560968"></circle><circle cx="86.83198220457213" cy="33.69988486173882" r="0.4123306522445773"></circle><circle cx="57.996789018336976" cy="90.53764917263165" r="0.513490488005507"></circle><circle cx="87.96166106010784" cy="19.692870846978646" r="0.3667593486922379"></circle><circle cx="89.65070527882702" cy="71.39813265445622" r="0.6030815267393439"></circle><circle cx="37.631500639192616" cy="13.368891344492262" r="0.6122605900796059"></circle><circle cx="86.09190878872514" cy="20.696960408711693" r="0.48233740890190574"></circle><circle cx="65.67658194319417" cy="89.62059378369588" r="0.3841621707751848"></circle><circle cx="70.76458102626424" cy="88.83814916243261" r="0.42900923422956294"></circle><circle cx="82.31493333364608" cy="26.39513690705824" r="0.44035714975088"></circle><circle cx="12.673638704444812" cy="46.53528957131727" r="0.4490556289752339"></circle><circle cx="71.71272996368654" cy="12.338785227706943" r="0.6560527412964086"></circle><circle cx="47.677994804858" cy="5.941641614063101" r="0.3750654254648373"></circle></g></g>
  <desc>Created with Snap</desc></svg>
