<svg width="100%" height="100%" viewBox="0 0 100 100" version="1.1" xmlns="http://www.w3.org/2000/svg" id="decent-logo-svg">
       <defs>
         <style type="text/css">
           @import url("https://fonts.googleapis.com/css?family=Dosis:400,700")
         </style>
         <style type="text/css">
           #text text {
             font-family: 'Dosis'
           }
         </style>
       </defs>
       <g id="svg-content"><circle cx="50" cy="50" r="25" id="shape"></circle><g textAlign="center" fill="undefined" style="text-anchor: middle; stroke-width: 0;" stroke="rgba(0,0,0,0)" id="halftones"><circle cx="50" cy="77" r="0.33524962689705085"></circle><circle cx="58.05134359825997" cy="75.771609694832" r="0.04127103872841717"></circle><circle cx="61.846225861237656" cy="74.26245933215642" r="0.07947444224906161"></circle><circle cx="63.64723817812768" cy="73.29705754187542" r="0.0033932576974225748"></circle><circle cx="65.37008035061778" cy="72.19821231575987" r="0.16276748986741438"></circle><circle cx="67.00488409476333" cy="70.97221773975431" r="0.37908957934712784"></circle><circle cx="68.54228540276453" cy="69.62609619976487" r="0.37178229585017875"></circle><circle cx="71.29026468131988" cy="66.60495798848476" r="0.09279122970672257"></circle><circle cx="72.48510247542154" cy="64.94724612327609" r="0.056110203749985516"></circle><circle cx="74.48229396123753" cy="61.38495860315497" r="0.15294522910473515"></circle><circle cx="75.27320792098536" cy="59.50078740855949" r="0.22608192159341065"></circle><circle cx="75.91935923448591" cy="57.562196564072494" r="0.044414164488025015"></circle><circle cx="76.41704680553046" cy="55.58029014249373" r="0.18039822287159576"></circle><circle cx="76.76341992478231" cy="53.56642032432597" r="0.14015210242373952"></circle><circle cx="76.95649459838168" cy="51.532122373513" r="0.1506134801413805"></circle><circle cx="76.99516491208291" cy="49.48904856449249" r="0.29548702354953116"></circle><circle cx="76.87920936583109" cy="47.44890143902316" r="0.01874150739259081"></circle><circle cx="76.60929214249428" cy="45.42336677508539" r="0.10681664414376332"></circle><circle cx="76.18695930348423" cy="43.42404665180322" r="0.054783489025089865"></circle><circle cx="75.61462993305665" cy="41.462392993785755" r="0.053798228264370834"></circle><circle cx="74.89558228201557" cy="39.54964197554013" r="0.33491003555775845"></circle><circle cx="74.0339349901897" cy="37.69674966168148" r="0.2091012783622813"></circle><circle cx="73.03462349523647" cy="35.91432925158692" r="0.018852958330212916"></circle><circle cx="70.64665950066372" cy="32.60128017744832" r="0.024496379713795896"></circle><circle cx="69.27168504255276" cy="31.08962835847354" r="0.3525889585134716"></circle><circle cx="67.78632411774844" cy="29.686293435751306" r="0.3183993237391949"></circle><circle cx="64.51905847007333" cy="27.236060509160726" r="0.054859959302219624"></circle><circle cx="62.75586834895111" cy="26.20319721760448" r="0.04907117977245021"></circle><circle cx="60.91961376908867" cy="25.306639857363905" r="0.014197987025579811"></circle><circle cx="59.02081263042953" cy="24.55152382780684" r="0.320178690626409"></circle><circle cx="55.079371283953115" cy="23.48208176798653" r="0.06780550686955597"></circle><circle cx="53.05930729523429" cy="23.173881404994006" r="0.2502978981638301"></circle><circle cx="51.0217198713771" cy="23.01933861995905" r="0.3336706108165678"></circle><circle cx="48.97828012862292" cy="23.01933861995905" r="0.36171684688077"></circle><circle cx="46.940692704765716" cy="23.173881404994006" r="0.3330070739161771"></circle><circle cx="44.92062871604689" cy="23.48208176798653" r="0.09155958019089158"></circle><circle cx="40.979187369570475" cy="24.551523827806836" r="0.2734777382390109"></circle><circle cx="39.080386230911316" cy="25.306639857363905" r="0.22704680589697498"></circle><circle cx="37.24413165104889" cy="26.203197217604476" r="0.3854160296502862"></circle><circle cx="35.480941529926675" cy="27.236060509160723" r="0.11151726819213378"></circle><circle cx="33.80091526088522" cy="28.399313584633973" r="0.03894661223708715"></circle><circle cx="30.728314957447246" cy="31.089628358473533" r="0.13436538431411635"></circle><circle cx="28.09662823709801" cy="34.212590287950725" r="0.03332459858351497"></circle><circle cx="24.385370066943356" cy="41.462392993785755" r="0.267466144300775"></circle><circle cx="23.39070785750572" cy="45.42336677508539" r="0.2378718275654614"></circle><circle cx="23.12079063416891" cy="47.44890143902315" r="0.027576121344935228"></circle><circle cx="23.582953194469532" cy="55.58029014249371" r="0.12510132582876252"></circle><circle cx="24.080640765514087" cy="57.562196564072494" r="0.28474157457654403"></circle><circle cx="24.726792079014636" cy="59.500787408559496" r="0.22048120075574404"></circle><circle cx="25.517706038762462" cy="61.38495860315495" r="0.1687291907032353"></circle><circle cx="26.448852361220773" cy="63.2039177858855" r="0.0361567010506518"></circle><circle cx="28.70973531868011" cy="66.60495798848473" r="0.1525456116124375"></circle><circle cx="30.02652182084484" cy="68.16755815806881" r="0.25929744556007084"></circle><circle cx="31.457714597235462" cy="69.62609619976487" r="0.38970259895444703"></circle><circle cx="32.995115905236666" cy="70.9722177397543" r="0.08623072733663548"></circle><circle cx="34.62991964938221" cy="72.19821231575986" r="0.16442159090506878"></circle><circle cx="38.15377413876233" cy="74.26245933215641" r="0.24536848723361968"></circle><circle cx="43.92078960588725" cy="76.30671399061676" r="0.26413347815257615"></circle><circle cx="47.95802386111966" cy="76.9226732225506" r="0.2303790338947461"></circle><circle cx="49.99999999999999" cy="77" r="0.20802834242785304"></circle><circle cx="52.0419761388803" cy="76.9226732225506" r="0.17785635921577855"></circle><circle cx="54.072256023357085" cy="76.691135810981" r="0.3275593153198576"></circle><circle cx="56.079210394112735" cy="76.30671399061677" r="0.21321935182840132"></circle><circle cx="59.97735943540043" cy="75.08888795257425" r="0.2651156238071205"></circle><circle cx="61.846225861237656" cy="74.26245933215642" r="0.1509514588042584"></circle><circle cx="63.64723817812766" cy="73.29705754187543" r="0.045107121584726934"></circle><circle cx="65.37008035061778" cy="72.19821231575987" r="0.09905035727865172"></circle><circle cx="66.83748638244643" cy="72.99454396853591" r="0.11078418188733116"></circle><circle cx="68.49919589301865" cy="71.68016954065908" r="0.17302704427484236"></circle><circle cx="70.05867053106418" cy="70.24598074992213" r="0.04451895539775272"></circle><circle cx="72.83705438281041" cy="67.05048231331183" r="0.2715322983251789"></circle><circle cx="74.04060899836767" cy="65.30683242828519" r="0.06782639918350905"></circle><circle cx="76.04322344816487" cy="61.575859036328815" r="0.2469713856808454"></circle><circle cx="76.83121593471145" cy="59.60915456556333" r="0.0637441349507479"></circle><circle cx="77.47092706045265" cy="57.58934558702462" r="0.2126333360328516"></circle><circle cx="77.95882149413562" cy="55.52759447310132" r="0.24510168950012676"></circle><circle cx="78.29220291179453" cy="53.4352953872767" r="0.2277425426325624"></circle><circle cx="78.46922889784908" cy="51.324011314859156" r="0.09690675772048538"></circle><circle cx="78.48892112712106" cy="49.20541016072724" r="0.1727497777769542"></circle><circle cx="78.35117077149918" cy="47.09120026724248" r="0.3223806446085439"></circle><circle cx="78.05673910137213" cy="44.993065708686004" r="0.2411990936353596"></circle><circle cx="77.60725327850615" cy="42.92260171981175" r="0.011471451275249817"></circle><circle cx="77.00519736361764" cy="40.8912506153666" r="0.29222784171356064"></circle><circle cx="76.25389858833701" cy="38.91023855471562" r="0.35106238610199825"></circle><circle cx="74.32098235290258" cy="35.14268471796464" r="0.22966440335716395"></circle><circle cx="73.1500470567778" cy="33.37696413801096" r="0.25297451215250233"></circle><circle cx="71.85117419387856" cy="31.70310992685435" r="0.15547730075307695"></circle><circle cx="70.43154191953309" cy="30.13037255532047" r="0.1096859451844435"></circle><circle cx="68.89899575986267" cy="28.667443677123632" r="0.15821599858939936"></circle><circle cx="67.26200525387765" cy="27.322408094881403" r="0.18517326931181252"></circle><circle cx="65.52961714699737" cy="26.10269907986081" r="0.06640172720740686"></circle><circle cx="63.71140539466823" cy="25.01505729237982" r="0.005444277578312978"></circle><circle cx="61.81741825238199" cy="24.065493529888236" r="0.059467424632071414"></circle><circle cx="59.858122744499" cy="23.25925550859903" r="0.38636414773590444"></circle><circle cx="51.58856191294413" cy="21.54430687808249" r="0.15745906080588176"></circle><circle cx="49.47023530153422" cy="21.504924120749223" r="0.3998881992789647"></circle><circle cx="47.35483640799534" cy="21.62301796223684" r="0.2890818180052258"></circle><circle cx="45.25405587755748" cy="21.897935762890064" r="0.07679432671042682"></circle><circle cx="43.179503567804595" cy="22.32815820335752" r="0.252786937095725"></circle><circle cx="39.15473493576071" cy="23.6441614497586" r="0.22706380559481174"></circle><circle cx="37.226761294201616" cy="24.522669430164115" r="0.2590943869335477"></circle><circle cx="35.36937831173887" cy="25.541976592230863" r="0.3355811951074522"></circle><circle cx="33.59285072169082" cy="26.696449786367772" r="0.24906693791907927"></circle><circle cx="31.90699641412998" cy="27.979708874728868" r="0.1480980689568989"></circle><circle cx="30.32113217780919" cy="29.384661990722947" r="0.2153123355830948"></circle><circle cx="28.84402221139863" cy="30.903544731856503" r="0.3100836863555797"></circle><circle cx="27.483829688584184" cy="32.527963069312236" r="0.3802799655808856"></circle><circle cx="26.248071644700026" cy="34.248939737125724" r="0.11976514277977654"></circle><circle cx="25.143577434212215" cy="36.05696384459268" r="0.13141979549658908"></circle><circle cx="24.176450988635878" cy="37.942043437726475" r="0.019883844000486234"></circle><circle cx="23.352037083465685" cy="39.89376071928772" r="0.3739433023904244"></circle><circle cx="22.674891800543893" cy="41.90132962221473" r="0.0544465743636173"></circle><circle cx="22.14875734910392" cy="43.95365541827898" r="0.03397405184054689"></circle><circle cx="21.77654138463988" cy="46.03939603254066" r="0.058466703131990955"></circle><circle cx="21.501231056775037" cy="50.26489379131346" r="0.05718171280892334"></circle><circle cx="21.599658182007445" cy="52.381298935703654" r="0.010834956155750225"></circle><circle cx="21.855038363052028" cy="54.484543951699756" r="0.009196740878653381"></circle><circle cx="22.265960254226197" cy="56.56300536186273" r="0.2845777980298556"></circle><circle cx="23.54449836740573" cy="60.599831761297054" r="0.21382383402665714"></circle><circle cx="24.405048813051025" cy="62.53588743319352" r="0.013114820879510963"></circle><circle cx="26.544959822030798" cy="66.18984528183795" r="0.021464925685546338"></circle><circle cx="27.81249427516636" cy="67.88755404493511" r="0.010586544133214554"></circle><circle cx="29.20264685898081" cy="69.48640814331208" r="0.09029215855375414"></circle><circle cx="30.707734965374772" cy="70.97757159048152" r="0.17536343452600398"></circle><circle cx="32.319440800883655" cy="72.3528035469053" r="0.30438970055362546"></circle><circle cx="37.70254681408891" cy="75.71036065753114" r="0.37837120492510845"></circle><circle cx="39.646517260571756" cy="76.552879225507" r="0.007833245975955111"></circle><circle cx="45.77724363856687" cy="78.18542759498206" r="0.3699842829824912"></circle><circle cx="47.882771440891226" cy="78.42124809413714" r="0.38735497633231875"></circle><circle cx="49.999999999999986" cy="78.5" r="0.17174231300020001"></circle><circle cx="52.117228559108746" cy="78.42124809413714" r="0.34572155523310677"></circle><circle cx="54.222756361433156" cy="78.18542759498206" r="0.05992093296682341"></circle><circle cx="56.30494731383072" cy="77.79384175262244" r="0.09841885694755678"></circle><circle cx="58.35229429308235" cy="77.24865464645445" r="0.11970765751447263"></circle><circle cx="60.35348273942822" cy="76.55287922550701" r="0.13243030368592199"></circle><circle cx="62.29745318591107" cy="75.71036065753115" r="0.15021496397583942"></circle><circle cx="67.68055919911633" cy="72.35280354690532" r="0.0690467545119264"></circle><circle cx="69.29226503462525" cy="70.97757159048149" r="0.2942049511598742"></circle><circle cx="70.7973531410192" cy="69.48640814331206" r="0.26401047026819935"></circle><circle cx="72.18750572483358" cy="67.88755404493517" r="0.06260257602926653"></circle><circle cx="73.45504017796918" cy="66.18984528183798" r="0.1367808439967438"></circle><circle cx="74.59295153523777" cy="64.40266415582362" r="0.07722158245948549"></circle><circle cx="75.59495118694896" cy="62.53588743319355" r="0.09135741710139186"></circle><circle cx="75.60779267112038" cy="65.62821021463793" r="0.033859947890638814"></circle><circle cx="76.68026446647555" cy="63.717269699139194" r="0.2365528915964342"></circle><circle cx="77.61038550707477" cy="61.733141614704735" r="0.3038786574064072"></circle><circle cx="78.39319319472827" cy="59.68641214314341" r="0.14886219895481065"></circle><circle cx="79.02451091172274" cy="57.58800147175046" r="0.0416843166088626"></circle><circle cx="79.50097030488398" cy="55.4491055293831" r="0.3567499375465699"></circle><circle cx="79.82002925719837" cy="53.28113625133625" r="0.3231206821190318"></circle><circle cx="79.82002925719839" cy="46.71886374866378" r="0.22739047009701704"></circle><circle cx="79.50097030488399" cy="44.55089447061694" r="0.005076843255908486"></circle><circle cx="78.39319319472828" cy="40.31358785685662" r="0.1430835688130486"></circle><circle cx="77.61038550707477" cy="38.26685838529529" r="0.006718427012496114"></circle><circle cx="76.68026446647556" cy="36.282730300860834" r="0.09451969175890604"></circle><circle cx="75.6077926711204" cy="34.3717897853621" r="0.35370568256237367"></circle><circle cx="74.39869222206694" cy="32.54423253326139" r="0.1833565482476006"></circle><circle cx="73.05941419335595" cy="30.80980935323325" r="0.3772964611843097"></circle><circle cx="71.59710421273988" cy="29.177774143380983" r="0.30907415267124916"></circle><circle cx="68.3352114229355" cy="26.255105347122395" r="0.30442875060215646"></circle><circle cx="66.55303222311342" cy="24.98006546330369" r="0.29160520052168015"></circle><circle cx="62.733700966274476" cy="22.836552875205616" r="0.014403073374205072"></circle><circle cx="60.71692669403402" cy="21.979516738023577" r="0.3367515705549836"></circle><circle cx="58.64297298095718" cy="21.271982002747837" r="0.172088400751335"></circle><circle cx="56.52290526744673" cy="20.71772367332219" r="0.016829892253362483"></circle><circle cx="54.36803503205019" cy="20.3196989577467" r="0.08402745284856569"></circle><circle cx="52.18985943982723" cy="20.08003149009345" r="0.39857538292308725"></circle><circle cx="50.00000000000002" cy="20" r="0.15704801639163932"></circle><circle cx="47.81014056017281" cy="20.080031490093447" r="0.37894110725214436"></circle><circle cx="45.631964967949855" cy="20.319698957746695" r="0.17360587251991752"></circle><circle cx="43.477094732553304" cy="20.717723673322183" r="0.3506832094312998"></circle><circle cx="41.35702701904285" cy="21.271982002747826" r="0.09168877362273839"></circle><circle cx="39.283073305966056" cy="21.97951673802354" r="0.12317199757757044"></circle><circle cx="37.26629903372556" cy="22.836552875205598" r="0.024712150198379662"></circle><circle cx="35.31746456566741" cy="23.838517755685785" r="0.31207730539590317"></circle><circle cx="33.44696777688657" cy="24.9800654633037" r="0.24418147584545932"></circle><circle cx="31.664788577064524" cy="26.255105347122377" r="0.193802037074662"></circle><circle cx="29.98043566333279" cy="27.656834517686566" r="0.016560256132597123"></circle><circle cx="28.40289578726015" cy="29.177774143380958" r="0.31774277889436964"></circle><circle cx="26.940585806644105" cy="30.80980935323318" r="0.08440811538899459"></circle><circle cx="25.60130777793308" cy="32.544232533261365" r="0.11112484148621402"></circle><circle cx="24.392207328879625" cy="34.37178978536207" r="0.10583591473617501"></circle><circle cx="23.319735533524433" cy="36.28273030086085" r="0.3794115958476395"></circle><circle cx="21.606806805271727" cy="40.313587856856586" r="0.1491197206928073"></circle><circle cx="20.97548908827724" cy="42.41199852824958" r="0.3708531776025267"></circle><circle cx="20.179970742801626" cy="46.71886374866374" r="0.2880282864096094"></circle><circle cx="20.020014548892817" cy="48.90433930827025" r="0.2609982707311591"></circle><circle cx="20.499029695116022" cy="55.44910552938311" r="0.20796767809247738"></circle><circle cx="20.97548908827723" cy="57.588001471750374" r="0.07664100247734115"></circle><circle cx="21.606806805271713" cy="59.68641214314337" r="0.38130859359058245"></circle><circle cx="22.389614492925226" cy="61.73314161470471" r="0.09261194160106587"></circle><circle cx="23.319735533524412" cy="63.717269699139116" r="0.2367187226193561"></circle><circle cx="24.392207328879604" cy="65.6282102146379" r="0.36961526249501486"></circle><circle cx="25.601307777933055" cy="67.4557674667386" r="0.020494009606579294"></circle><circle cx="26.94058580664408" cy="69.19019064676678" r="0.36631395135987066"></circle><circle cx="29.980435663332763" cy="72.34316548231341" r="0.18565580151081026"></circle><circle cx="31.664788577064492" cy="73.7448946528776" r="0.319314946473677"></circle><circle cx="33.44696777688654" cy="75.01993453669628" r="0.05767288555028169"></circle><circle cx="35.31746456566738" cy="76.16148224431419" r="0.3030636130521448"></circle><circle cx="41.35702701904281" cy="78.72801799725215" r="0.14203399447703033"></circle><circle cx="45.63196496794986" cy="79.6803010422533" r="0.22914644244037682"></circle><circle cx="49.99999999999998" cy="80" r="0.34819828389580254"></circle><circle cx="52.18985943982724" cy="79.91996850990655" r="0.26345845378329247"></circle><circle cx="54.368035032050095" cy="79.68030104225332" r="0.36246822726910366"></circle><circle cx="56.52290526744669" cy="79.28227632667782" r="0.3412232899667449"></circle><circle cx="58.64297298095715" cy="78.72801799725218" r="0.07519854859229011"></circle><circle cx="60.71692669403394" cy="78.02048326197647" r="0.3894904788021424"></circle><circle cx="64.68253543433258" cy="76.16148224431421" r="0.006171187657024374"></circle><circle cx="66.55303222311343" cy="75.0199345366963" r="0.19615417046626024"></circle><circle cx="68.33521142293547" cy="73.74489465287763" r="0.344576471803517"></circle><circle cx="70.0195643366672" cy="72.34316548231344" r="0.28903942708005603"></circle><circle cx="71.59710421273985" cy="70.82222585661904" r="0.11765839463340941"></circle><circle cx="73.05941419335589" cy="69.19019064676682" r="0.2991233638091627"></circle><circle cx="74.39869222206691" cy="67.45576746673865" r="0.20923985123900776"></circle><circle cx="75.60779267112038" cy="65.62821021463793" r="0.3055862449668528"></circle><circle cx="77.61038550707475" cy="61.73314161470474" r="0.12517440666180943"></circle><circle cx="78.39319319472827" cy="59.686412143143414" r="0.32341509587289297"></circle><circle cx="79.02451091172276" cy="57.58800147175042" r="0.07325728860208366"></circle><circle cx="79.50097030488396" cy="55.449105529383154" r="0.053675604862416265"></circle><circle cx="79.18269610685095" cy="61.85834085929333" r="0.07402897377936943"></circle><circle cx="79.95828026329733" cy="59.73403532281087" r="0.3255835487069749"></circle><circle cx="80.5794549658719" cy="57.559559113480894" r="0.3807987980133203"></circle><circle cx="81.04301858732039" cy="55.346119806671076" r="0.019162777745529963"></circle><circle cx="81.3465818514562" cy="53.10512579937702" r="0.28233467997547845"></circle><circle cx="81.48858014784716" cy="50.84812750963847" r="0.14506449538692864"></circle><circle cx="81.46828159605141" cy="48.58675784395881" r="0.12935600574164416"></circle><circle cx="81.2857908178386" cy="46.33267223956654" r="0.28372166859981496"></circle><circle cx="80.43882603620257" cy="41.89272736749302" r="0.289792302347308"></circle><circle cx="79.77871741584642" cy="39.72975223925121" r="0.08091483505926808"></circle><circle cx="78.9651248353707" cy="37.61971150290143" r="0.29416561896464566"></circle><circle cx="78.00224167253012" cy="35.57348062375343" r="0.027305451730983504"></circle><circle cx="76.89503077105294" cy="33.60160618157633" r="0.07785722649805313"></circle><circle cx="75.6491988614029" cy="31.714251511950383" r="0.12099058754024591"></circle><circle cx="74.27116714743742" cy="29.921144322916348" r="0.22585342461284927"></circle><circle cx="72.76803821056285" cy="28.23152655691378" r="0.33289654830166737"></circle><circle cx="71.14755940196909" cy="26.65410675642955" r="0.34396318798599446"></circle><circle cx="69.41808291162332" cy="25.197015178867627" r="0.13869487392887989"></circle><circle cx="67.5885227198344" cy="23.867761891987346" r="0.25058384384428"></circle><circle cx="65.66830865326648" cy="22.67319806589189" r="0.007819557304698938"></circle><circle cx="61.59592340956742" cy="20.712040694520105" r="0.21486297206481217"></circle><circle cx="59.46474191461774" cy="19.9555552474392" r="0.38303351066074387"></circle><circle cx="57.28477772529343" cy="19.35392335888542" r="0.008209199411115614"></circle><circle cx="55.067266702831596" cy="18.9102459295289" r="0.1962290404217427"></circle><circle cx="52.82363823045818" cy="18.626809739149973" r="0.30802629661931025"></circle><circle cx="50.56545630464002" cy="18.505075660234667" r="0.3097546875420778"></circle><circle cx="48.30435993251797" cy="18.54567112841939" r="0.19909157164148758"></circle><circle cx="46.052003142724466" cy="18.748386908593943" r="0.3061483749504643"></circle><circle cx="43.819994918778484" cy="19.112178173330573" r="0.35163078245121826"></circle><circle cx="39.46287641088694" cy="20.314666475382882" r="0.001374269902654518"></circle><circle cx="37.36022336692107" cy="21.14716570827275" r="0.1269119520773526"></circle><circle cx="35.322717620791565" cy="22.128376761283217" r="0.3394035108314426"></circle><circle cx="33.360860781627835" cy="23.253242326000912" r="0.3853962925542572"></circle><circle cx="29.704098614623486" cy="25.910035555130605" r="0.29007166548377383"></circle><circle cx="26.46522971799332" cy="29.062841936567054" r="0.04581160665277226"></circle><circle cx="23.71094250777898" cy="32.64674508425875" r="0.29196133666932544"></circle><circle cx="22.53366237300337" cy="34.57760403310078" r="0.15071071061373306"></circle><circle cx="21.497947847320386" cy="36.58795231570021" r="0.1374920410031247"></circle><circle cx="20.60913715818753" cy="38.667428296553034" r="0.06330264392747262"></circle><circle cx="19.289770766272564" cy="42.99059058037607" r="0.24961898322257456"></circle><circle cx="18.866015275059443" cy="45.21199465882001" r="0.22381164973054055"></circle><circle cx="18.50126894061756" cy="49.71726045784851" r="0.1650024300104945"></circle><circle cx="18.56215805450944" cy="51.977901365173274" r="0.3347879025232471"></circle><circle cx="19.1688933040881" cy="56.457000844455294" r="0.29385184031384737"></circle><circle cx="19.71161223561931" cy="58.652373468275286" r="0.0068304230580702174"></circle><circle cx="20.410442044418893" cy="60.803150466105095" r="0.07450642346010536"></circle><circle cx="21.261780857209192" cy="62.89824641185507" r="0.038208040387512326"></circle><circle cx="22.26124074651274" cy="64.92686286789943" r="0.13808530297092678"></circle><circle cx="23.403670346686486" cy="66.87854404183832" r="0.009849925026418432"></circle><circle cx="24.68318140483015" cy="68.74323067721417" r="0.3494522381938311"></circle><circle cx="26.093179129721467" cy="70.51131190042253" r="0.12239418250929221"></circle><circle cx="27.62639618235613" cy="72.1736747565917" r="0.3767622632675566"></circle><circle cx="32.88341099946352" cy="76.44375882862937" r="0.11860703665409164"></circle><circle cx="34.82475926579592" cy="77.60366042138168" r="0.013051347567341581"></circle><circle cx="36.844322990877885" cy="78.62128862283555" r="0.026299626639890245"></circle><circle cx="38.931693041437676" cy="79.49139842515171" r="0.22976438881521308"></circle><circle cx="41.076110800268324" cy="80.2095051523674" r="0.26923738386729235"></circle><circle cx="45.4916417788498" cy="81.17570698716851" r="0.3172719985177185"></circle><circle cx="47.739996692016454" cy="81.41882214609427" r="0.1770764697850514"></circle><circle cx="49.99999999999997" cy="81.5" r="0.19721350263736412"></circle><circle cx="52.26000330798348" cy="81.41882214609427" r="0.2913368735142281"></circle><circle cx="58.92388919973151" cy="80.20950515236744" r="0.2667592320802593"></circle><circle cx="61.06830695856227" cy="79.49139842515173" r="0.0858327879735161"></circle><circle cx="63.15567700912206" cy="78.62128862283558" r="0.2554932587305826"></circle><circle cx="65.17524073420402" cy="77.6036604213817" r="0.11988766355982058"></circle><circle cx="67.11658900053642" cy="76.4437588286294" r="0.09889129311635922"></circle><circle cx="68.9697158090116" cy="75.14756215074009" r="0.01634503568480125"></circle><circle cx="73.9068208702785" cy="70.51131190042257" r="0.28816662396371473"></circle><circle cx="75.31681859516982" cy="68.74323067721421" r="0.0281685088593375"></circle><circle cx="76.59632965331349" cy="66.87854404183838" r="0.23396299661782746"></circle><circle cx="77.73875925348723" cy="64.92686286789949" r="0.3721935197625187"></circle><circle cx="78.73821914279083" cy="62.89824641185502" r="0.0604492644228167"></circle><circle cx="79.58955795558106" cy="60.80315046610526" r="0.37673133240625045"></circle><circle cx="80.28838776438067" cy="58.65237346827534" r="0.13341483229432102"></circle><circle cx="81.21491749568995" cy="54.22834787325618" r="0.18318303209280137"></circle><circle cx="81.43784194549056" cy="51.97790136517334" r="0.06101129507338074"></circle><circle cx="79.83942404013183" cy="64.09286248259035" r="0.1934533830116197"></circle><circle cx="80.75919063478047" cy="61.95291560637963" r="0.014812370054497509"></circle><circle cx="82.13518280930542" cy="57.50533315799649" r="0.06927183433820525"></circle><circle cx="82.58455326538262" cy="55.21985521786218" r="0.32410879081548116"></circle><circle cx="82.87158911614452" cy="52.908372221598945" r="0.2997979407785928"></circle><circle cx="82.99486036342095" cy="50.582399861223266" r="0.043766904012052826"></circle><circle cx="82.95375287605869" cy="48.25352601403458" r="0.30184374652989576"></circle><circle cx="81.85029039696843" cy="41.36524455304146" r="0.17181777135405604"></circle><circle cx="81.1618654638354" cy="39.14006718189183" r="0.24880148293380475"></circle><circle cx="80.31819368445089" cy="36.96899344977058" r="0.29133351433003674"></circle><circle cx="79.32347818918191" cy="34.862839536803044" r="0.21270310507284437"></circle><circle cx="78.18267460059016" cy="32.832098195840864" r="0.03761177915152367"></circle><circle cx="76.90146634476997" cy="30.886886478095516" r="0.31318764020549184"></circle><circle cx="75.4862363368049" cy="29.036895330497288" r="0.18134822774012402"></circle><circle cx="72.28254604715585" cy="25.658920696559512" r="0.08256015264292224"></circle><circle cx="70.51004638934445" cy="24.14776610992894" r="0.15631553885733193"></circle><circle cx="68.63536671210791" cy="22.765406052131777" r="0.3091218907114628"></circle><circle cx="64.6172880652703" cy="20.413940958334678" r="0.29553281945119425"></circle><circle cx="62.4939069613723" cy="19.45655080314974" r="0.16487684988603454"></circle><circle cx="60.30828184145524" cy="18.651326575481313" r="0.15677748038292502"></circle><circle cx="58.07130137992648" cy="18.00227986192771" r="0.03149719066105913"></circle><circle cx="55.79411010092161" cy="17.512644180567754" r="0.381343520384124"></circle><circle cx="53.48805285684664" cy="17.1848588717366" r="0.13511631153852707"></circle><circle cx="51.16461830889314" cy="17.02055694535472" r="0.16439409922549017"></circle><circle cx="48.83538169110693" cy="17.020556945354713" r="0.002874617086946779"></circle><circle cx="46.51194714315343" cy="17.184858871736594" r="0.35800627737027935"></circle><circle cx="44.205889899078464" cy="17.51264418056774" r="0.030511436293608946"></circle><circle cx="41.92869862007359" cy="18.002279861927693" r="0.3311305233437495"></circle><circle cx="39.69171815854483" cy="18.65132657548129" r="0.21573903286078486"></circle><circle cx="37.50609303862777" cy="19.456550803149714" r="0.07243316090232196"></circle><circle cx="31.36463328789215" cy="22.765406052131738" r="0.22436068915985782"></circle><circle cx="29.489953610655604" cy="24.147766109928895" r="0.14860661415274654"></circle><circle cx="27.717453952844195" cy="25.658920696559463" r="0.26855602920615407"></circle><circle cx="26.055964818593612" cy="27.29134131588629" r="0.20139274180177333"></circle><circle cx="23.098533655230064" cy="30.88688647809546" r="0.2755649182949882"></circle><circle cx="20.676521810818127" cy="34.86283953680298" r="0.2661169743677311"></circle><circle cx="19.68180631554914" cy="36.968993449770515" r="0.21196850261550745"></circle><circle cx="18.14970960303158" cy="41.365244553041386" r="0.00805036077471874"></circle><circle cx="17.619961214537902" cy="43.63343984148659" r="0.108430782692684"></circle><circle cx="17.04624712394132" cy="48.2535260140345" r="0.36467359468716765"></circle><circle cx="17.005139636579045" cy="50.582399861223195" r="0.12398962763650653"></circle><circle cx="17.41544673461737" cy="55.21985521786211" r="0.26175128062870867"></circle><circle cx="17.864817190694566" cy="57.50533315799642" r="0.20250298728499658"></circle><circle cx="18.47428351107898" cy="59.753419905867545" r="0.21186939864172868"></circle><circle cx="19.240809365219505" cy="61.952915606379555" r="0.3775551445453553"></circle><circle cx="20.16057595986814" cy="64.09286248259029" r="0.3205797014531785"></circle><circle cx="22.440761837837623" cy="68.15181511367976" r="0.03161646770842039"></circle><circle cx="23.789821349811177" cy="70.05059937072171" r="0.03934447352522516"></circle><circle cx="25.269458653407792" cy="71.84949255027433" r="0.3147634996602062"></circle><circle cx="28.59036691334305" cy="75.11229999611194" r="0.16262835718664223"></circle><circle cx="32.33739065038065" cy="77.87529786321106" r="0.3260237713327354"></circle><circle cx="34.34768226030776" cy="79.051763274812" r="0.06536537646155524"></circle><circle cx="36.43595292987852" cy="80.0834942631259" r="0.007620400004688416"></circle><circle cx="38.59179899966012" cy="80.96535079626653" r="0.3391798368146913"></circle><circle cx="40.8044801529757" cy="81.6929395093447" r="0.20128157571169444"></circle><circle cx="43.06297292362046" cy="82.26263559199057" r="0.3717417563636586"></circle><circle cx="45.356025614216676" cy="82.671600846977" r="0.19760055193476986"></circle><circle cx="47.672214351603635" cy="82.9177978299752" r="0.13124717438401376"></circle><circle cx="49.99999999999996" cy="83" r="0.05119370562649858"></circle><circle cx="54.643974385783245" cy="82.67160084697701" r="0.25112005124283954"></circle><circle cx="56.937027076379465" cy="82.2626355919906" r="0.20247300880071648"></circle><circle cx="65.65231773969218" cy="79.05176327481205" r="0.3943057969449655"></circle><circle cx="67.66260934961929" cy="77.8752978632111" r="0.37206849332318537"></circle><circle cx="73.12769772999076" cy="73.53953265700449" r="0.2447955411296134"></circle><circle cx="74.73054134659215" cy="71.84949255027439" r="0.24584236323255534"></circle><circle cx="76.21017865018885" cy="70.05059937072168" r="0.2899323182183776"></circle><circle cx="77.55923816216233" cy="68.15181511367983" r="0.05126253490665397"></circle><circle cx="78.77099893588382" cy="66.16259942680544" r="0.33148888758879635"></circle><circle cx="79.83942404013183" cy="64.09286248259036" r="0.3821373424487058"></circle><circle cx="80.75919063478051" cy="61.95291560637952" r="0.39255138119582256"></circle><circle cx="81.52571648892099" cy="59.753419905867624" r="0.22651563748110734"></circle><circle cx="82.13518280930543" cy="57.50533315799638" r="0.01791226591853376"></circle><circle cx="76.32130740784932" cy="72.30333554295179" r="0.270079416770172"></circle><circle cx="77.80511656679367" cy="70.42365032767198" r="0.15204181770344502"></circle><circle cx="80.36431615606365" cy="66.37859286918788" r="0.19896521632371264"></circle><circle cx="81.42737575722792" cy="64.23271066993223" r="0.20558616486328937"></circle><circle cx="83.09482888851218" cy="59.74588635477038" r="0.23849787194545066"></circle><circle cx="83.69118823490439" cy="57.42656282005615" r="0.19230576587805168"></circle><circle cx="84.12521546460532" cy="55.071456348452806" r="0.018874360954248187"></circle><circle cx="84.49870082104192" cy="50.29940217140443" r="0.04407405201181555"></circle><circle cx="84.43635940695877" cy="47.905447352115075" r="0.1870763405833926"></circle><circle cx="83.8150088253277" cy="43.1592998791783" r="0.05827559165043791"></circle><circle cx="83.25899347190173" cy="40.829975287056286" r="0.059081847543016236"></circle><circle cx="81.66966479937436" cy="36.31488650046085" r="0.39715324162581966"></circle><circle cx="80.64400924187315" cy="34.15087707209029" r="0.2877298916420349"></circle><circle cx="79.47070359707152" cy="32.06323246809628" r="0.29043521942779926"></circle><circle cx="78.15540112918536" cy="30.062011454144447" r="0.3041977334238052"></circle><circle cx="76.70443927672282" cy="28.15685638659528" r="0.04600779086654258"></circle><circle cx="75.12480911720559" cy="26.356946753348822" r="0.05652459469271551"></circle><circle cx="73.42412168250357" cy="24.67095494490038" r="0.1834772021516806"></circle><circle cx="71.61057128708146" cy="23.10700446871025" r="0.11227533586757929"></circle><circle cx="69.69289604585491" cy="21.67263080822449" r="0.33290763939232826"></circle><circle cx="67.68033577188258" cy="20.37474511513042" r="0.23110637946576404"></circle><circle cx="65.58258745676298" cy="19.219600909794348" r="0.37978190918501764"></circle><circle cx="63.40975854823236" cy="18.212763950319474" r="0.2807524213552445"></circle><circle cx="61.17231825009262" cy="17.359085415407748" r="0.33367898026846143"></circle><circle cx="58.88104707910717" cy="16.662678530231588" r="0.1711600993697314"></circle><circle cx="56.54698492192274" cy="16.12689874794284" r="0.309023709770861"></circle><circle cx="51.79562389482901" cy="15.546760169349547" r="0.2706336374153083"></circle><circle cx="49.401218206582634" cy="15.505196617985028" r="0.355956113960158"></circle><circle cx="44.632584959362624" cy="15.920081341330352" r="0.1337042568988875"></circle><circle cx="42.28133380369531" cy="16.374530603275986" r="0.39860439428062255"></circle><circle cx="35.495088353110255" cy="18.69732378668044" r="0.3533691999860773"></circle><circle cx="31.302119346202144" cy="21.006220338556552" r="0.07738564504863207"></circle><circle cx="29.335816967994838" cy="22.373173551423065" r="0.06210924022778683"></circle><circle cx="27.469079513051756" cy="23.873239350986967" r="0.11067926927776303"></circle><circle cx="24.069753839544003" cy="27.243191479072532" r="0.33087863080088775"></circle><circle cx="22.553544376399376" cy="29.09684058086621" r="0.016529495319249715"></circle><circle cx="21.16957843063946" cy="31.05120605070205" r="0.334991807564914"></circle><circle cx="18.824380882952234" cy="35.22397980954391" r="0.36423462402113027"></circle><circle cx="17.874448997714175" cy="37.42228268724678" r="0.20289410336229194"></circle><circle cx="17.079305618530356" cy="39.68118798301505" r="0.014514435388391117"></circle><circle cx="16.44278193434311" cy="41.98981175664698" r="0.2769834852139861"></circle><circle cx="15.967944866872678" cy="44.33703051255063" r="0.044107474384787765"></circle><circle cx="15.657082293462821" cy="46.71153479537718" r="0.014859860952890575"></circle><circle cx="15.532474581844852" cy="51.49655990485809" r="0.20771094976263213"></circle><circle cx="15.719329833075179" cy="53.88402534833522" r="0.3503163210641371"></circle><circle cx="16.07135746442441" cy="56.252776638672664" r="0.10006517328982631"></circle><circle cx="16.586861323470487" cy="58.59140057167677" r="0.017676929098386335"></circle><circle cx="17.263357590645384" cy="60.88862910388837" r="0.24186647353769417"></circle><circle cx="18.09758674686616" cy="63.13339364468569" r="0.15134131774838608"></circle><circle cx="19.085529278668563" cy="65.31487838737029" r="0.1238546825546056"></circle><circle cx="20.22242504517425" cy="67.42257242228409" r="0.12831550257588073"></circle><circle cx="21.502796213575795" cy="69.44632038085895" r="0.05110294164412052"></circle><circle cx="22.920473652631134" cy="71.376371366585" r="0.3008667489169887"></circle><circle cx="26.13979585918849" cy="74.91868091129226" r="0.2366568409208569"></circle><circle cx="27.925929170565453" cy="76.5138717847301" r="0.3200407154559639"></circle><circle cx="29.818420578212162" cy="77.9813125503803" r="0.3607529492194601"></circle><circle cx="31.808151610738957" cy="79.3139327314187" r="0.03949118236402313"></circle><circle cx="33.88553527323394" cy="80.50531144849717" r="0.10740694104751944"></circle><circle cx="38.262849080232186" cy="82.44209130568795" r="0.09781728477120252"></circle><circle cx="42.86609988570822" cy="83.75436963060201" r="0.28893818951544314"></circle><circle cx="45.22488429905792" cy="84.167942139418" r="0.1783974452044271"></circle><circle cx="47.60667634970955" cy="84.4168854184245" r="0.17354328295253138"></circle><circle cx="49.99999999999995" cy="84.5" r="0.08103083265090247"></circle><circle cx="52.39332365029035" cy="84.4168854184245" r="0.1657628217580188"></circle><circle cx="54.77511570094198" cy="84.16794213941802" r="0.2004040383906723"></circle><circle cx="57.13390011429168" cy="83.75436963060204" r="0.12623976438137882"></circle><circle cx="59.458311708916455" cy="83.17816058218077" r="0.39709921956981153"></circle><circle cx="61.737150919767714" cy="82.442091305688" r="0.21246451575374922"></circle><circle cx="63.95943776032419" cy="81.54970835706149" r="0.13731772135733197"></circle><circle cx="66.11446472676596" cy="80.50531144849722" r="0.1322345600397041"></circle><circle cx="68.19184838926095" cy="79.31393273141875" r="0.1997090414528204"></circle><circle cx="70.18157942178776" cy="77.98131255038035" r="0.1805657557144523"></circle><circle cx="77.07952634736881" cy="71.37637136658509" r="0.3413311123643572"></circle><circle cx="78.49720378642414" cy="69.44632038085904" r="0.15867723604260583"></circle><circle cx="64.3424392344645" cy="83.01960685419638" r="0.2074483288435721"></circle><circle cx="66.56234135832139" cy="81.96386786248556" r="0.39808256933818986"></circle><circle cx="68.70502220127561" cy="80.75909856367359" r="0.36786734048325087"></circle><circle cx="70.7604915961351" cy="79.410916148376" r="0.24252358930833304"></circle><circle cx="72.71916599573787" cy="77.92560646535915" r="0.23789074077715275"></circle><circle cx="74.57191315587158" cy="76.31009471401242" r="0.22188294737122724"></circle><circle cx="76.3100947140124" cy="74.57191315587161" r="0.23324162348240138"></circle><circle cx="77.92560646535912" cy="72.7191659957379" r="0.16744549244021298"></circle><circle cx="79.41091614837597" cy="70.76049159613513" r="0.3065033165513439"></circle><circle cx="81.96386786248542" cy="66.56234135832165" r="0.20303826184610993"></circle><circle cx="83.01960685419627" cy="64.34243923446478" r="0.24660614098507258"></circle><circle cx="83.92139319627753" cy="62.05566603815549" r="0.2030800549798449"></circle><circle cx="85.66469405730791" cy="54.90199936746482" r="0.3173030324905941"></circle><circle cx="85.9160756908594" cy="52.45672688112825" r="0.09066869433165001"></circle><circle cx="85.9160756908594" cy="47.54327311887173" r="0.1839902455048624"></circle><circle cx="85.66469405730791" cy="45.09800063253516" r="0.17269666853360274"></circle><circle cx="85.24702715656366" cy="42.67558353010537" r="0.1952422730733809"></circle><circle cx="84.66502234452079" cy="40.287316238347216" r="0.35212041470528"></circle><circle cx="83.01960685419637" cy="35.657560765535436" r="0.08542816670869932"></circle><circle cx="81.96386786248553" cy="33.43765864167856" r="0.35272560578686574"></circle><circle cx="80.75909856367356" cy="31.294977798724336" r="0.17359980332462208"></circle><circle cx="79.41091614837596" cy="29.239508403864857" r="0.2589830302743106"></circle><circle cx="77.92560646535911" cy="27.28083400426209" r="0.05469738111071429"></circle><circle cx="76.3100947140124" cy="25.428086844128366" r="0.22199645540215782"></circle><circle cx="72.71916599573805" cy="22.074393534641008" r="0.18825784720658975"></circle><circle cx="70.7604915961353" cy="20.589083851624135" r="0.2619613250073689"></circle><circle cx="68.70502220127581" cy="19.240901436326535" r="0.015899767571124185"></circle><circle cx="66.5623413583216" cy="18.036132137514556" r="0.24544749979481426"></circle><circle cx="64.34243923446472" cy="16.980393145803703" r="0.36584245815314065"></circle><circle cx="62.05566603815544" cy="16.078606803722437" r="0.1918622287942323"></circle><circle cx="57.3244164698948" cy="14.752972843436368" r="0.046932658752024875"></circle><circle cx="47.54327311887193" cy="14.083924309140585" r="0.001740481424485657"></circle><circle cx="42.675583530105314" cy="14.752972843436353" r="0.22664296396990966"></circle><circle cx="40.28731623834715" cy="15.334977655479214" r="0.09526191773702439"></circle><circle cx="37.94433396184467" cy="16.0786068037224" r="0.15395820760235987"></circle><circle cx="35.65756076553538" cy="16.98039314580366" r="0.2234649579106873"></circle><circle cx="33.4376586416785" cy="18.0361321375145" r="0.2181678336001793"></circle><circle cx="29.239508403864804" cy="20.58908385162407" r="0.16472897457976662"></circle><circle cx="27.28083400426204" cy="22.074393534640937" r="0.0025925753950124253"></circle><circle cx="25.42808684412851" cy="23.68990528598748" r="0.1343338224798762"></circle><circle cx="23.68990528598769" cy="25.428086844128284" r="0.1830002085559662"></circle><circle cx="22.07439353464097" cy="27.280834004262" r="0.3670895570143712"></circle><circle cx="20.5890838516241" cy="29.23950840386476" r="0.29508186941210846"></circle><circle cx="19.240901436326503" cy="31.29497779872424" r="0.2579106410650486"></circle><circle cx="18.036132137514528" cy="33.43765864167845" r="0.16913153430989933"></circle><circle cx="16.98039314580368" cy="35.65756076553533" r="0.19413418460237528"></circle><circle cx="16.078606803722415" cy="37.94433396184462" r="0.09296189893138138"></circle><circle cx="14.75297284343636" cy="42.675583530105264" r="0.2968474176221686"></circle><circle cx="14.335305942692102" cy="45.09800063253505" r="0.05161660553493372"></circle><circle cx="14.083924309140599" cy="47.54327311887162" r="0.056674613946169544"></circle><circle cx="14" cy="49.99999999999988" r="0.05640403626095655"></circle><circle cx="14.083924309140585" cy="52.456726881128134" r="0.30220182019375674"></circle><circle cx="14.335305942692067" cy="54.901999367464704" r="0.21234946185191647"></circle><circle cx="14.75297284343636" cy="57.32441646989475" r="0.15869116327920127"></circle><circle cx="16.98039314580368" cy="64.34243923446468" r="0.03809557373437453"></circle><circle cx="18.03613213751453" cy="66.56234135832155" r="0.22476821754759488"></circle><circle cx="20.58908385162396" cy="70.76049159613504" r="0.13119327850905335"></circle><circle cx="22.074393534640812" cy="72.71916599573781" r="0.3873024425864129"></circle><circle cx="27.280834004262047" cy="77.92560646535907" r="0.09058398174663393"></circle><circle cx="29.239508403864814" cy="79.41091614837593" r="0.3146287152227827"></circle><circle cx="31.294977798724293" cy="80.75909856367353" r="0.1404088992421327"></circle><circle cx="33.43765864167851" cy="81.9638678624855" r="0.31650967679882014"></circle><circle cx="35.65756076553539" cy="83.01960685419635" r="0.14428809647544402"></circle><circle cx="40.28731623834692" cy="84.66502234452071" r="0.21646210017385611"></circle><circle cx="42.67558353010507" cy="85.2470271565636" r="0.33253978583277644"></circle><circle cx="45.09800063253511" cy="85.66469405730791" r="0.022047602602761146"></circle><circle cx="47.54327311887168" cy="85.9160756908594" r="0.3413445892448771"></circle><circle cx="49.999999999999936" cy="86" r="0.3284005325737802"></circle><circle cx="52.4567268811282" cy="85.9160756908594" r="0.20425474684546116"></circle><circle cx="57.32441646989481" cy="85.24702715656363" r="0.1127096717130048"></circle><circle cx="59.71268376165296" cy="84.66502234452075" r="0.17518610967359846"></circle><circle cx="62.055666038155444" cy="83.92139319627756" r="0.33584017526283616"></circle><circle cx="64.34243923446449" cy="83.0196068541964" r="0.038449313726129114"></circle><circle cx="41.261114417503784" cy="86.46754555458922" r="0.31604158709734964"></circle><circle cx="43.72960793159427" cy="86.97204597136158" r="0.12917669559127218"></circle><circle cx="46.22640674636605" cy="87.30965014518534" r="0.17933913148468159"></circle><circle cx="48.740240012975725" cy="87.4788340903915" r="0.07160452957723992"></circle><circle cx="51.25975998702415" cy="87.4788340903915" r="0.29649945611461315"></circle><circle cx="53.77359325363382" cy="87.30965014518534" r="0.27946466095244205"></circle><circle cx="56.2703920684056" cy="86.97204597136161" r="0.26027823546902673"></circle><circle cx="61.16793072057798" cy="85.79842627016404" r="0.17453819771033438"></circle><circle cx="63.54656248201802" cy="84.96770860266344" r="0.03660628988288736"></circle><circle cx="65.86404343820213" cy="83.97914251111756" r="0.05499045634550212"></circle><circle cx="68.1099122025733" cy="82.83719050124549" r="0.2070994799550698"></circle><circle cx="70.27403065458473" cy="81.5470074811694" r="0.17541009975500108"></circle><circle cx="74.31835339168006" cy="78.5458874151315" r="0.38627975611820753"></circle><circle cx="76.18030111961741" cy="76.8484977845346" r="0.33552666318783575"></circle><circle cx="77.92406783318775" cy="75.02991081980775" r="0.250543332057777"></circle><circle cx="79.5417819606281" cy="73.09833584028745" r="0.06958823527876154"></circle><circle cx="82.37044421702174" cy="68.93156996111742" r="0.12783352825480895"></circle><circle cx="83.56862342581482" cy="66.71518834162023" r="0.015888367249563967"></circle><circle cx="84.61526984859276" cy="64.42335236029075" r="0.13066299571379655"></circle><circle cx="85.50565879806615" cy="62.0664076391985" r="0.3160161756781663"></circle><circle cx="86.80231049637747" cy="57.19999598112559" r="0.15556478331298682"></circle><circle cx="87.20272000417398" cy="54.712496609126916" r="0.08115133367922209"></circle><circle cx="87.39288853057937" cy="47.16770634649845" r="0.04484945210409205"></circle><circle cx="87.118304070535" cy="44.66319356475204" r="0.1371803620592935"></circle><circle cx="86.67616314096783" cy="42.182771766341176" r="0.391040957197608"></circle><circle cx="86.06846161898075" cy="39.737637872297014" r="0.32812869716054016"></circle><circle cx="85.29794274201674" cy="37.33882950982387" r="0.23695026824510942"></circle><circle cx="82.04784155790361" cy="30.527304976467548" r="0.18064813832174106"></circle><circle cx="80.66793026421584" cy="28.419266617902114" r="0.21404389634253138"></circle><circle cx="79.1495802608049" cy="26.40864627413481" r="0.292197775166406"></circle><circle cx="77.49964556140975" cy="24.504520126170657" r="0.1782315397260353"></circle><circle cx="75.72557416884435" cy="22.715483627462103" r="0.2690552112430029"></circle><circle cx="73.83537445382166" cy="21.049612703003334" r="0.003954017946298433"></circle><circle cx="71.83757900420812" cy="19.514427293636615" r="0.1660949272488159"></circle><circle cx="69.7412061079008" cy="18.11685741013944" r="0.007222863054474921"></circle><circle cx="67.55571904319646" cy="16.863211850326394" r="0.28329407936327244"></circle><circle cx="65.29098336041889" cy="15.759149720379426" r="0.35414019385822937"></circle><circle cx="62.957222347643935" cy="14.809654888965404" r="0.33885186107935594"></circle><circle cx="58.12502787173973" cy="13.3907945718095" r="0.13961822261645582"></circle><circle cx="55.64840751313385" cy="12.927833991448878" r="0.1611524506410412"></circle><circle cx="50.62996889221555" cy="12.505291850784587" r="0.08219036375347075"></circle><circle cx="48.110804462800495" cy="12.547617696303675" r="0.04883709078743945"></circle><circle cx="43.109393081878636" cy="13.138508761853679" r="0.16841767176815178"></circle><circle cx="40.64972310026882" cy="13.684406628854966" r="0.20717293553261615"></circle><circle cx="35.86792065759682" cy="15.264796913505442" r="0.2052670846476445"></circle><circle cx="33.567373825386" cy="16.292155260156562" r="0.38826936844818294"></circle><circle cx="31.341005835548295" cy="17.47167485450631" r="0.31642516679610344"></circle><circle cx="29.19886677979906" cy="18.798031203857455" r="0.3568338419457502"></circle><circle cx="27.150626530359375" cy="20.26523697681646" r="0.3842194271099265"></circle><circle cx="23.372360849450338" cy="23.595098309819164" r="0.2942665630533472"></circle><circle cx="21.659390961715328" cy="25.44272247705179" r="0.27131697735678273"></circle><circle cx="20.07435397699108" cy="27.401201135777807" r="0.33409008254859496"></circle><circle cx="18.624404942036012" cy="29.46169347880245" r="0.02782860692930253"></circle><circle cx="17.31608910042698" cy="31.61489819694294" r="0.30003637197212907"></circle><circle cx="16.155312346544378" cy="33.851095466254414" r="0.1613524198457221"></circle><circle cx="15.147314565659634" cy="36.16019082447598" r="0.05741524467681944"></circle><circle cx="13.607146610819598" cy="40.95509965817088" r="0.17180852678862177"></circle><circle cx="13.081928939448957" cy="43.41926834097427" r="0.10675100162006099"></circle><circle cx="12.723363861815933" cy="45.91314323453469" r="0.05035032759395572"></circle><circle cx="12.53306998361942" cy="48.425466688939245" r="0.30696323962232086"></circle><circle cx="12.51190631421349" cy="50.94489777526137" r="0.22293238416504244"></circle><circle cx="12.976587837851689" cy="55.959610043592505" r="0.0076052157516064145"></circle><circle cx="14.109027389499794" cy="60.86683417892828" r="0.02613466210772228"></circle><circle cx="14.919735524485773" cy="63.25235995315455" r="0.28625770105192194"></circle><circle cx="15.888800174205542" cy="65.5780629875707" r="0.05595217095667335"></circle><circle cx="18.283806028974308" cy="70.00832426747111" r="0.029023641976774733"></circle><circle cx="19.69893589079077" cy="72.09288378301014" r="0.3833725902745121"></circle><circle cx="21.250848384574308" cy="74.07771337551111" r="0.014995503055962062"></circle><circle cx="22.93253799148532" cy="75.95385328650862" r="0.3901290996166382"></circle><circle cx="24.73641336325411" cy="77.71283439577472" r="0.12968520298217265"></circle><circle cx="26.654331590437074" cy="79.34671645194288" r="0.19087155240750328"></circle><circle cx="30.79719003969133" cy="82.21027925411809" r="0.2812967648855117"></circle><circle cx="33.00342890261212" cy="83.42703353472214" r="0.18489065272574787"></circle><circle cx="35.28639232282008" cy="84.49289418303474" r="0.04908012857900487"></circle><circle cx="37.63577473004982" cy="85.40304977645182" r="0.29527070943952083"></circle><circle cx="16.012114498536228" cy="69.12651664938988" r="0.01350832682185718"></circle><circle cx="17.350507347761358" cy="71.33097816677461" r="0.28878137285424277"></circle><circle cx="18.831668121097994" cy="73.44216474403805" r="0.35959789216014526"></circle><circle cx="20.449120079346926" cy="75.45084469944256" r="0.12384812347135973"></circle><circle cx="22.195790516635398" cy="77.34823458662694" r="0.22539404210915934"></circle><circle cx="24.064041687559907" cy="79.12603760238198" r="0.27868621646631664"></circle><circle cx="26.045704205102837" cy="80.77647986645925" r="0.10605821616776887"></circle><circle cx="28.13211276328476" cy="82.29234441477278" r="0.30347243325214623"></circle><circle cx="30.31414402834098" cy="83.66700275734532" r="0.041566165881326306"></circle><circle cx="32.58225653274056" cy="84.89444386300977" r="0.04357040441289592"></circle><circle cx="34.92653239759425" cy="85.96930044411795" r="0.27748841918089884"></circle><circle cx="37.33672070101737" cy="86.88687242632476" r="0.37915849414525415"></circle><circle cx="39.802282302800926" cy="87.64314750081658" r="0.16576511777306022"></circle><circle cx="44.856205317659224" cy="88.65929870375203" r="0.3629769661092477"></circle><circle cx="49.99999999999992" cy="89" r="0.20940625458830983"></circle><circle cx="52.57753278870207" cy="88.91473146153223" r="0.22642710885956815"></circle><circle cx="55.14379468234035" cy="88.65929870375209" r="0.3078377268765081"></circle><circle cx="60.197717697198925" cy="87.64314750081661" r="0.12857132888738818"></circle><circle cx="62.66327929898249" cy="86.88687242632481" r="0.29639655077173954"></circle><circle cx="65.07346760240536" cy="85.96930044411812" r="0.11635477827095983"></circle><circle cx="69.6858559716589" cy="83.66700275734539" r="0.20822225255391588"></circle><circle cx="71.8678872367151" cy="82.29234441477287" r="0.29791445521835414"></circle><circle cx="73.95429579489682" cy="80.77647986645952" r="0.1256047821093452"></circle><circle cx="75.93595831244019" cy="79.1260376023819" r="0.39107914032560687"></circle><circle cx="77.80420948336449" cy="77.34823458662706" r="0.016317350000214365"></circle><circle cx="79.55087992065297" cy="75.45084469944267" r="0.2272493196034112"></circle><circle cx="81.16833187890191" cy="73.44216474403818" r="0.30298179540206804"></circle><circle cx="82.64949265223841" cy="71.33097816677497" r="0.035545798304313675"></circle><circle cx="83.98788550146384" cy="69.12651664938979" r="0.2873838610184297"></circle><circle cx="86.2136075010985" cy="64.47669270781081" r="0.22168563351144985"></circle><circle cx="87.09120413551088" cy="62.05166278062329" r="0.12329073629009299"></circle><circle cx="87.8066103716339" cy="59.5739339984911" r="0.06484442606559801"></circle><circle cx="88.3566979200229" cy="57.05434083895235" r="0.32675323626913366"></circle><circle cx="88.73906138779186" cy="54.50390084181405" r="0.36762321353265814"></circle><circle cx="88.95202879678388" cy="51.93376643225599" r="0.009472046299500575"></circle><circle cx="88.99466889470628" cy="49.35517615411192" r="0.1185125587309451"></circle><circle cx="88.86679522726013" cy="46.779405526579076" r="0.3800337656184193"></circle><circle cx="88.56896695345729" cy="44.21771773923833" r="0.03814301572278553"></circle><circle cx="87.46939336933713" cy="39.18128655828821" r="0.38766451213115694"></circle><circle cx="86.67245621453029" cy="36.72856619677593" r="0.027404201972659442"></circle><circle cx="85.71515973954729" cy="34.33387843853432" r="0.31804334366277454"></circle><circle cx="84.601689958301" cy="32.007694643831414" r="0.09648117259639963"></circle><circle cx="83.33691579083609" cy="29.760186622532714" r="0.33671147157855474"></circle><circle cx="81.92636777278099" cy="27.60118215536518" r="0.26126855327936516"></circle><circle cx="80.37621387172246" cy="25.54012201953214" r="0.2849295920154431"></circle><circle cx="78.6932325162523" cy="23.586018706596274" r="0.0726474875621109"></circle><circle cx="76.88478295562413" cy="21.747417013147597" r="0.33468504767954266"></circle><circle cx="74.95877307962931" cy="20.032356676582467" r="0.007465423717998604"></circle><circle cx="72.92362483940651" cy="18.4483372193771" r="0.16973863315299617"></circle><circle cx="70.78823742039194" cy="17.00228515558363" r="0.11367765203780641"></circle><circle cx="68.56194832844592" cy="15.70052370294696" r="0.019128324671620484"></circle><circle cx="66.2544925593165" cy="14.548745133082747" r="0.14637936290492556"></circle><circle cx="63.87596002997819" cy="13.551985880621046" r="0.24810099045445763"></circle><circle cx="61.436751457994305" cy="12.714604520160101" r="0.16660457819132765"></circle><circle cx="58.94753288182335" cy="12.040262707327777" r="0.3137042182508306"></circle><circle cx="56.41918902094879" cy="11.531909167293854" r="0.34879097574147166"></circle><circle cx="53.86277567976807" cy="11.19176680074456" r="0.26478294114397394"></circle><circle cx="51.289471403375174" cy="11.021322963703888" r="0.23349753447523233"></circle><circle cx="48.71052859662499" cy="11.02132296370388" r="0.26190717442798994"></circle><circle cx="46.13722432023209" cy="11.191766800744539" r="0.19911466966520694"></circle><circle cx="38.56324854200585" cy="12.714604520160059" r="0.11242528486946832"></circle><circle cx="36.12403997002196" cy="13.55198588062099" r="0.26338570765768565"></circle><circle cx="33.74550744068364" cy="14.548745133082676" r="0.2506197430175051"></circle><circle cx="27.076375160593614" cy="18.448337219377002" r="0.05852199436421776"></circle><circle cx="25.04122692037082" cy="20.032356676582364" r="0.16614064770533118"></circle><circle cx="23.11521704437598" cy="21.747417013147484" r="0.2973179811241734"></circle><circle cx="19.62378612827765" cy="25.540122019532017" r="0.24246305491649664"></circle><circle cx="18.073632227219104" cy="27.601182155365045" r="0.34163487685224037"></circle><circle cx="15.39831004169909" cy="32.00769464383127" r="0.3444660952743568"></circle><circle cx="14.284840260452768" cy="34.33387843853417" r="0.38391849250413046"></circle><circle cx="13.327543785469764" cy="36.72856619677577" r="0.06551317230102291"></circle><circle cx="12.530606630662923" cy="39.18128655828805" r="0.3379093942157556"></circle><circle cx="11.43103304654273" cy="44.21771773923817" r="0.26677749707684995"></circle><circle cx="11.133204772739887" cy="46.77940552657891" r="0.20131226808584476"></circle><circle cx="11.047971203216122" cy="51.93376643225584" r="0.3733237328880016"></circle><circle cx="11.260938612208115" cy="54.50390084181389" r="0.08164566861898334"></circle><circle cx="11.643302079977069" cy="57.054340838952186" r="0.2333698668391286"></circle><circle cx="12.193389628366056" cy="59.57393399849094" r="0.007200447216080236"></circle><circle cx="12.908795864489072" cy="62.05166278062313" r="0.19436844834899233"></circle><circle cx="14.080290035212727" cy="31.29105999674054" r="0.29272602860816954"></circle><circle cx="12.939110085441683" cy="33.667809738403434" r="0.025438357345352686"></circle><circle cx="11.954990832098503" cy="36.1137738238825" r="0.0769586269618043"></circle><circle cx="11.132102883488997" cy="38.61858647881047" r="0.32686922748151515"></circle><circle cx="9.662197978546395" cy="46.378987975991585" r="0.0577924002634401"></circle><circle cx="9.533529744041665" cy="51.64766046976908" r="0.0323586383762767"></circle><circle cx="9.726480951680522" cy="54.27710924160793" r="0.11009551691517358"></circle><circle cx="10.090107687184805" cy="56.88843201167689" r="0.35065863451282697"></circle><circle cx="10.622868933367691" cy="59.47056223047295" r="0.3695946851981432"></circle><circle cx="12.186056573623503" cy="64.50364376792251" r="0.31495862013877063"></circle><circle cx="13.209858319988506" cy="66.93326534265263" r="0.16575778430616891"></circle><circle cx="14.38957335627353" cy="69.29112527178692" r="0.01608204480284789"></circle><circle cx="15.720202156951466" cy="71.56723115839688" r="0.14366192951673493"></circle><circle cx="17.196105637623553" cy="73.75193707178525" r="0.25809842012836726"></circle><circle cx="20.558128503687346" cy="77.81054121721856" r="0.043413778393610575"></circle><circle cx="22.429999940528226" cy="79.66723945231047" r="0.09644506418776363"></circle><circle cx="24.418710541777735" cy="81.39821061230475" r="0.3471229451687473"></circle><circle cx="26.51583233194055" cy="82.9961189981257" r="0.3220494860756916"></circle><circle cx="28.712477898717637" cy="84.45419281868921" r="0.1494505313591201"></circle><circle cx="30.999338057053624" cy="85.76625288913935" r="0.31885982840746363"></circle><circle cx="33.36672130062123" cy="86.92673881767509" r="0.37915896045955055"></circle><circle cx="35.80459487354752" cy="87.93073256998719" r="0.2597633006730343"></circle><circle cx="38.302627288325056" cy="88.77397931144239" r="0.08460766174756137"></circle><circle cx="43.43661281912959" cy="89.96463372425657" r="0.018608865120940926"></circle><circle cx="46.050808569243955" cy="90.30699551000103" r="0.3655601810283682"></circle><circle cx="56.56338718087023" cy="89.9646337242566" r="0.14091067459757664"></circle><circle cx="59.14976789027916" cy="89.45290543868748" r="0.3025972866503298"></circle><circle cx="64.19540512645231" cy="87.93073256998724" r="0.2330470673493051"></circle><circle cx="66.63327869937861" cy="86.92673881767516" r="0.0020264966986054123"></circle><circle cx="69.00066194294622" cy="85.76625288913944" r="0.26950137818773434"></circle><circle cx="73.4841676680593" cy="82.99611899812581" r="0.30806976372597095"></circle><circle cx="75.58128945822213" cy="81.39821061230487" r="0.09135607661708042"></circle><circle cx="77.57000005947164" cy="79.66723945231058" r="0.3589382663613948"></circle><circle cx="79.44187149631253" cy="77.81054121721868" r="0.15574862829147226"></circle><circle cx="81.18897094705132" cy="75.83598442606723" r="0.3737918777666348"></circle><circle cx="82.80389436237634" cy="73.7519370717854" r="0.35821801176432433"></circle><circle cx="84.27979784304844" cy="71.56723115839704" r="0.1406018078196348"></circle><circle cx="85.61042664372638" cy="69.29112527178708" r="0.29980367987838585"></circle><circle cx="86.79014168001142" cy="66.9332653426528" r="0.3005560554987322"></circle><circle cx="87.81394342637644" cy="64.50364376792268" r="0.006507149395403727"></circle><circle cx="89.37713106663227" cy="59.47056223047312" r="0.016130030581652383"></circle><circle cx="89.90989231281516" cy="56.88843201167706" r="0.3002567276238023"></circle><circle cx="90.46647025595831" cy="51.64766046976926" r="0.19241351763429224"></circle><circle cx="90.48792822598118" cy="49.0112290620187" r="0.11488862587076751"></circle><circle cx="90.33780202145363" cy="46.37898797599176" r="0.026410102746005054"></circle><circle cx="90.01672786363986" cy="43.76209241112137" r="0.09895612646998117"></circle><circle cx="89.52606643575466" cy="41.171632533910426" r="0.22245215748444233"></circle><circle cx="88.86789711651105" cy="38.61858647881064" r="0.24842612414245543"></circle><circle cx="88.04500916790155" cy="36.11377382388266" r="0.08800451317488986"></circle><circle cx="87.06088991455839" cy="33.667809738403605" r="0.23747732597011204"></circle><circle cx="85.91970996478736" cy="31.291059996740696" r="0.01699081516766396"></circle><circle cx="84.62630553590739" cy="28.993597049137875" r="0.10753306764042189"></circle><circle cx="83.18615795879943" cy="26.78515733558349" r="0.33831689279943744"></circle><circle cx="81.60537044852228" cy="24.67510002365903" r="0.1585569004620447"></circle><circle cx="79.89064223943973" cy="22.672367345234203" r="0.2981035860080108"></circle><circle cx="78.04924019447179" cy="20.78544670009778" r="0.3644066638461322"></circle><circle cx="76.08896800878753" cy="19.022334687125618" r="0.22879951576063493"></circle><circle cx="74.01813313845153" cy="17.390503215418725" r="0.3299357010252154"></circle><circle cx="71.8455115941763" cy="15.89686783902821" r="0.29920095209622133"></circle><circle cx="69.5803107493847" cy="14.547758449464297" r="0.09626096206693754"></circle><circle cx="67.23213032019395" cy="13.348892450188458" r="0.11834092613464772"></circle><circle cx="64.81092168268803" cy="12.305350526775271" r="0.35369185564665817"></circle><circle cx="59.790729237136986" cy="10.701251661088861" r="0.18865768748279307"></circle><circle cx="57.21302055021059" cy="10.14749274459335" r="0.22636458050483463"></circle><circle cx="54.604743735169166" cy="9.76262514609806" r="0.19986837713022707"></circle><circle cx="49.34078298545638" cy="9.505365380982433" r="0.024726827311275817"></circle><circle cx="46.70740723990904" cy="9.634063457957566" r="0.14261770351682954"></circle><circle cx="44.08798520440874" cy="9.933828719770212" r="0.04446336308108875"></circle><circle cx="41.49361775241219" cy="10.403390788377813" r="0.16254056738038622"></circle><circle cx="38.935299578319324" cy="11.040759702241893" r="0.17480059047803995"></circle><circle cx="33.969980026483924" cy="12.807413915557369" r="0.20817253277846479"></circle><circle cx="31.584021223504067" cy="13.92921229438354" r="0.354281889553258"></circle><circle cx="29.27610767142632" cy="15.203875406107578" r="0.005210000546870014"></circle><circle cx="27.05602009895473" cy="16.626001343854064" r="0.15879051093388716"></circle><circle cx="21.014700079279407" cy="21.713918820277087" r="0.0033032350737764726"></circle><circle cx="52.690949239189955" cy="8.086293504485873" r="0.23721967384833884"></circle><circle cx="50.00000000000025" cy="8" r="0.1671744720776572"></circle><circle cx="44.629159209250574" cy="8.344819419423686" r="0.14477780204701138"></circle><circle cx="39.34650747580097" cy="9.373615752360692" r="0.3697302697666478"></circle><circle cx="31.776882957062647" cy="12.159307548098354" r="0.15220641624981154"></circle><circle cx="29.3898628158349" cy="13.404614426817488" r="0.1796637868608156"></circle><circle cx="27.08753414915693" cy="14.800299594542707" r="0.35405560098370803"></circle><circle cx="24.879357719369096" cy="16.340627881545693" r="0.22387434155053795"></circle><circle cx="22.774407397072995" cy="18.01926974849626" r="0.012037808493457897"></circle><circle cx="20.78133287465363" cy="19.82932729589539" r="0.16364576535515826"></circle><circle cx="18.90832412283676" cy="21.763362609024686" r="0.15356649341823989"></circle><circle cx="17.1630777363429" cy="23.813428321933" r="0.17958639881225366"></circle><circle cx="15.552765306927789" cy="25.971100274868967" r="0.2692513811002032"></circle><circle cx="14.084003953775522" cy="28.227512130957845" r="0.026962718324978402"></circle><circle cx="12.762829132334026" cy="30.573391809884868" r="0.24851675091400113"></circle><circle cx="11.594669833335878" cy="32.999099588859465" r="0.3823056505484135"></circle><circle cx="10.584326273910037" cy="35.494667714305145" r="0.1170480433517935"></circle><circle cx="9.7359501724603" cy="38.04984136149648" r="0.33849645323302846"></circle><circle cx="9.0530276883635" cy="40.65412077383441" r="0.18345019243563485"></circle><circle cx="8.538365096593104" cy="43.296804408598035" r="0.11311999720830732"></circle><circle cx="8.194077256133674" cy="45.967032911877396" r="0.3621024156274728"></circle><circle cx="8.021578919571112" cy="51.346166258009674" r="0.2369267187965027"></circle><circle cx="8.194077256133667" cy="54.032967088122554" r="0.25023892183188634"></circle><circle cx="8.538365096593047" cy="56.70319559140162" r="0.042974986046775604"></circle><circle cx="11.594669833335729" cy="67.00090041114021" r="0.38695366655742447"></circle><circle cx="12.762829132333998" cy="69.42660819011509" r="0.3201855729360421"></circle><circle cx="14.084003953775344" cy="71.77248786904185" r="0.0685399095818697"></circle><circle cx="15.55276530692776" cy="74.028899725131" r="0.23238262197939272"></circle><circle cx="17.163077736342686" cy="76.18657167806673" r="0.13061747143168798"></circle><circle cx="18.90832412283672" cy="78.23663739097528" r="0.3783700839209241"></circle><circle cx="24.879357719368812" cy="83.65937211845409" r="0.32607939854838863"></circle><circle cx="27.087534149156888" cy="85.19970040545726" r="0.3510921793626728"></circle><circle cx="31.7768829570626" cy="87.84069245190162" r="0.02810229143935647"></circle><circle cx="34.238785795066114" cy="88.93050380853285" r="0.16952112523494697"></circle><circle cx="36.76545484300753" cy="89.86034137444796" r="0.06762041653674353"></circle><circle cx="39.346507475800635" cy="90.62638424763921" r="0.10225467397448126"></circle><circle cx="41.97133759454237" cy="91.22548459362474" r="0.11626886019681135"></circle><circle cx="44.62915920925052" cy="91.65518058057631" r="0.2909204752170528"></circle><circle cx="47.30905076081019" cy="91.91370649551413" r="0.019948349825948147"></circle><circle cx="49.9999999999999" cy="92" r="0.24951855317411828"></circle><circle cx="52.69094923918961" cy="91.91370649551415" r="0.11335256342760489"></circle><circle cx="55.37084079074928" cy="91.65518058057634" r="0.3255307146195394"></circle><circle cx="58.02866240545743" cy="91.22548459362478" r="0.1988898956102841"></circle><circle cx="60.653492524199166" cy="90.62638424763927" r="0.3495293524202233"></circle><circle cx="63.234545156992276" cy="89.86034137444801" r="0.14239252268766475"></circle><circle cx="65.7612142049337" cy="88.93050380853293" r="0.11882517144663682"></circle><circle cx="68.22311704293722" cy="87.8406924519017" r="0.02380366649801799"></circle><circle cx="70.61013718416523" cy="86.59538557318244" r="0.07695071889078806"></circle><circle cx="72.91246585084293" cy="85.19970040545738" r="0.025944562070723903"></circle><circle cx="79.21866712534649" cy="80.1706727041045" r="0.11372522923710468"></circle><circle cx="81.09167587716314" cy="78.23663739097543" r="0.02373685655760191"></circle><circle cx="84.44723469307212" cy="74.02889972513115" r="0.1867388262801419"></circle><circle cx="85.91599604622455" cy="71.77248786904204" r="0.24215407389922392"></circle><circle cx="87.23717086766591" cy="69.42660819011527" r="0.34973300954367526"></circle><circle cx="88.40533016666419" cy="67.0009004111404" r="0.2372999734324198"></circle><circle cx="89.4156737260899" cy="64.505332285695" r="0.385538731593307"></circle><circle cx="90.94697231163647" cy="59.34587922616574" r="0.3712635716724283"></circle><circle cx="91.46163490340692" cy="56.70319559140182" r="0.36778414792805747"></circle><circle cx="91.97842108042889" cy="51.34616625800988" r="0.0095418941892422"></circle><circle cx="91.97842108042889" cy="48.653833741990184" r="0.35784746111210486"></circle><circle cx="91.80592274386635" cy="45.967032911877595" r="0.003588612626337001"></circle><circle cx="91.46163490340693" cy="43.29680440859824" r="0.016027530002771656"></circle><circle cx="90.94697231163661" cy="40.6541207738349" r="0.3124348575275505"></circle><circle cx="90.26404982753976" cy="38.049841361496675" r="0.27935430270452855"></circle><circle cx="89.41567372608992" cy="35.49466771430506" r="0.2205683667727488"></circle><circle cx="88.40533016666433" cy="32.99909958885993" r="0.3425940517965639"></circle><circle cx="85.91599604622473" cy="28.227512130958274" r="0.07501480345616815"></circle><circle cx="84.44723469307232" cy="25.971100274869137" r="0.3806460033229233"></circle><circle cx="81.09167587716338" cy="21.763362609024835" r="0.3215098464830006"></circle><circle cx="79.21866712534651" cy="19.829327295895528" r="0.08921155367379871"></circle><circle cx="77.22559260292716" cy="18.019269748496395" r="0.1216300272343854"></circle><circle cx="75.12064228063107" cy="16.34062788154582" r="0.26072379757501085"></circle><circle cx="70.61013718416528" cy="13.40461442681758" r="0.004042015101816648"></circle><circle cx="92.65576553208462" cy="41.471479209627105" r="0.13135456795299813"></circle><circle cx="92.03254864648196" cy="38.79665878940004" r="0.16985065673659036"></circle></g></g>
  <desc>Created with Snap</desc></svg>
