<svg width="100%" height="100%" viewBox="0 0 100 100" version="1.1" xmlns="http://www.w3.org/2000/svg" id="decent-logo-svg">
       <defs>
         <style type="text/css">
           @import url("https://fonts.googleapis.com/css?family=Dosis:400,700")
         </style>
         <style type="text/css">
           #text text {
             font-family: 'Dosis'
           }
         </style>
       </defs>
       <g id="svg-content"><circle cx="50" cy="50" r="25" id="shape"></circle><g textAlign="center" fill="undefined" style="text-anchor: middle; stroke-width: 0;" stroke="rgba(0,0,0,0)" id="halftones"><circle cx="50" cy="75" r="1.625"></circle><circle cx="53.13333083910761" cy="74.80286753286194" r="1.625"></circle><circle cx="56.21724717912137" cy="74.21457902821578" r="1.625"></circle><circle cx="59.20311381711695" cy="73.24441214720629" r="1.625"></circle><circle cx="62.04384185254288" cy="71.9076670010966" r="1.625"></circle><circle cx="64.69463130731182" cy="70.22542485937369" r="1.625"></circle><circle cx="67.11367764821722" cy="68.22421568553528" r="1.625"></circle><circle cx="69.26283106939474" cy="65.93559974371723" r="1.625"></circle><circle cx="71.10819813755037" cy="63.39566987447491" r="1.625"></circle><circle cx="72.62067631165048" cy="60.64448228912681" r="1.625"></circle><circle cx="73.77641290737884" cy="57.72542485937369" r="1.625"></circle><circle cx="74.55718126821722" cy="54.68453286464312" r="1.625"></circle><circle cx="74.9506682107068" cy="51.56976298823284" r="1.625"></circle><circle cx="74.9506682107068" cy="48.43023701176716" r="1.625"></circle><circle cx="74.55718126821722" cy="45.31546713535688" r="1.625"></circle><circle cx="73.77641290737884" cy="42.27457514062632" r="1.625"></circle><circle cx="72.62067631165048" cy="39.35551771087318" r="1.625"></circle><circle cx="71.10819813755037" cy="36.60433012552508" r="1.625"></circle><circle cx="69.26283106939474" cy="34.06440025628275" r="1.625"></circle><circle cx="67.11367764821722" cy="31.775784314464715" r="1.625"></circle><circle cx="64.69463130731182" cy="29.774575140626318" r="1.625"></circle><circle cx="62.04384185254289" cy="28.092332998903412" r="1.625"></circle><circle cx="59.20311381711696" cy="26.755587852793717" r="1.625"></circle><circle cx="56.21724717912137" cy="25.785420971784223" r="1.625"></circle><circle cx="53.133330839107614" cy="25.197132467138054" r="1.625"></circle><circle cx="50" cy="25" r="1.625"></circle><circle cx="46.86666916089239" cy="25.197132467138054" r="1.625"></circle><circle cx="43.78275282087863" cy="25.785420971784223" r="1.625"></circle><circle cx="40.79688618288304" cy="26.75558785279372" r="1.625"></circle><circle cx="37.956158147457124" cy="28.09233299890341" r="1.625"></circle><circle cx="35.30536869268818" cy="29.774575140626315" r="1.625"></circle><circle cx="32.88632235178278" cy="31.775784314464712" r="1.625"></circle><circle cx="30.737168930605264" cy="34.06440025628276" r="1.625"></circle><circle cx="28.89180186244962" cy="36.604330125525095" r="1.625"></circle><circle cx="27.379323688349505" cy="39.355517710873194" r="1.625"></circle><circle cx="26.223587092621162" cy="42.27457514062631" r="1.625"></circle><circle cx="25.442818731782783" cy="45.31546713535688" r="1.625"></circle><circle cx="25.049331789293213" cy="48.43023701176717" r="1.625"></circle><circle cx="25.049331789293213" cy="51.569762988232824" r="1.625"></circle><circle cx="25.442818731782783" cy="54.6845328646431" r="1.625"></circle><circle cx="26.22358709262116" cy="57.72542485937368" r="1.625"></circle><circle cx="27.3793236883495" cy="60.6444822891268" r="1.625"></circle><circle cx="28.89180186244961" cy="63.3956698744749" r="1.625"></circle><circle cx="30.73716893060526" cy="65.93559974371723" r="1.625"></circle><circle cx="32.88632235178278" cy="68.22421568553528" r="1.625"></circle><circle cx="35.30536869268816" cy="70.22542485937367" r="1.625"></circle><circle cx="37.95615814745712" cy="71.9076670010966" r="1.625"></circle><circle cx="40.79688618288303" cy="73.24441214720628" r="1.625"></circle><circle cx="43.78275282087861" cy="74.21457902821578" r="1.625"></circle><circle cx="46.866669160892386" cy="74.80286753286194" r="1.625"></circle><circle cx="49.99999999999999" cy="77" r="1.375"></circle><circle cx="53.38399730623621" cy="76.78709693549091" r="1.375"></circle><circle cx="56.71462695345108" cy="76.15174535047304" r="1.375"></circle><circle cx="59.93936292248631" cy="75.10396511898279" r="1.375"></circle><circle cx="63.00734920074632" cy="73.6602803611843" r="1.375"></circle><circle cx="65.87020181189679" cy="71.84345884812357" r="1.375"></circle><circle cx="68.4827718600746" cy="69.6821529403781" r="1.375"></circle><circle cx="70.80385755494629" cy="67.21044772321464" r="1.375"></circle><circle cx="72.7968539885544" cy="64.46732346443292" r="1.375"></circle><circle cx="74.43033041658252" cy="61.49604087225697" r="1.375"></circle><circle cx="75.67852593996915" cy="58.34345884812359" r="1.375"></circle><circle cx="76.5217557696746" cy="55.05929549381457" r="1.375"></circle><circle cx="76.94672166756334" cy="51.69534402729146" r="1.375"></circle><circle cx="76.94672166756334" cy="48.30465597270856" r="1.375"></circle><circle cx="76.5217557696746" cy="44.940704506185426" r="1.375"></circle><circle cx="75.67852593996915" cy="41.656541151876425" r="1.375"></circle><circle cx="74.43033041658252" cy="38.503959127743016" r="1.375"></circle><circle cx="72.7968539885544" cy="35.53267653556709" r="1.375"></circle><circle cx="70.80385755494629" cy="32.78955227678536" r="1.375"></circle><circle cx="68.48277186007462" cy="30.317847059621915" r="1.375"></circle><circle cx="65.87020181189678" cy="28.156541151876425" r="1.375"></circle><circle cx="63.00734920074634" cy="26.339719638815694" r="1.375"></circle><circle cx="59.9393629224863" cy="24.89603488101721" r="1.375"></circle><circle cx="56.7146269534511" cy="23.848254649526964" r="1.375"></circle><circle cx="53.3839973062362" cy="23.212903064509096" r="1.375"></circle><circle cx="50.00000000000001" cy="23" r="1.375"></circle><circle cx="46.61600269376382" cy="23.212903064509096" r="1.375"></circle><circle cx="43.28537304654892" cy="23.84825464952696" r="1.375"></circle><circle cx="40.06063707751372" cy="24.896034881017204" r="1.375"></circle><circle cx="36.99265079925368" cy="26.339719638815687" r="1.375"></circle><circle cx="34.12979818810324" cy="28.156541151876414" r="1.375"></circle><circle cx="31.517228139925393" cy="30.317847059621904" r="1.375"></circle><circle cx="29.196142445053724" cy="32.789552276785344" r="1.375"></circle><circle cx="27.203146011445604" cy="35.53267653556708" r="1.375"></circle><circle cx="25.56966958341749" cy="38.503959127743" r="1.375"></circle><circle cx="24.32147406003086" cy="41.65654115187641" r="1.375"></circle><circle cx="23.478244230325412" cy="44.940704506185405" r="1.375"></circle><circle cx="23.05327833243667" cy="48.30465597270854" r="1.375"></circle><circle cx="23.05327833243667" cy="51.69534402729144" r="1.375"></circle><circle cx="23.47824423032541" cy="55.059295493814574" r="1.375"></circle><circle cx="24.321474060030848" cy="58.34345884812357" r="1.375"></circle><circle cx="25.56966958341748" cy="61.49604087225698" r="1.375"></circle><circle cx="27.20314601144559" cy="64.46732346443291" r="1.375"></circle><circle cx="29.19614244505371" cy="67.21044772321464" r="1.375"></circle><circle cx="31.517228139925376" cy="69.68215294037807" r="1.375"></circle><circle cx="34.129798188103216" cy="71.84345884812357" r="1.375"></circle><circle cx="36.99265079925366" cy="73.6602803611843" r="1.375"></circle><circle cx="40.06063707751369" cy="75.10396511898279" r="1.375"></circle><circle cx="43.2853730465489" cy="76.15174535047304" r="1.375"></circle><circle cx="46.61600269376379" cy="76.78709693549091" r="1.375"></circle><circle cx="49.999999999999986" cy="79" r="1.125"></circle><circle cx="53.634663773364785" cy="78.77132633811986" r="1.125"></circle><circle cx="57.21200672778078" cy="78.0889116727303" r="1.125"></circle><circle cx="60.675612027855635" cy="76.9635180907593" r="1.125"></circle><circle cx="63.97085654894975" cy="75.41289372127204" r="1.125"></circle><circle cx="67.0457723164817" cy="73.46149283687349" r="1.125"></circle><circle cx="69.85186607193198" cy="71.14009019522092" r="1.125"></circle><circle cx="72.34488404049789" cy="68.48529570271201" r="1.125"></circle><circle cx="74.48550983955845" cy="65.53897705439088" r="1.125"></circle><circle cx="76.23998452151457" cy="62.347599455387105" r="1.125"></circle><circle cx="77.58063897255947" cy="58.96149283687344" r="1.125"></circle><circle cx="78.48633027113198" cy="55.434058122986" r="1.125"></circle><circle cx="78.94277512441988" cy="51.82092506635004" r="1.125"></circle><circle cx="78.94277512441988" cy="48.17907493364999" r="1.125"></circle><circle cx="78.48633027113198" cy="44.56594187701403" r="1.125"></circle><circle cx="77.58063897255947" cy="41.03850716312659" r="1.125"></circle><circle cx="76.23998452151459" cy="37.65240054461293" r="1.125"></circle><circle cx="74.48550983955846" cy="34.461022945609145" r="1.125"></circle><circle cx="72.3448840404979" cy="31.51470429728802" r="1.125"></circle><circle cx="69.85186607193201" cy="28.859909804779097" r="1.125"></circle><circle cx="67.04577231648173" cy="26.538507163126532" r="1.125"></circle><circle cx="63.970856548949776" cy="24.587106278727976" r="1.125"></circle><circle cx="60.675612027855664" cy="23.03648190924071" r="1.125"></circle><circle cx="57.21200672778082" cy="21.911088327269706" r="1.125"></circle><circle cx="53.63466377336482" cy="21.22867366188014" r="1.125"></circle><circle cx="50.000000000000014" cy="21" r="1.125"></circle><circle cx="46.365336226635215" cy="21.228673661880137" r="1.125"></circle><circle cx="42.78799327221922" cy="21.911088327269695" r="1.125"></circle><circle cx="39.32438797214432" cy="23.036481909240717" r="1.125"></circle><circle cx="36.02914345105026" cy="24.587106278727955" r="1.125"></circle><circle cx="32.9542276835183" cy="26.538507163126514" r="1.125"></circle><circle cx="30.148133928068056" cy="28.85990980477904" r="1.125"></circle><circle cx="27.655115959502087" cy="31.514704297288034" r="1.125"></circle><circle cx="25.51449016044155" cy="34.461022945609116" r="1.125"></circle><circle cx="23.760015478485432" cy="37.652400544612895" r="1.125"></circle><circle cx="22.41936102744055" cy="41.03850716312651" r="1.125"></circle><circle cx="21.513669728868017" cy="44.56594187701405" r="1.125"></circle><circle cx="21.057224875580122" cy="48.17907493364996" r="1.125"></circle><circle cx="21.05722487558012" cy="51.82092506635001" r="1.125"></circle><circle cx="21.513669728868006" cy="55.43405812298592" r="1.125"></circle><circle cx="22.41936102744054" cy="58.96149283687346" r="1.125"></circle><circle cx="23.760015478485418" cy="62.34759945538707" r="1.125"></circle><circle cx="25.514490160441532" cy="65.53897705439086" r="1.125"></circle><circle cx="27.65511595950206" cy="68.48529570271194" r="1.125"></circle><circle cx="30.148133928068027" cy="71.14009019522094" r="1.125"></circle><circle cx="32.95422768351826" cy="73.46149283687346" r="1.125"></circle><circle cx="36.02914345105022" cy="75.41289372127203" r="1.125"></circle><circle cx="39.32438797214428" cy="76.96351809075927" r="1.125"></circle><circle cx="42.78799327221923" cy="78.0889116727303" r="1.125"></circle><circle cx="46.36533622663518" cy="78.77132633811986" r="1.125"></circle><circle cx="49.99999999999998" cy="81" r="0.375"></circle><circle cx="53.88533024049339" cy="80.75555574074882" r="0.375"></circle><circle cx="57.70938650211043" cy="80.02607799498759" r="0.375"></circle><circle cx="61.41186113322504" cy="78.82307106253579" r="0.375"></circle><circle cx="64.93436389715318" cy="77.16550708135978" r="0.375"></circle><circle cx="68.22134282106664" cy="75.07952682562339" r="0.375"></circle><circle cx="71.22096028378931" cy="72.5980274500638" r="0.375"></circle><circle cx="73.88591052604949" cy="69.76014368220935" r="0.375"></circle><circle cx="76.17416569056248" cy="66.61063064434887" r="0.375"></circle><circle cx="78.04963862644661" cy="63.199158038517254" r="0.375"></circle><circle cx="79.48275200514975" cy="59.57952682562339" r="0.375"></circle><circle cx="80.45090477258935" cy="55.8088207521574" r="0.375"></circle><circle cx="80.93882858127643" cy="51.94650610540867" r="0.375"></circle><circle cx="80.93882858127643" cy="48.05349389459138" r="0.375"></circle><circle cx="80.45090477258937" cy="44.19117924784265" r="0.375"></circle><circle cx="79.48275200514976" cy="40.42047317437665" r="0.375"></circle><circle cx="78.04963862644662" cy="36.80084196148279" r="0.375"></circle><circle cx="76.1741656905625" cy="33.38936935565116" r="0.375"></circle><circle cx="73.88591052604953" cy="30.23985631779069" r="0.375"></circle><circle cx="71.22096028378935" cy="27.401972549936247" r="0.375"></circle><circle cx="68.22134282106668" cy="24.920473174376646" r="0.375"></circle><circle cx="64.93436389715322" cy="22.834492918640255" r="0.375"></circle><circle cx="61.41186113322508" cy="21.176928937464233" r="0.375"></circle><circle cx="57.70938650211048" cy="19.97392200501243" r="0.375"></circle><circle cx="53.88533024049344" cy="19.24444425925119" r="0.375"></circle><circle cx="50.00000000000003" cy="19" r="0.375"></circle><circle cx="46.11466975950662" cy="19.244444259251182" r="0.375"></circle><circle cx="42.29061349788957" cy="19.973922005012415" r="0.375"></circle><circle cx="38.58813886677497" cy="21.17692893746421" r="0.375"></circle><circle cx="35.06563610284683" cy="22.834492918640226" r="0.375"></circle><circle cx="31.778657178933354" cy="24.920473174376614" r="0.375"></circle><circle cx="28.779039716210686" cy="27.401972549936207" r="0.375"></circle><circle cx="26.11408947395051" cy="30.23985631779065" r="0.375"></circle><circle cx="23.82583430943752" cy="33.38936935565111" r="0.375"></circle><circle cx="21.950361373553395" cy="36.800841961482746" r="0.375"></circle><circle cx="20.517247994850248" cy="40.4204731743766" r="0.375"></circle><circle cx="19.54909522741064" cy="44.1911792478426" r="0.375"></circle><circle cx="19.06117141872358" cy="48.05349389459132" r="0.375"></circle><circle cx="19.061171418723575" cy="51.94650610540862" r="0.375"></circle><circle cx="19.54909522741063" cy="55.808820752157345" r="0.375"></circle><circle cx="20.51724799485023" cy="59.57952682562335" r="0.375"></circle><circle cx="21.950361373553374" cy="63.199158038517204" r="0.375"></circle><circle cx="23.825834309437496" cy="66.61063064434883" r="0.375"></circle><circle cx="26.11408947395047" cy="69.7601436822093" r="0.375"></circle><circle cx="28.779039716210647" cy="72.59802745006375" r="0.375"></circle><circle cx="31.778657178933308" cy="75.07952682562336" r="0.375"></circle><circle cx="35.06563610284678" cy="77.16550708135975" r="0.375"></circle><circle cx="38.58813886677491" cy="78.82307106253577" r="0.375"></circle><circle cx="42.29061349788952" cy="80.02607799498756" r="0.375"></circle><circle cx="46.11466975950656" cy="80.7555557407488" r="0.375"></circle><circle cx="49.999999999999964" cy="83" r="0.5"></circle><circle cx="54.13599670762187" cy="82.73978514337779" r="0.5"></circle><circle cx="58.206766276440135" cy="81.96324431724484" r="0.5"></circle><circle cx="62.14811023859428" cy="80.68262403431234" r="0.5"></circle><circle cx="65.8978712453566" cy="78.9181204414475" r="0.5"></circle><circle cx="69.3969133256515" cy="76.69756081437336" r="0.5"></circle><circle cx="72.59005449564668" cy="74.05596470490661" r="0.5"></circle><circle cx="75.426937011601" cy="71.03499166170683" r="0.5"></circle><circle cx="77.8628215415665" cy="67.68228423430688" r="0.5"></circle><circle cx="79.85929273137859" cy="64.05071662164751" r="0.5"></circle><circle cx="81.38486503774006" cy="60.1975608143733" r="0.5"></circle><circle cx="82.41547927404672" cy="56.18358338132897" r="0.5"></circle><circle cx="82.93488203813297" cy="52.072087144467304" r="0.5"></circle><circle cx="82.93488203813297" cy="47.92791285553276" r="0.5"></circle><circle cx="82.41547927404673" cy="43.8164166186711" r="0.5"></circle><circle cx="81.38486503774007" cy="39.80243918562677" r="0.5"></circle><circle cx="79.85929273137862" cy="35.94928337835255" r="0.5"></circle><circle cx="77.86282154156655" cy="32.31771576569318" r="0.5"></circle><circle cx="75.42693701160104" cy="28.96500833829323" r="0.5"></circle><circle cx="72.59005449564674" cy="25.944035295093425" r="0.5"></circle><circle cx="69.39691332565155" cy="23.302439185626685" r="0.5"></circle><circle cx="65.89787124535665" cy="21.08187955855253" r="0.5"></circle><circle cx="62.14811023859434" cy="19.31737596568769" r="0.5"></circle><circle cx="58.2067662764402" cy="18.03675568275517" r="0.5"></circle><circle cx="54.135996707621935" cy="17.26021485662222" r="0.5"></circle><circle cx="50.000000000000036" cy="17" r="0.5"></circle><circle cx="45.864003292378136" cy="17.260214856622206" r="0.5"></circle><circle cx="41.79323372355987" cy="18.036755682755153" r="0.5"></circle><circle cx="37.85188976140573" cy="19.317375965687667" r="0.5"></circle><circle cx="34.10212875464341" cy="21.081879558552494" r="0.5"></circle><circle cx="30.60308667434851" cy="23.302439185626646" r="0.5"></circle><circle cx="27.40994550435332" cy="25.94403529509338" r="0.5"></circle><circle cx="24.57306298839901" cy="28.965008338293174" r="0.5"></circle><circle cx="22.1371784584335" cy="32.31771576569312" r="0.5"></circle><circle cx="20.140707268621412" cy="35.94928337835248" r="0.5"></circle><circle cx="18.615134962259944" cy="39.802439185626696" r="0.5"></circle><circle cx="17.58452072595329" cy="43.81641661867103" r="0.5"></circle><circle cx="17.06511796186704" cy="47.92791285553269" r="0.5"></circle><circle cx="17.06511796186703" cy="52.07208714446723" r="0.5"></circle><circle cx="17.584520725953276" cy="56.1835833813289" r="0.5"></circle><circle cx="18.61513496225992" cy="60.197560814373226" r="0.5"></circle><circle cx="20.14070726862138" cy="64.05071662164745" r="0.5"></circle><circle cx="22.137178458433453" cy="67.68228423430682" r="0.5"></circle><circle cx="24.573062988398963" cy="71.03499166170677" r="0.5"></circle><circle cx="27.40994550435326" cy="74.05596470490657" r="0.5"></circle><circle cx="30.60308667434845" cy="76.6975608143733" r="0.5"></circle><circle cx="34.102128754643346" cy="78.91812044144747" r="0.5"></circle><circle cx="37.85188976140566" cy="80.68262403431231" r="0.5"></circle><circle cx="41.793233723559794" cy="81.96324431724483" r="0.5"></circle><circle cx="45.86400329237806" cy="82.73978514337779" r="0.5"></circle><circle cx="49.99999999999996" cy="85" r="0.625"></circle><circle cx="54.38666317475046" cy="84.72401454600674" r="0.625"></circle><circle cx="58.70414605076983" cy="83.90041063950211" r="0.625"></circle><circle cx="62.88435934396362" cy="82.54217700608885" r="0.625"></circle><circle cx="66.86137859356002" cy="80.67073380153523" r="0.625"></circle><circle cx="70.57248383023642" cy="78.31559480312326" r="0.625"></circle><circle cx="73.95914870750414" cy="75.51390195974936" r="0.625"></circle><circle cx="76.96796349715248" cy="72.3098396412043" r="0.625"></circle><circle cx="79.55147739257053" cy="68.75393782426488" r="0.625"></circle><circle cx="81.66894683631068" cy="64.90227520477757" r="0.625"></circle><circle cx="83.28697807033036" cy="60.815594803123204" r="0.625"></circle><circle cx="84.38005377550408" cy="56.55834601050043" r="0.625"></circle><circle cx="84.9309354949895" cy="52.19766818352606" r="0.625"></circle><circle cx="84.93093549498951" cy="47.80233181647415" r="0.625"></circle><circle cx="84.38005377550408" cy="43.441653989499535" r="0.625"></circle><circle cx="83.28697807033043" cy="39.184405196877" r="0.625"></circle><circle cx="81.66894683631067" cy="35.097724795222405" r="0.625"></circle><circle cx="79.55147739257052" cy="31.246062175735094" r="0.625"></circle><circle cx="76.96796349715262" cy="27.690160358795858" r="0.625"></circle><circle cx="73.95914870750411" cy="24.48609804025061" r="0.625"></circle><circle cx="70.57248383023659" cy="21.684405196876867" r="0.625"></circle><circle cx="66.86137859356009" cy="19.329266198464808" r="0.625"></circle><circle cx="62.88435934396359" cy="17.457822993911144" r="0.625"></circle><circle cx="58.704146050770035" cy="16.099589360497937" r="0.625"></circle><circle cx="54.386663174750545" cy="15.275985453993265" r="0.625"></circle><circle cx="50.00000000000017" cy="15" r="0.625"></circle><circle cx="45.61333682524955" cy="15.27598545399325" r="0.625"></circle><circle cx="41.29585394923006" cy="16.099589360497916" r="0.625"></circle><circle cx="37.115640656036504" cy="17.45782299391111" r="0.625"></circle><circle cx="33.13862140643998" cy="19.32926619846476" r="0.625"></circle><circle cx="29.42751616976348" cy="21.684405196876813" r="0.625"></circle><circle cx="26.040851292495947" cy="24.48609804025055" r="0.625"></circle><circle cx="23.03203650284744" cy="27.690160358795787" r="0.625"></circle><circle cx="20.44852260742954" cy="31.246062175735016" r="0.625"></circle><circle cx="18.33105316368938" cy="35.09772479522232" r="0.625"></circle><circle cx="16.7130219296696" cy="39.18440519687691" r="0.625"></circle><circle cx="15.619946224495934" cy="43.44165398949944" r="0.625"></circle><circle cx="15.069064505010495" cy="47.80233181647406" r="0.625"></circle><circle cx="15.069064505010495" cy="52.19766818352597" r="0.625"></circle><circle cx="15.61994622449589" cy="56.55834601050034" r="0.625"></circle><circle cx="16.71302192966961" cy="60.81559480312311" r="0.625"></circle><circle cx="18.331053163689283" cy="64.90227520477748" r="0.625"></circle><circle cx="20.448522607429418" cy="68.7539378242648" r="0.625"></circle><circle cx="23.032036502847454" cy="72.30983964120423" r="0.625"></circle><circle cx="26.040851292495788" cy="75.5139019597493" r="0.625"></circle><circle cx="29.427516169763503" cy="78.3155948031232" r="0.625"></circle><circle cx="33.13862140644001" cy="80.67073380153525" r="0.625"></circle><circle cx="37.11564065603629" cy="82.5421770060888" r="0.625"></circle><circle cx="41.29585394923008" cy="83.90041063950208" r="0.625"></circle><circle cx="45.61333682524933" cy="84.72401454600671" r="0.625"></circle><circle cx="49.99999999999994" cy="87" r="0.75"></circle><circle cx="54.63732964187918" cy="86.7082439486357" r="0.75"></circle><circle cx="59.20152582509952" cy="85.83757696175938" r="0.75"></circle><circle cx="63.62060844933296" cy="84.40172997786536" r="0.75"></circle><circle cx="67.82488594176333" cy="82.42334716162303" r="0.75"></circle><circle cx="71.74805433482135" cy="79.93362879187316" r="0.75"></circle><circle cx="75.32824291936151" cy="76.9718392145922" r="0.75"></circle><circle cx="78.50898998270405" cy="73.5846876207017" r="0.75"></circle><circle cx="81.24013324357456" cy="69.82559141422288" r="0.75"></circle><circle cx="83.47860094124272" cy="65.75383378790771" r="0.75"></circle><circle cx="85.18909110292066" cy="61.43362879187311" r="0.75"></circle><circle cx="86.34462827696146" cy="56.93310863967189" r="0.75"></circle><circle cx="86.92698895184604" cy="52.32324922258471" r="0.75"></circle><circle cx="86.92698895184606" cy="47.67675077741554" r="0.75"></circle><circle cx="86.34462827696146" cy="43.066891360328086" r="0.75"></circle><circle cx="85.18909110292074" cy="38.56637120812712" r="0.75"></circle><circle cx="83.4786009412427" cy="34.24616621209227" r="0.75"></circle><circle cx="81.24013324357455" cy="30.17440858577711" r="0.75"></circle><circle cx="78.50898998270421" cy="26.415312379298484" r="0.75"></circle><circle cx="75.3282429193615" cy="23.0281607854078" r="0.75"></circle><circle cx="71.74805433482155" cy="20.066371208126977" r="0.75"></circle><circle cx="67.82488594176354" cy="17.576652838377086" r="0.75"></circle><circle cx="63.62060844933294" cy="15.598270022134642" r="0.75"></circle><circle cx="59.20152582509976" cy="14.162423038240682" r="0.75"></circle><circle cx="54.63732964187916" cy="13.29175605136431" r="0.75"></circle><circle cx="49.99999999999993" cy="13" r="0.75"></circle><circle cx="45.36267035812096" cy="13.291756051364295" r="0.75"></circle><circle cx="40.798474174900356" cy="14.162423038240654" r="0.75"></circle><circle cx="36.379391550667165" cy="15.5982700221346" r="0.75"></circle><circle cx="32.17511405823656" cy="17.57665283837703" r="0.75"></circle><circle cx="28.251945665178543" cy="20.06637120812691" r="0.75"></circle><circle cx="24.67175708063858" cy="23.028160785407714" r="0.75"></circle><circle cx="21.49101001729587" cy="26.415312379298392" r="0.75"></circle><circle cx="18.759866756425517" cy="30.17440858577701" r="0.75"></circle><circle cx="16.521399058757346" cy="34.24616621209216" r="0.75"></circle><circle cx="14.810908897079294" cy="38.56637120812701" r="0.75"></circle><circle cx="13.655371723038556" cy="43.06689136032797" r="0.75"></circle><circle cx="13.073011048153951" cy="47.67675077741542" r="0.75"></circle><circle cx="13.073011048153951" cy="52.323249222584586" r="0.75"></circle><circle cx="13.655371723038513" cy="56.93310863967178" r="0.75"></circle><circle cx="14.810908897079301" cy="61.433628791873" r="0.75"></circle><circle cx="16.52139905875724" cy="65.75383378790761" r="0.75"></circle><circle cx="18.75986675642538" cy="69.82559141422277" r="0.75"></circle><circle cx="21.491010017295874" cy="73.58468762070162" r="0.75"></circle><circle cx="24.671757080638397" cy="76.97183921459211" r="0.75"></circle><circle cx="28.251945665178553" cy="79.9336287918731" r="0.75"></circle><circle cx="32.175114058236574" cy="82.42334716162297" r="0.75"></circle><circle cx="36.37939155066693" cy="84.4017299778653" r="0.75"></circle><circle cx="40.79847417490036" cy="85.83757696175935" r="0.75"></circle><circle cx="45.36267035812071" cy="86.70824394863567" r="0.75"></circle><circle cx="49.999999999999936" cy="89" r="0.875"></circle><circle cx="54.88799610900777" cy="88.69247335126465" r="0.875"></circle><circle cx="59.69890559942922" cy="87.77474328401664" r="0.875"></circle><circle cx="64.3568575547023" cy="86.26128294964187" r="0.875"></circle><circle cx="68.78839328996673" cy="84.17596052171076" r="0.875"></circle><circle cx="72.92362483940629" cy="81.55166278062308" r="0.875"></circle><circle cx="76.69733713121889" cy="78.42977646943501" r="0.875"></circle><circle cx="80.05001646825562" cy="74.8595356001991" r="0.875"></circle><circle cx="82.92878909457858" cy="70.89724500418087" r="0.875"></circle><circle cx="85.28825504617475" cy="66.60539237103787" r="0.875"></circle><circle cx="87.09120413551096" cy="62.05166278062302" r="0.875"></circle><circle cx="88.30920277841884" cy="57.30787126884336" r="0.875"></circle><circle cx="88.92304240870259" cy="52.448830261643344" r="0.875"></circle><circle cx="88.9230424087026" cy="47.55116973835693" r="0.875"></circle><circle cx="88.30920277841884" cy="42.69212873115664" r="0.875"></circle><circle cx="87.09120413551105" cy="37.94833721937725" r="0.875"></circle><circle cx="85.28825504617475" cy="33.394607628962135" r="0.875"></circle><circle cx="82.92878909457858" cy="29.102754995819122" r="0.875"></circle><circle cx="80.05001646825579" cy="25.140464399801115" r="0.875"></circle><circle cx="76.69733713121889" cy="21.57022353056498" r="0.875"></circle><circle cx="72.9236248394065" cy="18.44833721937709" r="0.875"></circle><circle cx="68.78839328996699" cy="15.824039478289365" r="0.875"></circle><circle cx="64.3568575547023" cy="13.73871705035814" r="0.875"></circle><circle cx="59.69890559942949" cy="12.22525671598342" r="0.875"></circle><circle cx="54.88799610900777" cy="11.307526648735355" r="0.875"></circle><circle cx="50.00000000000021" cy="11" r="0.875"></circle><circle cx="45.11200389099237" cy="11.30752664873534" r="0.875"></circle><circle cx="40.30109440057065" cy="12.225256715983392" r="0.875"></circle><circle cx="35.64314244529783" cy="13.738717050358083" r="0.875"></circle><circle cx="31.211606710033145" cy="15.8240394782893" r="0.875"></circle><circle cx="27.076375160593606" cy="18.448337219377006" r="0.875"></circle><circle cx="23.302662868781212" cy="21.57022353056488" r="0.875"></circle><circle cx="19.9499835317443" cy="25.140464399801" r="0.875"></circle><circle cx="17.071210905421495" cy="29.102754995819" r="0.875"></circle><circle cx="14.711744953825317" cy="33.394607628962" r="0.875"></circle><circle cx="12.908795864488994" cy="37.94833721937711" r="0.875"></circle><circle cx="11.690797221581185" cy="42.6921287311565" r="0.875"></circle><circle cx="11.076957591297408" cy="47.55116973835679" r="0.875"></circle><circle cx="11.076957591297408" cy="52.4488302616432" r="0.875"></circle><circle cx="11.690797221581128" cy="57.307871268843215" r="0.875"></circle><circle cx="12.908795864488987" cy="62.05166278062288" r="0.875"></circle><circle cx="14.711744953825196" cy="66.60539237103774" r="0.875"></circle><circle cx="17.071210905421346" cy="70.89724500418076" r="0.875"></circle><circle cx="19.949983531744298" cy="74.859535600199" r="0.875"></circle><circle cx="23.302662868781006" cy="78.42977646943493" r="0.875"></circle><circle cx="27.0763751605936" cy="81.55166278062299" r="0.875"></circle><circle cx="31.211606710033134" cy="84.17596052171069" r="0.875"></circle><circle cx="35.64314244529756" cy="86.26128294964181" r="0.875"></circle><circle cx="40.30109440057065" cy="87.77474328401661" r="0.875"></circle><circle cx="45.112003890992085" cy="88.69247335126462" r="0.875"></circle><circle cx="49.99999999999992" cy="91" r="1"></circle><circle cx="55.13866257613637" cy="90.67670275389361" r="1"></circle><circle cx="60.19628537375863" cy="89.71190960627399" r="1"></circle><circle cx="65.09310666007191" cy="88.12083592141826" r="1"></circle><circle cx="69.75190063817016" cy="85.9285738817985" r="1"></circle><circle cx="74.09919534399121" cy="83.16969676937298" r="1"></circle><circle cx="78.06643134307605" cy="79.88771372427804" r="1"></circle><circle cx="81.59104295380736" cy="76.13438357969628" r="1"></circle><circle cx="84.6174449455826" cy="71.96889859413888" r="1"></circle><circle cx="87.09790915110678" cy="67.45695095416802" r="1"></circle><circle cx="88.99331716810119" cy="62.6696967693732" r="1"></circle><circle cx="90.27377727987627" cy="57.68263389801453" r="1"></circle><circle cx="90.91909586555911" cy="52.57441130070199" r="1"></circle><circle cx="90.91909586555914" cy="47.42558869929832" r="1"></circle><circle cx="90.27377727987627" cy="42.317366101985485" r="1"></circle><circle cx="88.99331716810127" cy="37.330303230627095" r="1"></circle><circle cx="87.09790915110679" cy="32.54304904583199" r="1"></circle><circle cx="84.61744494558262" cy="28.031101405861136" r="1"></circle><circle cx="81.59104295380756" cy="23.865616420303965" r="1"></circle><circle cx="78.06643134307606" cy="20.112286275721967" r="1"></circle><circle cx="74.09919534399147" cy="16.8303032306272" r="1"></circle><circle cx="69.75190063817043" cy="14.07142611820165" r="1"></circle><circle cx="65.09310666007192" cy="11.879164078581745" r="1"></circle><circle cx="60.19628537375893" cy="10.288090393726094" r="1"></circle><circle cx="55.13866257613638" cy="9.3232972461064" r="1"></circle><circle cx="49.99999999999994" cy="9" r="1"></circle><circle cx="44.86133742386379" cy="9.323297246106378" r="1"></circle><circle cx="39.80371462624123" cy="10.288090393726051" r="1"></circle><circle cx="34.90689333992823" cy="11.879164078581681" r="1"></circle><circle cx="30.248099361829723" cy="14.071426118201565" r="1"></circle><circle cx="25.90080465600867" cy="16.830303230627102" r="1"></circle><circle cx="21.933568656924063" cy="20.11228627572185" r="1"></circle><circle cx="18.40895704619255" cy="23.865616420303834" r="1"></circle><circle cx="15.382555054417473" cy="28.03110140586099" r="1"></circle><circle cx="12.90209084889328" cy="32.543049045831836" r="1"></circle><circle cx="11.006682831898772" cy="37.33030323062693" r="1"></circle><circle cx="9.726222720123758" cy="42.31736610198532" r="1"></circle><circle cx="9.080904134440864" cy="47.42558869929815" r="1"></circle><circle cx="9.080904134440864" cy="52.57441130070182" r="1"></circle><circle cx="9.726222720123701" cy="57.682633898014366" r="1"></circle><circle cx="11.006682831898765" cy="62.66969676937303" r="1"></circle><circle cx="12.902090848893145" cy="67.45695095416787" r="1"></circle><circle cx="15.382555054417303" cy="71.96889859413874" r="1"></circle><circle cx="18.40895704619253" cy="76.13438357969613" r="1"></circle><circle cx="21.933568656923825" cy="79.88771372427793" r="1"></circle><circle cx="25.900804656008646" cy="83.16969676937288" r="1"></circle><circle cx="30.2480993618297" cy="85.92857388179843" r="1"></circle><circle cx="34.90689333992793" cy="88.1208359214182" r="1"></circle><circle cx="39.8037146262412" cy="89.71190960627393" r="1"></circle><circle cx="44.86133742386347" cy="90.67670275389358" r="1"></circle><circle cx="49.99999999999991" cy="93" r="1.125"></circle><circle cx="55.38932904326496" cy="92.66093215652256" r="1.125"></circle><circle cx="60.69366514808831" cy="91.64907592853126" r="1.125"></circle><circle cx="65.82935576544126" cy="89.98038889319477" r="1.125"></circle><circle cx="70.71540798637356" cy="87.68118724188625" r="1.125"></circle><circle cx="75.27476584857615" cy="84.78773075812288" r="1.125"></circle><circle cx="79.4355255549334" cy="81.34565097912089" r="1.125"></circle><circle cx="83.13206943935893" cy="77.40923155919366" r="1.125"></circle><circle cx="86.30610079658663" cy="73.04055218409688" r="1.125"></circle><circle cx="88.90756325603881" cy="68.30850953729819" r="1.125"></circle><circle cx="90.89543020069148" cy="63.28773075812312" r="1.125"></circle><circle cx="92.23835178133365" cy="58.057396527185986" r="1.125"></circle><circle cx="92.91514932241566" cy="52.699992339760634" r="1.125"></circle><circle cx="92.91514932241569" cy="47.300007660239714" r="1.125"></circle><circle cx="92.23835178133365" cy="41.942603472814056" r="1.125"></circle><circle cx="90.89543020069158" cy="36.71226924187721" r="1.125"></circle><circle cx="88.90756325603883" cy="31.691490462701854" r="1.125"></circle><circle cx="86.30610079658666" cy="26.959447815903154" r="1.125"></circle><circle cx="83.13206943935916" cy="22.59076844080661" r="1.125"></circle><circle cx="79.43552555493343" cy="18.654349020879142" r="1.125"></circle><circle cx="75.27476584857642" cy="15.212269241877316" r="1.125"></circle><circle cx="70.71540798637388" cy="12.318812758113928" r="1.125"></circle><circle cx="65.8293557654413" cy="10.01961110680525" r="1.125"></circle><circle cx="60.69366514808864" cy="8.350924071468832" r="1.125"></circle><circle cx="55.389329043265" cy="7.339067843477444" r="1.125"></circle><circle cx="50.000000000000256" cy="7" r="1.125"></circle><circle cx="44.6106709567352" cy="7.339067843477416" r="1.125"></circle><circle cx="39.30633485191155" cy="8.350924071468782" r="1.125"></circle><circle cx="34.170644234558885" cy="10.019611106805172" r="1.125"></circle><circle cx="29.284592013626305" cy="12.318812758113836" r="1.125"></circle><circle cx="24.725234151423738" cy="15.212269241877202" r="1.125"></circle><circle cx="20.564474445066704" cy="18.654349020879007" r="1.125"></circle><circle cx="16.86793056064097" cy="22.59076844080645" r="1.125"></circle><circle cx="13.693899203413459" cy="26.95944781590298" r="1.125"></circle><circle cx="11.092436743961251" cy="31.691490462701672" r="1.125"></circle><circle cx="9.104569799308472" cy="36.71226924187702" r="1.125"></circle><circle cx="7.761648218666387" cy="41.94260347281386" r="1.125"></circle><circle cx="7.0848506775843205" cy="47.300007660239515" r="1.125"></circle><circle cx="7.0848506775843205" cy="52.699992339760435" r="1.125"></circle><circle cx="7.761648218666316" cy="58.05739652718579" r="1.125"></circle><circle cx="9.104569799308457" cy="63.28773075812293" r="1.125"></circle><circle cx="11.092436743961102" cy="68.30850953729801" r="1.125"></circle><circle cx="13.69389920341326" cy="73.04055218409673" r="1.125"></circle><circle cx="16.867930560640936" cy="77.4092315591935" r="1.125"></circle><circle cx="20.56447444506645" cy="81.34565097912075" r="1.125"></circle><circle cx="24.72523415142369" cy="84.78773075812276" r="1.125"></circle><circle cx="29.28459201362626" cy="87.68118724188614" r="1.125"></circle><circle cx="34.17064423455855" cy="89.98038889319469" r="1.125"></circle><circle cx="39.3063348519115" cy="91.6490759285312" r="1.125"></circle><circle cx="44.61067095673484" cy="92.66093215652253" r="1.125"></circle><circle cx="49.999999999999886" cy="95" r="1.25"></circle><circle cx="55.63999551039355" cy="94.64516155915152" r="1.25"></circle><circle cx="61.19104492241799" cy="93.58624225078853" r="1.25"></circle><circle cx="66.56560487081062" cy="91.83994186497128" r="1.25"></circle><circle cx="71.67891533457697" cy="89.43380060197399" r="1.25"></circle><circle cx="76.45033635316108" cy="86.40576474687279" r="1.25"></circle><circle cx="80.80461976679076" cy="82.80358823396372" r="1.25"></circle><circle cx="84.67309592491051" cy="78.68407953869105" r="1.25"></circle><circle cx="87.99475664759066" cy="74.11220577405489" r="1.25"></circle><circle cx="90.71721736097085" cy="69.16006812042835" r="1.25"></circle><circle cx="92.79754323328177" cy="63.90576474687305" r="1.25"></circle><circle cx="94.20292628279097" cy="58.43215915635775" r="1.25"></circle><circle cx="94.91120277927223" cy="52.82557337881896" r="1.25"></circle><circle cx="94.91120277927223" cy="47.174426621181105" r="1.25"></circle><circle cx="94.2029262827911" cy="41.56784084364294" r="1.25"></circle><circle cx="92.7975432332818" cy="36.09423525312702" r="1.25"></circle><circle cx="90.71721736097086" cy="30.83993187957172" r="1.25"></circle><circle cx="87.99475664759086" cy="25.887794225945434" r="1.25"></circle><circle cx="84.67309592491054" cy="21.315920461309002" r="1.25"></circle><circle cx="80.80461976679082" cy="17.19641176603632" r="1.25"></circle><circle cx="76.45033635316139" cy="13.594235253127437" r="1.25"></circle><circle cx="71.67891533457703" cy="10.56619939802605" r="1.25"></circle><circle cx="66.56560487081067" cy="8.160058135028756" r="1.25"></circle><circle cx="61.19104492241836" cy="6.41375774921157" r="1.25"></circle><circle cx="55.63999551039393" cy="5.354838440848532" r="1.25"></circle><circle cx="49.99999999999996" cy="5" r="1.25"></circle><circle cx="44.36000448960662" cy="5.354838440848461" r="1.25"></circle><circle cx="38.808955077582176" cy="6.413757749211435" r="1.25"></circle><circle cx="33.43439512918924" cy="8.160058135028784" r="1.25"></circle><circle cx="28.321084665422887" cy="10.5661993980261" r="1.25"></circle><circle cx="23.549663646839065" cy="13.59423525312711" r="1.25"></circle><circle cx="19.195380233209118" cy="17.196411766036377" r="1.25"></circle><circle cx="15.326904075089395" cy="21.315920461309073" r="1.25"></circle><circle cx="12.005243352409437" cy="25.88779422594497" r="1.25"></circle><circle cx="9.282782639029087" cy="30.839931879571797" r="1.25"></circle><circle cx="7.2024567667181785" cy="36.0942352531271" r="1.25"></circle><circle cx="5.79707371720901" cy="41.5678408436424" r="1.25"></circle><circle cx="5.088797220727798" cy="47.17442662118056" r="1.25"></circle><circle cx="5.088797220727777" cy="52.825573378819044" r="1.25"></circle><circle cx="5.7970737172089315" cy="58.43215915635721" r="1.25"></circle><circle cx="7.202456766718051" cy="63.90576474687252" r="1.25"></circle><circle cx="9.282782639029193" cy="69.16006812042842" r="1.25"></circle><circle cx="12.005243352409224" cy="74.1122057740547" r="1.25"></circle><circle cx="15.326904075089146" cy="78.68407953869063" r="1.25"></circle><circle cx="19.195380233209296" cy="82.80358823396378" r="1.25"></circle><circle cx="23.549663646838738" cy="86.40576474687265" r="1.25"></circle><circle cx="28.32108466542254" cy="89.4338006019737" r="1.25"></circle><circle cx="33.43439512918947" cy="91.83994186497131" r="1.25"></circle><circle cx="38.808955077581786" cy="93.58624225078847" r="1.25"></circle><circle cx="44.36000448960622" cy="94.64516155915149" r="1.25"></circle><circle cx="49.99999999999954" cy="97" r="1.375"></circle><circle cx="55.89066197752214" cy="96.62939096178047" r="1.375"></circle></g></g>
  <desc>Created with Snap</desc></svg>
