<svg width="100%" height="100%" viewBox="0 0 100 100" version="1.1" xmlns="http://www.w3.org/2000/svg" id="decent-logo-svg">
       <defs>
         <style type="text/css">
           @import url("https://fonts.googleapis.com/css?family=Dosis:400,700")
         </style>
         <style type="text/css">
           #text text {
             font-family: 'Dosis'
           }
         </style>
       </defs>
       <g id="svg-content"><circle cx="50" cy="50" r="25" id="shape"></circle><g textAlign="center" fill="undefined" style="text-anchor: middle; stroke-width: 0;" stroke="rgba(0,0,0,0)" id="halftones"><circle cx="50" cy="77" r="0.34973449856054595"></circle><circle cx="51.92615794637927" cy="76.93120709447685" r="0.09573876439027171"></circle><circle cx="53.8425006333787" cy="76.72517893078518" r="0.1682113028458437"></circle><circle cx="59.43553284917566" cy="75.29764257499357" r="0.015913198666452105"></circle><circle cx="62.939722641441534" cy="73.6973327183159" r="0.3223480695789087"></circle><circle cx="64.59730207130113" cy="72.71384538644189" r="0.3001596492729457"></circle><circle cx="66.18049699580637" cy="71.61461350495773" r="0.27474428001008977"></circle><circle cx="67.68123981652269" cy="70.40523850756497" r="0.24052155993058053"></circle><circle cx="69.09188309203678" cy="69.09188309203678" r="0.29589092977611864"></circle><circle cx="70.40523850756497" cy="67.68123981652269" r="0.3405144888809577"></circle><circle cx="71.61461350495773" cy="66.18049699580637" r="0.36252130679692574"></circle><circle cx="72.71384538644189" cy="64.59730207130113" r="0.18629222459198122"></circle><circle cx="73.69733271831589" cy="62.93972264144154" r="0.24081989474632423"></circle><circle cx="74.560063874572" cy="61.21620535105093" r="0.1194735613197476"></circle><circle cx="75.29764257499357" cy="59.43553284917566" r="0.26966336532311774"></circle><circle cx="76.38296538122131" cy="55.73926281793037" r="0.18255777192296105"></circle><circle cx="76.72517893078518" cy="53.842500633378705" r="0.32370777161974096"></circle><circle cx="76.93120709447685" cy="51.92615794637928" r="0.2684780114759012"></circle><circle cx="77" cy="50" r="0.2161659393397186"></circle><circle cx="76.93120709447685" cy="48.07384205362073" r="0.35288330369859056"></circle><circle cx="76.72517893078518" cy="46.1574993666213" r="0.14351268597140363"></circle><circle cx="76.38296538122131" cy="44.260737182069626" r="0.30494547626866975"></circle><circle cx="75.90631028759142" cy="42.3932209652814" r="0.024782557718824844"></circle><circle cx="74.560063874572" cy="38.78379464894907" r="0.1309698547955984"></circle><circle cx="73.6973327183159" cy="37.06027735855847" r="0.010975036493358264"></circle><circle cx="72.7138453864419" cy="35.40269792869887" r="0.23826706829478048"></circle><circle cx="71.61461350495773" cy="33.819503004193635" r="0.05562444407535813"></circle><circle cx="69.09188309203678" cy="30.90811690796322" r="0.2509232885191689"></circle><circle cx="67.6812398165227" cy="29.59476149243503" r="0.3049455700376571"></circle><circle cx="64.59730207130113" cy="27.286154613558104" r="0.12932922435058633"></circle><circle cx="61.21620535105093" cy="25.439936125428" r="0.140778169562058"></circle><circle cx="57.60677903471861" cy="24.093689712408572" r="0.34790471690822633"></circle><circle cx="55.73926281793038" cy="23.617034618778696" r="0.2256608795092153"></circle><circle cx="53.8425006333787" cy="23.274821069214816" r="0.08126842997212078"></circle><circle cx="51.92615794637928" cy="23.068792905523154" r="0.18029482928951854"></circle><circle cx="50" cy="23" r="0.18873925653941845"></circle><circle cx="46.15749936662131" cy="23.274821069214816" r="0.33168430564316276"></circle><circle cx="44.26073718206963" cy="23.617034618778693" r="0.30155857538533004"></circle><circle cx="42.39322096528141" cy="24.09368971240857" r="0.30596321962035933"></circle><circle cx="38.78379464894907" cy="25.439936125428005" r="0.3824266578387927"></circle><circle cx="37.060277358558466" cy="26.302667281684098" r="0.29986843352334214"></circle><circle cx="35.40269792869886" cy="27.286154613558107" r="0.22819350867123642"></circle><circle cx="33.819503004193635" cy="28.38538649504227" r="0.13189724124152055"></circle><circle cx="32.31876018347731" cy="29.594761492435023" r="0.34955044066637353"></circle><circle cx="28.385386495042273" cy="33.81950300419363" r="0.3232998121284397"></circle><circle cx="27.286154613558118" cy="35.40269792869885" r="0.17269589212016342"></circle><circle cx="25.439936125428012" cy="38.78379464894905" r="0.3530175013048089"></circle><circle cx="24.70235742500643" cy="40.564467150824356" r="0.36818487884123186"></circle><circle cx="24.093689712408572" cy="42.3932209652814" r="0.27125153443700634"></circle><circle cx="23.61703461877869" cy="44.26073718206964" r="0.05614375398497515"></circle><circle cx="23.274821069214816" cy="46.1574993666213" r="0.33557377242029285"></circle><circle cx="23" cy="49.99999999999999" r="0.07887084621954574"></circle><circle cx="23.068792905523154" cy="51.926157946379256" r="0.226539051240591"></circle><circle cx="23.274821069214816" cy="53.84250063337869" r="0.3018380949876378"></circle><circle cx="23.61703461877869" cy="55.73926281793035" r="0.05160107382195009"></circle><circle cx="24.09368971240857" cy="57.60677903471859" r="0.02670980351130789"></circle><circle cx="24.702357425006426" cy="59.43553284917563" r="0.10719656463812696"></circle><circle cx="25.43993612542801" cy="61.216205351050945" r="0.13160717802150942"></circle><circle cx="26.302667281684098" cy="62.939722641441534" r="0.1945644529399829"></circle><circle cx="27.286154613558114" cy="64.59730207130114" r="0.38452659112718757"></circle><circle cx="28.385386495042265" cy="66.18049699580637" r="0.08193137511923562"></circle><circle cx="29.59476149243503" cy="67.6812398165227" r="0.34963970774863695"></circle><circle cx="30.908116907963212" cy="69.09188309203678" r="0.007209529421236288"></circle><circle cx="33.81950300419363" cy="71.61461350495773" r="0.2196020783674911"></circle><circle cx="37.06027735855846" cy="73.69733271831589" r="0.08730705765418964"></circle><circle cx="40.564467150824356" cy="75.29764257499357" r="0.3859087644884158"></circle><circle cx="42.393220965281394" cy="75.90631028759142" r="0.35779234753049693"></circle><circle cx="44.26073718206964" cy="76.38296538122131" r="0.36596670251040386"></circle><circle cx="48.07384205362073" cy="76.93120709447685" r="0.06572148306036826"></circle><circle cx="49.99999999999999" cy="77" r="0.03495856774562975"></circle><circle cx="51.92615794637928" cy="76.93120709447685" r="0.14374267260812143"></circle><circle cx="53.84250063337869" cy="76.72517893078518" r="0.06420335128021823"></circle><circle cx="55.739262817930374" cy="76.38296538122131" r="0.3561038042921587"></circle><circle cx="57.60677903471859" cy="75.90631028759142" r="0.1439000552849685"></circle><circle cx="61.216205351050924" cy="74.560063874572" r="0.10457170773605715"></circle><circle cx="62.939722641441534" cy="73.6973327183159" r="0.07157611640101155"></circle><circle cx="64.59730207130113" cy="72.7138453864419" r="0.036752328212532354"></circle><circle cx="66.01523898396694" cy="73.57460753197019" r="0.19159633772161275"></circle><circle cx="67.6294432199683" cy="72.39314028344202" r="0.003605106843435263"></circle><circle cx="69.1567966431455" cy="71.1013540412261" r="0.1365595905017408"></circle><circle cx="70.58977480223724" cy="69.70561274340781" r="0.031923197609006054"></circle><circle cx="71.9213181822989" cy="68.21279245888482" r="0.2750236935706536"></circle><circle cx="73.14486698314704" cy="66.63024751266289" r="0.07254231239065442"></circle><circle cx="74.25439343597705" cy="64.96577425504051" r="0.279801699845205"></circle><circle cx="75.24443149894763" cy="63.22757265317187" r="0.07245009872288619"></circle><circle cx="76.11010378543793" cy="61.42420589422566" r="0.11054802602467881"></circle><circle cx="76.84714559231556" cy="59.564558199154376" r="0.23139470655028246"></circle><circle cx="77.45192590984226" cy="57.65779105490163" r="0.3260066533731356"></circle><circle cx="78.44624633638084" cy="51.74959120080659" r="0.2171629714998283"></circle><circle cx="78.49890264848025" cy="49.749904353406336" r="0.3204097552801377"></circle><circle cx="78.41116014998006" cy="47.75144959314122" r="0.3515469505063934"></circle><circle cx="78.1834511011178" cy="45.76407223492868" r="0.04870064588230569"></circle><circle cx="77.81689730226653" cy="43.797563021266804" r="0.07261544207649481"></circle><circle cx="77.31330456742599" cy="41.86160988849597" r="0.19158184248983498"></circle><circle cx="76.67515382794535" cy="39.96575023953197" r="0.038165880113162326"></circle><circle cx="75.90558891030497" cy="38.119323958196496" r="0.09665201241102303"></circle><circle cx="75.00840104816908" cy="36.33142739661761" r="0.3614568754837505"></circle><circle cx="73.98801020501077" cy="34.61086856238147" r="0.36023126425391927"></circle><circle cx="72.84944329932202" cy="32.96612372620172" r="0.32871289649194513"></circle><circle cx="71.59830943968225" cy="31.40529566387966" r="0.3133869313188975"></circle><circle cx="63.887502182382285" cy="25.11250749604679" r="0.06422710858249245"></circle><circle cx="60.26794550591933" cy="23.41392667038867" r="0.07146565761370158"></circle><circle cx="58.37775880945644" cy="22.759163791642244" r="0.3611334567581155"></circle><circle cx="56.44629938797516" cy="22.238601904792493" r="0.23597336526007603"></circle><circle cx="54.483082506285534" cy="21.8548055391007" r="0.22586186358647872"></circle><circle cx="52.49777988117387" cy="21.60966545344696" r="0.15681736860021797"></circle><circle cx="50.50017203404084" cy="21.504389321575097" r="0.1539596778468982"></circle><circle cx="48.50010010751707" cy="21.53949578253172" r="0.32076701871700886"></circle><circle cx="46.50741738343105" cy="21.714811885609805" r="0.2805272322717708"></circle><circle cx="44.53194074097329" cy="22.02947394238406" r="0.36505785072440844"></circle><circle cx="42.583402294197185" cy="22.481931781640622" r="0.023332137260993008"></circle><circle cx="40.671401447111634" cy="23.069956386239383" r="0.2805884427693268"></circle><circle cx="38.8053576025655" cy="23.79065087428606" r="0.32313290240006654"></circle><circle cx="36.99446375790087" cy="24.640464770515887" r="0.11774818995919598"></circle><circle cx="35.24764121598513" cy="25.615211497581136" r="0.31901128052883276"></circle><circle cx="33.57349563473562" cy="26.710089001072795" r="0.1490975288522954"></circle><circle cx="31.98027463165805" cy="27.919703406667434" r="0.39255857189461607"></circle><circle cx="30.47582715225799" cy="29.23809559285339" r="0.32779776887599643"></circle><circle cx="29.06756480249521" cy="30.658770548327013" r="0.07855283338013927"></circle><circle cx="27.762425335775774" cy="32.17472936943024" r="0.21308392399513373"></circle><circle cx="26.566838474361397" cy="33.778503739995784" r="0.09628495683811031"></circle><circle cx="25.486694233575946" cy="35.46219272373577" r="0.0006015791335997889"></circle><circle cx="22.989132170007423" cy="40.908079461924885" r="0.14491121538459825"></circle><circle cx="21.98256712425349" cy="44.77760064213406" r="0.21336170598538803"></circle><circle cx="21.685252555307734" cy="46.75576247119714" r="0.18092331696395744"></circle><circle cx="21.52742956302714" cy="48.74990691881797" r="0.019639051585284867"></circle><circle cx="21.509875656660903" cy="50.75020990467802" r="0.3742411689462203"></circle><circle cx="21.632677314892273" cy="52.7468170086434" r="0.19459519018886193"></circle><circle cx="21.895229559804466" cy="54.72989201820838" r="0.2576716910100382"></circle><circle cx="22.296238937282382" cy="56.689665386239525" r="0.1651767454201962"></circle><circle cx="22.833729889167472" cy="58.61648236029571" r="0.360633730980392"></circle><circle cx="23.505054485773353" cy="60.500850546415805" r="0.2753272677427141"></circle><circle cx="24.30690547081534" cy="62.333486673053216" r="0.07130204881131427"></circle><circle cx="25.235332554488735" cy="64.10536232477686" r="0.1451937751525739"></circle><circle cx="26.285761874428232" cy="65.80774842043226" r="0.057235673990670505"></circle><circle cx="27.4530185286751" cy="67.4322582166434" r="0.03291457602037148"></circle><circle cx="28.73135206964386" cy="68.97088862479978" r="0.33232120166836765"></circle><circle cx="30.11446483349421" cy="70.41605963798258" r="0.3919646911395418"></circle><circle cx="34.82196274517052" cy="74.12213060844768" r="0.11708702141674152"></circle><circle cx="36.55140955308548" cy="75.12738376733955" r="0.004619856041948117"></circle><circle cx="38.34711035422534" cy="76.00884778115704" r="0.10454236026750904"></circle><circle cx="40.20021869370072" cy="76.76218014939566" r="0.2709408377750737"></circle><circle cx="42.10160530046638" cy="77.38366960745728" r="0.30443632209642335"></circle><circle cx="44.04190306234344" cy="77.87025441006034" r="0.08318109811181693"></circle><circle cx="46.01155317275839" cy="78.21953741481718" r="0.3042141971160932"></circle><circle cx="48.00085222185665" cy="78.42979789166895" r="0.06539464234205525"></circle><circle cx="49.999999999999986" cy="78.5" r="0.10171353885267828"></circle><circle cx="51.999147778143325" cy="78.42979789166895" r="0.3586328202084148"></circle><circle cx="59.79978130629926" cy="76.76218014939568" r="0.0858085703606892"></circle><circle cx="61.65288964577468" cy="76.00884778115703" r="0.04594859183493924"></circle><circle cx="63.44859044691445" cy="75.1273837673396" r="0.21652491021612327"></circle><circle cx="65.17803725482946" cy="74.12213060844769" r="0.30722718769133217"></circle><circle cx="66.83271001252575" cy="72.99804064772074" r="0.06753545443481854"></circle><circle cx="68.40445703465687" cy="71.76065167359354" r="0.36512247840836176"></circle><circle cx="69.8855351665058" cy="70.41605963798257" r="0.20274931170401797"></circle><circle cx="73.71423812557175" cy="65.80774842043228" r="0.3947678431796715"></circle><circle cx="74.68951597680967" cy="67.0419424019347" r="0.23091935985597853"></circle><circle cx="75.80643069240499" cy="65.29797813170413" r="0.20955756642926668"></circle><circle cx="76.80036601356687" cy="63.481112029014874" r="0.19841122510574613"></circle><circle cx="78.40096087948419" cy="59.6636132539547" r="0.127374914899105"></circle><circle cx="78.99999286079658" cy="57.68117270172642" r="0.13350851912004644"></circle><circle cx="79.46082666960291" cy="55.66212786358748" r="0.26191232142721266"></circle><circle cx="79.78126622294161" cy="53.616100407659694" r="0.32070766274182727"></circle><circle cx="79.95978448041369" cy="51.55284058652631" r="0.37258668119671523"></circle><circle cx="79.6387069498624" cy="45.35811995629161" r="0.3802363249696161"></circle><circle cx="79.24783736545471" cy="43.324371981310584" r="0.2144469982831094"></circle><circle cx="78.05048728056246" cy="39.36185338872399" r="0.0727217377071527"></circle><circle cx="77.2497126985026" cy="37.451965976733035" r="0.2871099071602712"></circle><circle cx="76.31908082598326" cy="35.60187566120642" r="0.2698569952355291"></circle><circle cx="75.26302654768435" cy="33.82039896502401" r="0.19024702145527847"></circle><circle cx="74.08658244316648" cy="32.11602543592324" r="0.2857824772696663"></circle><circle cx="71.39549691891789" cy="28.970670205815516" r="0.23842520411908683"></circle><circle cx="69.89367974722387" cy="27.544677554866983" r="0.3580115029778499"></circle><circle cx="68.29706013200223" cy="26.22569474146732" r="0.27528154239648006"></circle><circle cx="63.016512173526806" cy="22.970933962927454" r="0.21036153579162584"></circle><circle cx="61.12073117135201" cy="22.137312796240927" r="0.22525903743851358"></circle><circle cx="59.17195482079255" cy="21.436470022678563" r="0.13845544359695458"></circle><circle cx="57.179469928626716" cy="20.871745477218436" r="0.2550419889903637"></circle><circle cx="53.10151795365108" cy="20.16075425914422" r="0.3585751372912017"></circle><circle cx="51.03548416909125" cy="20.017875783467886" r="0.17279569101181189"></circle><circle cx="46.89848204634895" cy="20.160754259144216" r="0.19030836692005756"></circle><circle cx="42.82053007137332" cy="20.871745477218425" r="0.1422146771029675"></circle><circle cx="38.879268828648065" cy="22.13731279624089" r="0.36110226058648587"></circle><circle cx="36.98348782647327" cy="22.97093396292742" r="0.19255015099065495"></circle><circle cx="33.38675330718398" cy="25.02000731938383" r="0.07584736496571062"></circle><circle cx="31.702939867997806" cy="26.225694741467297" r="0.16389891348429705"></circle><circle cx="28.604503081082136" cy="28.970670205815495" r="0.0798468211337546"></circle><circle cx="27.204645195662675" cy="30.496877189937628" r="0.39924296453968755"></circle><circle cx="25.91341755683358" cy="32.11602543592318" r="0.33384783211591507"></circle><circle cx="24.73697345231565" cy="33.820398965024026" r="0.2808851473820383"></circle><circle cx="23.680919174016754" cy="35.601875661206385" r="0.1482927366001989"></circle><circle cx="20.361293050137615" cy="45.35811995629152" r="0.28984061608239997"></circle><circle cx="20.04021551958631" cy="51.55284058652627" r="0.020088236450650804"></circle><circle cx="20.53917333039708" cy="55.66212786358744" r="0.12167698555269055"></circle><circle cx="21.00000713920339" cy="57.68117270172633" r="0.0577566867576694"></circle><circle cx="21.59903912051582" cy="59.663613253954715" r="0.016638445730564694"></circle><circle cx="22.333414614145678" cy="61.600002288242536" r="0.1482596283746984"></circle><circle cx="23.199633986433128" cy="63.48111202901489" r="0.18095100373412062"></circle><circle cx="24.193569307594995" cy="65.2979781317041" r="0.3427209683115321"></circle><circle cx="26.545055525959093" cy="68.70469405576199" r="0.044888982617426326"></circle><circle cx="27.891400520469865" cy="70.2783093243426" r="0.06887455414906071"></circle><circle cx="29.343103059701637" cy="71.75528921430124" r="0.1920625529459787"></circle><circle cx="30.89324511995333" cy="73.12859524384939" r="0.3385771527854523"></circle><circle cx="32.53443956837687" cy="74.39168298435597" r="0.22226844908074347"></circle><circle cx="36.05830483868689" cy="76.56368076959626" r="0.28893155447107033"></circle><circle cx="43.83020290742195" cy="79.35870575887867" r="0.2758629627471737"></circle><circle cx="45.87039456238498" cy="79.7144133196269" r="0.38978651911136597"></circle><circle cx="47.93026566787025" cy="79.92851816903743" r="0.16706199882947556"></circle><circle cx="49.99999999999998" cy="80" r="0.17197855867842113"></circle><circle cx="52.0697343321297" cy="79.92851816903743" r="0.11610394713810188"></circle><circle cx="54.12960543761498" cy="79.71441331962691" r="0.14715713396285876"></circle><circle cx="56.169797092578" cy="79.35870575887867" r="0.03825784928488693"></circle><circle cx="58.1805868546848" cy="78.86309059530802" r="0.35902390168235987"></circle><circle cx="60.152392395010075" cy="78.2299296608713" r="0.3640754779776719"></circle><circle cx="62.075817162199066" cy="77.46224025576097" r="0.2667392266646732"></circle><circle cx="63.94169516131308" cy="76.56368076959629" r="0.09300251965800085"></circle><circle cx="65.74113463397023" cy="75.53853324753054" r="0.2745215631177217"></circle><circle cx="69.10675488004664" cy="73.12859524384942" r="0.262586481487994"></circle><circle cx="72.1085994795301" cy="70.27830932434263" r="0.3036480598756235"></circle><circle cx="73.45494447404089" cy="68.70469405576202" r="0.24200129736224626"></circle><circle cx="74.68951597680966" cy="67.04194240193472" r="0.16325661449892534"></circle><circle cx="75.80643069240499" cy="65.29797813170414" r="0.26965298897938605"></circle><circle cx="78.40096087948416" cy="59.66361325395476" r="0.28218477074929227"></circle><circle cx="79.46082666960291" cy="55.662127863587486" r="0.2523778569972063"></circle><circle cx="78.36392039233826" cy="63.701752441826486" r="0.008814803217532002"></circle><circle cx="79.22850435984003" cy="61.74497905007977" r="0.31082484753724293"></circle><circle cx="79.95828026329733" cy="59.73403532281087" r="0.2942893331872042"></circle><circle cx="80.54988222139376" cy="57.678196159188005" r="0.30916138114225045"></circle><circle cx="81.30829979886602" cy="53.46992272310588" r="0.11294914515366858"></circle><circle cx="81.48978129451815" cy="49.19770702145994" r="0.18169725138712498"></circle><circle cx="81.3627076005059" cy="47.06221648769523" r="0.15521801757733752"></circle><circle cx="81.09098244425098" cy="44.940275634851474" r="0.047346417904001376"></circle><circle cx="80.67585907983084" cy="42.84167130439239" r="0.023205154073498963"></circle><circle cx="80.1192521442864" cy="40.776082704788664" r="0.3050946033161015"></circle><circle cx="79.42372882690971" cy="38.7530367689548" r="0.1501054375548315"></circle><circle cx="78.59249702882211" cy="36.781864214012664" r="0.39966810377775674"></circle><circle cx="77.6293905674538" cy="34.87165650604484" r="0.3435859694577281"></circle><circle cx="76.5388514941642" cy="33.03122392832357" r="0.12003629292380466"></circle><circle cx="72.55573351527295" cy="28.011619305005816" r="0.3734228977558527"></circle><circle cx="71.01127595152383" cy="26.531376629872035" r="0.04912684989825708"></circle><circle cx="69.36990992474638" cy="25.159376225480738" r="0.2256860494809911"></circle><circle cx="67.63920576333432" cy="23.901946048819013" r="0.13985011180006554"></circle><circle cx="65.82714584211448" cy="22.764885634673046" r="0.2988356615951038"></circle><circle cx="63.94208776594091" cy="21.75343934694348" r="0.20684151250237923"></circle><circle cx="61.992725822647586" cy="20.872272190526058" r="0.1452486943565788"></circle><circle cx="57.93730893363138" cy="19.51641217159477" r="0.1335071392584782"></circle><circle cx="55.8499584311114" cy="19.047972823185415" r="0.1673262799253293"></circle><circle cx="53.73562667901625" cy="18.722290791763186" r="0.34355739544026886"></circle><circle cx="47.32861337902148" cy="18.613479110910415" r="0.30596618593544667"></circle><circle cx="45.20444188104523" cy="18.867177732692994" r="0.32473841535912096"></circle><circle cx="43.10238851467342" cy="19.264467536782597" r="0.2003654302562405"></circle><circle cx="41.03214839606187" cy="19.80351613830272" r="0.25356396923150626"></circle><circle cx="39.003269911918096" cy="20.48183733072341" r="0.28853218834013816"></circle><circle cx="37.02511068031423" cy="21.296302552773724" r="0.27270961973173913"></circle><circle cx="35.106794391368226" cy="22.24315531802977" r="0.11264747140839623"></circle><circle cx="31.484764552787116" cy="24.515964677189142" r="0.09769526676535287"></circle><circle cx="29.7977565733188" cy="25.831438592065183" r="0.33033817723796843"></circle><circle cx="28.203925627207358" cy="27.25838304043242" r="0.3638933860866106"></circle><circle cx="26.71062280096775" cy="28.790216651714783" r="0.270392289529821"></circle><circle cx="25.32473552409581" cy="30.419874284260054" r="0.10662077510829845"></circle><circle cx="24.052655802780837" cy="32.139839611273445" r="0.01393347681022103"></circle><circle cx="22.90025073861768" cy="33.94217978771066" r="0.27257352791098166"></circle><circle cx="21.872835468288567" cy="35.818582038243335" r="0.003929477780097751"></circle><circle cx="20.97514864902564" cy="37.760391997541674" r="0.33308713005149715"></circle><circle cx="20.211330602917524" cy="39.75865362604497" r="0.08361471380613336"></circle><circle cx="19.58490422086594" cy="41.80415051711529" r="0.356812252571041"></circle><circle cx="19.09875871426497" cy="43.88744840506152" r="0.3452709427422678"></circle><circle cx="18.755136289345383" cy="45.998938677973285" r="0.05806426720672406"></circle><circle cx="18.555621805643383" cy="48.1288826946794" r="0.15115679393702494"></circle><circle cx="18.591928573850875" cy="52.404797141115" r="0.005263852832715993"></circle><circle cx="18.827582371241515" cy="54.531046146119806" r="0.34633765687039164"></circle><circle cx="19.207009973147883" cy="56.636397004865366" r="0.13680363411638494"></circle><circle cx="19.728461378959974" cy="58.711139392460794" r="0.2639284296758896"></circle><circle cx="21.187171472840543" cy="62.73070745341775" r="0.3133083513661301"></circle><circle cx="22.117702280435285" cy="64.65699402597805" r="0.37118329353195145"></circle><circle cx="23.176832161400643" cy="66.5156794320527" r="0.21694301958379567"></circle><circle cx="24.35967618399115" cy="68.29819102015851" r="0.3915561511007277"></circle><circle cx="27.074139109756423" cy="71.60219670406693" r="0.21747522509633907"></circle><circle cx="28.59323833394124" cy="73.10845202458523" r="0.26926934774442257"></circle><circle cx="30.211070085187295" cy="74.50812626103087" r="0.1224655270335466"></circle><circle cx="31.920172580173073" cy="75.79476381883103" r="0.34527182981124593"></circle><circle cx="33.71266307554099" cy="76.96243045256035" r="0.37929047677982286"></circle><circle cx="35.58027422478129" cy="78.00574063593915" r="0.03442339752815335"></circle><circle cx="37.514392208989385" cy="78.91988240102395" r="0.3268425440776551"></circle><circle cx="39.506096465625134" cy="79.70063953202413" r="0.33239065822435043"></circle><circle cx="41.54620083204157" cy="80.34441101138438" r="0.24494729679330393"></circle><circle cx="43.62529591401508" cy="80.84822762844126" r="0.0036895271438287247"></circle><circle cx="45.73379248386863" cy="81.20976567405312" r="0.1686937629742463"></circle><circle cx="49.99999999999997" cy="81.5" r="0.06572462312538982"></circle><circle cx="54.2662075161313" cy="81.20976567405313" r="0.027391188766971636"></circle><circle cx="56.37470408598487" cy="80.84822762844128" r="0.36989820686641783"></circle><circle cx="58.453799167958266" cy="80.34441101138442" r="0.28846588255510086"></circle><circle cx="60.49390353437481" cy="79.70063953202416" r="0.15189252288446395"></circle><circle cx="64.41972577521865" cy="78.00574063593918" r="0.011693522307275467"></circle><circle cx="68.07982741982687" cy="75.79476381883106" r="0.32363362688021124"></circle><circle cx="69.78892991481266" cy="74.50812626103091" r="0.05016753093675305"></circle><circle cx="76.82316783859933" cy="66.51567943205276" r="0.2569690748891087"></circle><circle cx="77.88229771956469" cy="64.65699402597811" r="0.20349921345729569"></circle><circle cx="78.81282852715944" cy="62.73070745341781" r="0.38758316434027784"></circle><circle cx="79.61046845585142" cy="60.74570415677952" r="0.3186823350691016"></circle><circle cx="80.79299002685208" cy="56.636397004865536" r="0.10822143116591318"></circle><circle cx="81.1724176287585" cy="54.531046146119756" r="0.09887340450532309"></circle><circle cx="78.93934763082015" cy="65.85919792116059" r="0.1395032944197476"></circle><circle cx="79.93400015323326" cy="63.89084716013503" r="0.31603214982836325"></circle><circle cx="80.79496016437287" cy="61.86045650363796" r="0.2909032595998924"></circle><circle cx="81.51838240782807" cy="59.77709416922603" r="0.12056141169743281"></circle><circle cx="82.1010359042462" cy="57.65006495882851" r="0.3806182805204851"></circle><circle cx="82.54031838167096" cy="55.488868701243206" r="0.036083975574851296"></circle><circle cx="82.83426789792064" cy="53.30315782359523" r="0.38762755582855335"></circle><circle cx="82.9815716030984" cy="51.10269424125332" r="0.0700177406278418"></circle><circle cx="82.9815716030984" cy="48.897305758746754" r="0.3382717305389522"></circle><circle cx="82.83426789792065" cy="46.696842176404836" r="0.21228611740881861"></circle><circle cx="82.54031838167097" cy="44.511131298756865" r="0.021581584644490087"></circle><circle cx="82.10103590424623" cy="42.34993504117156" r="0.15478405418639604"></circle><circle cx="81.5183824078281" cy="40.22290583077403" r="0.29701351011163013"></circle><circle cx="80.7949601643729" cy="38.139543496362094" r="0.3879533458755323"></circle><circle cx="79.93400015323328" cy="36.10915283986503" r="0.272998325195139"></circle><circle cx="76.56731175320955" cy="30.425068423931247" r="0.3467985045640587"></circle><circle cx="75.20052248606197" cy="28.694280898559544" r="0.35229471699561177"></circle><circle cx="73.72118156797166" cy="27.0586498867368" r="0.1770891575550114"></circle><circle cx="72.13589609459441" cy="25.52548051361744" r="0.22866513763712068"></circle><circle cx="66.81734920553322" cy="21.606747884415363" r="0.38794245750434386"></circle><circle cx="62.882846080395396" cy="19.61855373967788" r="0.12255854289583232"></circle><circle cx="60.8248203087058" cy="18.82591997693869" r="0.10409356792763866"></circle><circle cx="58.718448261752535" cy="18.1725172232056" r="0.19063894494507602"></circle><circle cx="54.39846952733471" cy="17.294442890892256" r="0.13240014252532026"></circle><circle cx="52.204156913588974" cy="17.073693005435942" r="0.15006790179929527"></circle><circle cx="50.000000000000036" cy="17" r="0.22652761745308467"></circle><circle cx="47.7958430864111" cy="17.073693005435935" r="0.19823112940744533"></circle><circle cx="45.60153047266536" cy="17.29444289089225" r="0.2981918371604023"></circle><circle cx="43.42686249157331" cy="17.66126373379266" r="0.006635571547775249"></circle><circle cx="41.281551738247536" cy="18.17251722320558" r="0.040163471838715575"></circle><circle cx="37.117153919604675" cy="19.61855373967785" r="0.34733482365981705"></circle><circle cx="35.116666065868706" cy="20.546878416623887" r="0.12777416250922788"></circle><circle cx="31.323745887090347" cy="22.793428508721917" r="0.20679626218856492"></circle><circle cx="29.548253664311872" cy="24.101620285804223" r="0.10372808328550095"></circle><circle cx="26.27881843202839" cy="27.058649886736745" r="0.1259235122389518"></circle><circle cx="24.799477513938072" cy="28.69428089855949" r="0.10346377145107274"></circle><circle cx="23.43268824679049" cy="30.425068423931187" r="0.3827197202191276"></circle><circle cx="22.18455504324567" cy="32.24328234560875" r="0.0761961088835594"></circle><circle cx="21.060652369179852" cy="34.140802078839414" r="0.0013693028252449169"></circle><circle cx="20.065999846766747" cy="36.10915283986496" r="0.056939656746236106"></circle><circle cx="19.205039835627133" cy="38.13954349636203" r="0.030122654265372945"></circle><circle cx="18.481617592171926" cy="40.22290583077396" r="0.08870050081581879"></circle><circle cx="17.459681618329043" cy="44.511131298756794" r="0.3861324158700814"></circle><circle cx="17.16573210207936" cy="46.696842176404765" r="0.03784024617131884"></circle><circle cx="17.018428396901598" cy="48.897305758746676" r="0.07072677671166025"></circle><circle cx="17.018428396901598" cy="51.102694241253246" r="0.19177614941051366"></circle><circle cx="17.45968161832903" cy="55.488868701243135" r="0.07714421401884117"></circle><circle cx="17.898964095753776" cy="57.65006495882844" r="0.1366971234555798"></circle><circle cx="18.481617592171904" cy="59.77709416922597" r="0.15410065685339022"></circle><circle cx="19.205039835627105" cy="61.8604565036379" r="0.24158136506514413"></circle><circle cx="20.06599984676671" cy="63.89084716013497" r="0.18874953651173784"></circle><circle cx="21.060652369179813" cy="65.85919792116051" r="0.3683877237190235"></circle><circle cx="22.18455504324563" cy="67.7567176543912" r="0.35356598832634156"></circle><circle cx="23.432688246790445" cy="69.57493157606875" r="0.05035559902456041"></circle><circle cx="24.79947751393802" cy="71.30571910144045" r="0.03818446518805482"></circle><circle cx="26.278818432028338" cy="72.9413501132632" r="0.278570951794484"></circle><circle cx="27.864103905405578" cy="74.47451948638255" r="0.277151619938102"></circle><circle cx="29.548253664311808" cy="75.89837971419573" r="0.253168893636302"></circle><circle cx="31.323745887090286" cy="77.20657149127804" r="0.36547204541793155"></circle><circle cx="33.18265079446678" cy="78.39325211558463" r="0.1987290403723004"></circle><circle cx="35.116666065868635" cy="79.45312158337609" r="0.3535112212867263"></circle><circle cx="37.117153919604604" cy="80.38144626032212" r="0.0562005873621044"></circle><circle cx="39.17517969129419" cy="81.17408002306131" r="0.1897947984650493"></circle><circle cx="41.281551738247465" cy="81.8274827767944" r="0.13844730447296114"></circle><circle cx="43.42686249157324" cy="82.33873626620732" r="0.2933700269545243"></circle><circle cx="45.60153047266529" cy="82.70555710910774" r="0.11218013050132267"></circle><circle cx="47.79584308641102" cy="82.92630699456406" r="0.2749054099248375"></circle><circle cx="49.99999999999996" cy="83" r="0.14282868778277288"></circle><circle cx="52.204156913588896" cy="82.92630699456407" r="0.24039836777707554"></circle><circle cx="54.39846952733463" cy="82.70555710910776" r="0.11926875501231479"></circle><circle cx="56.57313750842668" cy="82.33873626620735" r="0.32001963043008497"></circle><circle cx="58.71844826175246" cy="81.82748277679443" r="0.19805310364435155"></circle><circle cx="60.82482030870573" cy="81.17408002306134" r="0.11993436161689605"></circle><circle cx="62.882846080395325" cy="80.38144626032215" r="0.19534889753961834"></circle><circle cx="68.67625411290965" cy="77.20657149127808" r="0.018152645529663863"></circle><circle cx="70.45174633568803" cy="75.89837971419585" r="0.3225306988073796"></circle><circle cx="72.13589609459427" cy="74.47451948638269" r="0.058471536453348544"></circle><circle cx="73.72118156797168" cy="72.94135011326317" r="0.021311557928471475"></circle><circle cx="75.20052248606193" cy="71.30571910144052" r="0.3971561699176064"></circle><circle cx="76.56731175320951" cy="69.57493157606882" r="0.3436860620602855"></circle><circle cx="77.81544495675433" cy="67.75671765439125" r="0.05681784397126352"></circle><circle cx="78.93934763082015" cy="65.85919792116059" r="0.11224746644430281"></circle><circle cx="79.9340001532332" cy="63.890847160135145" r="0.12392393640633012"></circle><circle cx="81.51838240782811" cy="59.77709416922593" r="0.04898374965768679"></circle><circle cx="76.76982298028284" cy="71.7629634380137" r="0.1736756062643315"></circle><circle cx="79.39382599784253" cy="68.06247472547871" r="0.3362205531888639"></circle><circle cx="80.5177495776303" cy="66.09089682761797" r="0.25076528976608037"></circle><circle cx="81.5096199866595" cy="64.04969210681531" r="0.21415890220593845"></circle><circle cx="82.36514530844538" cy="61.947693047748444" r="0.3996053959660063"></circle><circle cx="83.08062360451049" cy="59.79399519791097" r="0.1931014754799166"></circle><circle cx="84.07967474521608" cy="55.36896351824829" r="0.09073617276137366"></circle><circle cx="84.35892460167068" cy="53.116777216406255" r="0.22155754596630392"></circle><circle cx="84.48950016200921" cy="50.85110432660547" r="0.3720899194319607"></circle><circle cx="84.47083641350937" cy="48.58174862838918" r="0.3028605504603411"></circle><circle cx="83.98675945223142" cy="44.07124111333934" r="0.16665005833148136"></circle><circle cx="83.52344088596274" cy="41.84960668646224" r="0.34497152764623307"></circle><circle cx="82.91506324014216" cy="39.66323977750076" r="0.27207626267674456"></circle><circle cx="82.16425902202413" cy="37.52160100156515" r="0.2430134759606016"></circle><circle cx="81.2742770320278" cy="35.43395743092935" r="0.24271995749158667"></circle><circle cx="80.2489683058724" cy="33.40934249553903" r="0.08559736693657802"></circle><circle cx="79.09276945078406" cy="31.45651689451183" r="0.20719346111024214"></circle><circle cx="77.81068344787862" cy="29.583930687767293" r="0.06096759848632702"></circle><circle cx="76.40825800379304" cy="27.799686731825126" r="0.11837113710000832"></circle><circle cx="74.89156154523643" cy="26.111505617981976" r="0.0690600374318365"></circle><circle cx="73.26715696033777" cy="24.526692264587908" r="0.030376034108778843"></circle><circle cx="71.54207320041259" cy="23.052104307978595" r="0.0920324256703827"></circle><circle cx="67.82012990198422" cy="20.4586227423905" r="0.36350722000775926"></circle><circle cx="65.83937556195566" cy="19.35095137190517" r="0.20727263366128765"></circle><circle cx="63.790082755141526" cy="18.375901315510216" r="0.3123413184948446"></circle><circle cx="61.681118964128316" cy="17.537691706443887" r="0.16269057010963336"></circle><circle cx="59.5216098734596" cy="16.839949556467246" r="0.13588912297472552"></circle><circle cx="57.32089988194058" cy="16.28569406144326" r="0.1007296361022347"></circle><circle cx="55.088511668547795" cy="15.87732353699299" r="0.02882884148568096"></circle><circle cx="52.834104986900535" cy="15.616605040758039" r="0.3157649883309135"></circle><circle cx="50.56743486659971" cy="15.504666726176318" r="0.0997814964615393"></circle><circle cx="46.036547313153996" cy="15.72842223067147" r="0.11078215801350308"></circle><circle cx="41.57418647823089" cy="16.544721395624684" r="0.23308750118295882"></circle><circle cx="39.392896787198" cy="17.171059087552564" r="0.2466246236838001"></circle><circle cx="35.17725124363682" cy="18.846571307386828" r="0.09033091820808656"></circle><circle cx="31.217885870929457" cy="21.060715474591138" r="0.001767142931597937"></circle><circle cx="29.35590682940907" cy="22.358158216863316" r="0.11847667737470799"></circle><circle cx="27.583256719357916" cy="23.775209806563023" r="0.13482851883534105"></circle><circle cx="25.907605964411616" cy="25.305738528274524" r="0.051565596251294726"></circle><circle cx="24.336205262879936" cy="26.94312164036579" r="0.25176920108426937"></circle><circle cx="22.875854213293252" cy="28.68027403221424" r="0.29396698070228955"></circle><circle cx="21.532871891899592" cy="30.509678882147693" r="0.03620831469484406"></circle><circle cx="20.313069509429788" cy="32.42342018343578" r="0.04164752819195325"></circle><circle cx="19.221725265440668" cy="34.4132169975974" r="0.12398608473207537"></circle><circle cx="18.26356150905057" cy="36.47045928679826" r="0.14809561338621888"></circle><circle cx="17.442724304890447" cy="38.58624517029436" r="0.05403817240443351"></circle><circle cx="16.22662731814534" cy="42.95661319445302" r="0.2302584719662822"></circle><circle cx="15.836629701521844" cy="45.192284341908284" r="0.03082921033948635"></circle><circle cx="15.594460199164558" cy="47.44875892688901" r="0.06789219013117195"></circle><circle cx="15.5011667012715" cy="49.71627297178173" r="0.15661376547428016"></circle><circle cx="15.76217653054632" cy="54.24516714329678" r="0.052236482269826995"></circle><circle cx="16.115350443650833" cy="56.486950319172024" r="0.09282574827310938"></circle><circle cx="16.615146420173687" cy="58.70066385131378" r="0.12505589655248914"></circle><circle cx="17.25940179594899" cy="60.87672879320302" r="0.0007400827832133305"></circle><circle cx="18.045328817412813" cy="63.00572910731005" r="0.053245958646179176"></circle><circle cx="18.969526704474813" cy="65.07845240917311" r="0.3577349902798803"></circle><circle cx="20.02799636601294" cy="67.08592983025116" r="0.2708022311546109"></circle><circle cx="21.21615770431732" cy="69.01947482706262" r="0.22665894404876794"></circle><circle cx="22.528869433602647" cy="70.87072076867373" r="0.0042622746534005385"></circle><circle cx="23.960451326835805" cy="72.63165713989837" r="0.3573063158892892"></circle><circle cx="25.50470879461185" cy="74.29466420354959" r="0.31872412594479427"></circle><circle cx="27.154959689724" cy="75.85254597175808" r="0.36780186567774364"></circle><circle cx="28.90406322144385" cy="77.29856134368919" r="0.2531404293978833"></circle><circle cx="30.744450854392586" cy="78.62645327491859" r="0.19980907127640865"></circle><circle cx="32.66815905830646" cy="79.83047585225276" r="0.030009614362986853"></circle><circle cx="34.666863766979084" cy="80.90541915683431" r="0.3576709436750918"></circle><circle cx="36.73191639727978" cy="81.84663180795148" r="0.253340270499515"></circle><circle cx="38.85438127238501" cy="82.65004108999923" r="0.017787148549431836"></circle><circle cx="41.025074287291396" cy="83.31217057550231" r="0.09568972797221317"></circle><circle cx="43.23460264930169" cy="83.83015516794394" r="0.12878811983922986"></circle><circle cx="45.47340552152211" cy="84.20175349930781" r="0.31307564002167687"></circle><circle cx="47.731795393501486" cy="84.42535762868789" r="0.31746368488795684"></circle><circle cx="49.99999999999995" cy="84.5" r="0.2942420312295614"></circle><circle cx="52.268204606498415" cy="84.42535762868789" r="0.281836455012591"></circle><circle cx="54.52659447847778" cy="84.20175349930781" r="0.034393052794841145"></circle><circle cx="56.76539735069821" cy="83.83015516794396" r="0.16668691947785794"></circle><circle cx="63.268083602720125" cy="81.84663180795152" r="0.24292859768521832"></circle><circle cx="65.33313623302082" cy="80.90541915683436" r="0.1448867452854604"></circle><circle cx="67.33184094169346" cy="79.83047585225282" r="0.2597869920946705"></circle><circle cx="69.25554914560733" cy="78.62645327491865" r="0.07182456705788084"></circle><circle cx="72.84504031027592" cy="75.85254597175813" r="0.25592355494265784"></circle><circle cx="74.49529120538809" cy="74.29466420354966" r="0.38732274280543444"></circle><circle cx="76.03954867316412" cy="72.63165713989845" r="0.21707229478475373"></circle><circle cx="63.64184114603488" cy="83.31516426713742" r="0.2668321812737563"></circle><circle cx="65.76971636684058" cy="82.36226267907422" r="0.34699956214787"></circle><circle cx="67.83144791683951" cy="81.27362251465345" r="0.34655032504665095"></circle><circle cx="69.81838817740883" cy="80.05380990905383" r="0.2118213648803655"></circle><circle cx="71.72220323058515" cy="78.70794118025805" r="0.07445401149454031"></circle><circle cx="73.53490781441292" cy="77.24166136943718" r="0.21871789345319423"></circle><circle cx="76.85698716115695" cy="73.97294810042041" r="0.21217221943005002"></circle><circle cx="78.3524279687884" cy="72.18422476163332" r="0.1747639428980111"></circle><circle cx="79.72894884035324" cy="70.30245307463261" r="0.2567642389498954"></circle><circle cx="80.98077616894129" cy="68.33552584383551" r="0.2749579683812975"></circle><circle cx="82.10265935569566" cy="66.2916930456035" r="0.012250524768665477"></circle><circle cx="83.08989283264927" cy="64.17952722497427" r="0.31530640253585385"></circle><circle cx="83.93833579951163" cy="62.00788753942952" r="0.19618472019107"></circle><circle cx="84.64442959162508" cy="59.78588260050838" r="0.22769336559694062"></circle><circle cx="85.20521260624052" cy="57.522832269126006" r="0.1071680404211521"></circle><circle cx="85.8820571770845" cy="52.91169585301053" r="0.031947789038037716"></circle><circle cx="85.99527981196275" cy="50.58295047689009" r="0.07925520596736121"></circle><circle cx="85.76895329711522" cy="45.92790225696993" r="0.11061024825962615"></circle><circle cx="85.43035343944666" cy="43.62112430314795" r="0.02087714963438833"></circle><circle cx="84.30937559415902" cy="39.09739726767387" r="0.36572464752506895"></circle><circle cx="83.53169937719038" cy="36.8994222693146" r="0.013670676618827121"></circle><circle cx="82.61337955994418" cy="34.75639564673056" r="0.2434230156064767"></circle><circle cx="81.55826789487253" cy="32.67730599833105" r="0.26523939438737143"></circle><circle cx="80.37078988697621" cy="30.670873748636666" r="0.27191782660090424"></circle><circle cx="79.05592623169804" cy="28.745514571786916" r="0.011449498540167163"></circle><circle cx="76.06661312733519" cy="25.16994401798827" r="0.23369462042213227"></circle><circle cx="74.40470189627" cy="23.53472982654068" r="0.14053257501270042"></circle><circle cx="72.64042886421834" cy="22.010520175532566" r="0.0018015525055355697"></circle><circle cx="68.83479559695671" cy="19.320194348385122" r="0.3368894064411726"></circle><circle cx="66.80939751022075" cy="18.165362333719195" r="0.023210721666143103"></circle><circle cx="64.71349496864794" cy="17.144055852744515" r="0.025976094712217818"></circle><circle cx="62.555878915875724" cy="16.260558619771615" r="0.25755066894220213"></circle><circle cx="58.091926332874344" cy="14.921221112710683" r="0.09248967522504278"></circle><circle cx="53.492354702767294" cy="14.169796838001893" r="0.3878876245276809"></circle><circle cx="51.16574808512084" cy="14.018879514361466" r="0.1460749245325665"></circle><circle cx="46.50764529723282" cy="14.16979683800188" r="0.25058413064196294"></circle><circle cx="44.195686828888604" cy="14.47099848557994" r="0.37218777330375064"></circle><circle cx="41.90807366712576" cy="14.921221112710654" r="0.14626539598436225"></circle><circle cx="39.65440085654627" cy="15.518576329232438" r="0.07306210415542333"></circle><circle cx="37.444121084124376" cy="16.26055861977158" r="0.08295708375084085"></circle><circle cx="33.19060248977936" cy="18.16536233371914" r="0.39490527958830524"></circle><circle cx="29.21880599459542" cy="20.603708129940323" r="0.057202365494263135"></circle><circle cx="27.359571135781763" cy="22.01052017553249" r="0.02232263702728285"></circle><circle cx="25.595298103730087" cy="23.534729826540598" r="0.0878382891675977"></circle><circle cx="23.93338687266488" cy="25.16994401798819" r="0.27534306042029943"></circle><circle cx="20.94407376830204" cy="28.745514571786824" r="0.23936252264880695"></circle><circle cx="19.629210113023845" cy="30.67087374863657" r="0.002033458151863815"></circle><circle cx="17.386620440055864" cy="34.756395646730454" r="0.10535591235276984"></circle><circle cx="16.468300622809657" cy="36.8994222693145" r="0.18920007778465772"></circle><circle cx="15.690624405841014" cy="39.097397267673756" r="0.07930052959332065"></circle><circle cx="15.056853633465487" cy="41.34110157081479" r="0.1531048421804497"></circle><circle cx="14.569646560553352" cy="43.621124303147845" r="0.19191497346904704"></circle><circle cx="14.231046702884797" cy="45.927902256969816" r="0.3861683789827689"></circle><circle cx="14.042474265934736" cy="48.25176000387985" r="0.34690439067552514"></circle><circle cx="14.00472018803724" cy="50.58295047688998" r="0.34674974574760586"></circle><circle cx="14.117942822915488" cy="52.911695853010414" r="0.2940620444325186"></circle><circle cx="14.381667275491154" cy="55.22822856483745" r="0.09657930671094969"></circle><circle cx="14.794787393759457" cy="57.52283226912589" r="0.35134719908081746"></circle><circle cx="15.355570408374888" cy="59.78588260050827" r="0.014750555414258487"></circle><circle cx="16.061664200488323" cy="62.00788753942941" r="0.14723123886442532"></circle><circle cx="16.91010716735068" cy="64.17952722497415" r="0.19995295817307532"></circle><circle cx="17.89734064430428" cy="66.2916930456034" r="0.23608442876684552"></circle><circle cx="19.019223831058653" cy="68.3355258438354" r="0.283950632299787"></circle><circle cx="23.14301283884297" cy="73.97294810042033" r="0.3629027750675139"></circle><circle cx="26.465092185587007" cy="77.24166136943711" r="0.22293339406971366"></circle><circle cx="28.277796769414763" cy="78.70794118025799" r="0.19199903893643042"></circle><circle cx="30.181611822591073" cy="80.05380990905377" r="0.20038138657387936"></circle><circle cx="32.16855208316039" cy="81.2736225146534" r="0.10212016352740147"></circle><circle cx="34.23028363315932" cy="82.36226267907418" r="0.2881507748731812"></circle><circle cx="40.776400120547336" cy="84.798350611254" r="0.18641828083239895"></circle><circle cx="43.04823452700471" cy="85.32241436833658" r="0.18378843679829523"></circle><circle cx="47.669726538520315" cy="85.92450174455762" r="0.043516603018242644"></circle><circle cx="49.999999999999936" cy="86" r="0.39157236289036623"></circle><circle cx="52.330273461479564" cy="85.92450174455763" r="0.34133351398459444"></circle><circle cx="54.65077294623444" cy="85.69832364415133" r="0.017072146573897967"></circle><circle cx="56.95176547299517" cy="85.32241436833661" r="0.07970442754585391"></circle><circle cx="59.22359987945255" cy="84.79835061125402" r="0.2097338378928448"></circle><circle cx="61.456747302587864" cy="84.12833047842577" r="0.35555291213438667"></circle><circle cx="63.64184114603487" cy="83.31516426713742" r="0.24881737715834926"></circle><circle cx="41.69711504716896" cy="86.56927810963805" r="0.2814210305654815"></circle><circle cx="44.04512598385797" cy="87.02417420351028" r="0.07718934003365094"></circle><circle cx="46.41735906482381" cy="87.32847015254711" r="0.32345522467975873"></circle><circle cx="48.80416495545678" cy="87.48092819750121" r="0.06301221217872208"></circle><circle cx="51.195835044543095" cy="87.48092819750123" r="0.004369505556771264"></circle><circle cx="53.58264093517606" cy="87.32847015254711" r="0.18853901062680442"></circle><circle cx="55.9548740161419" cy="87.02417420351031" r="0.22595775480740507"></circle><circle cx="58.30288495283092" cy="86.56927810963806" r="0.13864963177746523"></circle><circle cx="60.61712293702722" cy="85.96563221382394" r="0.10005186545200026"></circle><circle cx="62.88817453593745" cy="85.2156919161219" r="0.005238543287280989"></circle><circle cx="65.10680198242483" cy="84.32250768612056" r="0.12621165818394672"></circle><circle cx="67.26398075070435" cy="83.28971265480237" r="0.0355918100272625"></circle><circle cx="69.35093626465255" cy="82.12150783636028" r="0.2844294590208206"></circle><circle cx="71.35917958942032" cy="80.82264504008198" r="0.3249446485357599"></circle><circle cx="73.280541961164" cy="79.39840754181223" r="0.0421603063890916"></circle><circle cx="76.83174757213938" cy="76.19746785903158" r="0.061815052443523893"></circle><circle cx="78.44714586855055" cy="74.43378586984439" r="0.16353909822653243"></circle><circle cx="79.946832082785" cy="72.57071660815137" r="0.2062395214620862"></circle><circle cx="81.32470606633382" cy="70.61583832536986" r="0.07510344139454081"></circle><circle cx="82.57516315613657" cy="68.57710271681466" r="0.21913732852957576"></circle><circle cx="83.69311697220326" cy="66.46280257724757" r="0.31185001777518906"></circle><circle cx="84.67402010705604" cy="64.28153806897122" r="0.16354923170833754"></circle><circle cx="85.51388262284077" cy="62.04218173966363" r="0.1518536318388861"></circle><circle cx="86.20928828086369" cy="59.75384243225752" r="0.09385859955726658"></circle><circle cx="86.75740843754073" cy="57.42582823365912" r="0.08237391372192934"></circle><circle cx="87.15601355023489" cy="55.067608613020646" r="0.18448834818226875"></circle><circle cx="87.40348224618111" cy="52.688775903569045" r="0.11239124391662278"></circle><circle cx="87.49880791760887" cy="50.29900628467332" r="0.14701664687761082"></circle><circle cx="87.23209963048299" cy="45.52554393185186" r="0.3889515981350078"></circle><circle cx="86.36022374423659" cy="40.82480903364658" r="0.33402991293805184"></circle><circle cx="85.70139750055391" cy="38.525671413653725" r="0.13063857761095118"></circle><circle cx="83.95135677421649" cy="34.07657784300551" r="0.2375943241331316"></circle><circle cx="82.86726078623511" cy="31.94471909912194" r="0.3059675375429942"></circle><circle cx="81.64947338335433" cy="29.886302315179705" r="0.3687018289370302"></circle><circle cx="80.3029480578044" cy="27.90970034141663" r="0.05447626709906281"></circle><circle cx="78.83316195832462" cy="26.022953236792862" r="0.04660185522925106"></circle><circle cx="77.24609361122153" cy="24.2337355651124" r="0.3944167134513811"></circle><circle cx="73.74638331659982" cy="20.97657361059674" r="0.01955540581744794"></circle><circle cx="71.84797684869953" cy="19.52187821373027" r="0.15161596142677888"></circle><circle cx="65.6522047948657" cy="15.92275707954672" r="0.1940976752815707"></circle><circle cx="63.448102612256235" cy="14.994307089700008" r="0.022201298967125943"></circle><circle cx="61.189298704497304" cy="14.208246836714814" r="0.26795667004087553"></circle><circle cx="58.88498101981411" cy="13.567773712308728" r="0.00501158745701355"></circle><circle cx="56.544522639025246" cy="13.075492915581307" r="0.09276252469357424"></circle><circle cx="54.17744364944498" cy="12.733406856063276" r="0.12040422237760148"></circle><circle cx="51.79337242081546" cy="12.542907008681809" r="0.12275748741890455"></circle><circle cx="49.40200644079393" cy="12.504768253774614" r="0.11639385537530342"></circle><circle cx="47.01307286928805" cy="12.619145725173468" r="0.3214724181249877"></circle><circle cx="44.63628897210157" cy="12.885574179179322" r="0.12138577901602252"></circle><circle cx="42.2813225948197" cy="13.302969886995498" r="0.10246024802893891"></circle><circle cx="39.95775283772382" cy="13.869635042920535" r="0.3924462453858909"></circle><circle cx="37.67503109168116" cy="14.583264670371236" r="0.015383525907081336"></circle><circle cx="35.44244259351326" cy="15.440955997643059" r="0.3929110852646067"></circle><circle cx="31.163749734627963" cy="17.573996916976157" r="0.22154974503216948"></circle><circle cx="29.135049455922772" cy="18.84067011642883" r="0.00854144656873021"></circle><circle cx="27.191219795982732" cy="20.234087522724423" r="0.0775658593207896"></circle><circle cx="25.340167508560274" cy="21.748581248119" r="0.34997121346884585"></circle><circle cx="23.5894219646298" cy="23.377990912825137" r="0.22965741346177512"></circle><circle cx="21.946104525792208" cy="25.115688703075914" r="0.0918626213881096"></circle><circle cx="20.41689957730723" cy="26.95460633052942" r="0.13721207767213248"></circle><circle cx="19.008027338576735" cy="28.887263783355962" r="0.17350649113009428"></circle><circle cx="16.573691220859622" cy="33.002003606261034" r="0.20881114158280087"></circle><circle cx="15.55812928782553" cy="35.16734879241548" r="0.2244502618870526"></circle><circle cx="13.950855453203587" cy="39.66998657095847" r="0.048995823520158605"></circle><circle cx="12.92952155944576" cy="44.34052756978151" r="0.019445643900423"></circle><circle cx="12.510728286785621" cy="49.103057185332204" r="0.16081379057025755"></circle><circle cx="12.701282667914242" cy="53.880165638367174" r="0.2505328372129515"></circle><circle cx="13.024483946393104" cy="56.24989700470805" r="0.08110953129787976"></circle><circle cx="14.120166732313855" cy="60.90355743246407" r="0.00538615764712444"></circle><circle cx="15.799037486975202" cy="65.37999230112527" r="0.3299376618195845"></circle><circle cx="16.848999953816154" cy="67.5288675030054" r="0.004376350843740856"></circle><circle cx="18.033807978074673" cy="69.60644199280935" r="0.20327095426701722"></circle><circle cx="19.348642214987233" cy="71.60426499409635" r="0.39546716582042785"></circle><circle cx="20.788154423012966" cy="73.51421012890425" r="0.21506685827810232"></circle><circle cx="24.017307892780757" cy="77.03978015556797" r="0.10930435233571653"></circle><circle cx="25.793814196331336" cy="78.64106438033107" r="0.22161684985426508"></circle><circle cx="27.668781982585458" cy="80.1258477367642" r="0.15724516884404002"></circle><circle cx="29.634584601489156" cy="81.48809069546925" r="0.186985355733125"></circle><circle cx="31.683225921717813" cy="82.7222521744022" r="0.02876073484342398"></circle><circle cx="33.80637285587166" cy="83.82331207786945" r="0.017885555854357"></circle><circle cx="38.241371043541164" cy="85.6087720241" r="0.01146392788149983"></circle><circle cx="19.949983531744298" cy="74.859535600199" r="0.14059780666351326"></circle><circle cx="21.570223530564927" cy="76.69733713121883" r="0.18597079238933453"></circle><circle cx="23.302662868781006" cy="78.42977646943493" r="0.23867511376403447"></circle><circle cx="25.14046439980105" cy="80.05001646825573" r="0.2719545537141248"></circle><circle cx="27.0763751605936" cy="81.55166278062299" r="0.0004975654949888886"></circle><circle cx="33.39460762896206" cy="85.28825504617471" r="0.3929073967053982"></circle><circle cx="35.64314244529756" cy="86.26128294964181" r="0.32370241648655196"></circle><circle cx="37.94833721937691" cy="87.09120413551094" r="0.3934120258164011"></circle><circle cx="40.30109440057065" cy="87.77474328401661" r="0.1519942552367398"></circle><circle cx="42.69212873115657" cy="88.30920277841884" r="0.027608213551986588"></circle><circle cx="45.112003890992085" cy="88.69247335126462" r="0.255411114732527"></circle><circle cx="47.551169738356855" cy="88.9230424087026" r="0.25929746978414925"></circle><circle cx="49.99999999999992" cy="89" r="0.09053489661541933"></circle><circle cx="52.448830261642996" cy="88.9230424087026" r="0.30518160713530684"></circle><circle cx="59.69890559942894" cy="87.77474328401672" r="0.17182879597756648"></circle><circle cx="62.05166278062294" cy="87.09120413551099" r="0.2969674538481468"></circle><circle cx="64.35685755470254" cy="86.26128294964175" r="0.10119768854331065"></circle><circle cx="66.6053923710378" cy="85.28825504617478" r="0.11545904389327175"></circle><circle cx="68.78839328996673" cy="84.17596052171078" r="0.3808096316751173"></circle><circle cx="70.89724500418082" cy="82.92878909457863" r="0.38930583462927826"></circle><circle cx="72.92362483940627" cy="81.55166278062308" r="0.20862596459548097"></circle><circle cx="74.85953560019883" cy="80.05001646825583" r="0.12253149324773513"></circle><circle cx="76.69733713121867" cy="78.42977646943521" r="0.27197304699624414"></circle><circle cx="78.42977646943515" cy="76.69733713121875" r="0.020578532880691863"></circle><circle cx="80.05001646825579" cy="74.8595356001989" r="0.3403106366459141"></circle><circle cx="81.55166278062302" cy="72.92362483940634" r="0.18499712538267363"></circle><circle cx="82.92878909457858" cy="70.89724500418089" r="0.19710537062582775"></circle><circle cx="84.17596052171059" cy="68.78839328996705" r="0.2952809751207264"></circle><circle cx="85.28825504617474" cy="66.60539237103788" r="0.0854118242332966"></circle><circle cx="86.26128294964172" cy="64.35685755470263" r="0.23953554174840383"></circle><circle cx="87.77474328401662" cy="59.698905599429295" r="0.2052188597410046"></circle><circle cx="88.30920277841889" cy="57.307871268843094" r="0.05178124407620674"></circle><circle cx="88.69247335126464" cy="54.887996109007844" r="0.3509776030558499"></circle><circle cx="88.92304240870259" cy="52.44883026164336" r="0.19606378167395863"></circle><circle cx="89" cy="50.00000000000001" r="0.31307311594306886"></circle><circle cx="88.9230424087026" cy="47.55116973835694" r="0.09400688062970194"></circle><circle cx="88.69247335126468" cy="45.11200389099245" r="0.3814699197197786"></circle><circle cx="88.30920277841889" cy="42.69212873115693" r="0.23061288839343316"></circle><circle cx="87.7747432840167" cy="40.301094400570996" r="0.2846402339111266"></circle><circle cx="87.09120413551096" cy="37.948337219376995" r="0.14256318161771617"></circle><circle cx="86.26128294964184" cy="35.64314244529764" r="0.22868599988731106"></circle><circle cx="85.28825504617475" cy="33.394607628962135" r="0.3631987945792996"></circle><circle cx="84.17596052171075" cy="31.21160671003321" r="0.2686553469220514"></circle><circle cx="82.92878909457859" cy="29.10275499581913" r="0.2141322327110465"></circle><circle cx="78.42977646943517" cy="23.30266286878127" r="0.33811664959087784"></circle><circle cx="76.69733713121869" cy="21.5702235305648" r="0.354915362752768"></circle><circle cx="74.85953560019884" cy="19.949983531744177" r="0.09337149580802892"></circle><circle cx="72.92362483940651" cy="18.4483372193771" r="0.24893049542799114"></circle><circle cx="68.78839328996699" cy="15.824039478289372" r="0.2109538723999312"></circle><circle cx="66.60539237103806" cy="14.711744953825352" r="0.06682164571958246"></circle><circle cx="64.35685755470257" cy="13.738717050358247" r="0.20949860593441702"></circle><circle cx="57.3078712688433" cy="11.69079722158115" r="0.26609209735523676"></circle><circle cx="54.88799610900778" cy="11.307526648735355" r="0.37406519017599704"></circle><circle cx="52.44883026164329" cy="11.076957591297415" r="0.110662645422938"></circle><circle cx="49.99999999999994" cy="11" r="0.16564441883546696"></circle><circle cx="47.551169738356876" cy="11.076957591297408" r="0.13263140718578578"></circle><circle cx="45.11200389099238" cy="11.307526648735333" r="0.3495877013100265"></circle><circle cx="42.69212873115686" cy="11.690797221581121" r="0.11957600203354277"></circle><circle cx="40.30109440057093" cy="12.22525671598332" r="0.28523729145220655"></circle><circle cx="37.94833721937693" cy="12.90879586448905" r="0.357363387476337"></circle><circle cx="35.643142445297585" cy="13.738717050358183" r="0.15908843457321428"></circle><circle cx="33.39460762896208" cy="14.711744953825281" r="0.32663852836453744"></circle><circle cx="31.211606710033152" cy="15.824039478289293" r="0.385046755194265"></circle><circle cx="29.102754995819307" cy="17.071210905421296" r="0.24792284190012923"></circle><circle cx="23.302662868781425" cy="21.570223530564686" r="0.2724678616365235"></circle><circle cx="21.57022353056494" cy="23.30266286878115" r="0.3282289302353353"></circle><circle cx="19.94998353174413" cy="25.140464399801207" r="0.2757734679360242"></circle><circle cx="18.44833721937706" cy="27.07637516059354" r="0.05419066306585882"></circle><circle cx="17.071210905421502" cy="29.10275499581899" r="0.22736800798677578"></circle><circle cx="15.824039478289336" cy="31.211606710033067" r="0.13237768432973115"></circle><circle cx="14.711744953825317" cy="33.39460762896199" r="0.10908304423590917"></circle><circle cx="13.738717050358218" cy="35.6431424452975" r="0.2117277275275705"></circle><circle cx="12.908795864489079" cy="37.94833721937684" r="0.2647764015984244"></circle><circle cx="12.225256715983342" cy="40.30109440057084" r="0.2920545078711725"></circle><circle cx="11.307526648735347" cy="45.112003890992284" r="0.29054098284352037"></circle><circle cx="11.076957591297408" cy="47.551169738356776" r="0.17172834025254266"></circle><circle cx="11" cy="49.999999999999844" r="0.2419750836684985"></circle><circle cx="11.30752664873534" cy="54.88799610900769" r="0.04969503604439027"></circle><circle cx="11.690797221581079" cy="57.30787126884293" r="0.23197607720170874"></circle><circle cx="12.225256715983335" cy="59.69890559942913" r="0.3584243113916238"></circle><circle cx="12.908795864489072" cy="62.05166278062313" r="0.35717311797366347"></circle><circle cx="12.376442847419895" cy="35.00940470873359" r="0.014774274979898111"></circle><circle cx="11.521132104082838" cy="37.365652947280736" r="0.009017546409171712"></circle><circle cx="10.813226032625849" cy="39.770300784972825" r="0.18762259170591897"></circle><circle cx="10.25543647640307" cy="42.21413650782596" r="0.06394412390671897"></circle><circle cx="9.849900213106068" cy="44.68779828108346" r="0.3066199621109932"></circle><circle cx="9.598170769205204" cy="47.18181001249114" r="0.059738460169999924"></circle><circle cx="9.501212468707706" cy="49.68661765326697" r="0.05014891714154754"></circle><circle cx="9.55939673902948" cy="52.19262579770933" r="0.3085830341360988"></circle><circle cx="9.77250068813278" cy="54.690234441232356" r="0.23822452953449977"></circle><circle cx="10.13970795838003" cy="57.16987575602031" r="0.05976712030115047"></circle><circle cx="11.330220729016197" cy="62.03736562265148" r="0.014852629362604536"></circle><circle cx="12.14896561850577" cy="64.40656781648363" r="0.3647513687150745"></circle><circle cx="13.11271007810781" cy="66.72058139594048" r="0.10480300598966294"></circle><circle cx="14.217762199936068" cy="68.9705418483415" r="0.1512721433581595"></circle><circle cx="15.459888755355074" cy="71.14783003543279" r="0.3281180652626998"></circle><circle cx="18.33582496004474" cy="75.25133697527863" r="0.2719036155002942"></circle><circle cx="19.958617486001394" cy="77.16183603233807" r="0.2783614555774533"></circle><circle cx="21.696492403265733" cy="78.96828365163537" r="0.027565996539817922"></circle><circle cx="23.542792268521207" cy="80.66375970185945" r="0.34058404477899007"></circle><circle cx="25.490444284652344" cy="82.24176916107845" r="0.048561317850669944"></circle><circle cx="27.531987395186714" cy="83.69626699784342" r="0.03603781951412463"></circle><circle cx="29.65960086607514" cy="85.02168132846606" r="0.31227042058278587"></circle><circle cx="31.865134245323265" cy="86.21293476176507" r="0.2948879100443067"></circle><circle cx="34.140138585707426" cy="87.26546384951399" r="0.07420670191747977"></circle><circle cx="36.47589881096221" cy="88.17523656807731" r="0.22538140698773432"></circle><circle cx="38.86346710145541" cy="88.93876776426848" r="0.382579853939192"></circle><circle cx="41.29369717145312" cy="89.55313250625842" r="0.3807862215079806"></circle><circle cx="43.757279306673574" cy="90.01597728839212" r="0.04293448056242874"></circle><circle cx="48.7466582440006" cy="90.48060195257314" r="0.18033738252740358"></circle><circle cx="53.755223972107146" cy="90.325529046986" r="0.04772938837939608"></circle><circle cx="56.24272069332625" cy="90.01597728839215" r="0.11786467648211871"></circle><circle cx="61.13653289854442" cy="88.93876776426853" r="0.27227731815640643"></circle><circle cx="63.52410118903763" cy="88.17523656807737" r="0.24480123808043128"></circle><circle cx="65.85986141429241" cy="87.26546384951405" r="0.013867295257465412"></circle><circle cx="68.13486575467658" cy="86.21293476176515" r="0.20523132094226568"></circle><circle cx="70.3403991339247" cy="85.02168132846616" r="0.3741231309355876"></circle><circle cx="72.46801260481314" cy="83.69626699784351" r="0.13188363856619031"></circle><circle cx="74.50955571534752" cy="82.24176916107855" r="0.13067527767523732"></circle><circle cx="76.45720773147865" cy="80.66375970185956" r="0.028224000084420137"></circle><circle cx="78.30350759673414" cy="78.9682836516355" r="0.07514768015011994"></circle><circle cx="80.04138251399849" cy="77.16183603233821" r="0.03454152102574268"></circle><circle cx="81.66417503995515" cy="75.25133697527878" r="0.054340271934961465"></circle><circle cx="83.16566858838607" cy="73.24410521154431" r="0.010986363317235098"></circle><circle cx="84.54011124464483" cy="71.14783003543295" r="0.2795785115920434"></circle><circle cx="85.78223780006385" cy="68.97054184834167" r="0.00028185275188560843"></circle><circle cx="86.88728992189212" cy="66.72058139594064" r="0.30937431944817306"></circle><circle cx="87.85103438149417" cy="64.4065678164838" r="0.16273027860584308"></circle><circle cx="88.66977927098375" cy="62.037365622651656" r="0.34820724704367745"></circle><circle cx="89.34038814616719" cy="59.62205074341787" r="0.10153122708255577"></circle><circle cx="89.86029204161994" cy="57.16987575602049" r="0.02124250595752472"></circle><circle cx="90.4406032609705" cy="52.19262579770951" r="0.3150638560314074"></circle><circle cx="90.40182923079482" cy="47.18181001249132" r="0.20895934007054148"></circle><circle cx="90.15009978689395" cy="44.68779828108364" r="0.38820950806020116"></circle><circle cx="89.74456352359695" cy="42.21413650782614" r="0.2666948446900904"></circle><circle cx="89.1867739673742" cy="39.770300784972996" r="0.2214862408961142"></circle><circle cx="87.62355715258016" cy="35.009404708733754" r="0.21266911533958308"></circle><circle cx="86.62411825786299" cy="32.71058237435203" r="0.03726894867608174"></circle><circle cx="85.48437985773174" cy="30.477992262264586" r="0.14823153917888185"></circle><circle cx="84.20870805685851" cy="28.320186968504007" r="0.03379174616339328"></circle><circle cx="82.80198969296791" cy="26.245432603761703" r="0.2439045294659644"></circle><circle cx="81.26961361636108" cy="24.26167712760823" r="0.3374022750718817"></circle><circle cx="79.61745004633333" cy="22.376519901486898" r="0.056156488023171275"></circle><circle cx="77.85182808356382" cy="20.59718257711336" r="0.24481568570395337"></circle><circle cx="75.9795114646254" cy="18.93048143180526" r="0.3862653256744205"></circle><circle cx="69.79599559967843" cy="14.667740544687604" r="0.3447299148154248"></circle><circle cx="67.57229143426119" cy="13.510760849952064" r="0.15177195251930317"></circle><circle cx="65.281271414852" cy="12.493563966358693" r="0.25470795103828525"></circle><circle cx="62.93171197050706" cy="11.620046567096459" r="0.010382325833866751"></circle><circle cx="60.53261378284423" cy="10.893554918639822" r="0.03503544155405833"></circle><circle cx="58.093167306274154" cy="10.316872061886869" r="0.2648088376227886"></circle><circle cx="53.13072833539749" cy="9.621186990081796" r="0.1637287549110664"></circle><circle cx="50.62674592969862" cy="9.504849802234261" r="0.20101413496099405"></circle><circle cx="48.120362588547124" cy="9.543641251325312" r="0.2785994537435573"></circle><circle cx="45.62117975383043" cy="9.737412735248427" r="0.27163120134881114"></circle><circle cx="43.138771283768726" cy="10.085421955085593" r="0.008716798917146024"></circle><circle cx="40.68264677742332" cy="10.586335758702411" r="0.0411078918179095"></circle><circle cx="38.26221514536646" cy="11.238235247781411" r="0.10681949640644403"></circle><circle cx="35.886748566069585" cy="12.0386231287291" r="0.1395966450465593"></circle><circle cx="33.565346966085656" cy="12.984433279296532" r="0.06300956823443701"></circle><circle cx="31.306903160090847" cy="14.07204249426669" r="0.14480996491517548"></circle><circle cx="29.120068784330616" cy="15.29728436521264" r="0.39815214604416327"></circle><circle cx="27.013221153971976" cy="16.655465241155355" r="0.32491273036990165"></circle><circle cx="24.99443117132122" cy="18.14138220898138" r="0.0746585069422859"></circle><circle cx="23.071432407848892" cy="19.749343024738305" r="0.1801490533367229"></circle><circle cx="21.251591478460472" cy="21.47318791945596" r="0.0334996261803949"></circle><circle cx="19.541879821498362" cy="23.306313195964265" r="0.31492586633480635"></circle><circle cx="17.94884699259184" cy="25.241696526302317" r="0.28810051841112005"></circle><circle cx="43.61961048186565" cy="8.487464187346" r="0.10741754733688266"></circle><circle cx="41.100709119085124" cy="8.953652759144752" r="0.08512222976511238"></circle><circle cx="38.614913702888906" cy="9.57253643861226" r="0.29175787964186894"></circle><circle cx="36.171471555492545" cy="10.341812937812598" r="0.39952741508847267"></circle><circle cx="31.447814756731145" cy="12.319548533763061" r="0.16886234570323364"></circle><circle cx="29.185172418908547" cy="13.520650324198016" r="0.14587703629127688"></circle><circle cx="26.99996260680964" cy="14.857457691398515" r="0.24698541466284327"></circle><circle cx="24.90031444446051" cy="16.32499762415685" r="0.2601068557816215"></circle><circle cx="22.89403876093114" cy="17.917810777534264" r="0.37951939361573794"></circle><circle cx="20.98859903353638" cy="19.629971781984235" r="0.36993694727750404"></circle><circle cx="19.191083623211615" cy="21.45511128611533" r="0.08220593936963513"></circle><circle cx="17.508179405344492" cy="23.386439651096655" r="0.17360100424256006"></circle><circle cx="15.946146894159547" cy="25.416772208559745" r="0.06326446006688055"></circle><circle cx="14.510796953192447" cy="27.538555988038848" r="0.03072857289911965"></circle><circle cx="13.207469178498016" cy="29.7438978145146" r="0.28882498182457994"></circle><circle cx="11.01576481988748" cy="34.37215922074717" r="0.08066478008751263"></circle><circle cx="10.135541520137188" cy="36.77786136408736" r="0.0361223484154419"></circle><circle cx="9.403616624238161" cy="39.23275073158573" r="0.05985641079510959"></circle><circle cx="8.004884005925213" cy="49.35950593741677" r="0.30959369352641697"></circle><circle cx="8.043949238301401" cy="51.92088637919339" r="0.28826261711194556"></circle><circle cx="8.239093735193414" cy="54.47512099747459" r="0.3461222626865683"></circle><circle cx="8.589591546255718" cy="57.01270787171859" r="0.23202955215933527"></circle><circle cx="9.750858537347298" cy="62.00027547681182" r="0.20616055254842366"></circle><circle cx="10.557307727897452" cy="64.4317021285856" r="0.19220050638648276"></circle><circle cx="11.510486324304125" cy="66.80944190056351" r="0.27211512147075867"></circle><circle cx="12.606848439583786" cy="69.12464944462363" r="0.3695882638691804"></circle><circle cx="13.84231553465861" cy="71.36871203663922" r="0.03277048351632203"></circle><circle cx="16.711680207065093" cy="75.61030584283012" r="0.3877140602185496"></circle><circle cx="18.334903559355027" cy="77.59205804945788" r="0.10353933484879937"></circle><circle cx="20.075923150174813" cy="79.47116598788986" r="0.06925365584302687"></circle><circle cx="23.885030102520666" cy="82.89389528854478" r="0.149060408165914"></circle><circle cx="25.938947336001235" cy="84.42478387296393" r="0.16668561318399652"></circle><circle cx="30.30733420645923" cy="87.09715506536733" r="0.2249408584473149"></circle><circle cx="32.605553157361214" cy="88.22869627699346" r="0.01672859086679565"></circle><circle cx="34.96848059298905" cy="89.21802422760041" r="0.2942824870291706"></circle><circle cx="37.387326268084635" cy="90.06145855223262" r="0.07403678879376838"></circle><circle cx="39.85309191786547" cy="90.75586161980523" r="0.3299702086386799"></circle><circle cx="47.43951314981065" cy="91.92187862071555" r="0.3776123983296563"></circle><circle cx="49.9999999999999" cy="92" r="0.3107592134306202"></circle><circle cx="52.56048685018914" cy="91.92187862071556" r="0.3339416022301349"></circle><circle cx="57.64339526783688" cy="91.29865020529859" r="0.2969572408795812"></circle><circle cx="60.14690808213433" cy="90.75586161980527" r="0.3767579631505613"></circle><circle cx="62.612673731915166" cy="90.06145855223268" r="0.3620210685429298"></circle><circle cx="69.69266579354058" cy="87.09715506536743" r="0.02241615046020204"></circle><circle cx="71.9176267342724" cy="85.827610000349" r="0.0910575156648826"></circle><circle cx="74.0610526639986" cy="84.42478387296406" r="0.3713399808515164"></circle><circle cx="76.11496989747917" cy="82.89389528854491" r="0.28514883136680313"></circle><circle cx="78.07173772770437" cy="81.24063925317436" r="0.3172764410306199"></circle><circle cx="79.92407684982504" cy="79.47116598789" r="0.049687334131474165"></circle><circle cx="81.66509644064485" cy="77.59205804945803" r="0.01213204795819331"></circle><circle cx="83.28831979293477" cy="75.61030584283029" r="0.06351114926396104"></circle><circle cx="84.78770840921112" cy="73.53328161637688" r="0.33615863896653375"></circle><circle cx="86.15768446534128" cy="71.36871203663941" r="0.09960484788814625"></circle><circle cx="87.39315156041611" cy="69.1246494446238" r="0.19448443262088574"></circle><circle cx="88.48951367569579" cy="66.8094419005637" r="0.06058402596782017"></circle><circle cx="89.44269227210258" cy="64.43170212858551" r="0.0659162980379345"></circle><circle cx="90.24914146265256" cy="62.000275476812305" r="0.027552761961740474"></circle><circle cx="90.90586120338965" cy="59.52420701208356" r="0.03660616419167537"></circle><circle cx="91.41040845374431" cy="57.0127078717185" r="0.0074825035535098505"></circle><circle cx="91.95605076169858" cy="51.9208863791936" r="0.27175767364625614"></circle><circle cx="91.99511599407478" cy="49.359505937417275" r="0.2444892396992104"></circle><circle cx="91.8779566367049" cy="46.800508175621545" r="0.11488824790210125"></circle><circle cx="91.60500853009336" cy="44.253412733555805" r="0.06491790561743324"></circle><circle cx="91.17728705912408" cy="41.72769497355831" r="0.20023328332453447"></circle><circle cx="90.59638337576189" cy="39.23275073158593" r="0.1709791529623764"></circle><circle cx="89.86445847986278" cy="36.77786136408727" r="0.18148344370073408"></circle><circle cx="88.9842351801127" cy="34.37215922074764" r="0.36487315436022083"></circle><circle cx="87.95898796499957" cy="32.024593671546164" r="0.3905317190497548"></circle><circle cx="86.79253082150194" cy="29.74389781451452" r="0.033647570872050364"></circle><circle cx="85.48920304680766" cy="27.538555988039022" r="0.27265318951933937"></circle><circle cx="84.05385310584057" cy="25.416772208559912" r="0.07061642584962555"></circle><circle cx="82.49182059465545" cy="23.386439651096588" r="0.3921481837539025"></circle><circle cx="79.01140096646377" cy="19.62997178198438" r="0.12845605356666454"></circle><circle cx="77.10596123906925" cy="17.91781077753459" r="0.22272588957446057"></circle><circle cx="73.00003739319028" cy="14.857457691398466" r="0.23796090463923134"></circle><circle cx="70.81482758109189" cy="13.520650324198257" r="0.01528668761427629"></circle><circle cx="68.55218524326904" cy="12.319548533763154" r="0.09264905802982268"></circle><circle cx="66.22052755782975" cy="11.25862049764251" r="0.3605189699133945"></circle><circle cx="63.828528444507654" cy="10.34181293781267" r="0.08831058093730834"></circle><circle cx="61.38508629711129" cy="9.572536438612318" r="0.15629652731686913"></circle><circle cx="89.83613970949507" cy="32.52624902759599" r="0.2593507096050247"></circle><circle cx="88.71415755675761" cy="30.16407288099325" r="0.12410900834128855"></circle><circle cx="87.45225980756899" cy="27.873585123062686" r="0.15661517403928213"></circle><circle cx="84.52744903895056" cy="23.540497683012404" r="0.2094820339019827"></circle><circle cx="82.87510648441034" cy="21.513558073380228" r="0.29879147248242444"></circle><circle cx="81.10395106082055" cy="19.589570400829913" r="0.2903689015053825"></circle><circle cx="77.23121217462882" cy="16.077867350351532" r="0.03836471996089072"></circle><circle cx="75.14362505355656" cy="14.502843505906526" r="0.027797655794537163"></circle><circle cx="72.96516716276236" cy="13.056108797442825" r="0.07838049823358281"></circle><circle cx="70.70371159711306" cy="11.742891822517919" r="0.3236583565546035"></circle><circle cx="68.36743141071247" cy="10.567938636526073" r="0.23022619292550847"></circle><circle cx="65.96477007893058" cy="9.53549560013267" r="0.23788659375064"></circle><circle cx="60.99524602821959" cy="7.912536726729165" r="0.07247171058041332"></circle><circle cx="58.44634350694267" cy="7.327886373385162" r="0.07487083810074366"></circle><circle cx="55.86691532621161" cy="6.897455938714437" r="0.08070150262723971"></circle><circle cx="53.266283714772555" cy="6.622801027560442" r="0.3524547951738398"></circle><circle cx="50.65384753200876" cy="6.5049142614376905" r="0.10317279465015736"></circle><circle cx="45.43133608036063" cy="6.740581256917174" r="0.2565908067761814"></circle><circle cx="42.84013532278809" cy="7.093283301981572" r="0.21960987723614142"></circle><circle cx="37.74463377739829" cy="8.262055647769216" r="0.005985077555329371"></circle><circle cx="35.25874847845935" cy="9.073901925804414" r="0.39959784272851917"></circle><circle cx="32.82613906434565" cy="10.03365790364591" r="0.28698965621171313"></circle><circle cx="30.455597150800475" cy="11.137854957964542" r="0.041482503018961586"></circle><circle cx="28.155690037404202" cy="12.382502445563475" r="0.19508049858759266"></circle><circle cx="23.800742974325114" cy="15.27466441771044" r="0.3162851912745248"></circle><circle cx="19.82419729162787" cy="18.668371716340673" r="0.23259304286611424"></circle><circle cx="16.283487075096247" cy="22.51460831305477" r="0.03249920094472433"></circle><circle cx="14.692818033582434" cy="24.590299065312113" r="0.25655176151329606"></circle><circle cx="10.707096452526528" cy="31.336727757197913" r="0.39438923915640556"></circle><circle cx="9.656624891196884" cy="33.73156169663463" r="0.023809732111641363"></circle><circle cx="7.996362397894664" cy="38.688747717825294" r="0.11892700356878325"></circle><circle cx="7.392571767405407" cy="41.233184192404785" r="0.03033902619884507"></circle><circle cx="6.94276727817946" cy="43.80930453511187" r="0.12626707807747903"></circle><circle cx="6.648574554209901" cy="46.40779847195307" r="0.2544131758013901"></circle><circle cx="6.511056827994693" cy="49.01927486924579" r="0.3816852634092157"></circle><circle cx="6.530711097942238" cy="51.6342956738112" r="0.23425006496914744"></circle><circle cx="6.707466332185248" cy="54.2434100227442" r="0.026357590262193836"></circle><circle cx="7.529159006966125" cy="59.40625671265851" r="0.08005786564521342"></circle><circle cx="8.171126794334725" cy="61.94133017483301" r="0.08849795160420312"></circle><circle cx="8.964266972188021" cy="64.43324685821389" r="0.013338936848196287"></circle><circle cx="9.905713078021272" cy="66.87300080655618" r="0.1434014598270735"></circle><circle cx="10.992062661626207" cy="69.25177458328201" r="0.3709931722939823"></circle><circle cx="13.583258195579958" cy="73.7922448783255" r="0.10530103191523607"></circle><circle cx="15.078739389169307" cy="75.93753182842278" r="0.3961753916296755"></circle><circle cx="16.700428391879953" cy="77.98907877575976" r="0.35629344443141475"></circle><circle cx="18.442464309444222" cy="79.93947129024323" r="0.10508512880282725"></circle><circle cx="20.298551305666873" cy="81.78166052077671" r="0.37108832207923115"></circle><circle cx="22.261981356001698" cy="83.50898867028371" r="0.002862973569054711"></circle><circle cx="24.32565849081163" cy="85.1152130574423" r="0.008006297238532717"></circle><circle cx="26.482124440681027" cy="86.59452867815608" r="0.378896557349397"></circle><circle cx="28.723585591114162" cy="87.94158918523782" r="0.3491653323298568"></circle><circle cx="31.041941149180534" cy="89.15152621046676" r="0.3543924314481267"></circle><circle cx="33.428812420337316" cy="90.21996695920613" r="0.18580162347642423"></circle><circle cx="35.875573089595974" cy="91.1430500139775" r="0.22915723455812362"></circle><circle cx="40.91320709903045" cy="92.54033609146606" r="0.22936304876145072"></circle><circle cx="46.08208356979126" cy="93.32320314618832" r="0.39030049313953374"></circle><circle cx="48.69245266829059" cy="93.48034406459246" r="0.3246507951457984"></circle><circle cx="51.30754733170917" cy="93.48034406459246" r="0.024488556321248217"></circle><circle cx="53.91791643020851" cy="93.32320314618832" r="0.3845296392312879"></circle><circle cx="56.51412591246533" cy="93.00948922733852" r="0.07095675418349931"></circle><circle cx="64.1244269104038" cy="91.14305001397759" r="0.3726839664179947"></circle><circle cx="68.95805885081926" cy="89.15152621046687" r="0.112824654048535"></circle><circle cx="71.27641440888563" cy="87.94158918523793" r="0.017025966204038706"></circle><circle cx="73.51787555931878" cy="86.5945286781562" r="0.2339573516697869"></circle><circle cx="75.67434150918818" cy="85.11521305744245" r="0.17894888075946666"></circle><circle cx="77.73801864399812" cy="83.50898867028386" r="0.3198365167858215"></circle><circle cx="81.55753569055561" cy="79.9394712902434" r="0.029510594065030066"></circle><circle cx="83.29957160811989" cy="77.98907877575994" r="0.3634050200084875"></circle><circle cx="84.92126061083056" cy="75.93753182842298" r="0.12610051794907914"></circle><circle cx="87.78061041822079" cy="71.5609711383005" r="0.28962863837730246"></circle><circle cx="89.0079373383737" cy="69.25177458328223" r="0.06746898133860443"></circle><circle cx="90.09428692197864" cy="66.87300080655639" r="0.016097673475726965"></circle><circle cx="91.0357330278119" cy="64.43324685821412" r="0.0326729260505407"></circle><circle cx="91.82887320566522" cy="61.94133017483324" r="0.3442860862629086"></circle><circle cx="92.47084099303382" cy="59.406256712658745" r="0.13399336067312326"></circle><circle cx="92.9593162747053" cy="56.83718839946949" r="0.04107019786916696"></circle><circle cx="93.29253366781474" cy="54.24341002274443" r="0.302215480351694"></circle><circle cx="93.46928890205776" cy="51.63429567381144" r="0.0684746035439748"></circle><circle cx="75.13910446116417" cy="87.32325584525921" r="0.060973238032930394"></circle><circle cx="77.30600656183663" cy="85.76844986360095" r="0.01651380371518238"></circle><circle cx="79.3769953185735" cy="84.08800589727286" r="0.11617463234900124"></circle><circle cx="83.20249755687796" cy="80.37423506831922" r="0.34982265078784003"></circle><circle cx="84.94357382231182" cy="78.35395296117711" r="0.19973184083528903"></circle><circle cx="86.56190951025566" cy="76.23407656015124" r="0.17293332448423035"></circle><circle cx="88.05182015758191" cy="74.022052008416" r="0.13568841909886228"></circle><circle cx="89.40807239880348" cy="71.72564912288382" r="0.1573896373777944"></circle><circle cx="90.62590234845837" cy="69.3529341024436" r="0.08763808246217594"></circle><circle cx="91.70103233443248" cy="66.91224119514075" r="0.3860706393859188"></circle><circle cx="92.62968592343864" cy="64.4121434238276" r="0.24419506395151633"></circle><circle cx="93.40860118587604" cy="61.86142247310842" r="0.07287935968256085"></circle><circle cx="94.03504215347763" cy="59.269037843349665" r="0.2185402148295231"></circle><circle cx="94.82224291768478" cy="53.99581528953201" r="0.18392630653539851"></circle><circle cx="94.98023764289576" cy="48.6665002479851" r="0.25811250971660515"></circle><circle cx="94.82224291768478" cy="46.004184710468074" r="0.09584204473773436"></circle><circle cx="94.50680842949747" cy="43.355904619888975" r="0.17269380602156734"></circle><circle cx="94.03504215347765" cy="40.73096215665042" r="0.31311899947951216"></circle><circle cx="93.40860118587622" cy="38.138577526892284" r="0.34122843323214547"></circle><circle cx="92.62968592343867" cy="35.587856576172484" r="0.14584827225587624"></circle><circle cx="91.70103233443251" cy="33.08775880485932" r="0.1562986114148631"></circle><circle cx="90.62590234845868" cy="30.647065897557063" r="0.021636855125421656"></circle><circle cx="89.40807239880354" cy="28.27435087711626" r="0.15492708214132186"></circle><circle cx="88.05182015758231" cy="25.97794799158462" r="0.16700292093168675"></circle><circle cx="86.5619095102557" cy="23.76592343984883" r="0.39843114212876807"></circle><circle cx="83.20249755687803" cy="19.62576493168085" r="0.3142294657361885"></circle><circle cx="81.34479630783461" cy="17.71217343300485" r="0.1216421157489985"></circle><circle cx="79.37699531857358" cy="15.911994102727192" r="0.16608008715673492"></circle><circle cx="77.3060065618367" cy="14.2315501363991" r="0.09234571806032252"></circle><circle cx="75.13910446116476" cy="12.676744154741193" r="0.0020975950908254937"></circle><circle cx="72.88390033921522" cy="11.253037470469174" r="0.015839605685257968"></circle><circle cx="70.54831568271726" cy="9.96543090523646" r="0.11335167384388908"></circle><circle cx="65.66907359454785" cy="7.816115248964522" r="0.31930483262365517"></circle><circle cx="63.14255467866428" cy="6.961955707556605" r="0.36457570514835225"></circle><circle cx="60.5698720601445" cy="6.258968866381572" r="0.3118095774953097"></circle><circle cx="57.96006238051587" cy="5.709623992358161" r="0.012012300813742466"></circle><circle cx="55.322292691461406" cy="5.31585067939173" r="0.23131695968025287"></circle><circle cx="52.66582825521694" cy="5.079032070605521" r="0.10042429330847777"></circle><circle cx="47.33417174478299" cy="5.079032070605528" r="0.014412576683687756"></circle><circle cx="44.67770730853917" cy="5.315850679391666" r="0.1838754713527506"></circle><circle cx="42.039937619484064" cy="5.709623992358175" r="0.313159522267759"></circle><circle cx="39.43012793985544" cy="6.258968866381586" r="0.03902425920983252"></circle><circle cx="36.85744532133627" cy="6.9619557075564344" r="0.35687240580813784"></circle><circle cx="34.33092640545209" cy="7.816115248964543" r="0.060182090947865946"></circle><circle cx="31.859445682041738" cy="8.818447224063952" r="0.06481009730657447"></circle><circle cx="29.451684317282684" cy="9.965430905236488" r="0.1271242845994673"></circle><circle cx="27.11609966078528" cy="11.253037470468882" r="0.365803376427115"></circle><circle cx="24.860895538835713" cy="12.676744154740874" r="0.03834803050271171"></circle><circle cx="22.69399343816325" cy="14.231550136399136" r="0.34676497842415654"></circle><circle cx="20.623004681426853" cy="15.911994102726815" r="0.28385979004292217"></circle><circle cx="18.655203692165337" cy="17.7121734330049" r="0.21206832859983557"></circle><circle cx="16.79750244312236" cy="19.625764931680425" r="0.0729249661873361"></circle><circle cx="15.056426177688088" cy="21.64604703882301" r="0.1154956934417943"></circle><circle cx="11.948179842418007" cy="25.977947991584138" r="0.21008685047820627"></circle><circle cx="10.591927601196431" cy="28.274350877116316" r="0.33237032991399873"></circle><circle cx="9.374097651541561" cy="30.647065897556544" r="0.08374375171769519"></circle><circle cx="8.298967665567453" cy="33.087758804859384" r="0.08099408370243175"></circle><circle cx="7.370314076561513" cy="35.587856576171944" r="0.3750944338241494"></circle><circle cx="6.59139881412392" cy="38.13857752689173" r="0.2741342332739799"></circle><circle cx="5.9649578465223385" cy="40.73096215665049" r="0.3261680815855027"></circle><circle cx="5.493191570502617" cy="43.355904619888406" r="0.22717622987212013"></circle><circle cx="5.1777570823152175" cy="46.00418471046814" r="0.3850617992680164"></circle><circle cx="5.019762357104263" cy="48.66650024798453" r="0.11648943373523354"></circle><circle cx="5.177757082315239" cy="53.995815289532075" r="0.28604647854985266"></circle><circle cx="5.493191570502546" cy="56.64409538011118" r="0.2123432973917849"></circle><circle cx="6.591398814123814" cy="61.861422473107865" r="0.19310185597880578"></circle><circle cx="7.370314076561378" cy="64.41214342382766" r="0.2155945576211292"></circle><circle cx="8.298967665567297" cy="66.91224119514023" r="0.23574596716180515"></circle><circle cx="9.374097651541376" cy="69.35293410244307" r="0.39801111260233124"></circle><circle cx="10.591927601196232" cy="71.72564912288331" r="0.35819779608517766"></circle><circle cx="11.94817984241778" cy="74.0220520084155" r="0.3111727575174762"></circle><circle cx="13.438090489744383" cy="76.2340765601513" r="0.13121187471735027"></circle><circle cx="15.056426177687818" cy="78.35395296117667" r="0.3546699971307413"></circle><circle cx="16.797502443122085" cy="80.37423506831927" r="0.2134385531556073"></circle><circle cx="18.65520369216504" cy="82.28782656699481" r="0.2974850865867681"></circle><circle cx="20.623004681426536" cy="84.08800589727292" r="0.15379051444789346"></circle><circle cx="22.693993438163425" cy="85.768449863601" r="0.05171655057713917"></circle><circle cx="24.860895538835365" cy="87.3232558452589" r="0.0036894588177631416"></circle><circle cx="27.116099660784922" cy="88.7469625295309" r="0.3483299848915308"></circle><circle cx="29.45168431728231" cy="90.03456909476333" r="0.18165829846048728"></circle><circle cx="31.859445682041354" cy="91.18155277593587" r="0.24567806658210797"></circle><circle cx="34.3309264054517" cy="92.18388475103531" r="0.36963748703162047"></circle><circle cx="36.85744532133587" cy="93.03804429244343" r="0.12001550646877487"></circle><circle cx="42.03993761948365" cy="94.29037600764175" r="0.3901139997878448"></circle><circle cx="44.67770730853875" cy="94.68414932060828" r="0.14599935757030655"></circle><circle cx="52.66582825521716" cy="94.92096792939446" r="0.20224147894638952"></circle><circle cx="12.58140050335819" cy="77.60612996618536" r="0.039722474476809294"></circle><circle cx="16.056482740528956" cy="81.78187590523868" r="0.24934579278036592"></circle><circle cx="17.970982188790096" cy="83.71041408896068" r="0.33129096767092725"></circle><circle cx="22.12122785450131" cy="87.2159114312597" r="0.17431127601138893"></circle><circle cx="24.34280005417432" cy="88.78089853187936" r="0.28210383909820747"></circle><circle cx="26.651997333765838" cy="90.21344018481287" r="0.07133687935035057"></circle><circle cx="29.040933267767368" cy="91.50864393971236" r="0.372018324006657"></circle><circle cx="31.501449105316006" cy="92.66208638588584" r="0.19407858679499032"></circle><circle cx="34.025141634163276" cy="93.66982825923931" r="0.08046580135695333"></circle><circle cx="36.6033918795161" cy="94.52842789574078" r="0.07741358832332654"></circle><circle cx="39.22739453977377" cy="95.23495298547688" r="0.3917032108936618"></circle><circle cx="41.888188058596754" cy="95.78699058714503" r="0.11077562583292752"></circle><circle cx="44.57668523063033" cy="96.18265536878901" r="0.09453417819815144"></circle><circle cx="47.28370423634395" cy="96.42059604662938" r="0.008593180168053077"></circle><circle cx="49.999999999999865" cy="96.5" r="0.06762408625635838"></circle><circle cx="52.71629576365577" cy="96.42059604662941" r="0.3336273247819894"></circle><circle cx="55.4233147693694" cy="96.18265536878906" r="0.2668925023664589"></circle><circle cx="58.111811941402976" cy="95.78699058714508" r="0.1641232988869938"></circle><circle cx="60.77260546022597" cy="95.23495298547695" r="0.28395696697740025"></circle><circle cx="63.396608120483634" cy="94.52842789574086" r="0.1455261501559418"></circle><circle cx="65.97485836583647" cy="93.66982825923941" r="0.24325486595482612"></circle><circle cx="68.49855089468375" cy="92.66208638588594" r="0.18275365381306927"></circle><circle cx="70.95906673223239" cy="91.50864393971247" r="0.39034474040021483"></circle><circle cx="73.34800266623392" cy="90.21344018481301" r="0.20224852598006557"></circle><circle cx="75.65719994582545" cy="88.7808985318795" r="0.383398282851107"></circle><circle cx="77.87877214549847" cy="87.21591143125985" r="0.027237210280494722"></circle><circle cx="80.0051320990007" cy="85.5238236641485" r="0.23613589991577763"></circle><circle cx="82.02901781120971" cy="83.71041408896087" r="0.3083757605739399"></circle><circle cx="83.94351725947087" cy="81.78187590523889" r="0.19585580043652215"></circle><circle cx="87.41859949664165" cy="77.60612996618558" r="0.03981763809947078"></circle><circle cx="91.66066231510749" cy="70.65524668132971" r="0.3071800193718942"></circle><circle cx="92.79609753596597" cy="68.18636950279215" r="0.07663941253564219"></circle><circle cx="93.78537450593404" cy="65.65538180227814" r="0.3847731951807053"></circle><circle cx="94.62511462275918" cy="63.07092746921981" r="0.12839428247830306"></circle><circle cx="95.31244998600704" cy="60.4418329935702" r="0.12643464926245326"></circle><circle cx="95.8450331915864" cy="57.77707732135545" r="0.04807686825426058"></circle><circle cx="96.22104534865746" cy="55.085761189571464" r="0.09196692283939598"></circle><circle cx="96.43920229155194" cy="52.37707604512724" r="0.011518479976969281"></circle><circle cx="96.39951197108977" cy="46.94462950778499" r="0.2553565802664832"></circle><circle cx="96.1418002590602" cy="44.23942113559834" r="0.37766126704524905"></circle><circle cx="95.72650397257019" cy="41.553886429456284" r="0.07170464494160952"></circle><circle cx="95.15504144138174" cy="38.89719709140533" r="0.3646538824892237"></circle><circle cx="94.42936433793267" cy="36.27842631010436" r="0.0036895902638899025"></circle><circle cx="93.55195101193846" cy="33.70651777385473" r="0.3095354432746674"></circle><circle cx="92.52579802627353" cy="31.19025512590375" r="0.38324676510582034"></circle><circle cx="91.35440992303705" cy="28.738231966334173" r="0.34953002004776235"></circle><circle cx="90.04178725476044" cy="26.358822503003264" r="0.25905195302787365"></circle><circle cx="88.59241292162103" cy="24.060152951740484" r="0.07039057504884469"></circle><circle cx="87.01123686133809" cy="21.85007378350826" r="0.33343151795371895"></circle><circle cx="85.30365914402606" cy="19.73613291328379" r="0.08555616546281217"></circle><circle cx="81.53303755174471" cy="15.82519140126373" r="0.30071737651563324"></circle><circle cx="79.48287119338146" cy="14.041547500003873" r="0.21680303559312405"></circle><circle cx="72.75792992321553" cy="9.449702521312972" r="0.17066661744417852"></circle><circle cx="70.35032409820951" cy="8.189543065187237" r="0.11821761017872898"></circle><circle cx="67.87321736198818" cy="7.072175676711453" r="0.04102797825057222"></circle><circle cx="65.33506958843256" cy="6.1014164155843105" r="0.3856259444559095"></circle><circle cx="62.74454912023151" cy="5.280580641940283" r="0.3990115065625889"></circle><circle cx="60.11050316454222" cy="4.612471693649347" r="0.009685768862587846"></circle><circle cx="54.74793614288442" cy="3.743031850508281" r="0.027424329416616072"></circle><circle cx="43.902464527757076" cy="3.9015177997719803" r="0.2805096608041526"></circle><circle cx="41.220035635517654" cy="4.336423423494082" r="0.3643760103912872"></circle><circle cx="38.56759228654674" cy="4.927280380773844" r="0.3183855268545218"></circle><circle cx="35.954193168500254" cy="5.672070762867854" r="0.3053313087024202"></circle><circle cx="30.880065169827052" cy="7.612760268095549" r="0.08338090883733293"></circle><circle cx="28.436665571910744" cy="8.802031502240546" r="0.05703231132259265"></circle><circle cx="26.06690958695855" cy="10.132003018947856" r="0.3021660116998256"></circle><circle cx="23.778890462014306" cy="11.5981326678382" r="0.23373636191015643"></circle><circle cx="21.580422294450365" cy="13.195413288039411" r="0.08060171361126997"></circle><circle cx="19.479013345076503" cy="14.918389808761887" r="0.3144015700523082"></circle><circle cx="17.48184039575405" cy="16.76117787958203" r="0.3468108679788606"></circle><circle cx="15.59572423907209" cy="18.717483966822158" r="0.33124741080199693"></circle><circle cx="12.18202705579634" cy="22.943560426555017" r="0.1134153969058633"></circle><circle cx="10.666104569070995" cy="25.198897802139065" r="0.18083399995100055"></circle><circle cx="8.041980196884253" cy="29.955684741020786" r="0.01067117178374452"></circle><circle cx="6.942740283435235" cy="32.44088881234904" r="0.19134745263760308"></circle><circle cx="5.990550548171164" cy="34.986061178127756" r="0.20934594798018366"></circle><circle cx="5.188662932138868" cy="37.582509505115986" r="0.02202166176411588"></circle><circle cx="4.5398160610102565" cy="40.22136634118962" r="0.25273116357864656"></circle><circle cx="3.709578146189209" cy="45.590142338324696" r="0.15958156072461113"></circle><circle cx="3.531022550783881" cy="48.301725927818445" r="0.17536707017154227"></circle><circle cx="25.008596531179165" cy="9.019153831837372" r="0.18582030615376308"></circle></g></g>
  <desc>Created with Snap</desc></svg>
