<svg width="100%" height="100%" viewBox="0 0 100 100" version="1.1" xmlns="http://www.w3.org/2000/svg" id="decent-logo-svg">
       <defs>
         <style type="text/css">
           @import url("https://fonts.googleapis.com/css?family=Dosis:400,700")
         </style>
         <style type="text/css">
           #text text {
             font-family: 'Dosis'
           }
         </style>
       </defs>
       <g id="svg-content"><circle cx="50" cy="50" r="25" id="shape"></circle><g textAlign="center" fill="undefined" style="text-anchor: middle; stroke-width: 0;" stroke="rgba(0,0,0,0)" id="halftones"><circle cx="50" cy="77" r="0.45931225728143876"></circle><circle cx="52.017712526833456" cy="76.92450252389186" r="0.1443403625617372"></circle><circle cx="54.02414118675671" cy="76.69843230807847" r="0.08518497855975882"></circle><circle cx="56.00806521682049" cy="76.32305362890924" r="0.09330089853120815"></circle><circle cx="57.95838970909441" cy="75.8004657562258" r="0.3777301162716227"></circle><circle cx="59.86420765789266" cy="75.13359121339352" r="0.3224196397003406"></circle><circle cx="61.71486095617407" cy="74.32615943336532" r="0.04136267982689523"></circle><circle cx="63.5" cy="73.38268590217984" r="0.10350741620526949"></circle><circle cx="65.2096415677178" cy="72.30844690653186" r="0.17225654088939446"></circle><circle cx="66.8342246501858" cy="71.10945002663681" r="0.06217592817415396"></circle><circle cx="68.36466391981483" cy="69.7924005394053" r="0.3594693427129172"></circle><circle cx="69.7924005394053" cy="68.36466391981483" r="0.05444350891510907"></circle><circle cx="71.10945002663681" cy="66.8342246501858" r="0.3609560332446816"></circle><circle cx="72.30844690653186" cy="65.2096415677178" r="0.4331364778729738"></circle><circle cx="73.38268590217984" cy="63.5" r="0.2906685219234245"></circle><circle cx="74.32615943336532" cy="61.71486095617407" r="0.2097668771944956"></circle><circle cx="75.13359121339352" cy="59.86420765789267" r="0.44178670335907666"></circle><circle cx="75.8004657562258" cy="57.95838970909442" r="0.14542790694946173"></circle><circle cx="76.32305362890924" cy="56.00806521682049" r="0.07021687962625611"></circle><circle cx="76.69843230807847" cy="54.02414118675671" r="0.24886626730036276"></circle><circle cx="76.92450252389186" cy="52.017712526833456" r="0.09216291598749127"></circle><circle cx="77" cy="50" r="0.2839537622988676"></circle><circle cx="76.92450252389186" cy="47.982287473166544" r="0.13220297711015516"></circle><circle cx="76.69843230807847" cy="45.975858813243285" r="0.004065942459074212"></circle><circle cx="76.32305362890924" cy="43.991934783179516" r="0.2982264828897484"></circle><circle cx="75.8004657562258" cy="42.04161029090559" r="0.49455853832980945"></circle><circle cx="75.13359121339352" cy="40.13579234210734" r="0.24776058877286267"></circle><circle cx="74.32615943336532" cy="38.285139043825936" r="0.11969031396428986"></circle><circle cx="73.38268590217984" cy="36.50000000000001" r="0.26282660486794707"></circle><circle cx="72.30844690653186" cy="34.790358432282204" r="0.06846517895785509"></circle><circle cx="71.10945002663681" cy="33.1657753498142" r="0.30106455166882684"></circle><circle cx="69.7924005394053" cy="31.635336080185173" r="0.21383931290737035"></circle><circle cx="68.36466391981483" cy="30.207599460594697" r="0.251982790404642"></circle><circle cx="66.8342246501858" cy="28.8905499733632" r="0.31067719539523375"></circle><circle cx="65.2096415677178" cy="27.691553093468144" r="0.40335771675334897"></circle><circle cx="63.5" cy="26.617314097820156" r="0.294068126398616"></circle><circle cx="61.71486095617407" cy="25.673840566634688" r="0.20029211855731954"></circle><circle cx="59.86420765789267" cy="24.86640878660649" r="0.016122563296093295"></circle><circle cx="57.95838970909441" cy="24.1995342437742" r="0.3158482322788273"></circle><circle cx="56.00806521682049" cy="23.67694637109076" r="0.42423237839885675"></circle><circle cx="54.024141186756715" cy="23.30156769192153" r="0.44491456053248846"></circle><circle cx="52.01771252683346" cy="23.075497476108136" r="0.4175588361099939"></circle><circle cx="50" cy="23" r="0.3427667476404317"></circle><circle cx="47.98228747316655" cy="23.075497476108136" r="0.49460940784413177"></circle><circle cx="45.97585881324329" cy="23.30156769192153" r="0.08163059648943627"></circle><circle cx="43.991934783179516" cy="23.67694637109076" r="0.07675183088532389"></circle><circle cx="42.04161029090558" cy="24.199534243774202" r="0.23781159521618034"></circle><circle cx="40.13579234210734" cy="24.866408786606485" r="0.03829432499557317"></circle><circle cx="38.285139043825936" cy="25.673840566634684" r="0.4873187181196702"></circle><circle cx="36.5" cy="26.61731409782016" r="0.1907379925483388"></circle><circle cx="34.790358432282204" cy="27.691553093468137" r="0.3077883241853091"></circle><circle cx="33.16577534981421" cy="28.890549973363186" r="0.1505208102269604"></circle><circle cx="31.635336080185173" cy="30.207599460594693" r="0.149086782617035"></circle><circle cx="30.207599460594697" cy="31.63533608018517" r="0.30650985196419656"></circle><circle cx="28.8905499733632" cy="33.16577534981419" r="0.014387475817114082"></circle><circle cx="27.691553093468137" cy="34.790358432282204" r="0.42865255275043246"></circle><circle cx="26.61731409782016" cy="36.499999999999986" r="0.23312850556481868"></circle><circle cx="25.673840566634688" cy="38.28513904382593" r="0.2603949918580657"></circle><circle cx="24.866408786606485" cy="40.13579234210734" r="0.39090217482031664"></circle><circle cx="24.199534243774206" cy="42.041610290905574" r="0.1661581457873581"></circle><circle cx="23.67694637109076" cy="43.9919347831795" r="0.0067753479518283255"></circle><circle cx="23.301567691921534" cy="45.97585881324327" r="0.07237765146967812"></circle><circle cx="23.075497476108136" cy="47.98228747316656" r="0.18256337966930747"></circle><circle cx="23" cy="49.99999999999999" r="0.11510938158225648"></circle><circle cx="23.075497476108133" cy="52.017712526833435" r="0.23520153070906802"></circle><circle cx="23.30156769192153" cy="54.02414118675672" r="0.340790127495875"></circle><circle cx="23.67694637109076" cy="56.008065216820484" r="0.09303438790521412"></circle><circle cx="24.199534243774202" cy="57.95838970909442" r="0.3774134679912651"></circle><circle cx="24.866408786606478" cy="59.86420765789265" r="0.26673978737613546"></circle><circle cx="25.67384056663468" cy="61.714860956174064" r="0.2463486908160487"></circle><circle cx="26.61731409782016" cy="63.5" r="0.30336531157929514"></circle><circle cx="27.69155309346813" cy="65.20964156771778" r="0.45855315430361976"></circle><circle cx="28.890549973363193" cy="66.8342246501858" r="0.3935658103209234"></circle><circle cx="30.207599460594693" cy="68.36466391981483" r="0.2159945038610217"></circle><circle cx="31.635336080185166" cy="69.7924005394053" r="0.48160528053982543"></circle><circle cx="33.16577534981419" cy="71.10945002663681" r="0.2026316008138508"></circle><circle cx="34.790358432282204" cy="72.30844690653186" r="0.2897569338823892"></circle><circle cx="36.499999999999986" cy="73.38268590217984" r="0.4612176271203948"></circle><circle cx="38.28513904382592" cy="74.32615943336532" r="0.024931745106654635"></circle><circle cx="40.13579234210734" cy="75.13359121339352" r="0.00389778343598024"></circle><circle cx="42.041610290905574" cy="75.80046575622579" r="0.44870966227213394"></circle><circle cx="43.9919347831795" cy="76.32305362890924" r="0.19868959691688748"></circle><circle cx="45.97585881324327" cy="76.69843230807847" r="0.3968337528534449"></circle><circle cx="47.98228747316655" cy="76.92450252389186" r="0.2989346505431201"></circle><circle cx="49.99999999999999" cy="77" r="0.253646565961103"></circle><circle cx="52.017712526833435" cy="76.92450252389187" r="0.01528089509549746"></circle><circle cx="54.024141186756694" cy="76.69843230807848" r="0.3139283557425664"></circle><circle cx="56.008065216820505" cy="76.32305362890924" r="0.1027317139888192"></circle><circle cx="57.95838970909442" cy="75.8004657562258" r="0.2674043805615589"></circle><circle cx="59.86420765789265" cy="75.13359121339352" r="0.046233282014745414"></circle><circle cx="61.714860956174064" cy="74.32615943336532" r="0.03945824556483968"></circle><circle cx="63.49999999999998" cy="73.38268590217986" r="0.04966633926648245"></circle><circle cx="65.2096415677178" cy="72.30844690653186" r="0.052355233830899905"></circle><circle cx="66.8342246501858" cy="71.10945002663681" r="0.21953020518279098"></circle><circle cx="66.66704673558401" cy="73.11838128230129" r="0.12094252287083063"></circle><circle cx="68.31944687606637" cy="71.83226662889088" r="0.3014526782640291"></circle><circle cx="69.87295883117885" cy="70.42830162530089" r="0.22860760012301695"></circle><circle cx="71.31919675940401" cy="68.91406486014621" r="0.46517156548646676"></circle><circle cx="72.65035388331543" cy="67.297730167874" r="0.4642919569382018"></circle><circle cx="73.85924463048207" cy="65.58802250648917" r="0.061375968383686974"></circle><circle cx="74.9393434211139" cy="63.79417086032149" r="0.39234418582984"></circle><circle cx="75.88481989307462" cy="61.925858422062895" r="0.29754465466194147"></circle><circle cx="76.69057037411605" cy="59.99317032299353" r="0.11955954546750203"></circle><circle cx="77.35224543144858" cy="58.00653919354673" r="0.21810100573616475"></circle><circle cx="77.86627334993435" cy="55.97668884807787" r="0.27542968904851606"></circle><circle cx="78.22987941216884" cy="53.91457639782463" r="0.39760455107158565"></circle><circle cx="78.44110087637675" cy="51.831333104533925" r="0.11833232491573176"></circle><circle cx="78.49879757127191" cy="49.7382042940253" r="0.0833367562511268"></circle><circle cx="78.40265805069009" cy="47.646488654038556" r="0.23182729044725214"></circle><circle cx="78.15320127477224" cy="45.56747724403335" r="0.26770477003725"></circle><circle cx="77.75177380862299" cy="43.51239254616716" r="0.265366766442358"></circle><circle cx="77.20054255356597" cy="41.49232788645173" r="0.04422062517513159"></circle><circle cx="76.50248305023301" cy="39.518187553094066" r="0.28917020874498955"></circle><circle cx="75.66136341662633" cy="37.60062793526094" r="0.22154920900839936"></circle><circle cx="74.68172400785652" cy="35.75000000000002" r="0.09875913833758487"></circle><circle cx="73.56885290735234" cy="33.976293417826525" r="0.12051005381090196"></circle><circle cx="72.328757381841" cy="32.28908263858472" r="0.2586222011546011"></circle><circle cx="70.96813145418427" cy="30.697475208666397" r="0.39807876717918145"></circle><circle cx="69.49431976911205" cy="29.210062608569324" r="0.27452583804181474"></circle><circle cx="67.91527794690586" cy="27.834873876174118" r="0.14090743701030772"></circle><circle cx="66.2395296390426" cy="26.579332266080527" r="0.07565787592861006"></circle><circle cx="64.47612051761175" cy="25.450215178955638" r="0.37960659572750544"></circle><circle cx="62.634569446870614" cy="24.453617577194937" r="0.4934411432962307"></circle><circle cx="60.724817100513334" cy="23.59491908437816" r="0.21990232624054018"></circle><circle cx="58.75717230201664" cy="22.87875494611664" r="0.46582935141056625"></circle><circle cx="56.74225637771708" cy="22.30899100904531" r="0.09432349906021098"></circle><circle cx="54.69094582300094" cy="21.888702853022416" r="0.014331953374272066"></circle><circle cx="52.61431359109427" cy="21.62015918918114" r="0.44060957750336893"></circle><circle cx="50.52356932137555" cy="21.504809613450302" r="0.26853767530994077"></circle><circle cx="48.42999882985786" cy="21.543276781650487" r="0.2376199490081099"></circle><circle cx="46.344903188470425" cy="21.73535304840433" r="0.0027164269770558747"></circle><circle cx="44.279537721988845" cy="22.08000158800414" r="0.45321259656912427"></circle><circle cx="42.245051251907974" cy="22.575361991186355" r="0.12124525501542738"></circle><circle cx="40.25242591521846" cy="23.218760307601602" r="0.4171197106453527"></circle><circle cx="38.31241788294448" cy="24.006723479771082" r="0.3331506149250427"></circle><circle cx="36.435499298443425" cy="24.934998090615053" r="0.49005589403387173"></circle><circle cx="34.63180174888405" cy="25.998573323354364" r="0.3183855794705922"></circle><circle cx="32.91106157504339" cy="27.19170800984779" r="0.23424122757333032"></circle><circle cx="31.282567314639586" cy="28.507961621358444" r="0.29532994430880577"></circle><circle cx="29.755109562901087" cy="29.940229034461506" r="0.44143219419134183"></circle><circle cx="28.336933521024225" cy="31.480778884427238" r="0.26040983691693664"></circle><circle cx="27.035694488662134" cy="33.12129529904806" r="0.4766413982717167"></circle><circle cx="25.858416540696187" cy="34.85292278763099" r="0.325612824781369"></circle><circle cx="24.811454611352172" cy="36.66631404284516" r="0.4520368616572106"></circle><circle cx="23.90046019033087" cy="38.551680397390356" r="0.07317053606501323"></circle><circle cx="23.13035081612492" cy="40.49884466312221" r="0.4355336200025606"></circle><circle cx="22.505283531196724" cy="42.497296067408904" r="0.019041936885259347"></circle><circle cx="22.028632442306094" cy="44.53624699017344" r="0.12905775515523965"></circle><circle cx="21.702970507116756" cy="46.604691195355606" r="0.06227100444999234"></circle><circle cx="21.530055645397393" cy="48.691463242460784" r="0.39121167964026105"></circle><circle cx="21.510821249788883" cy="50.7852987574926" r="0.3796954360946152"></circle><circle cx="21.645371147360418" cy="52.874895237927625" r="0.1103099139020508"></circle><circle cx="21.93297903915207" cy="54.948973063507495" r="0.0219019852403336"></circle><circle cx="22.37209242072908" cy="56.996336383512755" r="0.11127342933174988"></circle><circle cx="22.960340962584805" cy="59.00593355184963" r="0.4440122149027853"></circle><circle cx="23.694549305154954" cy="60.966916783721686" r="0.493398840633948"></circle><circle cx="24.570754199375763" cy="62.86870071186033" r="0.273130450829546"></circle><circle cx="25.584225900261597" cy="64.70101952622822" r="0.4377981168709335"></circle><circle cx="26.729493698019617" cy="66.45398238875596" r="0.348600321208812"></circle><circle cx="28.000375448884846" cy="68.11812682398408" r="0.3157478459769"></circle><circle cx="29.390010946268458" cy="69.68446979740796" r="0.1729689006657198"></circle><circle cx="30.890898952082242" cy="71.14455620580551" r="0.3546648039899618"></circle><circle cx="32.49493768834445" cy="72.4905045177972" r="0.21524685265670174"></circle><circle cx="34.193468570493835" cy="73.71504931827117" r="0.3086792795767277"></circle><circle cx="35.97732294633981" cy="74.81158052701907" r="0.16722542573100996"></circle><circle cx="37.83687158835248" cy="75.77417907988095" r="0.2397866997793291"></circle><circle cx="39.762076672133574" cy="76.59764887979253" r="0.06147539696040594"></circle><circle cx="41.74254596048903" cy="77.27754484526355" r="0.427082646281685"></circle><circle cx="43.76758890061828" cy="77.8101969048819" r="0.11336854134080743"></circle><circle cx="45.82627433160797" cy="78.19272980832125" r="0.24778120906041023"></circle><circle cx="47.90748949072598" cy="78.42307864691259" r="0.39840367203844673"></circle><circle cx="49.999999999999986" cy="78.5" r="0.2162850586321995"></circle><circle cx="52.09251050927399" cy="78.42307864691259" r="0.33449946878590653"></circle><circle cx="54.17372566839205" cy="78.19272980832125" r="0.12093013584727963"></circle><circle cx="56.2324110993817" cy="77.81019690488192" r="0.043169168797775326"></circle><circle cx="58.25745403951094" cy="77.27754484526356" r="0.33655304204052994"></circle><circle cx="60.2379233278664" cy="76.59764887979253" r="0.23795640492360037"></circle><circle cx="62.16312841164754" cy="75.77417907988094" r="0.059568185786404326"></circle><circle cx="64.02267705366017" cy="74.81158052701909" r="0.25076811930465326"></circle><circle cx="65.80653142950614" cy="73.71504931827118" r="0.1892201906795964"></circle><circle cx="67.50506231165552" cy="72.49050451779723" r="0.40381871448727213"></circle><circle cx="69.10910104791778" cy="71.1445562058055" r="0.4275590453205068"></circle><circle cx="70.60998905373152" cy="69.68446979740797" r="0.3452110092887253"></circle><circle cx="71.99962455111515" cy="68.1181268239841" r="0.36158676247884514"></circle><circle cx="73.27050630198036" cy="66.45398238875597" r="0.030573665110802284"></circle><circle cx="74.41577409973841" cy="64.7010195262282" r="0.42605027426632613"></circle><circle cx="75.42924580062422" cy="62.868700711860356" r="0.39534181402935065"></circle><circle cx="76.30545069484504" cy="60.96691678372171" r="0.24976291819367724"></circle><circle cx="75.42228893648259" cy="65.92818964069663" r="0.32253784250028494"></circle><circle cx="76.5053613333807" cy="64.05225322099368" r="0.38266858967094974"></circle><circle cx="77.45024704922037" cy="62.10305485969424" r="0.004474109108723923"></circle><circle cx="78.25201988739522" cy="60.090756774505294" r="0.3867826153892522"></circle><circle cx="78.90649977557669" cy="58.025850155876626" r="0.19146456536318235"></circle><circle cx="79.41027455867541" cy="55.91910047079201" r="0.08037593615575922"></circle><circle cx="79.76071778823814" cy="53.781491336608646" r="0.12019970802783664"></circle><circle cx="79.9560024155337" cy="51.624167257562604" r="0.20109112163244292"></circle><circle cx="79.99511031693923" cy="49.458375522483216" r="0.1589584290608379"></circle><circle cx="79.87783760196513" cy="47.29540756663808" r="0.3613857514877269"></circle><circle cx="79.60479567624579" cy="45.14654010341705" r="0.3439449682083918"></circle><circle cx="79.1774080539537" cy="43.02297633277069" r="0.10333437694370373"></circle><circle cx="78.59790293625571" cy="40.93578753291288" r="0.10598747131276476"></circle><circle cx="77.86930159450375" cy="38.89585533980259" r="0.12421049179759447"></circle><circle cx="76.99540261872521" cy="36.913815015333" r="0.16372413814261733"></circle><circle cx="75.98076211353316" cy="34.999999999999986" r="0.049573244091922875"></circle><circle cx="74.83066994470674" cy="33.16438803912857" r="0.23587515770916778"></circle><circle cx="73.5511221602802" cy="31.41654916352835" r="0.39495020474207865"></circle><circle cx="72.14878972992497" cy="29.765595795784584" r="0.48881232107545225"></circle><circle cx="70.6309837656027" cy="28.220135242306082" r="0.021947391038315334"></circle><circle cx="69.00561740481268" cy="26.788224818814893" r="0.15385694311741405"></circle><circle cx="67.28116455515722" cy="25.477329843233264" r="0.1818055228472939"></circle><circle cx="65.46661571531068" cy="24.294284714972342" r="0.41873823184157244"></circle><circle cx="63.5714311027228" cy="23.24525728353853" r="0.12129445246955983"></circle><circle cx="61.605491332425174" cy="22.335716692222007" r="0.1543171495526633"></circle><circle cx="59.57904590407946" cy="21.570404864515947" r="0.10498722716401765"></circle><circle cx="57.50265976583191" cy="20.953311781923105" r="0.06938357529009298"></circle><circle cx="55.387158233566176" cy="20.48765468203992" r="0.3140354484754646"></circle><circle cx="53.24357055271823" cy="20.17586128536921" r="0.23508774090509643"></circle><circle cx="51.08307239689808" cy="20.019557138309693" r="0.11264469587747217"></circle><circle cx="48.91692760310195" cy="20.01955713830969" r="0.11932232933428322"></circle><circle cx="46.7564294472818" cy="20.175861285369205" r="0.39432339087162693"></circle><circle cx="44.61284176643386" cy="20.487654682039913" r="0.251204845130078"></circle><circle cx="42.49734023416813" cy="20.953311781923095" r="0.30214739530643575"></circle><circle cx="40.42095409592058" cy="21.570404864515936" r="0.2146115000579445"></circle><circle cx="38.394508667574854" cy="22.335716692221993" r="0.037781284411229965"></circle><circle cx="36.42856889727719" cy="23.245257283538535" r="0.47762747419311413"></circle><circle cx="34.53338428468939" cy="24.294284714972296" r="0.4906144037713682"></circle><circle cx="32.71883544484282" cy="25.477329843233242" r="0.04648130157809849"></circle><circle cx="30.99438259518734" cy="26.788224818814868" r="0.06162714902086941"></circle><circle cx="29.369016234397318" cy="28.220135242306057" r="0.3985049277200662"></circle><circle cx="27.851210270075025" cy="29.7655957957846" r="0.1581526040442005"></circle><circle cx="26.448877839719856" cy="31.41654916352828" r="0.23308030761175957"></circle><circle cx="25.16933005529328" cy="33.16438803912854" r="0.2742691878437111"></circle><circle cx="24.01923788646687" cy="34.99999999999996" r="0.0047741643467735795"></circle><circle cx="23.004597381274806" cy="36.91381501533297" r="0.05317487628359685"></circle><circle cx="22.130698405496243" cy="38.8958553398026" r="0.059114810600099155"></circle><circle cx="21.40209706374433" cy="40.9357875329128" r="0.33876237609345816"></circle><circle cx="20.822591946046323" cy="43.022976332770604" r="0.33963442683531087"></circle><circle cx="20.39520432375422" cy="45.14654010341702" r="0.13751583458059824"></circle><circle cx="20.122162398034874" cy="47.29540756663805" r="0.004606138735284704"></circle><circle cx="20.004889683060764" cy="49.45837552248324" r="0.11433182595292046"></circle><circle cx="20.043997584466283" cy="51.62416725756251" r="0.39151325330442033"></circle><circle cx="20.23928221176186" cy="53.78149133660861" r="0.24512129527543558"></circle><circle cx="20.589725441324585" cy="55.919100470791975" r="0.0029640627982708834"></circle><circle cx="21.093500224423316" cy="58.02585015587664" r="0.4657095427361594"></circle><circle cx="21.747980112604743" cy="60.09075677450521" r="0.14676790821013996"></circle><circle cx="22.549752950779595" cy="62.103054859694154" r="0.15789235770994714"></circle><circle cx="23.494638666619284" cy="64.05225322099365" r="0.41278808233938524"></circle><circle cx="24.577711063517395" cy="65.92818964069659" r="0.24065023926603135"></circle><circle cx="25.79332350349791" cy="67.72108385493655" r="0.035857179782503024"></circle><circle cx="27.135138346170887" cy="69.4215885434548" r="0.034958931154306816"></circle><circle cx="28.59615999025514" cy="71.0208380622002" r="0.072731800933439"></circle><circle cx="30.168771345403954" cy="72.51049466469203" r="0.010538462988134545"></circle><circle cx="31.844773544187042" cy="73.88279197116931" r="0.1659647570980619"></circle><circle cx="33.61542868718912" cy="75.13057545889896" r="0.3484480614649055"></circle><circle cx="35.4715053983714" cy="76.24733976254448" r="0.18020576302512126"></circle><circle cx="37.40332695319199" cy="77.22726259012867" r="0.437389541113811"></circle><circle cx="39.400821728566896" cy="78.06523507776802" r="0.049688944992837825"></circle><circle cx="41.45357571164901" cy="78.75688842492325" r="0.40430673877398615"></circle><circle cx="43.550886793669335" cy="79.29861667130261" r="0.38125666070795416"></circle><circle cx="45.68182056577642" cy="79.68759549666912" r="0.20650944316070852"></circle><circle cx="47.83526732598145" cy="79.92179694553849" r="0.4717398166035236"></circle><circle cx="49.99999999999998" cy="80" r="0.04592766282850291"></circle><circle cx="52.16473267401851" cy="79.92179694553849" r="0.3492789003994309"></circle><circle cx="54.31817943422354" cy="79.68759549666913" r="0.2377852258135199"></circle><circle cx="56.44911320633062" cy="79.29861667130263" r="0.18162496926923666"></circle><circle cx="58.54642428835095" cy="78.75688842492326" r="0.19050088427396472"></circle><circle cx="60.59917827143306" cy="78.06523507776804" r="0.015731095205903767"></circle><circle cx="62.59667304680797" cy="77.2272625901287" r="0.22817963755031"></circle><circle cx="64.52849460162857" cy="76.2473397625445" r="0.30946915393975716"></circle><circle cx="66.38457131281083" cy="75.13057545889899" r="0.3128308981221234"></circle><circle cx="68.15522645581292" cy="73.88279197116934" r="0.4533246218684568"></circle><circle cx="69.831228654596" cy="72.51049466469208" r="0.37348894602001936"></circle><circle cx="71.40384000974484" cy="71.02083806220024" r="0.06877539730533577"></circle><circle cx="72.86486165382908" cy="69.42158854345485" r="0.3681705806162483"></circle><circle cx="74.20667649650207" cy="67.7210838549366" r="0.38177730470252236"></circle><circle cx="75.42228893648257" cy="65.92818964069663" r="0.3475122257119846"></circle><circle cx="76.50536133338069" cy="64.05225322099369" r="0.4404047473125128"></circle><circle cx="77.4502470492204" cy="62.1030548596942" r="0.28362681529251643"></circle><circle cx="78.25201988739525" cy="60.09075677450525" r="0.05987467832184157"></circle><circle cx="78.90649977557668" cy="58.02585015587668" r="0.15472863455154218"></circle><circle cx="79.41027455867541" cy="55.91910047079202" r="0.3298354449618631"></circle><circle cx="79.76071778823814" cy="53.78149133660865" r="0.3805312302497731"></circle><circle cx="79.02132730291798" cy="62.247961527409664" r="0.1964116514416997"></circle><circle cx="79.81704848820479" cy="60.15842603221801" r="0.42262654481205697"></circle><circle cx="80.46254010575629" cy="58.01770854454002" r="0.046930680022197024"></circle><circle cx="80.9545499246644" cy="55.83659480874412" r="0.12459927705073248"></circle><circle cx="81.29059901337277" cy="53.62607410077555" r="0.2677078008038356"></circle><circle cx="81.46899422947143" cy="51.397283860027734" r="0.3171874049958562"></circle><circle cx="81.48883675038876" cy="49.16145357471006" r="0.2026230851946177"></circle><circle cx="81.3500266019995" cy="46.92984820343958" r="0.031229305344446567"></circle><circle cx="81.05326316233224" cy="44.71371141811767" r="0.19042791331528486"></circle><circle cx="80.60004163783836" cy="42.5242089540599" r="0.10816102325796972"></circle><circle cx="79.99264552997644" cy="40.372372352797214" r="0.46200365342629"></circle><circle cx="79.23413513006822" cy="38.26904338099783" r="0.40711224833912274"></circle><circle cx="78.3283321003934" cy="36.22481940554603" r="0.3889552431197344"></circle><circle cx="77.27980021920982" cy="34.249999999999986" r="0.00032991458852205113"></circle><circle cx="76.09382238671225" cy="32.3545350514441" r="0.13523691559802553"></circle><circle cx="74.77637400778326" cy="30.547974629194975" r="0.4213128945677086"></circle><circle cx="73.3340928856433" cy="28.839420867940063" r="0.3064910198407266"></circle><circle cx="71.77424577808753" cy="27.237482107740423" r="0.041260172945258966"></circle><circle cx="70.1046917848119" cy="25.75022952195801" r="0.25360535411580953"></circle><circle cx="68.33384275029559" cy="24.385156451630742" r="0.13754177928725264"></circle><circle cx="66.47062088174808" cy="23.149140651187267" r="0.4136524757912976"></circle><circle cx="64.5244137956538" cy="22.04840963571801" r="0.2760321497431415"></circle><circle cx="62.505027219410024" cy="21.088509304399153" r="0.3048429533297833"></circle><circle cx="60.422635586363505" cy="20.274275998154913" r="0.063921387922665"></circle><circle cx="58.2877307731669" cy="19.609812132342743" r="0.2992026899135316"></circle><circle cx="56.11106923773653" cy="19.098465527233273" r="0.4067990766928429"></circle><circle cx="53.90361782414786" cy="18.74281254042528" r="0.0074809709197669605"></circle><circle cx="51.67649850752867" cy="18.544645086182" r="0.12390839676285326"></circle><circle cx="49.44093235734049" cy="18.504961607089108" r="0.30472767965166214"></circle><circle cx="47.208183001387724" cy="18.623962043523413" r="0.15376644184894184"></circle><circle cx="44.98949987539922" cy="18.901046826277646" r="0.396649586586061"></circle><circle cx="42.796061544117926" cy="19.33481989741682" r="0.42250312163844883"></circle><circle cx="40.638919379462465" cy="19.9230957441462" r="0.19685640092479684"></circle><circle cx="38.52894187953615" cy="20.66291041025132" r="0.05473600022699665"></circle><circle cx="36.47675990902264" cy="21.550536429630476" r="0.14235244204429132"></circle><circle cx="34.49271313686884" cy="22.581501606678753" r="0.17095697507946883"></circle><circle cx="32.586797941122406" cy="23.750611548900782" r="0.30376300597055295"></circle><circle cx="30.768617043397683" cy="25.05197583822507" r="0.12001794720522696"></circle><circle cx="29.047331126732693" cy="26.479037709157915" r="0.1268209462024419"></circle><circle cx="27.43161268060311" cy="28.024607084247943" r="0.09342606622360738"></circle><circle cx="25.92960230564014" cy="29.680896800415734" r="0.10748644766386461"></circle><circle cx="24.548867698205612" cy="31.43956184362669" r="0.28195885009583144"></circle><circle cx="23.296365521475366" cy="33.29174139422811" r="0.4722634762368445"></circle><circle cx="22.17840635513927" cy="35.22810347110958" r="0.4168436489261427"></circle><circle cx="21.20062290031356" cy="37.23889194975388" r="0.46098989554426373"></circle><circle cx="20.36794159986247" cy="39.31397571728199" r="0.17849071552289508"></circle><circle cx="19.684557817115692" cy="41.44289971683171" r="0.44720283023844576"></circle><circle cx="19.15391469804128" cy="43.614937624088064" r="0.4600879785038281"></circle><circle cx="18.778685823373777" cy="45.81914589056275" r="0.012371958396390048"></circle><circle cx="18.56076173810342" cy="48.0444188813301" r="0.2759458269540085"></circle><circle cx="18.501240426195405" cy="50.279544829416324" r="0.16021217975164503"></circle><circle cx="18.600421778531373" cy="52.51326232492217" r="0.471559013127283"></circle><circle cx="18.857806081945704" cy="54.734317054264736" r="0.49925290751273277"></circle><circle cx="19.27209653696954" cy="56.931518503667185" r="0.43877215362631916"></circle><circle cx="19.841205791596824" cy="59.09379634119805" r="0.3208602500289546"></circle><circle cx="20.562266458153353" cy="61.210256193291784" r="0.262352004381581"></circle><circle cx="21.431645560280295" cy="63.27023453472272" r="0.45113432615658045"></circle><circle cx="22.444962837243185" cy="65.26335241547842" r="0.06132222641049134"></circle><circle cx="23.597112813342267" cy="67.1795677538355" r="0.40083124521001123"></circle><circle cx="24.88229052122976" cy="69.00922593216504" r="0.09799584480116907"></circle><circle cx="26.294020749531626" cy="70.7431084405487" r="0.4866619444970348"></circle><circle cx="27.825190667410613" cy="72.3724793231172" r="0.15848395581801744"></circle><circle cx="29.468085661699067" cy="73.88912919310104" r="0.496169528590126"></circle><circle cx="31.21442820603714" cy="75.2854165948253" r="0.29481953912550884"></circle><circle cx="33.055419566182344" cy="76.55430650425433" r="0.21214400751783535"></circle><circle cx="34.981784131359305" cy="77.68940577410264" r="0.10692326106030592"></circle><circle cx="36.983816148296064" cy="78.68499534492976" r="0.25068079493872386"></circle><circle cx="39.05142862247955" cy="79.53605905992436" r="0.04629189767072073"></circle><circle cx="41.17420414024914" cy="80.23830893819965" r="0.3280367881947782"></circle><circle cx="43.34144735566686" cy="80.78820677926281" r="0.2732706658313202"></circle><circle cx="45.54223887771504" cy="81.18298198980727" r="0.08894555106464663"></circle><circle cx="47.76549028631883" cy="81.42064554300984" r="0.48886733114932834"></circle><circle cx="49.99999999999997" cy="81.5" r="0.15515920880438383"></circle><circle cx="52.23450971368111" cy="81.42064554300985" r="0.15327397942613719"></circle><circle cx="54.45776112228501" cy="81.18298198980726" r="0.3757166706379601"></circle><circle cx="56.65855264433308" cy="80.78820677926282" r="0.3801969994284452"></circle><circle cx="58.8257958597507" cy="80.2383089381997" r="0.4150886945747003"></circle><circle cx="60.948571377520395" cy="79.53605905992438" r="0.44791287667470603"></circle><circle cx="63.01618385170388" cy="78.68499534492977" r="0.434615090223439"></circle><circle cx="65.01821586864074" cy="77.68940577410262" r="0.026208166642853192"></circle><circle cx="66.9445804338176" cy="76.55430650425437" r="0.04379208431625381"></circle><circle cx="68.78557179396272" cy="75.2854165948254" r="0.20998657419927247"></circle><circle cx="70.53191433830096" cy="73.88912919310101" r="0.010262270498677228"></circle><circle cx="72.17480933258935" cy="72.37247932311725" r="0.14535881991028887"></circle><circle cx="73.70597925046826" cy="70.74310844054884" r="0.30012132502770494"></circle><circle cx="75.1177094787702" cy="69.00922593216508" r="0.039963497654436964"></circle><circle cx="76.40288718665771" cy="67.17956775383556" r="0.09488149196131279"></circle><circle cx="77.55503716275678" cy="65.26335241547847" r="0.3081533013158758"></circle><circle cx="78.56835443971968" cy="63.270234534722775" r="0.304700020953088"></circle><circle cx="79.43773354184663" cy="61.21025619329184" r="0.14211608299403777"></circle><circle cx="80.1587942084032" cy="59.093796341198" r="0.34123790253077113"></circle><circle cx="80.72790346303044" cy="56.93151850366724" r="0.21809351860002024"></circle><circle cx="81.14219391805428" cy="54.734317054264906" r="0.053570592968888886"></circle><circle cx="81.39957822146863" cy="52.51326232492212" r="0.377721485093788"></circle><circle cx="79.66020352787251" cy="64.46624784403954" r="0.1688848324658846"></circle><circle cx="80.59706720070398" cy="62.3620175827251" r="0.20352099276689928"></circle><circle cx="81.38486503774006" cy="60.1975608143733" r="0.17114599128090702"></circle><circle cx="82.01975896710786" cy="57.983422554789094" r="0.0894014377753597"></circle><circle cx="82.49865584940287" cy="55.73038986300867" r="0.386960964936946"></circle><circle cx="82.81922254715303" cy="53.44943928783256" r="0.48721123446624315"></circle><circle cx="82.97989729163015" cy="51.15168339118255" r="0.14347636999932223"></circle><circle cx="82.97989729163015" cy="48.84831660881751" r="0.40651383995224366"></circle><circle cx="82.81922254715303" cy="46.55056071216751" r="0.18517293309722005"></circle><circle cx="82.49865584940288" cy="44.269610136991396" r="0.039667577553546995"></circle><circle cx="82.01975896710789" cy="42.01657744521097" r="0.20871611180682825"></circle><circle cx="81.38486503774007" cy="39.80243918562677" r="0.410579412069922"></circle><circle cx="80.597067200704" cy="37.637982417274955" r="0.05745326278438723"></circle><circle cx="79.66020352787255" cy="35.53375215596052" r="0.03947554419912924"></circle><circle cx="78.57883832488653" cy="33.5000000000001" r="0.38715289186810675"></circle><circle cx="77.35823989431645" cy="31.546634185465468" r="0.11010979405453547"></circle><circle cx="76.00435486902192" cy="29.683171314253407" r="0.3775852446535879"></circle><circle cx="74.52377924075407" cy="27.918689990157734" r="0.28015631366023974"></circle><circle cx="72.9237262251469" cy="26.2617865888245" r="0.27090420149391836"></circle><circle cx="71.2119911196558" cy="24.72053337707373" r="0.09507971913200775"></circle><circle cx="69.39691332565155" cy="23.302439185626685" r="0.03944697662916741"></circle><circle cx="67.48733571969572" cy="22.014412826837916" r="0.34523172863304863"></circle><circle cx="65.49256157193437" cy="20.8627294356554" r="0.1277671215630195"></circle><circle cx="63.4223092215014" cy="19.852999897794167" r="0.437118243521313"></circle><circle cx="61.28666472974709" cy="18.99014351406503" r="0.04661843313942449"></circle><circle cx="59.09603274196102" cy="18.27836403403549" r="0.4451492013344608"></circle><circle cx="56.86108579698602" cy="17.721129175784405" r="0.18299851112738008"></circle><circle cx="54.592712331682144" cy="17.321153731528177" r="0.4582158653052735"></circle><circle cx="52.30196363355614" cy="17.0803863414258" r="0.3282817962360396"></circle><circle cx="50.000000000000036" cy="17" r="0.48886926471996917"></circle><circle cx="47.69803636644393" cy="17.080386341425793" r="0.3587403673580103"></circle><circle cx="45.40728766831793" cy="17.32115373152817" r="0.16744360057801033"></circle><circle cx="43.13891420301405" cy="17.72112917578439" r="0.2094024148342284"></circle><circle cx="40.903967258039046" cy="18.27836403403547" r="0.19628752130714044"></circle><circle cx="38.713335270252976" cy="18.990143514065007" r="0.26485648482931"></circle><circle cx="36.57769077849866" cy="19.852999897794138" r="0.15815954295479007"></circle><circle cx="34.5074384280657" cy="20.86272943565536" r="0.04273723756742753"></circle><circle cx="32.51266428030435" cy="22.014412826837873" r="0.27480785775516325"></circle><circle cx="30.60308667434851" cy="23.302439185626646" r="0.49617101748234327"></circle><circle cx="28.788008880344254" cy="24.720533377073686" r="0.29063623382076653"></circle><circle cx="27.076273774853153" cy="26.261786588824453" r="0.07037392593256442"></circle><circle cx="25.47622075924599" cy="27.91868999015768" r="0.46877642657152074"></circle><circle cx="23.99564513097812" cy="29.68317131425335" r="0.18144053607386668"></circle><circle cx="22.641760105683588" cy="31.54663418546541" r="0.28372214014074515"></circle><circle cx="21.421161675113503" cy="33.500000000000036" r="0.42942569283690923"></circle><circle cx="20.339796472127485" cy="35.53375215596046" r="0.40663522625767756"></circle><circle cx="19.402932799296018" cy="37.63798241727489" r="0.3046020912461239"></circle><circle cx="18.615134962259944" cy="39.802439185626696" r="0.024756148048315163"></circle><circle cx="17.98024103289213" cy="42.0165774452109" r="0.05129433199663036"></circle><circle cx="17.501344150597127" cy="44.269610136991325" r="0.4652307983344983"></circle><circle cx="17.180777452846982" cy="46.55056071216744" r="0.15550294621678318"></circle><circle cx="17.02010270836984" cy="48.84831660881744" r="0.0768061780660354"></circle><circle cx="17.02010270836984" cy="51.15168339118248" r="0.03574482821569147"></circle><circle cx="17.180777452846968" cy="53.44943928783249" r="0.36982584861705814"></circle><circle cx="17.50134415059712" cy="55.7303898630086" r="0.06605145411592006"></circle><circle cx="17.98024103289211" cy="57.98342255478902" r="0.042379552655825936"></circle><circle cx="18.61513496225992" cy="60.197560814373226" r="0.38507490286778"></circle><circle cx="19.402932799295993" cy="62.36201758272504" r="0.46520592306137365"></circle><circle cx="20.33979647212745" cy="64.46624784403947" r="0.3433791172514292"></circle><circle cx="21.421161675113467" cy="66.4999999999999" r="0.1779766464037703"></circle><circle cx="22.641760105683545" cy="68.45336581453452" r="0.19159743445947897"></circle><circle cx="23.995645130978073" cy="70.31682868574659" r="0.35340133759209835"></circle><circle cx="25.47622075924594" cy="72.08131000984227" r="0.062166829495044706"></circle><circle cx="27.0762737748531" cy="73.7382134111755" r="0.437417733846705"></circle><circle cx="28.78800888034419" cy="75.27946662292626" r="0.10030229586465655"></circle><circle cx="30.60308667434845" cy="76.6975608143733" r="0.464720462950583"></circle><circle cx="32.51266428030428" cy="77.98558717316209" r="0.07991882731157296"></circle><circle cx="34.507438428065626" cy="79.1372705643446" r="0.40145066821081554"></circle><circle cx="36.57769077849859" cy="80.14700010220582" r="0.39883231852581236"></circle><circle cx="38.713335270252905" cy="81.00985648593496" r="0.24160602750578464"></circle><circle cx="40.903967258038975" cy="81.72163596596451" r="0.26521486991055865"></circle><circle cx="43.13891420301398" cy="82.2788708242156" r="0.07487767146624125"></circle><circle cx="45.40728766831785" cy="82.67884626847183" r="0.24231719305133503"></circle><circle cx="47.69803636644385" cy="82.9196136585742" r="0.24672656368370383"></circle><circle cx="49.99999999999996" cy="83" r="0.39415295284052754"></circle><circle cx="52.30196363355607" cy="82.9196136585742" r="0.35493824084293857"></circle><circle cx="54.592712331682065" cy="82.67884626847183" r="0.2699544205048342"></circle><circle cx="56.86108579698594" cy="82.2788708242156" r="0.05907212413645946"></circle><circle cx="59.09603274196095" cy="81.72163596596454" r="0.0179243871406215"></circle><circle cx="61.28666472974702" cy="81.00985648593499" r="0.13265684778785547"></circle><circle cx="63.42230922150134" cy="80.14700010220587" r="0.380564002497517"></circle><circle cx="65.4925615719343" cy="79.13727056434465" r="0.15594170685813813"></circle><circle cx="67.48733571969565" cy="77.98558717316213" r="0.16043739034490023"></circle><circle cx="69.39691332565148" cy="76.69756081437336" r="0.1493998899598682"></circle><circle cx="71.21199111965575" cy="75.27946662292632" r="0.143684995530293"></circle><circle cx="72.92372622514677" cy="73.73821341117564" r="0.2998192594889203"></circle><circle cx="74.5237792407541" cy="72.08131000984224" r="0.24226653075242643"></circle><circle cx="76.00435486902181" cy="70.31682868574674" r="0.056840552958983936"></circle><circle cx="77.35823989431641" cy="68.45336581453459" r="0.07979718007124026"></circle><circle cx="78.57883832488643" cy="66.50000000000007" r="0.4494610853748131"></circle><circle cx="79.66020352787251" cy="64.46624784403954" r="0.404854293508107"></circle><circle cx="80.59706720070402" cy="62.362017582725" r="0.02796449201793416"></circle><circle cx="81.38486503774006" cy="60.197560814373304" r="0.4030993903411958"></circle><circle cx="82.01975896710789" cy="57.98342255478899" r="0.14371458163389217"></circle><circle cx="76.10858788545292" cy="72.55197637963425" r="0.4858101300022294"></circle><circle cx="77.59445394352034" cy="70.70739267891867" r="0.16583563593087414"></circle><circle cx="78.95025253219566" cy="68.76520392434088" r="0.45665541033118096"></circle><circle cx="80.16959304517087" cy="66.73456469373427" r="0.39740945656373183"></circle><circle cx="81.24672807627631" cy="64.6250464794901" r="0.07611151668466698"></circle><circle cx="82.17658051008937" cy="62.44659257297906" r="0.05321072048678577"></circle><circle cx="82.95476745310475" cy="60.209471196481644" r="0.3544083093209994"></circle><circle cx="83.57762089266319" cy="57.92422710354701" r="0.3870741393121223"></circle><circle cx="84.04220498626333" cy="55.60163187591155" r="0.240682871272216"></circle><circle cx="84.3463298997633" cy="53.25263315125224" r="0.07164278910152866"></circle><circle cx="84.4885621292438" cy="50.88830302109734" r="0.09647509510183494"></circle><circle cx="84.46823125788148" cy="48.5197858421155" r="0.2002243477318021"></circle><circle cx="84.2854331159832" cy="46.15824570678412" r="0.02570431801677553"></circle><circle cx="83.9410293292863" cy="43.81481382102954" r="0.024575152028573966"></circle><circle cx="83.43664325765425" cy="41.500536036880696" r="0.46713395084443465"></circle><circle cx="82.77465234331027" cy="39.226320787440045" r="0.3782954141667092"></circle><circle cx="81.9581769046766" cy="37.0028876695862" r="0.03267342053461797"></circle><circle cx="80.99106542863896" cy="34.840716916759604" r="0.4473333550332981"></circle><circle cx="79.87787643056319" cy="32.750000000000114" r="0.08418469736424139"></circle><circle cx="78.62385696756536" cy="30.740591590073183" r="0.005731270155384882"></circle><circle cx="77.23491790631678" cy="28.821963107120013" r="0.32690172283197305"></circle><circle cx="75.71760606195639" cy="27.003158076770113" r="0.0853114891020148"></circle><circle cx="74.07907333943899" cy="25.292749503153566" r="0.4114052696002686"></circle><circle cx="72.32704302276798" cy="23.698799459730594" r="0.44189884001012314"></circle><circle cx="70.46977337101448" cy="22.228821088414232" r="0.30824760848535404"></circle><circle cx="68.51601869271012" cy="20.88974318610003" r="0.40884478190187834"></circle><circle cx="66.47498808209336" cy="19.68787754552839" r="0.4281774003794614"></circle><circle cx="64.3563020117058" cy="18.628889204417824" r="0.07634485696263671"></circle><circle cx="62.16994698594382" cy="17.717769743102984" r="0.3095035455323497"></circle><circle cx="59.92622846930271" cy="16.95881375653706" r="0.1288694260201272"></circle><circle cx="57.635722311194" cy="16.355598611561923" r="0.4458214802926843"></circle><circle cx="55.30922489629011" cy="15.910967584857836" r="0.016548629089701783"></circle><circle cx="52.95770225537157" cy="15.627016461055206" r="0.2724132331305532"></circle><circle cx="50.592238376537416" cy="15.505083654176573" r="0.18704844242982"></circle><circle cx="48.22398296042319" cy="15.545743898973342" r="0.14599500864198633"></circle><circle cx="45.86409886567671" cy="15.748805541892366" r="0.2565438616602296"></circle><circle cx="43.52370949241683" cy="16.113311444441962" r="0.39739306796287344"></circle><circle cx="41.21384635167769" cy="16.63754349469943" r="0.19187230623214202"></circle><circle cx="38.94539706797904" cy="17.319030705694274" r="0.19930088918659528"></circle><circle cx="36.72905406010834" cy="18.154560862495977" r="0.10269747334232404"></circle><circle cx="34.57526414201357" cy="19.14019566310655" r="0.4384174893561126"></circle><circle cx="32.49417928136225" cy="20.2712892817917" r="0.05049869766159376"></circle><circle cx="30.495608747871405" cy="21.542510267349837" r="0.24295465636794478"></circle><circle cx="28.588972876954056" cy="22.94786667310338" r="0.024542410781640878"></circle><circle cx="26.78325866662382" cy="24.4807343001586" r="0.3465269707519877"></circle><circle cx="25.08697741695114" cy="26.13388792080919" r="0.14263058648384974"></circle><circle cx="23.50812461173737" cy="27.899535334912873" r="0.38073450010158116"></circle><circle cx="22.054142231510404" cy="29.7693540987108" r="0.21508739673324595"></circle><circle cx="20.73188367547559" cy="31.73453075297249" r="0.0023781902757361584"></circle><circle cx="19.54758145776863" cy="33.78580236555743" r="0.40299133994351666"></circle><circle cx="18.506817830271295" cy="35.913500192585744" r="0.24475089832447683"></circle><circle cx="17.614498470462948" cy="38.10759525241622" r="0.32819426279887676"></circle><circle cx="16.874829358329727" cy="40.35774559761951" r="0.26288147987274935"></circle><circle cx="16.29129695132442" cy="42.65334506212456" r="0.14461020596304286"></circle><circle cx="15.866651750820935" cy="44.983573253772704" r="0.20223143155349976"></circle><circle cx="15.602895337525837" cy="47.33744655663057" r="0.2676904449089992"></circle><circle cx="15.501270936954008" cy="49.70386990266797" r="0.3933472896554321"></circle><circle cx="15.562257559439857" cy="52.071689068765544" r="0.2763760871598273"></circle><circle cx="15.785567742304494" cy="54.429743252555944" r="0.14732780955658842"></circle><circle cx="16.17014890482153" cy="56.766917679272595" r="0.4711340208375828"></circle><circle cx="16.714188309595094" cy="59.072195991649664" r="0.12353077794907164"></circle><circle cx="17.415121606963687" cy="61.334712175923805" r="0.4266906667599557"></circle><circle cx="18.269644922156385" cy="63.54380177918903" r="0.27200507816971586"></circle><circle cx="19.273730428227445" cy="65.68905217668564" r="0.00648109267682806"></circle><circle cx="20.422645331366578" cy="67.76035165208923" r="0.020478096615747732"></circle><circle cx="21.710974179095153" cy="69.74793705945456" r="0.12096194859845288"></circle><circle cx="23.132644386200788" cy="71.64243984216317" r="0.2544446108694882"></circle><circle cx="24.680954858089066" cy="73.43493019195654" r="0.008871332475742233"></circle><circle cx="26.348607576639576" cy="75.11695913991599" r="0.29231268110641273"></circle><circle cx="28.12774199968031" cy="76.6805983809856" r="0.002485420484828027"></circle><circle cx="30.009972111942535" cy="78.11847764432999" r="0.15583867253076067"></circle><circle cx="31.986425952849405" cy="79.42381943337443" r="0.4034082585558805"></circle><circle cx="34.047787434828685" cy="80.5904709717845" r="0.23318898884509653"></circle><circle cx="36.18434025503135" cy="81.61293320480169" r="0.2712768400936604"></circle><circle cx="38.386013693481516" cy="82.48638671923982" r="0.4704400824086534"></circle><circle cx="40.64243008178462" cy="83.20671445996592" r="0.20807175745320716"></circle><circle cx="42.942953718646194" cy="83.77052113578986" r="0.15143299600988303"></circle><circle cx="45.27674100164009" cy="84.175149223294" r="0.4143125978985467"></circle><circle cx="47.63279153892646" cy="84.41869149316722" r="0.11548361261274054"></circle><circle cx="49.99999999999995" cy="84.5" r="0.4882192071829419"></circle><circle cx="52.36720846107343" cy="84.41869149316723" r="0.2528036376308349"></circle><circle cx="54.72325899835981" cy="84.175149223294" r="0.17910648488924452"></circle><circle cx="57.057046281353706" cy="83.77052113578989" r="0.34190522449977423"></circle><circle cx="59.35756991821528" cy="83.20671445996595" r="0.26144276844055503"></circle><circle cx="61.61398630651839" cy="82.48638671923985" r="0.333379994755558"></circle><circle cx="63.815659744968556" cy="81.61293320480172" r="0.45349602357651553"></circle><circle cx="65.95221256517122" cy="80.59047097178455" r="0.043132846037600814"></circle><circle cx="68.01357404715051" cy="79.42381943337448" r="0.2910059404928754"></circle><circle cx="69.99002788805738" cy="78.11847764433004" r="0.00007876695042308146"></circle><circle cx="71.8722580003196" cy="76.68059838098566" r="0.12884182584138293"></circle><circle cx="73.65139242336035" cy="75.11695913991605" r="0.3177762403099098"></circle><circle cx="75.31904514191086" cy="73.43493019195662" r="0.18191789234433775"></circle><circle cx="76.86735561379915" cy="71.64243984216326" r="0.2998872476021214"></circle><circle cx="78.28902582090478" cy="69.74793705945464" r="0.045353911300080374"></circle><circle cx="64.19681078407936" cy="83.08248121832835" r="0.402123023926111"></circle><circle cx="66.39781232086271" cy="82.04858422910071" r="0.25574456644285926"></circle><circle cx="68.5239944010305" cy="80.8684569007035" r="0.1642068252064932"></circle><circle cx="70.56565574341239" cy="79.54748388346204" r="0.06461722773711387"></circle><circle cx="72.5134807155788" cy="78.0916924742754" r="0.3954842697503903"></circle><circle cx="74.35858183893514" cy="76.50772511544322" r="0.05065521980299248"></circle><circle cx="76.09254034024819" cy="74.80280908672485" r="0.31052430346878956"></circle><circle cx="77.70744456457743" cy="72.98472352891956" r="0.45163836403068713"></circle><circle cx="79.19592607434191" cy="71.06176394943125" r="0.2639812688276796"></circle><circle cx="80.55119326981105" cy="69.04270437177061" r="0.16548730335130546"></circle><circle cx="81.7670623776159" cy="66.93675730169917" r="0.14117780150183634"></circle><circle cx="82.8379856658896" cy="64.75353169267714" r="0.10026873616376286"></circle><circle cx="83.7590767572949" cy="62.50298910241353" r="0.2372417037391833"></circle><circle cx="84.52613292444327" cy="60.19539824056295" r="0.44853814682094983"></circle><circle cx="85.13565426597614" cy="57.84128811495867" r="0.3845721772452997"></circle><circle cx="85.584859675812" cy="55.45139999016479" r="0.4114769156834017"></circle><circle cx="85.87169953269559" cy="53.03663837754966" r="0.3192918055433892"></circle><circle cx="85.99486505214955" cy="50.608021280501575" r="0.1357233879745714"></circle><circle cx="85.9537942581579" cy="48.17662992180641" r="0.41825332228952083"></circle><circle cx="85.74867454733362" cy="45.75355818256962" r="0.16748736949345844"></circle><circle cx="85.3804418338709" cy="43.34986198338127" r="0.43488939869955934"></circle><circle cx="84.85077627918338" cy="40.97650883868616" r="0.11769847711316883"></circle><circle cx="84.16209462571291" cy="38.644327814530904" r="0.027012753130542633"></circle><circle cx="83.31753916988819" cy="36.36396011801937" r="0.2297913846885401"></circle><circle cx="82.32096342454676" cy="34.14581054392528" r="0.4183865524592921"></circle><circle cx="81.17691453623986" cy="32.00000000000012" r="0.30209590441533596"></circle><circle cx="79.89061253764564" cy="29.936319327592415" r="0.19666519969290364"></circle><circle cx="78.46792652975725" cy="27.96418462828427" r="0.18692675602494424"></circle><circle cx="76.91534790252123" cy="26.092594300379524" r="0.16822221399753645"></circle><circle cx="75.23996071611403" cy="24.330087981276197" r="0.21690890309981758"></circle><circle cx="73.44940937800015" cy="22.684707583059655" r="0.10101644961821654"></circle><circle cx="71.5518637632543" cy="21.16396059910228" r="0.23940054771558572"></circle><circle cx="69.55598193729526" cy="19.77478584909312" r="0.40212127801803565"></circle><circle cx="67.47087065111911" cy="18.523521818795157" r="0.21220212977796094"></circle><circle cx="65.30604378928328" cy="17.41587773898854" r="0.33832448906588974"></circle><circle cx="63.07137896023332" cy="16.456907535560028" r="0.02457614490815363"></circle><circle cx="60.77707242704113" cy="15.650986769598319" r="0.48795351247314467"></circle><circle cx="58.433592584195225" cy="15.001792672712405" r="0.4742996097083986"></circle><circle cx="56.05163219271736" cy="14.512287368667074" r="0.44749141357919786"></circle><circle cx="53.6420595915476" cy="14.184704357891775" r="0.4492667352508458"></circle><circle cx="51.215869107804906" cy="14.02053832653015" r="0.4659333878330226"></circle><circle cx="48.78413089219521" cy="14.02053832653015" r="0.30136433742866997"></circle><circle cx="46.357940408452514" cy="14.184704357891768" r="0.22281672160956167"></circle><circle cx="43.94836780728275" cy="14.512287368667053" r="0.4528889108179136"></circle><circle cx="41.56640741580489" cy="15.001792672712376" r="0.34232897943553764"></circle><circle cx="39.22292757295897" cy="15.650986769598283" r="0.3676349930233531"></circle><circle cx="36.92862103976679" cy="16.456907535559985" r="0.42843142091908515"></circle><circle cx="34.69395621071682" cy="17.415877738988492" r="0.10675069802237991"></circle><circle cx="32.529129348880986" cy="18.5235218187951" r="0.24657294898690363"></circle><circle cx="30.44401806270484" cy="19.774785849093057" r="0.4381473891920129"></circle><circle cx="28.448136236745786" cy="21.16396059910221" r="0.12785574033557856"></circle><circle cx="26.550590621999937" cy="22.68470758305958" r="0.14268017491260954"></circle><circle cx="24.760039283886055" cy="24.330087981276122" r="0.3194644819347868"></circle><circle cx="23.084652097478838" cy="26.092594300379442" r="0.48276046680522433"></circle><circle cx="21.53207347024282" cy="27.964184628284176" r="0.2631334172077344"></circle><circle cx="20.10938746235443" cy="29.93631932759232" r="0.10885837124612086"></circle><circle cx="18.823085463760194" cy="32.00000000000002" r="0.1147098287942756"></circle><circle cx="17.679036575453296" cy="34.14581054392518" r="0.09258129381784441"></circle><circle cx="16.682460830111857" cy="36.363960118019264" r="0.48745482971270493"></circle><circle cx="15.837905374287118" cy="38.6443278145308" r="0.2587165972719552"></circle><circle cx="15.14922372081665" cy="40.976508838686044" r="0.22925979836194343"></circle><circle cx="14.619558166129117" cy="43.34986198338115" r="0.39974637894246534"></circle><circle cx="14.251325452666393" cy="45.753558182569506" r="0.1021230593088609"></circle><circle cx="14.046205741842101" cy="48.17662992180629" r="0.19191908304399075"></circle><circle cx="14.00513494785045" cy="50.608021280501454" r="0.4302278523217108"></circle><circle cx="14.128300467304406" cy="53.036638377549544" r="0.3746807145613107"></circle><circle cx="14.41514032418798" cy="55.451399990164674" r="0.20065083998343258"></circle><circle cx="14.864345734023829" cy="57.84128811495856" r="0.40427512886385564"></circle><circle cx="15.473867075556697" cy="60.195398240562845" r="0.0019460274304801128"></circle><circle cx="16.24092324270506" cy="62.50298910241342" r="0.297215856060689"></circle><circle cx="17.162014334110346" cy="64.75353169267703" r="0.4339156323287041"></circle><circle cx="18.232937622384046" cy="66.93675730169907" r="0.2738941165107228"></circle><circle cx="19.44880673018889" cy="69.04270437177053" r="0.4807032154582316"></circle><circle cx="20.804073925658013" cy="71.06176394943115" r="0.27020210803126254"></circle><circle cx="22.29255543542249" cy="72.98472352891947" r="0.07787379917922477"></circle><circle cx="23.907459659751733" cy="74.80280908672476" r="0.022747660087963806"></circle><circle cx="25.641418161064777" cy="76.50772511544315" r="0.028551812096538676"></circle><circle cx="27.48651928442111" cy="78.09169247427533" r="0.35069438536895947"></circle><circle cx="29.434344256587508" cy="79.54748388346198" r="0.4501390021024425"></circle><circle cx="31.476005598969383" cy="80.86845690070345" r="0.2315448370102563"></circle><circle cx="33.60218767913719" cy="82.04858422910067" r="0.20603181921451907"></circle><circle cx="35.80318921592054" cy="83.0824812183283" r="0.19596019772744244"></circle><circle cx="38.06896754412911" cy="83.96543043355928" r="0.4761815089194592"></circle><circle cx="40.38918443693052" cy="84.69340318003788" r="0.14335938710419494"></circle><circle cx="42.75325327680821" cy="85.2630778850898" r="0.3832166503633804"></circle><circle cx="45.150387359868965" cy="85.67185525369659" r="0.311605773104939"></circle><circle cx="47.5696491130988" cy="85.91787012848255" r="0.3264313804400033"></circle><circle cx="49.999999999999936" cy="86" r="0.47291243581129316"></circle><circle cx="52.43035088690108" cy="85.91787012848255" r="0.2217396418717531"></circle><circle cx="54.849612640130914" cy="85.6718552536966" r="0.41043577046994895"></circle><circle cx="57.24674672319167" cy="85.26307788508981" r="0.17920190186306806"></circle><circle cx="59.61081556306936" cy="84.6934031800379" r="0.08975941629451656"></circle><circle cx="61.93103245587078" cy="83.96543043355933" r="0.44148093821892676"></circle><circle cx="64.19681078407935" cy="83.08248121832835" r="0.3924634400072876"></circle><circle cx="41.351904847158266" cy="86.48918264674333" r="0.1553014823219131"></circle><circle cx="43.795345733717376" cy="86.98313487842668" r="0.27184331180171895"></circle><circle cx="46.26620575265693" cy="87.31365407620257" r="0.01946135207907773"></circle><circle cx="48.7535658688388" cy="87.47927963497533" r="0.4438893623687017"></circle><circle cx="51.246434131161074" cy="87.47927963497534" r="0.11452078150936795"></circle><circle cx="53.73379424734294" cy="87.31365407620257" r="0.0434931352264144"></circle><circle cx="56.2046542662825" cy="86.98313487842671" r="0.13234987140922083"></circle><circle cx="58.648095152841606" cy="86.48918264674337" r="0.1645502356856131"></circle><circle cx="61.053319040408766" cy="85.83398021698032" r="0.10217284450406383"></circle><circle cx="63.40969694800585" cy="85.0204230094761" r="0.3268548454381416"></circle><circle cx="65.70681575106207" cy="84.0521062338615" r="0.4580827336284429"></circle><circle cx="67.93452419829933" cy="82.93330900138363" r="0.050324607775671826"></circle><circle cx="70.08297777136085" cy="81.6689754149866" r="0.18780551796487566"></circle><circle cx="72.14268218895305" cy="80.26469272071041" r="0.04413170821312984"></circle><circle cx="74.10453536324515" cy="78.72666661696174" r="0.37975162242610205"></circle><circle cx="75.95986762311793" cy="77.06169383076738" r="0.012784305886387681"></circle><circle cx="77.70048002650941" cy="75.27713208219939" r="0.46041443298673557"></circle><circle cx="79.31868059255108" cy="73.38086756970256" r="0.26827756580845463"></circle><circle cx="80.80731829337986" cy="71.38128012001111" r="0.06538227348191894"></circle><circle cx="82.1598146554122" cy="69.2872061566608" r="0.18111942843822615"></circle><circle cx="83.37019283043006" cy="67.10789965074365" r="0.4792960449678054"></circle><circle cx="84.43310400801028" cy="64.8529912264684" r="0.2478786191865977"></circle><circle cx="85.34385105257738" cy="62.5324456022448" r="0.3524578723618035"></circle><circle cx="86.09840926062546" cy="60.1565175553627" r="0.18081403417441855"></circle><circle cx="86.6934441463783" cy="57.73570660486915" r="0.2245503540544327"></circle><circle cx="87.12632617729425" cy="55.28071061289636" r="0.3457317084395384"></circle><circle cx="87.39514239429425" cy="52.802378509490886" r="0.2073391145597544"></circle><circle cx="87.49870486536413" cy="50.311662349853876" r="0.16360960062103858"></circle><circle cx="87.43655593517255" cy="47.81956891585711" r="0.02551127190080149"></circle><circle cx="87.20897024750647" cy="45.33711107571952" r="0.3222735758148253"></circle><circle cx="86.81695353158625" cy="42.875259116780576" r="0.06185237941897659"></circle><circle cx="86.26223815762425" cy="40.44489226645038" r="0.01219646546160602"></circle><circle cx="85.54727548126749" cy="38.05675061556201" r="0.438653019676405"></circle><circle cx="84.67522501075402" cy="35.721387656583055" r="0.33873068622016633"></circle><circle cx="83.64994044465747" cy="33.44912364643475" r="0.4993667419717269"></circle><circle cx="82.47595264191654" cy="31.250000000000135" r="0.07878828978856611"></circle><circle cx="81.15844959941143" cy="29.133734915875863" r="0.16659653561584564"></circle><circle cx="79.70325352556617" cy="27.109680430453988" r="0.16312476571126178"></circle><circle cx="78.11679511129012" cy="25.18678109011787" r="0.14875544995171897"></circle><circle cx="76.40608511196328" cy="23.37353442419082" r="0.3865329504139179"></circle><circle cx="74.57868336604297" cy="21.677953393305014" r="0.4022702779213915"></circle><circle cx="72.64266538720548" cy="20.107530979140464" r="0.12892516153241484"></circle><circle cx="70.6065866776553" cy="18.66920707201493" r="0.14617509614049484"></circle><circle cx="68.47944492030572" cy="17.36933780265275" r="0.3913940939697448"></circle><circle cx="66.27064021690849" cy="16.213667453659312" r="0.37761931134750526"></circle><circle cx="63.98993354784483" cy="15.207303074827813" r="0.2707253664116005"></circle><circle cx="61.64740363714944" cy="14.354691914456424" r="0.45893167687797654"></circle><circle cx="59.25340241338605" cy="13.659601766409587" r="0.49499079428339565"></circle><circle cx="56.81850926319843" cy="13.125104319772277" r="0.40047897229084417"></circle><circle cx="54.353484279696154" cy="12.753561584677144" r="0.38653725815090567"></circle><circle cx="51.86922071227615" cy="12.54661545429041" r="0.21253696318739057"></circle><circle cx="49.37669682801054" cy="12.505180449083532" r="0.3376943445236166"></circle><circle cx="46.88692739732917" cy="12.629439675454421" r="0.20371986064850467"></circle><circle cx="44.41091501839344" cy="12.918844016557685" r="0.3084324525159139"></circle><circle cx="41.959601495255704" cy="13.372114558919648" r="0.13292676594831343"></circle><circle cx="39.543819484677826" cy="13.987248244115015" r="0.49217496480177103"></circle><circle cx="37.17424462528763" cy="14.761526720528366" r="0.48812167398773587"></circle><circle cx="34.86134836061136" cy="15.691528356086224" r="0.2912553763675557"></circle><circle cx="32.61535166447723" cy="16.773143358869987" r="0.06273773289547702"></circle><circle cx="30.44617987326898" cy="18.001591938794064" r="0.43779271137915354"></circle><circle cx="28.36341882464057" cy="19.371445430087928" r="0.3647993792315891"></circle><circle cx="26.37627249651958" cy="20.876650281238202" r="0.1224698490077798"></circle><circle cx="24.49352233359064" cy="22.510554806381403" r="0.08252279930824313"></circle><circle cx="22.723488441010776" cy="24.26593857992238" r="0.01928218449117547"></circle><circle cx="21.0739928168376" cy="26.135044344486264" r="0.32732139794099635"></circle><circle cx="19.5523247856553" cy="28.109612291195493" r="0.38041258909592246"></circle><circle cx="18.16520878615116" cy="30.18091656078282" r="0.10898829056454695"></circle><circle cx="16.918774654990145" cy="32.33980380424165" r="0.08938638663979481"></circle><circle cx="15.818530538312302" cy="34.57673363260198" r="0.05721993170455075"></circle><circle cx="14.869338550554872" cy="36.881820777086865" r="0.08623947023082368"></circle><circle cx="14.075393288169188" cy="39.24487877333404" r="0.2879984676276699"></circle><circle cx="13.440203293181632" cy="41.65546497663814" r="0.2344769574389557"></circle><circle cx="12.966575548513724" cy="44.10292670928549" r="0.12104598391510335"></circle><circle cx="12.65660307357846" cy="46.57644833605064" r="0.005439835028166029"></circle><circle cx="12.51165567496939" cy="49.065099059822224" r="0.404786999988755"></circle><circle cx="12.532373893116343" cy="51.557881226143465" r="0.06318293947990006"></circle><circle cx="12.718666171658292" cy="54.043778923203426" r="0.4990024538821898"></circle><circle cx="13.069709262042196" cy="56.511806662509876" r="0.2725670636823534"></circle><circle cx="13.583951861559818" cy="58.951057925117404" r="0.49181571218358455"></circle><circle cx="14.25912146874601" cy="61.35075335888098" r="0.042848905199443066"></circle><circle cx="15.09223442584225" cy="63.700288413739585" r="0.15686569249036186"></circle><circle cx="16.079609103949288" cy="65.98928020453454" r="0.31251266464728966"></circle><circle cx="17.216882172598055" cy="68.20761339425573" r="0.25756860221774636"></circle><circle cx="18.49902788184595" cy="70.3454848949658" r="0.09436486368822161"></circle><circle cx="19.920380271685893" cy="72.39344718885452" r="0.2647593558224288"></circle><circle cx="21.4746582106208" cy="74.34245007798305" r="0.18198472147732003"></circle><circle cx="23.154993152760426" cy="76.1838806782276" r="0.10862575640034855"></circle><circle cx="24.953959490771158" cy="77.9096014806745" r="0.36361516257787296"></circle><circle cx="26.863607370550394" cy="79.51198631227572" r="0.42122028310743276"></circle><circle cx="28.87549782261426" cy="80.98395403684987" r="0.3993419818303753"></circle><circle cx="30.9807400549414" cy="82.31899984749357" r="0.14777563410958516"></circle><circle cx="33.17003074248254" cy="83.5112240121279" r="0.18976999071674983"></circle><circle cx="35.43369513969883" cy="84.55535794514023" r="0.40526542240104557"></circle><circle cx="37.761729834456546" cy="85.44678748991464" r="0.1546130860504462"></circle><circle cx="16.225009252406878" cy="69.49999999999997" r="0.45031158433636054"></circle><circle cx="17.572685120200767" cy="71.66723908776453" r="0.2507569427253177"></circle><circle cx="19.059219728641747" cy="73.74169573134" r="0.30906718671313527"></circle><circle cx="20.67824750831985" cy="75.71448678890265" r="0.013089945187644947"></circle><circle cx="22.422835533724665" cy="77.57716446627538" r="0.20745968777299484"></circle><circle cx="24.2855132110974" cy="79.32175249168019" r="0.3193027221222945"></circle><circle cx="26.25830426865983" cy="80.94078027135812" r="0.0301825342727845"></circle><circle cx="28.332760912235514" cy="82.42731487979927" r="0.37527437803064245"></circle><circle cx="30.500000000000075" cy="83.77499074759315" r="0.24235115702270127"></circle><circle cx="32.750741081458855" cy="84.9780369197748" r="0.039536913210315494"></circle><circle cx="35.07534613776148" cy="86.03130176794016" r="0.07404109656662305"></circle><circle cx="37.463860853176755" cy="86.93027505030915" r="0.3941392618338643"></circle><circle cx="39.90605724100156" cy="87.67110722527363" r="0.05788901163072058"></circle><circle cx="42.39147744137095" cy="88.25062593572598" r="0.24087790149636534"></circle><circle cx="44.90947850341802" cy="88.66634959357862" r="0.42629030370853294"></circle><circle cx="47.44927796002426" cy="88.91649800630552" r="0.19590110848904152"></circle><circle cx="49.99999999999992" cy="89" r="0.4385044466743516"></circle><circle cx="52.55072203997531" cy="88.91649800630555" r="0.034712889723715445"></circle><circle cx="55.0905214965821" cy="88.66634959357859" r="0.28551504783008763"></circle><circle cx="57.608522558628906" cy="88.250625935726" r="0.05543950373888318"></circle><circle cx="60.093942758998026" cy="87.67110722527374" r="0.2976896806052183"></circle><circle cx="62.53613914682336" cy="86.93027505030909" r="0.31616520194403963"></circle><circle cx="64.92465386223839" cy="86.03130176794023" r="0.23091598356575094"></circle><circle cx="67.24925891854076" cy="84.97803691977498" r="0.21277090980560498"></circle><circle cx="69.50000000000003" cy="83.77499074759308" r="0.10459564288489298"></circle><circle cx="71.66723908776436" cy="82.42731487979935" r="0.26639227478766736"></circle><circle cx="73.74169573133983" cy="80.94078027135839" r="0.3030234443137749"></circle><circle cx="75.71448678890269" cy="79.32175249168012" r="0.3535001951031944"></circle><circle cx="77.57716446627522" cy="77.57716446627548" r="0.41137109477555067"></circle><circle cx="79.32175249168006" cy="75.71448678890276" r="0.1482541369766327"></circle><circle cx="80.94078027135816" cy="73.74169573134012" r="0.02461916783870055"></circle><circle cx="82.42731487979916" cy="71.66723908776466" r="0.08639123884532018"></circle><circle cx="83.77499074759305" cy="69.50000000000011" r="0.15515280926941666"></circle><circle cx="84.97803691977482" cy="67.24925891854109" r="0.21699144374639412"></circle><circle cx="86.03130176794019" cy="64.92465386223846" r="0.10440670872632574"></circle><circle cx="86.93027505030908" cy="62.536139146823444" r="0.3501214421933313"></circle><circle cx="87.67110722527364" cy="60.093942758998374" r="0.3126053451162323"></circle><circle cx="88.25062593572599" cy="57.608522558628984" r="0.2336344385457344"></circle><circle cx="88.66634959357859" cy="55.090521496582184" r="0.012715796982253336"></circle><circle cx="88.91649800630555" cy="52.5507220399754" r="0.01239219868854402"></circle><circle cx="89" cy="50.00000000000001" r="0.3338908144909999"></circle><circle cx="88.91649800630555" cy="47.449277960024624" r="0.4546622782115868"></circle><circle cx="88.66634959357859" cy="44.90947850341783" r="0.3494539544893399"></circle><circle cx="88.25062593572599" cy="42.39147744137103" r="0.3992371029862992"></circle><circle cx="87.67110722527372" cy="39.90605724100191" r="0.4669080880222004"></circle><circle cx="86.93027505030908" cy="37.46386085317658" r="0.014059368733178146"></circle><circle cx="86.0313017679402" cy="35.07534613776156" r="0.2517760053413921"></circle><circle cx="84.97803691977495" cy="32.75074108145918" r="0.2748756950680079"></circle><circle cx="83.77499074759305" cy="30.499999999999908" r="0.32077994443898494"></circle><circle cx="82.42731487979931" cy="28.33276091223559" r="0.12689028161093996"></circle><circle cx="80.94078027135835" cy="26.25830426866012" r="0.4196345351809847"></circle><circle cx="79.32175249168006" cy="24.285513211097253" r="0.49064123059717046"></circle><circle cx="77.57716446627543" cy="22.422835533724726" r="0.3937255365563652"></circle><circle cx="75.71448678890292" cy="20.678247508320087" r="0.3398592542101493"></circle><circle cx="73.74169573134006" cy="19.0592197286418" r="0.464832009080104"></circle><circle cx="71.6672390877646" cy="17.572685120200816" r="0.40604570850480015"></circle><circle cx="69.50000000000028" cy="16.225009252407062" r="0.36591113550682797"></circle><circle cx="67.24925891854103" cy="15.021963080225142" r="0.43151939174653764"></circle><circle cx="64.92465386223866" cy="13.968698232059879" r="0.18515448144750768"></circle><circle cx="62.53613914682364" cy="13.069724949690993" r="0.357709036158111"></circle><circle cx="60.09394275899831" cy="12.328892774726334" r="0.12136579517340196"></circle><circle cx="57.60852255862919" cy="11.74937406427405" r="0.24919575630283408"></circle><circle cx="55.09052149658212" cy="11.333650406421405" r="0.11605697979059981"></circle><circle cx="52.550722039975604" cy="11.083501993694462" r="0.04108844484168517"></circle><circle cx="49.99999999999994" cy="11" r="0.4140629193701617"></circle><circle cx="47.44927796002456" cy="11.083501993694455" r="0.11914596202341798"></circle><circle cx="44.90947850341804" cy="11.333650406421384" r="0.47499856577305066"></circle><circle cx="42.39147744137097" cy="11.749374064274015" r="0.348391594214602"></circle><circle cx="39.90605724100185" cy="12.328892774726299" r="0.20549867720313597"></circle><circle cx="37.46386085317651" cy="13.069724949690944" r="0.31190311212792976"></circle><circle cx="35.07534613776149" cy="13.968698232059815" r="0.050073048804087916"></circle><circle cx="32.75074108145912" cy="15.02196308022507" r="0.14382799262881896"></circle><circle cx="30.499999999999854" cy="16.225009252406977" r="0.38600346226388793"></circle><circle cx="28.332760912235532" cy="17.572685120200724" r="0.3050056624508809"></circle><circle cx="26.25830426866007" cy="19.0592197286417" r="0.40174983676291454"></circle><circle cx="24.285513211097204" cy="20.678247508319977" r="0.010241539884814466"></circle><circle cx="22.42283553372468" cy="22.422835533724616" r="0.13769447458253858"></circle><circle cx="20.67824750832004" cy="24.285513211097133" r="0.07462001789048756"></circle><circle cx="19.059219728641754" cy="26.25830426865999" r="0.3826695611602786"></circle><circle cx="17.57268512020078" cy="28.33276091223545" r="0.16298573207004374"></circle><circle cx="16.225009252407027" cy="30.499999999999766" r="0.4453775041534941"></circle><circle cx="15.021963080225113" cy="32.75074108145903" r="0.20857061138623223"></circle><circle cx="13.968698232059857" cy="35.07534613776141" r="0.026011855995458966"></circle><circle cx="13.069724949690972" cy="37.46386085317642" r="0.08813253296970835"></circle><circle cx="12.32889277472632" cy="39.906057241001754" r="0.30802359279328506"></circle><circle cx="11.749374064274036" cy="42.391477441370874" r="0.3443075874539401"></circle><circle cx="11.333650406421434" cy="44.909478503417674" r="0.25175072886330085"></circle><circle cx="11.083501993694462" cy="47.44927796002446" r="0.45122706329394013"></circle><circle cx="11" cy="49.999999999999844" r="0.08522311724299902"></circle><circle cx="11.08350199369444" cy="52.550722039975234" r="0.4232859339573145"></circle><circle cx="11.333650406421398" cy="55.09052149658203" r="0.3126398219884068"></circle><circle cx="11.74937406427398" cy="57.60852255862883" r="0.4929360006408313"></circle><circle cx="12.328892774726313" cy="60.09394275899822" r="0.08964569427448088"></circle><circle cx="13.069724949690873" cy="62.53613914682329" r="0.25031693693832446"></circle><circle cx="13.69470903952407" cy="32.05074240323057" r="0.31977800602870576"></circle><circle cx="12.614166667939507" cy="34.42600031888421" r="0.44639305619069525"></circle><circle cx="11.688829853636712" cy="36.86591297362461" r="0.3985308085144531"></circle><circle cx="10.922540089586207" cy="39.36035118295708" r="0.39691478692822446"></circle><circle cx="10.31847859228823" cy="41.89895940206987" r="0.42835742784527997"></circle><circle cx="9.879153095099497" cy="44.47119871640014" r="0.0034299693250700036"></circle><circle cx="9.60638743749464" cy="47.066390593448205" r="0.048686925270606474"></circle><circle cx="9.501313993480622" cy="49.67376121421339" r="0.21171006899718103"></circle><circle cx="9.5643689705987" cy="52.28248620020339" r="0.47645763402340413"></circle><circle cx="9.795290599028839" cy="54.881735550340764" r="0.4226580753943717"></circle><circle cx="10.193120218314995" cy="57.46071860121246" r="0.03677817160097063"></circle><circle cx="10.756206257199892" cy="60.008728824009715" r="0.46620090674419856"></circle><circle cx="11.482211090046341" cy="62.51518827218556" r="0.050394138970259794"></circle><circle cx="12.368120741382029" cy="64.96969149531141" r="0.3453766663073704"></circle><circle cx="13.410257398279569" cy="67.3620487368238" r="0.34156692538986755"></circle><circle cx="14.60429467862599" cy="69.68232823632549" r="0.4600934435548627"></circle><circle cx="15.945275591898827" cy="71.92089746083126" r="0.07334631221019472"></circle><circle cx="17.427633117882017" cy="74.06846309378112" r="0.14593559230423925"></circle><circle cx="19.04521331789312" cy="76.11610961581488" r="0.06003778601687082"></circle><circle cx="20.791300882575555" cy="78.05533631713882" r="0.21388413798225325"></circle><circle cx="22.658647010193476" cy="79.87809258782758" r="0.13058256778205513"></circle><circle cx="24.639499499698278" cy="81.57681133956049" r="0.15878316954107197"></circle><circle cx="26.725634933631174" cy="83.14444042003711" r="0.44373451661792596"></circle><circle cx="28.90839281726084" cy="84.57447188966196" r="0.49821332518835504"></circle><circle cx="31.178711532227375" cy="85.860969038955" r="0.34310373298702523"></circle><circle cx="33.527165955430185" cy="86.99859103452539" r="0.0133976427512712"></circle><circle cx="35.94400658699115" cy="87.98261509129475" r="0.3983334567437783"></circle><circle cx="38.419200024853104" cy="88.80895607892123" r="0.2335007595220545"></circle><circle cx="40.942470617982345" cy="89.47418348102829" r="0.0008359308217454897"></circle><circle cx="43.50334312526065" cy="89.97553563683546" r="0.32565545232567705"></circle><circle cx="46.091186202962184" cy="90.31093120606477" r="0.29250859843806976"></circle><circle cx="48.69525654028586" cy="90.4789778095289" r="0.26461861140331255"></circle><circle cx="51.30474345971396" cy="90.47897780952891" r="0.04773778703854803"></circle><circle cx="53.90881379703764" cy="90.3109312060648" r="0.18761524163135512"></circle><circle cx="56.49665687473917" cy="89.97553563683549" r="0.0771681589964458"></circle><circle cx="59.05752938201748" cy="89.47418348102833" r="0.383055329023932"></circle><circle cx="61.580799975146725" cy="88.80895607892128" r="0.13634672206509424"></circle><circle cx="64.05599341300868" cy="87.98261509129482" r="0.37385775196992443"></circle><circle cx="66.47283404456965" cy="86.99859103452545" r="0.3972542666583212"></circle><circle cx="68.82128846777246" cy="85.86096903895509" r="0.30961415491112254"></circle><circle cx="71.09160718273901" cy="84.57447188966206" r="0.45152080961122987"></circle><circle cx="73.27436506636869" cy="83.14444042003723" r="0.2728651623324725"></circle><circle cx="75.36050050030158" cy="81.5768113395606" r="0.47674922946412046"></circle><circle cx="77.3413529898064" cy="79.87809258782771" r="0.17285441846569016"></circle><circle cx="79.20869911742432" cy="78.05533631713894" r="0.011391541595495047"></circle><circle cx="80.95478668210677" cy="76.11610961581502" r="0.388471418734159"></circle><circle cx="82.57236688211788" cy="74.06846309378126" r="0.1338657443014517"></circle><circle cx="84.05472440810107" cy="71.9208974608314" r="0.39342971050440234"></circle><circle cx="85.39570532137392" cy="69.68232823632565" r="0.31812626776417685"></circle><circle cx="86.58974260172036" cy="67.36204873682397" r="0.05006288028918893"></circle><circle cx="87.6318792586179" cy="64.96969149531157" r="0.14414680341022967"></circle><circle cx="88.5177889099536" cy="62.51518827218573" r="0.33125520246766205"></circle><circle cx="89.24379374280007" cy="60.008728824009886" r="0.17630176744924586"></circle><circle cx="89.80687978168498" cy="57.46071860121264" r="0.11091724127583547"></circle><circle cx="90.20470940097115" cy="54.881735550340935" r="0.3742554109686199"></circle><circle cx="90.43563102940129" cy="52.282486200203564" r="0.05615713926929966"></circle><circle cx="90.49868600651938" cy="49.67376121421357" r="0.35413800003241813"></circle><circle cx="90.39361256250538" cy="47.06639059344838" r="0.020450975660293302"></circle><circle cx="90.12084690490053" cy="44.471198716400316" r="0.12476456367284294"></circle><circle cx="89.68152140771181" cy="41.89895940207005" r="0.3523069312919017"></circle><circle cx="89.07745991041384" cy="39.36035118295725" r="0.3972666091014375"></circle><circle cx="88.31117014636334" cy="36.86591297362477" r="0.0717322871149294"></circle><circle cx="87.38583333206057" cy="34.42600031888438" r="0.26455136126484424"></circle><circle cx="86.305290960476" cy="32.05074240323073" r="0.22202491463529428"></circle><circle cx="85.07402885326971" cy="29.749999999999915" r="0.19523994086445962"></circle><circle cx="83.69715853811107" cy="27.533324534826946" r="0.04900414368732853"></circle><circle cx="82.18039602840705" cy="25.409918433342185" r="0.26866931349427337"></circle><circle cx="80.53003809353811" cy="23.38859691772881" r="0.2869993960588868"></circle><circle cx="78.75293611811105" cy="21.477751410735078" r="0.1138484501832594"></circle><circle cx="76.85646765875217" cy="19.68531469907038" r="0.06286200786277463"></circle><circle cx="74.84850581652344" cy="18.018728000809592" r="0.16809585987805786"></circle><circle cx="72.73738655210721" cy="16.484910073519806" r="0.06527810662855826"></circle><circle cx="70.53187407945036" cy="15.090228491357976" r="0.43147439644567287"></circle><circle cx="68.24112448153727" cy="13.840473210382562" r="0.35512107842867513"></circle><circle cx="65.87464769933305" cy="12.740832531817631" r="0.012796302883413602"></circle><circle cx="63.44226805170533" cy="11.795871563061375" r="0.26988653272915863"></circle><circle cx="60.954083450218285" cy="11.009513265853506" r="0.2638835938549581"></circle><circle cx="58.42042347811925" cy="10.38502217028087" r="0.42248136330723274"></circle><circle cx="55.85180650755365" cy="9.92499082223246" r="0.4442174096954722"></circle><circle cx="53.258896033027476" cy="9.6313290205645" r="0.025423644904809195"></circle><circle cx="50.65245640240528" cy="9.505255888659327" r="0.10331677517893167"></circle><circle cx="48.043308129217124" cy="9.547294813290769" r="0.45127908900257396"></circle><circle cx="45.44228297179653" cy="9.757271271808321" r="0.023746229180271472"></circle><circle cx="42.860178965738896" cy="10.134313556659748" r="0.06456410910291188"></circle><circle cx="40.30771559635404" cy="10.676856394244858" r="0.4600589792852996"></circle><circle cx="37.795489297220946" cy="11.382647443076166" r="0.42109028017928263"></circle><circle cx="35.33392945958313" cy="12.248756644270422" r="0.07166598885076636"></circle><circle cx="32.933255135212676" cy="13.27158838555286" r="0.35857013830787066"></circle><circle cx="30.60343261249152" cy="14.44689642827447" r="0.1606588809413232"></circle><circle cx="28.354134041824224" cy="15.769801535476205" r="0.2347047709375697"></circle><circle cx="26.194697282154916" cy="17.234811727814574" r="0.12620789420316547"></circle><circle cx="24.134087135277124" cy="18.835845083260104" r="0.23252196916751744"></circle><circle cx="22.18085812887328" cy="20.566254985915837" r="0.19848220252828053"></circle><circle cx="20.34311900279022" cy="22.41885771913466" r="0.38178305705836346"></circle><circle cx="51.332573206918894" cy="8.021145219906224" r="0.42485806050200625"></circle><circle cx="48.6674267930813" cy="8.021145219906224" r="0.11595946794568157"></circle><circle cx="46.00764618122425" cy="8.190179251930452" r="0.2573181570659179"></circle><circle cx="43.36394136911932" cy="8.527566675591437" r="0.15408986793994417"></circle><circle cx="40.74695762296568" cy="9.031948950812819" r="0.40957058031580207"></circle><circle cx="38.16723261266012" cy="9.701295108191061" r="0.47984162177693424"></circle><circle cx="35.63515398032216" cy="10.532909926991756" r="0.2835871366364985"></circle><circle cx="33.16091751292227" cy="11.523444787853059" r="0.3603268033248054"></circle><circle cx="30.754486087448885" cy="12.668911156493152" r="0.4468392570372265"></circle><circle cx="28.425549553916866" cy="13.964696644131003" r="0.1991858392041651"></circle><circle cx="26.18348571776388" cy="15.40558357994685" r="0.3540934829143265"></circle><circle cx="24.037322578734887" cy="16.98577002080269" r="0.2551070127512197"></circle><circle cx="21.995701978315882" cy="18.698893113618187" r="0.00022070374465510412"></circle><circle cx="20.066844802087733" cy="20.538054716334535" r="0.07879259055657906"></circle><circle cx="18.258517877121182" cy="22.495849174297994" r="0.2695382633372849"></circle><circle cx="16.578002697704946" cy="24.564393140218133" r="0.3717118152466913"></circle><circle cx="15.032066105339723" cy="26.73535731762319" r="0.10098773370594716"></circle><circle cx="13.626933041053725" cy="28.999999999999744" r="0.22751313444231058"></circle><circle cx="12.36826147976393" cy="31.349202270557413" r="0.3345511230363647"></circle><circle cx="11.26111964760765" cy="33.77350472088844" r="0.2496126748651245"></circle><circle cx="10.309965613983913" cy="36.26314554066833" r="0.33928436878833057"></circle><circle cx="9.518629340482441" cy="38.80809982501849" r="0.18498491826970598"></circle><circle cx="8.89029725897926" cy="41.39811994126216" r="0.4934920923901507"></circle><circle cx="8.427499441000855" cy="44.02277679252182" r="0.23390681518153233"></circle><circle cx="8.13209941001844" cy="46.67150181201459" r="0.17353535479814586"></circle><circle cx="8.005286637697253" cy="49.33362951893799" r="0.39062798238557084"></circle><circle cx="8.047571754313658" cy="51.99844046459701" r="0.08203934039770133"></circle><circle cx="8.258784492627335" cy="54.65520439584251" r="0.025107008852885415"></circle><circle cx="8.638074373487257" cy="57.29322346201104" r="0.20795176128620674"></circle><circle cx="9.183914130411154" cy="59.90187529139554" r="0.13536655796558206"></circle><circle cx="9.894105859348834" cy="62.47065576378735" r="0.14416810490919063"></circle><circle cx="10.765789868865518" cy="64.98922130685862" r="0.4443506518561886"></circle><circle cx="11.795456195110198" cy="67.44743054607916" r="0.10505769367759166"></circle><circle cx="12.978958735201623" cy="69.8353851404528" r="0.12994253295724867"></circle><circle cx="14.311531942120425" cy="72.14346963964115" r="0.1554323597117132"></circle><circle cx="15.78781001388571" cy="74.36239020199005" r="0.016546845804642607"></circle><circle cx="17.401848499746144" cy="76.48321201754986" r="0.24819986598332977"></circle><circle cx="19.14714823638347" cy="78.4973952853994" r="0.389618734168257"></circle><circle cx="21.01668151775131" cy="80.39682960041296" r="0.010461075932774122"></circle><circle cx="23.002920393165297" cy="82.17386661099704" r="0.1729787567105069"></circle><circle cx="25.09786697970522" cy="83.82135081630454" r="0.1281353192117195"></circle><circle cx="27.2930856668647" cy="85.33264837890948" r="0.11610413627602112"></circle><circle cx="29.579737083780035" cy="86.70167383693081" r="0.16479001991832376"></circle><circle cx="31.948613692254696" cy="87.92291460803804" r="0.007322716100798599"></circle><circle cx="34.39017686226607" cy="88.99145318667499" r="0.4758956873815343"></circle><circle cx="36.894595280663566" cy="89.90298694511972" r="0.4818967561595905"></circle><circle cx="39.45178453839461" cy="90.65384545864694" r="0.1816802826504187"></circle><circle cx="42.051447736862336" cy="91.2410052850336" r="0.3852443333765265"></circle><circle cx="44.6831169499023" cy="91.66210213889337" r="0.02678004919643795"></circle><circle cx="47.33619537442397" cy="91.91544041181912" r="0.16028345117327603"></circle><circle cx="49.9999999999999" cy="92" r="0.1720028001216074"></circle><circle cx="52.66380462557582" cy="91.91544041181913" r="0.09411371543053126"></circle><circle cx="55.316883050097495" cy="91.6621021388934" r="0.03982971771312027"></circle><circle cx="57.948552263137465" cy="91.24100528503364" r="0.09031038399551972"></circle><circle cx="60.54821546160519" cy="90.653845458647" r="0.38620457670704034"></circle><circle cx="63.10540471933624" cy="89.90298694511978" r="0.28832387798215364"></circle><circle cx="65.60982313773374" cy="88.99145318667505" r="0.024213179432331033"></circle><circle cx="68.05138630774512" cy="87.92291460803813" r="0.05825696349418352"></circle><circle cx="70.42026291621978" cy="86.70167383693091" r="0.33923230579047425"></circle><circle cx="72.70691433313513" cy="85.3326483789096" r="0.46781437749528443"></circle><circle cx="74.90213302029461" cy="83.82135081630466" r="0.1715863946148105"></circle><circle cx="76.99707960683455" cy="82.17386661099717" r="0.10802601518651855"></circle><circle cx="78.98331848224854" cy="80.3968296004131" r="0.09379269516474686"></circle><circle cx="80.85285176361639" cy="78.49739528539956" r="0.22823878548566812"></circle><circle cx="82.59815150025372" cy="76.48321201755002" r="0.1858722335708728"></circle><circle cx="84.21218998611417" cy="74.36239020199022" r="0.009093323777352724"></circle><circle cx="85.68846805787946" cy="72.14346963964132" r="0.09954455759088454"></circle><circle cx="87.02104126479828" cy="69.83538514045298" r="0.19328041662526585"></circle><circle cx="88.20454380488971" cy="67.44743054607935" r="0.2458364637974081"></circle><circle cx="89.2342101311344" cy="64.98922130685882" r="0.33867844671931835"></circle><circle cx="90.1058941406511" cy="62.47065576378755" r="0.32291493031444385"></circle><circle cx="90.8160858695888" cy="59.90187529139574" r="0.07461238891385558"></circle><circle cx="91.36192562651271" cy="57.29322346201124" r="0.3330488293993391"></circle><circle cx="91.74121550737269" cy="54.65520439584242" r="0.4043521624402191"></circle><circle cx="91.95242824568632" cy="51.998440464597515" r="0.3982769969913903"></circle><circle cx="91.99471336230275" cy="49.333629518938196" r="0.11234615832078143"></circle><circle cx="91.86790058998157" cy="46.671501812014796" r="0.2494129219058232"></circle><circle cx="91.57250055899914" cy="44.022776792521725" r="0.1365289087305802"></circle><circle cx="91.10970274102073" cy="41.398119941262074" r="0.145255892183361"></circle><circle cx="90.4813706595177" cy="38.80809982501898" r="0.041053379033083925"></circle><circle cx="89.69003438601615" cy="36.26314554066853" r="0.40477686919837497"></circle><circle cx="88.73888035239243" cy="33.77350472088863" r="0.385644793148438"></circle><circle cx="87.63173852023603" cy="31.349202270557328" r="0.0703757572005318"></circle><circle cx="86.37306695894652" cy="29.000000000000178" r="0.25337777056924526"></circle><circle cx="84.96793389466039" cy="26.73535731762336" r="0.4375064667844686"></circle><circle cx="83.42199730229518" cy="24.564393140218296" r="0.05098737815545673"></circle><circle cx="81.74148212287895" cy="22.49584917429815" r="0.27568395257550604"></circle><circle cx="79.93315519791221" cy="20.538054716334468" r="0.15896756198307105"></circle><circle cx="78.00429802168449" cy="18.698893113618524" r="0.27686928374822695"></circle><circle cx="75.96267742126551" cy="16.985770020803002" r="0.4248973949324317"></circle><circle cx="73.81651428223628" cy="15.405583579946963" r="0.4008950906900709"></circle><circle cx="71.57445044608332" cy="13.96469664413111" r="0.28046319870248304"></circle><circle cx="69.2455139125513" cy="12.668911156493245" r="0.2797087633480757"></circle><circle cx="66.83908248707765" cy="11.523444787853023" r="0.22799387333603516"></circle><circle cx="92.22970335060009" cy="39.56438047261617" r="0.4763017204670291"></circle><circle cx="91.4951972654429" cy="36.94631837748522" r="0.051877582798147914"></circle><circle cx="90.59855348960137" cy="34.379262035615085" r="0.05250555557602732"></circle><circle cx="89.54327555506826" cy="31.87324192316947" r="0.18008499406845602"></circle><circle cx="88.33348683849029" cy="29.4380500242975" r="0.33215345642951755"></circle><circle cx="86.97391444954823" cy="27.083201570082075" r="0.31288258979933037"></circle><circle cx="85.46987076032401" cy="24.8178978588778" r="0.2756193067497692"></circle><circle cx="83.8272326478183" cy="22.650990303296627" r="0.44037630733475375"></circle><circle cx="82.0524185307336" cy="20.59094584433758" r="0.394742818481016"></circle><circle cx="80.15236329024371" cy="18.6458138677917" r="0.433100759017521"></circle><circle cx="78.1344911727483" cy="16.823194752198518" r="0.19065326128638238"></circle><circle cx="76.00668678048453" cy="15.130210171241757" r="0.14181207478928815"></circle><circle cx="73.77726426335802" cy="13.5734752666352" r="0.2685999797401556"></circle><circle cx="71.4549348323592" cy="12.159072800217757" r="0.102553556610394"></circle><circle cx="69.04877272151373" cy="10.892529386265409" r="0.23209469237189606"></circle><circle cx="66.56817973136286" cy="9.778793896884984" r="0.3266390778502394"></circle><circle cx="64.02284849250991" cy="8.82221812486602" r="0.3782657059475909"></circle><circle cx="61.42272459279066" cy="8.026539779555279" r="0.26589540153031765"></circle><circle cx="58.77796771603067" cy="7.3948678821867375" r="0.3235857563345991"></circle><circle cx="56.098911944262404" cy="6.929670617742737" r="0.2730204729465665"></circle><circle cx="53.39602537848609" cy="6.632765690804327" r="0.18969509292262665"></circle><circle cx="50.679869235779556" cy="6.5053132230816" r="0.4847478922364594"></circle><circle cx="47.961056582557426" cy="6.547811220371557" r="0.42616413662520547"></circle><circle cx="45.2502108652448" cy="6.760093626658239" r="0.23416368324978998"></circle><circle cx="42.55792440038304" cy="7.141330972957341" r="0.36408048129492854"></circle><circle cx="39.89471698637811" cy="7.690033618370663" r="0.28832862246208524"></circle><circle cx="37.27099479860516" cy="8.404057570685296" r="0.13279118592030037"></circle><circle cx="34.69700972847652" cy="9.280612863776327" r="0.20783417480324284"></circle><circle cx="32.18281932536247" cy="10.316274459076766" r="0.21935519236666812"></circle><circle cx="29.738247497877577" cy="11.50699562852055" r="0.26270076739148074"></circle><circle cx="27.37284612809464" cy="12.848123766663974" r="0.2969536487823624"></circle><circle cx="25.095857748664855" cy="14.33441857020604" r="0.2621506726249022"></circle><circle cx="22.916179428693304" cy="15.960072513865953" r="0.38212746689617105"></circle><circle cx="20.84232800946485" cy="17.71873354262008" r="0.4774899954407208"></circle><circle cx="18.88240682587448" cy="19.603529891620358" r="0.30906490659868857"></circle><circle cx="17.04407404357837" cy="21.607096936824952" r="0.23863029170925476"></circle><circle cx="15.334512735599617" cy="23.721605971412657" r="0.09688148854101075"></circle><circle cx="13.76040281529707" cy="25.938794795553743" r="0.48524083152188846"></circle><circle cx="12.327894935377081" cy="28.249999999999726" r="0.26000894675162245"></circle><circle cx="11.042586454927743" cy="30.64619081735535" r="0.030104546671161247"></circle><circle cx="9.909499568385883" cy="33.118004408757" r="0.12576169854346264"></circle><circle cx="8.9330616818906" cy="35.6557824480874" r="0.12676381725658703"></circle><circle cx="8.117088113706146" cy="38.24960886076785" r="0.04005774349527691"></circle><circle cx="7.464767186306929" cy="40.88934856967252" r="0.26067172308030295"></circle><circle cx="6.978647768374401" cy="43.564687096775835" r="0.4598464671555996"></circle><circle cx="6.660629315388341" cy="46.265170865779346" r="0.32030604876641955"></circle><circle cx="6.511954447722999" cy="48.980248048258524" r="0.3523132809614028"></circle><circle cx="6.53320409525211" cy="51.69930979370815" r="0.3529074593553092"></circle><circle cx="6.724295227432286" cy="54.41173168240772" r="0.3945685800604334"></circle><circle cx="7.084481177735171" cy="57.106915239105746" r="0.44720415357932364"></circle><circle cx="7.612354561161048" cy="59.77432934534515" r="0.10821045111369398"></circle><circle cx="8.305852773432477" cy="62.40355138858672" r="0.4125625184755035"></circle><circle cx="9.16226605038306" cy="64.98430798736813" r="0.2201143907986981"></circle><circle cx="10.17824805604777" cy="67.50651513335355" r="0.05211511223860599"></circle><circle cx="11.349828958083329" cy="69.96031759342986" r="0.028716304637781298"></circle><circle cx="12.672430939431322" cy="72.3361274178958" r="0.29675837578329944"></circle><circle cx="14.140886085607484" cy="74.62466140426343" r="0.09118736791475701"></circle><circle cx="15.749456577732694" cy="76.8169773703037" r="0.21363351736696812"></circle><circle cx="17.491857112396325" cy="78.90450909458838" r="0.11836219035070994"></circle><circle cx="19.36127946075416" cy="80.87909978801187" r="0.4696173919040749"></circle><circle cx="21.350419070894493" cy="82.73303396550088" r="0.024724478039486186"></circle><circle cx="23.451503609534107" cy="84.45906759338418" r="0.2031941905581136"></circle><circle cx="25.656323331509277" cy="86.0504563946142" r="0.2343980142707801"></circle><circle cx="27.956263158410614" cy="87.5009822012538" r="0.29091712222108124"></circle><circle cx="30.3423363410029" cy="88.80497725124633" r="0.061700998467535295"></circle><circle cx="32.80521957391337" cy="89.95734633454364" r="0.16751420195501687"></circle><circle cx="35.33528942536917" cy="90.9535867020498" r="0.137566808337798"></circle><circle cx="37.922659939643694" cy="91.78980565959253" r="0.14192227419646708"></circle><circle cx="40.55722126529021" cy="92.46273577817746" r="0.15470151031985757"></circle><circle cx="43.22867915821646" cy="92.96974766108858" r="0.22741990486450414"></circle><circle cx="45.92659520525565" cy="93.30886021795256" r="0.017852192513741927"></circle><circle cx="48.64042761105783" cy="93.47874840562025" r="0.3173113393233692"></circle><circle cx="51.359572388941935" cy="93.47874840562027" r="0.47205405322427163"></circle><circle cx="54.073404794744114" cy="93.30886021795259" r="0.10800375578598786"></circle><circle cx="56.77132084178331" cy="92.96974766108863" r="0.3140095885552826"></circle><circle cx="59.44277873470956" cy="92.46273577817752" r="0.1579075504863945"></circle><circle cx="62.07734006035608" cy="91.78980565959262" r="0.31995529126256783"></circle><circle cx="64.6647105746306" cy="90.95358670204989" r="0.05450354750710462"></circle><circle cx="67.19478042608641" cy="89.95734633454373" r="0.16302018732714296"></circle><circle cx="69.6576636589969" cy="88.80497725124643" r="0.34749206861438986"></circle><circle cx="72.04373684158918" cy="87.50098220125392" r="0.4101598529803312"></circle><circle cx="74.34367666849053" cy="86.05045639461434" r="0.3788770386290331"></circle><circle cx="76.54849639046571" cy="84.45906759338432" r="0.3531710375654724"></circle><circle cx="78.64958092910533" cy="82.73303396550102" r="0.4505291406298705"></circle><circle cx="80.63872053924567" cy="80.87909978801204" r="0.09973973004134429"></circle><circle cx="82.50814288760353" cy="78.90450909458856" r="0.05398042854879537"></circle><circle cx="84.25054342226716" cy="76.8169773703039" r="0.07400094053138939"></circle><circle cx="85.85911391439238" cy="74.62466140426362" r="0.14076162704013506"></circle><circle cx="87.32756906056855" cy="72.336127417896" r="0.4473251255514126"></circle><circle cx="88.65017104191656" cy="69.96031759343008" r="0.2900602846745276"></circle><circle cx="89.82175194395214" cy="67.50651513335376" r="0.09358295802864891"></circle><circle cx="90.83773394961685" cy="64.98430798736835" r="0.38403806542651275"></circle><circle cx="91.69414722656745" cy="62.40355138858695" r="0.39853198497997633"></circle><circle cx="92.3876454388389" cy="59.77432934534538" r="0.1573266205243793"></circle><circle cx="66.25587497842187" cy="91.96125032319603" r="0.21315871678314746"></circle><circle cx="68.80821551990502" cy="90.88093723187868" r="0.45015775543916303"></circle><circle cx="71.28921005762001" cy="89.64554874286054" r="0.18297087415983193"></circle><circle cx="73.68944732948091" cy="88.2597711078327" r="0.04083874708582136"></circle><circle cx="75.999822413371" cy="86.72886105603018" r="0.02281925407675467"></circle><circle cx="78.21157126523482" cy="85.05862585365514" r="0.3885015356062159"></circle><circle cx="80.31630396409491" cy="83.2554012749298" r="0.3325487770784673"></circle></g></g>
  <desc>Created with Snap</desc></svg>
