<svg width="100%" height="100%" viewBox="0 0 100 100" version="1.1" xmlns="http://www.w3.org/2000/svg" id="decent-logo-svg">
       <defs>
         <style type="text/css">
           @import url("https://fonts.googleapis.com/css?family=Dosis:400,700")
         </style>
         <style type="text/css">
           #text text {
             font-family: 'Dosis'
           }
         </style>
       </defs>
       <g id="svg-content"><circle cx="50" cy="50" r="25" id="shape"></circle><g textAlign="center" fill="undefined" style="text-anchor: middle; stroke-width: 0;" stroke="rgba(0,0,0,0)" id="halftones"><polygon points="75,50,75,50,75,50"></polygon><polygon points="74.9229333433282,52.265196010578414,75.18596138158355,51.80961808450498,74.65990530507284,51.80961808450498"></polygon><polygon points="74.69220851487844,54.45814366373339,75.16616866258548,53.637220607141955,74.21824836717141,53.637220607141955"></polygon><polygon points="74.30924800994191,56.518583634924916,74.9002666471075,55.494909327133996,73.71822937277632,55.494909327133996"></polygon><polygon points="73.77641290737884,58.40787439790096,74.36743154454443,57.38420009011004,73.18539427021325,57.38420009011004"></polygon><polygon points="73.09698831278217,60.11436784685486,73.5709484604892,59.29344479026343,72.62302816507514,59.29344479026343"></polygon><polygon points="72.2751631047092,61.653481110870956,72.53819114296455,61.197903184797525,72.01213506645384,61.197903184797525"></polygon><polygon points="71.31600410885231,63.720248952448856,71.88566248579687,62.73357170062365,70.74634573190775,62.73357170062365"></polygon><polygon points="70.22542485937369,65.38399673442036,70.8224328317404,64.34994859375755,69.62841688700698,64.34994859375755"></polygon><polygon points="69.01014914000078,66.93620120825459,69.61636692264989,65.88620120825459,68.40393135735167,65.88620120825459"></polygon><polygon points="67.67766952966369,68.36703495677223,68.2746775020304,67.33298681610941,67.08066155729698,67.33298681610941"></polygon><polygon points="66.23620120825458,69.66793397455092,66.80585958519914,68.6812567227257,65.66654283131003,68.6812567227257"></polygon><polygon points="64.69463130731182,70.8316426420228,65.21963130731183,69.92231596804913,64.16963130731182,69.92231596804913"></polygon><polygon points="63.06246411789872,71.85223521903558,63.52685388161698,71.04788855376066,62.59807435418046,71.04788855376066"></polygon><polygon points="61.34976249348867,72.72511443148977,61.739431772947164,72.05018744131891,60.960093214030174,72.05018744131891"></polygon><polygon points="59.56708580912725,73.44698831278217,59.870194700451805,72.92198831278218,59.263976917802694,72.92198831278218"></polygon><polygon points="57.72542485937369,74.0158270077068,57.932763552281905,73.65670585721486,57.51808616646547,73.65670585721486"></polygon><polygon points="55.836134096397636,74.43080173430876,55.941402709623944,74.24847114775848,55.73086548317133,74.24847114775848"></polygon><polygon points="53.910861626005776,74.74220851487844,53.954162896195,74.66720851487844,53.86756035581655,74.66720851487844"></polygon><polygon points="51.96147739319613,75.04448706769504,52.066746006422434,74.86215648114477,51.85620877996982,74.86215648114477"></polygon><polygon points="50,75.23941410032796,50.207338692908216,74.88029294983602,49.792661307091784,74.88029294983602"></polygon><polygon points="48.03852260680388,75.27293334332819,48.341631498128436,74.7479333433282,47.735413715479325,74.7479333433282"></polygon><polygon points="46.089138373994224,75.14215984165902,46.47880765345272,74.46723285148816,45.69946909453573,74.46723285148816"></polygon><polygon points="44.16386590360237,74.84547912012519,44.62825566732063,74.04113245485027,43.69947613988411,74.04113245485027"></polygon><polygon points="42.27457514062632,74.38263069002795,42.79957514062632,73.47330401605429,41.74957514062632,73.47330401605429"></polygon><polygon points="40.43291419087276,73.39091068387435,40.68745843097915,72.95002712723608,40.17836995076637,72.95002712723608"></polygon><polygon points="38.65023750651133,72.49867417580438,38.84380377210683,72.1634075691616,38.45667124091583,72.1634075691616"></polygon><polygon points="36.93753588210128,71.46648341700003,37.06785478570111,71.24076445477846,36.80721697850145,71.24076445477846"></polygon><polygon points="35.30536869268818,70.30110817227045,35.370912364299336,70.18758320292531,35.23982502107702,70.18758320292531"></polygon><polygon points="33.763798791745415,69.01014914000078,33.763798791745415,69.01014914000078,33.763798791745415,69.01014914000078"></polygon><polygon points="32.32233047033631,67.75335284256045,32.38787414194747,67.63982787321531,32.25678679872515,67.63982787321531"></polygon><polygon points="30.98985085999923,66.38668051640232,31.12016976359906,66.16096155418074,30.8595319563994,66.16096155418074"></polygon><polygon points="29.774575140626318,64.91814237840701,29.968141406221818,64.58287577176424,29.581008875030818,64.58287577176424"></polygon><polygon points="28.683995891147696,63.35638648899091,28.938540131254086,62.91550293235263,28.429451651041305,62.91550293235263"></polygon><polygon points="27.724836895290807,61.710650193512585,28.037374811424854,61.169318643476714,27.41229897915676,61.169318643476714"></polygon><polygon points="26.90301168721783,59.990707759762884,27.26987905806901,59.35527483380943,26.536144316366652,59.35527483380943"></polygon><polygon points="26.223587092621162,58.20681448057108,26.640482733696274,57.48473004877499,25.80669145154605,57.48473004877499"></polygon><polygon points="25.690751990058086,56.36964753498698,26.15278818113685,55.56937737710297,25.228715798979323,55.56937737710296"></polygon><polygon points="25.30779148512156,54.4902439247156,25.80955127430729,53.62117047665087,24.80603169593583,53.62117047665086"></polygon><polygon points="25.0770666566718,52.57993582430834,25.61266736919965,51.65224817764002,24.54146594414395,51.65224817764002"></polygon><polygon points="25,50.65028370387176,25.563162207219975,49.674858148064125,24.436837792780025,49.674858148064125"></polygon><polygon points="25.077066656671796,48.71300760156734,25.661187796608363,47.70128010942216,24.49294551673523,47.70128010942216"></polygon><polygon points="25.307791485121555,46.7799169397733,25.90602327147601,45.743749091104696,24.7095596987671,45.743749091104696"></polygon><polygon points="25.690751990058082,44.86283929329816,26.296080702103954,43.81437920875448,25.08542327801221,43.814379208754474"></polygon><polygon points="26.223587092621162,42.97354853032209,26.828915804667034,41.925088445778414,25.61825838057529,41.925088445778414"></polygon><polygon points="26.90301168721783,41.12369275665183,27.501243473572284,40.08752490798322,26.304779900863377,40.08752490798322"></polygon><polygon points="27.724836895290796,39.3247225012748,28.308958035227363,38.312995009129615,27.14071575535423,38.312995009129615"></polygon><polygon points="28.683995891147692,37.587819585973044,29.247158098367667,36.61239403016541,28.120833683927717,36.61239403016541"></polygon><polygon points="29.774575140626315,35.92382712380039,30.310175853154163,34.99613947713207,29.238974428098466,34.99613947713207"></polygon><polygon points="30.989850859999233,34.343181090455225,31.491610649184963,33.47410764239049,30.488091070813503,33.47410764239049"></polygon><polygon points="32.32233047033631,32.85584390892566,32.78436666141507,32.05557375104164,31.86029427925755,32.055573751041635"></polygon><polygon points="33.7637987917454,31.471240481196634,34.180694432820516,30.74915604940054,33.346903150670286,30.74915604940054"></polygon><polygon points="35.30536869268817,30.198197091261953,35.672236063539344,29.5627641653085,34.938501321836995,29.5627641653085"></polygon><polygon points="36.937535882101265,29.04488359117162,37.25007379823531,28.503552041135745,36.62499796596722,28.503552041135745"></polygon><polygon points="38.65023750651133,27.92204968507981,38.82102879241981,27.626230500396307,38.47944622060285,27.626230500396307"></polygon><polygon points="40.432914190872744,26.95301168721784,40.47621546106197,26.87801168721784,40.38961292068352,26.87801168721784"></polygon><polygon points="42.27457514062631,26.42079988241016,42.44536642653478,26.124980697726663,42.10378385471784,26.124980697726663"></polygon><polygon points="44.16386590360237,26.069200562277,44.4916119811699,25.501527703948625,43.83611982603484,25.50152770394862"></polygon><polygon points="46.089138373994224,25.83681618716954,46.54728720519727,25.043279134097567,45.63098954279118,25.043279134097567"></polygon><polygon points="48.03852260680388,25.71380905341996,48.58995769805438,24.75869545829772,47.487087515553384,24.75869545829772"></polygon><polygon points="49.99999999999999,25.69287500931665,50.600047359715596,24.653562495341674,49.39995264028439,24.653562495341674"></polygon><polygon points="51.961477393196105,25.769941665988448,52.56152475291171,24.73062915201347,51.3614300334805,24.73062915201347"></polygon><polygon points="53.91086162600577,25.944533881869717,54.462296717256265,24.989420286747475,53.35942653475527,24.989420286747475"></polygon><polygon points="55.83613409639762,26.219776692106063,56.29428292760067,25.42623963903409,55.377985265194575,25.42623963903409"></polygon><polygon points="57.72542485937368,26.602035664840077,58.053170936941214,26.0343628065117,57.39767878180615,26.034362806511698"></polygon><polygon points="59.56708580912725,27.039574912629124,59.68535303155617,26.83473007451219,59.44881858669833,26.83473007451219"></polygon><polygon points="61.34976249348867,27.99271529794636,61.58175199531358,27.59089769396302,61.117772991663756,27.59089769396302"></polygon><polygon points="63.06246411789873,29.07289505426142,63.39926067266572,28.48954630959084,62.725667563131736,28.48954630959084"></polygon><polygon points="64.69463130731182,30.269549887456893,65.12329201229888,29.527087767211018,64.26597060232477,29.527087767211018"></polygon><polygon points="66.2362012082546,31.57187958861101,66.74025287296476,30.69883649569334,65.73214954354444,30.69883649569334"></polygon><polygon points="67.67766952966369,32.96904614309421,68.23774173129758,31.99897263395736,67.1175973280298,31.99897263395736"></polygon><polygon points="69.01014914000076,34.450348488027664,69.60471861794169,33.42052394360427,68.41557966205984,33.42052394360427"></polygon><polygon points="70.22542485937367,36.005368692688165,70.83164264202279,34.95536869268816,69.61920707672456,34.95536869268816"></polygon><polygon points="71.3160041088523,37.62408557838353,71.91057358679322,36.59426103396014,70.72143463091138,36.59426103396014"></polygon><polygon points="72.2751631047092,39.296953179269224,72.83523530634308,38.32687967013237,71.7150909030753,38.32687967013237"></polygon><polygon points="73.09698831278216,41.01494291948452,73.60103997749232,40.14189982656685,72.592936648072,40.14189982656684"></polygon><polygon points="73.77641290737884,42.7695498874569,74.2050736123659,42.02708776721102,73.34775220239179,42.02708776721102"></polygon><polygon points="74.30924800994191,44.55276506671609,74.6460445647089,43.96941632204551,73.97245145517492,43.96941632204551"></polygon><polygon points="74.69220851487844,46.357016776649786,74.92419801670336,45.95519917266644,74.46021901305353,45.95519917266644"></polygon><polygon points="74.9229333433282,48.17508583221517,75.04120056575711,47.97024099409823,74.80466612089928,47.97024099409823"></polygon><polygon points="77,49.99999999999999,77,49.99999999999999,77,49.99999999999999"></polygon><polygon points="76.91676801079446,52.42211420203408,77.17979604904981,51.96653627596065,76.6537399725391,51.96653627596065"></polygon><polygon points="76.66758519606873,54.77101259381382,77.14154534377576,53.95008953722239,76.1936250483617,53.95008953722239"></polygon><polygon points="76.25398785073727,56.98547436263673,76.84500648790286,55.96180005484581,75.66296921357169,55.96180005484581"></polygon><polygon points="75.67852593996915,59.025908386650855,76.26954457713474,58.002234078859935,75.08750730280356,58.002234078859935"></polygon><polygon points="74.94474737780475,60.87973471158505,75.41870752551178,60.05881165499362,74.47078723009771,60.05881165499362"></polygon><polygon points="74.05717615308593,62.56146211035004,74.32020419134129,62.10588418427661,73.79414811483058,62.10588418427661"></polygon><polygon points="73.0212844375605,64.76524608188075,73.59094281450506,63.778568830055534,72.45162606061594,63.778568830055534"></polygon><polygon points="71.84345884812357,66.55956723900533,72.44046682049029,65.52551909834251,71.24645087575686,65.52551909834251"></polygon><polygon points="70.53096107120084,68.23509730491496,71.13717885384995,67.18509730491496,69.92474328855172,67.18509730491496"></polygon><polygon points="69.0918830920368,69.78124851914532,69.6888910644035,68.7472003784825,68.49487511967008,68.7472003784825"></polygon><polygon points="67.53509730491497,71.18874590575096,68.10475568185953,70.20206865392575,66.96543892797041,70.20206865392575"></polygon><polygon points="65.8702018118968,72.44967663077267,66.39520181189681,71.540349956799,65.3452018118968,71.540349956799"></polygon><polygon points="64.10746124733062,73.55751554774378,64.57185101104888,72.75316888246886,63.64307148361236,72.75316888246886"></polygon><polygon points="62.25774349296777,74.50712747986651,62.647412772426264,73.83220048969565,61.868074213509274,73.83220048969565"></polygon><polygon points="60.332452673857446,75.29474737780473,60.635561565182,74.76974737780473,60.02934378253289,74.76974737780473"></polygon><polygon points="58.34345884812359,75.91794004029711,58.550797541031805,75.55881888980517,58.13612015521537,75.55881888980517"></polygon><polygon points="56.303024824109464,76.37554157510411,56.40829343733577,76.19321098855383,56.197756210883156,76.19321098855383"></polygon><polygon points="54.22373055608622,76.71758519606873,54.26703182627544,76.64258519606872,54.18042928589699,76.64258519606872"></polygon><polygon points="52.11839558465181,77.0383217351613,52.223664197878115,76.85599114861103,52.0131269714255,76.85599114861103"></polygon><polygon points="50.00000000000001,77.23941410032796,50.20733869290822,76.88029294983602,49.79266130709179,76.88029294983602"></polygon><polygon points="47.88160441534821,77.26676801079445,48.18471330667276,76.74176801079446,47.57849552402365,76.74176801079446"></polygon><polygon points="45.7762694439138,77.1175365228493,46.16593872337229,76.44260953267845,45.3866001644553,76.44260953267845"></polygon><polygon points="43.69697517589053,76.79021896092054,44.16136493960879,75.98587229564562,43.23258541217227,75.98587229564562"></polygon><polygon points="41.656541151876425,76.28474372261826,42.181541151876424,75.3754170486446,41.13154115187643,75.3754170486446"></polygon><polygon points="39.667547326142575,75.23866974889692,39.922091566248966,74.79778619225866,39.413003086036184,74.79778619225866"></polygon><polygon points="37.742256507032266,74.28068722418114,37.935822772627766,73.94542061753836,37.548690241436766,73.94542061753836"></polygon><polygon points="35.892538752669395,73.17176374570822,36.022857656269224,72.94604478348664,35.76221984906957,72.94604478348664"></polygon><polygon points="34.12979818810323,71.91914216102035,34.19534185971439,71.80561719167521,34.06425451649207,71.80561719167521"></polygon><polygon points="32.46490269508504,70.53096107120084,32.46490269508504,70.53096107120084,32.46490269508504,70.53096107120084"></polygon><polygon points="30.90811690796324,69.16756640493357,30.9736605795744,69.05404143558843,30.84257323635208,69.05404143558843"></polygon><polygon points="29.46903892879918,67.6855766130627,29.599357832399008,67.45985765084112,29.33872002519935,67.45985765084112"></polygon><polygon points="28.156541151876425,66.09371288299197,28.350107417471925,65.75844627634919,27.962974886280925,65.75844627634919"></polygon><polygon points="26.978715562439508,64.4013836184228,27.2332598025459,63.96050006178453,26.724171322333117,63.96050006178453"></polygon><polygon points="25.94282384691406,62.618631192991664,26.255361763048107,62.07729964295579,25.630285930780012,62.07729964295579"></polygon><polygon points="25.055252622195265,60.75607462449308,25.422119993046444,60.12064169853963,24.688385251344087,60.12064169853963"></polygon><polygon points="24.32147406003086,58.82484846932098,24.738369701105974,58.10276403752489,23.904578418955747,58.10276403752489"></polygon><polygon points="23.746012149262743,56.83653826269884,24.208048340341506,56.03626810481482,23.28397595818398,56.036268104814816"></polygon><polygon points="23.33241480393128,54.80311285479604,23.83417459311701,53.93403940673131,22.83065501474555,53.9340394067313"></polygon><polygon points="23.083231989205544,52.73685401576405,23.618832701733393,51.80916636909573,22.547631276677695,51.80916636909573"></polygon><polygon points="23,50.650283703871764,23.563162207219975,49.67485814806413,22.436837792780025,49.67485814806413"></polygon><polygon points="23.083231989205544,48.55608941011164,23.66735312914211,47.544361917966455,22.499110849268977,47.544361917966455"></polygon><polygon points="23.33241480393128,46.46704800969287,23.930646590285733,45.43088016102426,22.734183017576825,45.43088016102426"></polygon><polygon points="23.74601214926274,44.395948565586316,24.35134086130861,43.34748848104264,23.140683437216868,43.34748848104263"></polygon><polygon points="24.32147406003085,42.35551454157221,24.926802772076723,41.307054457028535,23.71614534798498,41.30705445702853"></polygon><polygon points="25.05525262219526,40.358325891921645,25.653484408549712,39.32215804325304,24.457020835840805,39.32215804325304"></polygon><polygon points="25.942823846914052,38.41674150179572,26.52694498685062,37.405014009650536,25.358702706977486,37.405014009650536"></polygon><polygon points="26.9787155624395,36.54282245654116,27.541877769659475,35.56739690073353,26.415553355219526,35.56739690073353"></polygon><polygon points="28.156541151876414,34.748256619215454,28.692141864404263,33.82056897254713,27.620940439348566,33.82056897254713"></polygon><polygon points="29.469038928799165,33.04428499379487,29.970798717984895,32.175211545730136,28.967279139613435,32.175211545730136"></polygon><polygon points="30.908116907963226,31.44163034655255,31.37015309904199,30.641360188668532,30.446080716884463,30.641360188668532"></polygon><polygon points="32.46490269508502,29.950428549996577,32.88179833616014,29.228344118200482,32.04800705400991,29.228344118200482"></polygon><polygon points="34.129798188103216,28.58016310251206,34.49666555895439,27.944730176558608,33.76293081725204,27.944730176558608"></polygon><polygon points="35.89253875266938,27.339603262463424,36.20507666880343,26.79827171242755,35.58000083653533,26.79827171242755"></polygon><polygon points="37.74225650703225,26.140036636703062,37.91304779294073,25.84421745201956,37.57146522112377,25.84421745201956"></polygon><polygon points="39.667547326142554,25.105252622195266,39.71084859633178,25.030252622195267,39.62424605595333,25.030252622195267"></polygon><polygon points="41.65654115187641,24.518686849819858,41.82733243778488,24.22286766513636,41.48574986596794,24.22286766513636"></polygon><polygon points="43.69697517589051,24.12446072148166,44.02472125345804,23.556787863153286,43.369229098322975,23.556787863153282"></polygon><polygon points="45.776269443913776,23.86143950597926,46.23441827511682,23.067902452907287,45.31812061271073,23.067902452907287"></polygon><polygon points="47.881604415348164,23.71997438595371,48.43303950659866,22.764860790831467,47.33016932409767,22.764860790831467"></polygon><polygon points="49.999999999999986,23.69287500931665,50.60004735971559,22.653562495341674,49.39995264028438,22.653562495341674"></polygon><polygon points="52.118395584651815,23.776106998522195,52.71844294436742,22.736794484547218,51.51834822493621,22.736794484547218"></polygon><polygon points="54.223730556086196,23.96915720067944,54.77516564733669,23.014043605557198,53.6722954648357,23.014043605557198"></polygon><polygon points="56.30302482410947,24.275036851310716,56.76117365531252,23.481499798238744,55.844875992906424,23.481499798238744"></polygon><polygon points="58.34345884812357,24.699922632249766,58.6712049256911,24.13224977392139,58.015712770556036,24.132249773921387"></polygon><polygon points="60.332452673857425,25.19181584760655,60.450719896286344,24.986971009489615,60.214185451428506,24.986971009489615"></polygon><polygon points="62.257743492967734,26.210702249569614,62.48973299479265,25.80888464558627,62.02575399114282,25.80888464558627"></polygon><polygon points="64.1074612473306,27.367614725553217,64.4442578020976,26.784265980882637,63.770664692563614,26.784265980882637"></polygon><polygon points="65.87020181189676,28.651515898706997,66.29886251688382,27.90905377846112,65.44154110690971,27.90905377846112"></polygon><polygon points="67.53509730491496,30.051067657410947,68.03914896962512,29.178024564493274,67.0310456402048,29.178024564493274"></polygon><polygon points="69.09188309203675,31.55483258072109,69.65195529367064,30.58475907158424,68.53181089040287,30.58475907158424"></polygon><polygon points="70.53096107120082,33.151452391367286,71.12553054914174,32.121627846943895,69.9363915932599,32.121627846943895"></polygon><polygon points="71.84345884812357,34.82979818810322,72.44967663077269,33.779798188103214,71.23724106547446,33.779798188103214"></polygon><polygon points="73.0212844375605,36.579088448951644,73.61585391550142,35.54926390452825,72.42671495961957,35.54926390452825"></polygon><polygon points="74.05717615308593,38.388972179790144,74.61724835471982,37.41889867065329,73.49710395145205,37.41889867065329"></polygon><polygon points="74.94474737780473,40.249576054754336,75.44879904251489,39.376532961836666,74.44069571309457,39.37653296183666"></polygon><polygon points="75.67852593996915,42.151515898707,76.1071866449562,41.40905377846112,75.2498652349821,41.40905377846112"></polygon><polygon points="76.25398785073726,44.08587433900423,76.59078440550425,43.50252559433365,75.91719129597027,43.50252559433365"></polygon><polygon points="76.66758519606873,46.04414784656934,76.89957469789364,45.64233024258599,76.43559569424382,45.64233024258599"></polygon><polygon points="76.91676801079446,48.01816764075945,77.03503523322337,47.81332280264252,76.79850078836554,47.81332280264252"></polygon><polygon points="79,49.999999999999986,79,49.999999999999986,79,49.999999999999986"></polygon><polygon points="78.91060267826072,52.57903239348979,79.17363071651607,52.12345446741636,78.64757464000536,52.12345446741636"></polygon><polygon points="78.642961877259,55.08388152389428,79.11692202496603,54.262958467302845,78.16900172955197,54.262958467302845"></polygon><polygon points="78.19872769153261,57.45236509034856,78.7897463286982,56.42869078255764,77.60770905436702,56.42869078255764"></polygon><polygon points="77.58063897255947,59.64394237540069,78.17165760972506,58.62026806760977,76.98962033539388,58.62026806760977"></polygon><polygon points="76.79250644282732,61.64510157631522,77.26646659053435,60.82417851972379,76.31854629512029,60.82417851972379"></polygon><polygon points="75.83918920146266,63.46944310982916,76.10221723971802,63.013865183755726,75.5761611632073,63.013865183755726"></polygon><polygon points="74.7265647662687,65.81024321131264,75.29622314321325,64.82356595948742,74.15690638932413,64.82356595948742"></polygon><polygon points="73.46149283687349,67.73513774359024,74.0585008092402,66.70108960292742,72.86448486450678,66.70108960292742"></polygon><polygon points="72.05177300240094,69.53399340157529,72.65799078505005,68.48399340157529,71.44555521975182,68.48399340157529"></polygon><polygon points="70.50609665440987,71.19546208151843,71.10310462677658,70.16141394085561,69.90908868204316,70.16141394085561"></polygon><polygon points="68.8339934015753,72.70955783695106,69.40365177851986,71.72288058512585,68.26433502463074,71.72288058512585"></polygon><polygon points="67.04577231648173,74.06771061952259,67.57077231648174,73.15838394554892,66.52077231648173,73.15838394554892"></polygon><polygon points="65.15245837676252,75.26279587645195,65.61684814048078,74.45844921117703,64.68806861304427,74.45844921117703"></polygon><polygon points="63.1657244924469,76.28914052824322,63.55539377190539,75.61421353807236,62.7760552129884,75.61421353807236"></polygon><polygon points="61.09781953858763,77.1425064428273,61.400928429912184,76.6175064428273,60.794710647263074,76.6175064428273"></polygon><polygon points="58.96149283687344,77.82005307288743,59.168831529781656,77.46093192239549,58.75415414396522,77.46093192239549"></polygon><polygon points="56.76991555182131,78.32028141589946,56.87518416504762,78.13795082934918,56.664646938595006,78.13795082934918"></polygon><polygon points="54.536599486166686,78.692961877259,54.57990075635591,78.61796187725899,54.49329821597746,78.61796187725899"></polygon><polygon points="52.27531377610753,79.03215640262756,52.38058238933384,78.84982581607728,52.17004516288122,78.84982581607728"></polygon><polygon points="50.000000000000014,79.23941410032796,50.20733869290823,78.88029294983602,49.7926613070918,78.88029294983602"></polygon><polygon points="47.7246862238925,79.26060267826071,48.02779511521705,78.73560267826072,47.42157733256794,78.73560267826072"></polygon><polygon points="45.46340051383335,79.09291320403958,45.853069793291844,78.41798621386872,45.073731234374854,78.41798621386872"></polygon><polygon points="43.23008444817872,78.73495880171589,43.69447421189698,77.93061213644097,42.76569468446046,77.93061213644097"></polygon><polygon points="41.03850716312659,78.18685675520858,41.56350716312659,77.27753008123491,40.51350716312659,77.27753008123491"></polygon><polygon points="38.9021804614124,77.0864288139195,39.15672470151879,76.64554525728123,38.64763622130601,76.64554525728123"></polygon><polygon points="36.83427550755314,76.06270027255785,37.02784177314864,75.72743366591507,36.64070924195764,75.72743366591507"></polygon><polygon points="34.847541623237504,74.87704407441642,34.97786052683733,74.65132511219484,34.717222719637675,74.65132511219484"></polygon><polygon points="32.95422768351829,73.53717614977025,33.01977135512945,73.42365118042511,32.88868401190713,73.42365118042511"></polygon><polygon points="31.166006598424715,72.05177300240094,31.166006598424715,72.05177300240094,31.166006598424715,72.05177300240094"></polygon><polygon points="29.49390334559015,70.58177996730666,29.55944701720131,70.46825499796152,29.428359673978992,70.46825499796152"></polygon><polygon points="27.94822699759909,68.98447270972304,28.07854590119892,68.75875374750146,27.81790809399926,68.75875374750146"></polygon><polygon points="26.538507163126532,67.26928338757692,26.732073428722032,66.93401678093414,26.344940897531032,66.93401678093414"></polygon><polygon points="25.273435233731327,65.4463807478547,25.527979473837718,65.00549719121643,25.018890993624936,65.00549719121643"></polygon><polygon points="24.16081079853735,63.526612192470814,24.4733487146714,62.985280642434944,23.848272882403304,62.985280642434944"></polygon><polygon points="23.207493557172693,61.521441489223264,23.57436092802387,60.88600856326981,22.840626186321515,60.88600856326981"></polygon><polygon points="22.419361027440534,59.442882458070834,22.836256668515645,58.72079802627474,22.002465386365422,58.72079802627474"></polygon><polygon points="21.801272308467393,57.30342899041066,22.263308499546156,56.503158832526644,21.33923611738863,56.50315883252664"></polygon><polygon points="21.357038122741006,55.11598178487651,21.858797911926736,54.24690833681178,20.855278333555276,54.24690833681177"></polygon><polygon points="21.08939732173929,52.89377220721975,21.62499803426714,51.96608456055142,20.553796609211442,51.96608456055142"></polygon><polygon points="21,50.65028370387177,21.563162207219975,49.67485814806414,20.436837792780025,49.67485814806414"></polygon><polygon points="21.089397321739288,48.39917121865596,21.673518461675854,47.387443726510774,20.50527618180272,47.387443726510774"></polygon><polygon points="21.357038122741,46.15417907961242,21.955269909095453,45.118011230943814,20.758806336386545,45.118011230943814"></polygon><polygon points="21.801272308467382,43.92905783787451,22.406601020513254,42.88059775333083,21.19594359642151,42.880597753330825"></polygon><polygon points="22.419361027440527,41.73748055282238,23.024689739486398,40.689020468278706,21.814032315394655,40.6890204682787"></polygon><polygon points="23.20749355717266,39.59295902719152,23.805725343527115,38.556791178522914,22.609261770818208,38.556791178522914"></polygon><polygon points="24.16081079853736,37.50876050231654,24.744931938473925,36.49703301017136,23.57668965860079,36.49703301017136"></polygon><polygon points="25.27343523373131,35.49782532710927,25.836597440951284,34.522399771301636,24.710273026511334,34.522399771301636"></polygon><polygon points="26.538507163126514,33.572686114630514,27.074107875654363,32.64499846796219,26.002906450598665,32.64499846796219"></polygon><polygon points="27.9482269975991,31.7453888971345,28.44998678678483,30.876315449069764,27.44646720841337,30.876315449069764"></polygon><polygon points="29.493903345590127,30.02741678417946,29.95593953666889,29.227146626295443,29.031867154511364,29.227146626295443"></polygon></g></g>
  <desc>Created with Snap</desc></svg>
