<?xml version="1.0" encoding="utf-8"?>
<!-- Generator: Adobe Illustrator 22.1.0, SVG Export Plug-In . SVG Version: 6.00 Build 0)  -->
<svg version="1.1" id="Layer_1" xmlns="http://www.w3.org/2000/svg" xmlns:xlink="http://www.w3.org/1999/xlink" x="0px" y="0px"
	 viewBox="0 0 67 67" style="enable-background:new 0 0 67 67;" xml:space="preserve">
<style type="text/css">
	.st0{fill:#010101;}
	.st1{fill:#FFFFFF;}
</style>
<path class="st0" d="M34.7,60C19.9,60,8,48.1,8,33.3C8,18.6,19.9,6.7,34.7,6.7s26.7,11.9,26.7,26.7C61.3,48.1,49.4,60,34.7,60z"/>
<path class="st1" d="M28.8,50.3h6.7V34H40l0.6-5.6h-5.1l0-2.8c0-1.5,0.1-2.3,2.2-2.3h2.8v-5.6h-4.5c-5.4,0-7.3,2.7-7.3,7.3v3.4h-3.4
	V34h3.4V50.3z M33,64C16.4,64,3,50.6,3,34C3,17.4,16.4,4,33,4s30,13.4,30,30C63,50.6,49.6,64,33,64z"/>
</svg>
