<svg width="544" height="263" viewBox="0 0 544 263" fill="none" xmlns="http://www.w3.org/2000/svg">
<path d="M-89.2815 -523.881C-81.0549 -523.881 -74.386 -530.486 -74.386 -538.633C-74.386 -546.781 -81.0549 -553.386 -89.2815 -553.386C-97.5081 -553.386 -104.177 -546.781 -104.177 -538.633C-104.177 -530.486 -97.5081 -523.881 -89.2815 -523.881Z" fill="black"/>
<path d="M-234.414 -427.568C-227.426 -427.568 -221.762 -433.178 -221.762 -440.099C-221.762 -447.02 -227.426 -452.63 -234.414 -452.63C-241.402 -452.63 -247.067 -447.02 -247.067 -440.099C-247.067 -433.178 -241.402 -427.568 -234.414 -427.568Z" fill="black"/>
<path d="M363.44 -87.7424C370.34 -87.7424 375.934 -93.2827 375.934 -100.117C375.934 -106.951 370.34 -112.491 363.44 -112.491C356.539 -112.491 350.945 -106.951 350.945 -100.117C350.945 -93.2827 356.539 -87.7424 363.44 -87.7424Z" fill="black"/>
<path d="M-248.094 -563.12C-243.299 -563.12 -239.412 -566.97 -239.412 -571.719C-239.412 -576.467 -243.299 -580.317 -248.094 -580.317C-252.889 -580.317 -256.776 -576.467 -256.776 -571.719C-256.776 -566.97 -252.889 -563.12 -248.094 -563.12Z" fill="black"/>
<path d="M162.679 -502.9C169.324 -502.9 174.711 -508.235 174.711 -514.817C174.711 -521.398 169.324 -526.734 162.679 -526.734C156.033 -526.734 150.646 -521.398 150.646 -514.817C150.646 -508.235 156.033 -502.9 162.679 -502.9Z" fill="black"/>
<path d="M324.542 -397.102C332.845 -397.102 339.577 -403.769 339.577 -411.993C339.577 -420.217 332.845 -426.883 324.542 -426.883C316.238 -426.883 309.507 -420.217 309.507 -411.993C309.507 -403.769 316.238 -397.102 324.542 -397.102Z" fill="black"/>
<path d="M229.339 26.5206C236.897 26.5206 243.023 20.4526 243.023 12.9673C243.023 5.48192 236.897 -0.586243 229.339 -0.586243C221.781 -0.586243 215.654 5.48192 215.654 12.9673C215.654 20.4526 221.781 26.5206 229.339 26.5206Z" fill="black"/>
<path d="M-167.849 -517.748C-163.227 -517.748 -159.479 -521.46 -159.479 -526.039C-159.479 -530.617 -163.227 -534.329 -167.849 -534.329C-172.472 -534.329 -176.22 -530.617 -176.22 -526.039C-176.22 -521.46 -172.472 -517.748 -167.849 -517.748Z" fill="black"/>
<path d="M348.59 -13.9275C353.195 -13.9275 356.928 -17.6248 356.928 -22.1857C356.928 -26.7465 353.195 -30.4438 348.59 -30.4438C343.985 -30.4438 340.252 -26.7465 340.252 -22.1857C340.252 -17.6248 343.985 -13.9275 348.59 -13.9275Z" fill="black"/>
<path d="M6.56961 145.514C10.7709 145.514 14.1768 142.141 14.1768 137.98C14.1768 133.819 10.7709 130.445 6.56961 130.445C2.36829 130.445 -1.03754 133.819 -1.03754 137.98C-1.03754 142.141 2.36829 145.514 6.56961 145.514Z" fill="black"/>
<path d="M365.698 -466.434C369.611 -466.434 372.783 -469.575 372.783 -473.45C372.783 -477.325 369.611 -480.467 365.698 -480.467C361.786 -480.467 358.614 -477.325 358.614 -473.45C358.614 -469.575 361.786 -466.434 365.698 -466.434Z" fill="black"/>
<path d="M100.458 109.422C107.944 109.422 114.011 103.412 114.011 95.9987C114.011 88.5855 107.944 82.5758 100.458 82.5758C92.9733 82.5758 86.9055 88.5855 86.9055 95.9987C86.9055 103.412 92.9733 109.422 100.458 109.422Z" fill="black"/>
<path d="M-312.29 -34.4595C-305.143 -34.4595 -299.35 -40.1976 -299.35 -47.2759C-299.35 -54.3542 -305.143 -60.0923 -312.29 -60.0923C-319.437 -60.0923 -325.231 -54.3542 -325.231 -47.2759C-325.231 -40.1976 -319.437 -34.4595 -312.29 -34.4595Z" fill="black"/>
<path d="M121.924 -556C129.491 -556 135.625 -562.075 135.625 -569.569C135.625 -577.064 129.491 -583.139 121.924 -583.139C114.357 -583.139 108.223 -577.064 108.223 -569.569C108.223 -562.075 114.357 -556 121.924 -556Z" fill="black"/>
<path d="M377.313 -176.104C383.483 -176.104 388.484 -181.057 388.484 -187.167C388.484 -193.278 383.483 -198.231 377.313 -198.231C371.143 -198.231 366.142 -193.278 366.142 -187.167C366.142 -181.057 371.143 -176.104 377.313 -176.104Z" fill="black"/>
<path d="M-337.278 -273.24C-331.148 -273.24 -326.179 -278.161 -326.179 -284.232C-326.179 -290.303 -331.148 -295.225 -337.278 -295.225C-343.408 -295.225 -348.377 -290.303 -348.377 -284.232C-348.377 -278.161 -343.408 -273.24 -337.278 -273.24Z" fill="black"/>
<path d="M198.437 -555.506C204.005 -555.506 208.519 -559.976 208.519 -565.49C208.519 -571.004 204.005 -575.474 198.437 -575.474C192.87 -575.474 188.356 -571.004 188.356 -565.49C188.356 -559.976 192.87 -555.506 198.437 -555.506Z" fill="black"/>
<path d="M196.182 76.8597C204.817 76.8597 211.817 69.9268 211.817 61.3747C211.817 52.8226 204.817 45.8897 196.182 45.8897C187.547 45.8897 180.547 52.8226 180.547 61.3747C180.547 69.9268 187.547 76.8597 196.182 76.8597Z" fill="black"/>
<path d="M368.979 -409.975C374.937 -409.975 379.767 -414.758 379.767 -420.659C379.767 -426.56 374.937 -431.343 368.979 -431.343C363.022 -431.343 358.192 -426.56 358.192 -420.659C358.192 -414.758 363.022 -409.975 368.979 -409.975Z" fill="black"/>
<path d="M200.902 132.79C205.383 132.79 209.015 129.192 209.015 124.754C209.015 120.316 205.383 116.719 200.902 116.719C196.421 116.719 192.789 120.316 192.789 124.754C192.789 129.192 196.421 132.79 200.902 132.79Z" fill="black"/>
<path d="M-153.501 135.277C-147.676 135.277 -142.954 130.6 -142.954 124.831C-142.954 119.061 -147.676 114.384 -153.501 114.384C-159.326 114.384 -164.049 119.061 -164.049 124.831C-164.049 130.6 -159.326 135.277 -153.501 135.277Z" fill="black"/>
<path d="M300.177 -38.0892C308.041 -38.0892 314.416 -44.4029 314.416 -52.1914C314.416 -59.9799 308.041 -66.2938 300.177 -66.2938C292.313 -66.2938 285.938 -59.9799 285.938 -52.1914C285.938 -44.4029 292.313 -38.0892 300.177 -38.0892Z" fill="black"/>
<path d="M-264.684 -499.372C-260.504 -499.372 -257.115 -502.728 -257.115 -506.869C-257.115 -511.009 -260.504 -514.366 -264.684 -514.366C-268.865 -514.366 -272.254 -511.009 -272.254 -506.869C-272.254 -502.728 -268.865 -499.372 -264.684 -499.372Z" fill="black"/>
<path d="M64.327 231.038C68.6041 231.038 72.0713 227.604 72.0713 223.368C72.0713 219.132 68.6041 215.698 64.327 215.698C60.05 215.698 56.5828 219.132 56.5828 223.368C56.5828 227.604 60.05 231.038 64.327 231.038Z" fill="black"/>
<path d="M447.292 -1.60321C450.496 -1.60321 453.093 -4.17543 453.093 -7.34845C453.093 -10.5215 450.496 -13.0937 447.292 -13.0937C444.089 -13.0937 441.491 -10.5215 441.491 -7.34845C441.491 -4.17543 444.089 -1.60321 447.292 -1.60321Z" fill="black"/>
<path d="M-360.139 -146.973C-355.017 -146.973 -350.865 -151.085 -350.865 -156.158C-350.865 -161.23 -355.017 -165.343 -360.139 -165.343C-365.261 -165.343 -369.413 -161.23 -369.413 -156.158C-369.413 -151.085 -365.261 -146.973 -360.139 -146.973Z" fill="black"/>
<path d="M-121.169 108.389C-116.449 108.389 -112.623 104.599 -112.623 99.9243C-112.623 95.2496 -116.449 91.4599 -121.169 91.4599C-125.889 91.4599 -129.716 95.2496 -129.716 99.9243C-129.716 104.599 -125.889 108.389 -121.169 108.389Z" fill="black"/>
<path d="M338.534 -130.073C345.745 -130.073 351.59 -135.863 351.59 -143.005C351.59 -150.146 345.745 -155.936 338.534 -155.936C331.323 -155.936 325.477 -150.146 325.477 -143.005C325.477 -135.863 331.323 -130.073 338.534 -130.073Z" fill="black"/>
<path d="M-178.567 -440.242C-170.848 -440.242 -164.591 -446.439 -164.591 -454.083C-164.591 -461.728 -170.848 -467.925 -178.567 -467.925C-186.285 -467.925 -192.542 -461.728 -192.542 -454.083C-192.542 -446.439 -186.285 -440.242 -178.567 -440.242Z" fill="black"/>
<path d="M-271.635 -371.308C-263.794 -371.308 -257.438 -377.603 -257.438 -385.369C-257.438 -393.135 -263.794 -399.43 -271.635 -399.43C-279.476 -399.43 -285.832 -393.135 -285.832 -385.369C-285.832 -377.603 -279.476 -371.308 -271.635 -371.308Z" fill="black"/>
<path d="M-257.077 152.111C-253.863 152.111 -251.258 149.53 -251.258 146.347C-251.258 143.164 -253.863 140.584 -257.077 140.584C-260.291 140.584 -262.897 143.164 -262.897 146.347C-262.897 149.53 -260.291 152.111 -257.077 152.111Z" fill="black"/>
<path d="M-394.397 -130.868C-388.535 -130.868 -383.782 -135.575 -383.782 -141.381C-383.782 -147.188 -388.535 -151.895 -394.397 -151.895C-400.26 -151.895 -405.012 -147.188 -405.012 -141.381C-405.012 -135.575 -400.26 -130.868 -394.397 -130.868Z" fill="black"/>
<path d="M348.673 -50.1693C356.938 -50.1693 363.638 -56.805 363.638 -64.9904C363.638 -73.1759 356.938 -79.8115 348.673 -79.8115C340.409 -79.8115 333.709 -73.1759 333.709 -64.9904C333.709 -56.805 340.409 -50.1693 348.673 -50.1693Z" fill="black"/>
<path d="M-232.582 38.8356C-228.002 38.8356 -224.289 35.1581 -224.289 30.6218C-224.289 26.0854 -228.002 22.4079 -232.582 22.4079C-237.163 22.4079 -240.876 26.0854 -240.876 30.6218C-240.876 35.1581 -237.163 38.8356 -232.582 38.8356Z" fill="black"/>
<path d="M160.023 182.499C163.608 182.499 166.514 179.62 166.514 176.069C166.514 172.519 163.608 169.64 160.023 169.64C156.437 169.64 153.531 172.519 153.531 176.069C153.531 179.62 156.437 182.499 160.023 182.499Z" fill="black"/>
<path d="M344.505 -308.714C352.682 -308.714 359.311 -315.28 359.311 -323.378C359.311 -331.477 352.682 -338.042 344.505 -338.042C336.327 -338.042 329.698 -331.477 329.698 -323.378C329.698 -315.28 336.327 -308.714 344.505 -308.714Z" fill="black"/>
<path d="M208.249 158.178C214.767 158.178 220.051 152.945 220.051 146.489C220.051 140.034 214.767 134.8 208.249 134.8C201.731 134.8 196.447 140.034 196.447 146.489C196.447 152.945 201.731 158.178 208.249 158.178Z" fill="black"/>
<path d="M-106.343 141.31C-100.507 141.31 -95.7751 136.624 -95.7751 130.843C-95.7751 125.063 -100.507 120.377 -106.343 120.377C-112.18 120.377 -116.911 125.063 -116.911 130.843C-116.911 136.624 -112.18 141.31 -106.343 141.31Z" fill="black"/>
<path d="M232.295 -467.675C239.038 -467.675 244.505 -473.089 244.505 -479.767C244.505 -486.446 239.038 -491.859 232.295 -491.859C225.553 -491.859 220.086 -486.446 220.086 -479.767C220.086 -473.089 225.553 -467.675 232.295 -467.675Z" fill="black"/>
<path d="M-307.578 -158.248C-299.966 -158.248 -293.795 -164.36 -293.795 -171.899C-293.795 -179.438 -299.966 -185.55 -307.578 -185.55C-315.19 -185.55 -321.361 -179.438 -321.361 -171.899C-321.361 -164.36 -315.19 -158.248 -307.578 -158.248Z" fill="black"/>
<path d="M-126.238 -550.157C-119.927 -550.157 -114.811 -555.224 -114.811 -561.474C-114.811 -567.725 -119.927 -572.792 -126.238 -572.792C-132.55 -572.792 -137.666 -567.725 -137.666 -561.474C-137.666 -555.224 -132.55 -550.157 -126.238 -550.157Z" fill="black"/>
<path d="M-188.132 155.452C-184.491 155.452 -181.54 152.529 -181.54 148.924C-181.54 145.318 -184.491 142.395 -188.132 142.395C-191.772 142.395 -194.723 145.318 -194.723 148.924C-194.723 152.529 -191.772 155.452 -188.132 155.452Z" fill="black"/>
<path d="M-243.374 -42.8483C-235.467 -42.8483 -229.058 -49.1964 -229.058 -57.0272C-229.058 -64.858 -235.467 -71.2062 -243.374 -71.2062C-251.281 -71.2062 -257.69 -64.858 -257.69 -57.0272C-257.69 -49.1964 -251.281 -42.8483 -243.374 -42.8483Z" fill="black"/>
<path d="M339.013 122.069C343.069 122.069 346.357 118.812 346.357 114.795C346.357 110.778 343.069 107.521 339.013 107.521C334.957 107.521 331.668 110.778 331.668 114.795C331.668 118.812 334.957 122.069 339.013 122.069Z" fill="black"/>
<path d="M-60.6819 174.933C-55.4664 174.933 -51.2384 170.745 -51.2384 165.58C-51.2384 160.414 -55.4664 156.227 -60.6819 156.227C-65.8975 156.227 -70.1255 160.414 -70.1255 165.58C-70.1255 170.745 -65.8975 174.933 -60.6819 174.933Z" fill="black"/>
<path d="M-236.065 134.853C-230.299 134.853 -225.626 130.224 -225.626 124.514C-225.626 118.804 -230.299 114.175 -236.065 114.175C-241.83 114.175 -246.504 118.804 -246.504 124.514C-246.504 130.224 -241.83 134.853 -236.065 134.853Z" fill="black"/>
<path d="M-12.4902 172.631C-6.26496 172.631 -1.21842 167.633 -1.21842 161.468C-1.21842 155.302 -6.26496 150.304 -12.4902 150.304C-18.7154 150.304 -23.762 155.302 -23.762 161.468C-23.762 167.633 -18.7154 172.631 -12.4902 172.631Z" fill="black"/>
<path d="M-127.227 -511.422C-118.625 -511.422 -111.652 -518.328 -111.652 -526.847C-111.652 -535.366 -118.625 -542.272 -127.227 -542.272C-135.829 -542.272 -142.802 -535.366 -142.802 -526.847C-142.802 -518.328 -135.829 -511.422 -127.227 -511.422Z" fill="black"/>
<path d="M-310.246 -0.134827C-304.845 -0.134827 -300.467 -4.47084 -300.467 -9.81952C-300.467 -15.1682 -304.845 -19.5042 -310.246 -19.5042C-315.646 -19.5042 -320.024 -15.1682 -320.024 -9.81952C-320.024 -4.47084 -315.646 -0.134827 -310.246 -0.134827Z" fill="black"/>
<path d="M-153.693 -561.408C-148.052 -561.408 -143.479 -565.937 -143.479 -571.524C-143.479 -577.112 -148.052 -581.641 -153.693 -581.641C-159.335 -581.641 -163.908 -577.112 -163.908 -571.524C-163.908 -565.937 -159.335 -561.408 -153.693 -561.408Z" fill="black"/>
<path d="M-149.972 82.9012C-141.498 82.9012 -134.629 76.0977 -134.629 67.7052C-134.629 59.3127 -141.498 52.5093 -149.972 52.5093C-158.446 52.5093 -165.315 59.3127 -165.315 67.7052C-165.315 76.0977 -158.446 82.9012 -149.972 82.9012Z" fill="black"/>
<path d="M10.663 161.461C15.2211 161.461 18.9161 157.801 18.9161 153.287C18.9161 148.772 15.2211 145.113 10.663 145.113C6.10491 145.113 2.40983 148.772 2.40983 153.287C2.40983 157.801 6.10491 161.461 10.663 161.461Z" fill="black"/>
<path d="M454.469 -141.275C457.828 -141.275 460.551 -143.972 460.551 -147.299C460.551 -150.626 457.828 -153.323 454.469 -153.323C451.109 -153.323 448.386 -150.626 448.386 -147.299C448.386 -143.972 451.109 -141.275 454.469 -141.275Z" fill="black"/>
<path d="M-208.062 -447.418C-200.781 -447.418 -194.878 -453.264 -194.878 -460.476C-194.878 -467.688 -200.781 -473.534 -208.062 -473.534C-215.344 -473.534 -221.247 -467.688 -221.247 -460.476C-221.247 -453.264 -215.344 -447.418 -208.062 -447.418Z" fill="black"/>
<path d="M-57.6913 -520.29C-50.552 -520.29 -44.7646 -526.022 -44.7646 -533.093C-44.7646 -540.164 -50.552 -545.896 -57.6913 -545.896C-64.8305 -545.896 -70.6181 -540.164 -70.6181 -533.093C-70.6181 -526.022 -64.8305 -520.29 -57.6913 -520.29Z" fill="black"/>
<path d="M-225.939 -562.646C-222.508 -562.646 -219.726 -565.401 -219.726 -568.799C-219.726 -572.197 -222.508 -574.952 -225.939 -574.952C-229.37 -574.952 -232.152 -572.197 -232.152 -568.799C-232.152 -565.401 -229.37 -562.646 -225.939 -562.646Z" fill="black"/>
<path d="M537.134 -374.807C540.764 -374.807 543.707 -377.722 543.707 -381.318C543.707 -384.913 540.764 -387.828 537.134 -387.828C533.503 -387.828 530.56 -384.913 530.56 -381.318C530.56 -377.722 533.503 -374.807 537.134 -374.807Z" fill="black"/>
<path d="M-296.259 -196.867C-287.37 -196.867 -280.163 -204.005 -280.163 -212.809C-280.163 -221.613 -287.37 -228.751 -296.259 -228.751C-305.149 -228.751 -312.356 -221.613 -312.356 -212.809C-312.356 -204.005 -305.149 -196.867 -296.259 -196.867Z" fill="black"/>
<path d="M343.234 -268.344C352.613 -268.344 360.216 -275.875 360.216 -285.164C360.216 -294.453 352.613 -301.984 343.234 -301.984C333.854 -301.984 326.251 -294.453 326.251 -285.164C326.251 -275.875 333.854 -268.344 343.234 -268.344Z" fill="black"/>
<path d="M183.606 -712.153C187.588 -712.153 190.815 -715.35 190.815 -719.294C190.815 -723.237 187.588 -726.434 183.606 -726.434C179.624 -726.434 176.396 -723.237 176.396 -719.294C176.396 -715.35 179.624 -712.153 183.606 -712.153Z" fill="black"/>
<path d="M19.7797 107.192C30.1888 107.192 38.6271 98.8351 38.6271 88.5259C38.6271 78.2167 30.1888 69.8594 19.7797 69.8594C9.37062 69.8594 0.932394 78.2167 0.932394 88.5259C0.932394 98.8351 9.37062 107.192 19.7797 107.192Z" fill="black"/>
<path d="M80.5993 -531.56C87.3356 -531.56 92.7964 -536.969 92.7964 -543.64C92.7964 -550.312 87.3356 -555.72 80.5993 -555.72C73.863 -555.72 68.4022 -550.312 68.4022 -543.64C68.4022 -536.969 73.863 -531.56 80.5993 -531.56Z" fill="black"/>
<path d="M18.739 -652.735C22.1233 -652.735 24.8668 -655.452 24.8668 -658.804C24.8668 -662.156 22.1233 -664.873 18.739 -664.873C15.3547 -664.873 12.6112 -662.156 12.6112 -658.804C12.6112 -655.452 15.3547 -652.735 18.739 -652.735Z" fill="black"/>
<path d="M-276.014 -301.14C-269.854 -301.14 -264.859 -306.087 -264.859 -312.188C-264.859 -318.289 -269.854 -323.236 -276.014 -323.236C-282.175 -323.236 -287.169 -318.289 -287.169 -312.188C-287.169 -306.087 -282.175 -301.14 -276.014 -301.14Z" fill="black"/>
<path d="M379.273 -29.6932C386.33 -29.6932 392.052 -35.3596 392.052 -42.3495C392.052 -49.3394 386.33 -55.0057 379.273 -55.0057C372.215 -55.0057 366.494 -49.3394 366.494 -42.3495C366.494 -35.3596 372.215 -29.6932 379.273 -29.6932Z" fill="black"/>
<path d="M130.347 -514.196C138.797 -514.196 145.647 -520.98 145.647 -529.349C145.647 -537.718 138.797 -544.502 130.347 -544.502C121.897 -544.502 115.047 -537.718 115.047 -529.349C115.047 -520.98 121.897 -514.196 130.347 -514.196Z" fill="black"/>
<path d="M-137.212 186.496C-133.114 186.496 -129.793 183.206 -129.793 179.148C-129.793 175.09 -133.114 171.8 -137.212 171.8C-141.309 171.8 -144.631 175.09 -144.631 179.148C-144.631 183.206 -141.309 186.496 -137.212 186.496Z" fill="black"/>
<path d="M300.18 163.918C302.956 163.918 305.206 161.689 305.206 158.94C305.206 156.191 302.956 153.962 300.18 153.962C297.405 153.962 295.154 156.191 295.154 158.94C295.154 161.689 297.405 163.918 300.18 163.918Z" fill="black"/>
<path d="M315.37 7.15955C319.851 7.15955 323.484 3.56161 323.484 -0.876709C323.484 -5.31503 319.851 -8.91296 315.37 -8.91296C310.888 -8.91296 307.255 -5.31503 307.255 -0.876709C307.255 3.56161 310.888 7.15955 315.37 7.15955Z" fill="black"/>
<path d="M-337.227 -169.491C-332.584 -169.491 -328.821 -173.218 -328.821 -177.816C-328.821 -182.414 -332.584 -186.142 -337.227 -186.142C-341.87 -186.142 -345.633 -182.414 -345.633 -177.816C-345.633 -173.218 -341.87 -169.491 -337.227 -169.491Z" fill="black"/>
<path d="M503.55 -279.709C508.799 -279.709 513.054 -283.923 513.054 -289.122C513.054 -294.32 508.799 -298.534 503.55 -298.534C498.301 -298.534 494.046 -294.32 494.046 -289.122C494.046 -283.923 498.301 -279.709 503.55 -279.709Z" fill="black"/>
<path d="M-48.8622 125.217C-41.354 125.217 -35.2674 119.189 -35.2674 111.753C-35.2674 104.317 -41.354 98.2885 -48.8622 98.2885C-56.3703 98.2885 -62.4569 104.317 -62.4569 111.753C-62.4569 119.189 -56.3703 125.217 -48.8622 125.217Z" fill="black"/>
<path d="M-258.941 -118.279C-248.364 -118.279 -239.79 -126.771 -239.79 -137.247C-239.79 -147.723 -248.364 -156.215 -258.941 -156.215C-269.519 -156.215 -278.093 -147.723 -278.093 -137.247C-278.093 -126.771 -269.519 -118.279 -258.941 -118.279Z" fill="black"/>
<path d="M137.232 77.6405C144.745 77.6405 150.834 71.6091 150.834 64.1691C150.834 56.729 144.745 50.6976 137.232 50.6976C129.72 50.6976 123.63 56.729 123.63 64.1691C123.63 71.6091 129.72 77.6405 137.232 77.6405Z" fill="black"/>
<path d="M264.49 182.726C268.576 182.726 271.888 179.445 271.888 175.399C271.888 171.352 268.576 168.072 264.49 168.072C260.405 168.072 257.093 171.352 257.093 175.399C257.093 179.445 260.405 182.726 264.49 182.726Z" fill="black"/>
<path d="M214.279 -588.475C219.659 -588.475 224.021 -592.794 224.021 -598.123C224.021 -603.451 219.659 -607.771 214.279 -607.771C208.899 -607.771 204.538 -603.451 204.538 -598.123C204.538 -592.794 208.899 -588.475 214.279 -588.475Z" fill="black"/>
<path d="M-266.149 -158.163C-255.822 -158.163 -247.451 -166.454 -247.451 -176.681C-247.451 -186.909 -255.822 -195.2 -266.149 -195.2C-276.476 -195.2 -284.847 -186.909 -284.847 -176.681C-284.847 -166.454 -276.476 -158.163 -266.149 -158.163Z" fill="black"/>
<path d="M-186.026 -8.44379C-177.493 -8.44379 -170.575 -15.295 -170.575 -23.7465C-170.575 -32.1979 -177.493 -39.0492 -186.026 -39.0492C-194.56 -39.0492 -201.477 -32.1979 -201.477 -23.7465C-201.477 -15.295 -194.56 -8.44379 -186.026 -8.44379Z" fill="black"/>
<path d="M-258.207 0.0278931C-252.819 0.0278931 -248.452 -4.29777 -248.452 -9.63367C-248.452 -14.9696 -252.819 -19.2951 -258.207 -19.2951C-263.595 -19.2951 -267.962 -14.9696 -267.962 -9.63367C-267.962 -4.29777 -263.595 0.0278931 -258.207 0.0278931Z" fill="black"/>
<path d="M92.1246 -578.724C99.2812 -578.724 105.083 -584.47 105.083 -591.557C105.083 -598.645 99.2812 -604.391 92.1246 -604.391C84.968 -604.391 79.1665 -598.645 79.1665 -591.557C79.1665 -584.47 84.968 -578.724 92.1246 -578.724Z" fill="black"/>
<path d="M434.987 -334.134C440.292 -334.134 444.593 -338.394 444.593 -343.649C444.593 -348.903 440.292 -353.163 434.987 -353.163C429.681 -353.163 425.38 -348.903 425.38 -343.649C425.38 -338.394 429.681 -334.134 434.987 -334.134Z" fill="black"/>
<path d="M504.25 -354.168C507.011 -354.168 509.248 -356.384 509.248 -359.118C509.248 -361.851 507.011 -364.068 504.25 -364.068C501.49 -364.068 499.252 -361.851 499.252 -359.118C499.252 -356.384 501.49 -354.168 504.25 -354.168Z" fill="black"/>
<path d="M-270.119 108.475C-266.842 108.475 -264.185 105.844 -264.185 102.598C-264.185 99.352 -266.842 96.7208 -270.119 96.7208C-273.396 96.7208 -276.053 99.352 -276.053 102.598C-276.053 105.844 -273.396 108.475 -270.119 108.475Z" fill="black"/>
<path d="M-287.016 47.8654C-282.501 47.8654 -278.842 44.2411 -278.842 39.7703C-278.842 35.2995 -282.501 31.6752 -287.016 31.6752C-291.53 31.6752 -295.189 35.2995 -295.189 39.7703C-295.189 44.2411 -291.53 47.8654 -287.016 47.8654Z" fill="black"/>
<path d="M256.582 116.682C261.467 116.682 265.428 112.76 265.428 107.921C265.428 103.082 261.467 99.1594 256.582 99.1594C251.696 99.1594 247.736 103.082 247.736 107.921C247.736 112.76 251.696 116.682 256.582 116.682Z" fill="black"/>
<path d="M-283.94 -270.746C-276.095 -270.746 -269.735 -277.045 -269.735 -284.815C-269.735 -292.584 -276.095 -298.883 -283.94 -298.883C-291.785 -298.883 -298.144 -292.584 -298.144 -284.815C-298.144 -277.045 -291.785 -270.746 -283.94 -270.746Z" fill="black"/>
<path d="M29.6346 157.581C35.8114 157.581 40.8186 152.622 40.8186 146.504C40.8186 140.387 35.8114 135.427 29.6346 135.427C23.4578 135.427 18.4506 140.387 18.4506 146.504C18.4506 152.622 23.4578 157.581 29.6346 157.581Z" fill="black"/>
<path d="M330.003 -14.1984C336.815 -14.1984 342.337 -19.6679 342.337 -26.4148C342.337 -33.1617 336.815 -38.6312 330.003 -38.6312C323.19 -38.6312 317.668 -33.1617 317.668 -26.4148C317.668 -19.6679 323.19 -14.1984 330.003 -14.1984Z" fill="black"/>
<path d="M324.67 -102.766C330.83 -102.766 335.824 -107.712 335.824 -113.813C335.824 -119.914 330.83 -124.859 324.67 -124.859C318.51 -124.859 313.517 -119.914 313.517 -113.813C313.517 -107.712 318.51 -102.766 324.67 -102.766Z" fill="black"/>
<path d="M8.37692 -621.593C14.5477 -621.593 19.5501 -626.547 19.5501 -632.659C19.5501 -638.771 14.5477 -643.725 8.37692 -643.725C2.20612 -643.725 -2.79633 -638.771 -2.79633 -632.659C-2.79633 -626.547 2.20612 -621.593 8.37692 -621.593Z" fill="black"/>
<path d="M-301.806 -98.737C-296.407 -98.737 -292.031 -103.072 -292.031 -108.419C-292.031 -113.766 -296.407 -118.1 -301.806 -118.1C-307.205 -118.1 -311.582 -113.766 -311.582 -108.419C-311.582 -103.072 -307.205 -98.737 -301.806 -98.737Z" fill="black"/>
<path d="M-204.215 41.6863C-199.238 41.6863 -195.203 37.6904 -195.203 32.7613C-195.203 27.8321 -199.238 23.8363 -204.215 23.8363C-209.192 23.8363 -213.226 27.8321 -213.226 32.7613C-213.226 37.6904 -209.192 41.6863 -204.215 41.6863Z" fill="black"/>
<path d="M94.3462 172.568C100.632 172.568 105.727 167.522 105.727 161.297C105.727 155.072 100.632 150.025 94.3462 150.025C88.0609 150.025 82.9656 155.072 82.9656 161.297C82.9656 167.522 88.0609 172.568 94.3462 172.568Z" fill="black"/>
<path d="M-184.117 -585.334C-178.687 -585.334 -174.285 -589.693 -174.285 -595.071C-174.285 -600.45 -178.687 -604.809 -184.117 -604.809C-189.547 -604.809 -193.949 -600.45 -193.949 -595.071C-193.949 -589.693 -189.547 -585.334 -184.117 -585.334Z" fill="black"/>
<path d="M-265.99 59.307C-260.977 59.307 -256.912 55.2817 -256.912 50.3163C-256.912 45.351 -260.977 41.3257 -265.99 41.3257C-271.004 41.3257 -275.068 45.351 -275.068 50.3163C-275.068 55.2817 -271.004 59.307 -265.99 59.307Z" fill="black"/>
<path d="M-400.101 -422.938C-397.272 -422.938 -394.978 -425.21 -394.978 -428.012C-394.978 -430.813 -397.272 -433.085 -400.101 -433.085C-402.93 -433.085 -405.223 -430.813 -405.223 -428.012C-405.223 -425.21 -402.93 -422.938 -400.101 -422.938Z" fill="black"/>
<path d="M-234.894 -372.183C-223.626 -372.183 -214.491 -381.231 -214.491 -392.391C-214.491 -403.552 -223.626 -412.599 -234.894 -412.599C-246.163 -412.599 -255.298 -403.552 -255.298 -392.391C-255.298 -381.231 -246.163 -372.183 -234.894 -372.183Z" fill="black"/>
<path d="M-60.0682 -621.225C-55.485 -621.225 -51.7697 -624.905 -51.7697 -629.444C-51.7697 -633.983 -55.485 -637.663 -60.0682 -637.663C-64.6513 -637.663 -68.3667 -633.983 -68.3667 -629.444C-68.3667 -624.905 -64.6513 -621.225 -60.0682 -621.225Z" fill="black"/>
<path d="M84.4906 263C87.3922 263 89.7445 260.67 89.7445 257.797C89.7445 254.923 87.3922 252.593 84.4906 252.593C81.589 252.593 79.2367 254.923 79.2367 257.797C79.2367 260.67 81.589 263 84.4906 263Z" fill="black"/>
<path d="M432.73 62.5034C435.274 62.5034 437.336 60.4611 437.336 57.9418C437.336 55.4225 435.274 53.3802 432.73 53.3802C430.186 53.3802 428.124 55.4225 428.124 57.9418C428.124 60.4611 430.186 62.5034 432.73 62.5034Z" fill="black"/>
<path d="M-56.2419 -552.224C-49.3901 -552.224 -43.8356 -557.725 -43.8356 -564.511C-43.8356 -571.297 -49.3901 -576.798 -56.2419 -576.798C-63.0936 -576.798 -68.648 -571.297 -68.648 -564.511C-68.648 -557.725 -63.0936 -552.224 -56.2419 -552.224Z" fill="black"/>
<path d="M263.777 24.9173C269.916 24.9173 274.893 19.988 274.893 13.9075C274.893 7.8269 269.916 2.89764 263.777 2.89764C257.637 2.89764 252.66 7.8269 252.66 13.9075C252.66 19.988 257.637 24.9173 263.777 24.9173Z" fill="black"/>
<path d="M323.593 -447.024C329.508 -447.024 334.303 -451.773 334.303 -457.631C334.303 -463.489 329.508 -468.238 323.593 -468.238C317.679 -468.238 312.884 -463.489 312.884 -457.631C312.884 -451.773 317.679 -447.024 323.593 -447.024Z" fill="black"/>
<path d="M211.46 -493.686C219.169 -493.686 225.418 -499.875 225.418 -507.51C225.418 -515.144 219.169 -521.334 211.46 -521.334C203.752 -521.334 197.502 -515.144 197.502 -507.51C197.502 -499.875 203.752 -493.686 211.46 -493.686Z" fill="black"/>
<path d="M313.745 -578.262C317.408 -578.262 320.376 -581.202 320.376 -584.829C320.376 -588.456 317.408 -591.396 313.745 -591.396C310.083 -591.396 307.115 -588.456 307.115 -584.829C307.115 -581.202 310.083 -578.262 313.745 -578.262Z" fill="black"/>
<path d="M-91.1975 60.0679C-82.436 60.0679 -75.3334 53.0334 -75.3334 44.356C-75.3334 35.6786 -82.436 28.6442 -91.1975 28.6442C-99.959 28.6442 -107.062 35.6786 -107.062 44.356C-107.062 53.0334 -99.959 60.0679 -91.1975 60.0679Z" fill="black"/>
<path d="M382.85 -59.8864C387.337 -59.8864 390.974 -63.4889 390.974 -67.9328C390.974 -72.3767 387.337 -75.9792 382.85 -75.9792C378.363 -75.9792 374.725 -72.3767 374.725 -67.9328C374.725 -63.4889 378.363 -59.8864 382.85 -59.8864Z" fill="black"/>
<path d="M10.2087 -734.503C13.9719 -734.503 17.0225 -737.525 17.0225 -741.252C17.0225 -744.979 13.9719 -748 10.2087 -748C6.44547 -748 3.3948 -744.979 3.3948 -741.252C3.3948 -737.525 6.44547 -734.503 10.2087 -734.503Z" fill="black"/>
<path d="M280.351 123.874C285.542 123.874 289.751 119.706 289.751 114.565C289.751 109.424 285.542 105.256 280.351 105.256C275.161 105.256 270.952 109.424 270.952 114.565C270.952 119.706 275.161 123.874 280.351 123.874Z" fill="black"/>
<path d="M-393.426 -273.389C-390.058 -273.389 -387.327 -276.093 -387.327 -279.429C-387.327 -282.765 -390.058 -285.47 -393.426 -285.47C-396.794 -285.47 -399.525 -282.765 -399.525 -279.429C-399.525 -276.093 -396.794 -273.389 -393.426 -273.389Z" fill="black"/>
<path d="M-252.175 -333.597C-243.222 -333.597 -235.965 -340.785 -235.965 -349.651C-235.965 -358.517 -243.222 -365.705 -252.175 -365.705C-261.127 -365.705 -268.384 -358.517 -268.384 -349.651C-268.384 -340.785 -261.127 -333.597 -252.175 -333.597Z" fill="black"/>
<path d="M451.82 -284.938C458.03 -284.938 463.064 -289.924 463.064 -296.074C463.064 -302.224 458.03 -307.209 451.82 -307.209C445.611 -307.209 440.577 -302.224 440.577 -296.074C440.577 -289.924 445.611 -284.938 451.82 -284.938Z" fill="black"/>
<path d="M300.168 -555.65C303.791 -555.65 306.729 -558.559 306.729 -562.148C306.729 -565.736 303.791 -568.646 300.168 -568.646C296.544 -568.646 293.607 -565.736 293.607 -562.148C293.607 -558.559 296.544 -555.65 300.168 -555.65Z" fill="black"/>
<path d="M-354.692 -445.978C-351.536 -445.978 -348.977 -448.512 -348.977 -451.638C-348.977 -454.764 -351.536 -457.298 -354.692 -457.298C-357.849 -457.298 -360.408 -454.764 -360.408 -451.638C-360.408 -448.512 -357.849 -445.978 -354.692 -445.978Z" fill="black"/>
<path d="M419.121 -304.732C423.551 -304.732 427.143 -308.29 427.143 -312.678C427.143 -317.066 423.551 -320.623 419.121 -320.623C414.69 -320.623 411.098 -317.066 411.098 -312.678C411.098 -308.29 414.69 -304.732 419.121 -304.732Z" fill="black"/>
<path d="M27.7293 176.418C31.9601 176.418 35.3898 173.021 35.3898 168.831C35.3898 164.64 31.9601 161.244 27.7293 161.244C23.4985 161.244 20.0688 164.64 20.0688 168.831C20.0688 173.021 23.4985 176.418 27.7293 176.418Z" fill="black"/>
<path d="M330.24 -548.655C333.803 -548.655 336.692 -551.515 336.692 -555.044C336.692 -558.573 333.803 -561.434 330.24 -561.434C326.677 -561.434 323.789 -558.573 323.789 -555.044C323.789 -551.515 326.677 -548.655 330.24 -548.655Z" fill="black"/>
<path d="M27.8024 -553.187C35.493 -553.187 41.7274 -559.362 41.7274 -566.979C41.7274 -574.595 35.493 -580.77 27.8024 -580.77C20.1119 -580.77 13.8775 -574.595 13.8775 -566.979C13.8775 -559.362 20.1119 -553.187 27.8024 -553.187Z" fill="black"/>
<path d="M64.7248 161.798C69.0273 161.798 72.5151 158.344 72.5151 154.083C72.5151 149.822 69.0273 146.367 64.7248 146.367C60.4224 146.367 56.9345 149.822 56.9345 154.083C56.9345 158.344 60.4224 161.798 64.7248 161.798Z" fill="black"/>
<path d="M324.442 -347.235C332.574 -347.235 339.166 -353.764 339.166 -361.818C339.166 -369.872 332.574 -376.401 324.442 -376.401C316.31 -376.401 309.718 -369.872 309.718 -361.818C309.718 -353.764 316.31 -347.235 324.442 -347.235Z" fill="black"/>
<path d="M305.942 27.9935C310.734 27.9935 314.619 24.146 314.619 19.3999C314.619 14.6538 310.734 10.8063 305.942 10.8063C301.15 10.8063 297.265 14.6538 297.265 19.3999C297.265 24.146 301.15 27.9935 305.942 27.9935Z" fill="black"/>
<path d="M47.4115 258.64C51.866 258.64 55.4771 255.064 55.4771 250.652C55.4771 246.24 51.866 242.664 47.4115 242.664C42.957 242.664 39.3459 246.24 39.3459 250.652C39.3459 255.064 42.957 258.64 47.4115 258.64Z" fill="black"/>
<path d="M-225.042 -540.662C-220.766 -540.662 -217.299 -544.095 -217.299 -548.33C-217.299 -552.566 -220.766 -555.999 -225.042 -555.999C-229.318 -555.999 -232.785 -552.566 -232.785 -548.33C-232.785 -544.095 -229.318 -540.662 -225.042 -540.662Z" fill="black"/>
<path d="M522.666 -238.465C525.3 -238.465 527.435 -240.58 527.435 -243.189C527.435 -245.798 525.3 -247.912 522.666 -247.912C520.031 -247.912 517.896 -245.798 517.896 -243.189C517.896 -240.58 520.031 -238.465 522.666 -238.465Z" fill="black"/>
<path d="M401.196 -501.37C404.858 -501.37 407.827 -504.311 407.827 -507.938C407.827 -511.565 404.858 -514.505 401.196 -514.505C397.534 -514.505 394.565 -511.565 394.565 -507.938C394.565 -504.311 397.534 -501.37 401.196 -501.37Z" fill="black"/>
<path d="M401.085 -225.87C408.455 -225.87 414.429 -231.787 414.429 -239.086C414.429 -246.385 408.455 -252.302 401.085 -252.302C393.715 -252.302 387.741 -246.385 387.741 -239.086C387.741 -231.787 393.715 -225.87 401.085 -225.87Z" fill="black"/>
<path d="M141.764 -644.422C146.612 -644.422 150.541 -648.313 150.541 -653.114C150.541 -657.915 146.612 -661.807 141.764 -661.807C136.917 -661.807 132.988 -657.915 132.988 -653.114C132.988 -648.313 136.917 -644.422 141.764 -644.422Z" fill="black"/>
<path d="M358.163 80.9167C361.8 80.9167 364.748 77.9969 364.748 74.3951C364.748 70.7934 361.8 67.8735 358.163 67.8735C354.527 67.8735 351.579 70.7934 351.579 74.3951C351.579 77.9969 354.527 80.9167 358.163 80.9167Z" fill="black"/>
<path d="M-142.606 28.4737C-135.193 28.4737 -129.184 22.5222 -129.184 15.1805C-129.184 7.83892 -135.193 1.88733 -142.606 1.88733C-150.019 1.88733 -156.028 7.83892 -156.028 15.1805C-156.028 22.5222 -150.019 28.4737 -142.606 28.4737Z" fill="black"/>
<path d="M-55.9603 86.8041C-46.7382 86.8041 -39.2623 79.3999 -39.2623 70.2664C-39.2623 61.1328 -46.7382 53.7286 -55.9603 53.7286C-65.1823 53.7286 -72.6583 61.1328 -72.6583 70.2664C-72.6583 79.3999 -65.1823 86.8041 -55.9603 86.8041Z" fill="black"/>
<path d="M166.542 -568.793C173.145 -568.793 178.498 -574.095 178.498 -580.635C178.498 -587.175 173.145 -592.476 166.542 -592.476C159.939 -592.476 154.586 -587.175 154.586 -580.635C154.586 -574.095 159.939 -568.793 166.542 -568.793Z" fill="black"/>
<path d="M-280.684 -2.26862C-273.838 -2.26862 -268.289 -7.76475 -268.289 -14.5446C-268.289 -21.3244 -273.838 -26.8204 -280.684 -26.8204C-287.529 -26.8204 -293.079 -21.3244 -293.079 -14.5446C-293.079 -7.76475 -287.529 -2.26862 -280.684 -2.26862Z" fill="black"/>
<path d="M370.189 24.014C376.465 24.014 381.553 18.975 381.553 12.7591C381.553 6.54315 376.465 1.50415 370.189 1.50415C363.913 1.50415 358.825 6.54315 358.825 12.7591C358.825 18.975 363.913 24.014 370.189 24.014Z" fill="black"/>
<path d="M447.095 -355.023C451.434 -355.023 454.951 -358.506 454.951 -362.803C454.951 -367.1 451.434 -370.583 447.095 -370.583C442.757 -370.583 439.24 -367.1 439.24 -362.803C439.24 -358.506 442.757 -355.023 447.095 -355.023Z" fill="black"/>
<path d="M-468.852 -349.943C-464.904 -349.943 -461.703 -353.113 -461.703 -357.023C-461.703 -360.933 -464.904 -364.103 -468.852 -364.103C-472.8 -364.103 -476 -360.933 -476 -357.023C-476 -353.113 -472.8 -349.943 -468.852 -349.943Z" fill="black"/>
<path d="M-112.334 -613.232C-108.757 -613.232 -105.858 -616.104 -105.858 -619.647C-105.858 -623.19 -108.757 -626.061 -112.334 -626.061C-115.911 -626.061 -118.811 -623.19 -118.811 -619.647C-118.811 -616.104 -115.911 -613.232 -112.334 -613.232Z" fill="black"/>
<path d="M-361.409 -118.898C-355.472 -118.898 -350.66 -123.664 -350.66 -129.543C-350.66 -135.422 -355.472 -140.189 -361.409 -140.189C-367.345 -140.189 -372.157 -135.422 -372.157 -129.543C-372.157 -123.664 -367.345 -118.898 -361.409 -118.898Z" fill="black"/>
<path d="M-236.569 -481.482C-229.217 -481.482 -223.256 -487.385 -223.256 -494.666C-223.256 -501.948 -229.217 -507.851 -236.569 -507.851C-243.921 -507.851 -249.881 -501.948 -249.881 -494.666C-249.881 -487.385 -243.921 -481.482 -236.569 -481.482Z" fill="black"/>
<path d="M349.812 50.7866C353.577 50.7866 356.628 47.7639 356.628 44.0354C356.628 40.3069 353.577 37.2844 349.812 37.2844C346.047 37.2844 342.995 40.3069 342.995 44.0354C342.995 47.7639 346.047 50.7866 349.812 50.7866Z" fill="black"/>
<path d="M-51.7935 -585.569C-46.0209 -585.569 -41.3413 -590.203 -41.3413 -595.921C-41.3413 -601.638 -46.0209 -606.272 -51.7935 -606.272C-57.5661 -606.272 -62.2458 -601.638 -62.2458 -595.921C-62.2458 -590.203 -57.5661 -585.569 -51.7935 -585.569Z" fill="black"/>
<path d="M-419.91 -100.262C-415.976 -100.262 -412.786 -103.421 -412.786 -107.317C-412.786 -111.214 -415.976 -114.372 -419.91 -114.372C-423.844 -114.372 -427.033 -111.214 -427.033 -107.317C-427.033 -103.421 -423.844 -100.262 -419.91 -100.262Z" fill="black"/>
<path d="M-310.916 -509.911C-307.906 -509.911 -305.466 -512.328 -305.466 -515.309C-305.466 -518.29 -307.906 -520.707 -310.916 -520.707C-313.926 -520.707 -316.366 -518.29 -316.366 -515.309C-316.366 -512.328 -313.926 -509.911 -310.916 -509.911Z" fill="black"/>
<path d="M237.615 121.338C243.527 121.338 248.319 116.592 248.319 110.737C248.319 104.882 243.527 100.135 237.615 100.135C231.703 100.135 226.911 104.882 226.911 110.737C226.911 116.592 231.703 121.338 237.615 121.338Z" fill="black"/>
<path d="M336.056 149.902C340.538 149.902 344.172 146.303 344.172 141.863C344.172 137.424 340.538 133.825 336.056 133.825C331.573 133.825 327.94 137.424 327.94 141.863C327.94 146.303 331.573 149.902 336.056 149.902Z" fill="black"/>
<path d="M-423.071 -407.084C-420.027 -407.084 -417.56 -409.528 -417.56 -412.542C-417.56 -415.556 -420.027 -417.999 -423.071 -417.999C-426.114 -417.999 -428.581 -415.556 -428.581 -412.542C-428.581 -409.528 -426.114 -407.084 -423.071 -407.084Z" fill="black"/>
<path d="M239.556 -562.203C246.889 -562.203 252.834 -568.091 252.834 -575.354C252.834 -582.617 246.889 -588.504 239.556 -588.504C232.222 -588.504 226.277 -582.617 226.277 -575.354C226.277 -568.091 232.222 -562.203 239.556 -562.203Z" fill="black"/>
<path d="M215.298 -612.1C220.929 -612.1 225.494 -616.621 225.494 -622.199C225.494 -627.776 220.929 -632.298 215.298 -632.298C209.666 -632.298 205.101 -627.776 205.101 -622.199C205.101 -616.621 209.666 -612.1 215.298 -612.1Z" fill="black"/>
<path d="M-358.59 -7.02002C-355.488 -7.02002 -352.974 -9.51049 -352.974 -12.5827C-352.974 -15.6549 -355.488 -18.1454 -358.59 -18.1454C-361.692 -18.1454 -364.207 -15.6549 -364.207 -12.5827C-364.207 -9.51049 -361.692 -7.02002 -358.59 -7.02002Z" fill="black"/>
<path d="M-443.662 -179.328C-439.984 -179.328 -437.003 -182.281 -437.003 -185.923C-437.003 -189.565 -439.984 -192.518 -443.662 -192.518C-447.339 -192.518 -450.321 -189.565 -450.321 -185.923C-450.321 -182.281 -447.339 -179.328 -443.662 -179.328Z" fill="black"/>
<path d="M84.2861 139.332C92.0871 139.332 98.4111 133.069 98.4111 125.343C98.4111 117.617 92.0871 111.353 84.2861 111.353C76.4851 111.353 70.1611 117.617 70.1611 125.343C70.1611 133.069 76.4851 139.332 84.2861 139.332Z" fill="black"/>
<path d="M385.699 -523.636C388.69 -523.636 391.115 -526.037 391.115 -529C391.115 -531.962 388.69 -534.364 385.699 -534.364C382.708 -534.364 380.283 -531.962 380.283 -529C380.283 -526.037 382.708 -523.636 385.699 -523.636Z" fill="black"/>
<path d="M71.3871 -688.574C74.5121 -688.574 77.0454 -691.083 77.0454 -694.178C77.0454 -697.273 74.5121 -699.782 71.3871 -699.782C68.2621 -699.782 65.7287 -697.273 65.7287 -694.178C65.7287 -691.083 68.2621 -688.574 71.3871 -688.574Z" fill="black"/>
<path d="M301.97 -466.617C309.815 -466.617 316.174 -472.915 316.174 -480.684C316.174 -488.453 309.815 -494.751 301.97 -494.751C294.126 -494.751 287.767 -488.453 287.767 -480.684C287.767 -472.915 294.126 -466.617 301.97 -466.617Z" fill="black"/>
<path d="M-285.259 -319.348C-275.617 -319.348 -267.801 -327.089 -267.801 -336.639C-267.801 -346.188 -275.617 -353.929 -285.259 -353.929C-294.901 -353.929 -302.717 -346.188 -302.717 -336.639C-302.717 -327.089 -294.901 -319.348 -285.259 -319.348Z" fill="black"/>
<path d="M62.3044 89.0669C68.8838 89.0669 74.2174 83.7844 74.2174 77.2682C74.2174 70.752 68.8838 65.4695 62.3044 65.4695C55.7251 65.4695 50.3915 70.752 50.3915 77.2682C50.3915 83.7844 55.7251 89.0669 62.3044 89.0669Z" fill="black"/>
<path d="M376.654 -564.546C379.818 -564.546 382.383 -567.086 382.383 -570.219C382.383 -573.352 379.818 -575.892 376.654 -575.892C373.491 -575.892 370.926 -573.352 370.926 -570.219C370.926 -567.086 373.491 -564.546 376.654 -564.546Z" fill="black"/>
<path d="M86.348 -666.221C89.615 -666.221 92.2633 -668.844 92.2633 -672.079C92.2633 -675.315 89.615 -677.938 86.348 -677.938C83.0811 -677.938 80.4327 -675.315 80.4327 -672.079C80.4327 -668.844 83.0811 -666.221 86.348 -666.221Z" fill="black"/>
<path d="M294.214 -641.652C298.24 -641.652 301.505 -644.884 301.505 -648.872C301.505 -652.86 298.24 -656.093 294.214 -656.093C290.187 -656.093 286.923 -652.86 286.923 -648.872C286.923 -644.884 290.187 -641.652 294.214 -641.652Z" fill="black"/>
<path d="M79.7861 -620.2C85.9179 -620.2 90.8886 -625.123 90.8886 -631.196C90.8886 -637.269 85.9179 -642.192 79.7861 -642.192C73.6544 -642.192 68.6836 -637.269 68.6836 -631.196C68.6836 -625.123 73.6544 -620.2 79.7861 -620.2Z" fill="black"/>
<path d="M-295.074 -72.2321C-289.804 -72.2321 -285.531 -76.4635 -285.531 -81.6832C-285.531 -86.9029 -289.804 -91.1343 -295.074 -91.1343C-300.344 -91.1343 -304.617 -86.9029 -304.617 -81.6832C-304.617 -76.4635 -300.344 -72.2321 -295.074 -72.2321Z" fill="black"/>
<path d="M283.364 -437.173C289.131 -437.173 293.805 -441.803 293.805 -447.515C293.805 -453.226 289.131 -457.856 283.364 -457.856C277.597 -457.856 272.922 -453.226 272.922 -447.515C272.922 -441.803 277.597 -437.173 283.364 -437.173Z" fill="black"/>
<path d="M354.25 -478.033C359.883 -478.033 364.449 -482.555 364.449 -488.134C364.449 -493.713 359.883 -498.235 354.25 -498.235C348.617 -498.235 344.051 -493.713 344.051 -488.134C344.051 -482.555 348.617 -478.033 354.25 -478.033Z" fill="black"/>
<path d="M-72.9093 -582.73C-68.1909 -582.73 -64.3659 -586.519 -64.3659 -591.192C-64.3659 -595.865 -68.1909 -599.653 -72.9093 -599.653C-77.6276 -599.653 -81.4526 -595.865 -81.4526 -591.192C-81.4526 -586.519 -77.6276 -582.73 -72.9093 -582.73Z" fill="black"/>
<path d="M-353.271 -321.327C-348.785 -321.327 -345.149 -324.929 -345.149 -329.371C-345.149 -333.814 -348.785 -337.415 -353.271 -337.415C-357.756 -337.415 -361.393 -333.814 -361.393 -329.371C-361.393 -324.929 -357.756 -321.327 -353.271 -321.327Z" fill="black"/>
<path d="M4.76699 193.715C8.08926 193.715 10.7825 191.047 10.7825 187.757C10.7825 184.466 8.08926 181.799 4.76699 181.799C1.44472 181.799 -1.24853 184.466 -1.24853 187.757C-1.24853 191.047 1.44472 193.715 4.76699 193.715Z" fill="black"/>
<path d="M-339.799 -72.5045C-334.789 -72.5045 -330.728 -76.5267 -330.728 -81.4884C-330.728 -86.4501 -334.789 -90.4724 -339.799 -90.4724C-344.808 -90.4724 -348.87 -86.4501 -348.87 -81.4884C-348.87 -76.5267 -344.808 -72.5045 -339.799 -72.5045Z" fill="black"/>
<path d="M-366.048 24.3012C-362.168 24.3012 -359.024 21.1866 -359.024 17.3447C-359.024 13.5027 -362.168 10.3882 -366.048 10.3882C-369.927 10.3882 -373.072 13.5027 -373.072 17.3447C-373.072 21.1866 -369.927 24.3012 -366.048 24.3012Z" fill="black"/>
<path d="M-271.905 -233.565C-261.221 -233.565 -252.561 -242.142 -252.561 -252.723C-252.561 -263.304 -261.221 -271.882 -271.905 -271.882C-282.589 -271.882 -291.249 -263.304 -291.249 -252.723C-291.249 -242.142 -282.589 -233.565 -271.905 -233.565Z" fill="black"/>
<path d="M-306.512 -379.215C-302.314 -379.215 -298.91 -382.586 -298.91 -386.744C-298.91 -390.903 -302.314 -394.274 -306.512 -394.274C-310.711 -394.274 -314.115 -390.903 -314.115 -386.744C-314.115 -382.586 -310.711 -379.215 -306.512 -379.215Z" fill="black"/>
<path d="M-354.553 -491.376C-351.048 -491.376 -348.206 -494.191 -348.206 -497.662C-348.206 -501.134 -351.048 -503.949 -354.553 -503.949C-358.058 -503.949 -360.9 -501.134 -360.9 -497.662C-360.9 -494.191 -358.058 -491.376 -354.553 -491.376Z" fill="black"/>
<path d="M-418.925 -224.013C-415.613 -224.013 -412.928 -226.673 -412.928 -229.953C-412.928 -233.233 -415.613 -235.893 -418.925 -235.893C-422.238 -235.893 -424.923 -233.233 -424.923 -229.953C-424.923 -226.673 -422.238 -224.013 -418.925 -224.013Z" fill="black"/>
<path d="M-204.666 -525.595C-200.677 -525.595 -197.443 -528.798 -197.443 -532.749C-197.443 -536.7 -200.677 -539.903 -204.666 -539.903C-208.656 -539.903 -211.89 -536.7 -211.89 -532.749C-211.89 -528.798 -208.656 -525.595 -204.666 -525.595Z" fill="black"/>
<path d="M414.097 -325.134C421.737 -325.134 427.931 -331.268 427.931 -338.835C427.931 -346.402 421.737 -352.536 414.097 -352.536C406.457 -352.536 400.264 -346.402 400.264 -338.835C400.264 -331.268 406.457 -325.134 414.097 -325.134Z" fill="black"/>
<path d="M-314.977 -449.007C-309.391 -449.007 -304.863 -453.491 -304.863 -459.023C-304.863 -464.555 -309.391 -469.039 -314.977 -469.039C-320.562 -469.039 -325.09 -464.555 -325.09 -459.023C-325.09 -453.491 -320.562 -449.007 -314.977 -449.007Z" fill="black"/>
<path d="M-176.861 27.0266C-166.063 27.0266 -157.31 18.3574 -157.31 7.66327C-157.31 -3.03082 -166.063 -11.7001 -176.861 -11.7001C-187.658 -11.7001 -196.412 -3.03082 -196.412 7.66327C-196.412 18.3574 -187.658 27.0266 -176.861 27.0266Z" fill="black"/>
<path d="M385.237 -122.955C391.547 -122.955 396.663 -128.022 396.663 -134.272C396.663 -140.522 391.547 -145.589 385.237 -145.589C378.926 -145.589 373.811 -140.522 373.811 -134.272C373.811 -128.022 378.926 -122.955 385.237 -122.955Z" fill="black"/>
<path d="M416.938 -102.074C422.494 -102.074 426.999 -106.535 426.999 -112.038C426.999 -117.541 422.494 -122.002 416.938 -122.002C411.381 -122.002 406.877 -117.541 406.877 -112.038C406.877 -106.535 411.381 -102.074 416.938 -102.074Z" fill="black"/>
<path d="M-128.231 -584.589C-124.148 -584.589 -120.837 -587.867 -120.837 -591.912C-120.837 -595.956 -124.148 -599.235 -128.231 -599.235C-132.315 -599.235 -135.625 -595.956 -135.625 -591.912C-135.625 -587.867 -132.315 -584.589 -128.231 -584.589Z" fill="black"/>
<path d="M36.8755 -724.708C41.1452 -724.708 44.6065 -728.136 44.6065 -732.365C44.6065 -736.594 41.1452 -740.022 36.8755 -740.022C32.6058 -740.022 29.1444 -736.594 29.1444 -732.365C29.1444 -728.136 32.6058 -724.708 36.8755 -724.708Z" fill="black"/>
<path d="M415.805 -478.495C420.697 -478.495 424.662 -482.423 424.662 -487.268C424.662 -492.113 420.697 -496.04 415.805 -496.04C410.913 -496.04 406.947 -492.113 406.947 -487.268C406.947 -482.423 410.913 -478.495 415.805 -478.495Z" fill="black"/>
<path d="M246.158 93.874C250.454 93.874 253.937 90.4245 253.937 86.1694C253.937 81.9142 250.454 78.4647 246.158 78.4647C241.861 78.4647 238.378 81.9142 238.378 86.1694C238.378 90.4245 241.861 93.874 246.158 93.874Z" fill="black"/>
<path d="M241.797 -491.288C251.107 -491.288 258.654 -498.763 258.654 -507.983C258.654 -517.204 251.107 -524.678 241.797 -524.678C232.488 -524.678 224.941 -517.204 224.941 -507.983C224.941 -498.763 232.488 -491.288 241.797 -491.288Z" fill="black"/>
<path d="M169.97 -614.334C173.725 -614.334 176.77 -617.349 176.77 -621.069C176.77 -624.788 173.725 -627.803 169.97 -627.803C166.214 -627.803 163.17 -624.788 163.17 -621.069C163.17 -617.349 166.214 -614.334 169.97 -614.334Z" fill="black"/>
<path d="M-427.423 -270.25C-422.315 -270.25 -418.174 -274.351 -418.174 -279.41C-418.174 -284.469 -422.315 -288.57 -427.423 -288.57C-432.531 -288.57 -436.672 -284.469 -436.672 -279.41C-436.672 -274.351 -432.531 -270.25 -427.423 -270.25Z" fill="black"/>
<path d="M-293.063 -503.43C-289.13 -503.43 -285.942 -506.588 -285.942 -510.483C-285.942 -514.378 -289.13 -517.536 -293.063 -517.536C-296.996 -517.536 -300.184 -514.378 -300.184 -510.483C-300.184 -506.588 -296.996 -503.43 -293.063 -503.43Z" fill="black"/>
<path d="M-76.9809 -705.731C-74.0839 -705.731 -71.7354 -708.057 -71.7354 -710.927C-71.7354 -713.796 -74.0839 -716.122 -76.9809 -716.122C-79.878 -716.122 -82.2265 -713.796 -82.2265 -710.927C-82.2265 -708.057 -79.878 -705.731 -76.9809 -705.731Z" fill="black"/>
<path d="M-63.7138 -656.144C-60.4835 -656.144 -57.8648 -658.737 -57.8648 -661.937C-57.8648 -665.136 -60.4835 -667.73 -63.7138 -667.73C-66.9441 -667.73 -69.5627 -665.136 -69.5627 -661.937C-69.5627 -658.737 -66.9441 -656.144 -63.7138 -656.144Z" fill="black"/>
<path d="M-242.935 98.215C-237.74 98.215 -233.527 94.0434 -233.527 88.8973C-233.527 83.7513 -237.74 79.5796 -242.935 79.5796C-248.131 79.5796 -252.343 83.7513 -252.343 88.8973C-252.343 94.0434 -248.131 98.215 -242.935 98.215Z" fill="black"/>
<path d="M-341.806 -4.95422C-338.332 -4.95422 -335.515 -7.74341 -335.515 -11.184C-335.515 -14.6246 -338.332 -17.4138 -341.806 -17.4138C-345.28 -17.4138 -348.096 -14.6246 -348.096 -11.184C-348.096 -7.74341 -345.28 -4.95422 -341.806 -4.95422Z" fill="black"/>
<path d="M282.417 -1.74243C288.632 -1.74243 293.67 -6.73242 293.67 -12.8879C293.67 -19.0433 288.632 -24.0333 282.417 -24.0333C276.202 -24.0333 271.164 -19.0433 271.164 -12.8879C271.164 -6.73242 276.202 -1.74243 282.417 -1.74243Z" fill="black"/>
<path d="M491.352 -94.45C495.265 -94.45 498.437 -97.5917 498.437 -101.467C498.437 -105.343 495.265 -108.484 491.352 -108.484C487.439 -108.484 484.267 -105.343 484.267 -101.467C484.267 -97.5917 487.439 -94.45 491.352 -94.45Z" fill="black"/>
<path d="M397.263 -302.076C402.405 -302.076 406.573 -306.204 406.573 -311.297C406.573 -316.39 402.405 -320.518 397.263 -320.518C392.12 -320.518 387.952 -316.39 387.952 -311.297C387.952 -306.204 392.12 -302.076 397.263 -302.076Z" fill="black"/>
<path d="M-130.343 -615.527C-126.143 -615.527 -122.738 -618.899 -122.738 -623.059C-122.738 -627.219 -126.143 -630.591 -130.343 -630.591C-134.543 -630.591 -137.947 -627.219 -137.947 -623.059C-137.947 -618.899 -134.543 -615.527 -130.343 -615.527Z" fill="black"/>
<path d="M447.065 -311.709C452.474 -311.709 456.859 -316.052 456.859 -321.409C456.859 -326.766 452.474 -331.109 447.065 -331.109C441.655 -331.109 437.27 -326.766 437.27 -321.409C437.27 -316.052 441.655 -311.709 447.065 -311.709Z" fill="black"/>
<path d="M-19.8533 239.397C-17.034 239.397 -14.7485 237.133 -14.7485 234.341C-14.7485 231.549 -17.034 229.285 -19.8533 229.285C-22.6726 229.285 -24.9581 231.549 -24.9581 234.341C-24.9581 237.133 -22.6726 239.397 -19.8533 239.397Z" fill="black"/>
<path d="M487.639 -457.413C490.861 -457.413 493.474 -460 493.474 -463.191C493.474 -466.383 490.861 -468.97 487.639 -468.97C484.417 -468.97 481.804 -466.383 481.804 -463.191C481.804 -460 484.417 -457.413 487.639 -457.413Z" fill="black"/>
<path d="M403.201 -276.376C409.486 -276.376 414.582 -281.422 414.582 -287.647C414.582 -293.871 409.486 -298.918 403.201 -298.918C396.916 -298.918 391.821 -293.871 391.821 -287.647C391.821 -281.422 396.916 -276.376 403.201 -276.376Z" fill="black"/>
<path d="M-114.167 229.007C-111.408 229.007 -109.172 226.792 -109.172 224.06C-109.172 221.327 -111.408 219.112 -114.167 219.112C-116.926 219.112 -119.163 221.327 -119.163 224.06C-119.163 226.792 -116.926 229.007 -114.167 229.007Z" fill="black"/>
<path d="M-15.1359 -621.831C-11.3044 -621.831 -8.19839 -624.907 -8.19839 -628.702C-8.19839 -632.496 -11.3044 -635.573 -15.1359 -635.573C-18.9674 -635.573 -22.0734 -632.496 -22.0734 -628.702C-22.0734 -624.907 -18.9674 -621.831 -15.1359 -621.831Z" fill="black"/>
<path d="M-208.83 124.416C-204.421 124.416 -200.846 120.876 -200.846 116.509C-200.846 112.141 -204.421 108.601 -208.83 108.601C-213.24 108.601 -216.814 112.141 -216.814 116.509C-216.814 120.876 -213.24 124.416 -208.83 124.416Z" fill="black"/>
<path d="M121.036 -636.845C125.276 -636.845 128.713 -640.249 128.713 -644.448C128.713 -648.648 125.276 -652.052 121.036 -652.052C116.796 -652.052 113.359 -648.648 113.359 -644.448C113.359 -640.249 116.796 -636.845 121.036 -636.845Z" fill="black"/>
<path d="M156.269 132.629C161.511 132.629 165.761 128.42 165.761 123.228C165.761 118.036 161.511 113.827 156.269 113.827C151.027 113.827 146.777 118.036 146.777 123.228C146.777 128.42 151.027 132.629 156.269 132.629Z" fill="black"/>
<path d="M-326.396 -516.813C-322.532 -516.813 -319.4 -519.915 -319.4 -523.742C-319.4 -527.568 -322.532 -530.671 -326.396 -530.671C-330.26 -530.671 -333.392 -527.568 -333.392 -523.742C-333.392 -519.915 -330.26 -516.813 -326.396 -516.813Z" fill="black"/>
<path d="M16.7583 -526.01C23.6724 -526.01 29.2775 -531.561 29.2775 -538.409C29.2775 -545.257 23.6724 -550.808 16.7583 -550.808C9.84406 -550.808 4.23904 -545.257 4.23904 -538.409C4.23904 -531.561 9.84406 -526.01 16.7583 -526.01Z" fill="black"/>
<path d="M-124.18 -676.588C-120.54 -676.588 -117.589 -679.51 -117.589 -683.116C-117.589 -686.721 -120.54 -689.644 -124.18 -689.644C-127.82 -689.644 -130.771 -686.721 -130.771 -683.116C-130.771 -679.51 -127.82 -676.588 -124.18 -676.588Z" fill="black"/>
<path d="M-153.866 -471.655C-145.833 -471.655 -139.321 -478.104 -139.321 -486.06C-139.321 -494.015 -145.833 -500.465 -153.866 -500.465C-161.899 -500.465 -168.411 -494.015 -168.411 -486.06C-168.411 -478.104 -161.899 -471.655 -153.866 -471.655Z" fill="black"/>
<path d="M198.25 -649.701C201.771 -649.701 204.625 -652.528 204.625 -656.015C204.625 -659.502 201.771 -662.329 198.25 -662.329C194.728 -662.329 191.874 -659.502 191.874 -656.015C191.874 -652.528 194.728 -649.701 198.25 -649.701Z" fill="black"/>
<path d="M342.777 -158.076C352.564 -158.076 360.499 -165.934 360.499 -175.628C360.499 -185.321 352.564 -193.18 342.777 -193.18C332.989 -193.18 325.055 -185.321 325.055 -175.628C325.055 -165.934 332.989 -158.076 342.777 -158.076Z" fill="black"/>
<path d="M375.559 -437.739C381.77 -437.739 386.805 -442.726 386.805 -448.878C386.805 -455.029 381.77 -460.016 375.559 -460.016C369.348 -460.016 364.313 -455.029 364.313 -448.878C364.313 -442.726 369.348 -437.739 375.559 -437.739Z" fill="black"/>
<path d="M-209.894 -494.804C-204.944 -494.804 -200.932 -498.777 -200.932 -503.679C-200.932 -508.58 -204.944 -512.554 -209.894 -512.554C-214.843 -512.554 -218.855 -508.58 -218.855 -503.679C-218.855 -498.777 -214.843 -494.804 -209.894 -494.804Z" fill="black"/>
<path d="M284.809 73.9286C290.946 73.9286 295.921 69.0012 295.921 62.9229C295.921 56.8445 290.946 51.917 284.809 51.917C278.672 51.917 273.696 56.8445 273.696 62.9229C273.696 69.0012 278.672 73.9286 284.809 73.9286Z" fill="black"/>
<path d="M470.675 -193.589C475.719 -193.589 479.808 -197.638 479.808 -202.634C479.808 -207.63 475.719 -211.679 470.675 -211.679C465.631 -211.679 461.542 -207.63 461.542 -202.634C461.542 -197.638 465.631 -193.589 470.675 -193.589Z" fill="black"/>
<path d="M347.566 -222.345C358.561 -222.345 367.474 -231.172 367.474 -242.062C367.474 -252.951 358.561 -261.779 347.566 -261.779C336.571 -261.779 327.658 -252.951 327.658 -242.062C327.658 -231.172 336.571 -222.345 347.566 -222.345Z" fill="black"/>
<path d="M392.026 -360.561C397.113 -360.561 401.237 -364.645 401.237 -369.683C401.237 -374.721 397.113 -378.805 392.026 -378.805C386.94 -378.805 382.816 -374.721 382.816 -369.683C382.816 -364.645 386.94 -360.561 392.026 -360.561Z" fill="black"/>
<path d="M344.106 14.8536C350.976 14.8536 356.544 9.33836 356.544 2.53491C356.544 -4.26853 350.976 -9.78387 344.106 -9.78387C337.237 -9.78387 331.668 -4.26853 331.668 2.53491C331.668 9.33836 337.237 14.8536 344.106 14.8536Z" fill="black"/>
<path d="M50.4285 -644.523C56.0442 -644.523 60.5967 -649.031 60.5967 -654.593C60.5967 -660.155 56.0442 -664.664 50.4285 -664.664C44.8129 -664.664 40.2605 -660.155 40.2605 -654.593C40.2605 -649.031 44.8129 -644.523 50.4285 -644.523Z" fill="black"/>
<path d="M-136.023 154.708C-132.357 154.708 -129.385 151.764 -129.385 148.133C-129.385 144.503 -132.357 141.559 -136.023 141.559C-139.689 141.559 -142.661 144.503 -142.661 148.133C-142.661 151.764 -139.689 154.708 -136.023 154.708Z" fill="black"/>
<path d="M291.173 -660.878C294.414 -660.878 297.042 -663.48 297.042 -666.69C297.042 -669.9 294.414 -672.503 291.173 -672.503C287.932 -672.503 285.305 -669.9 285.305 -666.69C285.305 -663.48 287.932 -660.878 291.173 -660.878Z" fill="black"/>
<path d="M-280.757 -542.775C-277.604 -542.775 -275.048 -545.306 -275.048 -548.429C-275.048 -551.551 -277.604 -554.083 -280.757 -554.083C-283.909 -554.083 -286.465 -551.551 -286.465 -548.429C-286.465 -545.306 -283.909 -542.775 -280.757 -542.775Z" fill="black"/>
<path d="M137.123 149.855C142.282 149.855 146.465 145.713 146.465 140.603C146.465 135.494 142.282 131.351 137.123 131.351C131.964 131.351 127.781 135.494 127.781 140.603C127.781 145.713 131.964 149.855 137.123 149.855Z" fill="black"/>
<path d="M407.276 15.3585C412.897 15.3585 417.453 10.8454 417.453 5.27832C417.453 -0.288788 412.897 -4.80182 407.276 -4.80182C401.655 -4.80182 397.098 -0.288788 397.098 5.27832C397.098 10.8454 401.655 15.3585 407.276 15.3585Z" fill="black"/>
<path d="M-238.696 -79.0488C-227.468 -79.0488 -218.366 -88.0636 -218.366 -99.1841C-218.366 -110.305 -227.468 -119.32 -238.696 -119.32C-249.925 -119.32 -259.027 -110.305 -259.027 -99.1841C-259.027 -88.0636 -249.925 -79.0488 -238.696 -79.0488Z" fill="black"/>
<path d="M176.773 165.265C180.711 165.265 183.904 162.103 183.904 158.202C183.904 154.302 180.711 151.14 176.773 151.14C172.835 151.14 169.642 154.302 169.642 158.202C169.642 162.103 172.835 165.265 176.773 165.265Z" fill="black"/>
<path d="M236.53 -640.558C240.638 -640.558 243.968 -643.856 243.968 -647.925C243.968 -651.994 240.638 -655.292 236.53 -655.292C232.422 -655.292 229.092 -651.994 229.092 -647.925C229.092 -643.856 232.422 -640.558 236.53 -640.558Z" fill="black"/>
<path d="M-198.389 -552.111C-194.74 -552.111 -191.782 -555.04 -191.782 -558.654C-191.782 -562.267 -194.74 -565.197 -198.389 -565.197C-202.037 -565.197 -204.995 -562.267 -204.995 -558.654C-204.995 -555.04 -202.037 -552.111 -198.389 -552.111Z" fill="black"/>
<path d="M54.4055 -524.775C62.3729 -524.775 68.8319 -531.172 68.8319 -539.063C68.8319 -546.954 62.3729 -553.351 54.4055 -553.351C46.438 -553.351 39.9791 -546.954 39.9791 -539.063C39.9791 -531.172 46.438 -524.775 54.4055 -524.775Z" fill="black"/>
<path d="M-453.903 -64.2963C-451.141 -64.2963 -448.902 -66.5138 -448.902 -69.2493C-448.902 -71.9847 -451.141 -74.2023 -453.903 -74.2023C-456.665 -74.2023 -458.904 -71.9847 -458.904 -69.2493C-458.904 -66.5138 -456.665 -64.2963 -453.903 -64.2963Z" fill="black"/>
<path d="M424.877 34.0918C429.145 34.0918 432.604 30.6651 432.604 26.4381C432.604 22.2111 429.145 18.7845 424.877 18.7845C420.609 18.7845 417.149 22.2111 417.149 26.4381C417.149 30.6651 420.609 34.0918 424.877 34.0918Z" fill="black"/>
<path d="M-188.732 -501.906C-181.226 -501.906 -175.142 -507.932 -175.142 -515.365C-175.142 -522.798 -181.226 -528.824 -188.732 -528.824C-196.237 -528.824 -202.321 -522.798 -202.321 -515.365C-202.321 -507.932 -196.237 -501.906 -188.732 -501.906Z" fill="black"/>
<path d="M299.238 54.3975C306.778 54.3975 312.891 48.3438 312.891 40.8763C312.891 33.4087 306.778 27.3551 299.238 27.3551C291.699 27.3551 285.586 33.4087 285.586 40.8763C285.586 48.3438 291.699 54.3975 299.238 54.3975Z" fill="black"/>
<path d="M-335.568 -102.588C-330.048 -102.588 -325.574 -107.02 -325.574 -112.487C-325.574 -117.954 -330.048 -122.385 -335.568 -122.385C-341.088 -122.385 -345.563 -117.954 -345.563 -112.487C-345.563 -107.02 -341.088 -102.588 -335.568 -102.588Z" fill="black"/>
<path d="M-207.897 164.692C-204.371 164.692 -201.513 161.861 -201.513 158.369C-201.513 154.877 -204.371 152.046 -207.897 152.046C-211.423 152.046 -214.282 154.877 -214.282 158.369C-214.282 161.861 -211.423 164.692 -207.897 164.692Z" fill="black"/>
<path d="M-1.60779 -707.461C2.27367 -707.461 5.42022 -710.578 5.42022 -714.422C5.42022 -718.266 2.27367 -721.383 -1.60779 -721.383C-5.48925 -721.383 -8.6358 -718.266 -8.6358 -714.422C-8.6358 -710.578 -5.48925 -707.461 -1.60779 -707.461Z" fill="black"/>
<path d="M454.42 -404.028C458.063 -404.028 461.016 -406.953 461.016 -410.561C461.016 -414.169 458.063 -417.094 454.42 -417.094C450.777 -417.094 447.823 -414.169 447.823 -410.561C447.823 -406.953 450.777 -404.028 454.42 -404.028Z" fill="black"/>
<path d="M58.9126 -580.545C65.1729 -580.545 70.2479 -585.571 70.2479 -591.771C70.2479 -597.971 65.1729 -602.998 58.9126 -602.998C52.6523 -602.998 47.5772 -597.971 47.5772 -591.771C47.5772 -585.571 52.6523 -580.545 58.9126 -580.545Z" fill="black"/>
<path d="M437.059 -74.2028C440.983 -74.2028 444.164 -77.3536 444.164 -81.2402C444.164 -85.1268 440.983 -88.2775 437.059 -88.2775C433.135 -88.2775 429.953 -85.1268 429.953 -81.2402C429.953 -77.3536 433.135 -74.2028 437.059 -74.2028Z" fill="black"/>
<path d="M372.607 -383.139C380.219 -383.139 386.389 -389.251 386.389 -396.789C386.389 -404.328 380.219 -410.439 372.607 -410.439C364.995 -410.439 358.825 -404.328 358.825 -396.789C358.825 -389.251 364.995 -383.139 372.607 -383.139Z" fill="black"/>
<path d="M348.357 -437.063C352.755 -437.063 356.321 -440.594 356.321 -444.951C356.321 -449.307 352.755 -452.839 348.357 -452.839C343.958 -452.839 340.392 -449.307 340.392 -444.951C340.392 -440.594 343.958 -437.063 348.357 -437.063Z" fill="black"/>
<path d="M-265.417 82.5651C-261.253 82.5651 -257.877 79.2216 -257.877 75.0973C-257.877 70.973 -261.253 67.6296 -265.417 67.6296C-269.581 67.6296 -272.957 70.973 -272.957 75.0973C-272.957 79.2216 -269.581 82.5651 -265.417 82.5651Z" fill="black"/>
<path d="M331.774 56.4471C337.001 56.4471 341.237 52.251 341.237 47.0748C341.237 41.8986 337.001 37.7025 331.774 37.7025C326.548 37.7025 322.311 41.8986 322.311 47.0748C322.311 52.251 326.548 56.4471 331.774 56.4471Z" fill="black"/>
<path d="M264.259 94.856C269.733 94.856 274.17 90.4613 274.17 85.0403C274.17 79.6194 269.733 75.2247 264.259 75.2247C258.786 75.2247 254.349 79.6194 254.349 85.0403C254.349 90.4613 258.786 94.856 264.259 94.856Z" fill="black"/>
<path d="M-213.644 -34.5117C-202.024 -34.5117 -192.604 -43.8413 -192.604 -55.3499C-192.604 -66.8586 -202.024 -76.1882 -213.644 -76.1882C-225.264 -76.1882 -234.684 -66.8586 -234.684 -55.3499C-234.684 -43.8413 -225.264 -34.5117 -213.644 -34.5117Z" fill="black"/>
<path d="M-328.302 -348.343C-320.751 -348.343 -314.63 -354.406 -314.63 -361.884C-314.63 -369.363 -320.751 -375.425 -328.302 -375.425C-335.854 -375.425 -341.975 -369.363 -341.975 -361.884C-341.975 -354.406 -335.854 -348.343 -328.302 -348.343Z" fill="black"/>
<path d="M-369.729 -472.765C-366.988 -472.765 -364.767 -474.965 -364.767 -477.678C-364.767 -480.392 -366.988 -482.592 -369.729 -482.592C-372.469 -482.592 -374.69 -480.392 -374.69 -477.678C-374.69 -474.965 -372.469 -472.765 -369.729 -472.765Z" fill="black"/>
<path d="M165.504 -679.864C168.269 -679.864 170.511 -682.084 170.511 -684.824C170.511 -687.563 168.269 -689.783 165.504 -689.783C162.738 -689.783 160.496 -687.563 160.496 -684.824C160.496 -682.084 162.738 -679.864 165.504 -679.864Z" fill="black"/>
<path d="M499.834 -16.1924C502.37 -16.1924 504.425 -18.2284 504.425 -20.74C504.425 -23.2515 502.37 -25.2875 499.834 -25.2875C497.298 -25.2875 495.242 -23.2515 495.242 -20.74C495.242 -18.2284 497.298 -16.1924 499.834 -16.1924Z" fill="black"/>
<path d="M-335.578 -298.336C-330.452 -298.336 -326.296 -302.451 -326.296 -307.528C-326.296 -312.605 -330.452 -316.721 -335.578 -316.721C-340.704 -316.721 -344.859 -312.605 -344.859 -307.528C-344.859 -302.451 -340.704 -298.336 -335.578 -298.336Z" fill="black"/>
<path d="M93.3182 -645.098C98.0256 -645.098 101.842 -648.877 101.842 -653.539C101.842 -658.202 98.0256 -661.981 93.3182 -661.981C88.6108 -661.981 84.7947 -658.202 84.7947 -653.539C84.7947 -648.877 88.6108 -645.098 93.3182 -645.098Z" fill="black"/>
<path d="M435.772 -178.379C441.045 -178.379 445.319 -182.613 445.319 -187.835C445.319 -193.057 441.045 -197.291 435.772 -197.291C430.499 -197.291 426.225 -193.057 426.225 -187.835C426.225 -182.613 430.499 -178.379 435.772 -178.379Z" fill="black"/>
<path d="M-334.993 -378.875C-327.95 -378.875 -322.241 -384.53 -322.241 -391.504C-322.241 -398.479 -327.95 -404.133 -334.993 -404.133C-342.035 -404.133 -347.744 -398.479 -347.744 -391.504C-347.744 -384.53 -342.035 -378.875 -334.993 -378.875Z" fill="black"/>
<path d="M-398.993 -390.92C-395.59 -390.92 -392.832 -393.652 -392.832 -397.021C-392.832 -400.391 -395.59 -403.123 -398.993 -403.123C-402.395 -403.123 -405.153 -400.391 -405.153 -397.021C-405.153 -393.652 -402.395 -390.92 -398.993 -390.92Z" fill="black"/>
<path d="M164.798 -639.175C170.671 -639.175 175.432 -643.891 175.432 -649.707C175.432 -655.524 170.671 -660.239 164.798 -660.239C158.925 -660.239 154.164 -655.524 154.164 -649.707C154.164 -643.891 158.925 -639.175 164.798 -639.175Z" fill="black"/>
<path d="M143.295 212.668C147.588 212.668 151.069 209.22 151.069 204.968C151.069 200.715 147.588 197.268 143.295 197.268C139.001 197.268 135.52 200.715 135.52 204.968C135.52 209.22 139.001 212.668 143.295 212.668Z" fill="black"/>
<path d="M-19.4843 129.93C-14.7515 129.93 -10.9149 126.131 -10.9149 121.443C-10.9149 116.756 -14.7515 112.956 -19.4843 112.956C-24.217 112.956 -28.0537 116.756 -28.0537 121.443C-28.0537 126.131 -24.217 129.93 -19.4843 129.93Z" fill="black"/>
<path d="M-1.79756 -569.594C4.58246 -569.594 9.75443 -574.716 9.75443 -581.035C9.75443 -587.354 4.58246 -592.476 -1.79756 -592.476C-8.17757 -592.476 -13.3496 -587.354 -13.3496 -581.035C-13.3496 -574.716 -8.17757 -569.594 -1.79756 -569.594Z" fill="black"/>
<path d="M260.604 -445.709C270.354 -445.709 278.257 -453.536 278.257 -463.192C278.257 -472.848 270.354 -480.676 260.604 -480.676C250.855 -480.676 242.951 -472.848 242.951 -463.192C242.951 -453.536 250.855 -445.709 260.604 -445.709Z" fill="black"/>
<path d="M47.4045 -705.385C50.2621 -705.385 52.5786 -707.679 52.5786 -710.51C52.5786 -713.34 50.2621 -715.634 47.4045 -715.634C44.5469 -715.634 42.2304 -713.34 42.2304 -710.51C42.2304 -707.679 44.5469 -705.385 47.4045 -705.385Z" fill="black"/>
<path d="M-203.716 70.4416C-199.319 70.4416 -195.754 66.9109 -195.754 62.5555C-195.754 58.2001 -199.319 54.6694 -203.716 54.6694C-208.114 54.6694 -211.679 58.2001 -211.679 62.5555C-211.679 66.9109 -208.114 70.4416 -203.716 70.4416Z" fill="black"/>
<path d="M247.815 154.608C251.24 154.608 254.016 151.858 254.016 148.467C254.016 145.075 251.24 142.326 247.815 142.326C244.391 142.326 241.615 145.075 241.615 148.467C241.615 151.858 244.391 154.608 247.815 154.608Z" fill="black"/>
<path d="M-446.842 -242.973C-444.26 -242.973 -442.167 -245.045 -442.167 -247.603C-442.167 -250.16 -444.26 -252.233 -446.842 -252.233C-449.424 -252.233 -451.517 -250.16 -451.517 -247.603C-451.517 -245.045 -449.424 -242.973 -446.842 -242.973Z" fill="black"/>
<path d="M308.991 -75.3294C315.816 -75.3294 321.349 -80.8095 321.349 -87.5695C321.349 -94.3294 315.816 -99.8094 308.991 -99.8094C302.165 -99.8094 296.632 -94.3294 296.632 -87.5695C296.632 -80.8095 302.165 -75.3294 308.991 -75.3294Z" fill="black"/>
<path d="M-372.907 -221.909C-367.842 -221.909 -363.736 -225.975 -363.736 -230.991C-363.736 -236.007 -367.842 -240.074 -372.907 -240.074C-377.971 -240.074 -382.077 -236.007 -382.077 -230.991C-382.077 -225.975 -377.971 -221.909 -372.907 -221.909Z" fill="black"/>
<path d="M-95.876 -632.125C-90.4755 -632.125 -86.0975 -636.461 -86.0975 -641.81C-86.0975 -647.158 -90.4755 -651.494 -95.876 -651.494C-101.277 -651.494 -105.655 -647.158 -105.655 -641.81C-105.655 -636.461 -101.277 -632.125 -95.876 -632.125Z" fill="black"/>
<path d="M192.186 107.198C199.974 107.198 206.287 100.945 206.287 93.2318C206.287 85.5187 199.974 79.2661 192.186 79.2661C184.398 79.2661 178.085 85.5187 178.085 93.2318C178.085 100.945 184.398 107.198 192.186 107.198Z" fill="black"/>
<path d="M-330.039 -532.705C-326.711 -532.705 -324.013 -535.377 -324.013 -538.673C-324.013 -541.969 -326.711 -544.641 -330.039 -544.641C-333.367 -544.641 -336.065 -541.969 -336.065 -538.673C-336.065 -535.377 -333.367 -532.705 -330.039 -532.705Z" fill="black"/>
<path d="M-283.523 -27.6121C-276.886 -27.6121 -271.505 -32.9411 -271.505 -39.5146C-271.505 -46.0882 -276.886 -51.4172 -283.523 -51.4172C-290.16 -51.4172 -295.541 -46.0882 -295.541 -39.5146C-295.541 -32.9411 -290.16 -27.6121 -283.523 -27.6121Z" fill="black"/>
<path d="M-415.653 -128.064C-412.049 -128.064 -409.128 -130.957 -409.128 -134.527C-409.128 -138.096 -412.049 -140.99 -415.653 -140.99C-419.257 -140.99 -422.179 -138.096 -422.179 -134.527C-422.179 -130.957 -419.257 -128.064 -415.653 -128.064Z" fill="black"/>
<path d="M-394.182 -351.464C-390.338 -351.464 -387.221 -354.551 -387.221 -358.358C-387.221 -362.166 -390.338 -365.252 -394.182 -365.252C-398.027 -365.252 -401.143 -362.166 -401.143 -358.358C-401.143 -354.551 -398.027 -351.464 -394.182 -351.464Z" fill="black"/>
<path d="M456.087 -112.079C459.679 -112.079 462.591 -114.964 462.591 -118.522C462.591 -122.079 459.679 -124.964 456.087 -124.964C452.494 -124.964 449.582 -122.079 449.582 -118.522C449.582 -114.964 452.494 -112.079 456.087 -112.079Z" fill="black"/>
<path d="M444.246 -222.005C450.896 -222.005 456.288 -227.345 456.288 -233.931C456.288 -240.518 450.896 -245.857 444.246 -245.857C437.596 -245.857 432.205 -240.518 432.205 -233.931C432.205 -227.345 437.596 -222.005 444.246 -222.005Z" fill="black"/>
<path d="M-257.86 -526.304C-253.991 -526.304 -250.855 -529.411 -250.855 -533.243C-250.855 -537.075 -253.991 -540.182 -257.86 -540.182C-261.73 -540.182 -264.867 -537.075 -264.867 -533.243C-264.867 -529.411 -261.73 -526.304 -257.86 -526.304Z" fill="black"/>
<path d="M22.2781 -688.786C25.8297 -688.786 28.7087 -691.638 28.7087 -695.155C28.7087 -698.673 25.8297 -701.524 22.2781 -701.524C18.7266 -701.524 15.8475 -698.673 15.8475 -695.155C15.8475 -691.638 18.7266 -688.786 22.2781 -688.786Z" fill="black"/>
<path d="M-321.505 -315.193C-313.735 -315.193 -307.437 -321.432 -307.437 -329.126C-307.437 -336.821 -313.735 -343.059 -321.505 -343.059C-329.274 -343.059 -335.573 -336.821 -335.573 -329.126C-335.573 -321.432 -329.274 -315.193 -321.505 -315.193Z" fill="black"/>
<path d="M376.196 -309.453C384.429 -309.453 391.104 -316.063 391.104 -324.218C391.104 -332.373 384.429 -338.983 376.196 -338.983C367.962 -338.983 361.288 -332.373 361.288 -324.218C361.288 -316.063 367.962 -309.453 376.196 -309.453Z" fill="black"/>
<path d="M404.833 -429.12C408.212 -429.12 410.95 -431.833 410.95 -435.179C410.95 -438.525 408.212 -441.237 404.833 -441.237C401.455 -441.237 398.716 -438.525 398.716 -435.179C398.716 -431.833 401.455 -429.12 404.833 -429.12Z" fill="black"/>
<path d="M188.994 -614.973C192.533 -614.973 195.402 -617.814 195.402 -621.318C195.402 -624.823 192.533 -627.664 188.994 -627.664C185.456 -627.664 182.587 -624.823 182.587 -621.318C182.587 -617.814 185.456 -614.973 188.994 -614.973Z" fill="black"/>
<path d="M316.566 -624.933C320.271 -624.933 323.274 -627.908 323.274 -631.577C323.274 -635.246 320.271 -638.22 316.566 -638.22C312.862 -638.22 309.858 -635.246 309.858 -631.577C309.858 -627.908 312.862 -624.933 316.566 -624.933Z" fill="black"/>
<path d="M-182.355 142.263C-177.934 142.263 -174.349 138.712 -174.349 134.333C-174.349 129.954 -177.934 126.404 -182.355 126.404C-186.777 126.404 -190.361 129.954 -190.361 134.333C-190.361 138.712 -186.777 142.263 -182.355 142.263Z" fill="black"/>
<path d="M-364.628 -193.351C-359.382 -193.351 -355.129 -197.563 -355.129 -202.759C-355.129 -207.955 -359.382 -212.167 -364.628 -212.167C-369.874 -212.167 -374.127 -207.955 -374.127 -202.759C-374.127 -197.563 -369.874 -193.351 -364.628 -193.351Z" fill="black"/>
<path d="M-414.686 -0.236633C-410.819 -0.236633 -407.685 -3.34105 -407.685 -7.17041C-407.685 -10.9998 -410.819 -14.104 -414.686 -14.104C-418.552 -14.104 -421.686 -10.9998 -421.686 -7.17041C-421.686 -3.34105 -418.552 -0.236633 -414.686 -0.236633Z" fill="black"/>
<path d="M-108.343 -598.08C-104.543 -598.08 -101.463 -601.131 -101.463 -604.894C-101.463 -608.657 -104.543 -611.708 -108.343 -611.708C-112.143 -611.708 -115.223 -608.657 -115.223 -604.894C-115.223 -601.131 -112.143 -598.08 -108.343 -598.08Z" fill="black"/>
<path d="M152.656 -590.55C160.411 -590.55 166.697 -596.776 166.697 -604.456C166.697 -612.136 160.411 -618.362 152.656 -618.362C144.902 -618.362 138.616 -612.136 138.616 -604.456C138.616 -596.776 144.902 -590.55 152.656 -590.55Z" fill="black"/>
<path d="M-168.353 183.202C-164.98 183.202 -162.245 180.494 -162.245 177.153C-162.245 173.812 -164.98 171.103 -168.353 171.103C-171.726 171.103 -174.461 173.812 -174.461 177.153C-174.461 180.494 -171.726 183.202 -168.353 183.202Z" fill="black"/>
<path d="M-237.966 59.3875C-231.619 59.3875 -226.473 54.2913 -226.473 48.0049C-226.473 41.7186 -231.619 36.6224 -237.966 36.6224C-244.313 36.6224 -249.459 41.7186 -249.459 48.0049C-249.459 54.2913 -244.313 59.3875 -237.966 59.3875Z" fill="black"/>
<path d="M-308.141 -542.669C-304.687 -542.669 -301.887 -545.442 -301.887 -548.864C-301.887 -552.285 -304.687 -555.058 -308.141 -555.058C-311.596 -555.058 -314.396 -552.285 -314.396 -548.864C-314.396 -545.442 -311.596 -542.669 -308.141 -542.669Z" fill="black"/>
<path d="M-196.663 99.5675C-190.119 99.5675 -184.813 94.3132 -184.813 87.8316C-184.813 81.3501 -190.119 76.0957 -196.663 76.0957C-203.207 76.0957 -208.513 81.3501 -208.513 87.8316C-208.513 94.3132 -203.207 99.5675 -196.663 99.5675Z" fill="black"/>
<path d="M-322.574 -119.179C-314.618 -119.179 -308.168 -125.566 -308.168 -133.446C-308.168 -141.326 -314.618 -147.714 -322.574 -147.714C-330.53 -147.714 -336.98 -141.326 -336.98 -133.446C-336.98 -125.566 -330.53 -119.179 -322.574 -119.179Z" fill="black"/>
<path d="M-158.976 -598.803C-154.854 -598.803 -151.512 -602.113 -151.512 -606.196C-151.512 -610.279 -154.854 -613.589 -158.976 -613.589C-163.099 -613.589 -166.441 -610.279 -166.441 -606.196C-166.441 -602.113 -163.099 -598.803 -158.976 -598.803Z" fill="black"/>
<path d="M237.144 60.5517C246.138 60.5517 253.429 53.3309 253.429 44.4237C253.429 35.5165 246.138 28.2957 237.144 28.2957C228.151 28.2957 220.86 35.5165 220.86 44.4237C220.86 53.3309 228.151 60.5517 237.144 60.5517Z" fill="black"/>
<path d="M-16.2831 -539.547C-8.81099 -539.547 -2.75367 -545.546 -2.75367 -552.947C-2.75367 -560.347 -8.81099 -566.346 -16.2831 -566.346C-23.7552 -566.346 -29.8125 -560.347 -29.8125 -552.947C-29.8125 -545.546 -23.7552 -539.547 -16.2831 -539.547Z" fill="black"/>
<path d="M-131.331 -646.576C-126.861 -646.576 -123.237 -650.165 -123.237 -654.592C-123.237 -659.019 -126.861 -662.608 -131.331 -662.608C-135.801 -662.608 -139.425 -659.019 -139.425 -654.592C-139.425 -650.165 -135.801 -646.576 -131.331 -646.576Z" fill="black"/>
<path d="M-411.792 -313.462C-408.077 -313.462 -405.064 -316.446 -405.064 -320.126C-405.064 -323.806 -408.077 -326.789 -411.792 -326.789C-415.508 -326.789 -418.52 -323.806 -418.52 -320.126C-418.52 -316.446 -415.508 -313.462 -411.792 -313.462Z" fill="black"/>
<path d="M-402.389 -54.9655C-399.269 -54.9655 -396.74 -57.4703 -396.74 -60.56C-396.74 -63.6497 -399.269 -66.1544 -402.389 -66.1544C-405.509 -66.1544 -408.038 -63.6497 -408.038 -60.56C-408.038 -57.4703 -405.509 -54.9655 -402.389 -54.9655Z" fill="black"/>
<path d="M496.173 -310.731C499.174 -310.731 501.607 -313.14 501.607 -316.112C501.607 -319.084 499.174 -321.494 496.173 -321.494C493.172 -321.494 490.74 -319.084 490.74 -316.112C490.74 -313.14 493.172 -310.731 496.173 -310.731Z" fill="black"/>
<path d="M-289.596 -406.224C-285.031 -406.224 -281.33 -409.89 -281.33 -414.411C-281.33 -418.933 -285.031 -422.598 -289.596 -422.598C-294.162 -422.598 -297.863 -418.933 -297.863 -414.411C-297.863 -409.89 -294.162 -406.224 -289.596 -406.224Z" fill="black"/>
<path d="M472.653 -344.08C476.42 -344.08 479.473 -347.104 479.473 -350.834C479.473 -354.564 476.42 -357.588 472.653 -357.588C468.887 -357.588 465.834 -354.564 465.834 -350.834C465.834 -347.104 468.887 -344.08 472.653 -344.08Z" fill="black"/>
<path d="M-82.7461 -605.664C-78.6813 -605.664 -75.386 -608.928 -75.386 -612.954C-75.386 -616.98 -78.6813 -620.243 -82.7461 -620.243C-86.811 -620.243 -90.1062 -616.98 -90.1062 -612.954C-90.1062 -608.928 -86.811 -605.664 -82.7461 -605.664Z" fill="black"/>
<path d="M329.22 -563.044C333.462 -563.044 336.902 -566.451 336.902 -570.653C336.902 -574.855 333.462 -578.262 329.22 -578.262C324.977 -578.262 321.537 -574.855 321.537 -570.653C321.537 -566.451 324.977 -563.044 329.22 -563.044Z" fill="black"/>
<path d="M374.995 -481.814C381.4 -481.814 386.592 -486.956 386.592 -493.299C386.592 -499.643 381.4 -504.785 374.995 -504.785C368.59 -504.785 363.398 -499.643 363.398 -493.299C363.398 -486.956 368.59 -481.814 374.995 -481.814Z" fill="black"/>
<path d="M405.326 -179.982C412.085 -179.982 417.564 -185.409 417.564 -192.103C417.564 -198.797 412.085 -204.224 405.326 -204.224C398.567 -204.224 393.088 -198.797 393.088 -192.103C393.088 -185.409 398.567 -179.982 405.326 -179.982Z" fill="black"/>
<path d="M148.502 114.179C157.693 114.179 165.143 106.8 165.143 97.6981C165.143 88.5959 157.693 81.2171 148.502 81.2171C139.312 81.2171 131.862 88.5959 131.862 97.6981C131.862 106.8 139.312 114.179 148.502 114.179Z" fill="black"/>
<path d="M453.126 -34.2596C458.153 -34.2596 462.227 -38.2955 462.227 -43.2739C462.227 -48.2524 458.153 -52.2882 453.126 -52.2882C448.099 -52.2882 444.024 -48.2524 444.024 -43.2739C444.024 -38.2955 448.099 -34.2596 453.126 -34.2596Z" fill="black"/>
<path d="M287.078 -403.199C295.323 -403.199 302.007 -409.819 302.007 -417.985C302.007 -426.151 295.323 -432.771 287.078 -432.771C278.833 -432.771 272.148 -426.151 272.148 -417.985C272.148 -409.819 278.833 -403.199 287.078 -403.199Z" fill="black"/>
<path d="M-271.424 -435.657C-265.41 -435.657 -260.534 -440.486 -260.534 -446.443C-260.534 -452.4 -265.41 -457.229 -271.424 -457.229C-277.439 -457.229 -282.314 -452.4 -282.314 -446.443C-282.314 -440.486 -277.439 -435.657 -271.424 -435.657Z" fill="black"/>
<path d="M33.7405 -618.177C40.6695 -618.177 46.2866 -623.74 46.2866 -630.603C46.2866 -637.465 40.6695 -643.028 33.7405 -643.028C26.8115 -643.028 21.1944 -637.465 21.1944 -630.603C21.1944 -623.74 26.8115 -618.177 33.7405 -618.177Z" fill="black"/>
<path d="M-436.094 -137.475C-432.588 -137.475 -429.746 -140.29 -429.746 -143.762C-429.746 -147.234 -432.588 -150.048 -436.094 -150.048C-439.599 -150.048 -442.441 -147.234 -442.441 -143.762C-442.441 -140.29 -439.599 -137.475 -436.094 -137.475Z" fill="black"/>
<path d="M121.255 -596.1C127.404 -596.1 132.389 -601.037 132.389 -607.127C132.389 -613.216 127.404 -618.153 121.255 -618.153C115.107 -618.153 110.122 -613.216 110.122 -607.127C110.122 -601.037 115.107 -596.1 121.255 -596.1Z" fill="black"/>
<path d="M-398.422 6.33557C-393.656 6.33557 -389.792 2.50873 -389.792 -2.21191C-389.792 -6.93256 -393.656 -10.7595 -398.422 -10.7595C-403.189 -10.7595 -407.053 -6.93256 -407.053 -2.21191C-407.053 2.50873 -403.189 6.33557 -398.422 6.33557Z" fill="black"/>
<path d="M-118.154 -691.967C-115.655 -691.967 -113.629 -693.974 -113.629 -696.449C-113.629 -698.925 -115.655 -700.932 -118.154 -700.932C-120.654 -700.932 -122.68 -698.925 -122.68 -696.449C-122.68 -693.974 -120.654 -691.967 -118.154 -691.967Z" fill="black"/>
<path d="M-93.142 96.2818C-85.843 96.2818 -79.926 90.4215 -79.926 83.1925C-79.926 75.9635 -85.843 70.1033 -93.142 70.1033C-100.441 70.1033 -106.358 75.9635 -106.358 83.1925C-106.358 90.4215 -100.441 96.2818 -93.142 96.2818Z" fill="black"/>
<path d="M-52.5264 244.357C-49.1401 244.357 -46.3949 241.638 -46.3949 238.284C-46.3949 234.931 -49.1401 232.212 -52.5264 232.212C-55.9127 232.212 -58.6578 234.931 -58.6578 238.284C-58.6578 241.638 -55.9127 244.357 -52.5264 244.357Z" fill="black"/>
<path d="M272.937 -577.118C276.597 -577.118 279.565 -580.057 279.565 -583.682C279.565 -587.307 276.597 -590.246 272.937 -590.246C269.276 -590.246 266.309 -587.307 266.309 -583.682C266.309 -580.057 269.276 -577.118 272.937 -577.118Z" fill="black"/>
<path d="M-432.881 -341.682C-429.272 -341.682 -426.346 -344.58 -426.346 -348.154C-426.346 -351.729 -429.272 -354.626 -432.881 -354.626C-436.49 -354.626 -439.416 -351.729 -439.416 -348.154C-439.416 -344.58 -436.49 -341.682 -432.881 -341.682Z" fill="black"/>
<path d="M483.835 -214.591C487.909 -214.591 491.212 -217.862 491.212 -221.897C491.212 -225.932 487.909 -229.204 483.835 -229.204C479.76 -229.204 476.458 -225.932 476.458 -221.897C476.458 -217.862 479.76 -214.591 483.835 -214.591Z" fill="black"/>
<path d="M427.184 -152.502C431.989 -152.502 435.883 -156.359 435.883 -161.117C435.883 -165.875 431.989 -169.733 427.184 -169.733C422.38 -169.733 418.486 -165.875 418.486 -161.117C418.486 -156.359 422.38 -152.502 427.184 -152.502Z" fill="black"/>
<path d="M-378.848 -423.657C-374.811 -423.657 -371.538 -426.899 -371.538 -430.897C-371.538 -434.895 -374.811 -438.137 -378.848 -438.137C-382.885 -438.137 -386.158 -434.895 -386.158 -430.897C-386.158 -426.899 -382.885 -423.657 -378.848 -423.657Z" fill="black"/>
<path d="M-312.629 -487.349C-309.05 -487.349 -306.148 -490.222 -306.148 -493.767C-306.148 -497.312 -309.05 -500.186 -312.629 -500.186C-316.208 -500.186 -319.11 -497.312 -319.11 -493.767C-319.11 -490.222 -316.208 -487.349 -312.629 -487.349Z" fill="black"/>
<path d="M-280.893 23.029C-276.766 23.029 -273.421 19.7157 -273.421 15.6285C-273.421 11.5414 -276.766 8.22815 -280.893 8.22815C-285.019 8.22815 -288.365 11.5414 -288.365 15.6285C-288.365 19.7157 -285.019 23.029 -280.893 23.029Z" fill="black"/>
<path d="M-414.701 -81.235C-411.737 -81.235 -409.334 -83.6148 -409.334 -86.5505C-409.334 -89.4861 -411.737 -91.866 -414.701 -91.866C-417.665 -91.866 -420.068 -89.4861 -420.068 -86.5505C-420.068 -83.6148 -417.665 -81.235 -414.701 -81.235Z" fill="black"/>
<path d="M-332.337 17.3889C-328.219 17.3889 -324.881 14.0825 -324.881 10.004C-324.881 5.92539 -328.219 2.61902 -332.337 2.61902C-336.456 2.61902 -339.794 5.92539 -339.794 10.004C-339.794 14.0825 -336.456 17.3889 -332.337 17.3889Z" fill="black"/>
<path d="M421.245 87.2757C425.217 87.2757 428.437 84.0866 428.437 80.1527C428.437 76.2188 425.217 73.0298 421.245 73.0298C417.273 73.0298 414.053 76.2188 414.053 80.1527C414.053 84.0866 417.273 87.2757 421.245 87.2757Z" fill="black"/>
<path d="M200.382 -527.615C207.956 -527.615 214.096 -533.696 214.096 -541.197C214.096 -548.699 207.956 -554.78 200.382 -554.78C192.808 -554.78 186.668 -548.699 186.668 -541.197C186.668 -533.696 192.808 -527.615 200.382 -527.615Z" fill="black"/>
<path d="M145.729 190.141C151.057 190.141 155.376 185.864 155.376 180.587C155.376 175.311 151.057 171.034 145.729 171.034C140.402 171.034 136.083 175.311 136.083 180.587C136.083 185.864 140.402 190.141 145.729 190.141Z" fill="black"/>
<path d="M423.616 -359.548C427.849 -359.548 431.28 -362.947 431.28 -367.139C431.28 -371.33 427.849 -374.729 423.616 -374.729C419.384 -374.729 415.953 -371.33 415.953 -367.139C415.953 -362.947 419.384 -359.548 423.616 -359.548Z" fill="black"/>
<path d="M105.438 200.078C109.145 200.078 112.15 197.101 112.15 193.429C112.15 189.758 109.145 186.781 105.438 186.781C101.73 186.781 98.725 189.758 98.725 193.429C98.725 197.101 101.73 200.078 105.438 200.078Z" fill="black"/>
<path d="M438.207 -427.606C441.211 -427.606 443.646 -430.018 443.646 -432.993C443.646 -435.969 441.211 -438.381 438.207 -438.381C435.203 -438.381 432.768 -435.969 432.768 -432.993C432.768 -430.018 435.203 -427.606 438.207 -427.606Z" fill="black"/>
<path d="M-281.801 -591.391C-277.827 -591.391 -274.605 -594.582 -274.605 -598.518C-274.605 -602.454 -277.827 -605.645 -281.801 -605.645C-285.776 -605.645 -288.998 -602.454 -288.998 -598.518C-288.998 -594.582 -285.776 -591.391 -281.801 -591.391Z" fill="black"/>
<path d="M-320.729 -240.39C-311.677 -240.39 -304.338 -247.658 -304.338 -256.624C-304.338 -265.589 -311.677 -272.858 -320.729 -272.858C-329.782 -272.858 -337.12 -265.589 -337.12 -256.624C-337.12 -247.658 -329.782 -240.39 -320.729 -240.39Z" fill="black"/>
<path d="M-193.186 -654.581C-189.889 -654.581 -187.216 -657.228 -187.216 -660.493C-187.216 -663.759 -189.889 -666.406 -193.186 -666.406C-196.483 -666.406 -199.155 -663.759 -199.155 -660.493C-199.155 -657.228 -196.483 -654.581 -193.186 -654.581Z" fill="black"/>
<path d="M-103.163 -574.789C-98.6 -574.789 -94.9014 -578.452 -94.9014 -582.97C-94.9014 -587.489 -98.6 -591.152 -103.163 -591.152C-107.725 -591.152 -111.424 -587.489 -111.424 -582.97C-111.424 -578.452 -107.725 -574.789 -103.163 -574.789Z" fill="black"/>
<path d="M486.532 -15.0533C489.958 -15.0533 492.736 -17.8046 492.736 -21.1983C492.736 -24.592 489.958 -27.3431 486.532 -27.3431C483.105 -27.3431 480.327 -24.592 480.327 -21.1983C480.327 -17.8046 483.105 -15.0533 486.532 -15.0533Z" fill="black"/>
<path d="M454.549 -499.163C457.603 -499.163 460.078 -501.615 460.078 -504.639C460.078 -507.663 457.603 -510.115 454.549 -510.115C451.495 -510.115 449.019 -507.663 449.019 -504.639C449.019 -501.615 451.495 -499.163 454.549 -499.163Z" fill="black"/>
<path d="M403.124 -553.851C405.753 -553.851 407.885 -555.962 407.885 -558.566C407.885 -561.17 405.753 -563.28 403.124 -563.28C400.495 -563.28 398.364 -561.17 398.364 -558.566C398.364 -555.962 400.495 -553.851 403.124 -553.851Z" fill="black"/>
<path d="M342.072 98.3757C346.38 98.3757 349.873 94.9167 349.873 90.65C349.873 86.3832 346.38 82.9242 342.072 82.9242C337.764 82.9242 334.271 86.3832 334.271 90.65C334.271 94.9167 337.764 98.3757 342.072 98.3757Z" fill="black"/>
<path d="M-178.485 -676.641C-175.889 -676.641 -173.785 -678.725 -173.785 -681.296C-173.785 -683.867 -175.889 -685.951 -178.485 -685.951C-181.081 -685.951 -183.185 -683.867 -183.185 -681.296C-183.185 -678.725 -181.081 -676.641 -178.485 -676.641Z" fill="black"/>
<path d="M236.208 -622.069C241.615 -622.069 245.998 -626.41 245.998 -631.765C245.998 -637.119 241.615 -641.46 236.208 -641.46C230.801 -641.46 226.418 -637.119 226.418 -631.765C226.418 -626.41 230.801 -622.069 236.208 -622.069Z" fill="black"/>
<path d="M-322.68 34.7421C-317.813 34.7421 -313.867 30.8345 -313.867 26.0142C-313.867 21.194 -317.813 17.2864 -322.68 17.2864C-327.547 17.2864 -331.492 21.194 -331.492 26.0142C-331.492 30.8345 -327.547 34.7421 -322.68 34.7421Z" fill="black"/>
<path d="M277.085 -526.675C282.26 -526.675 286.455 -530.829 286.455 -535.954C286.455 -541.079 282.26 -545.234 277.085 -545.234C271.911 -545.234 267.716 -541.079 267.716 -535.954C267.716 -530.829 271.911 -526.675 277.085 -526.675Z" fill="black"/>
<path d="M-425.465 -247.036C-422.617 -247.036 -420.309 -249.322 -420.309 -252.143C-420.309 -254.963 -422.617 -257.249 -425.465 -257.249C-428.313 -257.249 -430.621 -254.963 -430.621 -252.143C-430.621 -249.322 -428.313 -247.036 -425.465 -247.036Z" fill="black"/>
<path d="M-26.2925 -635.603C-22.4445 -635.603 -19.3252 -638.692 -19.3252 -642.503C-19.3252 -646.314 -22.4445 -649.404 -26.2925 -649.404C-30.1404 -649.404 -33.2598 -646.314 -33.2598 -642.503C-33.2598 -638.692 -30.1404 -635.603 -26.2925 -635.603Z" fill="black"/>
<path d="M-84.3654 145.405C-77.7367 145.405 -72.3631 140.083 -72.3631 133.518C-72.3631 126.953 -77.7367 121.631 -84.3654 121.631C-90.9941 121.631 -96.3678 126.953 -96.3678 133.518C-96.3678 140.083 -90.9941 145.405 -84.3654 145.405Z" fill="black"/>
<path d="M-337.391 -567.404C-334.548 -567.404 -332.243 -569.686 -332.243 -572.502C-332.243 -575.317 -334.548 -577.6 -337.391 -577.6C-340.233 -577.6 -342.538 -575.317 -342.538 -572.502C-342.538 -569.686 -340.233 -567.404 -337.391 -567.404Z" fill="black"/>
<path d="M-220.271 -599.845C-214.681 -599.845 -210.149 -604.334 -210.149 -609.87C-210.149 -615.407 -214.681 -619.895 -220.271 -619.895C-225.861 -619.895 -230.393 -615.407 -230.393 -609.87C-230.393 -604.334 -225.861 -599.845 -220.271 -599.845Z" fill="black"/>
<path d="M72.0818 -701.552C76.1345 -701.552 79.4198 -704.806 79.4198 -708.819C79.4198 -712.833 76.1345 -716.087 72.0818 -716.087C68.0291 -716.087 64.7438 -712.833 64.7438 -708.819C64.7438 -704.806 68.0291 -701.552 72.0818 -701.552Z" fill="black"/>
<path d="M256.833 -643.264C260.148 -643.264 262.835 -645.925 262.835 -649.208C262.835 -652.491 260.148 -655.152 256.833 -655.152C253.518 -655.152 250.831 -652.491 250.831 -649.208C250.831 -645.925 253.518 -643.264 256.833 -643.264Z" fill="black"/>
<path d="M-390.523 -180.436C-385.513 -180.436 -381.451 -184.459 -381.451 -189.421C-381.451 -194.383 -385.513 -198.406 -390.523 -198.406C-395.534 -198.406 -399.595 -194.383 -399.595 -189.421C-399.595 -184.459 -395.534 -180.436 -390.523 -180.436Z" fill="black"/>
<path d="M363.077 -349.06C369.35 -349.06 374.435 -354.097 374.435 -360.309C374.435 -366.522 369.35 -371.558 363.077 -371.558C356.804 -371.558 351.719 -366.522 351.719 -360.309C351.719 -354.097 356.804 -349.06 363.077 -349.06Z" fill="black"/>
<path d="M298.487 -585.492C301.687 -585.492 304.282 -588.062 304.282 -591.231C304.282 -594.401 301.687 -596.97 298.487 -596.97C295.286 -596.97 292.692 -594.401 292.692 -591.231C292.692 -588.062 295.286 -585.492 298.487 -585.492Z" fill="black"/>
<path d="M237.428 -537.536C241.721 -537.536 245.201 -540.983 245.201 -545.235C245.201 -549.486 241.721 -552.933 237.428 -552.933C233.135 -552.933 229.654 -549.486 229.654 -545.235C229.654 -540.983 233.135 -537.536 237.428 -537.536Z" fill="black"/>
<path d="M-21.1804 -676.343C-17.8895 -676.343 -15.2217 -678.985 -15.2217 -682.244C-15.2217 -685.503 -17.8895 -688.146 -21.1804 -688.146C-24.4713 -688.146 -27.1391 -685.503 -27.1391 -682.244C-27.1391 -678.985 -24.4713 -676.343 -21.1804 -676.343Z" fill="black"/>
<path d="M-18.6813 228.27C-15.4478 228.27 -12.8265 225.674 -12.8265 222.472C-12.8265 219.27 -15.4478 216.674 -18.6813 216.674C-21.9148 216.674 -24.536 219.27 -24.536 222.472C-24.536 225.674 -21.9148 228.27 -18.6813 228.27Z" fill="black"/>
<path d="M-26.4584 -582.592C-19.0497 -582.592 -13.0436 -588.541 -13.0436 -595.878C-13.0436 -603.216 -19.0497 -609.164 -26.4584 -609.164C-33.8672 -609.164 -39.8731 -603.216 -39.8731 -595.878C-39.8731 -588.541 -33.8672 -582.592 -26.4584 -582.592Z" fill="black"/>
<path d="M-375.928 -270.502C-370.433 -270.502 -365.979 -274.913 -365.979 -280.355C-365.979 -285.797 -370.433 -290.208 -375.928 -290.208C-381.422 -290.208 -385.876 -285.797 -385.876 -280.355C-385.876 -274.913 -381.422 -270.502 -375.928 -270.502Z" fill="black"/>
<path d="M-366.339 50.9333C-363.865 50.9333 -361.858 48.9464 -361.858 46.4954C-361.858 44.0444 -363.865 42.0574 -366.339 42.0574C-368.814 42.0574 -370.82 44.0444 -370.82 46.4954C-370.82 48.9464 -368.814 50.9333 -366.339 50.9333Z" fill="black"/>
<path d="M282.121 -595.787C286.851 -595.787 290.686 -599.585 290.686 -604.27C290.686 -608.955 286.851 -612.753 282.121 -612.753C277.39 -612.753 273.556 -608.955 273.556 -604.27C273.556 -599.585 277.39 -595.787 282.121 -595.787Z" fill="black"/>
<path d="M188.133 190.833C192.4 190.833 195.86 187.407 195.86 183.18C195.86 178.954 192.4 175.528 188.133 175.528C183.866 175.528 180.406 178.954 180.406 183.18C180.406 187.407 183.866 190.833 188.133 190.833Z" fill="black"/>
<path d="M-349.595 -425.846C-345.683 -425.846 -342.511 -428.988 -342.511 -432.863C-342.511 -436.737 -345.683 -439.879 -349.595 -439.879C-353.507 -439.879 -356.679 -436.737 -356.679 -432.863C-356.679 -428.988 -353.507 -425.846 -349.595 -425.846Z" fill="black"/>
<path d="M-371.54 -0.339417C-367.974 -0.339417 -365.083 -3.20239 -365.083 -6.73401C-365.083 -10.2656 -367.974 -13.1285 -371.54 -13.1285C-375.106 -13.1285 -377.996 -10.2656 -377.996 -6.73401C-377.996 -3.20239 -375.106 -0.339417 -371.54 -0.339417Z" fill="black"/>
<path d="M-439.976 -309.573C-435.933 -309.573 -432.656 -312.819 -432.656 -316.822C-432.656 -320.826 -435.933 -324.072 -439.976 -324.072C-444.018 -324.072 -447.295 -320.826 -447.295 -316.822C-447.295 -312.819 -444.018 -309.573 -439.976 -309.573Z" fill="black"/>
</svg>
