<svg width="658" height="246" viewBox="0 0 658 246" fill="none" xmlns="http://www.w3.org/2000/svg">
<path d="M24.7185 -540.881C32.9451 -540.881 39.614 -547.486 39.614 -555.633C39.614 -563.781 32.9451 -570.386 24.7185 -570.386C16.4919 -570.386 9.82291 -563.781 9.82291 -555.633C9.82291 -547.486 16.4919 -540.881 24.7185 -540.881Z" fill="white"/>
<path d="M-120.414 -444.568C-113.426 -444.568 -107.762 -450.178 -107.762 -457.099C-107.762 -464.02 -113.426 -469.63 -120.414 -469.63C-127.402 -469.63 -133.067 -464.02 -133.067 -457.099C-133.067 -450.178 -127.402 -444.568 -120.414 -444.568Z" fill="white"/>
<path d="M477.44 -104.742C484.34 -104.742 489.934 -110.283 489.934 -117.117C489.934 -123.951 484.34 -129.491 477.44 -129.491C470.539 -129.491 464.945 -123.951 464.945 -117.117C464.945 -110.283 470.539 -104.742 477.44 -104.742Z" fill="white"/>
<path d="M-134.094 -580.12C-129.299 -580.12 -125.412 -583.97 -125.412 -588.719C-125.412 -593.467 -129.299 -597.317 -134.094 -597.317C-138.889 -597.317 -142.776 -593.467 -142.776 -588.719C-142.776 -583.97 -138.889 -580.12 -134.094 -580.12Z" fill="white"/>
<path d="M276.679 -519.9C283.324 -519.9 288.711 -525.235 288.711 -531.817C288.711 -538.398 283.324 -543.734 276.679 -543.734C270.033 -543.734 264.646 -538.398 264.646 -531.817C264.646 -525.235 270.033 -519.9 276.679 -519.9Z" fill="white"/>
<path d="M438.542 -414.102C446.845 -414.102 453.577 -420.769 453.577 -428.993C453.577 -437.217 446.845 -443.883 438.542 -443.883C430.238 -443.883 423.507 -437.217 423.507 -428.993C423.507 -420.769 430.238 -414.102 438.542 -414.102Z" fill="white"/>
<path d="M343.339 9.52063C350.897 9.52063 357.023 3.45264 357.023 -4.03271C357.023 -11.5181 350.897 -17.5862 343.339 -17.5862C335.781 -17.5862 329.654 -11.5181 329.654 -4.03271C329.654 3.45264 335.781 9.52063 343.339 9.52063Z" fill="white"/>
<path d="M-53.8494 -534.748C-49.2265 -534.748 -45.4789 -538.46 -45.4789 -543.039C-45.4789 -547.617 -49.2265 -551.329 -53.8494 -551.329C-58.4724 -551.329 -62.22 -547.617 -62.22 -543.039C-62.22 -538.46 -58.4724 -534.748 -53.8494 -534.748Z" fill="white"/>
<path d="M462.59 -30.9275C467.195 -30.9275 470.928 -34.6248 470.928 -39.1857C470.928 -43.7465 467.195 -47.4438 462.59 -47.4438C457.985 -47.4438 454.252 -43.7465 454.252 -39.1857C454.252 -34.6248 457.985 -30.9275 462.59 -30.9275Z" fill="white"/>
<path d="M120.57 128.514C124.771 128.514 128.177 125.141 128.177 120.98C128.177 116.819 124.771 113.445 120.57 113.445C116.368 113.445 112.962 116.819 112.962 120.98C112.962 125.141 116.368 128.514 120.57 128.514Z" fill="white"/>
<path d="M479.698 -483.434C483.611 -483.434 486.783 -486.575 486.783 -490.45C486.783 -494.325 483.611 -497.467 479.698 -497.467C475.786 -497.467 472.614 -494.325 472.614 -490.45C472.614 -486.575 475.786 -483.434 479.698 -483.434Z" fill="white"/>
<path d="M214.458 92.4216C221.944 92.4216 228.011 86.412 228.011 78.9987C228.011 71.5854 221.944 65.5758 214.458 65.5758C206.973 65.5758 200.906 71.5854 200.906 78.9987C200.906 86.412 206.973 92.4216 214.458 92.4216Z" fill="white"/>
<path d="M-198.29 -51.4595C-191.143 -51.4595 -185.35 -57.1976 -185.35 -64.2759C-185.35 -71.3542 -191.143 -77.0923 -198.29 -77.0923C-205.437 -77.0923 -211.231 -71.3542 -211.231 -64.2759C-211.231 -57.1976 -205.437 -51.4595 -198.29 -51.4595Z" fill="white"/>
<path d="M235.924 -573C243.491 -573 249.625 -579.075 249.625 -586.569C249.625 -594.064 243.491 -600.139 235.924 -600.139C228.357 -600.139 222.223 -594.064 222.223 -586.569C222.223 -579.075 228.357 -573 235.924 -573Z" fill="white"/>
<path d="M491.313 -193.104C497.483 -193.104 502.484 -198.057 502.484 -204.167C502.484 -210.278 497.483 -215.231 491.313 -215.231C485.143 -215.231 480.142 -210.278 480.142 -204.167C480.142 -198.057 485.143 -193.104 491.313 -193.104Z" fill="white"/>
<path d="M-223.278 -290.24C-217.148 -290.24 -212.179 -295.161 -212.179 -301.232C-212.179 -307.303 -217.148 -312.225 -223.278 -312.225C-229.408 -312.225 -234.377 -307.303 -234.377 -301.232C-234.377 -295.161 -229.408 -290.24 -223.278 -290.24Z" fill="white"/>
<path d="M312.437 -572.506C318.005 -572.506 322.519 -576.976 322.519 -582.49C322.519 -588.004 318.005 -592.474 312.437 -592.474C306.87 -592.474 302.356 -588.004 302.356 -582.49C302.356 -576.976 306.87 -572.506 312.437 -572.506Z" fill="white"/>
<path d="M310.182 59.8597C318.817 59.8597 325.817 52.9268 325.817 44.3747C325.817 35.8226 318.817 28.8897 310.182 28.8897C301.547 28.8897 294.547 35.8226 294.547 44.3747C294.547 52.9268 301.547 59.8597 310.182 59.8597Z" fill="white"/>
<path d="M482.979 -426.975C488.937 -426.975 493.767 -431.758 493.767 -437.659C493.767 -443.56 488.937 -448.343 482.979 -448.343C477.022 -448.343 472.192 -443.56 472.192 -437.659C472.192 -431.758 477.022 -426.975 482.979 -426.975Z" fill="white"/>
<path d="M314.902 115.79C319.383 115.79 323.015 112.192 323.015 107.754C323.015 103.316 319.383 99.7186 314.902 99.7186C310.421 99.7186 306.789 103.316 306.789 107.754C306.789 112.192 310.421 115.79 314.902 115.79Z" fill="white"/>
<path d="M-39.5013 118.277C-33.6762 118.277 -28.954 113.6 -28.954 107.831C-28.954 102.061 -33.6762 97.3843 -39.5013 97.3843C-45.3265 97.3843 -50.0487 102.061 -50.0487 107.831C-50.0487 113.6 -45.3265 118.277 -39.5013 118.277Z" fill="white"/>
<path d="M414.177 -55.0892C422.041 -55.0892 428.416 -61.4029 428.416 -69.1914C428.416 -76.9799 422.041 -83.2938 414.177 -83.2938C406.313 -83.2938 399.938 -76.9799 399.938 -69.1914C399.938 -61.4029 406.313 -55.0892 414.177 -55.0892Z" fill="white"/>
<path d="M-150.684 -516.372C-146.504 -516.372 -143.115 -519.728 -143.115 -523.869C-143.115 -528.009 -146.504 -531.366 -150.684 -531.366C-154.865 -531.366 -158.254 -528.009 -158.254 -523.869C-158.254 -519.728 -154.865 -516.372 -150.684 -516.372Z" fill="white"/>
<path d="M178.327 214.038C182.604 214.038 186.071 210.604 186.071 206.368C186.071 202.132 182.604 198.698 178.327 198.698C174.05 198.698 170.583 202.132 170.583 206.368C170.583 210.604 174.05 214.038 178.327 214.038Z" fill="white"/>
<path d="M561.292 -18.6032C564.496 -18.6032 567.093 -21.1754 567.093 -24.3484C567.093 -27.5215 564.496 -30.0937 561.292 -30.0937C558.089 -30.0937 555.491 -27.5215 555.491 -24.3484C555.491 -21.1754 558.089 -18.6032 561.292 -18.6032Z" fill="white"/>
<path d="M-246.139 -163.973C-241.017 -163.973 -236.865 -168.085 -236.865 -173.158C-236.865 -178.23 -241.017 -182.343 -246.139 -182.343C-251.261 -182.343 -255.413 -178.23 -255.413 -173.158C-255.413 -168.085 -251.261 -163.973 -246.139 -163.973Z" fill="white"/>
<path d="M-7.16925 91.3886C-2.44922 91.3886 1.37714 87.5991 1.37714 82.9243C1.37714 78.2496 -2.44922 74.4599 -7.16925 74.4599C-11.8893 74.4599 -15.7156 78.2496 -15.7156 82.9243C-15.7156 87.5991 -11.8893 91.3886 -7.16925 91.3886Z" fill="white"/>
<path d="M452.534 -147.073C459.745 -147.073 465.59 -152.863 465.59 -160.005C465.59 -167.146 459.745 -172.936 452.534 -172.936C445.323 -172.936 439.477 -167.146 439.477 -160.005C439.477 -152.863 445.323 -147.073 452.534 -147.073Z" fill="white"/>
<path d="M-64.5667 -457.242C-56.8483 -457.242 -50.5913 -463.439 -50.5913 -471.083C-50.5913 -478.728 -56.8483 -484.925 -64.5667 -484.925C-72.2852 -484.925 -78.5422 -478.728 -78.5422 -471.083C-78.5422 -463.439 -72.2852 -457.242 -64.5667 -457.242Z" fill="white"/>
<path d="M-157.635 -388.308C-149.794 -388.308 -143.438 -394.603 -143.438 -402.369C-143.438 -410.135 -149.794 -416.43 -157.635 -416.43C-165.476 -416.43 -171.832 -410.135 -171.832 -402.369C-171.832 -394.603 -165.476 -388.308 -157.635 -388.308Z" fill="white"/>
<path d="M-143.077 135.111C-139.863 135.111 -137.258 132.53 -137.258 129.347C-137.258 126.164 -139.863 123.584 -143.077 123.584C-146.291 123.584 -148.897 126.164 -148.897 129.347C-148.897 132.53 -146.291 135.111 -143.077 135.111Z" fill="white"/>
<path d="M-280.397 -147.868C-274.535 -147.868 -269.782 -152.575 -269.782 -158.381C-269.782 -164.188 -274.535 -168.895 -280.397 -168.895C-286.26 -168.895 -291.012 -164.188 -291.012 -158.381C-291.012 -152.575 -286.26 -147.868 -280.397 -147.868Z" fill="white"/>
<path d="M462.673 -67.1693C470.938 -67.1693 477.638 -73.8049 477.638 -81.9904C477.638 -90.1759 470.938 -96.8115 462.673 -96.8115C454.409 -96.8115 447.709 -90.1759 447.709 -81.9904C447.709 -73.8049 454.409 -67.1693 462.673 -67.1693Z" fill="white"/>
<path d="M-118.582 21.8356C-114.002 21.8356 -110.289 18.1581 -110.289 13.6218C-110.289 9.08539 -114.002 5.4079 -118.582 5.4079C-123.163 5.4079 -126.876 9.08539 -126.876 13.6218C-126.876 18.1581 -123.163 21.8356 -118.582 21.8356Z" fill="white"/>
<path d="M274.023 165.499C277.608 165.499 280.515 162.62 280.515 159.069C280.515 155.519 277.608 152.64 274.023 152.64C270.438 152.64 267.531 155.519 267.531 159.069C267.531 162.62 270.438 165.499 274.023 165.499Z" fill="white"/>
<path d="M458.505 -325.714C466.682 -325.714 473.311 -332.28 473.311 -340.378C473.311 -348.477 466.682 -355.042 458.505 -355.042C450.327 -355.042 443.698 -348.477 443.698 -340.378C443.698 -332.28 450.327 -325.714 458.505 -325.714Z" fill="white"/>
<path d="M322.249 141.178C328.767 141.178 334.051 135.945 334.051 129.489C334.051 123.034 328.767 117.8 322.249 117.8C315.731 117.8 310.447 123.034 310.447 129.489C310.447 135.945 315.731 141.178 322.249 141.178Z" fill="white"/>
<path d="M7.65683 124.31C13.4934 124.31 18.2249 119.624 18.2249 113.843C18.2249 108.063 13.4934 103.377 7.65683 103.377C1.82022 103.377 -2.91125 108.063 -2.91125 113.843C-2.91125 119.624 1.82022 124.31 7.65683 124.31Z" fill="white"/>
<path d="M346.295 -484.675C353.038 -484.675 358.505 -490.089 358.505 -496.767C358.505 -503.446 353.038 -508.859 346.295 -508.859C339.553 -508.859 334.086 -503.446 334.086 -496.767C334.086 -490.089 339.553 -484.675 346.295 -484.675Z" fill="white"/>
<path d="M-193.578 -175.248C-185.966 -175.248 -179.795 -181.36 -179.795 -188.899C-179.795 -196.438 -185.966 -202.55 -193.578 -202.55C-201.19 -202.55 -207.361 -196.438 -207.361 -188.899C-207.361 -181.36 -201.19 -175.248 -193.578 -175.248Z" fill="white"/>
<path d="M-12.2385 -567.157C-5.92737 -567.157 -0.811218 -572.224 -0.811218 -578.474C-0.811218 -584.725 -5.92737 -589.792 -12.2385 -589.792C-18.5496 -589.792 -23.6657 -584.725 -23.6657 -578.474C-23.6657 -572.224 -18.5496 -567.157 -12.2385 -567.157Z" fill="white"/>
<path d="M-74.1318 138.452C-70.4915 138.452 -67.5405 135.529 -67.5405 131.924C-67.5405 128.318 -70.4915 125.395 -74.1318 125.395C-77.7721 125.395 -80.7232 128.318 -80.7232 131.924C-80.7232 135.529 -77.7721 138.452 -74.1318 138.452Z" fill="white"/>
<path d="M-129.374 -59.8483C-121.467 -59.8483 -115.058 -66.1964 -115.058 -74.0272C-115.058 -81.858 -121.467 -88.2062 -129.374 -88.2062C-137.281 -88.2062 -143.69 -81.858 -143.69 -74.0272C-143.69 -66.1964 -137.281 -59.8483 -129.374 -59.8483Z" fill="white"/>
<path d="M453.013 105.069C457.069 105.069 460.357 101.812 460.357 97.7949C460.357 93.7776 457.069 90.5209 453.013 90.5209C448.957 90.5209 445.668 93.7776 445.668 97.7949C445.668 101.812 448.957 105.069 453.013 105.069Z" fill="white"/>
<path d="M53.3181 157.933C58.5336 157.933 62.7617 153.745 62.7617 148.58C62.7617 143.414 58.5336 139.227 53.3181 139.227C48.1025 139.227 43.8745 143.414 43.8745 148.58C43.8745 153.745 48.1025 157.933 53.3181 157.933Z" fill="white"/>
<path d="M-122.065 117.853C-116.299 117.853 -111.626 113.224 -111.626 107.514C-111.626 101.804 -116.299 97.1753 -122.065 97.1753C-127.83 97.1753 -132.504 101.804 -132.504 107.514C-132.504 113.224 -127.83 117.853 -122.065 117.853Z" fill="white"/>
<path d="M101.51 155.631C107.735 155.631 112.782 150.633 112.782 144.468C112.782 138.302 107.735 133.304 101.51 133.304C95.2846 133.304 90.238 138.302 90.238 144.468C90.238 150.633 95.2846 155.631 101.51 155.631Z" fill="white"/>
<path d="M-13.2269 -528.422C-4.62527 -528.422 2.34769 -535.328 2.34769 -543.847C2.34769 -552.366 -4.62527 -559.272 -13.2269 -559.272C-21.8286 -559.272 -28.8016 -552.366 -28.8016 -543.847C-28.8016 -535.328 -21.8286 -528.422 -13.2269 -528.422Z" fill="white"/>
<path d="M-196.246 -17.1348C-190.845 -17.1348 -186.467 -21.4708 -186.467 -26.8195C-186.467 -32.1682 -190.845 -36.5042 -196.246 -36.5042C-201.646 -36.5042 -206.024 -32.1682 -206.024 -26.8195C-206.024 -21.4708 -201.646 -17.1348 -196.246 -17.1348Z" fill="white"/>
<path d="M-39.6935 -578.408C-34.0522 -578.408 -29.479 -582.937 -29.479 -588.524C-29.479 -594.112 -34.0522 -598.641 -39.6935 -598.641C-45.3347 -598.641 -49.9079 -594.112 -49.9079 -588.524C-49.9079 -582.937 -45.3347 -578.408 -39.6935 -578.408Z" fill="white"/>
<path d="M-35.9719 65.9012C-27.498 65.9012 -20.6287 59.0977 -20.6287 50.7052C-20.6287 42.3127 -27.498 35.5093 -35.9719 35.5093C-44.4457 35.5093 -51.315 42.3127 -51.315 50.7052C-51.315 59.0977 -44.4457 65.9012 -35.9719 65.9012Z" fill="white"/>
<path d="M124.663 144.461C129.221 144.461 132.916 140.801 132.916 136.287C132.916 131.772 129.221 128.113 124.663 128.113C120.105 128.113 116.41 131.772 116.41 136.287C116.41 140.801 120.105 144.461 124.663 144.461Z" fill="white"/>
<path d="M568.469 -158.275C571.828 -158.275 574.551 -160.972 574.551 -164.299C574.551 -167.626 571.828 -170.323 568.469 -170.323C565.109 -170.323 562.386 -167.626 562.386 -164.299C562.386 -160.972 565.109 -158.275 568.469 -158.275Z" fill="white"/>
<path d="M-94.0625 -464.418C-86.781 -464.418 -80.8783 -470.264 -80.8783 -477.476C-80.8783 -484.688 -86.781 -490.534 -94.0625 -490.534C-101.344 -490.534 -107.247 -484.688 -107.247 -477.476C-107.247 -470.264 -101.344 -464.418 -94.0625 -464.418Z" fill="white"/>
<path d="M56.3087 -537.29C63.448 -537.29 69.2354 -543.022 69.2354 -550.093C69.2354 -557.164 63.448 -562.896 56.3087 -562.896C49.1695 -562.896 43.3819 -557.164 43.3819 -550.093C43.3819 -543.022 49.1695 -537.29 56.3087 -537.29Z" fill="white"/>
<path d="M-111.939 -579.646C-108.508 -579.646 -105.726 -582.401 -105.726 -585.799C-105.726 -589.197 -108.508 -591.952 -111.939 -591.952C-115.37 -591.952 -118.152 -589.197 -118.152 -585.799C-118.152 -582.401 -115.37 -579.646 -111.939 -579.646Z" fill="white"/>
<path d="M651.134 -391.807C654.764 -391.807 657.707 -394.722 657.707 -398.318C657.707 -401.913 654.764 -404.828 651.134 -404.828C647.503 -404.828 644.56 -401.913 644.56 -398.318C644.56 -394.722 647.503 -391.807 651.134 -391.807Z" fill="white"/>
<path d="M-182.259 -213.867C-173.37 -213.867 -166.163 -221.005 -166.163 -229.809C-166.163 -238.613 -173.37 -245.751 -182.259 -245.751C-191.149 -245.751 -198.356 -238.613 -198.356 -229.809C-198.356 -221.005 -191.149 -213.867 -182.259 -213.867Z" fill="white"/>
<path d="M457.234 -285.344C466.613 -285.344 474.216 -292.875 474.216 -302.164C474.216 -311.453 466.613 -318.984 457.234 -318.984C447.854 -318.984 440.251 -311.453 440.251 -302.164C440.251 -292.875 447.854 -285.344 457.234 -285.344Z" fill="white"/>
<path d="M297.606 -729.153C301.588 -729.153 304.815 -732.35 304.815 -736.294C304.815 -740.237 301.588 -743.434 297.606 -743.434C293.624 -743.434 290.396 -740.237 290.396 -736.294C290.396 -732.35 293.624 -729.153 297.606 -729.153Z" fill="white"/>
<path d="M133.78 90.1923C144.189 90.1923 152.627 81.8351 152.627 71.5259C152.627 61.2167 144.189 52.8594 133.78 52.8594C123.371 52.8594 114.932 61.2167 114.932 71.5259C114.932 81.8351 123.371 90.1923 133.78 90.1923Z" fill="white"/>
<path d="M194.599 -548.56C201.336 -548.56 206.796 -553.969 206.796 -560.64C206.796 -567.312 201.336 -572.72 194.599 -572.72C187.863 -572.72 182.402 -567.312 182.402 -560.64C182.402 -553.969 187.863 -548.56 194.599 -548.56Z" fill="white"/>
<path d="M132.739 -669.735C136.123 -669.735 138.867 -672.452 138.867 -675.804C138.867 -679.156 136.123 -681.873 132.739 -681.873C129.355 -681.873 126.611 -679.156 126.611 -675.804C126.611 -672.452 129.355 -669.735 132.739 -669.735Z" fill="white"/>
<path d="M-162.014 -318.14C-155.854 -318.14 -150.859 -323.087 -150.859 -329.188C-150.859 -335.289 -155.854 -340.236 -162.014 -340.236C-168.175 -340.236 -173.169 -335.289 -173.169 -329.188C-173.169 -323.087 -168.175 -318.14 -162.014 -318.14Z" fill="white"/>
<path d="M493.273 -46.6932C500.33 -46.6932 506.052 -52.3596 506.052 -59.3495C506.052 -66.3394 500.33 -72.0057 493.273 -72.0057C486.215 -72.0057 480.494 -66.3394 480.494 -59.3495C480.494 -52.3596 486.215 -46.6932 493.273 -46.6932Z" fill="white"/>
<path d="M244.347 -531.196C252.797 -531.196 259.647 -537.98 259.647 -546.349C259.647 -554.718 252.797 -561.502 244.347 -561.502C235.897 -561.502 229.047 -554.718 229.047 -546.349C229.047 -537.98 235.897 -531.196 244.347 -531.196Z" fill="white"/>
<path d="M-23.2118 169.496C-19.1144 169.496 -15.7928 166.206 -15.7928 162.148C-15.7928 158.09 -19.1144 154.8 -23.2118 154.8C-27.3092 154.8 -30.6308 158.09 -30.6308 162.148C-30.6308 166.206 -27.3092 169.496 -23.2118 169.496Z" fill="white"/>
<path d="M414.18 146.918C416.956 146.918 419.206 144.689 419.206 141.94C419.206 139.191 416.956 136.962 414.18 136.962C411.405 136.962 409.154 139.191 409.154 141.94C409.154 144.689 411.405 146.918 414.18 146.918Z" fill="white"/>
<path d="M429.37 -9.84045C433.851 -9.84045 437.484 -13.4384 437.484 -17.8767C437.484 -22.315 433.851 -25.913 429.37 -25.913C424.888 -25.913 421.255 -22.315 421.255 -17.8767C421.255 -13.4384 424.888 -9.84045 429.37 -9.84045Z" fill="white"/>
<path d="M-223.227 -186.491C-218.584 -186.491 -214.821 -190.218 -214.821 -194.816C-214.821 -199.414 -218.584 -203.142 -223.227 -203.142C-227.87 -203.142 -231.633 -199.414 -231.633 -194.816C-231.633 -190.218 -227.87 -186.491 -223.227 -186.491Z" fill="white"/>
<path d="M617.55 -296.709C622.799 -296.709 627.054 -300.923 627.054 -306.122C627.054 -311.32 622.799 -315.534 617.55 -315.534C612.301 -315.534 608.046 -311.32 608.046 -306.122C608.046 -300.923 612.301 -296.709 617.55 -296.709Z" fill="white"/>
<path d="M65.1378 108.217C72.646 108.217 78.7326 102.189 78.7326 94.7527C78.7326 87.3167 72.646 81.2885 65.1378 81.2885C57.6296 81.2885 51.5431 87.3167 51.5431 94.7527C51.5431 102.189 57.6296 108.217 65.1378 108.217Z" fill="white"/>
<path d="M-144.941 -135.279C-134.364 -135.279 -125.79 -143.771 -125.79 -154.247C-125.79 -164.723 -134.364 -173.215 -144.941 -173.215C-155.519 -173.215 -164.093 -164.723 -164.093 -154.247C-164.093 -143.771 -155.519 -135.279 -144.941 -135.279Z" fill="white"/>
<path d="M251.232 60.6405C258.745 60.6405 264.834 54.6091 264.834 47.1691C264.834 39.729 258.745 33.6976 251.232 33.6976C243.72 33.6976 237.63 39.729 237.63 47.1691C237.63 54.6091 243.72 60.6405 251.232 60.6405Z" fill="white"/>
<path d="M378.49 165.726C382.576 165.726 385.888 162.445 385.888 158.399C385.888 154.352 382.576 151.072 378.49 151.072C374.405 151.072 371.093 154.352 371.093 158.399C371.093 162.445 374.405 165.726 378.49 165.726Z" fill="white"/>
<path d="M328.279 -605.475C333.659 -605.475 338.021 -609.794 338.021 -615.123C338.021 -620.451 333.659 -624.771 328.279 -624.771C322.899 -624.771 318.538 -620.451 318.538 -615.123C318.538 -609.794 322.899 -605.475 328.279 -605.475Z" fill="white"/>
<path d="M-152.149 -175.163C-141.822 -175.163 -133.451 -183.454 -133.451 -193.681C-133.451 -203.909 -141.822 -212.2 -152.149 -212.2C-162.476 -212.2 -170.847 -203.909 -170.847 -193.681C-170.847 -183.454 -162.476 -175.163 -152.149 -175.163Z" fill="white"/>
<path d="M-72.0262 -25.4438C-63.4929 -25.4438 -56.5752 -32.295 -56.5752 -40.7465C-56.5752 -49.1979 -63.4929 -56.0492 -72.0262 -56.0492C-80.5596 -56.0492 -87.4772 -49.1979 -87.4772 -40.7465C-87.4772 -32.295 -80.5596 -25.4438 -72.0262 -25.4438Z" fill="white"/>
<path d="M-144.207 -16.9721C-138.819 -16.9721 -134.452 -21.2978 -134.452 -26.6337C-134.452 -31.9695 -138.819 -36.2951 -144.207 -36.2951C-149.595 -36.2951 -153.962 -31.9695 -153.962 -26.6337C-153.962 -21.2978 -149.595 -16.9721 -144.207 -16.9721Z" fill="white"/>
<path d="M206.125 -595.724C213.281 -595.724 219.083 -601.47 219.083 -608.557C219.083 -615.645 213.281 -621.391 206.125 -621.391C198.968 -621.391 193.167 -615.645 193.167 -608.557C193.167 -601.47 198.968 -595.724 206.125 -595.724Z" fill="white"/>
<path d="M548.987 -351.134C554.292 -351.134 558.593 -355.394 558.593 -360.649C558.593 -365.903 554.292 -370.163 548.987 -370.163C543.681 -370.163 539.38 -365.903 539.38 -360.649C539.38 -355.394 543.681 -351.134 548.987 -351.134Z" fill="white"/>
<path d="M618.25 -371.168C621.011 -371.168 623.248 -373.384 623.248 -376.118C623.248 -378.851 621.011 -381.068 618.25 -381.068C615.49 -381.068 613.252 -378.851 613.252 -376.118C613.252 -373.384 615.49 -371.168 618.25 -371.168Z" fill="white"/>
<path d="M-156.119 91.4749C-152.842 91.4749 -150.185 88.8436 -150.185 85.5978C-150.185 82.3521 -152.842 79.7208 -156.119 79.7208C-159.396 79.7208 -162.053 82.3521 -162.053 85.5978C-162.053 88.8436 -159.396 91.4749 -156.119 91.4749Z" fill="white"/>
<path d="M-173.016 30.8654C-168.501 30.8654 -164.842 27.2411 -164.842 22.7703C-164.842 18.2994 -168.501 14.6752 -173.016 14.6752C-177.53 14.6752 -181.189 18.2994 -181.189 22.7703C-181.189 27.2411 -177.53 30.8654 -173.016 30.8654Z" fill="white"/>
<path d="M370.582 99.6823C375.468 99.6823 379.428 95.7597 379.428 90.9209C379.428 86.0821 375.468 82.1594 370.582 82.1594C365.696 82.1594 361.736 86.0821 361.736 90.9209C361.736 95.7597 365.696 99.6823 370.582 99.6823Z" fill="white"/>
<path d="M-169.94 -287.746C-162.095 -287.746 -155.735 -294.045 -155.735 -301.815C-155.735 -309.584 -162.095 -315.883 -169.94 -315.883C-177.785 -315.883 -184.144 -309.584 -184.144 -301.815C-184.144 -294.045 -177.785 -287.746 -169.94 -287.746Z" fill="white"/>
<path d="M143.635 140.581C149.811 140.581 154.819 135.622 154.819 129.504C154.819 123.387 149.811 118.427 143.635 118.427C137.458 118.427 132.451 123.387 132.451 129.504C132.451 135.622 137.458 140.581 143.635 140.581Z" fill="white"/>
<path d="M444.003 -31.1984C450.815 -31.1984 456.337 -36.6678 456.337 -43.4148C456.337 -50.1617 450.815 -55.6312 444.003 -55.6312C437.19 -55.6312 431.668 -50.1617 431.668 -43.4148C431.668 -36.6678 437.19 -31.1984 444.003 -31.1984Z" fill="white"/>
<path d="M438.67 -119.766C444.83 -119.766 449.824 -124.712 449.824 -130.813C449.824 -136.914 444.83 -141.859 438.67 -141.859C432.51 -141.859 427.517 -136.914 427.517 -130.813C427.517 -124.712 432.51 -119.766 438.67 -119.766Z" fill="white"/>
<path d="M122.377 -638.593C128.548 -638.593 133.55 -643.547 133.55 -649.659C133.55 -655.771 128.548 -660.725 122.377 -660.725C116.206 -660.725 111.204 -655.771 111.204 -649.659C111.204 -643.547 116.206 -638.593 122.377 -638.593Z" fill="white"/>
<path d="M-187.806 -115.737C-182.407 -115.737 -178.031 -120.072 -178.031 -125.419C-178.031 -130.766 -182.407 -135.1 -187.806 -135.1C-193.205 -135.1 -197.582 -130.766 -197.582 -125.419C-197.582 -120.072 -193.205 -115.737 -187.806 -115.737Z" fill="white"/>
<path d="M-90.2149 24.6863C-85.238 24.6863 -81.2034 20.6904 -81.2034 15.7613C-81.2034 10.8322 -85.238 6.8363 -90.2149 6.8363C-95.1918 6.8363 -99.2263 10.8322 -99.2263 15.7613C-99.2263 20.6904 -95.1918 24.6863 -90.2149 24.6863Z" fill="white"/>
<path d="M208.346 155.568C214.632 155.568 219.727 150.522 219.727 144.297C219.727 138.072 214.632 133.025 208.346 133.025C202.061 133.025 196.966 138.072 196.966 144.297C196.966 150.522 202.061 155.568 208.346 155.568Z" fill="white"/>
<path d="M-70.1171 -602.334C-64.687 -602.334 -60.285 -606.693 -60.285 -612.071C-60.285 -617.45 -64.687 -621.809 -70.1171 -621.809C-75.5472 -621.809 -79.9492 -617.45 -79.9492 -612.071C-79.9492 -606.693 -75.5472 -602.334 -70.1171 -602.334Z" fill="white"/>
<path d="M-151.99 42.307C-146.977 42.307 -142.912 38.2817 -142.912 33.3163C-142.912 28.351 -146.977 24.3257 -151.99 24.3257C-157.004 24.3257 -161.068 28.351 -161.068 33.3163C-161.068 38.2817 -157.004 42.307 -151.99 42.307Z" fill="white"/>
<path d="M-286.101 -439.938C-283.272 -439.938 -280.978 -442.21 -280.978 -445.012C-280.978 -447.813 -283.272 -450.085 -286.101 -450.085C-288.93 -450.085 -291.223 -447.813 -291.223 -445.012C-291.223 -442.21 -288.93 -439.938 -286.101 -439.938Z" fill="white"/>
<path d="M-120.894 -389.183C-109.626 -389.183 -100.491 -398.231 -100.491 -409.391C-100.491 -420.552 -109.626 -429.599 -120.894 -429.599C-132.163 -429.599 -141.298 -420.552 -141.298 -409.391C-141.298 -398.231 -132.163 -389.183 -120.894 -389.183Z" fill="white"/>
<path d="M53.9318 -638.225C58.515 -638.225 62.2303 -641.905 62.2303 -646.444C62.2303 -650.983 58.515 -654.663 53.9318 -654.663C49.3487 -654.663 45.6333 -650.983 45.6333 -646.444C45.6333 -641.905 49.3487 -638.225 53.9318 -638.225Z" fill="white"/>
<path d="M198.491 246C201.392 246 203.745 243.67 203.745 240.797C203.745 237.923 201.392 235.593 198.491 235.593C195.589 235.593 193.237 237.923 193.237 240.797C193.237 243.67 195.589 246 198.491 246Z" fill="white"/>
<path d="M546.73 45.5034C549.274 45.5034 551.336 43.4611 551.336 40.9418C551.336 38.4225 549.274 36.3802 546.73 36.3802C544.186 36.3802 542.124 38.4225 542.124 40.9418C542.124 43.4611 544.186 45.5034 546.73 45.5034Z" fill="white"/>
<path d="M57.7581 -569.224C64.6099 -569.224 70.1644 -574.725 70.1644 -581.511C70.1644 -588.297 64.6099 -593.798 57.7581 -593.798C50.9064 -593.798 45.352 -588.297 45.352 -581.511C45.352 -574.725 50.9064 -569.224 57.7581 -569.224Z" fill="white"/>
<path d="M377.777 7.9173C383.916 7.9173 388.893 2.98804 388.893 -3.09253C388.893 -9.1731 383.916 -14.1024 377.777 -14.1024C371.637 -14.1024 366.66 -9.1731 366.66 -3.09253C366.66 2.98804 371.637 7.9173 377.777 7.9173Z" fill="white"/>
<path d="M437.593 -464.024C443.508 -464.024 448.303 -468.773 448.303 -474.631C448.303 -480.489 443.508 -485.238 437.593 -485.238C431.679 -485.238 426.884 -480.489 426.884 -474.631C426.884 -468.773 431.679 -464.024 437.593 -464.024Z" fill="white"/>
<path d="M325.46 -510.686C333.169 -510.686 339.418 -516.875 339.418 -524.51C339.418 -532.144 333.169 -538.334 325.46 -538.334C317.752 -538.334 311.502 -532.144 311.502 -524.51C311.502 -516.875 317.752 -510.686 325.46 -510.686Z" fill="white"/>
<path d="M427.745 -595.262C431.408 -595.262 434.376 -598.202 434.376 -601.829C434.376 -605.456 431.408 -608.396 427.745 -608.396C424.083 -608.396 421.115 -605.456 421.115 -601.829C421.115 -598.202 424.083 -595.262 427.745 -595.262Z" fill="white"/>
<path d="M22.8025 43.0679C31.564 43.0679 38.6666 36.0334 38.6666 27.356C38.6666 18.6786 31.564 11.6442 22.8025 11.6442C14.041 11.6442 6.93848 18.6786 6.93848 27.356C6.93848 36.0334 14.041 43.0679 22.8025 43.0679Z" fill="white"/>
<path d="M496.85 -76.8864C501.337 -76.8864 504.974 -80.4889 504.974 -84.9328C504.974 -89.3767 501.337 -92.9792 496.85 -92.9792C492.363 -92.9792 488.725 -89.3767 488.725 -84.9328C488.725 -80.4889 492.363 -76.8864 496.85 -76.8864Z" fill="white"/>
<path d="M124.209 -751.503C127.972 -751.503 131.022 -754.525 131.022 -758.252C131.022 -761.979 127.972 -765 124.209 -765C120.445 -765 117.395 -761.979 117.395 -758.252C117.395 -754.525 120.445 -751.503 124.209 -751.503Z" fill="white"/>
<path d="M394.352 106.874C399.542 106.874 403.75 102.706 403.75 97.5652C403.75 92.4241 399.542 88.2564 394.352 88.2564C389.161 88.2564 384.952 92.4241 384.952 97.5652C384.952 102.706 389.161 106.874 394.352 106.874Z" fill="white"/>
<path d="M-279.426 -290.389C-276.058 -290.389 -273.327 -293.093 -273.327 -296.429C-273.327 -299.765 -276.058 -302.47 -279.426 -302.47C-282.794 -302.47 -285.525 -299.765 -285.525 -296.429C-285.525 -293.093 -282.794 -290.389 -279.426 -290.389Z" fill="white"/>
<path d="M-138.175 -350.597C-129.222 -350.597 -121.965 -357.785 -121.965 -366.651C-121.965 -375.517 -129.222 -382.705 -138.175 -382.705C-147.127 -382.705 -154.384 -375.517 -154.384 -366.651C-154.384 -357.785 -147.127 -350.597 -138.175 -350.597Z" fill="white"/>
<path d="M565.82 -301.938C572.03 -301.938 577.064 -306.924 577.064 -313.074C577.064 -319.224 572.03 -324.209 565.82 -324.209C559.611 -324.209 554.577 -319.224 554.577 -313.074C554.577 -306.924 559.611 -301.938 565.82 -301.938Z" fill="white"/>
<path d="M414.168 -572.65C417.791 -572.65 420.729 -575.559 420.729 -579.148C420.729 -582.736 417.791 -585.646 414.168 -585.646C410.544 -585.646 407.607 -582.736 407.607 -579.148C407.607 -575.559 410.544 -572.65 414.168 -572.65Z" fill="white"/>
<path d="M-240.692 -462.978C-237.536 -462.978 -234.977 -465.512 -234.977 -468.638C-234.977 -471.764 -237.536 -474.298 -240.692 -474.298C-243.849 -474.298 -246.408 -471.764 -246.408 -468.638C-246.408 -465.512 -243.849 -462.978 -240.692 -462.978Z" fill="white"/>
<path d="M533.121 -321.732C537.551 -321.732 541.143 -325.29 541.143 -329.678C541.143 -334.066 537.551 -337.623 533.121 -337.623C528.69 -337.623 525.098 -334.066 525.098 -329.678C525.098 -325.29 528.69 -321.732 533.121 -321.732Z" fill="white"/>
<path d="M141.729 159.418C145.96 159.418 149.39 156.021 149.39 151.831C149.39 147.64 145.96 144.244 141.729 144.244C137.499 144.244 134.069 147.64 134.069 151.831C134.069 156.021 137.499 159.418 141.729 159.418Z" fill="white"/>
<path d="M444.24 -565.655C447.803 -565.655 450.692 -568.515 450.692 -572.044C450.692 -575.573 447.803 -578.434 444.24 -578.434C440.677 -578.434 437.789 -575.573 437.789 -572.044C437.789 -568.515 440.677 -565.655 444.24 -565.655Z" fill="white"/>
<path d="M141.802 -570.187C149.493 -570.187 155.727 -576.362 155.727 -583.979C155.727 -591.595 149.493 -597.77 141.802 -597.77C134.112 -597.77 127.878 -591.595 127.878 -583.979C127.878 -576.362 134.112 -570.187 141.802 -570.187Z" fill="white"/>
<path d="M178.725 144.798C183.027 144.798 186.515 141.344 186.515 137.083C186.515 132.822 183.027 129.367 178.725 129.367C174.422 129.367 170.935 132.822 170.935 137.083C170.935 141.344 174.422 144.798 178.725 144.798Z" fill="white"/>
<path d="M438.442 -364.235C446.574 -364.235 453.166 -370.764 453.166 -378.818C453.166 -386.872 446.574 -393.401 438.442 -393.401C430.31 -393.401 423.718 -386.872 423.718 -378.818C423.718 -370.764 430.31 -364.235 438.442 -364.235Z" fill="white"/>
<path d="M419.942 10.9935C424.734 10.9935 428.619 7.146 428.619 2.3999C428.619 -2.34619 424.734 -6.19366 419.942 -6.19366C415.15 -6.19366 411.265 -2.34619 411.265 2.3999C411.265 7.146 415.15 10.9935 419.942 10.9935Z" fill="white"/>
<path d="M161.411 241.64C165.866 241.64 169.477 238.064 169.477 233.652C169.477 229.24 165.866 225.664 161.411 225.664C156.957 225.664 153.346 229.24 153.346 233.652C153.346 238.064 156.957 241.64 161.411 241.64Z" fill="white"/>
<path d="M-111.042 -557.662C-106.766 -557.662 -103.299 -561.095 -103.299 -565.33C-103.299 -569.566 -106.766 -572.999 -111.042 -572.999C-115.318 -572.999 -118.785 -569.566 -118.785 -565.33C-118.785 -561.095 -115.318 -557.662 -111.042 -557.662Z" fill="white"/>
<path d="M636.666 -255.465C639.3 -255.465 641.435 -257.58 641.435 -260.189C641.435 -262.798 639.3 -264.912 636.666 -264.912C634.031 -264.912 631.896 -262.798 631.896 -260.189C631.896 -257.58 634.031 -255.465 636.666 -255.465Z" fill="white"/>
<path d="M515.196 -518.37C518.858 -518.37 521.827 -521.311 521.827 -524.938C521.827 -528.565 518.858 -531.505 515.196 -531.505C511.534 -531.505 508.565 -528.565 508.565 -524.938C508.565 -521.311 511.534 -518.37 515.196 -518.37Z" fill="white"/>
<path d="M515.085 -242.87C522.455 -242.87 528.43 -248.787 528.43 -256.086C528.43 -263.385 522.455 -269.302 515.085 -269.302C507.715 -269.302 501.741 -263.385 501.741 -256.086C501.741 -248.787 507.715 -242.87 515.085 -242.87Z" fill="white"/>
<path d="M255.764 -661.422C260.612 -661.422 264.541 -665.313 264.541 -670.114C264.541 -674.915 260.612 -678.807 255.764 -678.807C250.917 -678.807 246.987 -674.915 246.987 -670.114C246.987 -665.313 250.917 -661.422 255.764 -661.422Z" fill="white"/>
<path d="M472.163 63.9167C475.8 63.9167 478.748 60.9969 478.748 57.3951C478.748 53.7934 475.8 50.8735 472.163 50.8735C468.527 50.8735 465.579 53.7934 465.579 57.3951C465.579 60.9969 468.527 63.9167 472.163 63.9167Z" fill="white"/>
<path d="M-28.6062 11.4737C-21.1934 11.4737 -15.1842 5.52216 -15.1842 -1.81946C-15.1842 -9.16107 -21.1934 -15.1127 -28.6062 -15.1127C-36.019 -15.1127 -42.0282 -9.16107 -42.0282 -1.81946C-42.0282 5.52216 -36.019 11.4737 -28.6062 11.4737Z" fill="white"/>
<path d="M58.0397 69.8041C67.2618 69.8041 74.7377 62.3999 74.7377 53.2664C74.7377 44.1328 67.2618 36.7286 58.0397 36.7286C48.8177 36.7286 41.3417 44.1328 41.3417 53.2664C41.3417 62.3999 48.8177 69.8041 58.0397 69.8041Z" fill="white"/>
<path d="M280.542 -585.793C287.146 -585.793 292.498 -591.095 292.498 -597.635C292.498 -604.175 287.146 -609.476 280.542 -609.476C273.939 -609.476 268.586 -604.175 268.586 -597.635C268.586 -591.095 273.939 -585.793 280.542 -585.793Z" fill="white"/>
<path d="M-166.684 -19.2686C-159.838 -19.2686 -154.289 -24.7648 -154.289 -31.5446C-154.289 -38.3243 -159.838 -43.8204 -166.684 -43.8204C-173.529 -43.8204 -179.079 -38.3243 -179.079 -31.5446C-179.079 -24.7648 -173.529 -19.2686 -166.684 -19.2686Z" fill="white"/>
<path d="M484.189 7.01404C490.465 7.01404 495.553 1.97504 495.553 -4.24091C495.553 -10.4568 490.465 -15.4958 484.189 -15.4958C477.913 -15.4958 472.825 -10.4568 472.825 -4.24091C472.825 1.97504 477.913 7.01404 484.189 7.01404Z" fill="white"/>
<path d="M561.095 -372.023C565.434 -372.023 568.951 -375.506 568.951 -379.803C568.951 -384.1 565.434 -387.583 561.095 -387.583C556.757 -387.583 553.24 -384.1 553.24 -379.803C553.24 -375.506 556.757 -372.023 561.095 -372.023Z" fill="white"/>
<path d="M-354.852 -366.943C-350.904 -366.943 -347.703 -370.113 -347.703 -374.023C-347.703 -377.933 -350.904 -381.103 -354.852 -381.103C-358.8 -381.103 -362 -377.933 -362 -374.023C-362 -370.113 -358.8 -366.943 -354.852 -366.943Z" fill="white"/>
<path d="M1.66574 -630.232C5.24268 -630.232 8.1424 -633.104 8.1424 -636.647C8.1424 -640.19 5.24268 -643.061 1.66574 -643.061C-1.91119 -643.061 -4.81088 -640.19 -4.81088 -636.647C-4.81088 -633.104 -1.91119 -630.232 1.66574 -630.232Z" fill="white"/>
<path d="M-247.409 -135.898C-241.472 -135.898 -236.66 -140.664 -236.66 -146.543C-236.66 -152.422 -241.472 -157.189 -247.409 -157.189C-253.345 -157.189 -258.157 -152.422 -258.157 -146.543C-258.157 -140.664 -253.345 -135.898 -247.409 -135.898Z" fill="white"/>
<path d="M-122.569 -498.482C-115.217 -498.482 -109.256 -504.385 -109.256 -511.666C-109.256 -518.948 -115.217 -524.851 -122.569 -524.851C-129.921 -524.851 -135.881 -518.948 -135.881 -511.666C-135.881 -504.385 -129.921 -498.482 -122.569 -498.482Z" fill="white"/>
<path d="M463.812 33.7866C467.577 33.7866 470.628 30.7639 470.628 27.0354C470.628 23.3069 467.577 20.2844 463.812 20.2844C460.047 20.2844 456.995 23.3069 456.995 27.0354C456.995 30.7639 460.047 33.7866 463.812 33.7866Z" fill="white"/>
<path d="M62.2065 -602.569C67.9791 -602.569 72.6588 -607.203 72.6588 -612.921C72.6588 -618.638 67.9791 -623.272 62.2065 -623.272C56.4338 -623.272 51.7542 -618.638 51.7542 -612.921C51.7542 -607.203 56.4338 -602.569 62.2065 -602.569Z" fill="white"/>
<path d="M-305.91 -117.262C-301.976 -117.262 -298.786 -120.421 -298.786 -124.317C-298.786 -128.214 -301.976 -131.372 -305.91 -131.372C-309.844 -131.372 -313.033 -128.214 -313.033 -124.317C-313.033 -120.421 -309.844 -117.262 -305.91 -117.262Z" fill="white"/>
<path d="M-196.916 -526.911C-193.906 -526.911 -191.466 -529.328 -191.466 -532.309C-191.466 -535.29 -193.906 -537.707 -196.916 -537.707C-199.926 -537.707 -202.366 -535.29 -202.366 -532.309C-202.366 -529.328 -199.926 -526.911 -196.916 -526.911Z" fill="white"/>
<path d="M351.615 104.338C357.527 104.338 362.319 99.5917 362.319 93.7366C362.319 87.8815 357.527 83.135 351.615 83.135C345.703 83.135 340.911 87.8815 340.911 93.7366C340.911 99.5917 345.703 104.338 351.615 104.338Z" fill="white"/>
<path d="M450.056 132.902C454.538 132.902 458.172 129.303 458.172 124.863C458.172 120.424 454.538 116.825 450.056 116.825C445.573 116.825 441.94 120.424 441.94 124.863C441.94 129.303 445.573 132.902 450.056 132.902Z" fill="white"/>
<path d="M-309.071 -424.084C-306.027 -424.084 -303.56 -426.528 -303.56 -429.542C-303.56 -432.556 -306.027 -434.999 -309.071 -434.999C-312.114 -434.999 -314.581 -432.556 -314.581 -429.542C-314.581 -426.528 -312.114 -424.084 -309.071 -424.084Z" fill="white"/>
<path d="M353.556 -579.203C360.889 -579.203 366.834 -585.091 366.834 -592.354C366.834 -599.617 360.889 -605.504 353.556 -605.504C346.222 -605.504 340.277 -599.617 340.277 -592.354C340.277 -585.091 346.222 -579.203 353.556 -579.203Z" fill="white"/>
<path d="M329.298 -629.1C334.929 -629.1 339.494 -633.621 339.494 -639.199C339.494 -644.776 334.929 -649.298 329.298 -649.298C323.666 -649.298 319.101 -644.776 319.101 -639.199C319.101 -633.621 323.666 -629.1 329.298 -629.1Z" fill="white"/>
<path d="M-244.59 -24.02C-241.488 -24.02 -238.974 -26.5105 -238.974 -29.5827C-238.974 -32.6549 -241.488 -35.1454 -244.59 -35.1454C-247.692 -35.1454 -250.207 -32.6549 -250.207 -29.5827C-250.207 -26.5105 -247.692 -24.02 -244.59 -24.02Z" fill="white"/>
<path d="M-329.662 -196.328C-325.984 -196.328 -323.003 -199.281 -323.003 -202.923C-323.003 -206.565 -325.984 -209.518 -329.662 -209.518C-333.339 -209.518 -336.321 -206.565 -336.321 -202.923C-336.321 -199.281 -333.339 -196.328 -329.662 -196.328Z" fill="white"/>
<path d="M198.286 122.332C206.087 122.332 212.411 116.069 212.411 108.343C212.411 100.617 206.087 94.3533 198.286 94.3533C190.485 94.3533 184.161 100.617 184.161 108.343C184.161 116.069 190.485 122.332 198.286 122.332Z" fill="white"/>
<path d="M499.699 -540.636C502.69 -540.636 505.115 -543.037 505.115 -546C505.115 -548.962 502.69 -551.364 499.699 -551.364C496.708 -551.364 494.283 -548.962 494.283 -546C494.283 -543.037 496.708 -540.636 499.699 -540.636Z" fill="white"/>
<path d="M185.387 -705.574C188.512 -705.574 191.045 -708.083 191.045 -711.178C191.045 -714.273 188.512 -716.782 185.387 -716.782C182.262 -716.782 179.729 -714.273 179.729 -711.178C179.729 -708.083 182.262 -705.574 185.387 -705.574Z" fill="white"/>
<path d="M415.97 -483.617C423.815 -483.617 430.174 -489.915 430.174 -497.684C430.174 -505.453 423.815 -511.751 415.97 -511.751C408.126 -511.751 401.767 -505.453 401.767 -497.684C401.767 -489.915 408.126 -483.617 415.97 -483.617Z" fill="white"/>
<path d="M-171.259 -336.348C-161.617 -336.348 -153.801 -344.089 -153.801 -353.639C-153.801 -363.188 -161.617 -370.929 -171.259 -370.929C-180.901 -370.929 -188.717 -363.188 -188.717 -353.639C-188.717 -344.089 -180.901 -336.348 -171.259 -336.348Z" fill="white"/>
<path d="M176.304 72.0669C182.884 72.0669 188.217 66.7844 188.217 60.2682C188.217 53.752 182.884 48.4695 176.304 48.4695C169.725 48.4695 164.391 53.752 164.391 60.2682C164.391 66.7844 169.725 72.0669 176.304 72.0669Z" fill="white"/>
<path d="M490.654 -581.546C493.818 -581.546 496.383 -584.086 496.383 -587.219C496.383 -590.352 493.818 -592.892 490.654 -592.892C487.491 -592.892 484.926 -590.352 484.926 -587.219C484.926 -584.086 487.491 -581.546 490.654 -581.546Z" fill="white"/>
<path d="M200.348 -683.221C203.615 -683.221 206.263 -685.844 206.263 -689.079C206.263 -692.315 203.615 -694.938 200.348 -694.938C197.081 -694.938 194.433 -692.315 194.433 -689.079C194.433 -685.844 197.081 -683.221 200.348 -683.221Z" fill="white"/>
<path d="M408.214 -658.652C412.24 -658.652 415.505 -661.884 415.505 -665.872C415.505 -669.86 412.24 -673.093 408.214 -673.093C404.187 -673.093 400.923 -669.86 400.923 -665.872C400.923 -661.884 404.187 -658.652 408.214 -658.652Z" fill="white"/>
<path d="M193.786 -637.2C199.918 -637.2 204.889 -642.123 204.889 -648.196C204.889 -654.269 199.918 -659.192 193.786 -659.192C187.654 -659.192 182.684 -654.269 182.684 -648.196C182.684 -642.123 187.654 -637.2 193.786 -637.2Z" fill="white"/>
<path d="M-181.074 -89.2321C-175.804 -89.2321 -171.531 -93.4635 -171.531 -98.6832C-171.531 -103.903 -175.804 -108.134 -181.074 -108.134C-186.344 -108.134 -190.617 -103.903 -190.617 -98.6832C-190.617 -93.4635 -186.344 -89.2321 -181.074 -89.2321Z" fill="white"/>
<path d="M397.364 -454.173C403.131 -454.173 407.805 -458.803 407.805 -464.515C407.805 -470.226 403.131 -474.856 397.364 -474.856C391.597 -474.856 386.922 -470.226 386.922 -464.515C386.922 -458.803 391.597 -454.173 397.364 -454.173Z" fill="white"/>
<path d="M468.25 -495.033C473.883 -495.033 478.449 -499.555 478.449 -505.134C478.449 -510.713 473.883 -515.235 468.25 -515.235C462.617 -515.235 458.051 -510.713 458.051 -505.134C458.051 -499.555 462.617 -495.033 468.25 -495.033Z" fill="white"/>
<path d="M41.0907 -599.73C45.8091 -599.73 49.6341 -603.519 49.6341 -608.192C49.6341 -612.865 45.8091 -616.653 41.0907 -616.653C36.3724 -616.653 32.5474 -612.865 32.5474 -608.192C32.5474 -603.519 36.3724 -599.73 41.0907 -599.73Z" fill="white"/>
<path d="M-239.271 -338.327C-234.785 -338.327 -231.149 -341.929 -231.149 -346.371C-231.149 -350.814 -234.785 -354.415 -239.271 -354.415C-243.756 -354.415 -247.393 -350.814 -247.393 -346.371C-247.393 -341.929 -243.756 -338.327 -239.271 -338.327Z" fill="white"/>
<path d="M118.767 176.715C122.089 176.715 124.783 174.047 124.783 170.757C124.783 167.466 122.089 164.799 118.767 164.799C115.445 164.799 112.751 167.466 112.751 170.757C112.751 174.047 115.445 176.715 118.767 176.715Z" fill="white"/>
<path d="M-225.799 -89.5045C-220.789 -89.5045 -216.728 -93.5267 -216.728 -98.4884C-216.728 -103.45 -220.789 -107.472 -225.799 -107.472C-230.808 -107.472 -234.87 -103.45 -234.87 -98.4884C-234.87 -93.5267 -230.808 -89.5045 -225.799 -89.5045Z" fill="white"/>
<path d="M-252.048 7.30121C-248.168 7.30121 -245.024 4.18665 -245.024 0.344666C-245.024 -3.49731 -248.168 -6.61182 -252.048 -6.61182C-255.927 -6.61182 -259.072 -3.49731 -259.072 0.344666C-259.072 4.18665 -255.927 7.30121 -252.048 7.30121Z" fill="white"/>
<path d="M-157.905 -250.565C-147.221 -250.565 -138.561 -259.142 -138.561 -269.723C-138.561 -280.304 -147.221 -288.882 -157.905 -288.882C-168.589 -288.882 -177.249 -280.304 -177.249 -269.723C-177.249 -259.142 -168.589 -250.565 -157.905 -250.565Z" fill="white"/>
<path d="M-192.512 -396.215C-188.314 -396.215 -184.91 -399.586 -184.91 -403.744C-184.91 -407.903 -188.314 -411.274 -192.512 -411.274C-196.711 -411.274 -200.115 -407.903 -200.115 -403.744C-200.115 -399.586 -196.711 -396.215 -192.512 -396.215Z" fill="white"/>
<path d="M-240.553 -508.376C-237.048 -508.376 -234.206 -511.191 -234.206 -514.662C-234.206 -518.134 -237.048 -520.949 -240.553 -520.949C-244.058 -520.949 -246.9 -518.134 -246.9 -514.662C-246.9 -511.191 -244.058 -508.376 -240.553 -508.376Z" fill="white"/>
<path d="M-304.925 -241.013C-301.613 -241.013 -298.928 -243.672 -298.928 -246.953C-298.928 -250.234 -301.613 -252.893 -304.925 -252.893C-308.238 -252.893 -310.923 -250.234 -310.923 -246.953C-310.923 -243.672 -308.238 -241.013 -304.925 -241.013Z" fill="white"/>
<path d="M-90.6665 -542.595C-86.6772 -542.595 -83.4433 -545.798 -83.4433 -549.749C-83.4433 -553.7 -86.6772 -556.903 -90.6665 -556.903C-94.6557 -556.903 -97.8897 -553.7 -97.8897 -549.749C-97.8897 -545.798 -94.6557 -542.595 -90.6665 -542.595Z" fill="white"/>
<path d="M528.097 -342.134C535.737 -342.134 541.931 -348.268 541.931 -355.835C541.931 -363.402 535.737 -369.536 528.097 -369.536C520.457 -369.536 514.264 -363.402 514.264 -355.835C514.264 -348.268 520.457 -342.134 528.097 -342.134Z" fill="white"/>
<path d="M-200.977 -466.007C-195.391 -466.007 -190.863 -470.491 -190.863 -476.023C-190.863 -481.555 -195.391 -486.039 -200.977 -486.039C-206.562 -486.039 -211.09 -481.555 -211.09 -476.023C-211.09 -470.491 -206.562 -466.007 -200.977 -466.007Z" fill="white"/>
<path d="M-62.8606 10.0266C-52.0629 10.0266 -43.3096 1.35736 -43.3096 -9.33673C-43.3096 -20.0308 -52.0629 -28.7001 -62.8606 -28.7001C-73.6584 -28.7001 -82.4117 -20.0308 -82.4117 -9.33673C-82.4117 1.35736 -73.6584 10.0266 -62.8606 10.0266Z" fill="white"/>
<path d="M499.237 -139.955C505.547 -139.955 510.663 -145.022 510.663 -151.272C510.663 -157.522 505.547 -162.589 499.237 -162.589C492.926 -162.589 487.811 -157.522 487.811 -151.272C487.811 -145.022 492.926 -139.955 499.237 -139.955Z" fill="white"/>
<path d="M530.938 -119.074C536.494 -119.074 540.999 -123.535 540.999 -129.038C540.999 -134.541 536.494 -139.002 530.938 -139.002C525.381 -139.002 520.877 -134.541 520.877 -129.038C520.877 -123.535 525.381 -119.074 530.938 -119.074Z" fill="white"/>
<path d="M-14.2314 -601.589C-10.1478 -601.589 -6.83743 -604.867 -6.83743 -608.912C-6.83743 -612.956 -10.1478 -616.235 -14.2314 -616.235C-18.315 -616.235 -21.6254 -612.956 -21.6254 -608.912C-21.6254 -604.867 -18.315 -601.589 -14.2314 -601.589Z" fill="white"/>
<path d="M150.875 -741.708C155.145 -741.708 158.607 -745.136 158.607 -749.365C158.607 -753.594 155.145 -757.022 150.875 -757.022C146.606 -757.022 143.144 -753.594 143.144 -749.365C143.144 -745.136 146.606 -741.708 150.875 -741.708Z" fill="white"/>
<path d="M529.805 -495.495C534.697 -495.495 538.662 -499.423 538.662 -504.268C538.662 -509.113 534.697 -513.04 529.805 -513.04C524.913 -513.04 520.948 -509.113 520.948 -504.268C520.948 -499.423 524.913 -495.495 529.805 -495.495Z" fill="white"/>
<path d="M360.158 76.874C364.454 76.874 367.937 73.4245 367.937 69.1694C367.937 64.9142 364.454 61.4647 360.158 61.4647C355.861 61.4647 352.378 64.9142 352.378 69.1694C352.378 73.4245 355.861 76.874 360.158 76.874Z" fill="white"/>
<path d="M355.797 -508.288C365.107 -508.288 372.654 -515.763 372.654 -524.983C372.654 -534.204 365.107 -541.678 355.797 -541.678C346.488 -541.678 338.941 -534.204 338.941 -524.983C338.941 -515.763 346.488 -508.288 355.797 -508.288Z" fill="white"/>
<path d="M283.97 -631.334C287.725 -631.334 290.77 -634.349 290.77 -638.069C290.77 -641.788 287.725 -644.803 283.97 -644.803C280.214 -644.803 277.17 -641.788 277.17 -638.069C277.17 -634.349 280.214 -631.334 283.97 -631.334Z" fill="white"/>
<path d="M-313.423 -287.25C-308.315 -287.25 -304.174 -291.351 -304.174 -296.41C-304.174 -301.469 -308.315 -305.57 -313.423 -305.57C-318.531 -305.57 -322.672 -301.469 -322.672 -296.41C-322.672 -291.351 -318.531 -287.25 -313.423 -287.25Z" fill="white"/>
<path d="M-179.063 -520.43C-175.13 -520.43 -171.942 -523.588 -171.942 -527.483C-171.942 -531.378 -175.13 -534.536 -179.063 -534.536C-182.996 -534.536 -186.184 -531.378 -186.184 -527.483C-186.184 -523.588 -182.996 -520.43 -179.063 -520.43Z" fill="white"/>
<path d="M37.019 -722.731C39.9161 -722.731 42.2646 -725.057 42.2646 -727.927C42.2646 -730.796 39.9161 -733.122 37.019 -733.122C34.122 -733.122 31.7735 -730.796 31.7735 -727.927C31.7735 -725.057 34.122 -722.731 37.019 -722.731Z" fill="white"/>
<path d="M50.2862 -673.144C53.5165 -673.144 56.1352 -675.737 56.1352 -678.937C56.1352 -682.136 53.5165 -684.73 50.2862 -684.73C47.0559 -684.73 44.4373 -682.136 44.4373 -678.937C44.4373 -675.737 47.0559 -673.144 50.2862 -673.144Z" fill="white"/>
<path d="M-128.935 81.215C-123.74 81.215 -119.527 77.0434 -119.527 71.8973C-119.527 66.7513 -123.74 62.5796 -128.935 62.5796C-134.131 62.5796 -138.343 66.7513 -138.343 71.8973C-138.343 77.0434 -134.131 81.215 -128.935 81.215Z" fill="white"/>
<path d="M-227.806 -21.9542C-224.332 -21.9542 -221.515 -24.7434 -221.515 -28.184C-221.515 -31.6246 -224.332 -34.4138 -227.806 -34.4138C-231.28 -34.4138 -234.096 -31.6246 -234.096 -28.184C-234.096 -24.7434 -231.28 -21.9542 -227.806 -21.9542Z" fill="white"/>
<path d="M396.417 -18.7424C402.632 -18.7424 407.67 -23.7324 407.67 -29.8879C407.67 -36.0433 402.632 -41.0333 396.417 -41.0333C390.202 -41.0333 385.164 -36.0433 385.164 -29.8879C385.164 -23.7324 390.202 -18.7424 396.417 -18.7424Z" fill="white"/>
<path d="M605.352 -111.45C609.265 -111.45 612.437 -114.592 612.437 -118.467C612.437 -122.343 609.265 -125.484 605.352 -125.484C601.439 -125.484 598.267 -122.343 598.267 -118.467C598.267 -114.592 601.439 -111.45 605.352 -111.45Z" fill="white"/>
<path d="M511.263 -319.076C516.405 -319.076 520.573 -323.204 520.573 -328.297C520.573 -333.39 516.405 -337.518 511.263 -337.518C506.12 -337.518 501.952 -333.39 501.952 -328.297C501.952 -323.204 506.12 -319.076 511.263 -319.076Z" fill="white"/>
<path d="M-16.3427 -632.527C-12.1428 -632.527 -8.7381 -635.899 -8.7381 -640.059C-8.7381 -644.219 -12.1428 -647.591 -16.3427 -647.591C-20.5426 -647.591 -23.9472 -644.219 -23.9472 -640.059C-23.9472 -635.899 -20.5426 -632.527 -16.3427 -632.527Z" fill="white"/>
<path d="M561.065 -328.709C566.474 -328.709 570.859 -333.052 570.859 -338.409C570.859 -343.766 566.474 -348.109 561.065 -348.109C555.655 -348.109 551.27 -343.766 551.27 -338.409C551.27 -333.052 555.655 -328.709 561.065 -328.709Z" fill="white"/>
<path d="M94.1467 222.397C96.966 222.397 99.2515 220.133 99.2515 217.341C99.2515 214.549 96.966 212.285 94.1467 212.285C91.3275 212.285 89.0419 214.549 89.0419 217.341C89.0419 220.133 91.3275 222.397 94.1467 222.397Z" fill="white"/>
<path d="M601.639 -474.413C604.861 -474.413 607.474 -477 607.474 -480.191C607.474 -483.383 604.861 -485.97 601.639 -485.97C598.417 -485.97 595.804 -483.383 595.804 -480.191C595.804 -477 598.417 -474.413 601.639 -474.413Z" fill="white"/>
<path d="M517.201 -293.376C523.486 -293.376 528.581 -298.422 528.581 -304.647C528.581 -310.871 523.486 -315.918 517.201 -315.918C510.916 -315.918 505.821 -310.871 505.821 -304.647C505.821 -298.422 510.916 -293.376 517.201 -293.376Z" fill="white"/>
<path d="M-0.167236 212.007C2.59161 212.007 4.82812 209.792 4.82812 207.06C4.82812 204.327 2.59161 202.112 -0.167236 202.112C-2.92609 202.112 -5.16254 204.327 -5.16254 207.06C-5.16254 209.792 -2.92609 212.007 -0.167236 212.007Z" fill="white"/>
<path d="M98.8641 -638.831C102.696 -638.831 105.802 -641.907 105.802 -645.702C105.802 -649.496 102.696 -652.573 98.8641 -652.573C95.0326 -652.573 91.9266 -649.496 91.9266 -645.702C91.9266 -641.907 95.0326 -638.831 98.8641 -638.831Z" fill="white"/>
<path d="M-94.8304 107.416C-90.4209 107.416 -86.8463 103.876 -86.8463 99.5085C-86.8463 95.1414 -90.4209 91.601 -94.8304 91.601C-99.2399 91.601 -102.814 95.1414 -102.814 99.5085C-102.814 103.876 -99.2399 107.416 -94.8304 107.416Z" fill="white"/>
<path d="M235.036 -653.845C239.276 -653.845 242.713 -657.249 242.713 -661.448C242.713 -665.648 239.276 -669.052 235.036 -669.052C230.796 -669.052 227.359 -665.648 227.359 -661.448C227.359 -657.249 230.796 -653.845 235.036 -653.845Z" fill="white"/>
<path d="M270.269 115.629C275.511 115.629 279.761 111.42 279.761 106.228C279.761 101.036 275.511 96.8269 270.269 96.8269C265.027 96.8269 260.777 101.036 260.777 106.228C260.777 111.42 265.027 115.629 270.269 115.629Z" fill="white"/>
<path d="M-212.396 -533.813C-208.532 -533.813 -205.4 -536.915 -205.4 -540.742C-205.4 -544.568 -208.532 -547.671 -212.396 -547.671C-216.26 -547.671 -219.392 -544.568 -219.392 -540.742C-219.392 -536.915 -216.26 -533.813 -212.396 -533.813Z" fill="white"/>
<path d="M130.758 -543.01C137.672 -543.01 143.278 -548.561 143.278 -555.409C143.278 -562.257 137.672 -567.808 130.758 -567.808C123.844 -567.808 118.239 -562.257 118.239 -555.409C118.239 -548.561 123.844 -543.01 130.758 -543.01Z" fill="white"/>
<path d="M-10.1798 -693.588C-6.53958 -693.588 -3.58862 -696.51 -3.58862 -700.116C-3.58862 -703.721 -6.53958 -706.644 -10.1798 -706.644C-13.8201 -706.644 -16.7711 -703.721 -16.7711 -700.116C-16.7711 -696.51 -13.8201 -693.588 -10.1798 -693.588Z" fill="white"/>
<path d="M-39.866 -488.655C-31.8333 -488.655 -25.3214 -495.104 -25.3214 -503.06C-25.3214 -511.015 -31.8333 -517.465 -39.866 -517.465C-47.8988 -517.465 -54.4106 -511.015 -54.4106 -503.06C-54.4106 -495.104 -47.8988 -488.655 -39.866 -488.655Z" fill="white"/>
<path d="M312.25 -666.701C315.771 -666.701 318.625 -669.528 318.625 -673.015C318.625 -676.502 315.771 -679.329 312.25 -679.329C308.728 -679.329 305.874 -676.502 305.874 -673.015C305.874 -669.528 308.728 -666.701 312.25 -666.701Z" fill="white"/>
<path d="M456.777 -175.076C466.564 -175.076 474.499 -182.934 474.499 -192.628C474.499 -202.321 466.564 -210.18 456.777 -210.18C446.989 -210.18 439.055 -202.321 439.055 -192.628C439.055 -182.934 446.989 -175.076 456.777 -175.076Z" fill="white"/>
<path d="M489.559 -454.739C495.77 -454.739 500.805 -459.726 500.805 -465.878C500.805 -472.029 495.77 -477.016 489.559 -477.016C483.348 -477.016 478.313 -472.029 478.313 -465.878C478.313 -459.726 483.348 -454.739 489.559 -454.739Z" fill="white"/>
<path d="M-95.8935 -511.804C-90.9444 -511.804 -86.9323 -515.777 -86.9323 -520.679C-86.9323 -525.58 -90.9444 -529.554 -95.8935 -529.554C-100.843 -529.554 -104.855 -525.58 -104.855 -520.679C-104.855 -515.777 -100.843 -511.804 -95.8935 -511.804Z" fill="white"/>
<path d="M398.809 56.9286C404.946 56.9286 409.921 52.0012 409.921 45.9229C409.921 39.8445 404.946 34.917 398.809 34.917C392.672 34.917 387.696 39.8445 387.696 45.9229C387.696 52.0012 392.672 56.9286 398.809 56.9286Z" fill="white"/>
<path d="M584.675 -210.589C589.719 -210.589 593.808 -214.638 593.808 -219.634C593.808 -224.63 589.719 -228.679 584.675 -228.679C579.631 -228.679 575.542 -224.63 575.542 -219.634C575.542 -214.638 579.631 -210.589 584.675 -210.589Z" fill="white"/>
<path d="M461.566 -239.345C472.561 -239.345 481.474 -248.172 481.474 -259.062C481.474 -269.951 472.561 -278.779 461.566 -278.779C450.571 -278.779 441.658 -269.951 441.658 -259.062C441.658 -248.172 450.571 -239.345 461.566 -239.345Z" fill="white"/>
<path d="M506.026 -377.561C511.113 -377.561 515.237 -381.645 515.237 -386.683C515.237 -391.721 511.113 -395.805 506.026 -395.805C500.94 -395.805 496.816 -391.721 496.816 -386.683C496.816 -381.645 500.94 -377.561 506.026 -377.561Z" fill="white"/>
<path d="M458.106 -2.14642C464.976 -2.14642 470.544 -7.66162 470.544 -14.4651C470.544 -21.2686 464.976 -26.7839 458.106 -26.7839C451.237 -26.7839 445.668 -21.2686 445.668 -14.4651C445.668 -7.66162 451.237 -2.14642 458.106 -2.14642Z" fill="white"/>
<path d="M164.429 -661.523C170.044 -661.523 174.597 -666.031 174.597 -671.593C174.597 -677.155 170.044 -681.664 164.429 -681.664C158.813 -681.664 154.26 -677.155 154.26 -671.593C154.26 -666.031 158.813 -661.523 164.429 -661.523Z" fill="white"/>
<path d="M-22.0229 137.708C-18.3569 137.708 -15.3849 134.764 -15.3849 131.133C-15.3849 127.503 -18.3569 124.559 -22.0229 124.559C-25.689 124.559 -28.6609 127.503 -28.6609 131.133C-28.6609 134.764 -25.689 137.708 -22.0229 137.708Z" fill="white"/>
<path d="M405.173 -677.878C408.414 -677.878 411.042 -680.48 411.042 -683.69C411.042 -686.9 408.414 -689.503 405.173 -689.503C401.932 -689.503 399.305 -686.9 399.305 -683.69C399.305 -680.48 401.932 -677.878 405.173 -677.878Z" fill="white"/>
<path d="M-166.757 -559.775C-163.604 -559.775 -161.048 -562.306 -161.048 -565.429C-161.048 -568.551 -163.604 -571.083 -166.757 -571.083C-169.909 -571.083 -172.465 -568.551 -172.465 -565.429C-172.465 -562.306 -169.909 -559.775 -166.757 -559.775Z" fill="white"/>
<path d="M251.123 132.855C256.282 132.855 260.465 128.713 260.465 123.603C260.465 118.494 256.282 114.351 251.123 114.351C245.964 114.351 241.781 118.494 241.781 123.603C241.781 128.713 245.964 132.855 251.123 132.855Z" fill="white"/>
<path d="M521.276 -1.64154C526.897 -1.64154 531.453 -6.15454 531.453 -11.7217C531.453 -17.2888 526.897 -21.8018 521.276 -21.8018C515.655 -21.8018 511.098 -17.2888 511.098 -11.7217C511.098 -6.15454 515.655 -1.64154 521.276 -1.64154Z" fill="white"/>
<path d="M-124.696 -96.0488C-113.468 -96.0488 -104.366 -105.064 -104.366 -116.184C-104.366 -127.305 -113.468 -136.32 -124.696 -136.32C-135.925 -136.32 -145.027 -127.305 -145.027 -116.184C-145.027 -105.064 -135.925 -96.0488 -124.696 -96.0488Z" fill="white"/>
<path d="M290.773 148.265C294.711 148.265 297.904 145.103 297.904 141.202C297.904 137.302 294.711 134.14 290.773 134.14C286.835 134.14 283.642 137.302 283.642 141.202C283.642 145.103 286.835 148.265 290.773 148.265Z" fill="white"/>
<path d="M350.53 -657.558C354.638 -657.558 357.968 -660.856 357.968 -664.925C357.968 -668.994 354.638 -672.292 350.53 -672.292C346.422 -672.292 343.092 -668.994 343.092 -664.925C343.092 -660.856 346.422 -657.558 350.53 -657.558Z" fill="white"/>
<path d="M-84.3886 -569.111C-80.7401 -569.111 -77.7824 -572.04 -77.7824 -575.654C-77.7824 -579.267 -80.7401 -582.197 -84.3886 -582.197C-88.0371 -582.197 -90.9948 -579.267 -90.9948 -575.654C-90.9948 -572.04 -88.0371 -569.111 -84.3886 -569.111Z" fill="white"/>
<path d="M168.405 -541.775C176.373 -541.775 182.832 -548.172 182.832 -556.063C182.832 -563.954 176.373 -570.351 168.405 -570.351C160.438 -570.351 153.979 -563.954 153.979 -556.063C153.979 -548.172 160.438 -541.775 168.405 -541.775Z" fill="white"/>
<path d="M-339.903 -81.2963C-337.141 -81.2963 -334.902 -83.5138 -334.902 -86.2493C-334.902 -88.9847 -337.141 -91.2023 -339.903 -91.2023C-342.665 -91.2023 -344.904 -88.9847 -344.904 -86.2493C-344.904 -83.5138 -342.665 -81.2963 -339.903 -81.2963Z" fill="white"/>
<path d="M538.877 17.0918C543.145 17.0918 546.604 13.6651 546.604 9.43811C546.604 5.21112 543.145 1.78448 538.877 1.78448C534.609 1.78448 531.149 5.21112 531.149 9.43811C531.149 13.6651 534.609 17.0918 538.877 17.0918Z" fill="white"/>
<path d="M-74.7317 -518.906C-67.2263 -518.906 -61.142 -524.932 -61.142 -532.365C-61.142 -539.798 -67.2263 -545.824 -74.7317 -545.824C-82.2371 -545.824 -88.3214 -539.798 -88.3214 -532.365C-88.3214 -524.932 -82.2371 -518.906 -74.7317 -518.906Z" fill="white"/>
<path d="M413.238 37.3975C420.778 37.3975 426.891 31.3438 426.891 23.8763C426.891 16.4088 420.778 10.3551 413.238 10.3551C405.699 10.3551 399.586 16.4088 399.586 23.8763C399.586 31.3438 405.699 37.3975 413.238 37.3975Z" fill="white"/>
<path d="M-221.568 -119.588C-216.048 -119.588 -211.574 -124.02 -211.574 -129.487C-211.574 -134.954 -216.048 -139.385 -221.568 -139.385C-227.088 -139.385 -231.563 -134.954 -231.563 -129.487C-231.563 -124.02 -227.088 -119.588 -221.568 -119.588Z" fill="white"/>
<path d="M-93.8973 147.692C-90.3713 147.692 -87.5129 144.861 -87.5129 141.369C-87.5129 137.877 -90.3713 135.046 -93.8973 135.046C-97.4233 135.046 -100.282 137.877 -100.282 141.369C-100.282 144.861 -97.4233 147.692 -93.8973 147.692Z" fill="white"/>
<path d="M112.392 -724.461C116.274 -724.461 119.42 -727.578 119.42 -731.422C119.42 -735.266 116.274 -738.383 112.392 -738.383C108.511 -738.383 105.364 -735.266 105.364 -731.422C105.364 -727.578 108.511 -724.461 112.392 -724.461Z" fill="white"/>
<path d="M568.42 -421.028C572.062 -421.028 575.016 -423.953 575.016 -427.561C575.016 -431.169 572.062 -434.094 568.42 -434.094C564.777 -434.094 561.823 -431.169 561.823 -427.561C561.823 -423.953 564.777 -421.028 568.42 -421.028Z" fill="white"/>
<path d="M172.913 -597.545C179.173 -597.545 184.248 -602.571 184.248 -608.771C184.248 -614.971 179.173 -619.998 172.913 -619.998C166.652 -619.998 161.577 -614.971 161.577 -608.771C161.577 -602.571 166.652 -597.545 172.913 -597.545Z" fill="white"/>
<path d="M551.059 -91.2028C554.983 -91.2028 558.164 -94.3536 558.164 -98.2402C558.164 -102.127 554.983 -105.278 551.059 -105.278C547.135 -105.278 543.953 -102.127 543.953 -98.2402C543.953 -94.3536 547.135 -91.2028 551.059 -91.2028Z" fill="white"/>
<path d="M486.607 -400.139C494.219 -400.139 500.389 -406.251 500.389 -413.789C500.389 -421.328 494.219 -427.439 486.607 -427.439C478.995 -427.439 472.825 -421.328 472.825 -413.789C472.825 -406.251 478.995 -400.139 486.607 -400.139Z" fill="white"/>
<path d="M462.357 -454.063C466.755 -454.063 470.321 -457.594 470.321 -461.951C470.321 -466.307 466.755 -469.839 462.357 -469.839C457.958 -469.839 454.392 -466.307 454.392 -461.951C454.392 -457.594 457.958 -454.063 462.357 -454.063Z" fill="white"/>
<path d="M-151.417 65.5651C-147.253 65.5651 -143.877 62.2216 -143.877 58.0973C-143.877 53.973 -147.253 50.6296 -151.417 50.6296C-155.581 50.6296 -158.957 53.973 -158.957 58.0973C-158.957 62.2216 -155.581 65.5651 -151.417 65.5651Z" fill="white"/>
<path d="M445.774 39.4471C451.001 39.4471 455.237 35.251 455.237 30.0748C455.237 24.8986 451.001 20.7025 445.774 20.7025C440.548 20.7025 436.311 24.8986 436.311 30.0748C436.311 35.251 440.548 39.4471 445.774 39.4471Z" fill="white"/>
<path d="M378.26 77.856C383.733 77.856 388.17 73.4614 388.17 68.0403C388.17 62.6193 383.733 58.2247 378.26 58.2247C372.786 58.2247 368.349 62.6193 368.349 68.0403C368.349 73.4614 372.786 77.856 378.26 77.856Z" fill="white"/>
<path d="M-99.6443 -51.5117C-88.0241 -51.5117 -78.6041 -60.8412 -78.6041 -72.3499C-78.6041 -83.8586 -88.0241 -93.1882 -99.6443 -93.1882C-111.264 -93.1882 -120.684 -83.8586 -120.684 -72.3499C-120.684 -60.8412 -111.264 -51.5117 -99.6443 -51.5117Z" fill="white"/>
<path d="M-214.302 -365.343C-206.751 -365.343 -200.63 -371.406 -200.63 -378.884C-200.63 -386.363 -206.751 -392.425 -214.302 -392.425C-221.854 -392.425 -227.975 -386.363 -227.975 -378.884C-227.975 -371.406 -221.854 -365.343 -214.302 -365.343Z" fill="white"/>
<path d="M-255.729 -489.765C-252.988 -489.765 -250.767 -491.965 -250.767 -494.678C-250.767 -497.392 -252.988 -499.592 -255.729 -499.592C-258.469 -499.592 -260.69 -497.392 -260.69 -494.678C-260.69 -491.965 -258.469 -489.765 -255.729 -489.765Z" fill="white"/>
<path d="M279.504 -696.864C282.269 -696.864 284.511 -699.084 284.511 -701.824C284.511 -704.563 282.269 -706.783 279.504 -706.783C276.738 -706.783 274.496 -704.563 274.496 -701.824C274.496 -699.084 276.738 -696.864 279.504 -696.864Z" fill="white"/>
<path d="M613.834 -33.1924C616.37 -33.1924 618.425 -35.2285 618.425 -37.74C618.425 -40.2515 616.37 -42.2875 613.834 -42.2875C611.298 -42.2875 609.242 -40.2515 609.242 -37.74C609.242 -35.2285 611.298 -33.1924 613.834 -33.1924Z" fill="white"/>
<path d="M-221.578 -315.336C-216.452 -315.336 -212.296 -319.451 -212.296 -324.528C-212.296 -329.605 -216.452 -333.721 -221.578 -333.721C-226.704 -333.721 -230.859 -329.605 -230.859 -324.528C-230.859 -319.451 -226.704 -315.336 -221.578 -315.336Z" fill="white"/>
<path d="M207.318 -662.098C212.026 -662.098 215.842 -665.877 215.842 -670.539C215.842 -675.202 212.026 -678.981 207.318 -678.981C202.611 -678.981 198.795 -675.202 198.795 -670.539C198.795 -665.877 202.611 -662.098 207.318 -662.098Z" fill="white"/>
<path d="M549.772 -195.379C555.045 -195.379 559.319 -199.613 559.319 -204.835C559.319 -210.057 555.045 -214.291 549.772 -214.291C544.499 -214.291 540.225 -210.057 540.225 -204.835C540.225 -199.613 544.499 -195.379 549.772 -195.379Z" fill="white"/>
<path d="M-220.993 -395.875C-213.95 -395.875 -208.241 -401.53 -208.241 -408.504C-208.241 -415.479 -213.95 -421.133 -220.993 -421.133C-228.035 -421.133 -233.744 -415.479 -233.744 -408.504C-233.744 -401.53 -228.035 -395.875 -220.993 -395.875Z" fill="white"/>
<path d="M-284.993 -407.92C-281.59 -407.92 -278.832 -410.652 -278.832 -414.021C-278.832 -417.391 -281.59 -420.123 -284.993 -420.123C-288.395 -420.123 -291.153 -417.391 -291.153 -414.021C-291.153 -410.652 -288.395 -407.92 -284.993 -407.92Z" fill="white"/>
<path d="M278.798 -656.175C284.671 -656.175 289.432 -660.891 289.432 -666.707C289.432 -672.524 284.671 -677.239 278.798 -677.239C272.925 -677.239 268.164 -672.524 268.164 -666.707C268.164 -660.891 272.925 -656.175 278.798 -656.175Z" fill="white"/>
<path d="M257.295 195.668C261.588 195.668 265.069 192.22 265.069 187.968C265.069 183.715 261.588 180.268 257.295 180.268C253.001 180.268 249.52 183.715 249.52 187.968C249.52 192.22 253.001 195.668 257.295 195.668Z" fill="white"/>
<path d="M94.5157 112.93C99.2484 112.93 103.085 109.13 103.085 104.443C103.085 99.7559 99.2484 95.956 94.5157 95.956C89.783 95.956 85.9464 99.7559 85.9464 104.443C85.9464 109.13 89.783 112.93 94.5157 112.93Z" fill="white"/>
<path d="M112.202 -586.594C118.582 -586.594 123.754 -591.716 123.754 -598.035C123.754 -604.354 118.582 -609.476 112.202 -609.476C105.822 -609.476 100.65 -604.354 100.65 -598.035C100.65 -591.716 105.822 -586.594 112.202 -586.594Z" fill="white"/>
<path d="M374.604 -462.709C384.354 -462.709 392.257 -470.536 392.257 -480.192C392.257 -489.848 384.354 -497.676 374.604 -497.676C364.855 -497.676 356.951 -489.848 356.951 -480.192C356.951 -470.536 364.855 -462.709 374.604 -462.709Z" fill="white"/>
<path d="M161.405 -722.385C164.262 -722.385 166.579 -724.679 166.579 -727.51C166.579 -730.34 164.262 -732.634 161.405 -732.634C158.547 -732.634 156.23 -730.34 156.23 -727.51C156.23 -724.679 158.547 -722.385 161.405 -722.385Z" fill="white"/>
<path d="M-89.7161 53.4416C-85.3185 53.4416 -81.7536 49.9109 -81.7536 45.5555C-81.7536 41.2001 -85.3185 37.6694 -89.7161 37.6694C-94.1137 37.6694 -97.6786 41.2001 -97.6786 45.5555C-97.6786 49.9109 -94.1137 53.4416 -89.7161 53.4416Z" fill="white"/>
<path d="M361.815 137.608C365.24 137.608 368.016 134.859 368.016 131.467C368.016 128.075 365.24 125.326 361.815 125.326C358.391 125.326 355.615 128.075 355.615 131.467C355.615 134.859 358.391 137.608 361.815 137.608Z" fill="white"/>
<path d="M-332.842 -259.973C-330.26 -259.973 -328.167 -262.045 -328.167 -264.603C-328.167 -267.16 -330.26 -269.233 -332.842 -269.233C-335.424 -269.233 -337.517 -267.16 -337.517 -264.603C-337.517 -262.045 -335.424 -259.973 -332.842 -259.973Z" fill="white"/>
<path d="M422.991 -92.3294C429.816 -92.3294 435.349 -97.8095 435.349 -104.569C435.349 -111.329 429.816 -116.809 422.991 -116.809C416.165 -116.809 410.632 -111.329 410.632 -104.569C410.632 -97.8095 416.165 -92.3294 422.991 -92.3294Z" fill="white"/>
<path d="M-258.907 -238.909C-253.842 -238.909 -249.736 -242.975 -249.736 -247.991C-249.736 -253.007 -253.842 -257.074 -258.907 -257.074C-263.971 -257.074 -268.077 -253.007 -268.077 -247.991C-268.077 -242.975 -263.971 -238.909 -258.907 -238.909Z" fill="white"/>
<path d="M18.124 -649.125C23.5245 -649.125 27.9025 -653.461 27.9025 -658.81C27.9025 -664.158 23.5245 -668.494 18.124 -668.494C12.7234 -668.494 8.34549 -664.158 8.34549 -658.81C8.34549 -653.461 12.7234 -649.125 18.124 -649.125Z" fill="white"/>
<path d="M306.186 90.1978C313.974 90.1978 320.287 83.9449 320.287 76.2318C320.287 68.5187 313.974 62.2661 306.186 62.2661C298.398 62.2661 292.085 68.5187 292.085 76.2318C292.085 83.9449 298.398 90.1978 306.186 90.1978Z" fill="white"/>
<path d="M-216.039 -549.705C-212.711 -549.705 -210.013 -552.377 -210.013 -555.673C-210.013 -558.969 -212.711 -561.641 -216.039 -561.641C-219.367 -561.641 -222.065 -558.969 -222.065 -555.673C-222.065 -552.377 -219.367 -549.705 -216.039 -549.705Z" fill="white"/>
<path d="M-169.523 -44.6121C-162.886 -44.6121 -157.505 -49.941 -157.505 -56.5146C-157.505 -63.0883 -162.886 -68.4172 -169.523 -68.4172C-176.16 -68.4172 -181.541 -63.0883 -181.541 -56.5146C-181.541 -49.941 -176.16 -44.6121 -169.523 -44.6121Z" fill="white"/>
<path d="M-301.653 -145.064C-298.049 -145.064 -295.128 -147.957 -295.128 -151.527C-295.128 -155.096 -298.049 -157.99 -301.653 -157.99C-305.257 -157.99 -308.179 -155.096 -308.179 -151.527C-308.179 -147.957 -305.257 -145.064 -301.653 -145.064Z" fill="white"/>
<path d="M-280.182 -368.464C-276.338 -368.464 -273.221 -371.551 -273.221 -375.358C-273.221 -379.166 -276.338 -382.252 -280.182 -382.252C-284.027 -382.252 -287.143 -379.166 -287.143 -375.358C-287.143 -371.551 -284.027 -368.464 -280.182 -368.464Z" fill="white"/>
<path d="M570.087 -129.079C573.679 -129.079 576.591 -131.964 576.591 -135.522C576.591 -139.079 573.679 -141.964 570.087 -141.964C566.494 -141.964 563.582 -139.079 563.582 -135.522C563.582 -131.964 566.494 -129.079 570.087 -129.079Z" fill="white"/>
<path d="M558.246 -239.005C564.896 -239.005 570.288 -244.345 570.288 -250.931C570.288 -257.518 564.896 -262.857 558.246 -262.857C551.596 -262.857 546.205 -257.518 546.205 -250.931C546.205 -244.345 551.596 -239.005 558.246 -239.005Z" fill="white"/>
<path d="M-143.861 -543.304C-139.991 -543.304 -136.855 -546.411 -136.855 -550.243C-136.855 -554.075 -139.991 -557.182 -143.861 -557.182C-147.73 -557.182 -150.867 -554.075 -150.867 -550.243C-150.867 -546.411 -147.73 -543.304 -143.861 -543.304Z" fill="white"/>
<path d="M136.278 -705.786C139.83 -705.786 142.709 -708.638 142.709 -712.155C142.709 -715.673 139.83 -718.524 136.278 -718.524C132.727 -718.524 129.848 -715.673 129.848 -712.155C129.848 -708.638 132.727 -705.786 136.278 -705.786Z" fill="white"/>
<path d="M-207.505 -332.193C-199.735 -332.193 -193.437 -338.432 -193.437 -346.126C-193.437 -353.821 -199.735 -360.059 -207.505 -360.059C-215.274 -360.059 -221.573 -353.821 -221.573 -346.126C-221.573 -338.432 -215.274 -332.193 -207.505 -332.193Z" fill="white"/>
<path d="M490.196 -326.453C498.429 -326.453 505.104 -333.063 505.104 -341.218C505.104 -349.373 498.429 -355.983 490.196 -355.983C481.962 -355.983 475.288 -349.373 475.288 -341.218C475.288 -333.063 481.962 -326.453 490.196 -326.453Z" fill="white"/>
<path d="M518.833 -446.12C522.212 -446.12 524.95 -448.833 524.95 -452.179C524.95 -455.525 522.212 -458.237 518.833 -458.237C515.455 -458.237 512.716 -455.525 512.716 -452.179C512.716 -448.833 515.455 -446.12 518.833 -446.12Z" fill="white"/>
<path d="M302.994 -631.973C306.533 -631.973 309.402 -634.814 309.402 -638.318C309.402 -641.823 306.533 -644.664 302.994 -644.664C299.456 -644.664 296.587 -641.823 296.587 -638.318C296.587 -634.814 299.456 -631.973 302.994 -631.973Z" fill="white"/>
<path d="M430.566 -641.933C434.271 -641.933 437.274 -644.908 437.274 -648.577C437.274 -652.246 434.271 -655.22 430.566 -655.22C426.862 -655.22 423.858 -652.246 423.858 -648.577C423.858 -644.908 426.862 -641.933 430.566 -641.933Z" fill="white"/>
<path d="M-68.3552 125.263C-63.9336 125.263 -60.3491 121.712 -60.3491 117.333C-60.3491 112.954 -63.9336 109.404 -68.3552 109.404C-72.7768 109.404 -76.3612 112.954 -76.3612 117.333C-76.3612 121.712 -72.7768 125.263 -68.3552 125.263Z" fill="white"/>
<path d="M-250.628 -210.351C-245.382 -210.351 -241.129 -214.563 -241.129 -219.759C-241.129 -224.955 -245.382 -229.167 -250.628 -229.167C-255.874 -229.167 -260.127 -224.955 -260.127 -219.759C-260.127 -214.563 -255.874 -210.351 -250.628 -210.351Z" fill="white"/>
<path d="M-300.686 -17.2366C-296.819 -17.2366 -293.685 -20.3411 -293.685 -24.1704C-293.685 -27.9998 -296.819 -31.104 -300.686 -31.104C-304.552 -31.104 -307.686 -27.9998 -307.686 -24.1704C-307.686 -20.3411 -304.552 -17.2366 -300.686 -17.2366Z" fill="white"/>
<path d="M5.6571 -615.08C9.45673 -615.08 12.5369 -618.131 12.5369 -621.894C12.5369 -625.657 9.45673 -628.708 5.6571 -628.708C1.85748 -628.708 -1.22272 -625.657 -1.22272 -621.894C-1.22272 -618.131 1.85748 -615.08 5.6571 -615.08Z" fill="white"/>
<path d="M266.656 -607.55C274.411 -607.55 280.697 -613.776 280.697 -621.456C280.697 -629.136 274.411 -635.362 266.656 -635.362C258.902 -635.362 252.616 -629.136 252.616 -621.456C252.616 -613.776 258.902 -607.55 266.656 -607.55Z" fill="white"/>
<path d="M-54.3531 166.202C-50.9797 166.202 -48.245 163.494 -48.245 160.153C-48.245 156.812 -50.9797 154.103 -54.3531 154.103C-57.7265 154.103 -60.4611 156.812 -60.4611 160.153C-60.4611 163.494 -57.7265 166.202 -54.3531 166.202Z" fill="white"/>
<path d="M-123.966 42.3875C-117.619 42.3875 -112.473 37.2913 -112.473 31.0049C-112.473 24.7186 -117.619 19.6224 -123.966 19.6224C-130.313 19.6224 -135.459 24.7186 -135.459 31.0049C-135.459 37.2913 -130.313 42.3875 -123.966 42.3875Z" fill="white"/>
<path d="M-194.141 -559.669C-190.687 -559.669 -187.887 -562.442 -187.887 -565.864C-187.887 -569.285 -190.687 -572.058 -194.141 -572.058C-197.596 -572.058 -200.396 -569.285 -200.396 -565.864C-200.396 -562.442 -197.596 -559.669 -194.141 -559.669Z" fill="white"/>
<path d="M-82.663 82.5675C-76.1187 82.5675 -70.8134 77.3132 -70.8134 70.8316C-70.8134 64.35 -76.1187 59.0957 -82.663 59.0957C-89.2074 59.0957 -94.5126 64.35 -94.5126 70.8316C-94.5126 77.3132 -89.2074 82.5675 -82.663 82.5675Z" fill="white"/>
<path d="M-208.574 -136.179C-200.618 -136.179 -194.168 -142.566 -194.168 -150.446C-194.168 -158.326 -200.618 -164.714 -208.574 -164.714C-216.53 -164.714 -222.98 -158.326 -222.98 -150.446C-222.98 -142.566 -216.53 -136.179 -208.574 -136.179Z" fill="white"/>
<path d="M-44.9763 -615.803C-40.8539 -615.803 -37.512 -619.113 -37.512 -623.196C-37.512 -627.279 -40.8539 -630.589 -44.9763 -630.589C-49.0988 -630.589 -52.4407 -627.279 -52.4407 -623.196C-52.4407 -619.113 -49.0988 -615.803 -44.9763 -615.803Z" fill="white"/>
<path d="M351.144 43.5517C360.138 43.5517 367.429 36.3309 367.429 27.4237C367.429 18.5165 360.138 11.2957 351.144 11.2957C342.151 11.2957 334.86 18.5165 334.86 27.4237C334.86 36.3309 342.151 43.5517 351.144 43.5517Z" fill="white"/>
<path d="M97.7169 -556.547C105.189 -556.547 111.246 -562.546 111.246 -569.947C111.246 -577.347 105.189 -583.346 97.7169 -583.346C90.2448 -583.346 84.1875 -577.347 84.1875 -569.947C84.1875 -562.546 90.2448 -556.547 97.7169 -556.547Z" fill="white"/>
<path d="M-17.3309 -663.576C-12.8609 -663.576 -9.23718 -667.165 -9.23718 -671.592C-9.23718 -676.019 -12.8609 -679.608 -17.3309 -679.608C-21.801 -679.608 -25.4246 -676.019 -25.4246 -671.592C-25.4246 -667.165 -21.801 -663.576 -17.3309 -663.576Z" fill="white"/>
<path d="M-297.792 -330.462C-294.077 -330.462 -291.064 -333.446 -291.064 -337.126C-291.064 -340.806 -294.077 -343.789 -297.792 -343.789C-301.508 -343.789 -304.52 -340.806 -304.52 -337.126C-304.52 -333.446 -301.508 -330.462 -297.792 -330.462Z" fill="white"/>
<path d="M-288.389 -71.9655C-285.269 -71.9655 -282.74 -74.4703 -282.74 -77.56C-282.74 -80.6497 -285.269 -83.1544 -288.389 -83.1544C-291.509 -83.1544 -294.038 -80.6497 -294.038 -77.56C-294.038 -74.4703 -291.509 -71.9655 -288.389 -71.9655Z" fill="white"/>
<path d="M610.173 -327.731C613.174 -327.731 615.607 -330.14 615.607 -333.112C615.607 -336.084 613.174 -338.494 610.173 -338.494C607.172 -338.494 604.74 -336.084 604.74 -333.112C604.74 -330.14 607.172 -327.731 610.173 -327.731Z" fill="white"/>
<path d="M-175.596 -423.224C-171.031 -423.224 -167.33 -426.89 -167.33 -431.411C-167.33 -435.933 -171.031 -439.598 -175.596 -439.598C-180.162 -439.598 -183.863 -435.933 -183.863 -431.411C-183.863 -426.89 -180.162 -423.224 -175.596 -423.224Z" fill="white"/>
<path d="M586.653 -361.08C590.42 -361.08 593.473 -364.104 593.473 -367.834C593.473 -371.564 590.42 -374.588 586.653 -374.588C582.887 -374.588 579.834 -371.564 579.834 -367.834C579.834 -364.104 582.887 -361.08 586.653 -361.08Z" fill="white"/>
<path d="M31.2539 -622.664C35.3187 -622.664 38.614 -625.928 38.614 -629.954C38.614 -633.98 35.3187 -637.243 31.2539 -637.243C27.189 -637.243 23.8938 -633.98 23.8938 -629.954C23.8938 -625.928 27.189 -622.664 31.2539 -622.664Z" fill="white"/>
<path d="M443.22 -580.044C447.462 -580.044 450.902 -583.451 450.902 -587.653C450.902 -591.855 447.462 -595.262 443.22 -595.262C438.977 -595.262 435.537 -591.855 435.537 -587.653C435.537 -583.451 438.977 -580.044 443.22 -580.044Z" fill="white"/>
<path d="M488.995 -498.814C495.4 -498.814 500.592 -503.956 500.592 -510.299C500.592 -516.643 495.4 -521.785 488.995 -521.785C482.59 -521.785 477.398 -516.643 477.398 -510.299C477.398 -503.956 482.59 -498.814 488.995 -498.814Z" fill="white"/>
<path d="M519.326 -196.982C526.085 -196.982 531.564 -202.409 531.564 -209.103C531.564 -215.797 526.085 -221.224 519.326 -221.224C512.567 -221.224 507.088 -215.797 507.088 -209.103C507.088 -202.409 512.567 -196.982 519.326 -196.982Z" fill="white"/>
<path d="M262.503 97.1791C271.693 97.1791 279.143 89.8002 279.143 80.6981C279.143 71.5959 271.693 64.2171 262.503 64.2171C253.312 64.2171 245.862 71.5959 245.862 80.6981C245.862 89.8002 253.312 97.1791 262.503 97.1791Z" fill="white"/>
<path d="M567.126 -51.2596C572.153 -51.2596 576.227 -55.2955 576.227 -60.2739C576.227 -65.2524 572.153 -69.2882 567.126 -69.2882C562.099 -69.2882 558.024 -65.2524 558.024 -60.2739C558.024 -55.2955 562.099 -51.2596 567.126 -51.2596Z" fill="white"/>
<path d="M401.078 -420.199C409.323 -420.199 416.007 -426.819 416.007 -434.985C416.007 -443.151 409.323 -449.771 401.078 -449.771C392.833 -449.771 386.148 -443.151 386.148 -434.985C386.148 -426.819 392.833 -420.199 401.078 -420.199Z" fill="white"/>
<path d="M-157.424 -452.657C-151.41 -452.657 -146.534 -457.486 -146.534 -463.443C-146.534 -469.4 -151.41 -474.229 -157.424 -474.229C-163.439 -474.229 -168.314 -469.4 -168.314 -463.443C-168.314 -457.486 -163.439 -452.657 -157.424 -452.657Z" fill="white"/>
<path d="M147.74 -635.177C154.669 -635.177 160.287 -640.74 160.287 -647.603C160.287 -654.465 154.669 -660.028 147.74 -660.028C140.811 -660.028 135.194 -654.465 135.194 -647.603C135.194 -640.74 140.811 -635.177 147.74 -635.177Z" fill="white"/>
<path d="M-322.094 -154.475C-318.588 -154.475 -315.746 -157.29 -315.746 -160.762C-315.746 -164.234 -318.588 -167.048 -322.094 -167.048C-325.599 -167.048 -328.441 -164.234 -328.441 -160.762C-328.441 -157.29 -325.599 -154.475 -322.094 -154.475Z" fill="white"/>
<path d="M235.255 -613.1C241.404 -613.1 246.389 -618.037 246.389 -624.127C246.389 -630.216 241.404 -635.153 235.255 -635.153C229.107 -635.153 224.122 -630.216 224.122 -624.127C224.122 -618.037 229.107 -613.1 235.255 -613.1Z" fill="white"/>
<path d="M-284.422 -10.6644C-279.656 -10.6644 -275.792 -14.4913 -275.792 -19.2119C-275.792 -23.9326 -279.656 -27.7595 -284.422 -27.7595C-289.189 -27.7595 -293.053 -23.9326 -293.053 -19.2119C-293.053 -14.4913 -289.189 -10.6644 -284.422 -10.6644Z" fill="white"/>
<path d="M-4.15445 -708.967C-1.65488 -708.967 0.37146 -710.974 0.37146 -713.449C0.37146 -715.925 -1.65488 -717.932 -4.15445 -717.932C-6.65402 -717.932 -8.6803 -715.925 -8.6803 -713.449C-8.6803 -710.974 -6.65402 -708.967 -4.15445 -708.967Z" fill="white"/>
<path d="M20.858 79.2818C28.157 79.2818 34.074 73.4215 34.074 66.1925C34.074 58.9635 28.157 53.1033 20.858 53.1033C13.5589 53.1033 7.64188 58.9635 7.64188 66.1925C7.64188 73.4215 13.5589 79.2818 20.858 79.2818Z" fill="white"/>
<path d="M61.4736 227.357C64.8599 227.357 67.6051 224.638 67.6051 221.284C67.6051 217.931 64.8599 215.212 61.4736 215.212C58.0873 215.212 55.3422 217.931 55.3422 221.284C55.3422 224.638 58.0873 227.357 61.4736 227.357Z" fill="white"/>
<path d="M386.937 -594.118C390.597 -594.118 393.565 -597.057 393.565 -600.682C393.565 -604.307 390.597 -607.246 386.937 -607.246C383.276 -607.246 380.309 -604.307 380.309 -600.682C380.309 -597.057 383.276 -594.118 386.937 -594.118Z" fill="white"/>
<path d="M-318.881 -358.682C-315.272 -358.682 -312.346 -361.58 -312.346 -365.154C-312.346 -368.729 -315.272 -371.626 -318.881 -371.626C-322.49 -371.626 -325.416 -368.729 -325.416 -365.154C-325.416 -361.58 -322.49 -358.682 -318.881 -358.682Z" fill="white"/>
<path d="M597.835 -231.591C601.909 -231.591 605.212 -234.862 605.212 -238.897C605.212 -242.932 601.909 -246.204 597.835 -246.204C593.76 -246.204 590.458 -242.932 590.458 -238.897C590.458 -234.862 593.76 -231.591 597.835 -231.591Z" fill="white"/>
<path d="M541.185 -169.502C545.989 -169.502 549.883 -173.359 549.883 -178.117C549.883 -182.875 545.989 -186.733 541.185 -186.733C536.38 -186.733 532.486 -182.875 532.486 -178.117C532.486 -173.359 536.38 -169.502 541.185 -169.502Z" fill="white"/>
<path d="M-264.848 -440.657C-260.811 -440.657 -257.538 -443.899 -257.538 -447.897C-257.538 -451.895 -260.811 -455.137 -264.848 -455.137C-268.885 -455.137 -272.158 -451.895 -272.158 -447.897C-272.158 -443.899 -268.885 -440.657 -264.848 -440.657Z" fill="white"/>
<path d="M-198.629 -504.349C-195.05 -504.349 -192.148 -507.222 -192.148 -510.767C-192.148 -514.312 -195.05 -517.186 -198.629 -517.186C-202.208 -517.186 -205.11 -514.312 -205.11 -510.767C-205.11 -507.222 -202.208 -504.349 -198.629 -504.349Z" fill="white"/>
<path d="M-166.893 6.02899C-162.766 6.02899 -159.421 2.71564 -159.421 -1.37146C-159.421 -5.45856 -162.766 -8.77185 -166.893 -8.77185C-171.019 -8.77185 -174.365 -5.45856 -174.365 -1.37146C-174.365 2.71564 -171.019 6.02899 -166.893 6.02899Z" fill="white"/>
<path d="M-300.701 -98.235C-297.737 -98.235 -295.334 -100.615 -295.334 -103.55C-295.334 -106.486 -297.737 -108.866 -300.701 -108.866C-303.665 -108.866 -306.068 -106.486 -306.068 -103.55C-306.068 -100.615 -303.665 -98.235 -300.701 -98.235Z" fill="white"/>
<path d="M-218.337 0.388855C-214.219 0.388855 -210.881 -2.91748 -210.881 -6.99603C-210.881 -11.0746 -214.219 -14.381 -218.337 -14.381C-222.456 -14.381 -225.794 -11.0746 -225.794 -6.99603C-225.794 -2.91748 -222.456 0.388855 -218.337 0.388855Z" fill="white"/>
<path d="M535.245 70.2757C539.217 70.2757 542.437 67.0866 542.437 63.1527C542.437 59.2188 539.217 56.0298 535.245 56.0298C531.273 56.0298 528.053 59.2188 528.053 63.1527C528.053 67.0866 531.273 70.2757 535.245 70.2757Z" fill="white"/>
<path d="M314.382 -544.615C321.956 -544.615 328.096 -550.696 328.096 -558.197C328.096 -565.699 321.956 -571.78 314.382 -571.78C306.808 -571.78 300.668 -565.699 300.668 -558.197C300.668 -550.696 306.808 -544.615 314.382 -544.615Z" fill="white"/>
<path d="M259.729 173.141C265.057 173.141 269.376 168.864 269.376 163.587C269.376 158.311 265.057 154.034 259.729 154.034C254.402 154.034 250.083 158.311 250.083 163.587C250.083 168.864 254.402 173.141 259.729 173.141Z" fill="white"/>
<path d="M537.616 -376.548C541.849 -376.548 545.28 -379.947 545.28 -384.139C545.28 -388.33 541.849 -391.729 537.616 -391.729C533.384 -391.729 529.953 -388.33 529.953 -384.139C529.953 -379.947 533.384 -376.548 537.616 -376.548Z" fill="white"/>
<path d="M219.438 183.078C223.145 183.078 226.15 180.101 226.15 176.429C226.15 172.758 223.145 169.781 219.438 169.781C215.73 169.781 212.725 172.758 212.725 176.429C212.725 180.101 215.73 183.078 219.438 183.078Z" fill="white"/>
<path d="M552.207 -444.606C555.211 -444.606 557.646 -447.018 557.646 -449.993C557.646 -452.969 555.211 -455.381 552.207 -455.381C549.203 -455.381 546.768 -452.969 546.768 -449.993C546.768 -447.018 549.203 -444.606 552.207 -444.606Z" fill="white"/>
<path d="M-167.801 -608.391C-163.827 -608.391 -160.605 -611.582 -160.605 -615.518C-160.605 -619.454 -163.827 -622.645 -167.801 -622.645C-171.776 -622.645 -174.998 -619.454 -174.998 -615.518C-174.998 -611.582 -171.776 -608.391 -167.801 -608.391Z" fill="white"/>
<path d="M-206.729 -257.39C-197.677 -257.39 -190.338 -264.658 -190.338 -273.624C-190.338 -282.589 -197.677 -289.858 -206.729 -289.858C-215.782 -289.858 -223.12 -282.589 -223.12 -273.624C-223.12 -264.658 -215.782 -257.39 -206.729 -257.39Z" fill="white"/>
<path d="M-79.1858 -671.581C-75.8888 -671.581 -73.2161 -674.228 -73.2161 -677.493C-73.2161 -680.759 -75.8888 -683.406 -79.1858 -683.406C-82.4828 -683.406 -85.1555 -680.759 -85.1555 -677.493C-85.1555 -674.228 -82.4828 -671.581 -79.1858 -671.581Z" fill="white"/>
<path d="M10.8375 -591.789C15.4 -591.789 19.0986 -595.452 19.0986 -599.97C19.0986 -604.489 15.4 -608.152 10.8375 -608.152C6.27499 -608.152 2.57639 -604.489 2.57639 -599.97C2.57639 -595.452 6.27499 -591.789 10.8375 -591.789Z" fill="white"/>
<path d="M600.532 -32.0533C603.958 -32.0533 606.736 -34.8046 606.736 -38.1983C606.736 -41.592 603.958 -44.3431 600.532 -44.3431C597.105 -44.3431 594.327 -41.592 594.327 -38.1983C594.327 -34.8046 597.105 -32.0533 600.532 -32.0533Z" fill="white"/>
<path d="M568.549 -516.163C571.603 -516.163 574.078 -518.615 574.078 -521.639C574.078 -524.663 571.603 -527.115 568.549 -527.115C565.495 -527.115 563.019 -524.663 563.019 -521.639C563.019 -518.615 565.495 -516.163 568.549 -516.163Z" fill="white"/>
<path d="M517.124 -570.851C519.753 -570.851 521.885 -572.962 521.885 -575.566C521.885 -578.17 519.753 -580.28 517.124 -580.28C514.495 -580.28 512.364 -578.17 512.364 -575.566C512.364 -572.962 514.495 -570.851 517.124 -570.851Z" fill="white"/>
<path d="M456.072 81.3757C460.38 81.3757 463.873 77.9167 463.873 73.65C463.873 69.3832 460.38 65.9242 456.072 65.9242C451.764 65.9242 448.271 69.3832 448.271 73.65C448.271 77.9167 451.764 81.3757 456.072 81.3757Z" fill="white"/>
<path d="M-64.485 -693.641C-61.8893 -693.641 -59.7849 -695.725 -59.7849 -698.296C-59.7849 -700.867 -61.8893 -702.951 -64.485 -702.951C-67.0808 -702.951 -69.1851 -700.867 -69.1851 -698.296C-69.1851 -695.725 -67.0808 -693.641 -64.485 -693.641Z" fill="white"/>
<path d="M350.208 -639.069C355.615 -639.069 359.998 -643.41 359.998 -648.765C359.998 -654.119 355.615 -658.46 350.208 -658.46C344.801 -658.46 340.418 -654.119 340.418 -648.765C340.418 -643.41 344.801 -639.069 350.208 -639.069Z" fill="white"/>
<path d="M-208.68 17.7421C-203.813 17.7421 -199.867 13.8345 -199.867 9.01422C-199.867 4.19397 -203.813 0.286438 -208.68 0.286438C-213.547 0.286438 -217.492 4.19397 -217.492 9.01422C-217.492 13.8345 -213.547 17.7421 -208.68 17.7421Z" fill="white"/>
<path d="M391.085 -543.675C396.26 -543.675 400.455 -547.829 400.455 -552.954C400.455 -558.079 396.26 -562.234 391.085 -562.234C385.911 -562.234 381.716 -558.079 381.716 -552.954C381.716 -547.829 385.911 -543.675 391.085 -543.675Z" fill="white"/>
<path d="M-311.465 -264.036C-308.617 -264.036 -306.309 -266.322 -306.309 -269.143C-306.309 -271.963 -308.617 -274.249 -311.465 -274.249C-314.313 -274.249 -316.621 -271.963 -316.621 -269.143C-316.621 -266.322 -314.313 -264.036 -311.465 -264.036Z" fill="white"/>
<path d="M87.7075 -652.603C91.5555 -652.603 94.6748 -655.692 94.6748 -659.503C94.6748 -663.314 91.5555 -666.404 87.7075 -666.404C83.8596 -666.404 80.7402 -663.314 80.7402 -659.503C80.7402 -655.692 83.8596 -652.603 87.7075 -652.603Z" fill="white"/>
<path d="M29.6346 128.405C36.2633 128.405 41.6369 123.083 41.6369 116.518C41.6369 109.953 36.2633 104.631 29.6346 104.631C23.0059 104.631 17.6322 109.953 17.6322 116.518C17.6322 123.083 23.0059 128.405 29.6346 128.405Z" fill="white"/>
<path d="M-223.391 -584.404C-220.548 -584.404 -218.243 -586.686 -218.243 -589.502C-218.243 -592.317 -220.548 -594.6 -223.391 -594.6C-226.233 -594.6 -228.538 -592.317 -228.538 -589.502C-228.538 -586.686 -226.233 -584.404 -223.391 -584.404Z" fill="white"/>
<path d="M-106.271 -616.845C-100.681 -616.845 -96.1492 -621.334 -96.1492 -626.87C-96.1492 -632.407 -100.681 -636.895 -106.271 -636.895C-111.861 -636.895 -116.393 -632.407 -116.393 -626.87C-116.393 -621.334 -111.861 -616.845 -106.271 -616.845Z" fill="white"/>
<path d="M186.082 -718.552C190.134 -718.552 193.42 -721.806 193.42 -725.819C193.42 -729.833 190.134 -733.087 186.082 -733.087C182.029 -733.087 178.744 -729.833 178.744 -725.819C178.744 -721.806 182.029 -718.552 186.082 -718.552Z" fill="white"/>
<path d="M370.833 -660.264C374.148 -660.264 376.835 -662.925 376.835 -666.208C376.835 -669.491 374.148 -672.152 370.833 -672.152C367.518 -672.152 364.831 -669.491 364.831 -666.208C364.831 -662.925 367.518 -660.264 370.833 -660.264Z" fill="white"/>
<path d="M-276.523 -197.436C-271.513 -197.436 -267.451 -201.459 -267.451 -206.421C-267.451 -211.383 -271.513 -215.406 -276.523 -215.406C-281.534 -215.406 -285.595 -211.383 -285.595 -206.421C-285.595 -201.459 -281.534 -197.436 -276.523 -197.436Z" fill="white"/>
<path d="M477.077 -366.06C483.35 -366.06 488.435 -371.097 488.435 -377.309C488.435 -383.522 483.35 -388.558 477.077 -388.558C470.804 -388.558 465.719 -383.522 465.719 -377.309C465.719 -371.097 470.804 -366.06 477.077 -366.06Z" fill="white"/>
<path d="M412.487 -602.492C415.687 -602.492 418.282 -605.062 418.282 -608.231C418.282 -611.401 415.687 -613.97 412.487 -613.97C409.286 -613.97 406.692 -611.401 406.692 -608.231C406.692 -605.062 409.286 -602.492 412.487 -602.492Z" fill="white"/>
<path d="M351.428 -554.536C355.721 -554.536 359.201 -557.983 359.201 -562.235C359.201 -566.486 355.721 -569.933 351.428 -569.933C347.135 -569.933 343.654 -566.486 343.654 -562.235C343.654 -557.983 347.135 -554.536 351.428 -554.536Z" fill="white"/>
<path d="M92.8196 -693.343C96.1105 -693.343 98.7783 -695.985 98.7783 -699.244C98.7783 -702.503 96.1105 -705.146 92.8196 -705.146C89.5287 -705.146 86.861 -702.503 86.861 -699.244C86.861 -695.985 89.5287 -693.343 92.8196 -693.343Z" fill="white"/>
<path d="M95.3187 211.27C98.5522 211.27 101.173 208.674 101.173 205.472C101.173 202.27 98.5522 199.674 95.3187 199.674C92.0852 199.674 89.4641 202.27 89.4641 205.472C89.4641 208.674 92.0852 211.27 95.3187 211.27Z" fill="white"/>
<path d="M87.5416 -599.592C94.9503 -599.592 100.956 -605.541 100.956 -612.878C100.956 -620.216 94.9503 -626.164 87.5416 -626.164C80.1328 -626.164 74.1269 -620.216 74.1269 -612.878C74.1269 -605.541 80.1328 -599.592 87.5416 -599.592Z" fill="white"/>
<path d="M-261.928 -287.502C-256.433 -287.502 -251.979 -291.913 -251.979 -297.355C-251.979 -302.797 -256.433 -307.208 -261.928 -307.208C-267.422 -307.208 -271.876 -302.797 -271.876 -297.355C-271.876 -291.913 -267.422 -287.502 -261.928 -287.502Z" fill="white"/>
<path d="M-252.339 33.9333C-249.865 33.9333 -247.858 31.9464 -247.858 29.4954C-247.858 27.0444 -249.865 25.0574 -252.339 25.0574C-254.814 25.0574 -256.82 27.0444 -256.82 29.4954C-256.82 31.9464 -254.814 33.9333 -252.339 33.9333Z" fill="white"/>
<path d="M396.121 -612.787C400.851 -612.787 404.686 -616.585 404.686 -621.27C404.686 -625.955 400.851 -629.753 396.121 -629.753C391.39 -629.753 387.556 -625.955 387.556 -621.27C387.556 -616.585 391.39 -612.787 396.121 -612.787Z" fill="white"/>
<path d="M302.133 173.833C306.4 173.833 309.86 170.407 309.86 166.18C309.86 161.954 306.4 158.528 302.133 158.528C297.866 158.528 294.406 161.954 294.406 166.18C294.406 170.407 297.866 173.833 302.133 173.833Z" fill="white"/>
<path d="M-235.595 -442.846C-231.683 -442.846 -228.511 -445.988 -228.511 -449.863C-228.511 -453.737 -231.683 -456.879 -235.595 -456.879C-239.507 -456.879 -242.679 -453.737 -242.679 -449.863C-242.679 -445.988 -239.507 -442.846 -235.595 -442.846Z" fill="white"/>
<path d="M-257.54 -17.3394C-253.974 -17.3394 -251.083 -20.2024 -251.083 -23.734C-251.083 -27.2656 -253.974 -30.1285 -257.54 -30.1285C-261.106 -30.1285 -263.996 -27.2656 -263.996 -23.734C-263.996 -20.2024 -261.106 -17.3394 -257.54 -17.3394Z" fill="white"/>
<path d="M-325.976 -326.573C-321.933 -326.573 -318.656 -329.819 -318.656 -333.822C-318.656 -337.826 -321.933 -341.072 -325.976 -341.072C-330.018 -341.072 -333.295 -337.826 -333.295 -333.822C-333.295 -329.819 -330.018 -326.573 -325.976 -326.573Z" fill="white"/>
</svg>
